<svg width="380" height="232" viewBox="0 0 380 232" fill="none" xmlns="http://www.w3.org/2000/svg">
<path d="M69.44 165.32C67.7867 165.32 65.8667 165.24 63.68 165.08C62.88 165.027 61.8667 164.973 60.64 164.92C59.4133 164.867 58.0267 164.84 56.48 164.84L50.8 164.92C49.7867 164.973 48.3733 165 46.56 165C46.4533 165 46.4 164.84 46.4 164.52C46.4 164.2 46.4533 164.04 46.56 164.04C48.3733 164.04 49.68 163.907 50.48 163.64C51.3333 163.373 51.92 162.867 52.24 162.12C52.56 161.32 52.72 160.12 52.72 158.52V121.48C52.72 119.88 52.56 118.707 52.24 117.96C51.9733 117.213 51.4133 116.707 50.56 116.44C49.7067 116.12 48.4 115.96 46.64 115.96C46.5333 115.96 46.48 115.8 46.48 115.48C46.48 115.16 46.5333 115 46.64 115L50.88 115.08C53.2267 115.187 55.0933 115.24 56.48 115.24C58.6133 115.24 60.7733 115.16 62.96 115C65.6267 114.893 67.4133 114.84 68.32 114.84C73.76 114.84 78.5867 115.907 82.8 118.04C87.0133 120.173 90.2667 123.08 92.56 126.76C94.9067 130.44 96.08 134.573 96.08 139.16C96.08 144.333 94.88 148.92 92.48 152.92C90.08 156.867 86.8533 159.933 82.8 162.12C78.7467 164.253 74.2933 165.32 69.44 165.32ZM68.64 163.72C72.32 163.72 75.5733 162.84 78.4 161.08C81.28 159.32 83.52 156.733 85.12 153.32C86.72 149.853 87.52 145.72 87.52 140.92C87.52 136.333 86.7467 132.2 85.2 128.52C83.7067 124.787 81.5733 121.853 78.8 119.72C76.0267 117.533 72.8 116.44 69.12 116.44C66.88 116.44 65.1467 116.573 63.92 116.84C62.6933 117.107 61.7867 117.613 61.2 118.36C60.6667 119.053 60.4 120.147 60.4 121.64V157.64C60.4 159.827 60.96 161.4 62.08 162.36C63.2 163.267 65.3867 163.72 68.64 163.72ZM130.023 159.96C130.13 159.96 130.236 160.067 130.343 160.28C130.503 160.493 130.53 160.653 130.423 160.76C128.45 162.573 126.476 163.907 124.503 164.76C122.53 165.56 120.396 165.96 118.103 165.96C114.85 165.96 112.023 165.24 109.623 163.8C107.276 162.36 105.463 160.467 104.183 158.12C102.956 155.773 102.343 153.24 102.343 150.52C102.343 147.373 103.116 144.493 104.663 141.88C106.21 139.267 108.316 137.213 110.983 135.72C113.703 134.173 116.716 133.4 120.023 133.4C123.223 133.4 125.703 134.173 127.463 135.72C129.223 137.267 130.103 139.56 130.103 142.6C130.103 144.147 129.783 144.92 129.143 144.92L109.623 145C109.57 145.48 109.543 146.2 109.543 147.16C109.543 151.853 110.61 155.587 112.743 158.36C114.93 161.08 118.023 162.44 122.023 162.44C123.516 162.44 124.77 162.28 125.783 161.96C126.796 161.587 128.156 160.947 129.863 160.04L130.023 159.96ZM117.143 135C115.17 135 113.543 135.773 112.263 137.32C111.036 138.813 110.21 140.893 109.783 143.56L122.583 143.32C122.476 137.773 120.663 135 117.143 135ZM171.786 164.04C172 164.04 172.106 164.2 172.106 164.52C172.106 164.84 172 165 171.786 165C170.453 165 169.386 164.973 168.586 164.92L164.026 164.84L159.466 164.92C158.666 164.973 157.6 165 156.266 165C156.106 165 156.026 164.84 156.026 164.52C156.026 164.2 156.106 164.04 156.266 164.04C158.026 164.04 159.226 163.667 159.866 162.92C160.506 162.12 160.826 160.653 160.826 158.52V146.6C160.826 140.733 158.533 137.8 153.946 137.8C152.506 137.8 151.04 138.147 149.546 138.84C148.106 139.48 146.826 140.36 145.706 141.48V158.52C145.706 160.707 146 162.173 146.586 162.92C147.226 163.667 148.453 164.04 150.266 164.04C150.48 164.04 150.586 164.2 150.586 164.52C150.586 164.84 150.48 165 150.266 165C148.933 165 147.866 164.973 147.066 164.92L142.506 164.84L137.946 164.92C137.146 164.973 136.08 165 134.746 165C134.586 165 134.506 164.84 134.506 164.52C134.506 164.2 134.586 164.04 134.746 164.04C136.506 164.04 137.706 163.667 138.346 162.92C138.986 162.12 139.306 160.653 139.306 158.52V117.64C139.306 115.773 139.12 114.44 138.746 113.64C138.373 112.787 137.76 112.36 136.906 112.36C136.106 112.36 135.013 112.68 133.626 113.32H133.546C133.386 113.32 133.226 113.187 133.066 112.92C132.96 112.6 132.986 112.413 133.146 112.36L144.266 107.08L144.666 107C144.88 107 145.093 107.107 145.306 107.32C145.573 107.533 145.706 107.72 145.706 107.88V139.88C149.546 135.453 153.626 133.24 157.946 133.24C160.88 133.24 163.146 134.12 164.746 135.88C166.4 137.64 167.226 140.04 167.226 143.08V158.52C167.226 160.707 167.52 162.173 168.106 162.92C168.746 163.667 169.973 164.04 171.786 164.04ZM193.455 162.2C196.495 162.253 198.975 162.413 200.895 162.68C202.815 162.947 204.468 163.693 205.855 164.92C207.295 166.147 208.015 168.067 208.015 170.68C208.015 173.613 207.082 176.36 205.215 178.92C203.348 181.533 200.868 183.613 197.775 185.16C194.682 186.707 191.375 187.48 187.855 187.48C184.175 187.48 181.188 186.653 178.895 185C176.655 183.347 175.535 181.187 175.535 178.52C175.535 174.733 178.255 171.027 183.695 167.4C179.748 166.653 177.775 164.76 177.775 161.72C177.775 160.067 178.228 158.547 179.135 157.16C180.095 155.773 181.535 154.413 183.455 153.08C181.482 152.173 179.935 150.867 178.815 149.16C177.748 147.453 177.215 145.64 177.215 143.72C177.215 141.64 177.855 139.827 179.135 138.28C180.415 136.733 182.068 135.56 184.095 134.76C186.175 133.96 188.388 133.56 190.735 133.56C194.148 133.56 196.975 134.413 199.215 136.12C200.655 135.213 202.068 134.547 203.455 134.12C204.842 133.64 206.335 133.4 207.935 133.4C208.308 133.4 208.495 134.093 208.495 135.48C208.495 136.227 208.388 137 208.175 137.8C208.015 138.6 207.828 138.92 207.615 138.76C205.375 137.907 203.455 137.48 201.855 137.48C201.375 137.48 201.028 137.507 200.815 137.56C202.362 139.267 203.135 141.293 203.135 143.64C203.135 145.667 202.495 147.507 201.215 149.16C199.935 150.813 198.255 152.093 196.175 153C194.095 153.907 191.882 154.36 189.535 154.36C187.775 154.36 186.175 154.12 184.735 153.64C183.562 154.76 182.975 156.093 182.975 157.64C182.975 159.56 183.748 160.787 185.295 161.32C186.895 161.853 189.615 162.147 193.455 162.2ZM188.335 135C185.455 135 184.015 137.16 184.015 141.48C184.015 143.72 184.362 145.72 185.055 147.48C185.802 149.24 186.735 150.6 187.855 151.56C189.028 152.52 190.228 153 191.455 153C192.842 153 193.988 152.413 194.895 151.24C195.802 150.013 196.255 148.173 196.255 145.72C196.255 143.48 195.855 141.56 195.055 139.96C194.308 138.307 193.322 137.08 192.095 136.28C190.922 135.427 189.668 135 188.335 135ZM192.175 185C195.215 185 197.642 184.093 199.455 182.28C201.322 180.52 202.255 178.12 202.255 175.08C202.255 172.84 201.748 171.213 200.735 170.2C199.775 169.187 198.468 168.547 196.815 168.28C195.215 168.013 192.922 167.88 189.935 167.88C188.442 167.88 187.002 167.8 185.615 167.64C183.108 169.453 181.855 171.853 181.855 174.84C181.855 178.04 182.815 180.52 184.735 182.28C186.708 184.093 189.188 185 192.175 185ZM241.815 160.68C242.028 160.68 242.162 160.813 242.215 161.08C242.268 161.293 242.188 161.453 241.975 161.56L233.735 165.48C233.522 165.587 233.282 165.64 233.015 165.64C232.215 165.64 231.442 165.187 230.695 164.28C230.002 163.32 229.548 162.067 229.335 160.52L225.655 163.08C224.375 163.987 223.202 164.627 222.135 165C221.122 165.373 219.975 165.56 218.695 165.56C216.508 165.56 214.828 165.053 213.655 164.04C212.535 162.973 211.975 161.587 211.975 159.88C211.975 158.44 212.348 157.267 213.095 156.36C213.895 155.453 214.882 154.733 216.055 154.2C217.282 153.613 219.068 152.893 221.415 152.04L229.175 149.16V144.36C229.175 141.053 228.828 138.653 228.135 137.16C227.495 135.613 226.455 134.84 225.015 134.84C223.255 134.84 221.975 135.507 221.175 136.84C220.428 138.12 219.975 139.56 219.815 141.16C219.495 143.88 218.135 145.24 215.735 145.24C214.562 145.24 213.682 144.973 213.095 144.44C212.562 143.907 212.295 143.24 212.295 142.44C212.295 140.947 213.175 139.507 214.935 138.12C216.748 136.68 218.908 135.533 221.415 134.68C223.975 133.773 226.215 133.32 228.135 133.32C230.428 133.32 232.242 134.04 233.575 135.48C234.962 136.92 235.655 139.08 235.655 141.96V156.36C235.655 158.013 235.922 159.267 236.455 160.12C236.988 160.973 237.762 161.4 238.775 161.4C239.575 161.4 240.535 161.16 241.655 160.68H241.815ZM229.175 159.24V158.44V150.52L224.375 152.52C222.988 153.053 221.842 153.693 220.935 154.44C220.082 155.133 219.655 156.147 219.655 157.48C219.655 158.76 220.055 159.8 220.855 160.6C221.708 161.347 222.722 161.72 223.895 161.72C224.855 161.72 225.868 161.4 226.935 160.76L229.175 159.24ZM282.289 164.04C282.449 164.04 282.529 164.2 282.529 164.52C282.529 164.84 282.449 165 282.289 165C280.955 165 279.915 164.973 279.169 164.92L274.529 164.84L269.969 164.92C269.169 164.973 268.102 165 266.769 165C266.609 165 266.529 164.84 266.529 164.52C266.529 164.2 266.609 164.04 266.769 164.04C268.582 164.04 269.782 163.667 270.369 162.92C270.955 162.173 271.249 160.707 271.249 158.52V146.52C271.249 143.533 270.689 141.347 269.569 139.96C268.502 138.52 266.795 137.8 264.449 137.8C263.062 137.8 261.649 138.12 260.209 138.76C258.769 139.4 257.462 140.253 256.289 141.32V158.52C256.289 160.707 256.582 162.173 257.169 162.92C257.755 163.667 258.955 164.04 260.769 164.04C260.929 164.04 261.009 164.2 261.009 164.52C261.009 164.84 260.929 165 260.769 165C259.435 165 258.395 164.973 257.649 164.92L253.009 164.84L248.369 164.92C247.622 164.973 246.582 165 245.249 165C245.089 165 245.009 164.84 245.009 164.52C245.009 164.2 245.089 164.04 245.249 164.04C247.062 164.04 248.262 163.667 248.849 162.92C249.435 162.173 249.729 160.707 249.729 158.52V143.24C249.729 141.533 249.515 140.28 249.089 139.48C248.715 138.68 248.075 138.28 247.169 138.28C246.369 138.28 245.035 138.68 243.169 139.48H243.089C242.875 139.48 242.715 139.347 242.609 139.08C242.502 138.813 242.529 138.653 242.689 138.6L253.169 133.48C253.489 133.373 253.675 133.32 253.729 133.32C254.262 133.32 254.795 133.933 255.329 135.16C255.915 136.333 256.235 137.88 256.289 139.8C260.022 135.373 264.075 133.16 268.449 133.16C271.382 133.16 273.675 134.067 275.329 135.88C276.982 137.64 277.809 140.04 277.809 143.08V158.52C277.809 160.707 278.102 162.173 278.689 162.92C279.275 163.667 280.475 164.04 282.289 164.04ZM294.724 124.92C293.337 124.92 292.244 124.547 291.444 123.8C290.697 123.053 290.324 121.987 290.324 120.6C290.324 119.267 290.697 118.253 291.444 117.56C292.244 116.813 293.337 116.44 294.724 116.44C296.057 116.44 297.097 116.813 297.844 117.56C298.59 118.253 298.964 119.267 298.964 120.6C298.964 121.987 298.59 123.053 297.844 123.8C297.15 124.547 296.11 124.92 294.724 124.92ZM287.364 165C287.204 165 287.124 164.84 287.124 164.52C287.124 164.2 287.204 164.04 287.364 164.04C289.177 164.04 290.377 163.667 290.964 162.92C291.55 162.173 291.844 160.707 291.844 158.52V143.96C291.844 142.147 291.657 140.84 291.284 140.04C290.91 139.187 290.27 138.76 289.364 138.76C288.564 138.76 287.524 139.08 286.244 139.72H286.164C285.95 139.72 285.79 139.587 285.684 139.32C285.577 139.053 285.604 138.867 285.764 138.76L297.284 133.4L297.524 133.32C297.737 133.32 297.95 133.453 298.164 133.72C298.43 133.933 298.564 134.12 298.564 134.28V135.96C298.457 138.2 298.404 140.84 298.404 143.88V158.52C298.404 160.707 298.697 162.173 299.284 162.92C299.924 163.667 301.15 164.04 302.964 164.04C303.124 164.04 303.204 164.2 303.204 164.52C303.204 164.84 303.124 165 302.964 165C301.63 165 300.564 164.973 299.764 164.92L295.124 164.84L290.484 164.92C289.737 164.973 288.697 165 287.364 165Z" fill="#4971FF"/>
<path d="M66.08 73.04C66.1867 73.04 66.24 73.2 66.24 73.52C66.24 73.84 66.1867 74 66.08 74C64.32 74 62.9067 73.9733 61.84 73.92L56.08 73.84L50.48 73.92C49.52 73.9733 48.16 74 46.4 74C46.2933 74 46.24 73.84 46.24 73.52C46.24 73.2 46.2933 73.04 46.4 73.04C48.7467 73.04 50.32 72.7733 51.12 72.24C51.92 71.7067 52.32 70.5867 52.32 68.88L52.24 67.52L50.64 33.6L33.6 73.44C33.4933 73.6533 33.28 73.76 32.96 73.76C32.6933 73.76 32.4533 73.6533 32.24 73.44L12.24 33.92L11.52 64.32C11.4667 67.1467 12 69.3067 13.12 70.8C14.2933 72.2933 16.0267 73.04 18.32 73.04C18.48 73.04 18.56 73.2 18.56 73.52C18.56 73.84 18.48 74 18.32 74C16.88 74 15.76 73.9733 14.96 73.92L10.56 73.84L5.84 73.92C5.04 73.9733 3.92 74 2.48 74C2.32 74 2.24 73.84 2.24 73.52C2.24 73.2 2.32 73.04 2.48 73.04C4.66667 73.04 6.34667 72.2933 7.52 70.8C8.74667 69.3067 9.38667 67.1467 9.44 64.32L10.16 29.92C9.2 28.2133 8.13333 26.96 6.96 26.16C5.84 25.36 4.53333 24.96 3.04 24.96C2.88 24.96 2.8 24.8 2.8 24.48C2.8 24.16 2.88 24 3.04 24L6.48 24.08C7.17333 24.1333 8.08 24.16 9.2 24.16L12.96 24.08C13.3867 24.0267 13.92 24 14.56 24C15.2533 24 15.8133 24.2667 16.24 24.8C16.6667 25.28 17.3333 26.4 18.24 28.16L35.84 62.48L51.76 26C52.08 25.2533 52.4267 24.7467 52.8 24.48C53.1733 24.16 53.6267 24 54.16 24C54.5333 24 55.0133 24.0267 55.6 24.08C56.1867 24.1333 56.9067 24.16 57.76 24.16L62.08 24.08C62.7733 24.0267 63.8133 24 65.2 24C65.3067 24 65.36 24.16 65.36 24.48C65.36 24.8 65.3067 24.96 65.2 24.96C62.64 24.96 60.7733 25.44 59.6 26.4C58.48 27.3067 57.9733 28.8267 58.08 30.96L59.84 67.52C59.9467 69.1733 60.16 70.3733 60.48 71.12C60.8 71.8667 61.36 72.3733 62.16 72.64C62.96 72.9067 64.2667 73.04 66.08 73.04ZM86.7688 75.04C83.5688 75.04 80.7421 74.2933 78.2888 72.8C75.8354 71.2533 73.9421 69.2 72.6088 66.64C71.2754 64.0267 70.6087 61.2 70.6087 58.16C70.6087 54.6933 71.4621 51.76 73.1688 49.36C74.9288 46.9067 77.1421 45.0933 79.8088 43.92C82.5288 42.6933 85.3021 42.08 88.1288 42.08C91.3821 42.08 94.2088 42.8533 96.6088 44.4C99.0621 45.9467 100.929 48 102.209 50.56C103.489 53.0667 104.129 55.76 104.129 58.64C104.129 61.84 103.329 64.6933 101.729 67.2C100.182 69.7067 98.0754 71.6533 95.4088 73.04C92.7421 74.3733 89.8621 75.04 86.7688 75.04ZM89.1688 73.44C91.5154 73.44 93.3021 72.4 94.5288 70.32C95.8088 68.24 96.4488 65.2 96.4488 61.2C96.4488 57.6267 95.9421 54.5067 94.9288 51.84C93.9688 49.1733 92.6354 47.1467 90.9288 45.76C89.2754 44.3733 87.4621 43.68 85.4888 43.68C83.0888 43.68 81.2754 44.6667 80.0488 46.64C78.8221 48.6133 78.2088 51.52 78.2088 55.36C78.2088 58.8267 78.6621 61.9467 79.5688 64.72C80.5288 67.44 81.8354 69.5733 83.4888 71.12C85.1954 72.6667 87.0888 73.44 89.1688 73.44ZM145.755 73.04C145.968 73.04 146.075 73.2 146.075 73.52C146.075 73.84 145.968 74 145.755 74C144.422 74 143.355 73.9733 142.555 73.92L137.995 73.84L133.435 73.92C132.635 73.9733 131.568 74 130.235 74C130.075 74 129.995 73.84 129.995 73.52C129.995 73.2 130.075 73.04 130.235 73.04C131.995 73.04 133.195 72.6667 133.835 71.92C134.475 71.12 134.795 69.6533 134.795 67.52V55.6C134.795 49.7333 132.502 46.8 127.915 46.8C126.475 46.8 125.008 47.1467 123.515 47.84C122.075 48.48 120.795 49.36 119.675 50.48V67.52C119.675 69.7067 119.968 71.1733 120.555 71.92C121.195 72.6667 122.422 73.04 124.235 73.04C124.448 73.04 124.555 73.2 124.555 73.52C124.555 73.84 124.448 74 124.235 74C122.902 74 121.835 73.9733 121.035 73.92L116.475 73.84L111.915 73.92C111.115 73.9733 110.048 74 108.715 74C108.555 74 108.475 73.84 108.475 73.52C108.475 73.2 108.555 73.04 108.715 73.04C110.475 73.04 111.675 72.6667 112.315 71.92C112.955 71.12 113.275 69.6533 113.275 67.52V26.64C113.275 24.7733 113.088 23.44 112.715 22.64C112.342 21.7867 111.728 21.36 110.875 21.36C110.075 21.36 108.982 21.68 107.595 22.32H107.515C107.355 22.32 107.195 22.1867 107.035 21.92C106.928 21.6 106.955 21.4133 107.115 21.36L118.235 16.08L118.635 16C118.848 16 119.062 16.1067 119.275 16.32C119.542 16.5333 119.675 16.72 119.675 16.88V48.88C123.515 44.4533 127.595 42.24 131.915 42.24C134.848 42.24 137.115 43.12 138.715 44.88C140.368 46.64 141.195 49.04 141.195 52.08V67.52C141.195 69.7067 141.488 71.1733 142.075 71.92C142.715 72.6667 143.942 73.04 145.755 73.04ZM180.784 69.68C180.997 69.68 181.13 69.8133 181.184 70.08C181.237 70.2933 181.157 70.4533 180.944 70.56L172.704 74.48C172.49 74.5867 172.25 74.64 171.984 74.64C171.184 74.64 170.41 74.1867 169.664 73.28C168.97 72.32 168.517 71.0667 168.304 69.52L164.624 72.08C163.344 72.9867 162.17 73.6267 161.104 74C160.09 74.3733 158.944 74.56 157.664 74.56C155.477 74.56 153.797 74.0533 152.624 73.04C151.504 71.9733 150.944 70.5867 150.944 68.88C150.944 67.44 151.317 66.2667 152.064 65.36C152.864 64.4533 153.85 63.7333 155.024 63.2C156.25 62.6133 158.037 61.8933 160.384 61.04L168.144 58.16V53.36C168.144 50.0533 167.797 47.6533 167.104 46.16C166.464 44.6133 165.424 43.84 163.984 43.84C162.224 43.84 160.944 44.5067 160.144 45.84C159.397 47.12 158.944 48.56 158.784 50.16C158.464 52.88 157.104 54.24 154.704 54.24C153.53 54.24 152.65 53.9733 152.064 53.44C151.53 52.9067 151.264 52.24 151.264 51.44C151.264 49.9467 152.144 48.5067 153.904 47.12C155.717 45.68 157.877 44.5333 160.384 43.68C162.944 42.7733 165.184 42.32 167.104 42.32C169.397 42.32 171.21 43.04 172.544 44.48C173.93 45.92 174.624 48.08 174.624 50.96V65.36C174.624 67.0133 174.89 68.2667 175.424 69.12C175.957 69.9733 176.73 70.4 177.744 70.4C178.544 70.4 179.504 70.16 180.624 69.68H180.784ZM168.144 68.24V67.44V59.52L163.344 61.52C161.957 62.0533 160.81 62.6933 159.904 63.44C159.05 64.1333 158.624 65.1467 158.624 66.48C158.624 67.76 159.024 68.8 159.824 69.6C160.677 70.3467 161.69 70.72 162.864 70.72C163.824 70.72 164.837 70.4 165.904 69.76L168.144 68.24ZM241.178 73.04C241.391 73.04 241.498 73.2 241.498 73.52C241.498 73.84 241.391 74 241.178 74C239.844 74 238.778 73.9733 237.978 73.92L233.418 73.84L228.858 73.92C228.058 73.9733 226.991 74 225.658 74C225.498 74 225.418 73.84 225.418 73.52C225.418 73.2 225.498 73.04 225.658 73.04C227.418 73.04 228.618 72.6667 229.258 71.92C229.898 71.12 230.218 69.6533 230.218 67.52V55.6C230.218 52.6133 229.684 50.4 228.618 48.96C227.604 47.52 226.031 46.8 223.898 46.8C222.458 46.8 221.018 47.1467 219.578 47.84C218.138 48.5333 216.884 49.4667 215.818 50.64V51.44V67.52C215.818 69.7067 216.111 71.1733 216.698 71.92C217.338 72.6667 218.564 73.04 220.378 73.04C220.538 73.04 220.618 73.2 220.618 73.52C220.618 73.84 220.538 74 220.378 74C219.044 74 217.978 73.9733 217.178 73.92L212.538 73.84L207.978 73.92C207.178 73.9733 206.111 74 204.778 74C204.618 74 204.538 73.84 204.538 73.52C204.538 73.2 204.618 73.04 204.778 73.04C206.591 73.04 207.791 72.6667 208.378 71.92C209.018 71.1733 209.338 69.7067 209.338 67.52V55.6C209.338 52.6133 208.804 50.4 207.738 48.96C206.724 47.52 205.151 46.8 203.018 46.8C201.684 46.8 200.324 47.12 198.938 47.76C197.551 48.4 196.324 49.2533 195.258 50.32V67.52C195.258 69.7067 195.551 71.1733 196.138 71.92C196.724 72.6667 197.924 73.04 199.738 73.04C199.898 73.04 199.978 73.2 199.978 73.52C199.978 73.84 199.898 74 199.738 74C198.404 74 197.364 73.9733 196.618 73.92L191.978 73.84L187.338 73.92C186.591 73.9733 185.551 74 184.218 74C184.058 74 183.978 73.84 183.978 73.52C183.978 73.2 184.058 73.04 184.218 73.04C186.031 73.04 187.231 72.6667 187.818 71.92C188.404 71.1733 188.698 69.7067 188.698 67.52V52.24C188.698 50.5333 188.484 49.28 188.058 48.48C187.684 47.68 187.044 47.28 186.138 47.28C185.338 47.28 184.004 47.68 182.138 48.48H182.058C181.844 48.48 181.684 48.3467 181.578 48.08C181.471 47.8133 181.498 47.6533 181.658 47.6L192.138 42.48C192.458 42.3733 192.644 42.32 192.697 42.32C193.231 42.32 193.764 42.9333 194.298 44.16C194.884 45.3333 195.204 46.88 195.258 48.8C198.831 44.4267 202.724 42.24 206.938 42.24C209.391 42.24 211.364 42.8533 212.858 44.08C214.351 45.2533 215.284 46.9867 215.658 49.28C219.444 44.5867 223.498 42.24 227.818 42.24C230.644 42.24 232.804 43.0667 234.298 44.72C235.844 46.32 236.618 48.7733 236.618 52.08V67.52C236.618 69.7067 236.911 71.1733 237.498 71.92C238.138 72.6667 239.364 73.04 241.178 73.04ZM302.974 73.04C303.188 73.04 303.294 73.2 303.294 73.52C303.294 73.84 303.188 74 302.974 74C301.641 74 300.574 73.9733 299.774 73.92L295.214 73.84L290.654 73.92C289.854 73.9733 288.788 74 287.454 74C287.294 74 287.214 73.84 287.214 73.52C287.214 73.2 287.294 73.04 287.454 73.04C289.214 73.04 290.414 72.6667 291.054 71.92C291.694 71.12 292.014 69.6533 292.014 67.52V55.6C292.014 52.6133 291.481 50.4 290.414 48.96C289.401 47.52 287.828 46.8 285.694 46.8C284.254 46.8 282.814 47.1467 281.374 47.84C279.934 48.5333 278.681 49.4667 277.614 50.64V51.44V67.52C277.614 69.7067 277.908 71.1733 278.494 71.92C279.134 72.6667 280.361 73.04 282.174 73.04C282.334 73.04 282.414 73.2 282.414 73.52C282.414 73.84 282.334 74 282.174 74C280.841 74 279.774 73.9733 278.974 73.92L274.334 73.84L269.774 73.92C268.974 73.9733 267.908 74 266.574 74C266.414 74 266.334 73.84 266.334 73.52C266.334 73.2 266.414 73.04 266.574 73.04C268.388 73.04 269.588 72.6667 270.174 71.92C270.814 71.1733 271.134 69.7067 271.134 67.52V55.6C271.134 52.6133 270.601 50.4 269.534 48.96C268.521 47.52 266.948 46.8 264.814 46.8C263.481 46.8 262.121 47.12 260.734 47.76C259.348 48.4 258.121 49.2533 257.054 50.32V67.52C257.054 69.7067 257.348 71.1733 257.934 71.92C258.521 72.6667 259.721 73.04 261.534 73.04C261.694 73.04 261.774 73.2 261.774 73.52C261.774 73.84 261.694 74 261.534 74C260.201 74 259.161 73.9733 258.414 73.92L253.774 73.84L249.134 73.92C248.388 73.9733 247.348 74 246.014 74C245.854 74 245.774 73.84 245.774 73.52C245.774 73.2 245.854 73.04 246.014 73.04C247.828 73.04 249.028 72.6667 249.614 71.92C250.201 71.1733 250.494 69.7067 250.494 67.52V52.24C250.494 50.5333 250.281 49.28 249.854 48.48C249.481 47.68 248.841 47.28 247.934 47.28C247.134 47.28 245.801 47.68 243.934 48.48H243.854C243.641 48.48 243.481 48.3467 243.374 48.08C243.268 47.8133 243.294 47.6533 243.454 47.6L253.934 42.48C254.254 42.3733 254.441 42.32 254.494 42.32C255.028 42.32 255.561 42.9333 256.094 44.16C256.681 45.3333 257.001 46.88 257.054 48.8C260.628 44.4267 264.521 42.24 268.734 42.24C271.188 42.24 273.161 42.8533 274.654 44.08C276.148 45.2533 277.081 46.9867 277.454 49.28C281.241 44.5867 285.294 42.24 289.614 42.24C292.441 42.24 294.601 43.0667 296.094 44.72C297.641 46.32 298.414 48.7733 298.414 52.08V67.52C298.414 69.7067 298.708 71.1733 299.294 71.92C299.934 72.6667 301.161 73.04 302.974 73.04ZM337.971 69.68C338.185 69.68 338.318 69.8133 338.371 70.08C338.425 70.2933 338.345 70.4533 338.131 70.56L329.891 74.48C329.678 74.5867 329.438 74.64 329.171 74.64C328.371 74.64 327.598 74.1867 326.851 73.28C326.158 72.32 325.705 71.0667 325.491 69.52L321.811 72.08C320.531 72.9867 319.358 73.6267 318.291 74C317.278 74.3733 316.131 74.56 314.851 74.56C312.665 74.56 310.985 74.0533 309.811 73.04C308.691 71.9733 308.131 70.5867 308.131 68.88C308.131 67.44 308.505 66.2667 309.251 65.36C310.051 64.4533 311.038 63.7333 312.211 63.2C313.438 62.6133 315.225 61.8933 317.571 61.04L325.331 58.16V53.36C325.331 50.0533 324.985 47.6533 324.291 46.16C323.651 44.6133 322.611 43.84 321.171 43.84C319.411 43.84 318.131 44.5067 317.331 45.84C316.585 47.12 316.131 48.56 315.971 50.16C315.651 52.88 314.291 54.24 311.891 54.24C310.718 54.24 309.838 53.9733 309.251 53.44C308.718 52.9067 308.451 52.24 308.451 51.44C308.451 49.9467 309.331 48.5067 311.091 47.12C312.905 45.68 315.065 44.5333 317.571 43.68C320.131 42.7733 322.371 42.32 324.291 42.32C326.585 42.32 328.398 43.04 329.731 44.48C331.118 45.92 331.811 48.08 331.811 50.96V65.36C331.811 67.0133 332.078 68.2667 332.611 69.12C333.145 69.9733 333.918 70.4 334.931 70.4C335.731 70.4 336.691 70.16 337.811 69.68H337.971ZM325.331 68.24V67.44V59.52L320.531 61.52C319.145 62.0533 317.998 62.6933 317.091 63.44C316.238 64.1333 315.811 65.1467 315.811 66.48C315.811 67.76 316.211 68.8 317.011 69.6C317.865 70.3467 318.878 70.72 320.051 70.72C321.011 70.72 322.025 70.4 323.091 69.76L325.331 68.24ZM378.445 69.04C378.605 69.04 378.738 69.1733 378.845 69.44C379.005 69.7067 379.005 69.8667 378.845 69.92L368.605 74.88L368.125 74.96C367.592 74.96 367.085 74.4267 366.605 73.36C366.178 72.2933 365.938 70.8533 365.885 69.04C363.965 70.8533 361.992 72.32 359.965 73.44C357.938 74.5067 355.725 75.04 353.325 75.04C351.032 75.04 348.925 74.4267 347.005 73.2C345.085 71.92 343.565 70.1067 342.445 67.76C341.325 65.4133 340.765 62.6667 340.765 59.52C340.765 55.5733 341.698 52.2933 343.565 49.68C345.432 47.0667 347.778 45.1467 350.605 43.92C353.432 42.6933 356.258 42.08 359.085 42.08C361.432 42.08 363.672 42.5067 365.805 43.36V26.64C365.805 24.7733 365.618 23.44 365.245 22.64C364.925 21.7867 364.312 21.36 363.405 21.36C362.818 21.36 361.752 21.68 360.205 22.32H360.045C359.832 22.32 359.672 22.1867 359.565 21.92C359.458 21.6533 359.458 21.4933 359.565 21.44L370.845 16.08L371.165 16C371.378 16 371.618 16.1067 371.885 16.32C372.152 16.5333 372.285 16.72 372.285 16.88V64.88C372.285 66.7467 372.472 68.08 372.845 68.88C373.218 69.6267 373.858 70 374.765 70C375.832 70 377.032 69.68 378.365 69.04H378.445ZM357.325 71.52C358.872 71.52 360.312 71.1733 361.645 70.48C363.032 69.7867 364.418 68.8 365.805 67.52V67.44V48.4C364.738 46.9067 363.538 45.8133 362.205 45.12C360.925 44.3733 359.378 44 357.565 44C354.525 44 352.152 45.0667 350.445 47.2C348.792 49.3333 347.965 52.6133 347.965 57.04C347.965 61.52 348.845 65.0667 350.605 67.68C352.365 70.24 354.605 71.52 357.325 71.52Z" fill="#4971FF"/>
<path d="M272.51 223.64C272.61 223.64 272.66 223.7 272.66 223.82C272.66 223.94 272.61 224 272.51 224C272.11 224 271.49 223.98 270.65 223.94C269.77 223.9 269.14 223.88 268.76 223.88C268.26 223.88 267.65 223.9 266.93 223.94C266.25 223.98 265.71 224 265.31 224C265.23 224 265.19 223.94 265.19 223.82C265.19 223.7 265.23 223.64 265.31 223.64C265.83 223.64 266.2 223.59 266.42 223.49C266.66 223.37 266.78 223.17 266.78 222.89C266.78 222.55 266.58 221.98 266.18 221.18L264.14 217.13H256.76L255.59 219.74C255.33 220.32 255.2 220.86 255.2 221.36C255.2 222.08 255.45 222.64 255.95 223.04C256.47 223.44 257.16 223.64 258.02 223.64C258.12 223.64 258.17 223.7 258.17 223.82C258.17 223.94 258.12 224 258.02 224C257.66 224 257.14 223.98 256.46 223.94C255.7 223.9 255.04 223.88 254.48 223.88C253.94 223.88 253.29 223.9 252.53 223.94C251.85 223.98 251.3 224 250.88 224C250.8 224 250.76 223.94 250.76 223.82C250.76 223.7 250.8 223.64 250.88 223.64C251.44 223.64 251.91 223.53 252.29 223.31C252.67 223.07 253.05 222.66 253.43 222.08C253.81 221.48 254.26 220.6 254.78 219.44L261.29 205.13C261.33 205.07 261.42 205.04 261.56 205.04C261.72 205.04 261.81 205.07 261.83 205.13L269.33 219.89C270.03 221.31 270.61 222.29 271.07 222.83C271.53 223.37 272.01 223.64 272.51 223.64ZM257.15 216.29H263.69L260.24 209.45L257.15 216.29ZM287.385 223.64C287.445 223.64 287.475 223.7 287.475 223.82C287.475 223.94 287.445 224 287.385 224C286.865 224 286.455 223.99 286.155 223.97L284.355 223.94L282.045 223.97C281.705 223.99 281.245 224 280.665 224C280.605 224 280.575 223.94 280.575 223.82C280.575 223.7 280.605 223.64 280.665 223.64C281.385 223.64 281.745 223.43 281.745 223.01C281.745 222.79 281.665 222.59 281.505 222.41L278.085 218.03L277.515 218.54V221.57C277.515 222.37 277.625 222.92 277.845 223.22C278.085 223.5 278.515 223.64 279.135 223.64C279.215 223.64 279.255 223.7 279.255 223.82C279.255 223.94 279.215 224 279.135 224C278.615 224 278.195 223.99 277.875 223.97L276.135 223.94L274.335 223.97C274.035 223.99 273.625 224 273.105 224C273.065 224 273.045 223.94 273.045 223.82C273.045 223.7 273.065 223.64 273.105 223.64C273.725 223.64 274.145 223.5 274.365 223.22C274.605 222.92 274.725 222.37 274.725 221.57V206.33C274.725 205.63 274.655 205.13 274.515 204.83C274.395 204.53 274.175 204.38 273.855 204.38C273.575 204.38 273.195 204.49 272.715 204.71H272.685C272.625 204.71 272.565 204.66 272.505 204.56C272.465 204.44 272.465 204.37 272.505 204.35L276.885 202.28L277.035 202.25C277.135 202.25 277.235 202.3 277.335 202.4C277.455 202.48 277.515 202.56 277.515 202.64V217.85L280.305 215.15C280.825 214.67 281.085 214.18 281.085 213.68C281.085 213.42 280.985 213.21 280.785 213.05C280.585 212.87 280.305 212.78 279.945 212.78C279.905 212.78 279.885 212.72 279.885 212.6C279.885 212.48 279.905 212.42 279.945 212.42C280.525 212.42 280.975 212.43 281.295 212.45L283.665 212.48L285.855 212.45C286.135 212.43 286.525 212.42 287.025 212.42C287.085 212.42 287.115 212.48 287.115 212.6C287.115 212.72 287.085 212.78 287.025 212.78C286.165 212.78 285.175 213 284.055 213.44C282.955 213.86 281.965 214.48 281.085 215.3L280.005 216.29L284.115 221.57C284.695 222.29 285.245 222.82 285.765 223.16C286.305 223.48 286.845 223.64 287.385 223.64ZM299.781 222.38C299.861 222.38 299.911 222.43 299.931 222.53C299.971 222.61 299.951 222.67 299.871 222.71L296.781 224.18C296.701 224.22 296.601 224.24 296.481 224.24C296.161 224.24 295.851 224.07 295.551 223.73C295.271 223.39 295.071 222.93 294.951 222.35L293.661 223.25C293.201 223.59 292.771 223.84 292.371 224C291.971 224.14 291.521 224.21 291.021 224.21C290.161 224.21 289.511 224.02 289.071 223.64C288.631 223.26 288.411 222.73 288.411 222.05C288.411 221.51 288.541 221.08 288.801 220.76C289.061 220.42 289.381 220.16 289.761 219.98C290.161 219.78 290.711 219.56 291.411 219.32L292.161 219.05L294.861 218.06V216.35C294.861 215.07 294.751 214.14 294.531 213.56C294.331 212.98 293.981 212.69 293.481 212.69C292.421 212.69 291.821 213.51 291.681 215.15C291.621 215.75 291.441 216.18 291.141 216.44C290.861 216.7 290.461 216.83 289.941 216.83C289.441 216.83 289.071 216.73 288.831 216.53C288.611 216.31 288.501 216.03 288.501 215.69C288.501 215.09 288.851 214.52 289.551 213.98C290.251 213.42 291.091 212.97 292.071 212.63C293.071 212.29 293.951 212.12 294.711 212.12C295.591 212.12 296.301 212.4 296.841 212.96C297.401 213.5 297.681 214.33 297.681 215.45V220.76C297.681 221.34 297.781 221.79 297.981 222.11C298.201 222.43 298.501 222.59 298.881 222.59C299.161 222.59 299.451 222.52 299.751 222.38H299.781ZM294.891 221.84C294.871 221.76 294.861 221.63 294.861 221.45V218.57L293.571 219.17C293.511 219.19 293.311 219.27 292.971 219.41C292.631 219.53 292.331 219.74 292.071 220.04C291.831 220.34 291.711 220.69 291.711 221.09C291.711 221.57 291.861 221.95 292.161 222.23C292.481 222.49 292.841 222.62 293.241 222.62C293.561 222.62 293.891 222.51 294.231 222.29L294.891 221.84ZM331.859 223.64C331.899 223.64 331.919 223.7 331.919 223.82C331.919 223.94 331.899 224 331.859 224C331.179 224 330.639 223.99 330.239 223.97L328.019 223.94L325.769 223.97C325.389 223.99 324.869 224 324.209 224C324.149 224 324.119 223.94 324.119 223.82C324.119 223.7 324.149 223.64 324.209 223.64C325.049 223.64 325.619 223.54 325.919 223.34C326.219 223.14 326.369 222.72 326.369 222.08L326.339 221.57L325.709 209.3L319.529 223.79C319.489 223.87 319.409 223.91 319.289 223.91C319.169 223.91 319.089 223.87 319.049 223.79L311.459 209.36L311.219 220.19C311.199 221.27 311.409 222.12 311.849 222.74C312.309 223.34 312.949 223.64 313.769 223.64C313.829 223.64 313.859 223.7 313.859 223.82C313.859 223.94 313.829 224 313.769 224C313.229 224 312.809 223.99 312.509 223.97L310.859 223.94L308.969 223.97C308.649 223.99 308.219 224 307.679 224C307.619 224 307.589 223.94 307.589 223.82C307.589 223.7 307.619 223.64 307.679 223.64C308.499 223.64 309.149 223.33 309.629 222.71C310.109 222.09 310.359 221.25 310.379 220.19L310.649 207.77L310.619 207.74C310.219 207 309.799 206.46 309.359 206.12C308.939 205.78 308.449 205.61 307.889 205.61C307.829 205.61 307.799 205.55 307.799 205.43C307.799 205.31 307.829 205.25 307.889 205.25L309.299 205.28C309.579 205.3 309.939 205.31 310.379 205.31L311.969 205.28C312.149 205.26 312.379 205.25 312.659 205.25C312.919 205.25 313.119 205.34 313.259 205.52C313.399 205.7 313.659 206.13 314.039 206.81L320.579 219.08L326.279 206C326.399 205.72 326.519 205.53 326.639 205.43C326.779 205.31 326.959 205.25 327.179 205.25C327.359 205.25 327.559 205.26 327.779 205.28C328.019 205.3 328.289 205.31 328.589 205.31L330.359 205.28C330.639 205.26 331.039 205.25 331.559 205.25C331.619 205.25 331.649 205.31 331.649 205.43C331.649 205.55 331.619 205.61 331.559 205.61C330.619 205.61 329.939 205.8 329.519 206.18C329.099 206.56 328.909 207.15 328.949 207.95L329.669 221.57C329.709 222.19 329.779 222.64 329.879 222.92C329.999 223.2 330.199 223.39 330.479 223.49C330.779 223.59 331.239 223.64 331.859 223.64ZM341.562 212.12C342.022 212.12 342.462 212.29 342.882 212.63C343.322 212.95 343.542 213.34 343.542 213.8C343.542 214.22 343.412 214.57 343.152 214.85C342.892 215.11 342.552 215.24 342.132 215.24C341.832 215.24 341.582 215.18 341.382 215.06C341.202 214.94 341.012 214.76 340.812 214.52C340.632 214.32 340.472 214.18 340.332 214.1C340.212 214 340.062 213.95 339.882 213.95C339.682 213.95 339.462 214.03 339.222 214.19C339.002 214.33 338.652 214.64 338.172 215.12V221.57C338.172 222.37 338.362 222.92 338.742 223.22C339.122 223.5 339.822 223.64 340.842 223.64C340.922 223.64 340.962 223.7 340.962 223.82C340.962 223.94 340.922 224 340.842 224C340.142 224 339.592 223.99 339.192 223.97L336.762 223.94L334.992 223.97C334.692 223.99 334.282 224 333.762 224C333.702 224 333.672 223.94 333.672 223.82C333.672 223.7 333.702 223.64 333.762 223.64C334.382 223.64 334.802 223.5 335.022 223.22C335.242 222.92 335.352 222.37 335.352 221.57V215.93C335.352 215.31 335.272 214.86 335.112 214.58C334.972 214.28 334.742 214.13 334.422 214.13C334.082 214.13 333.602 214.27 332.982 214.55H332.922C332.862 214.55 332.812 214.5 332.772 214.4C332.752 214.3 332.762 214.24 332.802 214.22L336.972 212.18C337.092 212.14 337.162 212.12 337.182 212.12C337.402 212.12 337.602 212.33 337.782 212.75C337.982 213.15 338.102 213.7 338.142 214.4C338.962 213.56 339.632 212.97 340.152 212.63C340.692 212.29 341.162 212.12 341.562 212.12ZM346.054 224.33C345.494 224.33 345.044 224.17 344.704 223.85C344.384 223.51 344.224 223.06 344.224 222.5C344.224 221.98 344.384 221.56 344.704 221.24C345.044 220.92 345.494 220.76 346.054 220.76C346.614 220.76 347.044 220.92 347.344 221.24C347.664 221.54 347.824 221.96 347.824 222.5C347.824 223.08 347.664 223.53 347.344 223.85C347.044 224.17 346.614 224.33 346.054 224.33ZM358.055 205.25C358.115 205.25 358.145 205.31 358.145 205.43C358.145 205.55 358.115 205.61 358.055 205.61C357.535 205.61 357.145 205.67 356.885 205.79C356.645 205.91 356.485 206.12 356.405 206.42C356.325 206.7 356.285 207.14 356.285 207.74V224.12C356.285 226.36 355.725 228.11 354.605 229.37C353.505 230.63 351.965 231.26 349.985 231.26C349.225 231.26 348.605 231.1 348.125 230.78C347.645 230.46 347.405 230.02 347.405 229.46C347.405 229.06 347.535 228.7 347.795 228.38C348.055 228.08 348.445 227.93 348.965 227.93C349.465 227.93 349.845 228.08 350.105 228.38C350.385 228.68 350.635 229.1 350.855 229.64C350.975 229.96 351.095 230.2 351.215 230.36C351.335 230.54 351.485 230.63 351.665 230.63C352.085 230.63 352.395 230.29 352.595 229.61C352.795 228.93 352.895 227.8 352.895 226.22V207.68C352.895 207.08 352.825 206.64 352.685 206.36C352.565 206.08 352.335 205.89 351.995 205.79C351.655 205.67 351.115 205.61 350.375 205.61C350.335 205.61 350.315 205.55 350.315 205.43C350.315 205.31 350.335 205.25 350.375 205.25L352.235 205.28C353.195 205.32 353.965 205.34 354.545 205.34C355.105 205.34 355.805 205.32 356.645 205.28L358.055 205.25Z" fill="black"/>
</svg>
