<svg xmlns="http://www.w3.org/2000/svg" width="380" height="232" fill="none" xmlns:v="https://vecta.io/nano"><g fill="#4971ff"><path d="M69.44 165.32c-1.653 0-3.573-.08-5.76-.24l-3.04-.16-4.16-.08-5.68.08-4.24.08c-.107 0-.16-.16-.16-.48s.053-.48.16-.48c1.813 0 3.12-.133 3.92-.4.853-.267 1.44-.773 1.76-1.52.32-.8.48-2 .48-3.6v-37.04c0-1.6-.16-2.773-.48-3.52-.267-.747-.827-1.253-1.68-1.52-.853-.32-2.16-.48-3.92-.48-.107 0-.16-.16-.16-.48s.053-.48.16-.48l4.24.08 5.6.16 6.48-.24 5.36-.16c5.44 0 10.267 1.067 14.48 3.2s7.467 5.04 9.76 8.72c2.347 3.68 3.52 7.813 3.52 12.4 0 5.173-1.2 9.76-3.6 13.76a25.07 25.07 0 0 1-9.68 9.2c-4.053 2.133-8.507 3.2-13.36 3.2zm-.8-1.6c3.68 0 6.933-.88 9.76-2.64 2.88-1.76 5.12-4.347 6.72-7.76 1.6-3.467 2.4-7.6 2.4-12.4 0-4.587-.773-8.72-2.32-12.4-1.493-3.733-3.627-6.667-6.4-8.8-2.773-2.187-6-3.28-9.68-3.28-2.24 0-3.973.133-5.2.4s-2.133.773-2.72 1.52c-.533.693-.8 1.787-.8 3.28v36c0 2.187.56 3.76 1.68 4.72 1.12.907 3.307 1.36 6.56 1.36zm61.383-3.76c.107 0 .213.107.32.32.16.213.187.373.08.48-1.973 1.813-3.947 3.147-5.92 4-1.973.8-4.107 1.2-6.4 1.2-3.253 0-6.08-.72-8.48-2.16-2.347-1.44-4.16-3.333-5.44-5.68-1.227-2.347-1.84-4.88-1.84-7.6 0-3.147.773-6.027 2.32-8.64s3.653-4.667 6.32-6.16c2.72-1.547 5.733-2.32 9.04-2.32 3.2 0 5.68.773 7.44 2.32s2.64 3.84 2.64 6.88c0 1.547-.32 2.32-.96 2.32l-19.52.08c-.053.48-.08 1.2-.08 2.16 0 4.693 1.067 8.427 3.2 11.2 2.187 2.72 5.28 4.08 9.28 4.08 1.493 0 2.747-.16 3.76-.48 1.013-.373 2.373-1.013 4.08-1.92l.16-.08zM117.143 135c-1.973 0-3.6.773-4.88 2.32-1.227 1.493-2.053 3.573-2.48 6.24l12.8-.24c-.107-5.547-1.92-8.32-5.44-8.32zm54.643 29.04c.214 0 .32.16.32.48s-.106.48-.32.48c-1.333 0-2.4-.027-3.2-.08l-4.56-.08-4.56.08c-.8.053-1.866.08-3.2.08-.16 0-.24-.16-.24-.48s.08-.48.24-.48c1.76 0 2.96-.373 3.6-1.12.64-.8.96-2.267.96-4.4V146.6c0-5.867-2.293-8.8-6.88-8.8-1.44 0-2.906.347-4.4 1.04-1.44.64-2.72 1.52-3.84 2.64v17.04c0 2.187.294 3.653.88 4.4.64.747 1.867 1.12 3.68 1.12.214 0 .32.16.32.48s-.106.48-.32.48c-1.333 0-2.4-.027-3.2-.08l-4.56-.08-4.56.08c-.8.053-1.866.08-3.2.08-.16 0-.24-.16-.24-.48s.08-.48.24-.48c1.76 0 2.96-.373 3.6-1.12.64-.8.96-2.267.96-4.4v-40.88c0-1.867-.186-3.2-.56-4-.373-.853-.986-1.28-1.84-1.28-.8 0-1.893.32-3.28.96h-.08c-.16 0-.32-.133-.48-.4-.106-.32-.08-.507.08-.56l11.12-5.28.4-.08c.214 0 .427.107.64.32.267.213.4.4.4.56v32c3.84-4.427 7.92-6.64 12.24-6.64 2.934 0 5.2.88 6.8 2.64 1.654 1.76 2.48 4.16 2.48 7.2v15.44c0 2.187.294 3.653.88 4.4.64.747 1.867 1.12 3.68 1.12zm21.669-1.84c3.04.053 5.52.213 7.44.48s3.573 1.013 4.96 2.24c1.44 1.227 2.16 3.147 2.16 5.76 0 2.933-.933 5.68-2.8 8.24-1.867 2.613-4.347 4.693-7.44 6.24s-6.4 2.32-9.92 2.32c-3.68 0-6.667-.827-8.96-2.48-2.24-1.653-3.36-3.813-3.36-6.48 0-3.787 2.72-7.493 8.16-11.12-3.947-.747-5.92-2.64-5.92-5.68a8.16 8.16 0 0 1 1.36-4.56c.96-1.387 2.4-2.747 4.32-4.08-1.973-.907-3.52-2.213-4.64-3.92-1.067-1.707-1.6-3.52-1.6-5.44 0-2.08.64-3.893 1.92-5.44s2.933-2.72 4.96-3.52c2.08-.8 4.293-1.2 6.64-1.2 3.413 0 6.24.853 8.48 2.56 1.44-.907 2.853-1.573 4.24-2 1.387-.48 2.88-.72 4.48-.72.373 0 .56.693.56 2.08 0 .747-.107 1.52-.32 2.32-.16.8-.347 1.12-.56.96-2.24-.853-4.16-1.28-5.76-1.28-.48 0-.827.027-1.04.08 1.547 1.707 2.32 3.733 2.32 6.08 0 2.027-.64 3.867-1.92 5.52s-2.96 2.933-5.04 3.84-4.293 1.36-6.64 1.36c-1.76 0-3.36-.24-4.8-.72-1.173 1.12-1.76 2.453-1.76 4 0 1.92.773 3.147 2.32 3.68 1.6.533 4.32.827 8.16.88zm-5.12-27.2c-2.88 0-4.32 2.16-4.32 6.48 0 2.24.347 4.24 1.04 6 .747 1.76 1.68 3.12 2.8 4.08 1.173.96 2.373 1.44 3.6 1.44 1.387 0 2.533-.587 3.44-1.76.907-1.227 1.36-3.067 1.36-5.52 0-2.24-.4-4.16-1.2-5.76-.747-1.653-1.733-2.88-2.96-3.68-1.173-.853-2.427-1.28-3.76-1.28zm3.84 50c3.04 0 5.467-.907 7.28-2.72 1.867-1.76 2.8-4.16 2.8-7.2 0-2.24-.507-3.867-1.52-4.88-.96-1.013-2.267-1.653-3.92-1.92-1.6-.267-3.893-.4-6.88-.4-1.493 0-2.933-.08-4.32-.24-2.507 1.813-3.76 4.213-3.76 7.2 0 3.2.96 5.68 2.88 7.44 1.973 1.813 4.453 2.72 7.44 2.72zm49.64-24.32c.213 0 .347.133.4.4.053.213-.027.373-.24.48l-8.24 3.92a1.58 1.58 0 0 1-.72.16c-.8 0-1.573-.453-2.32-1.36-.693-.96-1.147-2.213-1.36-3.76l-3.68 2.56c-1.28.907-2.453 1.547-3.52 1.92-1.013.373-2.16.56-3.44.56-2.187 0-3.867-.507-5.04-1.52-1.12-1.067-1.68-2.453-1.68-4.16 0-1.44.373-2.613 1.12-3.52.8-.907 1.787-1.627 2.96-2.16 1.227-.587 3.013-1.307 5.36-2.16l7.76-2.88v-4.8c0-3.307-.347-5.707-1.04-7.2-.64-1.547-1.68-2.32-3.12-2.32-1.76 0-3.04.667-3.84 2-.747 1.28-1.2 2.72-1.36 4.32-.32 2.72-1.68 4.08-4.08 4.08-1.173 0-2.053-.267-2.64-.8-.533-.533-.8-1.2-.8-2 0-1.493.88-2.933 2.64-4.32 1.813-1.44 3.973-2.587 6.48-3.44 2.56-.907 4.8-1.36 6.72-1.36 2.293 0 4.107.72 5.44 2.16 1.387 1.44 2.08 3.6 2.08 6.48v14.4c0 1.653.267 2.907.8 3.76a2.57 2.57 0 0 0 2.32 1.28c.8 0 1.76-.24 2.88-.72h.16zm-12.64-1.44v-.8-7.92l-4.8 2c-1.387.533-2.533 1.173-3.44 1.92-.853.693-1.28 1.707-1.28 3.04 0 1.28.4 2.32 1.2 3.12.853.747 1.867 1.12 3.04 1.12.96 0 1.973-.32 3.04-.96l2.24-1.52zm53.114 4.8c.16 0 .24.16.24.48s-.08.48-.24.48c-1.334 0-2.374-.027-3.12-.08l-4.64-.08-4.56.08c-.8.053-1.867.08-3.2.08-.16 0-.24-.16-.24-.48s.08-.48.24-.48c1.813 0 3.013-.373 3.6-1.12s.88-2.213.88-4.4v-12c0-2.987-.56-5.173-1.68-6.56-1.067-1.44-2.774-2.16-5.12-2.16-1.387 0-2.8.32-4.24.96s-2.747 1.493-3.92 2.56v17.2c0 2.187.293 3.653.88 4.4s1.786 1.12 3.6 1.12c.16 0 .24.16.24.48s-.08.48-.24.48c-1.334 0-2.374-.027-3.12-.08l-4.64-.08-4.64.08c-.747.053-1.787.08-3.12.08-.16 0-.24-.16-.24-.48s.08-.48.24-.48c1.813 0 3.013-.373 3.6-1.12s.88-2.213.88-4.4v-15.28c0-1.707-.214-2.96-.64-3.76-.374-.8-1.014-1.2-1.92-1.2-.8 0-2.134.4-4 1.2h-.08c-.214 0-.374-.133-.48-.4s-.08-.427.08-.48l10.48-5.12c.32-.107.506-.16.56-.16.533 0 1.066.613 1.6 1.84.586 1.173.906 2.72.96 4.64 3.733-4.427 7.786-6.64 12.16-6.64 2.933 0 5.226.907 6.88 2.72 1.653 1.76 2.48 4.16 2.48 7.2v15.44c0 2.187.293 3.653.88 4.4s1.786 1.12 3.6 1.12zm12.435-39.12c-1.387 0-2.48-.373-3.28-1.12-.747-.747-1.12-1.813-1.12-3.2 0-1.333.373-2.347 1.12-3.04.8-.747 1.893-1.12 3.28-1.12 1.333 0 2.373.373 3.12 1.12.746.693 1.12 1.707 1.12 3.04 0 1.387-.374 2.453-1.12 3.2-.694.747-1.734 1.12-3.12 1.12zm-7.36 40.08c-.16 0-.24-.16-.24-.48s.08-.48.24-.48c1.813 0 3.013-.373 3.6-1.12s.88-2.213.88-4.4v-14.56c0-1.813-.187-3.12-.56-3.92-.374-.853-1.014-1.28-1.92-1.28-.8 0-1.84.32-3.12.96h-.08c-.214 0-.374-.133-.48-.4s-.08-.453.08-.56l11.52-5.36.24-.08c.213 0 .426.133.64.4.266.213.4.4.4.56v1.68c-.107 2.24-.16 4.88-.16 7.92v14.64c0 2.187.293 3.653.88 4.4.64.747 1.866 1.12 3.68 1.12.16 0 .24.16.24.48s-.08.48-.24.48c-1.334 0-2.4-.027-3.2-.08l-4.64-.08-4.64.08c-.747.053-1.787.08-3.12.08z"/><path d="M66.08 73.04c.107 0 .16.16.16.48s-.053.48-.16.48c-1.76 0-3.173-.027-4.24-.08l-5.76-.08-5.6.08-4.08.08c-.107 0-.16-.16-.16-.48s.053-.48.16-.48c2.347 0 3.92-.267 4.72-.8s1.2-1.653 1.2-3.36l-.08-1.36-1.6-33.92L33.6 73.44c-.107.213-.32.32-.64.32-.267 0-.507-.107-.72-.32l-20-39.52-.72 30.4c-.053 2.827.48 4.987 1.6 6.48 1.173 1.493 2.907 2.24 5.2 2.24.16 0 .24.16.24.48s-.08.48-.24.48c-1.44 0-2.56-.027-3.36-.08l-4.4-.08-4.72.08-3.36.08c-.16 0-.24-.16-.24-.48s.08-.48.24-.48c2.187 0 3.867-.747 5.04-2.24 1.227-1.493 1.867-3.653 1.92-6.48l.72-34.4c-.96-1.707-2.027-2.96-3.2-3.76-1.12-.8-2.427-1.2-3.92-1.2-.16 0-.24-.16-.24-.48s.08-.48.24-.48l3.44.08 2.72.08 3.76-.08c.427-.053.96-.08 1.6-.08.693 0 1.253.267 1.68.8.427.48 1.093 1.6 2 3.36l17.6 34.32L51.76 26c.32-.747.667-1.253 1.04-1.52.373-.32.827-.48 1.36-.48.373 0 .853.027 1.44.08s1.307.08 2.16.08l4.32-.08c.693-.053 1.733-.08 3.12-.08.107 0 .16.16.16.48s-.053.48-.16.48c-2.56 0-4.427.48-5.6 1.44-1.12.907-1.627 2.427-1.52 4.56l1.76 36.56c.107 1.653.32 2.853.64 3.6s.88 1.253 1.68 1.52 2.107.4 3.92.4zm20.689 2c-3.2 0-6.027-.747-8.48-2.24-2.453-1.547-4.347-3.6-5.68-6.16-1.333-2.613-2-5.44-2-8.48 0-3.467.853-6.4 2.56-8.8 1.76-2.453 3.973-4.267 6.64-5.44 2.72-1.227 5.493-1.84 8.32-1.84 3.253 0 6.08.773 8.48 2.32 2.453 1.547 4.32 3.6 5.6 6.16 1.28 2.507 1.92 5.2 1.92 8.08 0 3.2-.8 6.053-2.4 8.56-1.547 2.507-3.654 4.453-6.32 5.84-2.667 1.333-5.547 2-8.64 2zm2.4-1.6c2.347 0 4.133-1.04 5.36-3.12 1.28-2.08 1.92-5.12 1.92-9.12 0-3.573-.507-6.693-1.52-9.36-.96-2.667-2.293-4.693-4-6.08-1.653-1.387-3.467-2.08-5.44-2.08-2.4 0-4.213.987-5.44 2.96s-1.84 4.88-1.84 8.72c0 3.467.453 6.587 1.36 9.36.96 2.72 2.267 4.853 3.92 6.4 1.707 1.547 3.6 2.32 5.68 2.32zm56.586-.4c.213 0 .32.16.32.48s-.107.48-.32.48c-1.333 0-2.4-.027-3.2-.08l-4.56-.08-4.56.08-3.2.08c-.16 0-.24-.16-.24-.48s.08-.48.24-.48c1.76 0 2.96-.373 3.6-1.12.64-.8.96-2.267.96-4.4V55.6c0-5.867-2.293-8.8-6.88-8.8-1.44 0-2.907.347-4.4 1.04-1.44.64-2.72 1.52-3.84 2.64v17.04c0 2.187.293 3.653.88 4.4.64.747 1.867 1.12 3.68 1.12.213 0 .32.16.32.48s-.107.48-.32.48c-1.333 0-2.4-.027-3.2-.08l-4.56-.08-4.56.08c-.8.053-1.867.08-3.2.08-.16 0-.24-.16-.24-.48s.08-.48.24-.48c1.76 0 2.96-.373 3.6-1.12.64-.8.96-2.267.96-4.4V26.64c0-1.867-.187-3.2-.56-4-.373-.853-.987-1.28-1.84-1.28-.8 0-1.893.32-3.28.96h-.08c-.16 0-.32-.133-.48-.4-.107-.32-.08-.507.08-.56l11.12-5.28.4-.08c.213 0 .427.107.64.32.267.213.4.4.4.56v32c3.84-4.427 7.92-6.64 12.24-6.64 2.933 0 5.2.88 6.8 2.64 1.653 1.76 2.48 4.16 2.48 7.2v15.44c0 2.187.293 3.653.88 4.4.64.747 1.867 1.12 3.68 1.12zm35.029-3.36c.213 0 .346.133.4.4.053.213-.027.373-.24.48l-8.24 3.92a1.59 1.59 0 0 1-.72.16c-.8 0-1.574-.453-2.32-1.36-.694-.96-1.147-2.213-1.36-3.76l-3.68 2.56c-1.28.907-2.454 1.547-3.52 1.92-1.014.373-2.16.56-3.44.56-2.187 0-3.867-.507-5.04-1.52-1.12-1.067-1.68-2.453-1.68-4.16 0-1.44.373-2.613 1.12-3.52.8-.907 1.786-1.627 2.96-2.16 1.226-.587 3.013-1.307 5.36-2.16l7.76-2.88v-4.8c0-3.307-.347-5.707-1.04-7.2-.64-1.547-1.68-2.32-3.12-2.32-1.76 0-3.04.667-3.84 2-.747 1.28-1.2 2.72-1.36 4.32-.32 2.72-1.68 4.08-4.08 4.08-1.174 0-2.054-.267-2.64-.8-.534-.533-.8-1.2-.8-2 0-1.493.88-2.933 2.64-4.32 1.813-1.44 3.973-2.587 6.48-3.44 2.56-.907 4.8-1.36 6.72-1.36 2.293 0 4.106.72 5.44 2.16 1.386 1.44 2.08 3.6 2.08 6.48v14.4c0 1.653.266 2.907.8 3.76s1.306 1.28 2.32 1.28c.8 0 1.76-.24 2.88-.72h.16zm-12.64-1.44v-.8-7.92l-4.8 2c-1.387.533-2.534 1.173-3.44 1.92-.854.693-1.28 1.707-1.28 3.04 0 1.28.4 2.32 1.2 3.12.853.747 1.866 1.12 3.04 1.12.96 0 1.973-.32 3.04-.96l2.24-1.52zm73.034 4.8c.213 0 .32.16.32.48s-.107.48-.32.48c-1.334 0-2.4-.027-3.2-.08l-4.56-.08-4.56.08c-.8.053-1.867.08-3.2.08-.16 0-.24-.16-.24-.48s.08-.48.24-.48c1.76 0 2.96-.373 3.6-1.12.64-.8.96-2.267.96-4.4V55.6c0-2.987-.534-5.2-1.6-6.64-1.014-1.44-2.587-2.16-4.72-2.16-1.44 0-2.88.347-4.32 1.04s-2.694 1.627-3.76 2.8v.8 16.08c0 2.187.293 3.653.88 4.4.64.747 1.866 1.12 3.68 1.12.16 0 .24.16.24.48s-.08.48-.24.48c-1.334 0-2.4-.027-3.2-.08l-4.64-.08-4.56.08c-.8.053-1.867.08-3.2.08-.16 0-.24-.16-.24-.48s.08-.48.24-.48c1.813 0 3.013-.373 3.6-1.12.64-.747.96-2.213.96-4.4V55.6c0-2.987-.534-5.2-1.6-6.64-1.014-1.44-2.587-2.16-4.72-2.16-1.334 0-2.694.32-4.08.96s-2.614 1.493-3.68 2.56v17.2c0 2.187.293 3.653.88 4.4s1.786 1.12 3.6 1.12c.16 0 .24.16.24.48s-.08.48-.24.48c-1.334 0-2.374-.027-3.12-.08l-4.64-.08-4.64.08c-.747.053-1.787.08-3.12.08-.16 0-.24-.16-.24-.48s.08-.48.24-.48c1.813 0 3.013-.373 3.6-1.12s.88-2.213.88-4.4V52.24c0-1.707-.214-2.96-.64-3.76-.374-.8-1.014-1.2-1.92-1.2-.8 0-2.134.4-4 1.2h-.08c-.214 0-.374-.133-.48-.4s-.08-.427.08-.48l10.48-5.12c.32-.107.506-.16.559-.16.534 0 1.067.613 1.601 1.84.586 1.173.906 2.72.96 4.64 3.573-4.373 7.466-6.56 11.68-6.56 2.453 0 4.426.613 5.92 1.84 1.493 1.173 2.426 2.907 2.8 5.2 3.786-4.693 7.84-7.04 12.16-7.04 2.826 0 4.986.827 6.48 2.48 1.546 1.6 2.32 4.053 2.32 7.36v15.44c0 2.187.293 3.653.88 4.4.64.747 1.866 1.12 3.68 1.12zm61.796 0c.214 0 .32.16.32.48s-.106.48-.32.48c-1.333 0-2.4-.027-3.2-.08l-4.56-.08-4.56.08c-.8.053-1.866.08-3.2.08-.16 0-.24-.16-.24-.48s.08-.48.24-.48c1.76 0 2.96-.373 3.6-1.12.64-.8.96-2.267.96-4.4V55.6c0-2.987-.533-5.2-1.6-6.64-1.013-1.44-2.586-2.16-4.72-2.16-1.44 0-2.88.347-4.32 1.04s-2.693 1.627-3.76 2.8v.8 16.08c0 2.187.294 3.653.88 4.4.64.747 1.867 1.12 3.68 1.12.16 0 .24.16.24.48s-.08.48-.24.48c-1.333 0-2.4-.027-3.2-.08l-4.64-.08-4.56.08c-.8.053-1.866.08-3.2.08-.16 0-.24-.16-.24-.48s.08-.48.24-.48c1.814 0 3.014-.373 3.6-1.12.64-.747.96-2.213.96-4.4V55.6c0-2.987-.533-5.2-1.6-6.64-1.013-1.44-2.586-2.16-4.72-2.16-1.333 0-2.693.32-4.08.96a12.68 12.68 0 0 0-3.68 2.56v17.2c0 2.187.294 3.653.88 4.4s1.787 1.12 3.6 1.12c.16 0 .24.16.24.48s-.08.48-.24.48c-1.333 0-2.373-.027-3.12-.08l-4.64-.08-4.64.08c-.746.053-1.786.08-3.12.08-.16 0-.24-.16-.24-.48s.08-.48.24-.48c1.814 0 3.014-.373 3.6-1.12s.88-2.213.88-4.4V52.24c0-1.707-.213-2.96-.64-3.76-.373-.8-1.013-1.2-1.92-1.2-.8 0-2.133.4-4 1.2h-.08c-.213 0-.373-.133-.48-.4s-.08-.427.08-.48l10.48-5.12c.32-.107.507-.16.56-.16.534 0 1.067.613 1.6 1.84.587 1.173.907 2.72.96 4.64 3.574-4.373 7.467-6.56 11.68-6.56 2.454 0 4.427.613 5.92 1.84 1.494 1.173 2.427 2.907 2.8 5.2 3.787-4.693 7.84-7.04 12.16-7.04 2.827 0 4.987.827 6.48 2.48 1.547 1.6 2.32 4.053 2.32 7.36v15.44c0 2.187.294 3.653.88 4.4.64.747 1.867 1.12 3.68 1.12zm34.997-3.36c.214 0 .347.133.4.4.054.213-.026.373-.24.48l-8.24 3.92c-.213.107-.453.16-.72.16-.8 0-1.573-.453-2.32-1.36-.693-.96-1.146-2.213-1.36-3.76l-3.68 2.56c-1.28.907-2.453 1.547-3.52 1.92-1.013.373-2.16.56-3.44.56-2.186 0-3.866-.507-5.04-1.52-1.12-1.067-1.68-2.453-1.68-4.16 0-1.44.374-2.613 1.12-3.52.8-.907 1.787-1.627 2.96-2.16 1.227-.587 3.014-1.307 5.36-2.16l7.76-2.88v-4.8c0-3.307-.346-5.707-1.04-7.2-.64-1.547-1.68-2.32-3.12-2.32-1.76 0-3.04.667-3.84 2-.746 1.28-1.2 2.72-1.36 4.32-.32 2.72-1.68 4.08-4.08 4.08-1.173 0-2.053-.267-2.64-.8-.533-.533-.8-1.2-.8-2 0-1.493.88-2.933 2.64-4.32 1.814-1.44 3.974-2.587 6.48-3.44 2.56-.907 4.8-1.36 6.72-1.36 2.294 0 4.107.72 5.44 2.16 1.387 1.44 2.08 3.6 2.08 6.48v14.4c0 1.653.267 2.907.8 3.76s1.307 1.28 2.32 1.28c.8 0 1.76-.24 2.88-.72h.16zm-12.64-1.44v-.8-7.92l-4.8 2c-1.386.533-2.533 1.173-3.44 1.92-.853.693-1.28 1.707-1.28 3.04 0 1.28.4 2.32 1.2 3.12.854.747 1.867 1.12 3.04 1.12.96 0 1.974-.32 3.04-.96l2.24-1.52zm53.114.8c.16 0 .293.133.4.4.16.267.16.427 0 .48l-10.24 4.96-.48.08c-.533 0-1.04-.533-1.52-1.6-.427-1.067-.667-2.507-.72-4.32-1.92 1.813-3.893 3.28-5.92 4.4-2.027 1.067-4.24 1.6-6.64 1.6-2.293 0-4.4-.613-6.32-1.84-1.92-1.28-3.44-3.093-4.56-5.44s-1.68-5.093-1.68-8.24c0-3.947.933-7.227 2.8-9.84s4.213-4.533 7.04-5.76 5.653-1.84 8.48-1.84c2.347 0 4.587.427 6.72 1.28V26.64c0-1.867-.187-3.2-.56-4-.32-.853-.933-1.28-1.84-1.28-.587 0-1.653.32-3.2.96h-.16c-.213 0-.373-.133-.48-.4s-.107-.427 0-.48l11.28-5.36.32-.08c.213 0 .453.107.72.32s.4.4.4.56v48c0 1.867.187 3.2.56 4 .373.747 1.013 1.12 1.92 1.12 1.067 0 2.267-.32 3.6-.96h.08zm-21.12 2.48c1.547 0 2.987-.347 4.32-1.04 1.387-.693 2.773-1.68 4.16-2.96v-.08V48.4c-1.067-1.493-2.267-2.587-3.6-3.28-1.28-.747-2.827-1.12-4.64-1.12-3.04 0-5.413 1.067-7.12 3.2-1.653 2.133-2.48 5.413-2.48 9.84 0 4.48.88 8.027 2.64 10.64 1.76 2.56 4 3.84 6.72 3.84z"/></g><path d="M272.51 223.64c.1 0 .15.06.15.18s-.05.18-.15.18c-.4 0-1.02-.02-1.86-.06l-1.89-.06-1.83.06-1.62.06c-.08 0-.12-.06-.12-.18s.04-.18.12-.18c.52 0 .89-.05 1.11-.15.24-.12.36-.32.36-.6 0-.34-.2-.91-.6-1.71l-2.04-4.05h-7.38l-1.17 2.61c-.26.58-.39 1.12-.39 1.62 0 .72.25 1.28.75 1.68.52.4 1.21.6 2.07.6.1 0 .15.06.15.18s-.05.18-.15.18c-.36 0-.88-.02-1.56-.06l-1.98-.06-1.95.06-1.65.06c-.08 0-.12-.06-.12-.18s.04-.18.12-.18c.56 0 1.03-.11 1.41-.33.38-.24.76-.65 1.14-1.23.38-.6.83-1.48 1.35-2.64l6.51-14.31c.04-.06.13-.09.27-.09.16 0 .25.03.27.09l7.5 14.76c.7 1.42 1.28 2.4 1.74 2.94s.94.81 1.44.81zm-15.36-7.35h6.54l-3.45-6.84-3.09 6.84zm30.235 7.35c.06 0 .09.06.09.18s-.03.18-.09.18c-.52 0-.93-.01-1.23-.03l-1.8-.03-2.31.03-1.38.03c-.06 0-.09-.06-.09-.18s.03-.18.09-.18c.72 0 1.08-.21 1.08-.63 0-.22-.08-.42-.24-.6l-3.42-4.38-.57.51v3.03c0 .8.11 1.35.33 1.65.24.28.67.42 1.29.42.08 0 .12.06.12.18s-.04.18-.12.18c-.52 0-.94-.01-1.26-.03l-1.74-.03-1.8.03-1.23.03c-.04 0-.06-.06-.06-.18s.02-.18.06-.18c.62 0 1.04-.14 1.26-.42.24-.3.36-.85.36-1.65v-15.24c0-.7-.07-1.2-.21-1.5-.12-.3-.34-.45-.66-.45-.28 0-.66.11-1.14.33h-.03c-.06 0-.12-.05-.18-.15-.04-.12-.04-.19 0-.21l4.38-2.07.15-.03c.1 0 .2.05.3.15.12.08.18.16.18.24v15.21l2.79-2.7c.52-.48.78-.97.78-1.47 0-.26-.1-.47-.3-.63-.2-.18-.48-.27-.84-.27-.04 0-.06-.06-.06-.18s.02-.18.06-.18l1.35.03 2.37.03 2.19-.03 1.17-.03c.06 0 .09.06.09.18s-.03.18-.09.18c-.86 0-1.85.22-2.97.66-1.1.42-2.09 1.04-2.97 1.86l-1.08.99 4.11 5.28c.58.72 1.13 1.25 1.65 1.59.54.32 1.08.48 1.62.48zm12.396-1.26c.08 0 .13.05.15.15.04.08.02.14-.06.18l-3.09 1.47c-.08.04-.18.06-.3.06-.32 0-.63-.17-.93-.51-.28-.34-.48-.8-.6-1.38l-1.29.9c-.46.34-.89.59-1.29.75a4.07 4.07 0 0 1-1.35.21c-.86 0-1.51-.19-1.95-.57s-.66-.91-.66-1.59c0-.54.13-.97.39-1.29a2.59 2.59 0 0 1 .96-.78c.4-.2.95-.42 1.65-.66l.75-.27 2.7-.99v-1.71c0-1.28-.11-2.21-.33-2.79-.2-.58-.55-.87-1.05-.87-1.06 0-1.66.82-1.8 2.46-.06.6-.24 1.03-.54 1.29-.28.26-.68.39-1.2.39-.5 0-.87-.1-1.11-.3-.22-.22-.33-.5-.33-.84 0-.6.35-1.17 1.05-1.71.7-.56 1.54-1.01 2.52-1.35 1-.34 1.88-.51 2.64-.51.88 0 1.59.28 2.13.84.56.54.84 1.37.84 2.49v5.31c0 .58.1 1.03.3 1.35.22.32.52.48.9.48.28 0 .57-.07.87-.21h.03zm-4.89-.54c-.02-.08-.03-.21-.03-.39v-2.88l-1.29.6a16.4 16.4 0 0 0-.6.24c-.34.12-.64.33-.9.63a1.63 1.63 0 0 0-.36 1.05c0 .48.15.86.45 1.14.32.26.68.39 1.08.39.32 0 .65-.11.99-.33l.66-.45zm36.968 1.8c.04 0 .06.06.06.18s-.02.18-.06.18c-.68 0-1.22-.01-1.62-.03l-2.22-.03-2.25.03-1.56.03c-.06 0-.09-.06-.09-.18s.03-.18.09-.18c.84 0 1.41-.1 1.71-.3s.45-.62.45-1.26l-.03-.51-.63-12.27-6.18 14.49c-.04.08-.12.12-.24.12s-.2-.04-.24-.12l-7.59-14.43-.24 10.83c-.02 1.08.19 1.93.63 2.55.46.6 1.1.9 1.92.9.06 0 .09.06.09.18s-.03.18-.09.18c-.54 0-.96-.01-1.26-.03l-1.65-.03-1.89.03-1.29.03c-.06 0-.09-.06-.09-.18s.03-.18.09-.18c.82 0 1.47-.31 1.95-.93s.73-1.46.75-2.52l.27-12.42-.03-.03c-.4-.74-.82-1.28-1.26-1.62-.42-.34-.91-.51-1.47-.51-.06 0-.09-.06-.09-.18s.03-.18.09-.18l1.41.03 1.08.03 1.59-.03c.18-.02.41-.03.69-.03.26 0 .46.09.6.27s.4.61.78 1.29l6.54 12.27 5.7-13.08c.12-.28.24-.47.36-.57a.8.8 0 0 1 .54-.18c.18 0 .38.01.6.03l.81.03 1.77-.03 1.2-.03c.06 0 .09.06.09.18s-.03.18-.09.18c-.94 0-1.62.19-2.04.57s-.61.97-.57 1.77l.72 13.62c.04.62.11 1.07.21 1.35.12.28.32.47.6.57.3.1.76.15 1.38.15zm9.703-11.52c.46 0 .9.17 1.32.51.44.32.66.71.66 1.17 0 .42-.13.77-.39 1.05-.26.26-.6.39-1.02.39-.3 0-.55-.06-.75-.18-.18-.12-.37-.3-.57-.54-.18-.2-.34-.34-.48-.42a.68.68 0 0 0-.45-.15c-.2 0-.42.08-.66.24-.22.14-.57.45-1.05.93v6.45c0 .8.19 1.35.57 1.65.38.28 1.08.42 2.1.42.08 0 .12.06.12.18s-.04.18-.12.18c-.7 0-1.25-.01-1.65-.03l-2.43-.03-1.77.03-1.23.03c-.06 0-.09-.06-.09-.18s.03-.18.09-.18c.62 0 1.04-.14 1.26-.42.22-.3.33-.85.33-1.65v-5.64c0-.62-.08-1.07-.24-1.35a.71.71 0 0 0-.69-.45c-.34 0-.82.14-1.44.42h-.06c-.06 0-.11-.05-.15-.15-.02-.1-.01-.16.03-.18l4.17-2.04.21-.06c.22 0 .42.21.6.63.2.4.32.95.36 1.65.82-.84 1.49-1.43 2.01-1.77.54-.34 1.01-.51 1.41-.51zm4.492 12.21c-.56 0-1.01-.16-1.35-.48-.32-.34-.48-.79-.48-1.35 0-.52.16-.94.48-1.26.34-.32.79-.48 1.35-.48s.99.16 1.29.48c.32.3.48.72.48 1.26 0 .58-.16 1.03-.48 1.35-.3.32-.73.48-1.29.48zm12.001-19.08c.06 0 .09.06.09.18s-.03.18-.09.18c-.52 0-.91.06-1.17.18-.24.12-.4.33-.48.63-.08.28-.12.72-.12 1.32v16.38c0 2.24-.56 3.99-1.68 5.25-1.1 1.26-2.64 1.89-4.62 1.89-.76 0-1.38-.16-1.86-.48s-.72-.76-.72-1.32c0-.4.13-.76.39-1.08.26-.3.65-.45 1.17-.45.5 0 .88.15 1.14.45.28.3.53.72.75 1.26.12.32.24.56.36.72.12.18.27.27.45.27.42 0 .73-.34.93-1.02s.3-1.81.3-3.39v-18.54c0-.6-.07-1.04-.21-1.32-.12-.28-.35-.47-.69-.57-.34-.12-.88-.18-1.62-.18-.04 0-.06-.06-.06-.18s.02-.18.06-.18l1.86.03 2.31.06 2.1-.06 1.41-.03z" fill="#000"/></svg>