<svg xmlns="http://www.w3.org/2000/svg" width="2133" height="961" fill="none" xmlns:v="https://vecta.io/nano"><path d="M1807.7 830.8c.33 0 .5.2.5.6s-.17.6-.5.6c-1.33 0-3.4-.067-6.2-.2l-6.3-.2-6.1.2-5.4.2c-.27 0-.4-.2-.4-.6s.13-.6.4-.6c1.73 0 2.97-.167 3.7-.5.8-.4 1.2-1.067 1.2-2 0-1.133-.67-3.033-2-5.7l-6.8-13.5h-24.6l-3.9 8.7c-.87 1.933-1.3 3.733-1.3 5.4 0 2.4.83 4.267 2.5 5.6 1.73 1.333 4.03 2 6.9 2 .33 0 .5.2.5.6s-.17.6-.5.6c-1.2 0-2.93-.067-5.2-.2l-6.6-.2-6.5.2-5.5.2c-.27 0-.4-.2-.4-.6s.13-.6.4-.6c1.87 0 3.43-.367 4.7-1.1 1.27-.8 2.53-2.167 3.8-4.1 1.27-2 2.77-4.933 4.5-8.8l21.7-47.7c.13-.2.43-.3.9-.3.53 0 .83.1.9.3l25 49.2c2.33 4.733 4.27 8 5.8 9.8s3.13 2.7 4.8 2.7zm-51.2-24.5h21.8l-11.5-22.8-10.3 22.8zm100.78 24.5c.2 0 .3.2.3.6s-.1.6-.3.6c-1.73 0-3.1-.033-4.1-.1l-6-.1-7.7.1c-1.13.067-2.66.1-4.6.1-.2 0-.3-.2-.3-.6s.1-.6.3-.6c2.4 0 3.6-.7 3.6-2.1 0-.733-.26-1.4-.8-2l-11.4-14.6-1.9 1.7v10.1c0 2.667.37 4.5 1.1 5.5.8.933 2.24 1.4 4.3 1.4.27 0 .4.2.4.6s-.13.6-.4.6c-1.73 0-3.13-.033-4.2-.1l-5.8-.1-6 .1c-1 .067-2.36.1-4.1.1-.13 0-.2-.2-.2-.6s.07-.6.2-.6c2.07 0 3.47-.467 4.2-1.4.8-1 1.2-2.833 1.2-5.5v-50.8c0-2.333-.23-4-.7-5-.4-1-1.13-1.5-2.2-1.5-.93 0-2.2.367-3.8 1.1h-.1c-.2 0-.4-.167-.6-.5-.13-.4-.13-.633 0-.7l14.6-6.9.5-.1c.34 0 .67.167 1 .5.4.267.6.533.6.8v50.7l9.3-9c1.74-1.6 2.6-3.233 2.6-4.9 0-.867-.33-1.567-1-2.1-.66-.6-1.6-.9-2.8-.9-.13 0-.2-.2-.2-.6s.07-.6.2-.6c1.94 0 3.44.033 4.5.1l7.9.1 7.3-.1c.94-.067 2.24-.1 3.9-.1.2 0 .3.2.3.6s-.1.6-.3.6c-2.86 0-6.16.733-9.9 2.2-3.66 1.4-6.96 3.467-9.9 6.2l-3.6 3.3 13.7 17.6c1.94 2.4 3.77 4.167 5.5 5.3 1.8 1.067 3.6 1.6 5.4 1.6zm41.32-4.2c.27 0 .44.167.5.5.14.267.07.467-.2.6l-10.3 4.9c-.26.133-.6.2-1 .2-1.06 0-2.1-.567-3.1-1.7-.93-1.133-1.6-2.667-2-4.6l-4.3 3c-1.53 1.133-2.96 1.967-4.3 2.5-1.33.467-2.83.7-4.5.7-2.86 0-5.03-.633-6.5-1.9-1.46-1.267-2.2-3.033-2.2-5.3 0-1.8.44-3.233 1.3-4.3.87-1.133 1.94-2 3.2-2.6 1.34-.667 3.17-1.4 5.5-2.2l2.5-.9 9-3.3v-5.7c0-4.267-.36-7.367-1.1-9.3-.66-1.933-1.83-2.9-3.5-2.9-3.53 0-5.53 2.733-6 8.2-.2 2-.8 3.433-1.8 4.3-.93.867-2.26 1.3-4 1.3-1.66 0-2.9-.333-3.7-1-.73-.733-1.1-1.667-1.1-2.8 0-2 1.17-3.9 3.5-5.7 2.34-1.867 5.14-3.367 8.4-4.5 3.34-1.133 6.27-1.7 8.8-1.7 2.94 0 5.3.933 7.1 2.8 1.87 1.8 2.8 4.567 2.8 8.3v17.7c0 1.933.34 3.433 1 4.5.74 1.067 1.74 1.6 3 1.6.94 0 1.9-.233 2.9-.7h.1zm-16.3-1.8c-.06-.267-.1-.7-.1-1.3v-9.6l-4.3 2c-.2.067-.86.333-2 .8-1.13.4-2.13 1.1-3 2.1-.8 1-1.2 2.167-1.2 3.5 0 1.6.5 2.867 1.5 3.8 1.07.867 2.27 1.3 3.6 1.3 1.07 0 2.17-.367 3.3-1.1l2.2-1.5zm123.23 6c.13 0 .2.2.2.6s-.07.6-.2.6c-2.27 0-4.07-.033-5.4-.1l-7.4-.1-7.5.1c-1.27.067-3 .1-5.2.1-.2 0-.3-.2-.3-.6s.1-.6.3-.6c2.8 0 4.7-.333 5.7-1s1.5-2.067 1.5-4.2l-.1-1.7-2.1-40.9-20.6 48.3c-.13.267-.4.4-.8.4s-.67-.133-.8-.4l-25.3-48.1-.8 36.1c-.07 3.6.63 6.433 2.1 8.5 1.53 2 3.67 3 6.4 3 .2 0 .3.2.3.6s-.1.6-.3.6c-1.8 0-3.2-.033-4.2-.1l-5.5-.1-6.3.1c-1.07.067-2.5.1-4.3.1-.2 0-.3-.2-.3-.6s.1-.6.3-.6c2.73 0 4.9-1.033 6.5-3.1s2.43-4.867 2.5-8.4l.9-41.4-.1-.1c-1.33-2.467-2.73-4.267-4.2-5.4-1.4-1.133-3.03-1.7-4.9-1.7-.2 0-.3-.2-.3-.6s.1-.6.3-.6l4.7.1c.93.067 2.13.1 3.6.1l5.3-.1c.6-.067 1.37-.1 2.3-.1.87 0 1.53.3 2 .9s1.33 2.033 2.6 4.3l21.8 40.9 19-43.6c.4-.933.8-1.567 1.2-1.9.47-.4 1.07-.6 1.8-.6.6 0 1.27.033 2 .1a32.64 32.64 0 0 0 2.7.1l5.9-.1c.93-.067 2.27-.1 4-.1.2 0 .3.2.3.6s-.1.6-.3.6c-3.13 0-5.4.633-6.8 1.9s-2.03 3.233-1.9 5.9l2.4 45.4c.13 2.067.37 3.567.7 4.5.4.933 1.07 1.567 2 1.9 1 .333 2.53.5 4.6.5zm32.34-38.4c1.54 0 3 .567 4.4 1.7 1.47 1.067 2.2 2.367 2.2 3.9 0 1.4-.43 2.567-1.3 3.5-.86.867-2 1.3-3.4 1.3-1 0-1.83-.2-2.5-.6-.6-.4-1.23-1-1.9-1.8-.6-.667-1.13-1.133-1.6-1.4-.4-.333-.9-.5-1.5-.5-.66 0-1.4.267-2.2.8-.73.467-1.9 1.5-3.5 3.1v21.5c0 2.667.64 4.5 1.9 5.5 1.27.933 3.6 1.4 7 1.4.27 0 .4.2.4.6s-.13.6-.4.6c-2.33 0-4.16-.033-5.5-.1l-8.1-.1-5.9.1c-1 .067-2.36.1-4.1.1-.2 0-.3-.2-.3-.6s.1-.6.3-.6c2.07 0 3.47-.467 4.2-1.4.74-1 1.1-2.833 1.1-5.5v-18.8c0-2.067-.26-3.567-.8-4.5-.46-1-1.23-1.5-2.3-1.5-1.13 0-2.73.467-4.8 1.4h-.2c-.2 0-.36-.167-.5-.5-.06-.333-.03-.533.1-.6l13.9-6.8c.4-.133.64-.2.7-.2.74 0 1.4.7 2 2.1.67 1.333 1.07 3.167 1.2 5.5 2.74-2.8 4.97-4.767 6.7-5.9 1.8-1.133 3.37-1.7 4.7-1.7zm14.98 40.7c-1.87 0-3.37-.533-4.5-1.6-1.07-1.133-1.6-2.633-1.6-4.5 0-1.733.53-3.133 1.6-4.2 1.13-1.067 2.63-1.6 4.5-1.6 1.86 0 3.3.533 4.3 1.6 1.06 1 1.6 2.4 1.6 4.2 0 1.933-.54 3.433-1.6 4.5-1 1.067-2.44 1.6-4.3 1.6zm40-63.6c.2 0 .3.2.3.6s-.1.6-.3.6c-1.73 0-3.03.2-3.9.6-.8.4-1.33 1.1-1.6 2.1-.27.933-.4 2.4-.4 4.4v54.6c0 7.467-1.87 13.3-5.6 17.5-3.67 4.2-8.8 6.3-15.4 6.3-2.53 0-4.6-.533-6.2-1.6s-2.4-2.533-2.4-4.4c0-1.333.43-2.533 1.3-3.6.87-1 2.17-1.5 3.9-1.5 1.67 0 2.93.5 3.8 1.5.93 1 1.77 2.4 2.5 4.2.4 1.067.8 1.867 1.2 2.4.4.6.9.9 1.5.9 1.4 0 2.43-1.133 3.1-3.4s1-6.033 1-11.3v-61.8c0-2-.23-3.467-.7-4.4-.4-.933-1.17-1.567-2.3-1.9-1.13-.4-2.93-.6-5.4-.6-.13 0-.2-.2-.2-.6s.07-.6.2-.6l6.2.1c3.2.133 5.77.2 7.7.2 1.87 0 4.2-.067 7-.2l4.7-.1z" fill="#000"/><g fill="#4971ff"><path d="M324.1 833.8c-9.3 0-20.1-.45-32.4-1.35l-17.1-.9c-6.9-.3-14.7-.45-23.4-.45l-31.95.45c-5.7.3-13.65.45-23.85.45-.6 0-.9-.9-.9-2.7s.3-2.7.9-2.7c10.2 0 17.55-.75 22.05-2.25 4.8-1.5 8.1-4.35 9.9-8.55 1.8-4.5 2.7-11.25 2.7-20.25V587.2c0-9-.9-15.6-2.7-19.8-1.5-4.2-4.65-7.05-9.45-8.55-4.8-1.8-12.15-2.7-22.05-2.7-.6 0-.9-.9-.9-2.7s.3-2.7.9-2.7l23.85.45c13.2.6 23.7.9 31.5.9 12 0 24.15-.45 36.45-1.35l30.15-.9c30.6 0 57.75 6 81.45 18s42 28.35 54.9 49.05c13.2 20.7 19.8 43.95 19.8 69.75 0 29.1-6.75 54.9-20.25 77.4-13.5 22.2-31.65 39.45-54.45 51.75-22.8 12-47.85 18-75.15 18zm-4.5-9c20.7 0 39-4.95 54.9-14.85 16.2-9.9 28.8-24.45 37.8-43.65 9-19.5 13.5-42.75 13.5-69.75 0-25.8-4.35-49.05-13.05-69.75-8.4-21-20.4-37.5-36-49.5-15.6-12.3-33.75-18.45-54.45-18.45-12.6 0-22.35.75-29.25 2.25s-12 4.35-15.3 8.55c-3 3.9-4.5 10.05-4.5 18.45v202.5c0 12.3 3.15 21.15 9.45 26.55 6.3 5.1 18.6 7.65 36.9 7.65zm345.28-21.15c.6 0 1.2.6 1.8 1.8.9 1.2 1.05 2.1.45 2.7-11.1 10.2-22.2 17.7-33.3 22.5-11.1 4.5-23.1 6.75-36 6.75-18.3 0-34.2-4.05-47.7-12.15-13.2-8.1-23.4-18.75-30.6-31.95-6.9-13.2-10.35-27.45-10.35-42.75 0-17.7 4.35-33.9 13.05-48.6s20.55-26.25 35.55-34.65c15.3-8.7 32.25-13.05 50.85-13.05 18 0 31.95 4.35 41.85 13.05s14.85 21.6 14.85 38.7c0 8.7-1.8 13.05-5.4 13.05l-109.8.45c-.3 2.7-.45 6.75-.45 12.15 0 26.4 6 47.4 18 63 12.3 15.3 29.7 22.95 52.2 22.95 8.4 0 15.45-.9 21.15-2.7 5.7-2.1 13.35-5.7 22.95-10.8l.9-.45zm-72.45-140.4c-11.1 0-20.25 4.35-27.45 13.05-6.9 8.4-11.55 20.1-13.95 35.1l72-1.35c-.6-31.2-10.8-46.8-30.6-46.8zM899.798 826.6c1.2 0 1.8.9 1.8 2.7s-.6 2.7-1.8 2.7c-7.5 0-13.5-.15-18-.45l-25.65-.45-25.65.45c-4.5.3-10.5.45-18 .45-.9 0-1.35-.9-1.35-2.7s.45-2.7 1.35-2.7c9.9 0 16.65-2.1 20.25-6.3 3.6-4.5 5.4-12.75 5.4-24.75V728.5c0-33-12.9-49.5-38.7-49.5-8.1 0-16.35 1.95-24.75 5.85-8.1 3.6-15.3 8.55-21.6 14.85v95.85c0 12.3 1.65 20.55 4.95 24.75 3.6 4.2 10.5 6.3 20.7 6.3 1.2 0 1.8.9 1.8 2.7s-.6 2.7-1.8 2.7c-7.5 0-13.5-.15-18-.45l-25.65-.45-25.65.45c-4.5.3-10.5.45-18 .45-.9 0-1.35-.9-1.35-2.7s.45-2.7 1.35-2.7c9.9 0 16.65-2.1 20.25-6.3 3.6-4.5 5.4-12.75 5.4-24.75V565.6c0-10.5-1.05-18-3.15-22.5-2.1-4.8-5.55-7.2-10.35-7.2-4.5 0-10.65 1.8-18.45 5.4h-.45c-.9 0-1.8-.75-2.7-2.25-.6-1.8-.45-2.85.45-3.15l62.55-29.7 2.25-.45c1.2 0 2.4.6 3.6 1.8 1.5 1.2 2.25 2.25 2.25 3.15v180c21.6-24.9 44.55-37.35 68.85-37.35 16.5 0 29.25 4.95 38.25 14.85 9.3 9.9 13.95 23.4 13.95 40.5v86.85c0 12.3 1.65 20.55 4.95 24.75 3.6 4.2 10.5 6.3 20.7 6.3zm121.882-10.35c17.1.3 31.05 1.2 41.85 2.7s20.1 5.7 27.9 12.6c8.1 6.9 12.15 17.7 12.15 32.4 0 16.5-5.25 31.95-15.75 46.35-10.5 14.7-24.45 26.4-41.85 35.1s-36 13.05-55.796 13.05c-20.7 0-37.5-4.65-50.4-13.95-12.6-9.3-18.9-21.45-18.9-36.45 0-21.3 15.3-42.15 45.9-62.55-22.2-4.2-33.3-14.85-33.3-31.95 0-9.3 2.55-17.85 7.65-25.65 5.4-7.8 13.5-15.45 24.3-22.95-11.1-5.1-19.8-12.45-26.1-22.05-6-9.6-9-19.8-9-30.6 0-11.7 3.6-21.9 10.8-30.6s16.5-15.3 27.9-19.8c11.7-4.5 24.15-6.75 37.346-6.75 19.2 0 35.1 4.8 47.7 14.4 8.1-5.1 16.05-8.85 23.85-11.25 7.8-2.7 16.2-4.05 25.2-4.05 2.1 0 3.15 3.9 3.15 11.7 0 4.2-.6 8.55-1.8 13.05-.9 4.5-1.95 6.3-3.15 5.4-12.6-4.8-23.4-7.2-32.4-7.2-2.7 0-4.65.15-5.85.45 8.7 9.6 13.05 21 13.05 34.2 0 11.4-3.6 21.75-10.8 31.05s-16.65 16.5-28.35 21.6-24.15 7.65-37.346 7.65c-9.9 0-18.9-1.35-27-4.05-6.6 6.3-9.9 13.8-9.9 22.5 0 10.8 4.35 17.7 13.05 20.7 9 3 24.296 4.65 45.896 4.95zm-28.796-153c-16.2 0-24.3 12.15-24.3 36.45 0 12.6 1.95 23.85 5.85 33.75 4.2 9.9 9.45 17.55 15.75 22.95 6.6 5.4 13.346 8.1 20.246 8.1 7.8 0 14.25-3.3 19.35-9.9 5.1-6.9 7.65-17.25 7.65-31.05 0-12.6-2.25-23.4-6.75-32.4-4.2-9.3-9.75-16.2-16.65-20.7-6.6-4.8-13.65-7.2-21.146-7.2zm21.596 281.25c17.1 0 30.75-5.1 40.95-15.3 10.5-9.9 15.75-23.4 15.75-40.5 0-12.6-2.85-21.75-8.55-27.45-5.4-5.7-12.75-9.3-22.05-10.8-9-1.5-21.9-2.25-38.7-2.25-8.396 0-16.496-.45-24.296-1.35-14.1 10.2-21.15 23.7-21.15 40.5 0 18 5.4 31.95 16.2 41.85 11.1 10.2 25.05 15.3 41.846 15.3zm279.23-136.8c1.2 0 1.95.75 2.25 2.25.3 1.2-.15 2.1-1.35 2.7l-46.35 22.05c-1.2.6-2.55.9-4.05.9-4.5 0-8.85-2.55-13.05-7.65-3.9-5.4-6.45-12.45-7.65-21.15l-20.7 14.4c-7.2 5.1-13.8 8.7-19.8 10.8-5.7 2.1-12.15 3.15-19.35 3.15-12.3 0-21.75-2.85-28.35-8.55-6.3-6-9.45-13.8-9.45-23.4 0-8.1 2.1-14.7 6.3-19.8 4.5-5.1 10.05-9.15 16.65-12.15 6.9-3.3 16.95-7.35 30.15-12.15l43.65-16.2v-27c0-18.6-1.95-32.1-5.85-40.5-3.6-8.7-9.45-13.05-17.55-13.05-9.9 0-17.1 3.75-21.6 11.25-4.2 7.2-6.75 15.3-7.65 24.3-1.8 15.3-9.45 22.95-22.95 22.95-6.6 0-11.55-1.5-14.85-4.5-3-3-4.5-6.75-4.5-11.25 0-8.4 4.95-16.5 14.85-24.3 10.2-8.1 22.35-14.55 36.45-19.35 14.4-5.1 27-7.65 37.8-7.65 12.9 0 23.1 4.05 30.6 12.15 7.8 8.1 11.7 20.25 11.7 36.45v81c0 9.3 1.5 16.35 4.5 21.15s7.35 7.2 13.05 7.2c4.5 0 9.9-1.35 16.2-4.05h.9zm-71.1-8.1v-4.5-44.55l-27 11.25c-7.8 3-14.25 6.6-19.35 10.8-4.8 3.9-7.2 9.6-7.2 17.1 0 7.2 2.25 13.05 6.75 17.55 4.8 4.2 10.5 6.3 17.1 6.3 5.4 0 11.1-1.8 17.1-5.4l12.6-8.55zm298.76 27c.9 0 1.35.9 1.35 2.7s-.45 2.7-1.35 2.7c-7.5 0-13.35-.15-17.55-.45l-26.1-.45-25.65.45c-4.5.3-10.5.45-18 .45-.9 0-1.35-.9-1.35-2.7s.45-2.7 1.35-2.7c10.2 0 16.95-2.1 20.25-6.3s4.95-12.45 4.95-24.75v-67.5c0-16.8-3.15-29.1-9.45-36.9-6-8.1-15.6-12.15-28.8-12.15-7.8 0-15.75 1.8-23.85 5.4s-15.45 8.4-22.05 14.4v96.75c0 12.3 1.65 20.55 4.95 24.75s10.05 6.3 20.25 6.3c.9 0 1.35.9 1.35 2.7s-.45 2.7-1.35 2.7c-7.5 0-13.35-.15-17.55-.45l-26.1-.45-26.1.45c-4.2.3-10.05.45-17.55.45-.9 0-1.35-.9-1.35-2.7s.45-2.7 1.35-2.7c10.2 0 16.95-2.1 20.25-6.3s4.95-12.45 4.95-24.75V709.6c0-9.6-1.2-16.65-3.6-21.15-2.1-4.5-5.7-6.75-10.8-6.75-4.5 0-12 2.25-22.5 6.75h-.45c-1.2 0-2.1-.75-2.7-2.25s-.45-2.4.45-2.7l58.95-28.8c1.8-.6 2.85-.9 3.15-.9 3 0 6 3.45 9 10.35 3.3 6.6 5.1 15.3 5.4 26.1 21-24.9 43.8-37.35 68.4-37.35 16.5 0 29.4 5.1 38.7 15.3 9.3 9.9 13.95 23.4 13.95 40.5v86.85c0 12.3 1.65 20.55 4.95 24.75s10.05 6.3 20.25 6.3zm69.95-220.05c-7.8 0-13.95-2.1-18.45-6.3-4.2-4.2-6.3-10.2-6.3-18 0-7.5 2.1-13.2 6.3-17.1 4.5-4.2 10.65-6.3 18.45-6.3 7.5 0 13.35 2.1 17.55 6.3 4.2 3.9 6.3 9.6 6.3 17.1 0 7.8-2.1 13.8-6.3 18-3.9 4.2-9.75 6.3-17.55 6.3zM1549.92 832c-.9 0-1.35-.9-1.35-2.7s.45-2.7 1.35-2.7c10.2 0 16.95-2.1 20.25-6.3s4.95-12.45 4.95-24.75v-81.9c0-10.2-1.05-17.55-3.15-22.05-2.1-4.8-5.7-7.2-10.8-7.2-4.5 0-10.35 1.8-17.55 5.4h-.45c-1.2 0-2.1-.75-2.7-2.25s-.45-2.55.45-3.15l64.8-30.15 1.35-.45c1.2 0 2.4.75 3.6 2.25 1.5 1.2 2.25 2.25 2.25 3.15v9.45c-.6 12.6-.9 27.45-.9 44.55v82.35c0 12.3 1.65 20.55 4.95 24.75 3.6 4.2 10.5 6.3 20.7 6.3.9 0 1.35.9 1.35 2.7s-.45 2.7-1.35 2.7c-7.5 0-13.5-.15-18-.45l-26.1-.45-26.1.45c-4.2.3-10.05.45-17.55.45z"/><path d="M371.7 410.6c.6 0 .9.9.9 2.7s-.3 2.7-.9 2.7c-9.9 0-17.85-.15-23.85-.45l-32.4-.45-31.5.45c-5.4.3-13.05.45-22.95.45-.6 0-.9-.9-.9-2.7s.3-2.7.9-2.7c13.2 0 22.05-1.5 26.55-4.5s6.75-9.3 6.75-18.9l-.45-7.65-9-190.8L189 412.85c-.6 1.2-1.8 1.8-3.6 1.8-1.5 0-2.85-.6-4.05-1.8l-112.5-222.3-4.05 171c-.3 15.9 2.7 28.05 9 36.45 6.6 8.4 16.35 12.6 29.25 12.6.9 0 1.35.9 1.35 2.7s-.45 2.7-1.35 2.7c-8.1 0-14.4-.15-18.9-.45l-24.75-.45-26.55.45c-4.5.3-10.8.45-18.9.45-.9 0-1.35-.9-1.35-2.7s.45-2.7 1.35-2.7c12.3 0 21.75-4.2 28.35-12.6 6.9-8.4 10.5-20.55 10.8-36.45l4.05-193.5c-5.4-9.6-11.4-16.65-18-21.15-6.3-4.5-13.65-6.75-22.05-6.75-.9 0-1.35-.9-1.35-2.7s.45-2.7 1.35-2.7l19.35.45c3.9.3 9 .45 15.3.45l21.15-.45c2.4-.3 5.4-.45 9-.45 3.9 0 7.05 1.5 9.45 4.5 2.4 2.7 6.15 9 11.25 18.9l99 193.05L291.15 146c1.8-4.2 3.75-7.05 5.85-8.55 2.1-1.8 4.65-2.7 7.65-2.7 2.1 0 4.8.15 8.1.45s7.35.45 12.15.45l24.3-.45c3.9-.3 9.75-.45 17.55-.45.6 0 .9.9.9 2.7s-.3 2.7-.9 2.7c-14.4 0-24.9 2.7-31.5 8.1-6.3 5.1-9.15 13.65-8.55 25.65l9.9 205.65c.6 9.3 1.8 16.05 3.6 20.25s4.95 7.05 9.45 8.55 11.85 2.25 22.05 2.25zm116.374 11.25c-18 0-33.9-4.2-47.7-12.6-13.8-8.7-24.45-20.25-31.95-34.65-7.5-14.7-11.25-30.6-11.25-47.7 0-19.5 4.8-36 14.4-49.5 9.9-13.8 22.35-24 37.35-30.6 15.3-6.9 30.9-10.35 46.8-10.35 18.3 0 34.2 4.35 47.7 13.05 13.8 8.7 24.3 20.25 31.5 34.65 7.2 14.1 10.8 29.25 10.8 45.45 0 18-4.5 34.05-13.5 48.15-8.7 14.1-20.55 25.05-35.55 32.85-15 7.5-31.2 11.25-48.6 11.25zm13.5-9c13.2 0 23.25-5.85 30.15-17.55 7.2-11.7 10.8-28.8 10.8-51.3 0-20.1-2.85-37.65-8.55-52.65-5.4-15-12.9-26.4-22.5-34.2-9.3-7.8-19.5-11.7-30.6-11.7-13.5 0-23.7 5.55-30.6 16.65s-10.35 27.45-10.35 49.05c0 19.5 2.55 37.05 7.65 52.65 5.4 15.3 12.75 27.3 22.05 36 9.6 8.7 20.25 13.05 31.95 13.05zm318.298-2.25c1.2 0 1.8.9 1.8 2.7s-.6 2.7-1.8 2.7c-7.5 0-13.5-.15-18-.45l-25.65-.45-25.65.45c-4.5.3-10.5.45-18 .45-.9 0-1.35-.9-1.35-2.7s.45-2.7 1.35-2.7c9.9 0 16.65-2.1 20.25-6.3 3.6-4.5 5.4-12.75 5.4-24.75V312.5c0-33-12.9-49.5-38.7-49.5-8.1 0-16.35 1.95-24.75 5.85-8.1 3.6-15.3 8.55-21.6 14.85v95.85c0 12.3 1.65 20.55 4.95 24.75 3.6 4.2 10.5 6.3 20.7 6.3 1.2 0 1.8.9 1.8 2.7s-.6 2.7-1.8 2.7c-7.5 0-13.5-.15-18-.45l-25.65-.45-25.65.45c-4.5.3-10.5.45-18 .45-.9 0-1.35-.9-1.35-2.7s.45-2.7 1.35-2.7c9.9 0 16.65-2.1 20.25-6.3 3.6-4.5 5.4-12.75 5.4-24.75V149.6c0-10.5-1.05-18-3.15-22.5-2.1-4.8-5.55-7.2-10.35-7.2-4.5 0-10.65 1.8-18.45 5.4h-.45c-.9 0-1.8-.75-2.7-2.25-.6-1.8-.45-2.85.45-3.15l62.55-29.7 2.25-.45c1.2 0 2.4.6 3.6 1.8 1.5 1.2 2.25 2.25 2.25 3.15v180c21.6-24.9 44.55-37.35 68.85-37.35 16.5 0 29.25 4.95 38.25 14.85 9.3 9.9 13.95 23.4 13.95 40.5v86.85c0 12.3 1.65 20.55 4.95 24.75 3.6 4.2 10.5 6.3 20.7 6.3zm197.038-18.9c1.2 0 1.95.75 2.25 2.25.3 1.2-.15 2.1-1.35 2.7l-46.351 22.05c-1.2.6-2.55.9-4.05.9-4.5 0-8.85-2.55-13.05-7.65-3.9-5.4-6.45-12.45-7.65-21.15l-20.7 14.4c-7.2 5.1-13.8 8.7-19.8 10.8-5.7 2.1-12.15 3.15-19.35 3.15-12.3 0-21.75-2.85-28.35-8.55-6.3-6-9.45-13.8-9.45-23.4 0-8.1 2.1-14.7 6.3-19.8 4.5-5.1 10.05-9.15 16.65-12.15 6.9-3.3 16.95-7.35 30.15-12.15l43.65-16.2v-27c0-18.6-1.95-32.1-5.85-40.5-3.6-8.7-9.45-13.05-17.55-13.05-9.9 0-17.1 3.75-21.6 11.25-4.2 7.2-6.75 15.3-7.65 24.3-1.8 15.3-9.45 22.95-22.95 22.95-6.6 0-11.55-1.5-14.85-4.5-3-3-4.5-6.75-4.5-11.25 0-8.4 4.95-16.5 14.85-24.3 10.2-8.1 22.35-14.55 36.45-19.35 14.4-5.1 27-7.65 37.8-7.65 12.9 0 23.1 4.05 30.6 12.15 7.8 8.1 11.7 20.25 11.7 36.45v81c0 9.3 1.5 16.35 4.5 21.15s7.35 7.2 13.05 7.2c4.501 0 9.901-1.35 16.201-4.05h.9zm-71.101-8.1v-4.5-44.55l-27 11.25c-7.8 3-14.25 6.6-19.35 10.8-4.8 3.9-7.2 9.6-7.2 17.1 0 7.2 2.25 13.05 6.75 17.55 4.8 4.2 10.5 6.3 17.1 6.3 5.4 0 11.1-1.8 17.1-5.4l12.6-8.55zm410.811 27c1.2 0 1.8.9 1.8 2.7s-.6 2.7-1.8 2.7c-7.5 0-13.5-.15-18-.45l-25.65-.45-25.65.45c-4.5.3-10.5.45-18 .45-.9 0-1.35-.9-1.35-2.7s.45-2.7 1.35-2.7c9.9 0 16.65-2.1 20.25-6.3 3.6-4.5 5.4-12.75 5.4-24.75V312.5c0-16.8-3-29.25-9-37.35-5.7-8.1-14.55-12.15-26.55-12.15-8.1 0-16.2 1.95-24.3 5.85a68.42 68.42 0 0 0-21.15 15.75v4.5 90.45c0 12.3 1.65 20.55 4.95 24.75 3.6 4.2 10.5 6.3 20.7 6.3.9 0 1.35.9 1.35 2.7s-.45 2.7-1.35 2.7c-7.5 0-13.5-.15-18-.45l-26.1-.45-25.65.45c-4.5.3-10.5.45-18 .45-.9 0-1.35-.9-1.35-2.7s.45-2.7 1.35-2.7c10.2 0 16.95-2.1 20.25-6.3 3.6-4.2 5.4-12.45 5.4-24.75V312.5c0-16.8-3-29.25-9-37.35-5.7-8.1-14.55-12.15-26.55-12.15-7.5 0-15.15 1.8-22.95 5.4s-14.7 8.4-20.7 14.4v96.75c0 12.3 1.65 20.55 4.95 24.75s10.05 6.3 20.25 6.3c.9 0 1.35.9 1.35 2.7s-.45 2.7-1.35 2.7c-7.5 0-13.35-.15-17.55-.45l-26.1-.45-26.1.45c-4.2.3-10.05.45-17.55.45-.9 0-1.35-.9-1.35-2.7s.45-2.7 1.35-2.7c10.2 0 16.95-2.1 20.25-6.3s4.95-12.45 4.95-24.75V293.6c0-9.6-1.2-16.65-3.6-21.15-2.1-4.5-5.7-6.75-10.8-6.75-4.5 0-12 2.25-22.5 6.75h-.45c-1.2 0-2.1-.75-2.7-2.25s-.45-2.4.45-2.7l58.95-28.8c1.8-.6 2.85-.9 3.15-.9 3 0 6 3.45 9 10.35 3.3 6.6 5.1 15.3 5.4 26.1 20.1-24.6 42-36.9 65.7-36.9 13.8 0 24.9 3.45 33.3 10.35 8.4 6.6 13.65 16.35 15.75 29.25 21.3-26.4 44.1-39.6 68.4-39.6 15.9 0 28.05 4.65 36.45 13.95 8.7 9 13.05 22.8 13.05 41.4v86.85c0 12.3 1.65 20.55 4.95 24.75 3.6 4.2 10.5 6.3 20.7 6.3zm347.61 0c1.2 0 1.8.9 1.8 2.7s-.6 2.7-1.8 2.7c-7.5 0-13.5-.15-18-.45l-25.65-.45-25.65.45c-4.5.3-10.5.45-18 .45-.9 0-1.35-.9-1.35-2.7s.45-2.7 1.35-2.7c9.9 0 16.65-2.1 20.25-6.3 3.6-4.5 5.4-12.75 5.4-24.75V312.5c0-16.8-3-29.25-9-37.35-5.7-8.1-14.55-12.15-26.55-12.15-8.1 0-16.2 1.95-24.3 5.85a68.42 68.42 0 0 0-21.15 15.75v4.5 90.45c0 12.3 1.65 20.55 4.95 24.75 3.6 4.2 10.5 6.3 20.7 6.3.9 0 1.35.9 1.35 2.7s-.45 2.7-1.35 2.7c-7.5 0-13.5-.15-18-.45l-26.1-.45-25.65.45c-4.5.3-10.5.45-18 .45-.9 0-1.35-.9-1.35-2.7s.45-2.7 1.35-2.7c10.2 0 16.95-2.1 20.25-6.3 3.6-4.2 5.4-12.45 5.4-24.75V312.5c0-16.8-3-29.25-9-37.35-5.7-8.1-14.55-12.15-26.55-12.15-7.5 0-15.15 1.8-22.95 5.4s-14.7 8.4-20.7 14.4v96.75c0 12.3 1.65 20.55 4.95 24.75s10.05 6.3 20.25 6.3c.9 0 1.35.9 1.35 2.7s-.45 2.7-1.35 2.7c-7.5 0-13.35-.15-17.55-.45l-26.1-.45-26.1.45c-4.2.3-10.05.45-17.55.45-.9 0-1.35-.9-1.35-2.7s.45-2.7 1.35-2.7c10.2 0 16.95-2.1 20.25-6.3s4.95-12.45 4.95-24.75V293.6c0-9.6-1.2-16.65-3.6-21.15-2.1-4.5-5.7-6.75-10.8-6.75-4.5 0-12 2.25-22.5 6.75h-.45c-1.2 0-2.1-.75-2.7-2.25s-.45-2.4.45-2.7l58.95-28.8c1.8-.6 2.85-.9 3.15-.9 3 0 6 3.45 9 10.35 3.3 6.6 5.1 15.3 5.4 26.1 20.1-24.6 42-36.9 65.7-36.9 13.8 0 24.9 3.45 33.3 10.35 8.4 6.6 13.65 16.35 15.75 29.25 21.3-26.4 44.1-39.6 68.4-39.6 15.9 0 28.05 4.65 36.45 13.95 8.7 9 13.05 22.8 13.05 41.4v86.85c0 12.3 1.65 20.55 4.95 24.75 3.6 4.2 10.5 6.3 20.7 6.3zm196.86-18.9c1.2 0 1.95.75 2.25 2.25.3 1.2-.15 2.1-1.35 2.7l-46.35 22.05c-1.2.6-2.55.9-4.05.9-4.5 0-8.85-2.55-13.05-7.65-3.9-5.4-6.45-12.45-7.65-21.15l-20.7 14.4c-7.2 5.1-13.8 8.7-19.8 10.8-5.7 2.1-12.15 3.15-19.35 3.15-12.3 0-21.75-2.85-28.35-8.55-6.3-6-9.45-13.8-9.45-23.4 0-8.1 2.1-14.7 6.3-19.8 4.5-5.1 10.05-9.15 16.65-12.15 6.9-3.3 16.95-7.35 30.15-12.15l43.65-16.2v-27c0-18.6-1.95-32.1-5.85-40.5-3.6-8.7-9.45-13.05-17.55-13.05-9.9 0-17.1 3.75-21.6 11.25-4.2 7.2-6.75 15.3-7.65 24.3-1.8 15.3-9.45 22.95-22.95 22.95-6.6 0-11.55-1.5-14.85-4.5-3-3-4.5-6.75-4.5-11.25 0-8.4 4.95-16.5 14.85-24.3 10.2-8.1 22.35-14.55 36.45-19.35 14.4-5.1 27-7.65 37.8-7.65 12.9 0 23.1 4.05 30.6 12.15 7.8 8.1 11.7 20.25 11.7 36.45v81c0 9.3 1.5 16.35 4.5 21.15s7.35 7.2 13.05 7.2c4.5 0 9.9-1.35 16.2-4.05h.9zm-71.1-8.1v-4.5-44.55l-27 11.25c-7.8 3-14.25 6.6-19.35 10.8-4.8 3.9-7.2 9.6-7.2 17.1 0 7.2 2.25 13.05 6.75 17.55 4.8 4.2 10.5 6.3 17.1 6.3 5.4 0 11.1-1.8 17.1-5.4l12.6-8.55zm298.76 4.5c.9 0 1.65.75 2.25 2.25.9 1.5.9 2.4 0 2.7l-57.6 27.9-2.7.45c-3 0-5.85-3-8.55-9-2.4-6-3.75-14.1-4.05-24.3-10.8 10.2-21.9 18.45-33.3 24.75-11.4 6-23.85 9-37.35 9-12.9 0-24.75-3.45-35.55-10.35-10.8-7.2-19.35-17.4-25.65-30.6s-9.45-28.65-9.45-46.35c0-22.2 5.25-40.65 15.75-55.35s23.7-25.5 39.6-32.4 31.8-10.35 47.7-10.35c13.2 0 25.8 2.4 37.8 7.2V149.6c0-10.5-1.05-18-3.15-22.5-1.8-4.8-5.25-7.2-10.35-7.2-3.3 0-9.3 1.8-18 5.4h-.9c-1.2 0-2.1-.75-2.7-2.25s-.6-2.4 0-2.7L2086 90.2l1.8-.45c1.2 0 2.55.6 4.05 1.8s2.25 2.25 2.25 3.15v270c0 10.5 1.05 18 3.15 22.5 2.1 4.2 5.7 6.3 10.8 6.3 6 0 12.75-1.8 20.25-5.4h.45zm-118.8 13.95c8.7 0 16.8-1.95 24.3-5.85 7.8-3.9 15.6-9.45 23.4-16.65v-.45V272c-6-8.4-12.75-14.55-20.25-18.45-7.2-4.2-15.9-6.3-26.1-6.3-17.1 0-30.45 6-40.05 18-9.3 12-13.95 30.45-13.95 55.35 0 25.2 4.95 45.15 14.85 59.85 9.9 14.4 22.5 21.6 37.8 21.6z"/></g></svg>