<svg width="2133" height="961" viewBox="0 0 2133 961" fill="none" xmlns="http://www.w3.org/2000/svg">
<path d="M1807.7 830.8C1808.03 830.8 1808.2 831 1808.2 831.4C1808.2 831.8 1808.03 832 1807.7 832C1806.37 832 1804.3 831.933 1801.5 831.8C1798.57 831.667 1796.47 831.6 1795.2 831.6C1793.53 831.6 1791.5 831.667 1789.1 831.8C1786.83 831.933 1785.03 832 1783.7 832C1783.43 832 1783.3 831.8 1783.3 831.4C1783.3 831 1783.43 830.8 1783.7 830.8C1785.43 830.8 1786.67 830.633 1787.4 830.3C1788.2 829.9 1788.6 829.233 1788.6 828.3C1788.6 827.167 1787.93 825.267 1786.6 822.6L1779.8 809.1H1755.2L1751.3 817.8C1750.43 819.733 1750 821.533 1750 823.2C1750 825.6 1750.83 827.467 1752.5 828.8C1754.23 830.133 1756.53 830.8 1759.4 830.8C1759.73 830.8 1759.9 831 1759.9 831.4C1759.9 831.8 1759.73 832 1759.4 832C1758.2 832 1756.47 831.933 1754.2 831.8C1751.67 831.667 1749.47 831.6 1747.6 831.6C1745.8 831.6 1743.63 831.667 1741.1 831.8C1738.83 831.933 1737 832 1735.6 832C1735.33 832 1735.2 831.8 1735.2 831.4C1735.2 831 1735.33 830.8 1735.6 830.8C1737.47 830.8 1739.03 830.433 1740.3 829.7C1741.57 828.9 1742.83 827.533 1744.1 825.6C1745.37 823.6 1746.87 820.667 1748.6 816.8L1770.3 769.1C1770.43 768.9 1770.73 768.8 1771.2 768.8C1771.73 768.8 1772.03 768.9 1772.1 769.1L1797.1 818.3C1799.43 823.033 1801.37 826.3 1802.9 828.1C1804.43 829.9 1806.03 830.8 1807.7 830.8ZM1756.5 806.3H1778.3L1766.8 783.5L1756.5 806.3ZM1857.28 830.8C1857.48 830.8 1857.58 831 1857.58 831.4C1857.58 831.8 1857.48 832 1857.28 832C1855.55 832 1854.18 831.967 1853.18 831.9L1847.18 831.8L1839.48 831.9C1838.35 831.967 1836.82 832 1834.88 832C1834.68 832 1834.58 831.8 1834.58 831.4C1834.58 831 1834.68 830.8 1834.88 830.8C1837.28 830.8 1838.48 830.1 1838.48 828.7C1838.48 827.967 1838.22 827.3 1837.68 826.7L1826.28 812.1L1824.38 813.8V823.9C1824.38 826.567 1824.75 828.4 1825.48 829.4C1826.28 830.333 1827.72 830.8 1829.78 830.8C1830.05 830.8 1830.18 831 1830.18 831.4C1830.18 831.8 1830.05 832 1829.78 832C1828.05 832 1826.65 831.967 1825.58 831.9L1819.78 831.8L1813.78 831.9C1812.78 831.967 1811.42 832 1809.68 832C1809.55 832 1809.48 831.8 1809.48 831.4C1809.48 831 1809.55 830.8 1809.68 830.8C1811.75 830.8 1813.15 830.333 1813.88 829.4C1814.68 828.4 1815.08 826.567 1815.08 823.9V773.1C1815.08 770.767 1814.85 769.1 1814.38 768.1C1813.98 767.1 1813.25 766.6 1812.18 766.6C1811.25 766.6 1809.98 766.967 1808.38 767.7H1808.28C1808.08 767.7 1807.88 767.533 1807.68 767.2C1807.55 766.8 1807.55 766.567 1807.68 766.5L1822.28 759.6L1822.78 759.5C1823.12 759.5 1823.45 759.667 1823.78 760C1824.18 760.267 1824.38 760.533 1824.38 760.8V811.5L1833.68 802.5C1835.42 800.9 1836.28 799.267 1836.28 797.6C1836.28 796.733 1835.95 796.033 1835.28 795.5C1834.62 794.9 1833.68 794.6 1832.48 794.6C1832.35 794.6 1832.28 794.4 1832.28 794C1832.28 793.6 1832.35 793.4 1832.48 793.4C1834.42 793.4 1835.92 793.433 1836.98 793.5L1844.88 793.6L1852.18 793.5C1853.12 793.433 1854.42 793.4 1856.08 793.4C1856.28 793.4 1856.38 793.6 1856.38 794C1856.38 794.4 1856.28 794.6 1856.08 794.6C1853.22 794.6 1849.92 795.333 1846.18 796.8C1842.52 798.2 1839.22 800.267 1836.28 803L1832.68 806.3L1846.38 823.9C1848.32 826.3 1850.15 828.067 1851.88 829.2C1853.68 830.267 1855.48 830.8 1857.28 830.8ZM1898.6 826.6C1898.87 826.6 1899.04 826.767 1899.1 827.1C1899.24 827.367 1899.17 827.567 1898.9 827.7L1888.6 832.6C1888.34 832.733 1888 832.8 1887.6 832.8C1886.54 832.8 1885.5 832.233 1884.5 831.1C1883.57 829.967 1882.9 828.433 1882.5 826.5L1878.2 829.5C1876.67 830.633 1875.24 831.467 1873.9 832C1872.57 832.467 1871.07 832.7 1869.4 832.7C1866.54 832.7 1864.37 832.067 1862.9 830.8C1861.44 829.533 1860.7 827.767 1860.7 825.5C1860.7 823.7 1861.14 822.267 1862 821.2C1862.87 820.067 1863.94 819.2 1865.2 818.6C1866.54 817.933 1868.37 817.2 1870.7 816.4L1873.2 815.5L1882.2 812.2V806.5C1882.2 802.233 1881.84 799.133 1881.1 797.2C1880.44 795.267 1879.27 794.3 1877.6 794.3C1874.07 794.3 1872.07 797.033 1871.6 802.5C1871.4 804.5 1870.8 805.933 1869.8 806.8C1868.87 807.667 1867.54 808.1 1865.8 808.1C1864.14 808.1 1862.9 807.767 1862.1 807.1C1861.37 806.367 1861 805.433 1861 804.3C1861 802.3 1862.17 800.4 1864.5 798.6C1866.84 796.733 1869.64 795.233 1872.9 794.1C1876.24 792.967 1879.17 792.4 1881.7 792.4C1884.64 792.4 1887 793.333 1888.8 795.2C1890.67 797 1891.6 799.767 1891.6 803.5V821.2C1891.6 823.133 1891.94 824.633 1892.6 825.7C1893.34 826.767 1894.34 827.3 1895.6 827.3C1896.54 827.3 1897.5 827.067 1898.5 826.6H1898.6ZM1882.3 824.8C1882.24 824.533 1882.2 824.1 1882.2 823.5V813.9L1877.9 815.9C1877.7 815.967 1877.04 816.233 1875.9 816.7C1874.77 817.1 1873.77 817.8 1872.9 818.8C1872.1 819.8 1871.7 820.967 1871.7 822.3C1871.7 823.9 1872.2 825.167 1873.2 826.1C1874.27 826.967 1875.47 827.4 1876.8 827.4C1877.87 827.4 1878.97 827.033 1880.1 826.3L1882.3 824.8ZM2005.53 830.8C2005.66 830.8 2005.73 831 2005.73 831.4C2005.73 831.8 2005.66 832 2005.53 832C2003.26 832 2001.46 831.967 2000.13 831.9L1992.73 831.8L1985.23 831.9C1983.96 831.967 1982.23 832 1980.03 832C1979.83 832 1979.73 831.8 1979.73 831.4C1979.73 831 1979.83 830.8 1980.03 830.8C1982.83 830.8 1984.73 830.467 1985.73 829.8C1986.73 829.133 1987.23 827.733 1987.23 825.6L1987.13 823.9L1985.03 783L1964.43 831.3C1964.3 831.567 1964.03 831.7 1963.63 831.7C1963.23 831.7 1962.96 831.567 1962.83 831.3L1937.53 783.2L1936.73 819.3C1936.66 822.9 1937.36 825.733 1938.83 827.8C1940.36 829.8 1942.5 830.8 1945.23 830.8C1945.43 830.8 1945.53 831 1945.53 831.4C1945.53 831.8 1945.43 832 1945.23 832C1943.43 832 1942.03 831.967 1941.03 831.9L1935.53 831.8L1929.23 831.9C1928.16 831.967 1926.73 832 1924.93 832C1924.73 832 1924.63 831.8 1924.63 831.4C1924.63 831 1924.73 830.8 1924.93 830.8C1927.66 830.8 1929.83 829.767 1931.43 827.7C1933.03 825.633 1933.86 822.833 1933.93 819.3L1934.83 777.9L1934.73 777.8C1933.4 775.333 1932 773.533 1930.53 772.4C1929.13 771.267 1927.5 770.7 1925.63 770.7C1925.43 770.7 1925.33 770.5 1925.33 770.1C1925.33 769.7 1925.43 769.5 1925.63 769.5L1930.33 769.6C1931.26 769.667 1932.46 769.7 1933.93 769.7L1939.23 769.6C1939.83 769.533 1940.6 769.5 1941.53 769.5C1942.4 769.5 1943.06 769.8 1943.53 770.4C1944 771 1944.86 772.433 1946.13 774.7L1967.93 815.6L1986.93 772C1987.33 771.067 1987.73 770.433 1988.13 770.1C1988.6 769.7 1989.2 769.5 1989.93 769.5C1990.53 769.5 1991.2 769.533 1991.93 769.6C1992.73 769.667 1993.63 769.7 1994.63 769.7L2000.53 769.6C2001.46 769.533 2002.8 769.5 2004.53 769.5C2004.73 769.5 2004.83 769.7 2004.83 770.1C2004.83 770.5 2004.73 770.7 2004.53 770.7C2001.4 770.7 1999.13 771.333 1997.73 772.6C1996.33 773.867 1995.7 775.833 1995.83 778.5L1998.23 823.9C1998.36 825.967 1998.6 827.467 1998.93 828.4C1999.33 829.333 2000 829.967 2000.93 830.3C2001.93 830.633 2003.46 830.8 2005.53 830.8ZM2037.87 792.4C2039.41 792.4 2040.87 792.967 2042.27 794.1C2043.74 795.167 2044.47 796.467 2044.47 798C2044.47 799.4 2044.04 800.567 2043.17 801.5C2042.31 802.367 2041.17 802.8 2039.77 802.8C2038.77 802.8 2037.94 802.6 2037.27 802.2C2036.67 801.8 2036.04 801.2 2035.37 800.4C2034.77 799.733 2034.24 799.267 2033.77 799C2033.37 798.667 2032.87 798.5 2032.27 798.5C2031.61 798.5 2030.87 798.767 2030.07 799.3C2029.34 799.767 2028.17 800.8 2026.57 802.4V823.9C2026.57 826.567 2027.21 828.4 2028.47 829.4C2029.74 830.333 2032.07 830.8 2035.47 830.8C2035.74 830.8 2035.87 831 2035.87 831.4C2035.87 831.8 2035.74 832 2035.47 832C2033.14 832 2031.31 831.967 2029.97 831.9L2021.87 831.8L2015.97 831.9C2014.97 831.967 2013.61 832 2011.87 832C2011.67 832 2011.57 831.8 2011.57 831.4C2011.57 831 2011.67 830.8 2011.87 830.8C2013.94 830.8 2015.34 830.333 2016.07 829.4C2016.81 828.4 2017.17 826.567 2017.17 823.9V805.1C2017.17 803.033 2016.91 801.533 2016.37 800.6C2015.91 799.6 2015.14 799.1 2014.07 799.1C2012.94 799.1 2011.34 799.567 2009.27 800.5H2009.07C2008.87 800.5 2008.71 800.333 2008.57 800C2008.51 799.667 2008.54 799.467 2008.67 799.4L2022.57 792.6C2022.97 792.467 2023.21 792.4 2023.27 792.4C2024.01 792.4 2024.67 793.1 2025.27 794.5C2025.94 795.833 2026.34 797.667 2026.47 800C2029.21 797.2 2031.44 795.233 2033.17 794.1C2034.97 792.967 2036.54 792.4 2037.87 792.4ZM2052.85 833.1C2050.98 833.1 2049.48 832.567 2048.35 831.5C2047.28 830.367 2046.75 828.867 2046.75 827C2046.75 825.267 2047.28 823.867 2048.35 822.8C2049.48 821.733 2050.98 821.2 2052.85 821.2C2054.71 821.2 2056.15 821.733 2057.15 822.8C2058.21 823.8 2058.75 825.2 2058.75 827C2058.75 828.933 2058.21 830.433 2057.15 831.5C2056.15 832.567 2054.71 833.1 2052.85 833.1ZM2092.85 769.5C2093.05 769.5 2093.15 769.7 2093.15 770.1C2093.15 770.5 2093.05 770.7 2092.85 770.7C2091.12 770.7 2089.82 770.9 2088.95 771.3C2088.15 771.7 2087.62 772.4 2087.35 773.4C2087.08 774.333 2086.95 775.8 2086.95 777.8V832.4C2086.95 839.867 2085.08 845.7 2081.35 849.9C2077.68 854.1 2072.55 856.2 2065.95 856.2C2063.42 856.2 2061.35 855.667 2059.75 854.6C2058.15 853.533 2057.35 852.067 2057.35 850.2C2057.35 848.867 2057.78 847.667 2058.65 846.6C2059.52 845.6 2060.82 845.1 2062.55 845.1C2064.22 845.1 2065.48 845.6 2066.35 846.6C2067.28 847.6 2068.12 849 2068.85 850.8C2069.25 851.867 2069.65 852.667 2070.05 853.2C2070.45 853.8 2070.95 854.1 2071.55 854.1C2072.95 854.1 2073.98 852.967 2074.65 850.7C2075.32 848.433 2075.65 844.667 2075.65 839.4V777.6C2075.65 775.6 2075.42 774.133 2074.95 773.2C2074.55 772.267 2073.78 771.633 2072.65 771.3C2071.52 770.9 2069.72 770.7 2067.25 770.7C2067.12 770.7 2067.05 770.5 2067.05 770.1C2067.05 769.7 2067.12 769.5 2067.25 769.5L2073.45 769.6C2076.65 769.733 2079.22 769.8 2081.15 769.8C2083.02 769.8 2085.35 769.733 2088.15 769.6L2092.85 769.5Z" fill="black"/>
<path d="M324.1 833.8C314.8 833.8 304 833.35 291.7 832.45C287.2 832.15 281.5 831.85 274.6 831.55C267.7 831.25 259.9 831.1 251.2 831.1L219.25 831.55C213.55 831.85 205.6 832 195.4 832C194.8 832 194.5 831.1 194.5 829.3C194.5 827.5 194.8 826.6 195.4 826.6C205.6 826.6 212.95 825.85 217.45 824.35C222.25 822.85 225.55 820 227.35 815.8C229.15 811.3 230.05 804.55 230.05 795.55V587.2C230.05 578.2 229.15 571.6 227.35 567.4C225.85 563.2 222.7 560.35 217.9 558.85C213.1 557.05 205.75 556.15 195.85 556.15C195.25 556.15 194.95 555.25 194.95 553.45C194.95 551.65 195.25 550.75 195.85 550.75L219.7 551.2C232.9 551.8 243.4 552.1 251.2 552.1C263.2 552.1 275.35 551.65 287.65 550.75C302.65 550.15 312.7 549.85 317.8 549.85C348.4 549.85 375.55 555.85 399.25 567.85C422.95 579.85 441.25 596.2 454.15 616.9C467.35 637.6 473.95 660.85 473.95 686.65C473.95 715.75 467.2 741.55 453.7 764.05C440.2 786.25 422.05 803.5 399.25 815.8C376.45 827.8 351.4 833.8 324.1 833.8ZM319.6 824.8C340.3 824.8 358.6 819.85 374.5 809.95C390.7 800.05 403.3 785.5 412.3 766.3C421.3 746.8 425.8 723.55 425.8 696.55C425.8 670.75 421.45 647.5 412.75 626.8C404.35 605.8 392.35 589.3 376.75 577.3C361.15 565 343 558.85 322.3 558.85C309.7 558.85 299.95 559.6 293.05 561.1C286.15 562.6 281.05 565.45 277.75 569.65C274.75 573.55 273.25 579.7 273.25 588.1V790.6C273.25 802.9 276.4 811.75 282.7 817.15C289 822.25 301.3 824.8 319.6 824.8ZM664.88 803.65C665.48 803.65 666.08 804.25 666.68 805.45C667.58 806.65 667.73 807.55 667.13 808.15C656.03 818.35 644.93 825.85 633.83 830.65C622.73 835.15 610.73 837.4 597.83 837.4C579.53 837.4 563.63 833.35 550.13 825.25C536.93 817.15 526.73 806.5 519.53 793.3C512.63 780.1 509.18 765.85 509.18 750.55C509.18 732.85 513.53 716.65 522.23 701.95C530.93 687.25 542.78 675.7 557.78 667.3C573.08 658.6 590.03 654.25 608.63 654.25C626.63 654.25 640.58 658.6 650.48 667.3C660.38 676 665.33 688.9 665.33 706C665.33 714.7 663.53 719.05 659.93 719.05L550.13 719.5C549.83 722.2 549.68 726.25 549.68 731.65C549.68 758.05 555.68 779.05 567.68 794.65C579.98 809.95 597.38 817.6 619.88 817.6C628.28 817.6 635.33 816.7 641.03 814.9C646.73 812.8 654.38 809.2 663.98 804.1L664.88 803.65ZM592.43 663.25C581.33 663.25 572.18 667.6 564.98 676.3C558.08 684.7 553.43 696.4 551.03 711.4L623.03 710.05C622.43 678.85 612.23 663.25 592.43 663.25ZM899.798 826.6C900.998 826.6 901.598 827.5 901.598 829.3C901.598 831.1 900.998 832 899.798 832C892.298 832 886.298 831.85 881.798 831.55L856.148 831.1L830.498 831.55C825.998 831.85 819.998 832 812.498 832C811.598 832 811.148 831.1 811.148 829.3C811.148 827.5 811.598 826.6 812.498 826.6C822.398 826.6 829.148 824.5 832.748 820.3C836.348 815.8 838.148 807.55 838.148 795.55V728.5C838.148 695.5 825.248 679 799.448 679C791.348 679 783.098 680.95 774.698 684.85C766.598 688.45 759.398 693.4 753.098 699.7V795.55C753.098 807.85 754.748 816.1 758.048 820.3C761.648 824.5 768.548 826.6 778.748 826.6C779.948 826.6 780.548 827.5 780.548 829.3C780.548 831.1 779.948 832 778.748 832C771.248 832 765.248 831.85 760.748 831.55L735.098 831.1L709.448 831.55C704.948 831.85 698.948 832 691.448 832C690.548 832 690.098 831.1 690.098 829.3C690.098 827.5 690.548 826.6 691.448 826.6C701.348 826.6 708.098 824.5 711.698 820.3C715.298 815.8 717.098 807.55 717.098 795.55V565.6C717.098 555.1 716.048 547.6 713.948 543.1C711.848 538.3 708.398 535.9 703.598 535.9C699.098 535.9 692.948 537.7 685.148 541.3H684.698C683.798 541.3 682.898 540.55 681.998 539.05C681.398 537.25 681.548 536.2 682.448 535.9L744.998 506.2L747.248 505.75C748.448 505.75 749.648 506.35 750.848 507.55C752.348 508.75 753.098 509.8 753.098 510.7V690.7C774.698 665.8 797.648 653.35 821.948 653.35C838.448 653.35 851.198 658.3 860.198 668.2C869.498 678.1 874.148 691.6 874.148 708.7V795.55C874.148 807.85 875.798 816.1 879.098 820.3C882.698 824.5 889.598 826.6 899.798 826.6ZM1021.68 816.25C1038.78 816.55 1052.73 817.45 1063.53 818.95C1074.33 820.45 1083.63 824.65 1091.43 831.55C1099.53 838.45 1103.58 849.25 1103.58 863.95C1103.58 880.45 1098.33 895.9 1087.83 910.3C1077.33 925 1063.38 936.7 1045.98 945.4C1028.58 954.1 1009.98 958.45 990.184 958.45C969.484 958.45 952.684 953.8 939.784 944.5C927.184 935.2 920.884 923.05 920.884 908.05C920.884 886.75 936.184 865.9 966.784 845.5C944.584 841.3 933.484 830.65 933.484 813.55C933.484 804.25 936.034 795.7 941.134 787.9C946.534 780.1 954.634 772.45 965.434 764.95C954.334 759.85 945.634 752.5 939.334 742.9C933.334 733.3 930.334 723.1 930.334 712.3C930.334 700.6 933.934 690.4 941.134 681.7C948.334 673 957.634 666.4 969.034 661.9C980.734 657.4 993.184 655.15 1006.38 655.15C1025.58 655.15 1041.48 659.95 1054.08 669.55C1062.18 664.45 1070.13 660.7 1077.93 658.3C1085.73 655.6 1094.13 654.25 1103.13 654.25C1105.23 654.25 1106.28 658.15 1106.28 665.95C1106.28 670.15 1105.68 674.5 1104.48 679C1103.58 683.5 1102.53 685.3 1101.33 684.4C1088.73 679.6 1077.93 677.2 1068.93 677.2C1066.23 677.2 1064.28 677.35 1063.08 677.65C1071.78 687.25 1076.13 698.65 1076.13 711.85C1076.13 723.25 1072.53 733.6 1065.33 742.9C1058.13 752.2 1048.68 759.4 1036.98 764.5C1025.28 769.6 1012.83 772.15 999.634 772.15C989.734 772.15 980.734 770.8 972.634 768.1C966.034 774.4 962.734 781.9 962.734 790.6C962.734 801.4 967.084 808.3 975.784 811.3C984.784 814.3 1000.08 815.95 1021.68 816.25ZM992.884 663.25C976.684 663.25 968.584 675.4 968.584 699.7C968.584 712.3 970.534 723.55 974.434 733.45C978.634 743.35 983.884 751 990.184 756.4C996.784 761.8 1003.53 764.5 1010.43 764.5C1018.23 764.5 1024.68 761.2 1029.78 754.6C1034.88 747.7 1037.43 737.35 1037.43 723.55C1037.43 710.95 1035.18 700.15 1030.68 691.15C1026.48 681.85 1020.93 674.95 1014.03 670.45C1007.43 665.65 1000.38 663.25 992.884 663.25ZM1014.48 944.5C1031.58 944.5 1045.23 939.4 1055.43 929.2C1065.93 919.3 1071.18 905.8 1071.18 888.7C1071.18 876.1 1068.33 866.95 1062.63 861.25C1057.23 855.55 1049.88 851.95 1040.58 850.45C1031.58 848.95 1018.68 848.2 1001.88 848.2C993.484 848.2 985.384 847.75 977.584 846.85C963.484 857.05 956.434 870.55 956.434 887.35C956.434 905.35 961.834 919.3 972.634 929.2C983.734 939.4 997.684 944.5 1014.48 944.5ZM1293.71 807.7C1294.91 807.7 1295.66 808.45 1295.96 809.95C1296.26 811.15 1295.81 812.05 1294.61 812.65L1248.26 834.7C1247.06 835.3 1245.71 835.6 1244.21 835.6C1239.71 835.6 1235.36 833.05 1231.16 827.95C1227.26 822.55 1224.71 815.5 1223.51 806.8L1202.81 821.2C1195.61 826.3 1189.01 829.9 1183.01 832C1177.31 834.1 1170.86 835.15 1163.66 835.15C1151.36 835.15 1141.91 832.3 1135.31 826.6C1129.01 820.6 1125.86 812.8 1125.86 803.2C1125.86 795.1 1127.96 788.5 1132.16 783.4C1136.66 778.3 1142.21 774.25 1148.81 771.25C1155.71 767.95 1165.76 763.9 1178.96 759.1L1222.61 742.9V715.9C1222.61 697.3 1220.66 683.8 1216.76 675.4C1213.16 666.7 1207.31 662.35 1199.21 662.35C1189.31 662.35 1182.11 666.1 1177.61 673.6C1173.41 680.8 1170.86 688.9 1169.96 697.9C1168.16 713.2 1160.51 720.85 1147.01 720.85C1140.41 720.85 1135.46 719.35 1132.16 716.35C1129.16 713.35 1127.66 709.6 1127.66 705.1C1127.66 696.7 1132.61 688.6 1142.51 680.8C1152.71 672.7 1164.86 666.25 1178.96 661.45C1193.36 656.35 1205.96 653.8 1216.76 653.8C1229.66 653.8 1239.86 657.85 1247.36 665.95C1255.16 674.05 1259.06 686.2 1259.06 702.4V783.4C1259.06 792.7 1260.56 799.75 1263.56 804.55C1266.56 809.35 1270.91 811.75 1276.61 811.75C1281.11 811.75 1286.51 810.4 1292.81 807.7H1293.71ZM1222.61 799.6V795.1V750.55L1195.61 761.8C1187.81 764.8 1181.36 768.4 1176.26 772.6C1171.46 776.5 1169.06 782.2 1169.06 789.7C1169.06 796.9 1171.31 802.75 1175.81 807.25C1180.61 811.45 1186.31 813.55 1192.91 813.55C1198.31 813.55 1204.01 811.75 1210.01 808.15L1222.61 799.6ZM1521.37 826.6C1522.27 826.6 1522.72 827.5 1522.72 829.3C1522.72 831.1 1522.27 832 1521.37 832C1513.87 832 1508.02 831.85 1503.82 831.55L1477.72 831.1L1452.07 831.55C1447.57 831.85 1441.57 832 1434.07 832C1433.17 832 1432.72 831.1 1432.72 829.3C1432.72 827.5 1433.17 826.6 1434.07 826.6C1444.27 826.6 1451.02 824.5 1454.32 820.3C1457.62 816.1 1459.27 807.85 1459.27 795.55V728.05C1459.27 711.25 1456.12 698.95 1449.82 691.15C1443.82 683.05 1434.22 679 1421.02 679C1413.22 679 1405.27 680.8 1397.17 684.4C1389.07 688 1381.72 692.8 1375.12 698.8V795.55C1375.12 807.85 1376.77 816.1 1380.07 820.3C1383.37 824.5 1390.12 826.6 1400.32 826.6C1401.22 826.6 1401.67 827.5 1401.67 829.3C1401.67 831.1 1401.22 832 1400.32 832C1392.82 832 1386.97 831.85 1382.77 831.55L1356.67 831.1L1330.57 831.55C1326.37 831.85 1320.52 832 1313.02 832C1312.12 832 1311.67 831.1 1311.67 829.3C1311.67 827.5 1312.12 826.6 1313.02 826.6C1323.22 826.6 1329.97 824.5 1333.27 820.3C1336.57 816.1 1338.22 807.85 1338.22 795.55V709.6C1338.22 700 1337.02 692.95 1334.62 688.45C1332.52 683.95 1328.92 681.7 1323.82 681.7C1319.32 681.7 1311.82 683.95 1301.32 688.45H1300.87C1299.67 688.45 1298.77 687.7 1298.17 686.2C1297.57 684.7 1297.72 683.8 1298.62 683.5L1357.57 654.7C1359.37 654.1 1360.42 653.8 1360.72 653.8C1363.72 653.8 1366.72 657.25 1369.72 664.15C1373.02 670.75 1374.82 679.45 1375.12 690.25C1396.12 665.35 1418.92 652.9 1443.52 652.9C1460.02 652.9 1472.92 658 1482.22 668.2C1491.52 678.1 1496.17 691.6 1496.17 708.7V795.55C1496.17 807.85 1497.82 816.1 1501.12 820.3C1504.42 824.5 1511.17 826.6 1521.37 826.6ZM1591.32 606.55C1583.52 606.55 1577.37 604.45 1572.87 600.25C1568.67 596.05 1566.57 590.05 1566.57 582.25C1566.57 574.75 1568.67 569.05 1572.87 565.15C1577.37 560.95 1583.52 558.85 1591.32 558.85C1598.82 558.85 1604.67 560.95 1608.87 565.15C1613.07 569.05 1615.17 574.75 1615.17 582.25C1615.17 590.05 1613.07 596.05 1608.87 600.25C1604.97 604.45 1599.12 606.55 1591.32 606.55ZM1549.92 832C1549.02 832 1548.57 831.1 1548.57 829.3C1548.57 827.5 1549.02 826.6 1549.92 826.6C1560.12 826.6 1566.87 824.5 1570.17 820.3C1573.47 816.1 1575.12 807.85 1575.12 795.55V713.65C1575.12 703.45 1574.07 696.1 1571.97 691.6C1569.87 686.8 1566.27 684.4 1561.17 684.4C1556.67 684.4 1550.82 686.2 1543.62 689.8H1543.17C1541.97 689.8 1541.07 689.05 1540.47 687.55C1539.87 686.05 1540.02 685 1540.92 684.4L1605.72 654.25L1607.07 653.8C1608.27 653.8 1609.47 654.55 1610.67 656.05C1612.17 657.25 1612.92 658.3 1612.92 659.2V668.65C1612.32 681.25 1612.02 696.1 1612.02 713.2V795.55C1612.02 807.85 1613.67 816.1 1616.97 820.3C1620.57 824.5 1627.47 826.6 1637.67 826.6C1638.57 826.6 1639.02 827.5 1639.02 829.3C1639.02 831.1 1638.57 832 1637.67 832C1630.17 832 1624.17 831.85 1619.67 831.55L1593.57 831.1L1567.47 831.55C1563.27 831.85 1557.42 832 1549.92 832Z" fill="#4971FF"/>
<path d="M371.7 410.6C372.3 410.6 372.6 411.5 372.6 413.3C372.6 415.1 372.3 416 371.7 416C361.8 416 353.85 415.85 347.85 415.55L315.45 415.1L283.95 415.55C278.55 415.85 270.9 416 261 416C260.4 416 260.1 415.1 260.1 413.3C260.1 411.5 260.4 410.6 261 410.6C274.2 410.6 283.05 409.1 287.55 406.1C292.05 403.1 294.3 396.8 294.3 387.2L293.85 379.55L284.85 188.75L189 412.85C188.4 414.05 187.2 414.65 185.4 414.65C183.9 414.65 182.55 414.05 181.35 412.85L68.85 190.55L64.8 361.55C64.5 377.45 67.5 389.6 73.8 398C80.4 406.4 90.15 410.6 103.05 410.6C103.95 410.6 104.4 411.5 104.4 413.3C104.4 415.1 103.95 416 103.05 416C94.95 416 88.65 415.85 84.15 415.55L59.4 415.1L32.85 415.55C28.35 415.85 22.05 416 13.95 416C13.05 416 12.6 415.1 12.6 413.3C12.6 411.5 13.05 410.6 13.95 410.6C26.25 410.6 35.7 406.4 42.3 398C49.2 389.6 52.8 377.45 53.1 361.55L57.15 168.05C51.75 158.45 45.75 151.4 39.15 146.9C32.85 142.4 25.5 140.15 17.1 140.15C16.2 140.15 15.75 139.25 15.75 137.45C15.75 135.65 16.2 134.75 17.1 134.75L36.45 135.2C40.35 135.5 45.45 135.65 51.75 135.65L72.9 135.2C75.3 134.9 78.3 134.75 81.9 134.75C85.8 134.75 88.95 136.25 91.35 139.25C93.75 141.95 97.5 148.25 102.6 158.15L201.6 351.2L291.15 146C292.95 141.8 294.9 138.95 297 137.45C299.1 135.65 301.65 134.75 304.65 134.75C306.75 134.75 309.45 134.9 312.75 135.2C316.05 135.5 320.1 135.65 324.9 135.65L349.2 135.2C353.1 134.9 358.95 134.75 366.75 134.75C367.35 134.75 367.65 135.65 367.65 137.45C367.65 139.25 367.35 140.15 366.75 140.15C352.35 140.15 341.85 142.85 335.25 148.25C328.95 153.35 326.1 161.9 326.7 173.9L336.6 379.55C337.2 388.85 338.4 395.6 340.2 399.8C342 404 345.15 406.85 349.65 408.35C354.15 409.85 361.5 410.6 371.7 410.6ZM488.074 421.85C470.074 421.85 454.174 417.65 440.374 409.25C426.574 400.55 415.924 389 408.424 374.6C400.924 359.9 397.174 344 397.174 326.9C397.174 307.4 401.974 290.9 411.574 277.4C421.474 263.6 433.924 253.4 448.924 246.8C464.224 239.9 479.824 236.45 495.724 236.45C514.024 236.45 529.924 240.8 543.424 249.5C557.224 258.2 567.724 269.75 574.924 284.15C582.124 298.25 585.724 313.4 585.724 329.6C585.724 347.6 581.224 363.65 572.224 377.75C563.524 391.85 551.674 402.8 536.674 410.6C521.674 418.1 505.474 421.85 488.074 421.85ZM501.574 412.85C514.774 412.85 524.824 407 531.724 395.3C538.924 383.6 542.524 366.5 542.524 344C542.524 323.9 539.674 306.35 533.974 291.35C528.574 276.35 521.074 264.95 511.474 257.15C502.174 249.35 491.974 245.45 480.874 245.45C467.374 245.45 457.174 251 450.274 262.1C443.374 273.2 439.924 289.55 439.924 311.15C439.924 330.65 442.474 348.2 447.574 363.8C452.974 379.1 460.324 391.1 469.624 399.8C479.224 408.5 489.874 412.85 501.574 412.85ZM819.872 410.6C821.072 410.6 821.672 411.5 821.672 413.3C821.672 415.1 821.072 416 819.872 416C812.372 416 806.372 415.85 801.872 415.55L776.222 415.1L750.572 415.55C746.072 415.85 740.072 416 732.572 416C731.672 416 731.222 415.1 731.222 413.3C731.222 411.5 731.672 410.6 732.572 410.6C742.472 410.6 749.222 408.5 752.822 404.3C756.422 399.8 758.222 391.55 758.222 379.55V312.5C758.222 279.5 745.322 263 719.522 263C711.422 263 703.172 264.95 694.772 268.85C686.672 272.45 679.472 277.4 673.172 283.7V379.55C673.172 391.85 674.822 400.1 678.122 404.3C681.722 408.5 688.622 410.6 698.822 410.6C700.022 410.6 700.622 411.5 700.622 413.3C700.622 415.1 700.022 416 698.822 416C691.322 416 685.322 415.85 680.822 415.55L655.172 415.1L629.522 415.55C625.022 415.85 619.022 416 611.522 416C610.622 416 610.172 415.1 610.172 413.3C610.172 411.5 610.622 410.6 611.522 410.6C621.422 410.6 628.172 408.5 631.772 404.3C635.372 399.8 637.172 391.55 637.172 379.55V149.6C637.172 139.1 636.122 131.6 634.022 127.1C631.922 122.3 628.472 119.9 623.672 119.9C619.172 119.9 613.022 121.7 605.222 125.3H604.772C603.872 125.3 602.972 124.55 602.072 123.05C601.472 121.25 601.622 120.2 602.522 119.9L665.072 90.2L667.322 89.75C668.522 89.75 669.722 90.35 670.922 91.55C672.422 92.75 673.172 93.8 673.172 94.7V274.7C694.772 249.8 717.722 237.35 742.022 237.35C758.522 237.35 771.272 242.3 780.272 252.2C789.572 262.1 794.222 275.6 794.222 292.7V379.55C794.222 391.85 795.872 400.1 799.172 404.3C802.772 408.5 809.672 410.6 819.872 410.6ZM1016.91 391.7C1018.11 391.7 1018.86 392.45 1019.16 393.95C1019.46 395.15 1019.01 396.05 1017.81 396.65L971.459 418.7C970.259 419.3 968.909 419.6 967.409 419.6C962.909 419.6 958.559 417.05 954.359 411.95C950.459 406.55 947.909 399.5 946.709 390.8L926.009 405.2C918.809 410.3 912.209 413.9 906.209 416C900.509 418.1 894.059 419.15 886.859 419.15C874.559 419.15 865.109 416.3 858.509 410.6C852.209 404.6 849.059 396.8 849.059 387.2C849.059 379.1 851.159 372.5 855.359 367.4C859.859 362.3 865.409 358.25 872.009 355.25C878.909 351.95 888.959 347.9 902.159 343.1L945.809 326.9V299.9C945.809 281.3 943.859 267.8 939.959 259.4C936.359 250.7 930.509 246.35 922.409 246.35C912.509 246.35 905.309 250.1 900.809 257.6C896.609 264.8 894.059 272.9 893.159 281.9C891.359 297.2 883.709 304.85 870.209 304.85C863.609 304.85 858.659 303.35 855.359 300.35C852.359 297.35 850.859 293.6 850.859 289.1C850.859 280.7 855.809 272.6 865.709 264.8C875.909 256.7 888.059 250.25 902.159 245.45C916.559 240.35 929.159 237.8 939.959 237.8C952.859 237.8 963.059 241.85 970.559 249.95C978.359 258.05 982.259 270.2 982.259 286.4V367.4C982.259 376.7 983.759 383.75 986.759 388.55C989.759 393.35 994.109 395.75 999.809 395.75C1004.31 395.75 1009.71 394.4 1016.01 391.7H1016.91ZM945.809 383.6V379.1V334.55L918.809 345.8C911.009 348.8 904.559 352.4 899.459 356.6C894.659 360.5 892.259 366.2 892.259 373.7C892.259 380.9 894.509 386.75 899.009 391.25C903.809 395.45 909.509 397.55 916.109 397.55C921.509 397.55 927.209 395.75 933.209 392.15L945.809 383.6ZM1356.62 410.6C1357.82 410.6 1358.42 411.5 1358.42 413.3C1358.42 415.1 1357.82 416 1356.62 416C1349.12 416 1343.12 415.85 1338.62 415.55L1312.97 415.1L1287.32 415.55C1282.82 415.85 1276.82 416 1269.32 416C1268.42 416 1267.97 415.1 1267.97 413.3C1267.97 411.5 1268.42 410.6 1269.32 410.6C1279.22 410.6 1285.97 408.5 1289.57 404.3C1293.17 399.8 1294.97 391.55 1294.97 379.55V312.5C1294.97 295.7 1291.97 283.25 1285.97 275.15C1280.27 267.05 1271.42 263 1259.42 263C1251.32 263 1243.22 264.95 1235.12 268.85C1227.02 272.75 1219.97 278 1213.97 284.6V289.1V379.55C1213.97 391.85 1215.62 400.1 1218.92 404.3C1222.52 408.5 1229.42 410.6 1239.62 410.6C1240.52 410.6 1240.97 411.5 1240.97 413.3C1240.97 415.1 1240.52 416 1239.62 416C1232.12 416 1226.12 415.85 1221.62 415.55L1195.52 415.1L1169.87 415.55C1165.37 415.85 1159.37 416 1151.87 416C1150.97 416 1150.52 415.1 1150.52 413.3C1150.52 411.5 1150.97 410.6 1151.87 410.6C1162.07 410.6 1168.82 408.5 1172.12 404.3C1175.72 400.1 1177.52 391.85 1177.52 379.55V312.5C1177.52 295.7 1174.52 283.25 1168.52 275.15C1162.82 267.05 1153.97 263 1141.97 263C1134.47 263 1126.82 264.8 1119.02 268.4C1111.22 272 1104.32 276.8 1098.32 282.8V379.55C1098.32 391.85 1099.97 400.1 1103.27 404.3C1106.57 408.5 1113.32 410.6 1123.52 410.6C1124.42 410.6 1124.87 411.5 1124.87 413.3C1124.87 415.1 1124.42 416 1123.52 416C1116.02 416 1110.17 415.85 1105.97 415.55L1079.87 415.1L1053.77 415.55C1049.57 415.85 1043.72 416 1036.22 416C1035.32 416 1034.87 415.1 1034.87 413.3C1034.87 411.5 1035.32 410.6 1036.22 410.6C1046.42 410.6 1053.17 408.5 1056.47 404.3C1059.77 400.1 1061.42 391.85 1061.42 379.55V293.6C1061.42 284 1060.22 276.95 1057.82 272.45C1055.72 267.95 1052.12 265.7 1047.02 265.7C1042.52 265.7 1035.02 267.95 1024.52 272.45H1024.07C1022.87 272.45 1021.97 271.7 1021.37 270.2C1020.77 268.7 1020.92 267.8 1021.82 267.5L1080.77 238.7C1082.57 238.1 1083.62 237.8 1083.92 237.8C1086.92 237.8 1089.92 241.25 1092.92 248.15C1096.22 254.75 1098.02 263.45 1098.32 274.25C1118.42 249.65 1140.32 237.35 1164.02 237.35C1177.82 237.35 1188.92 240.8 1197.32 247.7C1205.72 254.3 1210.97 264.05 1213.07 276.95C1234.37 250.55 1257.17 237.35 1281.47 237.35C1297.37 237.35 1309.52 242 1317.92 251.3C1326.62 260.3 1330.97 274.1 1330.97 292.7V379.55C1330.97 391.85 1332.62 400.1 1335.92 404.3C1339.52 408.5 1346.42 410.6 1356.62 410.6ZM1704.23 410.6C1705.43 410.6 1706.03 411.5 1706.03 413.3C1706.03 415.1 1705.43 416 1704.23 416C1696.73 416 1690.73 415.85 1686.23 415.55L1660.58 415.1L1634.93 415.55C1630.43 415.85 1624.43 416 1616.93 416C1616.03 416 1615.58 415.1 1615.58 413.3C1615.58 411.5 1616.03 410.6 1616.93 410.6C1626.83 410.6 1633.58 408.5 1637.18 404.3C1640.78 399.8 1642.58 391.55 1642.58 379.55V312.5C1642.58 295.7 1639.58 283.25 1633.58 275.15C1627.88 267.05 1619.03 263 1607.03 263C1598.93 263 1590.83 264.95 1582.73 268.85C1574.63 272.75 1567.58 278 1561.58 284.6V289.1V379.55C1561.58 391.85 1563.23 400.1 1566.53 404.3C1570.13 408.5 1577.03 410.6 1587.23 410.6C1588.13 410.6 1588.58 411.5 1588.58 413.3C1588.58 415.1 1588.13 416 1587.23 416C1579.73 416 1573.73 415.85 1569.23 415.55L1543.13 415.1L1517.48 415.55C1512.98 415.85 1506.98 416 1499.48 416C1498.58 416 1498.13 415.1 1498.13 413.3C1498.13 411.5 1498.58 410.6 1499.48 410.6C1509.68 410.6 1516.43 408.5 1519.73 404.3C1523.33 400.1 1525.13 391.85 1525.13 379.55V312.5C1525.13 295.7 1522.13 283.25 1516.13 275.15C1510.43 267.05 1501.58 263 1489.58 263C1482.08 263 1474.43 264.8 1466.63 268.4C1458.83 272 1451.93 276.8 1445.93 282.8V379.55C1445.93 391.85 1447.58 400.1 1450.88 404.3C1454.18 408.5 1460.93 410.6 1471.13 410.6C1472.03 410.6 1472.48 411.5 1472.48 413.3C1472.48 415.1 1472.03 416 1471.13 416C1463.63 416 1457.78 415.85 1453.58 415.55L1427.48 415.1L1401.38 415.55C1397.18 415.85 1391.33 416 1383.83 416C1382.93 416 1382.48 415.1 1382.48 413.3C1382.48 411.5 1382.93 410.6 1383.83 410.6C1394.03 410.6 1400.78 408.5 1404.08 404.3C1407.38 400.1 1409.03 391.85 1409.03 379.55V293.6C1409.03 284 1407.83 276.95 1405.43 272.45C1403.33 267.95 1399.73 265.7 1394.63 265.7C1390.13 265.7 1382.63 267.95 1372.13 272.45H1371.68C1370.48 272.45 1369.58 271.7 1368.98 270.2C1368.38 268.7 1368.53 267.8 1369.43 267.5L1428.38 238.7C1430.18 238.1 1431.23 237.8 1431.53 237.8C1434.53 237.8 1437.53 241.25 1440.53 248.15C1443.83 254.75 1445.63 263.45 1445.93 274.25C1466.03 249.65 1487.93 237.35 1511.63 237.35C1525.43 237.35 1536.53 240.8 1544.93 247.7C1553.33 254.3 1558.58 264.05 1560.68 276.95C1581.98 250.55 1604.78 237.35 1629.08 237.35C1644.98 237.35 1657.13 242 1665.53 251.3C1674.23 260.3 1678.58 274.1 1678.58 292.7V379.55C1678.58 391.85 1680.23 400.1 1683.53 404.3C1687.13 408.5 1694.03 410.6 1704.23 410.6ZM1901.09 391.7C1902.29 391.7 1903.04 392.45 1903.34 393.95C1903.64 395.15 1903.19 396.05 1901.99 396.65L1855.64 418.7C1854.44 419.3 1853.09 419.6 1851.59 419.6C1847.09 419.6 1842.74 417.05 1838.54 411.95C1834.64 406.55 1832.09 399.5 1830.89 390.8L1810.19 405.2C1802.99 410.3 1796.39 413.9 1790.39 416C1784.69 418.1 1778.24 419.15 1771.04 419.15C1758.74 419.15 1749.29 416.3 1742.69 410.6C1736.39 404.6 1733.24 396.8 1733.24 387.2C1733.24 379.1 1735.34 372.5 1739.54 367.4C1744.04 362.3 1749.59 358.25 1756.19 355.25C1763.09 351.95 1773.14 347.9 1786.34 343.1L1829.99 326.9V299.9C1829.99 281.3 1828.04 267.8 1824.14 259.4C1820.54 250.7 1814.69 246.35 1806.59 246.35C1796.69 246.35 1789.49 250.1 1784.99 257.6C1780.79 264.8 1778.24 272.9 1777.34 281.9C1775.54 297.2 1767.89 304.85 1754.39 304.85C1747.79 304.85 1742.84 303.35 1739.54 300.35C1736.54 297.35 1735.04 293.6 1735.04 289.1C1735.04 280.7 1739.99 272.6 1749.89 264.8C1760.09 256.7 1772.24 250.25 1786.34 245.45C1800.74 240.35 1813.34 237.8 1824.14 237.8C1837.04 237.8 1847.24 241.85 1854.74 249.95C1862.54 258.05 1866.44 270.2 1866.44 286.4V367.4C1866.44 376.7 1867.94 383.75 1870.94 388.55C1873.94 393.35 1878.29 395.75 1883.99 395.75C1888.49 395.75 1893.89 394.4 1900.19 391.7H1901.09ZM1829.99 383.6V379.1V334.55L1802.99 345.8C1795.19 348.8 1788.74 352.4 1783.64 356.6C1778.84 360.5 1776.44 366.2 1776.44 373.7C1776.44 380.9 1778.69 386.75 1783.19 391.25C1787.99 395.45 1793.69 397.55 1800.29 397.55C1805.69 397.55 1811.39 395.75 1817.39 392.15L1829.99 383.6ZM2128.75 388.1C2129.65 388.1 2130.4 388.85 2131 390.35C2131.9 391.85 2131.9 392.75 2131 393.05L2073.4 420.95L2070.7 421.4C2067.7 421.4 2064.85 418.4 2062.15 412.4C2059.75 406.4 2058.4 398.3 2058.1 388.1C2047.3 398.3 2036.2 406.55 2024.8 412.85C2013.4 418.85 2000.95 421.85 1987.45 421.85C1974.55 421.85 1962.7 418.4 1951.9 411.5C1941.1 404.3 1932.55 394.1 1926.25 380.9C1919.95 367.7 1916.8 352.25 1916.8 334.55C1916.8 312.35 1922.05 293.9 1932.55 279.2C1943.05 264.5 1956.25 253.7 1972.15 246.8C1988.05 239.9 2003.95 236.45 2019.85 236.45C2033.05 236.45 2045.65 238.85 2057.65 243.65V149.6C2057.65 139.1 2056.6 131.6 2054.5 127.1C2052.7 122.3 2049.25 119.9 2044.15 119.9C2040.85 119.9 2034.85 121.7 2026.15 125.3H2025.25C2024.05 125.3 2023.15 124.55 2022.55 123.05C2021.95 121.55 2021.95 120.65 2022.55 120.35L2086 90.2L2087.8 89.75C2089 89.75 2090.35 90.35 2091.85 91.55C2093.35 92.75 2094.1 93.8 2094.1 94.7V364.7C2094.1 375.2 2095.15 382.7 2097.25 387.2C2099.35 391.4 2102.95 393.5 2108.05 393.5C2114.05 393.5 2120.8 391.7 2128.3 388.1H2128.75ZM2009.95 402.05C2018.65 402.05 2026.75 400.1 2034.25 396.2C2042.05 392.3 2049.85 386.75 2057.65 379.55V379.1V272C2051.65 263.6 2044.9 257.45 2037.4 253.55C2030.2 249.35 2021.5 247.25 2011.3 247.25C1994.2 247.25 1980.85 253.25 1971.25 265.25C1961.95 277.25 1957.3 295.7 1957.3 320.6C1957.3 345.8 1962.25 365.75 1972.15 380.45C1982.05 394.85 1994.65 402.05 2009.95 402.05Z" fill="#4971FF"/>
</svg>
