<svg width="841" height="108" viewBox="0 0 841 108" fill="none" xmlns="http://www.w3.org/2000/svg">
<path d="M92.0767 96.52C92.2101 96.52 92.2767 96.6 92.2767 96.76C92.2767 96.92 92.2101 97 92.0767 97C91.5701 97 90.7567 96.9733 89.6367 96.92C88.5167 96.8667 87.7034 96.84 87.1967 96.84C86.5301 96.84 85.7434 96.8667 84.8367 96.92C83.9301 96.9733 83.2234 97 82.7167 97C82.6101 97 82.5567 96.92 82.5567 96.76C82.5567 96.6 82.6101 96.52 82.7167 96.52C83.4901 96.52 84.0501 96.44 84.3967 96.28C84.7701 96.0933 84.9567 95.8 84.9567 95.4C84.9567 95 84.7301 94.32 84.2767 93.36L81.2367 87.2H71.5567L69.6367 91.52C69.2901 92.32 69.1167 93.04 69.1167 93.68C69.1167 94.6133 69.4501 95.32 70.1167 95.8C70.7834 96.28 71.7167 96.52 72.9167 96.52C73.0501 96.52 73.1167 96.6 73.1167 96.76C73.1167 96.92 73.0501 97 72.9167 97C72.4367 97 71.7434 96.9733 70.8367 96.92C69.8234 96.8667 68.9434 96.84 68.1967 96.84C67.4767 96.84 66.6367 96.8667 65.6767 96.92C64.8234 96.9733 64.1167 97 63.5567 97C63.4234 97 63.3567 96.92 63.3567 96.76C63.3567 96.6 63.4234 96.52 63.5567 96.52C64.3034 96.52 64.9301 96.3733 65.4367 96.08C65.9434 95.7867 66.4367 95.2667 66.9167 94.52C67.3967 93.7467 67.9701 92.6133 68.6367 91.12L77.2367 71.76C77.2901 71.68 77.4101 71.64 77.5967 71.64C77.7834 71.64 77.8901 71.68 77.9167 71.76L87.7167 91.52C88.6501 93.44 89.4234 94.76 90.0367 95.48C90.6767 96.1733 91.3567 96.52 92.0767 96.52ZM71.9967 86.2H80.7567L76.1567 76.88L71.9967 86.2ZM109.714 81.16C110.328 81.16 110.914 81.36 111.474 81.76C112.034 82.16 112.314 82.64 112.314 83.2C112.314 83.7067 112.154 84.12 111.834 84.44C111.541 84.76 111.128 84.92 110.594 84.92C110.248 84.92 109.954 84.8533 109.714 84.72C109.501 84.56 109.274 84.3467 109.034 84.08C108.794 83.84 108.581 83.6667 108.394 83.56C108.208 83.4267 107.981 83.36 107.714 83.36C107.421 83.36 107.101 83.48 106.754 83.72C106.434 83.9333 105.928 84.4 105.234 85.12V93.76C105.234 94.5067 105.341 95.08 105.554 95.48C105.768 95.8533 106.128 96.12 106.634 96.28C107.141 96.44 107.888 96.52 108.874 96.52C108.981 96.52 109.034 96.6 109.034 96.76C109.034 96.92 108.981 97 108.874 97C107.994 97 107.288 96.9867 106.754 96.96L103.594 96.92L101.274 96.96C100.901 96.9867 100.381 97 99.7142 97C99.6342 97 99.5942 96.92 99.5942 96.76C99.5942 96.6 99.6342 96.52 99.7142 96.52C100.621 96.52 101.221 96.3333 101.514 95.96C101.808 95.5867 101.954 94.8533 101.954 93.76V86.12C101.954 85.2667 101.848 84.64 101.634 84.24C101.448 83.84 101.128 83.64 100.674 83.64C100.274 83.64 99.6076 83.84 98.6742 84.24H98.6342C98.5276 84.24 98.4476 84.1733 98.3942 84.04C98.3409 83.9067 98.3542 83.8267 98.4342 83.8L103.674 81.24C103.834 81.1867 103.928 81.16 103.954 81.16C104.221 81.16 104.488 81.4533 104.754 82.04C105.021 82.6 105.181 83.3467 105.234 84.28C106.274 83.1067 107.141 82.2933 107.834 81.84C108.528 81.3867 109.154 81.16 109.714 81.16ZM129.635 82.4C129.742 82.2133 129.675 82.12 129.435 82.12C126.955 82.12 125.022 82.44 123.635 83.08C122.275 83.6933 121.355 84.72 120.875 86.16C120.875 86.1867 120.822 86.2 120.715 86.2C120.502 86.2 120.408 86.1467 120.435 86.04L122.035 80.12C122.035 80.0933 122.088 80.08 122.195 80.08C122.408 80.08 122.502 80.1333 122.475 80.24C122.422 80.4533 122.395 80.6 122.395 80.68C122.395 81.0267 122.555 81.2667 122.875 81.4C123.195 81.5067 123.715 81.56 124.435 81.56H133.395C133.502 81.56 133.595 81.6133 133.675 81.72C133.755 81.8267 133.768 81.9333 133.715 82.04L124.475 96.04C124.395 96.2267 124.462 96.32 124.675 96.32C126.675 96.32 128.262 96.1867 129.435 95.92C130.635 95.6533 131.555 95.2133 132.195 94.6C132.835 93.96 133.302 93.08 133.595 91.96C133.622 91.88 133.702 91.84 133.835 91.84C133.995 91.84 134.075 91.88 134.075 91.96L133.995 96.56C133.995 96.6667 133.955 96.7733 133.875 96.88C133.795 96.96 133.702 97 133.595 97H120.755C120.648 97 120.555 96.9467 120.475 96.84C120.422 96.7333 120.422 96.6267 120.475 96.52L129.635 82.4ZM157.966 95.12C158.073 95.12 158.126 95.3467 158.126 95.8C158.126 96.0667 158.099 96.3333 158.046 96.6C157.993 96.84 157.939 96.96 157.886 96.96L156.926 96.92C156.073 96.8667 155.433 96.84 155.006 96.84V102.64C155.006 102.907 154.899 103.093 154.686 103.2L152.046 104.52C151.886 104.573 151.806 104.6 151.806 104.6C151.726 104.6 151.686 104.493 151.686 104.28V96.72C150.059 96.6933 147.006 96.68 142.526 96.68C142.393 96.68 142.286 96.6267 142.206 96.52C142.126 96.4133 142.139 96.3067 142.246 96.2L154.406 81.16C154.459 81.1067 154.539 81.08 154.646 81.08C154.726 81.08 154.806 81.1067 154.886 81.16C154.966 81.1867 155.006 81.24 155.006 81.32V95.24L157.966 95.12ZM144.806 95.36C148.113 95.36 150.406 95.3467 151.686 95.32V86.52L144.606 95.08C144.446 95.2667 144.513 95.36 144.806 95.36ZM185.21 94.48C185.29 94.48 185.357 94.5467 185.41 94.68C185.463 94.8133 185.45 94.9067 185.37 94.96L180.13 97.48L179.97 97.52C179.703 97.52 179.463 97.2267 179.25 96.64C179.037 96.0267 178.917 95.2133 178.89 94.2C177.023 96.36 175.05 97.44 172.97 97.44C171.53 97.44 170.41 97 169.61 96.12C168.81 95.2133 168.41 93.9867 168.41 92.44V86.48C168.41 84.6667 167.997 83.76 167.17 83.76C166.903 83.76 166.53 83.8667 166.05 84.08H166.01C165.903 84.08 165.823 84.0133 165.77 83.88C165.717 83.7467 165.73 83.6533 165.81 83.6L170.89 81.24L171.05 81.2C171.157 81.2 171.277 81.2533 171.41 81.36C171.543 81.4667 171.61 81.56 171.61 81.64V90.72C171.61 92.2133 171.877 93.3333 172.41 94.08C172.97 94.8 173.81 95.16 174.93 95.16C175.597 95.16 176.277 95 176.97 94.68C177.69 94.36 178.33 93.92 178.89 93.36V86.48C178.89 85.5467 178.783 84.8667 178.57 84.44C178.383 83.9867 178.077 83.76 177.65 83.76C177.41 83.76 177.037 83.8667 176.53 84.08H176.49C176.383 84.08 176.303 84.0133 176.25 83.88C176.197 83.72 176.223 83.6267 176.33 83.6L181.37 81.24C181.423 81.2133 181.49 81.2 181.57 81.2C181.677 81.2 181.797 81.2533 181.93 81.36C182.063 81.4667 182.13 81.56 182.13 81.64V92.48C182.13 93.4133 182.223 94.0667 182.41 94.44C182.597 94.8133 182.903 95 183.33 95C183.65 95 184.25 94.84 185.13 94.52L185.21 94.48ZM208.184 100.16C208.131 100.16 208.078 100.053 208.024 99.84C207.998 99.6267 207.984 99.4 207.984 99.16C207.984 98.9467 207.998 98.7467 208.024 98.56C208.051 98.4 208.091 98.32 208.144 98.32H221.384C221.438 98.32 221.478 98.4133 221.504 98.6C221.558 98.8133 221.584 99.0267 221.584 99.24C221.584 99.48 221.558 99.6933 221.504 99.88C221.478 100.067 221.438 100.16 221.384 100.16H208.184ZM262.937 77.56C262.937 77.6133 262.857 77.6533 262.697 77.68C262.563 77.7067 262.483 77.68 262.457 77.6C261.817 74.56 259.963 73.04 256.897 73.04H255.297C254.337 73.04 253.657 73.2133 253.257 73.56C252.857 73.9067 252.657 74.48 252.657 75.28V83.96H255.937C258.923 83.96 260.417 82.96 260.417 80.96C260.417 80.9067 260.497 80.88 260.657 80.88C260.817 80.88 260.897 80.9067 260.897 80.96L260.857 84.48C260.857 85.3067 260.87 85.92 260.897 86.32L260.937 88.4C260.937 88.48 260.857 88.52 260.697 88.52C260.537 88.52 260.457 88.48 260.457 88.4C260.457 86.1333 258.923 85 255.857 85H252.657V93.6C252.657 94.4533 252.763 95.08 252.977 95.48C253.19 95.8533 253.603 96.12 254.217 96.28C254.857 96.44 255.83 96.52 257.137 96.52C257.19 96.52 257.217 96.6 257.217 96.76C257.217 96.92 257.19 97 257.137 97C256.043 97 255.19 96.9867 254.577 96.96L250.657 96.92L247.737 96.96C247.23 96.9867 246.523 97 245.617 97C245.537 97 245.497 96.92 245.497 96.76C245.497 96.6 245.537 96.52 245.617 96.52C246.577 96.52 247.27 96.4533 247.697 96.32C248.15 96.1867 248.457 95.9333 248.617 95.56C248.777 95.16 248.857 94.56 248.857 93.76V75.24C248.857 74.44 248.777 73.8533 248.617 73.48C248.483 73.1067 248.203 72.8533 247.777 72.72C247.35 72.56 246.697 72.48 245.817 72.48C245.737 72.48 245.697 72.4 245.697 72.24C245.697 72.08 245.737 72 245.817 72H262.457C262.723 72 262.857 72.12 262.857 72.36L262.937 77.56ZM290.64 94.48C290.72 94.48 290.787 94.5467 290.84 94.68C290.893 94.8133 290.88 94.9067 290.8 94.96L285.56 97.48L285.4 97.52C285.133 97.52 284.893 97.2267 284.68 96.64C284.467 96.0267 284.347 95.2133 284.32 94.2C282.453 96.36 280.48 97.44 278.4 97.44C276.96 97.44 275.84 97 275.04 96.12C274.24 95.2133 273.84 93.9867 273.84 92.44V86.48C273.84 84.6667 273.427 83.76 272.6 83.76C272.333 83.76 271.96 83.8667 271.48 84.08H271.44C271.333 84.08 271.253 84.0133 271.2 83.88C271.147 83.7467 271.16 83.6533 271.24 83.6L276.32 81.24L276.48 81.2C276.587 81.2 276.707 81.2533 276.84 81.36C276.973 81.4667 277.04 81.56 277.04 81.64V90.72C277.04 92.2133 277.307 93.3333 277.84 94.08C278.4 94.8 279.24 95.16 280.36 95.16C281.027 95.16 281.707 95 282.4 94.68C283.12 94.36 283.76 93.92 284.32 93.36V86.48C284.32 85.5467 284.213 84.8667 284 84.44C283.813 83.9867 283.507 83.76 283.08 83.76C282.84 83.76 282.467 83.8667 281.96 84.08H281.92C281.813 84.08 281.733 84.0133 281.68 83.88C281.627 83.72 281.653 83.6267 281.76 83.6L286.8 81.24C286.853 81.2133 286.92 81.2 287 81.2C287.107 81.2 287.227 81.2533 287.36 81.36C287.493 81.4667 287.56 81.56 287.56 81.64V92.48C287.56 93.4133 287.653 94.0667 287.84 94.44C288.027 94.8133 288.333 95 288.76 95C289.08 95 289.68 94.84 290.56 94.52L290.64 94.48ZM298.359 97C298.279 97 298.239 96.92 298.239 96.76C298.239 96.6 298.279 96.52 298.359 96.52C299.239 96.52 299.839 96.3333 300.159 95.96C300.479 95.56 300.639 94.8267 300.639 93.76V73.32C300.639 72.3867 300.546 71.72 300.359 71.32C300.199 70.8933 299.892 70.68 299.439 70.68C299.039 70.68 298.506 70.84 297.839 71.16H297.799C297.692 71.16 297.612 71.0933 297.559 70.96C297.506 70.8267 297.506 70.7333 297.559 70.68L303.199 68.04L303.359 68C303.466 68 303.586 68.0533 303.719 68.16C303.879 68.2667 303.959 68.36 303.959 68.44V93.76C303.959 94.8533 304.106 95.5867 304.399 95.96C304.692 96.3333 305.292 96.52 306.199 96.52C306.279 96.52 306.319 96.6 306.319 96.76C306.319 96.92 306.279 97 306.199 97C305.559 97 305.039 96.9867 304.639 96.96L302.279 96.92L299.959 96.96C299.559 96.9867 299.026 97 298.359 97ZM314.945 97C314.865 97 314.825 96.92 314.825 96.76C314.825 96.6 314.865 96.52 314.945 96.52C315.825 96.52 316.425 96.3333 316.745 95.96C317.065 95.56 317.225 94.8267 317.225 93.76V73.32C317.225 72.3867 317.132 71.72 316.945 71.32C316.785 70.8933 316.478 70.68 316.025 70.68C315.625 70.68 315.092 70.84 314.425 71.16H314.385C314.278 71.16 314.198 71.0933 314.145 70.96C314.092 70.8267 314.092 70.7333 314.145 70.68L319.785 68.04L319.945 68C320.052 68 320.172 68.0533 320.305 68.16C320.465 68.2667 320.545 68.36 320.545 68.44V93.76C320.545 94.8533 320.692 95.5867 320.985 95.96C321.278 96.3333 321.878 96.52 322.785 96.52C322.865 96.52 322.905 96.6 322.905 96.76C322.905 96.92 322.865 97 322.785 97C322.145 97 321.625 96.9867 321.225 96.96L318.865 96.92L316.545 96.96C316.145 96.9867 315.612 97 314.945 97ZM351.986 76.24C351.986 77.2267 352.226 78.1067 352.706 78.88C353.212 79.6267 353.826 80.28 354.546 80.84C355.292 81.4 356.292 82.0667 357.546 82.84C358.906 83.6933 359.972 84.4267 360.746 85.04C361.546 85.6533 362.212 86.4133 362.746 87.32C363.306 88.2 363.586 89.24 363.586 90.44C363.586 91.8 363.226 93.0133 362.506 94.08C361.812 95.1467 360.812 95.9867 359.506 96.6C358.226 97.1867 356.759 97.48 355.106 97.48C353.986 97.48 352.826 97.3333 351.626 97.04C350.452 96.7467 349.559 96.3867 348.946 95.96C348.706 95.8 348.572 95.5467 348.546 95.2L348.306 89.12V89.08C348.306 88.9733 348.372 88.92 348.506 88.92C348.639 88.8933 348.719 88.9333 348.746 89.04C349.626 91.2533 350.626 93.0667 351.746 94.48C352.892 95.8933 354.346 96.6 356.106 96.6C357.252 96.6 358.212 96.2933 358.986 95.68C359.759 95.04 360.146 93.9867 360.146 92.52C360.146 91.3467 359.879 90.32 359.346 89.44C358.839 88.56 358.199 87.8267 357.426 87.24C356.679 86.6533 355.652 85.9333 354.346 85.08C353.066 84.2533 352.066 83.56 351.346 83C350.626 82.4133 350.012 81.7067 349.506 80.88C348.999 80.0267 348.746 79.04 348.746 77.92C348.746 76.5333 349.132 75.36 349.906 74.4C350.679 73.44 351.679 72.7333 352.906 72.28C354.159 71.8 355.466 71.56 356.826 71.56C357.732 71.56 358.639 71.6533 359.546 71.84C360.452 72 361.212 72.2133 361.826 72.48C362.226 72.64 362.426 72.8933 362.426 73.24L362.546 78.68C362.546 78.76 362.466 78.8133 362.306 78.84C362.172 78.8667 362.092 78.84 362.066 78.76C361.532 77.1333 360.812 75.6667 359.906 74.36C359.026 73.0267 357.692 72.36 355.906 72.36C354.706 72.36 353.746 72.7067 353.026 73.4C352.332 74.0933 351.986 75.04 351.986 76.24ZM384.499 94.44C384.579 94.44 384.646 94.4933 384.699 94.6C384.779 94.7067 384.779 94.7867 384.699 94.84C383.713 95.7733 382.779 96.4533 381.899 96.88C381.019 97.28 380.086 97.48 379.099 97.48C377.953 97.48 376.979 97.2133 376.179 96.68C375.406 96.12 375.019 95.2 375.019 93.92V84.88C375.019 84 374.873 83.4133 374.579 83.12C374.313 82.8267 373.779 82.68 372.979 82.68C372.953 82.68 372.913 82.6533 372.859 82.6C372.833 82.52 372.819 82.44 372.819 82.36C372.819 82.28 372.833 82.2133 372.859 82.16C372.913 82.08 372.953 82.04 372.979 82.04C375.486 81.9333 377.059 80.8533 377.699 78.8C377.753 78.6933 377.859 78.64 378.019 78.64C378.206 78.64 378.299 78.6933 378.299 78.8V81.96C379.553 81.9333 381.326 81.8 383.619 81.56C383.673 81.56 383.726 81.6667 383.779 81.88C383.859 82.0667 383.899 82.28 383.899 82.52C383.899 82.76 383.846 83 383.739 83.24C383.659 83.48 383.566 83.5867 383.459 83.56C381.966 83.2133 380.246 83 378.299 82.92V92.6C378.299 93.64 378.553 94.4133 379.059 94.92C379.593 95.4 380.326 95.64 381.259 95.64C382.379 95.64 383.433 95.2533 384.419 94.48L384.499 94.44ZM407.896 94.84C408.002 94.84 408.069 94.9067 408.096 95.04C408.122 95.1467 408.082 95.2267 407.976 95.28L403.856 97.24C403.749 97.2933 403.629 97.32 403.496 97.32C403.096 97.32 402.709 97.0933 402.336 96.64C401.989 96.16 401.762 95.5333 401.656 94.76L399.816 96.04C399.176 96.4933 398.589 96.8133 398.056 97C397.549 97.1867 396.976 97.28 396.336 97.28C395.242 97.28 394.402 97.0267 393.816 96.52C393.256 95.9867 392.976 95.2933 392.976 94.44C392.976 93.72 393.162 93.1333 393.536 92.68C393.936 92.2267 394.429 91.8667 395.016 91.6C395.629 91.3067 396.522 90.9467 397.696 90.52L401.576 89.08V86.68C401.576 85.0267 401.402 83.8267 401.056 83.08C400.736 82.3067 400.216 81.92 399.496 81.92C398.616 81.92 397.976 82.2533 397.576 82.92C397.202 83.56 396.976 84.28 396.896 85.08C396.736 86.44 396.056 87.12 394.856 87.12C394.269 87.12 393.829 86.9867 393.536 86.72C393.269 86.4533 393.136 86.12 393.136 85.72C393.136 84.9733 393.576 84.2533 394.456 83.56C395.362 82.84 396.442 82.2667 397.696 81.84C398.976 81.3867 400.096 81.16 401.056 81.16C402.202 81.16 403.109 81.52 403.776 82.24C404.469 82.96 404.816 84.04 404.816 85.48V92.68C404.816 93.5067 404.949 94.1333 405.216 94.56C405.482 94.9867 405.869 95.2 406.376 95.2C406.776 95.2 407.256 95.08 407.816 94.84H407.896ZM401.576 94.12V93.72V89.76L399.176 90.76C398.482 91.0267 397.909 91.3467 397.456 91.72C397.029 92.0667 396.816 92.5733 396.816 93.24C396.816 93.88 397.016 94.4 397.416 94.8C397.842 95.1733 398.349 95.36 398.936 95.36C399.416 95.36 399.922 95.2 400.456 94.88L401.576 94.12ZM423.293 97.48C421.559 97.48 420.079 97.1067 418.853 96.36C417.653 95.5867 416.759 94.6 416.173 93.4C415.586 92.1733 415.293 90.8933 415.293 89.56C415.293 87.88 415.746 86.4133 416.653 85.16C417.559 83.88 418.719 82.9067 420.133 82.24C421.573 81.5467 423.026 81.2 424.493 81.2C425.746 81.2 426.879 81.4533 427.893 81.96C428.906 82.4667 429.413 83.1467 429.413 84C429.413 84.4533 429.239 84.8533 428.893 85.2C428.546 85.52 428.066 85.68 427.453 85.68C426.439 85.68 425.706 85.08 425.253 83.88C424.986 83.2133 424.706 82.7467 424.413 82.48C424.119 82.1867 423.653 82.04 423.013 82.04C421.759 82.04 420.759 82.6133 420.013 83.76C419.293 84.88 418.933 86.3867 418.933 88.28C418.933 90.4933 419.439 92.2933 420.453 93.68C421.493 95.04 423.106 95.72 425.293 95.72C426.039 95.72 426.706 95.6267 427.293 95.44C427.879 95.2533 428.519 94.96 429.213 94.56H429.253C429.333 94.56 429.399 94.6 429.453 94.68C429.533 94.76 429.546 94.8267 429.493 94.88C428.506 95.76 427.533 96.4133 426.573 96.84C425.613 97.2667 424.519 97.48 423.293 97.48ZM456.45 96.52C456.53 96.52 456.57 96.6 456.57 96.76C456.57 96.92 456.53 97 456.45 97C455.783 97 455.25 96.9867 454.85 96.96L452.57 96.92L449.57 96.96C449.116 96.9867 448.503 97 447.73 97C447.676 97 447.65 96.92 447.65 96.76C447.65 96.6 447.676 96.52 447.73 96.52C448.823 96.52 449.37 96.24 449.37 95.68C449.37 95.44 449.263 95.1733 449.05 94.88L444.37 88.72L443.17 89.76V93.76C443.17 94.8533 443.316 95.5867 443.61 95.96C443.93 96.3333 444.543 96.52 445.45 96.52C445.556 96.52 445.61 96.6 445.61 96.76C445.61 96.92 445.556 97 445.45 97C444.783 97 444.25 96.9867 443.85 96.96L441.57 96.92L439.29 96.96C438.89 96.9867 438.356 97 437.69 97C437.61 97 437.57 96.92 437.57 96.76C437.57 96.6 437.61 96.52 437.69 96.52C438.57 96.52 439.17 96.3333 439.49 95.96C439.81 95.56 439.97 94.8267 439.97 93.76V73.32C439.97 72.3867 439.876 71.72 439.69 71.32C439.503 70.8933 439.196 70.68 438.77 70.68C438.37 70.68 437.823 70.84 437.13 71.16H437.09C437.01 71.16 436.93 71.0933 436.85 70.96C436.796 70.8 436.81 70.7067 436.89 70.68L442.45 68.04L442.65 68C442.756 68 442.863 68.0533 442.97 68.16C443.103 68.2667 443.17 68.36 443.17 68.44V88.92L447.45 85.08C448.196 84.44 448.57 83.8133 448.57 83.2C448.57 82.8533 448.41 82.5733 448.09 82.36C447.796 82.1467 447.37 82.04 446.81 82.04C446.73 82.04 446.69 81.96 446.69 81.8C446.69 81.64 446.73 81.56 446.81 81.56C447.556 81.56 448.143 81.5733 448.57 81.6L451.61 81.64L454.45 81.6C454.823 81.5733 455.33 81.56 455.97 81.56C456.05 81.56 456.09 81.64 456.09 81.8C456.09 81.96 456.05 82.04 455.97 82.04C454.876 82.04 453.636 82.32 452.25 82.88C450.863 83.4133 449.583 84.2 448.41 85.24L446.69 86.72L452.01 93.76C452.756 94.7467 453.49 95.4533 454.21 95.88C454.93 96.3067 455.676 96.52 456.45 96.52ZM490.513 97.16C489.686 97.16 488.726 97.12 487.633 97.04C487.233 97.0133 486.726 96.9867 486.113 96.96C485.5 96.9333 484.806 96.92 484.033 96.92L481.193 96.96C480.686 96.9867 479.98 97 479.073 97C479.02 97 478.993 96.92 478.993 96.76C478.993 96.6 479.02 96.52 479.073 96.52C479.98 96.52 480.633 96.4533 481.033 96.32C481.46 96.1867 481.753 95.9333 481.913 95.56C482.073 95.16 482.153 94.56 482.153 93.76V75.24C482.153 74.44 482.073 73.8533 481.913 73.48C481.78 73.1067 481.5 72.8533 481.073 72.72C480.646 72.56 479.993 72.48 479.113 72.48C479.06 72.48 479.033 72.4 479.033 72.24C479.033 72.08 479.06 72 479.113 72L481.233 72.04C482.406 72.0933 483.34 72.12 484.033 72.12C485.1 72.12 486.18 72.08 487.273 72C488.606 71.9467 489.5 71.92 489.953 71.92C492.673 71.92 495.086 72.4533 497.193 73.52C499.3 74.5867 500.926 76.04 502.073 77.88C503.246 79.72 503.833 81.7867 503.833 84.08C503.833 86.6667 503.233 88.96 502.033 90.96C500.833 92.9333 499.22 94.4667 497.193 95.56C495.166 96.6267 492.94 97.16 490.513 97.16ZM490.113 96.36C491.953 96.36 493.58 95.92 494.993 95.04C496.433 94.16 497.553 92.8667 498.353 91.16C499.153 89.4267 499.553 87.36 499.553 84.96C499.553 82.6667 499.166 80.6 498.393 78.76C497.646 76.8933 496.58 75.4267 495.193 74.36C493.806 73.2667 492.193 72.72 490.353 72.72C489.233 72.72 488.366 72.7867 487.753 72.92C487.14 73.0533 486.686 73.3067 486.393 73.68C486.126 74.0267 485.993 74.5733 485.993 75.32V93.32C485.993 94.4133 486.273 95.2 486.833 95.68C487.393 96.1333 488.486 96.36 490.113 96.36ZM526.805 94.48C526.858 94.48 526.911 94.5333 526.965 94.64C527.045 94.7467 527.058 94.8267 527.005 94.88C526.018 95.7867 525.031 96.4533 524.045 96.88C523.058 97.28 521.991 97.48 520.845 97.48C519.218 97.48 517.805 97.12 516.605 96.4C515.431 95.68 514.525 94.7333 513.885 93.56C513.271 92.3867 512.965 91.12 512.965 89.76C512.965 88.1867 513.351 86.7467 514.125 85.44C514.898 84.1333 515.951 83.1067 517.285 82.36C518.645 81.5867 520.151 81.2 521.805 81.2C523.405 81.2 524.645 81.5867 525.525 82.36C526.405 83.1333 526.845 84.28 526.845 85.8C526.845 86.5733 526.685 86.96 526.365 86.96L516.605 87C516.578 87.24 516.565 87.6 516.565 88.08C516.565 90.4267 517.098 92.2933 518.165 93.68C519.258 95.04 520.805 95.72 522.805 95.72C523.551 95.72 524.178 95.64 524.685 95.48C525.191 95.2933 525.871 94.9733 526.725 94.52L526.805 94.48ZM520.365 82C519.378 82 518.565 82.3867 517.925 83.16C517.311 83.9067 516.898 84.9467 516.685 86.28L523.085 86.16C523.031 83.3867 522.125 82 520.365 82ZM552.086 81.56C552.139 81.56 552.166 81.64 552.166 81.8C552.166 81.96 552.139 82.04 552.086 82.04C551.339 82.04 550.686 82.3067 550.126 82.84C549.593 83.3733 549.073 84.2267 548.566 85.4L543.606 97C543.553 97.1333 543.419 97.2 543.206 97.2C542.966 97.2 542.806 97.1333 542.726 97L536.806 84.88C536.246 83.7067 535.766 82.9467 535.366 82.6C534.966 82.2267 534.473 82.04 533.886 82.04C533.806 82.04 533.766 81.96 533.766 81.8C533.766 81.64 533.806 81.56 533.886 81.56C534.366 81.56 534.753 81.5733 535.046 81.6L537.366 81.64L540.326 81.6C540.753 81.5733 541.339 81.56 542.086 81.56C542.166 81.56 542.206 81.64 542.206 81.8C542.206 81.96 542.166 82.04 542.086 82.04C540.513 82.04 539.726 82.3467 539.726 82.96C539.726 83.12 539.793 83.3333 539.926 83.6L544.526 92.68L547.566 85.32C547.753 84.8667 547.846 84.4267 547.846 84C547.846 83.36 547.606 82.88 547.126 82.56C546.673 82.2133 545.993 82.04 545.086 82.04C545.033 82.04 545.006 81.96 545.006 81.8C545.006 81.64 545.033 81.56 545.086 81.56C545.806 81.56 546.353 81.5733 546.726 81.6L549.126 81.64L550.686 81.6C550.979 81.5733 551.446 81.56 552.086 81.56ZM572.945 94.48C572.998 94.48 573.052 94.5333 573.105 94.64C573.185 94.7467 573.198 94.8267 573.145 94.88C572.158 95.7867 571.172 96.4533 570.185 96.88C569.198 97.28 568.132 97.48 566.985 97.48C565.358 97.48 563.945 97.12 562.745 96.4C561.572 95.68 560.665 94.7333 560.025 93.56C559.412 92.3867 559.105 91.12 559.105 89.76C559.105 88.1867 559.492 86.7467 560.265 85.44C561.038 84.1333 562.092 83.1067 563.425 82.36C564.785 81.5867 566.292 81.2 567.945 81.2C569.545 81.2 570.785 81.5867 571.665 82.36C572.545 83.1333 572.985 84.28 572.985 85.8C572.985 86.5733 572.825 86.96 572.505 86.96L562.745 87C562.718 87.24 562.705 87.6 562.705 88.08C562.705 90.4267 563.238 92.2933 564.305 93.68C565.398 95.04 566.945 95.72 568.945 95.72C569.692 95.72 570.318 95.64 570.825 95.48C571.332 95.2933 572.012 94.9733 572.865 94.52L572.945 94.48ZM566.505 82C565.518 82 564.705 82.3867 564.065 83.16C563.452 83.9067 563.038 84.9467 562.825 86.28L569.225 86.16C569.172 83.3867 568.265 82 566.505 82ZM581.867 97C581.787 97 581.747 96.92 581.747 96.76C581.747 96.6 581.787 96.52 581.867 96.52C582.747 96.52 583.347 96.3333 583.667 95.96C583.987 95.56 584.147 94.8267 584.147 93.76V73.32C584.147 72.3867 584.053 71.72 583.867 71.32C583.707 70.8933 583.4 70.68 582.947 70.68C582.547 70.68 582.013 70.84 581.347 71.16H581.307C581.2 71.16 581.12 71.0933 581.067 70.96C581.013 70.8267 581.013 70.7333 581.067 70.68L586.707 68.04L586.867 68C586.973 68 587.093 68.0533 587.227 68.16C587.387 68.2667 587.467 68.36 587.467 68.44V93.76C587.467 94.8533 587.613 95.5867 587.907 95.96C588.2 96.3333 588.8 96.52 589.707 96.52C589.787 96.52 589.827 96.6 589.827 96.76C589.827 96.92 589.787 97 589.707 97C589.067 97 588.547 96.9867 588.147 96.96L585.787 96.92L583.467 96.96C583.067 96.9867 582.533 97 581.867 97ZM606.373 97.52C604.773 97.52 603.359 97.1467 602.133 96.4C600.906 95.6267 599.959 94.6 599.293 93.32C598.626 92.0133 598.293 90.6 598.293 89.08C598.293 87.3467 598.719 85.88 599.573 84.68C600.453 83.4533 601.559 82.5467 602.893 81.96C604.253 81.3467 605.639 81.04 607.053 81.04C608.679 81.04 610.093 81.4267 611.293 82.2C612.519 82.9733 613.453 84 614.093 85.28C614.733 86.5333 615.053 87.88 615.053 89.32C615.053 90.92 614.653 92.3467 613.853 93.6C613.079 94.8533 612.026 95.8267 610.693 96.52C609.359 97.1867 607.919 97.52 606.373 97.52ZM607.573 96.72C608.746 96.72 609.639 96.2 610.253 95.16C610.893 94.12 611.213 92.6 611.213 90.6C611.213 88.8133 610.959 87.2533 610.453 85.92C609.973 84.5867 609.306 83.5733 608.453 82.88C607.626 82.1867 606.719 81.84 605.733 81.84C604.533 81.84 603.626 82.3333 603.013 83.32C602.399 84.3067 602.093 85.76 602.093 87.68C602.093 89.4133 602.319 90.9733 602.773 92.36C603.253 93.72 603.906 94.7867 604.733 95.56C605.586 96.3333 606.533 96.72 607.573 96.72ZM632.826 97.52C631.546 97.52 630.306 97.32 629.106 96.92V104.76C629.106 105.56 629.199 106.147 629.386 106.52C629.572 106.893 629.919 107.147 630.426 107.28C630.932 107.44 631.732 107.52 632.826 107.52C632.879 107.52 632.906 107.6 632.906 107.76C632.906 107.92 632.879 108 632.826 108C631.866 108 631.119 107.987 630.586 107.96L627.466 107.92L625.186 107.96C624.786 107.987 624.239 108 623.546 108C623.466 108 623.426 107.92 623.426 107.76C623.426 107.6 623.466 107.52 623.546 107.52C624.212 107.52 624.706 107.44 625.026 107.28C625.346 107.147 625.559 106.893 625.666 106.52C625.799 106.147 625.866 105.56 625.866 104.76V86.16C625.866 85.28 625.759 84.64 625.546 84.24C625.359 83.84 625.026 83.64 624.546 83.64C624.092 83.64 623.452 83.8267 622.626 84.2H622.546C622.439 84.2 622.359 84.1467 622.306 84.04C622.252 83.9067 622.252 83.8133 622.306 83.76L627.586 81.24C627.639 81.2133 627.719 81.2 627.826 81.2C628.119 81.2 628.386 81.4533 628.626 81.96C628.866 82.44 629.012 83.1067 629.066 83.96C631.119 82.0133 633.199 81.04 635.306 81.04C636.426 81.04 637.466 81.3333 638.426 81.92C639.386 82.5067 640.146 83.36 640.706 84.48C641.292 85.6 641.586 86.9067 641.586 88.4C641.586 90.5067 641.132 92.24 640.226 93.6C639.346 94.96 638.239 95.96 636.906 96.6C635.572 97.2133 634.212 97.52 632.826 97.52ZM632.986 83.04C631.626 83.04 630.332 83.6133 629.106 84.76V84.84V94.4C629.746 95.0933 630.412 95.6267 631.106 96C631.826 96.3733 632.692 96.56 633.706 96.56C635.039 96.56 636.092 95.9867 636.866 94.84C637.639 93.6667 638.026 91.9333 638.026 89.64C638.026 87.5333 637.546 85.9067 636.586 84.76C635.626 83.6133 634.426 83.04 632.986 83.04ZM664.055 94.48C664.108 94.48 664.161 94.5333 664.215 94.64C664.295 94.7467 664.308 94.8267 664.255 94.88C663.268 95.7867 662.281 96.4533 661.295 96.88C660.308 97.28 659.241 97.48 658.095 97.48C656.468 97.48 655.055 97.12 653.855 96.4C652.681 95.68 651.775 94.7333 651.135 93.56C650.521 92.3867 650.215 91.12 650.215 89.76C650.215 88.1867 650.601 86.7467 651.375 85.44C652.148 84.1333 653.201 83.1067 654.535 82.36C655.895 81.5867 657.401 81.2 659.055 81.2C660.655 81.2 661.895 81.5867 662.775 82.36C663.655 83.1333 664.095 84.28 664.095 85.8C664.095 86.5733 663.935 86.96 663.615 86.96L653.855 87C653.828 87.24 653.815 87.6 653.815 88.08C653.815 90.4267 654.348 92.2933 655.415 93.68C656.508 95.04 658.055 95.72 660.055 95.72C660.801 95.72 661.428 95.64 661.935 95.48C662.441 95.2933 663.121 94.9733 663.975 94.52L664.055 94.48ZM657.615 82C656.628 82 655.815 82.3867 655.175 83.16C654.561 83.9067 654.148 84.9467 653.935 86.28L660.335 86.16C660.281 83.3867 659.375 82 657.615 82ZM683.136 81.16C683.749 81.16 684.336 81.36 684.896 81.76C685.456 82.16 685.736 82.64 685.736 83.2C685.736 83.7067 685.576 84.12 685.256 84.44C684.963 84.76 684.549 84.92 684.016 84.92C683.669 84.92 683.376 84.8533 683.136 84.72C682.923 84.56 682.696 84.3467 682.456 84.08C682.216 83.84 682.003 83.6667 681.816 83.56C681.629 83.4267 681.403 83.36 681.136 83.36C680.843 83.36 680.523 83.48 680.176 83.72C679.856 83.9333 679.349 84.4 678.656 85.12V93.76C678.656 94.5067 678.763 95.08 678.976 95.48C679.189 95.8533 679.549 96.12 680.056 96.28C680.563 96.44 681.309 96.52 682.296 96.52C682.403 96.52 682.456 96.6 682.456 96.76C682.456 96.92 682.403 97 682.296 97C681.416 97 680.709 96.9867 680.176 96.96L677.016 96.92L674.696 96.96C674.323 96.9867 673.803 97 673.136 97C673.056 97 673.016 96.92 673.016 96.76C673.016 96.6 673.056 96.52 673.136 96.52C674.043 96.52 674.643 96.3333 674.936 95.96C675.229 95.5867 675.376 94.8533 675.376 93.76V86.12C675.376 85.2667 675.269 84.64 675.056 84.24C674.869 83.84 674.549 83.64 674.096 83.64C673.696 83.64 673.029 83.84 672.096 84.24H672.056C671.949 84.24 671.869 84.1733 671.816 84.04C671.763 83.9067 671.776 83.8267 671.856 83.8L677.096 81.24C677.256 81.1867 677.349 81.16 677.376 81.16C677.643 81.16 677.909 81.4533 678.176 82.04C678.443 82.6 678.603 83.3467 678.656 84.28C679.696 83.1067 680.563 82.2933 681.256 81.84C681.949 81.3867 682.576 81.16 683.136 81.16Z" fill="black"/>
<path d="M5.075 14.22C5.075 15.13 5.29667 15.9233 5.74 16.6C6.18333 17.2767 6.72 17.8483 7.35 18.315C8.00333 18.7583 8.89 19.3183 10.01 19.995C11.2467 20.7417 12.1917 21.36 12.845 21.85C13.5217 22.34 14.0933 22.97 14.56 23.74C15.05 24.4867 15.295 25.385 15.295 26.435C15.295 27.555 15.015 28.57 14.455 29.48C13.895 30.39 13.0667 31.1133 11.97 31.65C10.8967 32.1633 9.60167 32.42 8.085 32.42C6.28833 32.42 4.64333 32.0117 3.15 31.195C3.03333 31.125 2.95167 31.0433 2.905 30.95C2.88167 30.8567 2.85833 30.7167 2.835 30.53L2.38 25.77C2.35667 25.6767 2.40333 25.6183 2.52 25.595C2.66 25.5717 2.74167 25.6067 2.765 25.7C3.13833 27.38 3.82667 28.8267 4.83 30.04C5.85667 31.2533 7.21 31.86 8.89 31.86C10.0567 31.86 11.0367 31.545 11.83 30.915C12.6467 30.2617 13.055 29.235 13.055 27.835C13.055 26.785 12.8217 25.875 12.355 25.105C11.8883 24.335 11.3167 23.705 10.64 23.215C9.98667 22.7017 9.08833 22.1067 7.945 21.43C6.825 20.7533 5.93833 20.17 5.285 19.68C4.655 19.19 4.11833 18.5717 3.675 17.825C3.23167 17.0783 3.01 16.2033 3.01 15.2C3.01 14.0333 3.31333 13.0417 3.92 12.225C4.55 11.385 5.355 10.7667 6.335 10.37C7.33833 9.95 8.4 9.74 9.52 9.74C10.8967 9.74 12.2617 10.02 13.615 10.58C13.965 10.6967 14.14 10.895 14.14 11.175L14.385 15.2C14.385 15.2933 14.3267 15.34 14.21 15.34C14.0933 15.34 14.0233 15.2933 14 15.2C13.8133 13.9867 13.3117 12.8667 12.495 11.84C11.6783 10.79 10.5 10.265 8.96 10.265C7.65333 10.265 6.67333 10.65 6.02 11.42C5.39 12.1667 5.075 13.1 5.075 14.22ZM35.0074 30.04C35.0774 30.04 35.1357 30.0867 35.1824 30.18C35.2524 30.25 35.264 30.32 35.2174 30.39C33.6774 31.7433 31.9741 32.42 30.1074 32.42C28.754 32.42 27.599 32.105 26.6424 31.475C25.6857 30.845 24.9507 30.0167 24.4374 28.99C23.9474 27.9633 23.7024 26.8667 23.7024 25.7C23.7024 24.3233 24.029 23.0633 24.6824 21.92C25.3357 20.7533 26.2224 19.8433 27.3424 19.19C28.4857 18.5133 29.734 18.175 31.0874 18.175C32.394 18.175 33.3974 18.525 34.0974 19.225C34.7974 19.925 35.1474 20.905 35.1474 22.165C35.1474 22.4917 35.1124 22.725 35.0424 22.865C34.9957 23.005 34.9024 23.075 34.7624 23.075L26.0824 23.11C26.0357 23.6233 26.0124 24.0433 26.0124 24.37C26.0124 26.4 26.4907 28.045 27.4474 29.305C28.404 30.565 29.7457 31.195 31.4724 31.195C32.1724 31.195 32.7674 31.1017 33.2574 30.915C33.7707 30.7283 34.3424 30.4367 34.9724 30.04H35.0074ZM29.9324 18.875C28.929 18.875 28.1007 19.2133 27.4474 19.89C26.794 20.5433 26.3624 21.465 26.1524 22.655L32.8024 22.515C32.8024 21.325 32.5457 20.4267 32.0324 19.82C31.519 19.19 30.819 18.875 29.9324 18.875ZM53.1445 18.035C54.1012 18.035 54.9878 18.2917 55.8045 18.805C56.6212 19.3183 57.2745 20.065 57.7645 21.045C58.2545 22.025 58.4995 23.1683 58.4995 24.475C58.4995 26.225 58.1028 27.7067 57.3095 28.92C56.5162 30.11 55.5362 30.9967 54.3695 31.58C53.2262 32.1633 52.0945 32.455 50.9745 32.455C50.2512 32.455 49.5978 32.385 49.0145 32.245C48.4545 32.105 47.8712 31.8717 47.2645 31.545V38.79C47.2645 39.49 47.3462 40.0033 47.5095 40.33C47.6962 40.6567 48.0345 40.8783 48.5245 40.995C49.0145 41.135 49.7612 41.205 50.7645 41.205C50.8112 41.205 50.8345 41.275 50.8345 41.415C50.8345 41.555 50.8112 41.625 50.7645 41.625C49.9712 41.625 49.3412 41.6133 48.8745 41.59L46.3195 41.555L44.3945 41.59C44.0678 41.6133 43.6362 41.625 43.0995 41.625C43.0295 41.625 42.9945 41.555 42.9945 41.415C42.9945 41.275 43.0295 41.205 43.0995 41.205C43.7295 41.205 44.1962 41.135 44.4995 40.995C44.8028 40.8783 45.0128 40.6567 45.1295 40.33C45.2462 40.0033 45.3045 39.49 45.3045 38.79V22.34C45.3045 21.5 45.2112 20.905 45.0245 20.555C44.8378 20.1817 44.5112 19.995 44.0445 19.995C43.5312 19.995 42.9128 20.1583 42.1895 20.485L42.1195 20.52C42.0262 20.52 41.9678 20.4617 41.9445 20.345C41.8978 20.2283 41.9095 20.1467 41.9795 20.1L45.8645 18.245C45.9112 18.2217 45.9928 18.21 46.1095 18.21C46.4362 18.21 46.7045 18.455 46.9145 18.945C47.1245 19.435 47.2412 20.135 47.2645 21.045C49.2478 19.0383 51.2078 18.035 53.1445 18.035ZM52.0245 31.72C53.2612 31.72 54.2762 31.1833 55.0695 30.11C55.8628 29.0133 56.2595 27.4967 56.2595 25.56C56.2595 23.6 55.8278 22.0833 54.9645 21.01C54.1012 19.9133 53.0045 19.365 51.6745 19.365C50.8578 19.365 50.0995 19.5633 49.3995 19.96C48.6995 20.3567 47.9878 20.9167 47.2645 21.64V29.515C47.9178 30.2383 48.6062 30.7867 49.3295 31.16C50.0762 31.5333 50.9745 31.72 52.0245 31.72ZM75.9905 30.18C76.0838 30.18 76.1538 30.2383 76.2005 30.355C76.2471 30.4483 76.2355 30.5183 76.1655 30.565C75.3021 31.2417 74.5205 31.72 73.8205 32C73.1438 32.28 72.4321 32.42 71.6855 32.42C70.7055 32.42 69.9005 32.1983 69.2705 31.755C68.6405 31.3117 68.3255 30.5767 68.3255 29.55V21.325C68.3255 20.7183 68.2788 20.2867 68.1855 20.03C68.1155 19.7733 67.9638 19.61 67.7305 19.54C67.4971 19.4467 67.1005 19.4 66.5405 19.4C66.4471 19.4 66.4005 19.33 66.4005 19.19C66.4005 19.0267 66.4471 18.945 66.5405 18.945C67.4738 18.9217 68.2321 18.6767 68.8155 18.21C69.3988 17.72 69.7371 17.0783 69.8305 16.285C69.8305 16.215 69.9238 16.18 70.1105 16.18C70.2738 16.18 70.3555 16.215 70.3555 16.285V18.875C71.5221 18.8517 73.1438 18.735 75.2205 18.525C75.2671 18.525 75.3138 18.6183 75.3605 18.805C75.4305 18.9683 75.4655 19.155 75.4655 19.365C75.4655 19.5517 75.4188 19.75 75.3255 19.96C75.2555 20.1467 75.1738 20.2283 75.0805 20.205C73.7971 19.8783 72.2221 19.6917 70.3555 19.645V28.36C70.3555 29.3167 70.5888 30.0283 71.0555 30.495C71.5455 30.9617 72.2338 31.195 73.1205 31.195C74.1471 31.195 75.0805 30.8683 75.9205 30.215L75.9905 30.18ZM96.9298 31.475C98.9831 29.795 100.57 28.43 101.69 27.38C102.81 26.3067 103.615 25.35 104.105 24.51C104.595 23.67 104.84 22.83 104.84 21.99C104.84 21.0567 104.548 20.2983 103.965 19.715C103.405 19.1083 102.67 18.805 101.76 18.805C99.9164 18.805 98.5864 20.2517 97.7698 23.145C97.7698 23.1683 97.7231 23.18 97.6298 23.18C97.4198 23.18 97.3264 23.1333 97.3498 23.04L98.7148 17.72C98.7148 17.6733 98.7614 17.65 98.8548 17.65C98.9248 17.65 98.9831 17.6733 99.0298 17.72C99.0998 17.7433 99.1231 17.7667 99.0998 17.79C99.0764 17.8833 99.0648 18.0117 99.0648 18.175C99.0648 18.5483 99.2398 18.735 99.5898 18.735C99.7998 18.735 100.15 18.6533 100.64 18.49C101.596 18.1867 102.448 18.035 103.195 18.035C104.385 18.035 105.318 18.3617 105.995 19.015C106.695 19.645 107.045 20.4733 107.045 21.5C107.045 22.3167 106.776 23.1333 106.24 23.95C105.726 24.7667 104.956 25.6417 103.93 26.575C102.926 27.485 101.515 28.64 99.6948 30.04C99.6014 30.11 99.5664 30.1683 99.5898 30.215C99.6364 30.2617 99.7181 30.285 99.8348 30.285C102.401 30.285 104.186 30.25 105.19 30.18C106.193 30.11 106.916 29.9233 107.36 29.62C107.803 29.3167 108.106 28.78 108.27 28.01C108.27 27.9633 108.328 27.94 108.445 27.94C108.608 27.94 108.69 27.975 108.69 28.045L108.165 31.615C108.165 31.7083 108.13 31.8017 108.06 31.895C108.013 31.965 107.943 32 107.85 32H97.1748C97.0581 32 96.9648 31.9417 96.8948 31.825C96.8248 31.685 96.8364 31.5683 96.9298 31.475ZM123.367 32.455C121.99 32.455 120.753 32.14 119.657 31.51C118.583 30.88 117.732 30.0167 117.102 28.92C116.495 27.8 116.192 26.54 116.192 25.14C116.192 23.7633 116.495 22.5383 117.102 21.465C117.732 20.3917 118.595 19.5517 119.692 18.945C120.788 18.3383 122.025 18.035 123.402 18.035C124.755 18.035 125.968 18.35 127.042 18.98C128.115 19.5867 128.943 20.4383 129.527 21.535C130.133 22.6317 130.437 23.8683 130.437 25.245C130.437 26.6217 130.133 27.8583 129.527 28.955C128.92 30.0517 128.08 30.915 127.007 31.545C125.933 32.1517 124.72 32.455 123.367 32.455ZM123.752 31.965C125.152 31.965 126.202 31.405 126.902 30.285C127.625 29.1417 127.987 27.6017 127.987 25.665C127.987 23.3317 127.508 21.5583 126.552 20.345C125.618 19.1317 124.44 18.525 123.017 18.525C121.64 18.525 120.555 19.1083 119.762 20.275C118.992 21.4417 118.607 22.97 118.607 24.86C118.607 26.9367 119.073 28.64 120.007 29.97C120.94 31.3 122.188 31.965 123.752 31.965ZM138.191 31.475C140.245 29.795 141.831 28.43 142.951 27.38C144.071 26.3067 144.876 25.35 145.366 24.51C145.856 23.67 146.101 22.83 146.101 21.99C146.101 21.0567 145.81 20.2983 145.226 19.715C144.666 19.1083 143.931 18.805 143.021 18.805C141.178 18.805 139.848 20.2517 139.031 23.145C139.031 23.1683 138.985 23.18 138.891 23.18C138.681 23.18 138.588 23.1333 138.611 23.04L139.976 17.72C139.976 17.6733 140.023 17.65 140.116 17.65C140.186 17.65 140.245 17.6733 140.291 17.72C140.361 17.7433 140.385 17.7667 140.361 17.79C140.338 17.8833 140.326 18.0117 140.326 18.175C140.326 18.5483 140.501 18.735 140.851 18.735C141.061 18.735 141.411 18.6533 141.901 18.49C142.858 18.1867 143.71 18.035 144.456 18.035C145.646 18.035 146.58 18.3617 147.256 19.015C147.956 19.645 148.306 20.4733 148.306 21.5C148.306 22.3167 148.038 23.1333 147.501 23.95C146.988 24.7667 146.218 25.6417 145.191 26.575C144.188 27.485 142.776 28.64 140.956 30.04C140.863 30.11 140.828 30.1683 140.851 30.215C140.898 30.2617 140.98 30.285 141.096 30.285C143.663 30.285 145.448 30.25 146.451 30.18C147.455 30.11 148.178 29.9233 148.621 29.62C149.065 29.3167 149.368 28.78 149.531 28.01C149.531 27.9633 149.59 27.94 149.706 27.94C149.87 27.94 149.951 27.975 149.951 28.045L149.426 31.615C149.426 31.7083 149.391 31.8017 149.321 31.895C149.275 31.965 149.205 32 149.111 32H138.436C138.32 32 138.226 31.9417 138.156 31.825C138.086 31.685 138.098 31.5683 138.191 31.475ZM161.059 21.325C161.059 20.6017 160.989 20.0767 160.849 19.75C160.709 19.4233 160.429 19.2017 160.009 19.085C159.612 18.9683 158.959 18.91 158.049 18.91C157.979 18.91 157.944 18.84 157.944 18.7C157.944 18.56 157.979 18.49 158.049 18.49C158.725 18.49 159.262 18.5017 159.659 18.525L162.039 18.56L164.384 18.525C164.78 18.5017 165.329 18.49 166.029 18.49C166.099 18.49 166.134 18.56 166.134 18.7C166.134 18.84 166.099 18.91 166.029 18.91C165.165 18.91 164.524 18.98 164.104 19.12C163.707 19.2367 163.427 19.4583 163.264 19.785C163.1 20.1117 163.019 20.625 163.019 21.325V29.165C163.019 29.8883 163.089 30.4133 163.229 30.74C163.369 31.0667 163.637 31.2883 164.034 31.405C164.454 31.5217 165.119 31.58 166.029 31.58C166.099 31.58 166.134 31.65 166.134 31.79C166.134 31.93 166.099 32 166.029 32C165.352 32 164.815 31.9883 164.419 31.965L162.039 31.93L159.694 31.965C159.297 31.9883 158.749 32 158.049 32C157.979 32 157.944 31.93 157.944 31.79C157.944 31.65 157.979 31.58 158.049 31.58C158.912 31.58 159.542 31.5217 159.939 31.405C160.359 31.265 160.65 31.0317 160.814 30.705C160.977 30.3783 161.059 29.865 161.059 29.165V21.325ZM187.743 34.66C187.696 34.66 187.649 34.5783 187.603 34.415C187.579 34.275 187.568 34.1117 187.568 33.925C187.568 33.7617 187.579 33.61 187.603 33.47C187.626 33.33 187.661 33.26 187.708 33.26H199.293C199.339 33.26 199.374 33.33 199.398 33.47C199.444 33.6333 199.468 33.7967 199.468 33.96C199.468 34.1233 199.444 34.275 199.398 34.415C199.374 34.5783 199.339 34.66 199.293 34.66H187.743ZM229.001 10.125C229.048 10.125 229.071 10.195 229.071 10.335C229.071 10.475 229.048 10.545 229.001 10.545C228.231 10.545 227.671 10.615 227.321 10.755C226.971 10.895 226.726 11.14 226.586 11.49C226.47 11.8167 226.411 12.33 226.411 13.03V32.98C226.411 35.29 225.875 37.1217 224.801 38.475C223.728 39.8517 222.176 40.54 220.146 40.54C219.353 40.54 218.735 40.4 218.291 40.12C217.825 39.8633 217.591 39.5017 217.591 39.035C217.591 38.685 217.696 38.405 217.906 38.195C218.116 37.985 218.408 37.88 218.781 37.88C219.178 37.88 219.481 37.9617 219.691 38.125C219.901 38.3117 220.123 38.58 220.356 38.93C220.566 39.2567 220.753 39.49 220.916 39.63C221.08 39.77 221.313 39.84 221.616 39.84C222.456 39.84 223.075 39.35 223.471 38.37C223.891 37.4133 224.101 35.8617 224.101 33.715V12.96C224.101 12.26 224.02 11.7467 223.856 11.42C223.693 11.0933 223.366 10.8717 222.876 10.755C222.41 10.615 221.675 10.545 220.671 10.545C220.625 10.545 220.601 10.475 220.601 10.335C220.601 10.195 220.625 10.125 220.671 10.125L222.701 10.16C223.775 10.2067 224.615 10.23 225.221 10.23C225.828 10.23 226.575 10.2067 227.461 10.16L229.001 10.125ZM252.775 30.005C252.869 30.005 252.927 30.0633 252.95 30.18C252.997 30.2733 252.974 30.3433 252.88 30.39L248.785 32.315L248.645 32.35C248.412 32.35 248.19 32.0817 247.98 31.545C247.77 31.0083 247.665 30.3083 247.665 29.445V29.305C246.755 30.3317 245.845 31.09 244.935 31.58C244.025 32.0467 243.08 32.28 242.1 32.28C240.934 32.28 240.024 31.9183 239.37 31.195C238.717 30.4483 238.39 29.375 238.39 27.975V22.62C238.39 21.71 238.309 21.0567 238.145 20.66C237.982 20.24 237.714 20.03 237.34 20.03C237.014 20.03 236.617 20.1467 236.15 20.38H236.115C236.022 20.38 235.952 20.3217 235.905 20.205C235.859 20.065 235.882 19.9833 235.975 19.96L239.86 18.21L240 18.175C240.07 18.175 240.14 18.21 240.21 18.28C240.304 18.3267 240.35 18.385 240.35 18.455V26.82C240.35 29.5267 241.33 30.88 243.29 30.88C244.037 30.88 244.795 30.6933 245.565 30.32C246.335 29.9233 247.035 29.3867 247.665 28.71V22.62C247.665 21.6867 247.584 21.0217 247.42 20.625C247.28 20.2283 247.012 20.03 246.615 20.03C246.289 20.03 245.892 20.1467 245.425 20.38H245.39C245.297 20.38 245.227 20.3217 245.18 20.205C245.157 20.065 245.192 19.9833 245.285 19.96L249.17 18.21L249.275 18.175C249.345 18.175 249.415 18.21 249.485 18.28C249.579 18.3267 249.625 18.385 249.625 18.455V28.255C249.625 29.0483 249.719 29.62 249.905 29.97C250.092 30.32 250.407 30.495 250.85 30.495C251.247 30.495 251.865 30.3317 252.705 30.005H252.775ZM259.641 32C259.571 32 259.536 31.93 259.536 31.79C259.536 31.65 259.571 31.58 259.641 31.58C260.271 31.58 260.738 31.5217 261.041 31.405C261.345 31.265 261.555 31.0317 261.671 30.705C261.788 30.355 261.846 29.8417 261.846 29.165V11.07C261.846 10.23 261.765 9.62333 261.601 9.25C261.438 8.87667 261.146 8.69 260.726 8.69C260.376 8.69 259.84 8.85333 259.116 9.18H259.046C258.976 9.18 258.918 9.12167 258.871 9.005C258.848 8.88833 258.871 8.81833 258.941 8.795L263.421 6.66C263.468 6.63667 263.526 6.625 263.596 6.625C263.643 6.625 263.701 6.66 263.771 6.73C263.865 6.77667 263.911 6.835 263.911 6.905V29.165C263.911 29.8417 263.958 30.3433 264.051 30.67C264.168 30.9967 264.378 31.23 264.681 31.37C264.985 31.51 265.451 31.58 266.081 31.58C266.151 31.58 266.186 31.65 266.186 31.79C266.186 31.93 266.151 32 266.081 32C265.568 32 265.148 31.9883 264.821 31.965L262.861 31.93L260.971 31.965C260.645 31.9883 260.201 32 259.641 32ZM287.263 31.475C289.316 29.795 290.903 28.43 292.023 27.38C293.143 26.3067 293.948 25.35 294.438 24.51C294.928 23.67 295.173 22.83 295.173 21.99C295.173 21.0567 294.881 20.2983 294.298 19.715C293.738 19.1083 293.003 18.805 292.093 18.805C290.249 18.805 288.919 20.2517 288.103 23.145C288.103 23.1683 288.056 23.18 287.963 23.18C287.753 23.18 287.659 23.1333 287.683 23.04L289.048 17.72C289.048 17.6733 289.094 17.65 289.188 17.65C289.258 17.65 289.316 17.6733 289.363 17.72C289.433 17.7433 289.456 17.7667 289.433 17.79C289.409 17.8833 289.398 18.0117 289.398 18.175C289.398 18.5483 289.573 18.735 289.923 18.735C290.133 18.735 290.483 18.6533 290.973 18.49C291.929 18.1867 292.781 18.035 293.528 18.035C294.718 18.035 295.651 18.3617 296.328 19.015C297.028 19.645 297.378 20.4733 297.378 21.5C297.378 22.3167 297.109 23.1333 296.573 23.95C296.059 24.7667 295.289 25.6417 294.263 26.575C293.259 27.485 291.848 28.64 290.028 30.04C289.934 30.11 289.899 30.1683 289.923 30.215C289.969 30.2617 290.051 30.285 290.168 30.285C292.734 30.285 294.519 30.25 295.523 30.18C296.526 30.11 297.249 29.9233 297.693 29.62C298.136 29.3167 298.439 28.78 298.603 28.01C298.603 27.9633 298.661 27.94 298.778 27.94C298.941 27.94 299.023 27.975 299.023 28.045L298.498 31.615C298.498 31.7083 298.463 31.8017 298.393 31.895C298.346 31.965 298.276 32 298.183 32H287.508C287.391 32 287.298 31.9417 287.228 31.825C287.158 31.685 287.169 31.5683 287.263 31.475ZM313.7 32.455C312.323 32.455 311.086 32.14 309.99 31.51C308.916 30.88 308.065 30.0167 307.435 28.92C306.828 27.8 306.525 26.54 306.525 25.14C306.525 23.7633 306.828 22.5383 307.435 21.465C308.065 20.3917 308.928 19.5517 310.025 18.945C311.121 18.3383 312.358 18.035 313.735 18.035C315.088 18.035 316.301 18.35 317.375 18.98C318.448 19.5867 319.276 20.4383 319.86 21.535C320.466 22.6317 320.77 23.8683 320.77 25.245C320.77 26.6217 320.466 27.8583 319.86 28.955C319.253 30.0517 318.413 30.915 317.34 31.545C316.266 32.1517 315.053 32.455 313.7 32.455ZM314.085 31.965C315.485 31.965 316.535 31.405 317.235 30.285C317.958 29.1417 318.32 27.6017 318.32 25.665C318.32 23.3317 317.841 21.5583 316.885 20.345C315.951 19.1317 314.773 18.525 313.35 18.525C311.973 18.525 310.888 19.1083 310.095 20.275C309.325 21.4417 308.94 22.97 308.94 24.86C308.94 26.9367 309.406 28.64 310.34 29.97C311.273 31.3 312.521 31.965 314.085 31.965ZM328.524 31.475C330.578 29.795 332.164 28.43 333.284 27.38C334.404 26.3067 335.209 25.35 335.699 24.51C336.189 23.67 336.434 22.83 336.434 21.99C336.434 21.0567 336.143 20.2983 335.559 19.715C334.999 19.1083 334.264 18.805 333.354 18.805C331.511 18.805 330.181 20.2517 329.364 23.145C329.364 23.1683 329.318 23.18 329.224 23.18C329.014 23.18 328.921 23.1333 328.944 23.04L330.309 17.72C330.309 17.6733 330.356 17.65 330.449 17.65C330.519 17.65 330.578 17.6733 330.624 17.72C330.694 17.7433 330.718 17.7667 330.694 17.79C330.671 17.8833 330.659 18.0117 330.659 18.175C330.659 18.5483 330.834 18.735 331.184 18.735C331.394 18.735 331.744 18.6533 332.234 18.49C333.191 18.1867 334.043 18.035 334.789 18.035C335.979 18.035 336.913 18.3617 337.589 19.015C338.289 19.645 338.639 20.4733 338.639 21.5C338.639 22.3167 338.371 23.1333 337.834 23.95C337.321 24.7667 336.551 25.6417 335.524 26.575C334.521 27.485 333.109 28.64 331.289 30.04C331.196 30.11 331.161 30.1683 331.184 30.215C331.231 30.2617 331.313 30.285 331.429 30.285C333.996 30.285 335.781 30.25 336.784 30.18C337.788 30.11 338.511 29.9233 338.954 29.62C339.398 29.3167 339.701 28.78 339.864 28.01C339.864 27.9633 339.923 27.94 340.039 27.94C340.203 27.94 340.284 27.975 340.284 28.045L339.759 31.615C339.759 31.7083 339.724 31.8017 339.654 31.895C339.608 31.965 339.538 32 339.444 32H328.769C328.653 32 328.559 31.9417 328.489 31.825C328.419 31.685 328.431 31.5683 328.524 31.475ZM347.857 31.475C349.91 29.795 351.497 28.43 352.617 27.38C353.737 26.3067 354.542 25.35 355.032 24.51C355.522 23.67 355.767 22.83 355.767 21.99C355.767 21.0567 355.475 20.2983 354.892 19.715C354.332 19.1083 353.597 18.805 352.687 18.805C350.843 18.805 349.513 20.2517 348.697 23.145C348.697 23.1683 348.65 23.18 348.557 23.18C348.347 23.18 348.253 23.1333 348.277 23.04L349.642 17.72C349.642 17.6733 349.688 17.65 349.782 17.65C349.852 17.65 349.91 17.6733 349.957 17.72C350.027 17.7433 350.05 17.7667 350.027 17.79C350.003 17.8833 349.992 18.0117 349.992 18.175C349.992 18.5483 350.167 18.735 350.517 18.735C350.727 18.735 351.077 18.6533 351.567 18.49C352.523 18.1867 353.375 18.035 354.122 18.035C355.312 18.035 356.245 18.3617 356.922 19.015C357.622 19.645 357.972 20.4733 357.972 21.5C357.972 22.3167 357.703 23.1333 357.167 23.95C356.653 24.7667 355.883 25.6417 354.857 26.575C353.853 27.485 352.442 28.64 350.622 30.04C350.528 30.11 350.493 30.1683 350.517 30.215C350.563 30.2617 350.645 30.285 350.762 30.285C353.328 30.285 355.113 30.25 356.117 30.18C357.12 30.11 357.843 29.9233 358.287 29.62C358.73 29.3167 359.033 28.78 359.197 28.01C359.197 27.9633 359.255 27.94 359.372 27.94C359.535 27.94 359.617 27.975 359.617 28.045L359.092 31.615C359.092 31.7083 359.057 31.8017 358.987 31.895C358.94 31.965 358.87 32 358.777 32H348.102C347.985 32 347.892 31.9417 347.822 31.825C347.752 31.685 347.763 31.5683 347.857 31.475Z" fill="black"/>
</svg>
