<svg xmlns="http://www.w3.org/2000/svg" width="256" height="55" fill="none" xmlns:v="https://vecta.io/nano"><path d="M27.34 28.64c0-.08.08-.12.24-.12.12 0 .22.04.3.12.12.04.18.08.18.12-.4 3.04-.6 5.82-.6 8.34 0 .32-.06.56-.18.72-.12.12-.36.18-.72.18H.52c-.12 0-.18-.12-.18-.36s.06-.36.18-.36c1.36 0 2.34-.1 2.94-.3.64-.2 1.06-.58 1.26-1.14.24-.6.36-1.5.36-2.7V5.36c0-1.2-.12-2.08-.36-2.64-.2-.56-.62-.94-1.26-1.14-.64-.24-1.62-.36-2.94-.36C.4 1.22.34 1.1.34.86S.4.5.52.5h24.96c.4 0 .6.18.6.54l.12 7.8c0 .08-.12.14-.36.18-.2.04-.32 0-.36-.12-.96-4.56-3.74-6.84-8.34-6.84h-2.4c-1.44 0-2.46.26-3.06.78s-.9 1.4-.9 2.64v12.24h5.76c4.4 0 6.6-1.48 6.6-4.44 0-.12.1-.18.3-.18.24 0 .36.06.36.18l-.06 5.22.06 2.82c.08 1.28.12 2.32.12 3.12 0 .08-.12.12-.36.12s-.36-.04-.36-.12c0-3.44-2.24-5.16-6.72-5.16h-5.7V32.9c0 1.32.24 2.24.72 2.76.52.52 1.42.78 2.7.78h2.94c5.36 0 8.76-2.6 10.2-7.8zm29.452 8.64c.12 0 .18.12.18.36s-.06.36-.18.36l-2.1-.06c-.48-.04-1.18-.06-2.1-.06l-4.14.06c-.6.04-1.44.06-2.52.06-.12 0-.18-.12-.18-.36s.06-.36.18-.36c1.04 0 1.56-.28 1.56-.84 0-.32-.22-.82-.66-1.5l-4.14-6.24-2.58 3.78c-.88 1.24-1.32 2.28-1.32 3.12 0 1.12.96 1.68 2.88 1.68.12 0 .18.12.18.36s-.06.36-.18.36c-1.08 0-1.88-.02-2.4-.06l-3.6-.06-2.4.06c-.4.04-1.08.06-2.04.06-.12 0-.18-.12-.18-.36s.06-.36.18-.36c1.16 0 2.4-.46 3.72-1.38 1.36-.92 2.64-2.2 3.84-3.84l3.18-4.38-5.22-7.86c-.88-1.36-1.76-2.4-2.64-3.12-.88-.76-1.68-1.14-2.4-1.14-.08 0-.12-.12-.12-.36s.04-.36.12-.36c.84 0 1.46.02 1.86.06l1.86.06 4.02-.06c.64-.04 1.52-.06 2.64-.06.08 0 .12.12.12.36s-.04.36-.12.36c-1.04 0-1.56.28-1.56.84 0 .4.22.9.66 1.5l3.72 5.64 2.1-3.18c.92-1.36 1.38-2.4 1.38-3.12 0-1.12-.98-1.68-2.94-1.68-.08 0-.12-.12-.12-.36s.04-.36.12-.36c1.08 0 1.9.02 2.46.06l3.6.06 2.4-.06c.4-.04 1.08-.06 2.04-.06.12 0 .18.12.18.36s-.06.36-.18.36c-1.16 0-2.42.46-3.78 1.38-1.32.92-2.58 2.2-3.78 3.84l-2.82 3.78 5.64 8.46c.96 1.44 1.94 2.52 2.94 3.24 1 .68 1.88 1.02 2.64 1.02zm16.046 1.5a17.53 17.53 0 0 1-5.58-.9v11.76c0 1.2.14 2.08.42 2.64s.8.94 1.56 1.14c.76.24 1.96.36 3.6.36.08 0 .12.12.12.36s-.04.36-.12.36c-1.44 0-2.56-.02-3.36-.06l-4.68-.06-3.42.06c-.6.04-1.42.06-2.46.06-.12 0-.18-.12-.18-.36s.06-.36.18-.36c1 0 1.74-.12 2.22-.36.48-.2.8-.58.96-1.14.2-.56.3-1.44.3-2.64v-27.9c0-1.32-.16-2.28-.48-2.88-.28-.6-.78-.9-1.5-.9-.68 0-1.64.28-2.88.84h-.12c-.16 0-.28-.08-.36-.24-.08-.2-.08-.34 0-.42l7.92-3.78c.08-.04.2-.06.36-.06.44 0 .84.38 1.2 1.14.36.72.58 1.72.66 3 3.08-2.92 6.2-4.38 9.36-4.38a8.81 8.81 0 0 1 4.68 1.32c1.44.88 2.58 2.16 3.42 3.84.88 1.68 1.32 3.64 1.32 5.88 0 3.16-.68 5.76-2.04 7.8-1.32 2.04-2.98 3.54-4.98 4.5-2 .92-4.04 1.38-6.12 1.38zm.24-21.72c-2.04 0-3.98.86-5.82 2.58v.12V34.1c.96 1.04 1.96 1.84 3 2.4 1.08.56 2.38.84 3.9.84 2 0 3.58-.86 4.74-2.58 1.16-1.76 1.74-4.36 1.74-7.8 0-3.16-.72-5.6-2.16-7.32s-3.24-2.58-5.4-2.58zm37.603 17.16c.08 0 .16.08.24.24.12.16.14.28.06.36-1.48 1.36-2.96 2.36-4.44 3-1.48.6-3.08.9-4.8.9-2.44 0-4.56-.54-6.36-1.62-1.76-1.08-3.12-2.5-4.08-4.26a12.12 12.12 0 0 1-1.38-5.7c0-2.36.58-4.52 1.74-6.48s2.74-3.5 4.74-4.62c2.04-1.16 4.3-1.74 6.78-1.74 2.4 0 4.26.58 5.58 1.74s1.98 2.88 1.98 5.16c0 1.16-.24 1.74-.72 1.74l-14.64.06c-.04.36-.06.9-.06 1.62 0 3.52.8 6.32 2.4 8.4 1.64 2.04 3.96 3.06 6.96 3.06 1.12 0 2.06-.12 2.82-.36.76-.28 1.78-.76 3.06-1.44l.12-.06zm-9.66-18.72c-1.48 0-2.7.58-3.66 1.74-.92 1.12-1.54 2.68-1.86 4.68l9.6-.18c-.08-4.16-1.44-6.24-4.08-6.24zm29.283-1.26c.92 0 1.8.3 2.64.9s1.26 1.32 1.26 2.16c0 .76-.24 1.38-.72 1.86-.44.48-1.06.72-1.86.72-.52 0-.96-.1-1.32-.3-.32-.24-.66-.56-1.02-.96-.36-.36-.68-.62-.96-.78-.28-.2-.62-.3-1.02-.3-.44 0-.92.18-1.44.54-.48.32-1.24 1.02-2.28 2.1v12.96c0 1.12.16 1.98.48 2.58.32.56.86.96 1.62 1.2s1.88.36 3.36.36c.16 0 .24.12.24.36s-.08.36-.24.36c-1.32 0-2.38-.02-3.18-.06l-4.74-.06-3.48.06c-.56.04-1.34.06-2.34.06-.12 0-.18-.12-.18-.36s.06-.36.18-.36c1.36 0 2.26-.28 2.7-.84s.66-1.66.66-3.3V21.68c0-1.28-.16-2.22-.48-2.82-.28-.6-.76-.9-1.44-.9-.6 0-1.6.3-3 .9h-.06c-.16 0-.28-.1-.36-.3s-.06-.32.06-.36l7.86-3.84c.24-.08.38-.12.42-.12.4 0 .8.44 1.2 1.32.4.84.64 1.96.72 3.36 1.56-1.76 2.86-2.98 3.9-3.66s1.98-1.02 2.82-1.02zm13.141-6.3c-1.04 0-1.86-.28-2.46-.84-.56-.56-.84-1.36-.84-2.4 0-1 .28-1.76.84-2.28.6-.56 1.42-.84 2.46-.84 1 0 1.78.28 2.34.84.56.52.84 1.28.84 2.28 0 1.04-.28 1.84-.84 2.4-.52.56-1.3.84-2.34.84zM137.925 38c-.12 0-.18-.12-.18-.36s.06-.36.18-.36c1.36 0 2.26-.28 2.7-.84s.66-1.66.66-3.3V22.22c0-1.36-.14-2.34-.42-2.94a1.46 1.46 0 0 0-1.44-.96c-.6 0-1.38.24-2.34.72h-.06c-.16 0-.28-.1-.36-.3s-.06-.34.06-.42l8.64-4.02.18-.06c.16 0 .32.1.48.3.2.16.3.3.3.42v1.26c-.08 1.68-.12 3.66-.12 5.94v10.98c0 1.64.22 2.74.66 3.3.48.56 1.4.84 2.76.84.12 0 .18.12.18.36s-.06.36-.18.36c-1 0-1.8-.02-2.4-.06l-3.48-.06-3.48.06c-.56.04-1.34.06-2.34.06zm36.038-3.78c.08 0 .16.08.24.24.12.16.14.28.06.36-1.48 1.36-2.96 2.36-4.44 3-1.48.6-3.08.9-4.8.9-2.44 0-4.56-.54-6.36-1.62-1.76-1.08-3.12-2.5-4.08-4.26a12.12 12.12 0 0 1-1.38-5.7c0-2.36.58-4.52 1.74-6.48s2.74-3.5 4.74-4.62c2.04-1.16 4.3-1.74 6.78-1.74 2.4 0 4.26.58 5.58 1.74s1.98 2.88 1.98 5.16c0 1.16-.24 1.74-.72 1.74l-14.64.06c-.04.36-.06.9-.06 1.62 0 3.52.8 6.32 2.4 8.4 1.64 2.04 3.96 3.06 6.96 3.06 1.12 0 2.06-.12 2.82-.36.76-.28 1.78-.76 3.06-1.44l.12-.06zm-9.66-18.72c-1.48 0-2.7.58-3.66 1.74-.92 1.12-1.54 2.68-1.86 4.68l9.6-.18c-.08-4.16-1.44-6.24-4.08-6.24zm42.062 21.78c.12 0 .18.12.18.36s-.06.36-.18.36c-1 0-1.78-.02-2.34-.06l-3.48-.06-3.42.06c-.6.04-1.4.06-2.4.06-.12 0-.18-.12-.18-.36s.06-.36.18-.36c1.36 0 2.26-.28 2.7-.84s.66-1.66.66-3.3v-9c0-2.24-.42-3.88-1.26-4.92-.8-1.08-2.08-1.62-3.84-1.62-1.04 0-2.1.24-3.18.72s-2.06 1.12-2.94 1.92v12.9c0 1.64.22 2.74.66 3.3s1.34.84 2.7.84c.12 0 .18.12.18.36s-.06.36-.18.36c-1 0-1.78-.02-2.34-.06l-3.48-.06-3.48.06c-.56.04-1.34.06-2.34.06-.12 0-.18-.12-.18-.36s.06-.36.18-.36c1.36 0 2.26-.28 2.7-.84s.66-1.66.66-3.3V21.68c0-1.28-.16-2.22-.48-2.82-.28-.6-.76-.9-1.44-.9-.6 0-1.6.3-3 .9h-.06c-.16 0-.28-.1-.36-.3s-.06-.32.06-.36l7.86-3.84c.24-.08.38-.12.42-.12.4 0 .8.46 1.2 1.38.44.88.68 2.04.72 3.48 2.8-3.32 5.84-4.98 9.12-4.98 2.2 0 3.92.68 5.16 2.04 1.24 1.32 1.86 3.12 1.86 5.4v11.58c0 1.64.22 2.74.66 3.3s1.34.84 2.7.84zm15.146 1.44c-2.6 0-4.82-.56-6.66-1.68-1.8-1.16-3.14-2.64-4.02-4.44-.88-1.84-1.32-3.76-1.32-5.76 0-2.52.68-4.72 2.04-6.6 1.36-1.92 3.1-3.38 5.22-4.38 2.16-1.04 4.34-1.56 6.54-1.56 1.88 0 3.58.38 5.1 1.14s2.28 1.78 2.28 3.06c0 .68-.26 1.28-.78 1.8-.52.48-1.24.72-2.16.72-1.52 0-2.62-.9-3.3-2.7-.4-1-.82-1.7-1.26-2.1-.44-.44-1.14-.66-2.1-.66-1.88 0-3.38.86-4.5 2.58-1.08 1.68-1.62 3.94-1.62 6.78 0 3.32.76 6.02 2.28 8.1 1.56 2.04 3.98 3.06 7.26 3.06 1.12 0 2.12-.14 3-.42s1.84-.72 2.88-1.32h.06c.12 0 .22.06.3.18.12.12.14.22.06.3-1.48 1.32-2.94 2.3-4.38 2.94s-3.08.96-4.92.96zm33.604-4.5c.08 0 .16.08.24.24.12.16.14.28.06.36-1.48 1.36-2.96 2.36-4.44 3-1.48.6-3.08.9-4.8.9-2.44 0-4.56-.54-6.36-1.62-1.76-1.08-3.12-2.5-4.08-4.26a12.12 12.12 0 0 1-1.38-5.7c0-2.36.58-4.52 1.74-6.48s2.74-3.5 4.74-4.62c2.04-1.16 4.3-1.74 6.78-1.74 2.4 0 4.26.58 5.58 1.74s1.98 2.88 1.98 5.16c0 1.16-.24 1.74-.72 1.74l-14.64.06c-.04.36-.06.9-.06 1.62 0 3.52.8 6.32 2.4 8.4 1.64 2.04 3.96 3.06 6.96 3.06 1.12 0 2.06-.12 2.82-.36.76-.28 1.78-.76 3.06-1.44l.12-.06zm-9.66-18.72c-1.48 0-2.7.58-3.66 1.74-.92 1.12-1.54 2.68-1.86 4.68l9.6-.18c-.08-4.16-1.44-6.24-4.08-6.24z" fill="#4971ff"/></svg>