<svg width="443" height="101" viewBox="0 0 443 101" fill="none" xmlns="http://www.w3.org/2000/svg">
<path d="M17.7967 43.715C19.7101 43.925 21.2384 44.5667 22.3817 45.64C23.5251 46.7133 24.0967 48.0433 24.0967 49.63C24.0967 50.8433 23.7584 51.9517 23.0817 52.955C22.4284 53.935 21.5067 54.7167 20.3167 55.3C19.1501 55.86 17.8434 56.14 16.3967 56.14C15.7201 56.14 14.9384 56.105 14.0517 56.035C13.7484 56.0117 13.3634 55.9883 12.8967 55.965C12.4301 55.9417 11.9051 55.93 11.3217 55.93L8.80172 55.965C8.35839 55.9883 7.75172 56 6.98172 56C6.91172 56 6.87672 55.93 6.87672 55.79C6.87672 55.65 6.91172 55.58 6.98172 55.58C7.72839 55.58 8.28839 55.5217 8.66172 55.405C9.03505 55.265 9.29172 55.0317 9.43172 54.705C9.59505 54.3783 9.67672 53.865 9.67672 53.165V36.96C9.67672 36.2833 9.59505 35.7817 9.43172 35.455C9.29172 35.105 9.03505 34.8717 8.66172 34.755C8.31172 34.615 7.76339 34.545 7.01672 34.545C6.97005 34.545 6.94672 34.475 6.94672 34.335C6.94672 34.195 6.97005 34.125 7.01672 34.125L8.83672 34.16C9.86339 34.2067 10.6917 34.23 11.3217 34.23C11.9751 34.23 12.6634 34.195 13.3867 34.125C13.6434 34.1017 13.9467 34.0783 14.2967 34.055C14.6701 34.0317 15.0901 34.02 15.5567 34.02C17.6334 34.02 19.2201 34.4167 20.3167 35.21C21.4134 36.0033 21.9617 37.1233 21.9617 38.57C21.9617 39.69 21.6001 40.705 20.8767 41.615C20.1534 42.5017 19.1267 43.2017 17.7967 43.715ZM14.9617 34.72C14.2151 34.72 13.7017 34.8717 13.4217 35.175C13.1651 35.4783 13.0367 36.0967 13.0367 37.03V43.68L14.5067 43.715C15.8834 43.715 16.9217 43.2717 17.6217 42.385C18.3217 41.475 18.6717 40.3083 18.6717 38.885C18.6717 37.555 18.3567 36.5283 17.7267 35.805C17.0967 35.0817 16.1751 34.72 14.9617 34.72ZM15.8367 55.335C18.9867 55.335 20.5617 53.7133 20.5617 50.47C20.5617 48.6967 20.0951 47.2733 19.1617 46.2C18.2517 45.1267 16.9101 44.59 15.1367 44.59C14.2967 44.59 13.5967 44.6133 13.0367 44.66V53.165C13.0367 53.7017 13.1067 54.1217 13.2467 54.425C13.3867 54.7283 13.6551 54.9617 14.0517 55.125C14.4484 55.265 15.0434 55.335 15.8367 55.335ZM45.797 54.11C45.8903 54.11 45.9487 54.1683 45.972 54.285C45.9953 54.3783 45.9603 54.4483 45.867 54.495L42.262 56.21C42.1687 56.2567 42.0637 56.28 41.947 56.28C41.597 56.28 41.2587 56.0817 40.932 55.685C40.6287 55.265 40.4303 54.7167 40.337 54.04L38.727 55.16C38.167 55.5567 37.6537 55.8367 37.187 56C36.7437 56.1633 36.242 56.245 35.682 56.245C34.7253 56.245 33.9903 56.0233 33.477 55.58C32.987 55.1133 32.742 54.5067 32.742 53.76C32.742 53.13 32.9053 52.6167 33.232 52.22C33.582 51.8233 34.0137 51.5083 34.527 51.275C35.0637 51.0183 35.8453 50.7033 36.872 50.33L40.267 49.07V46.97C40.267 45.5233 40.1153 44.4733 39.812 43.82C39.532 43.1433 39.077 42.805 38.447 42.805C37.677 42.805 37.117 43.0967 36.767 43.68C36.4403 44.24 36.242 44.87 36.172 45.57C36.032 46.76 35.437 47.355 34.387 47.355C33.8737 47.355 33.4887 47.2383 33.232 47.005C32.9987 46.7717 32.882 46.48 32.882 46.13C32.882 45.4767 33.267 44.8467 34.037 44.24C34.8303 43.61 35.7753 43.1083 36.872 42.735C37.992 42.3383 38.972 42.14 39.812 42.14C40.8153 42.14 41.6087 42.455 42.192 43.085C42.7987 43.715 43.102 44.66 43.102 45.92V52.22C43.102 52.9433 43.2187 53.4917 43.452 53.865C43.6853 54.2383 44.0237 54.425 44.467 54.425C44.817 54.425 45.237 54.32 45.727 54.11H45.797ZM40.267 53.48V53.13V49.665L38.167 50.54C37.5603 50.7733 37.0587 51.0533 36.662 51.38C36.2887 51.6833 36.102 52.1267 36.102 52.71C36.102 53.27 36.277 53.725 36.627 54.075C37.0003 54.4017 37.4437 54.565 37.957 54.565C38.377 54.565 38.8203 54.425 39.287 54.145L40.267 53.48ZM52.4093 56C52.3393 56 52.3043 55.93 52.3043 55.79C52.3043 55.65 52.3393 55.58 52.4093 55.58C53.1793 55.58 53.7043 55.4167 53.9843 55.09C54.2643 54.74 54.4043 54.0983 54.4043 53.165V35.28C54.4043 34.4633 54.3226 33.88 54.1593 33.53C54.0193 33.1567 53.7509 32.97 53.3543 32.97C53.0043 32.97 52.5376 33.11 51.9543 33.39H51.9193C51.8259 33.39 51.7559 33.3317 51.7093 33.215C51.6626 33.0983 51.6626 33.0167 51.7093 32.97L56.6443 30.66L56.7843 30.625C56.8776 30.625 56.9826 30.6717 57.0993 30.765C57.2393 30.8583 57.3093 30.94 57.3093 31.01V53.165C57.3093 54.1217 57.4376 54.7633 57.6943 55.09C57.9509 55.4167 58.4759 55.58 59.2693 55.58C59.3393 55.58 59.3743 55.65 59.3743 55.79C59.3743 55.93 59.3393 56 59.2693 56C58.7093 56 58.2543 55.9883 57.9043 55.965L55.8393 55.93L53.8093 55.965C53.4593 55.9883 52.9926 56 52.4093 56ZM73.852 56.455C72.452 56.455 71.2153 56.1283 70.142 55.475C69.0686 54.7983 68.2403 53.9 67.657 52.78C67.0736 51.6367 66.782 50.4 66.782 49.07C66.782 47.5533 67.1553 46.27 67.902 45.22C68.672 44.1467 69.6403 43.3533 70.807 42.84C71.997 42.3033 73.2103 42.035 74.447 42.035C75.8703 42.035 77.107 42.3733 78.157 43.05C79.2303 43.7267 80.047 44.625 80.607 45.745C81.167 46.8417 81.447 48.02 81.447 49.28C81.447 50.68 81.097 51.9283 80.397 53.025C79.7203 54.1217 78.7986 54.9733 77.632 55.58C76.4653 56.1633 75.2053 56.455 73.852 56.455ZM74.902 55.755C75.9286 55.755 76.7103 55.3 77.247 54.39C77.807 53.48 78.087 52.15 78.087 50.4C78.087 48.8367 77.8653 47.4717 77.422 46.305C77.002 45.1383 76.4186 44.2517 75.672 43.645C74.9486 43.0383 74.1553 42.735 73.292 42.735C72.242 42.735 71.4486 43.1667 70.912 44.03C70.3753 44.8933 70.107 46.165 70.107 47.845C70.107 49.3617 70.3053 50.7267 70.702 51.94C71.122 53.13 71.6936 54.0633 72.417 54.74C73.1636 55.4167 73.992 55.755 74.902 55.755ZM96.1234 56.455C94.7234 56.455 93.4868 56.1283 92.4134 55.475C91.3401 54.7983 90.5118 53.9 89.9284 52.78C89.3451 51.6367 89.0534 50.4 89.0534 49.07C89.0534 47.5533 89.4268 46.27 90.1734 45.22C90.9434 44.1467 91.9118 43.3533 93.0784 42.84C94.2684 42.3033 95.4818 42.035 96.7184 42.035C98.1418 42.035 99.3784 42.3733 100.428 43.05C101.502 43.7267 102.318 44.625 102.878 45.745C103.438 46.8417 103.718 48.02 103.718 49.28C103.718 50.68 103.368 51.9283 102.668 53.025C101.992 54.1217 101.07 54.9733 99.9034 55.58C98.7368 56.1633 97.4768 56.455 96.1234 56.455ZM97.1734 55.755C98.2001 55.755 98.9818 55.3 99.5184 54.39C100.078 53.48 100.358 52.15 100.358 50.4C100.358 48.8367 100.137 47.4717 99.6934 46.305C99.2734 45.1383 98.6901 44.2517 97.9434 43.645C97.2201 43.0383 96.4268 42.735 95.5634 42.735C94.5134 42.735 93.7201 43.1667 93.1834 44.03C92.6468 44.8933 92.3784 46.165 92.3784 47.845C92.3784 49.3617 92.5768 50.7267 92.9734 51.94C93.3934 53.13 93.9651 54.0633 94.6884 54.74C95.4351 55.4167 96.2634 55.755 97.1734 55.755ZM121.37 53.76C121.44 53.76 121.498 53.8067 121.545 53.9C121.615 53.9933 121.615 54.0633 121.545 54.11C120.682 54.9267 119.865 55.5217 119.095 55.895C118.325 56.245 117.508 56.42 116.645 56.42C115.642 56.42 114.79 56.1867 114.09 55.72C113.413 55.23 113.075 54.425 113.075 53.305V45.395C113.075 44.625 112.947 44.1117 112.69 43.855C112.457 43.5983 111.99 43.47 111.29 43.47C111.267 43.47 111.232 43.4467 111.185 43.4C111.162 43.33 111.15 43.26 111.15 43.19C111.15 43.12 111.162 43.0617 111.185 43.015C111.232 42.945 111.267 42.91 111.29 42.91C113.483 42.8167 114.86 41.8717 115.42 40.075C115.467 39.9817 115.56 39.935 115.7 39.935C115.863 39.935 115.945 39.9817 115.945 40.075V42.84C117.042 42.8167 118.593 42.7 120.6 42.49C120.647 42.49 120.693 42.5833 120.74 42.77C120.81 42.9333 120.845 43.12 120.845 43.33C120.845 43.54 120.798 43.75 120.705 43.96C120.635 44.17 120.553 44.2633 120.46 44.24C119.153 43.9367 117.648 43.75 115.945 43.68V52.15C115.945 53.06 116.167 53.7367 116.61 54.18C117.077 54.6 117.718 54.81 118.535 54.81C119.515 54.81 120.437 54.4717 121.3 53.795L121.37 53.76ZM146.405 37.835C146.405 38.6983 146.615 39.4683 147.035 40.145C147.478 40.7983 148.015 41.37 148.645 41.86C149.298 42.35 150.173 42.9333 151.27 43.61C152.46 44.3567 153.393 44.9983 154.07 45.535C154.77 46.0717 155.353 46.7367 155.82 47.53C156.31 48.3 156.555 49.21 156.555 50.26C156.555 51.45 156.24 52.5117 155.61 53.445C155.003 54.3783 154.128 55.1133 152.985 55.65C151.865 56.1633 150.582 56.42 149.135 56.42C148.155 56.42 147.14 56.2917 146.09 56.035C145.063 55.7783 144.282 55.4633 143.745 55.09C143.535 54.95 143.418 54.7283 143.395 54.425L143.185 49.105V49.07C143.185 48.9767 143.243 48.93 143.36 48.93C143.477 48.9067 143.547 48.9417 143.57 49.035C144.34 50.9717 145.215 52.5583 146.195 53.795C147.198 55.0317 148.47 55.65 150.01 55.65C151.013 55.65 151.853 55.3817 152.53 54.845C153.207 54.285 153.545 53.3633 153.545 52.08C153.545 51.0533 153.312 50.155 152.845 49.385C152.402 48.615 151.842 47.9733 151.165 47.46C150.512 46.9467 149.613 46.3167 148.47 45.57C147.35 44.8467 146.475 44.24 145.845 43.75C145.215 43.2367 144.678 42.6183 144.235 41.895C143.792 41.1483 143.57 40.285 143.57 39.305C143.57 38.0917 143.908 37.065 144.585 36.225C145.262 35.385 146.137 34.7667 147.21 34.37C148.307 33.95 149.45 33.74 150.64 33.74C151.433 33.74 152.227 33.8217 153.02 33.985C153.813 34.125 154.478 34.3117 155.015 34.545C155.365 34.685 155.54 34.9067 155.54 35.21L155.645 39.97C155.645 40.04 155.575 40.0867 155.435 40.11C155.318 40.1333 155.248 40.11 155.225 40.04C154.758 38.6167 154.128 37.3333 153.335 36.19C152.565 35.0233 151.398 34.44 149.835 34.44C148.785 34.44 147.945 34.7433 147.315 35.35C146.708 35.9567 146.405 36.785 146.405 37.835ZM174.854 53.76C174.924 53.76 174.983 53.8067 175.029 53.9C175.099 53.9933 175.099 54.0633 175.029 54.11C174.166 54.9267 173.349 55.5217 172.579 55.895C171.809 56.245 170.993 56.42 170.129 56.42C169.126 56.42 168.274 56.1867 167.574 55.72C166.898 55.23 166.559 54.425 166.559 53.305V45.395C166.559 44.625 166.431 44.1117 166.174 43.855C165.941 43.5983 165.474 43.47 164.774 43.47C164.751 43.47 164.716 43.4467 164.669 43.4C164.646 43.33 164.634 43.26 164.634 43.19C164.634 43.12 164.646 43.0617 164.669 43.015C164.716 42.945 164.751 42.91 164.774 42.91C166.968 42.8167 168.344 41.8717 168.904 40.075C168.951 39.9817 169.044 39.935 169.184 39.935C169.348 39.935 169.429 39.9817 169.429 40.075V42.84C170.526 42.8167 172.078 42.7 174.084 42.49C174.131 42.49 174.178 42.5833 174.224 42.77C174.294 42.9333 174.329 43.12 174.329 43.33C174.329 43.54 174.283 43.75 174.189 43.96C174.119 44.17 174.038 44.2633 173.944 44.24C172.638 43.9367 171.133 43.75 169.429 43.68V52.15C169.429 53.06 169.651 53.7367 170.094 54.18C170.561 54.6 171.203 54.81 172.019 54.81C172.999 54.81 173.921 54.4717 174.784 53.795L174.854 53.76ZM198.021 53.795C198.091 53.795 198.15 53.8533 198.196 53.97C198.243 54.0867 198.231 54.1683 198.161 54.215L193.576 56.42L193.436 56.455C193.203 56.455 192.993 56.1983 192.806 55.685C192.62 55.1483 192.515 54.4367 192.491 53.55C190.858 55.44 189.131 56.385 187.311 56.385C186.051 56.385 185.071 56 184.371 55.23C183.671 54.4367 183.321 53.3633 183.321 52.01V46.795C183.321 45.2083 182.96 44.415 182.236 44.415C182.003 44.415 181.676 44.5083 181.256 44.695H181.221C181.128 44.695 181.058 44.6367 181.011 44.52C180.965 44.4033 180.976 44.3217 181.046 44.275L185.491 42.21L185.631 42.175C185.725 42.175 185.83 42.2217 185.946 42.315C186.063 42.4083 186.121 42.49 186.121 42.56V50.505C186.121 51.8117 186.355 52.7917 186.821 53.445C187.311 54.075 188.046 54.39 189.026 54.39C189.61 54.39 190.205 54.25 190.811 53.97C191.441 53.69 192.001 53.305 192.491 52.815V46.795C192.491 45.9783 192.398 45.3833 192.211 45.01C192.048 44.6133 191.78 44.415 191.406 44.415C191.196 44.415 190.87 44.5083 190.426 44.695H190.391C190.298 44.695 190.228 44.6367 190.181 44.52C190.135 44.38 190.158 44.2983 190.251 44.275L194.661 42.21C194.708 42.1867 194.766 42.175 194.836 42.175C194.93 42.175 195.035 42.2217 195.151 42.315C195.268 42.4083 195.326 42.49 195.326 42.56V52.045C195.326 52.8617 195.408 53.4333 195.571 53.76C195.735 54.0867 196.003 54.25 196.376 54.25C196.656 54.25 197.181 54.11 197.951 53.83L198.021 53.795ZM221.12 53.83C221.19 53.83 221.249 53.8883 221.295 54.005C221.365 54.1217 221.365 54.1917 221.295 54.215L216.815 56.385L216.605 56.42C216.372 56.42 216.15 56.1867 215.94 55.72C215.754 55.2533 215.649 54.6233 215.625 53.83C214.785 54.6233 213.922 55.265 213.035 55.755C212.149 56.2217 211.18 56.455 210.13 56.455C209.127 56.455 208.205 56.1867 207.365 55.65C206.525 55.09 205.86 54.2967 205.37 53.27C204.88 52.2433 204.635 51.0417 204.635 49.665C204.635 47.9383 205.044 46.5033 205.86 45.36C206.677 44.2167 207.704 43.3767 208.94 42.84C210.177 42.3033 211.414 42.035 212.65 42.035C213.677 42.035 214.657 42.2217 215.59 42.595V35.28C215.59 34.4633 215.509 33.88 215.345 33.53C215.205 33.1567 214.937 32.97 214.54 32.97C214.284 32.97 213.817 33.11 213.14 33.39H213.07C212.977 33.39 212.907 33.3317 212.86 33.215C212.814 33.0983 212.814 33.0283 212.86 33.005L217.795 30.66L217.935 30.625C218.029 30.625 218.134 30.6717 218.25 30.765C218.367 30.8583 218.425 30.94 218.425 31.01V52.01C218.425 52.8267 218.507 53.41 218.67 53.76C218.834 54.0867 219.114 54.25 219.51 54.25C219.977 54.25 220.502 54.11 221.085 53.83H221.12ZM211.88 54.915C212.557 54.915 213.187 54.7633 213.77 54.46C214.377 54.1567 214.984 53.725 215.59 53.165V53.13V44.8C215.124 44.1467 214.599 43.6683 214.015 43.365C213.455 43.0383 212.779 42.875 211.985 42.875C210.655 42.875 209.617 43.3417 208.87 44.275C208.147 45.2083 207.785 46.6433 207.785 48.58C207.785 50.54 208.17 52.0917 208.94 53.235C209.71 54.355 210.69 54.915 211.88 54.915ZM231.366 38.465C230.76 38.465 230.281 38.3017 229.931 37.975C229.605 37.6483 229.441 37.1817 229.441 36.575C229.441 35.9917 229.605 35.5483 229.931 35.245C230.281 34.9183 230.76 34.755 231.366 34.755C231.95 34.755 232.405 34.9183 232.731 35.245C233.058 35.5483 233.221 35.9917 233.221 36.575C233.221 37.1817 233.058 37.6483 232.731 37.975C232.428 38.3017 231.973 38.465 231.366 38.465ZM228.146 56C228.076 56 228.041 55.93 228.041 55.79C228.041 55.65 228.076 55.58 228.146 55.58C228.94 55.58 229.465 55.4167 229.721 55.09C229.978 54.7633 230.106 54.1217 230.106 53.165V46.795C230.106 46.0017 230.025 45.43 229.861 45.08C229.698 44.7067 229.418 44.52 229.021 44.52C228.671 44.52 228.216 44.66 227.656 44.94H227.621C227.528 44.94 227.458 44.8817 227.411 44.765C227.365 44.6483 227.376 44.5667 227.446 44.52L232.486 42.175L232.591 42.14C232.685 42.14 232.778 42.1983 232.871 42.315C232.988 42.4083 233.046 42.49 233.046 42.56V43.295C233 44.275 232.976 45.43 232.976 46.76V53.165C232.976 54.1217 233.105 54.7633 233.361 55.09C233.641 55.4167 234.178 55.58 234.971 55.58C235.041 55.58 235.076 55.65 235.076 55.79C235.076 55.93 235.041 56 234.971 56C234.388 56 233.921 55.9883 233.571 55.965L231.541 55.93L229.511 55.965C229.185 55.9883 228.73 56 228.146 56ZM249.378 56.455C247.978 56.455 246.742 56.1283 245.668 55.475C244.595 54.7983 243.767 53.9 243.183 52.78C242.6 51.6367 242.308 50.4 242.308 49.07C242.308 47.5533 242.682 46.27 243.428 45.22C244.198 44.1467 245.167 43.3533 246.333 42.84C247.523 42.3033 248.737 42.035 249.973 42.035C251.397 42.035 252.633 42.3733 253.683 43.05C254.757 43.7267 255.573 44.625 256.133 45.745C256.693 46.8417 256.973 48.02 256.973 49.28C256.973 50.68 256.623 51.9283 255.923 53.025C255.247 54.1217 254.325 54.9733 253.158 55.58C251.992 56.1633 250.732 56.455 249.378 56.455ZM250.428 55.755C251.455 55.755 252.237 55.3 252.773 54.39C253.333 53.48 253.613 52.15 253.613 50.4C253.613 48.8367 253.392 47.4717 252.948 46.305C252.528 45.1383 251.945 44.2517 251.198 43.645C250.475 43.0383 249.682 42.735 248.818 42.735C247.768 42.735 246.975 43.1667 246.438 44.03C245.902 44.8933 245.633 46.165 245.633 47.845C245.633 49.3617 245.832 50.7267 246.228 51.94C246.648 53.13 247.22 54.0633 247.943 54.74C248.69 55.4167 249.518 55.755 250.428 55.755ZM19.3117 77.27C19.3117 77.33 19.2517 77.36 19.1317 77.36C19.0317 77.36 18.9817 77.33 18.9817 77.27C18.8617 76.19 18.4917 75.36 17.8717 74.78C17.2517 74.2 16.4417 73.91 15.4417 73.91H13.7917C12.8917 73.91 12.2817 74.04 11.9617 74.3C11.6417 74.54 11.4817 75.01 11.4817 75.71V82.28H14.3617C15.4417 82.28 16.2217 82.11 16.7017 81.77C17.1817 81.41 17.4217 80.86 17.4217 80.12C17.4217 80.08 17.4817 80.06 17.6017 80.06C17.7217 80.06 17.7817 80.08 17.7817 80.12L17.7517 82.61C17.7517 83.19 17.7617 83.63 17.7817 83.93L17.8117 85.43C17.8117 85.47 17.7517 85.49 17.6317 85.49C17.5117 85.49 17.4517 85.47 17.4517 85.43C17.4517 84.55 17.2017 83.92 16.7017 83.54C16.2017 83.14 15.3917 82.94 14.2717 82.94H11.4817V89.45C11.4817 90.09 11.5617 90.56 11.7217 90.86C11.9017 91.14 12.2317 91.34 12.7117 91.46C13.2117 91.58 13.9917 91.64 15.0517 91.64C15.0917 91.64 15.1117 91.7 15.1117 91.82C15.1117 91.94 15.0917 92 15.0517 92C14.2317 92 13.5917 91.99 13.1317 91.97L10.3417 91.94L8.30172 91.97C7.92172 91.99 7.40172 92 6.74172 92C6.68172 92 6.65172 91.94 6.65172 91.82C6.65172 91.7 6.68172 91.64 6.74172 91.64C7.48172 91.64 8.02172 91.59 8.36172 91.49C8.72172 91.39 8.96172 91.2 9.08172 90.92C9.22172 90.62 9.29172 90.17 9.29172 89.57V75.68C9.29172 75.08 9.23172 74.64 9.11172 74.36C8.99172 74.08 8.76172 73.89 8.42172 73.79C8.08172 73.67 7.54172 73.61 6.80172 73.61C6.76172 73.61 6.74172 73.55 6.74172 73.43C6.74172 73.31 6.76172 73.25 6.80172 73.25H18.9817C19.1617 73.25 19.2517 73.34 19.2517 73.52L19.3117 77.27ZM40.0333 90.23C40.1133 90.23 40.1633 90.28 40.1833 90.38C40.2233 90.48 40.2133 90.55 40.1533 90.59L36.5233 92.3L36.4033 92.33C36.2033 92.33 36.0133 92.09 35.8333 91.61C35.6533 91.13 35.5633 90.51 35.5633 89.75C34.0633 91.43 32.5033 92.27 30.8833 92.27C29.8633 92.27 29.0633 91.95 28.4833 91.31C27.9033 90.67 27.6133 89.76 27.6133 88.58V83.99C27.6133 83.23 27.5433 82.68 27.4033 82.34C27.2833 82 27.0633 81.83 26.7433 81.83C26.5033 81.83 26.1733 81.92 25.7533 82.1H25.6933C25.6333 82.1 25.5833 82.05 25.5433 81.95C25.5233 81.85 25.5433 81.79 25.6033 81.77L29.0533 80.18L29.1733 80.15C29.2333 80.15 29.3033 80.18 29.3833 80.24C29.4633 80.3 29.5033 80.36 29.5033 80.42V87.47C29.5033 89.77 30.3433 90.92 32.0233 90.92C32.6233 90.92 33.2333 90.77 33.8533 90.47C34.4733 90.17 35.0433 89.75 35.5633 89.21V83.99C35.5633 83.23 35.4933 82.68 35.3533 82.34C35.2133 82 34.9833 81.83 34.6633 81.83C34.4233 81.83 34.0933 81.92 33.6733 82.1H33.6133C33.5533 82.1 33.5133 82.05 33.4933 81.95C33.4733 81.85 33.4933 81.79 33.5533 81.77L37.0033 80.18L37.1233 80.15C37.1833 80.15 37.2433 80.18 37.3033 80.24C37.3833 80.3 37.4233 80.36 37.4233 80.42V88.73C37.4233 89.41 37.5033 89.9 37.6633 90.2C37.8233 90.5 38.0833 90.65 38.4433 90.65C38.7433 90.65 39.2533 90.52 39.9733 90.26L40.0333 90.23ZM45.8868 92C45.8268 92 45.7968 91.94 45.7968 91.82C45.7968 91.7 45.8268 91.64 45.8868 91.64C46.6268 91.64 47.1168 91.51 47.3568 91.25C47.5968 90.97 47.7168 90.41 47.7168 89.57V74.12C47.7168 73.4 47.6468 72.88 47.5068 72.56C47.3868 72.24 47.1568 72.08 46.8168 72.08C46.5168 72.08 46.0668 72.22 45.4668 72.5H45.4368C45.3568 72.5 45.2868 72.45 45.2268 72.35C45.1868 72.23 45.2068 72.16 45.2868 72.14L49.2468 70.28L49.3668 70.25C49.4268 70.25 49.4968 70.28 49.5768 70.34C49.6568 70.4 49.6968 70.46 49.6968 70.52V89.57C49.6968 90.41 49.8068 90.97 50.0268 91.25C50.2668 91.51 50.7668 91.64 51.5268 91.64C51.5868 91.64 51.6168 91.7 51.6168 91.82C51.6168 91.94 51.5868 92 51.5268 92C51.0468 92 50.6568 91.99 50.3568 91.97L48.7068 91.94L47.0268 91.97C46.7468 91.99 46.3668 92 45.8868 92ZM58.1798 92C58.1198 92 58.0898 91.94 58.0898 91.82C58.0898 91.7 58.1198 91.64 58.1798 91.64C58.9198 91.64 59.4098 91.51 59.6498 91.25C59.8898 90.97 60.0098 90.41 60.0098 89.57V74.12C60.0098 73.4 59.9398 72.88 59.7998 72.56C59.6798 72.24 59.4498 72.08 59.1098 72.08C58.8098 72.08 58.3598 72.22 57.7598 72.5H57.7298C57.6498 72.5 57.5798 72.45 57.5198 72.35C57.4798 72.23 57.4998 72.16 57.5798 72.14L61.5398 70.28L61.6598 70.25C61.7198 70.25 61.7898 70.28 61.8698 70.34C61.9498 70.4 61.9898 70.46 61.9898 70.52V89.57C61.9898 90.41 62.0998 90.97 62.3198 91.25C62.5598 91.51 63.0598 91.64 63.8198 91.64C63.8798 91.64 63.9098 91.7 63.9098 91.82C63.9098 91.94 63.8798 92 63.8198 92C63.3398 92 62.9498 91.99 62.6498 91.97L60.9998 91.94L59.3198 91.97C59.0398 91.99 58.6598 92 58.1798 92ZM85.334 76.67C85.334 77.43 85.524 78.1 85.904 78.68C86.284 79.26 86.744 79.75 87.284 80.15C87.824 80.55 88.584 81.04 89.564 81.62C90.584 82.24 91.384 82.77 91.964 83.21C92.544 83.65 93.034 84.2 93.434 84.86C93.854 85.52 94.064 86.3 94.064 87.2C94.064 88.18 93.814 89.06 93.314 89.84C92.834 90.62 92.124 91.24 91.184 91.7C90.244 92.14 89.134 92.36 87.854 92.36C86.234 92.36 84.794 92 83.534 91.28C83.434 91.22 83.364 91.15 83.324 91.07C83.284 90.99 83.254 90.87 83.234 90.71L82.904 86.51C82.884 86.43 82.924 86.38 83.024 86.36C83.144 86.34 83.214 86.37 83.234 86.45C83.634 87.93 84.264 89.2 85.124 90.26C85.984 91.3 87.124 91.82 88.544 91.82C89.524 91.82 90.344 91.56 91.004 91.04C91.664 90.52 91.994 89.67 91.994 88.49C91.994 87.59 91.794 86.82 91.394 86.18C90.994 85.52 90.504 84.97 89.924 84.53C89.364 84.07 88.594 83.55 87.614 82.97C86.634 82.35 85.874 81.84 85.334 81.44C84.794 81.02 84.334 80.5 83.954 79.88C83.574 79.24 83.384 78.49 83.384 77.63C83.384 76.61 83.654 75.75 84.194 75.05C84.734 74.33 85.444 73.8 86.324 73.46C87.204 73.1 88.134 72.92 89.114 72.92C90.354 72.92 91.544 73.15 92.684 73.61C92.984 73.75 93.134 73.93 93.134 74.15L93.314 77.75C93.314 77.83 93.254 77.88 93.134 77.9C93.034 77.92 92.974 77.89 92.954 77.81C92.754 76.75 92.304 75.75 91.604 74.81C90.904 73.87 89.894 73.4 88.574 73.4C87.514 73.4 86.704 73.71 86.144 74.33C85.604 74.95 85.334 75.73 85.334 76.67ZM109.608 90.35C109.668 90.35 109.718 90.4 109.758 90.5C109.798 90.58 109.788 90.64 109.728 90.68C108.988 91.28 108.318 91.71 107.718 91.97C107.118 92.23 106.478 92.36 105.798 92.36C104.958 92.36 104.258 92.17 103.698 91.79C103.158 91.39 102.888 90.74 102.888 89.84V82.85C102.888 82.37 102.848 82.02 102.768 81.8C102.688 81.56 102.538 81.4 102.318 81.32C102.118 81.24 101.788 81.2 101.328 81.2C101.268 81.2 101.238 81.13 101.238 80.99C101.238 80.85 101.268 80.78 101.328 80.78C102.168 80.76 102.848 80.55 103.368 80.15C103.908 79.75 104.238 79.19 104.358 78.47C104.378 78.41 104.458 78.38 104.597 78.38C104.738 78.38 104.808 78.41 104.808 78.47V80.75C105.768 80.73 107.138 80.63 108.918 80.45C108.978 80.45 109.028 80.52 109.068 80.66C109.108 80.8 109.128 80.96 109.128 81.14C109.128 81.32 109.098 81.5 109.038 81.68C108.978 81.84 108.908 81.91 108.828 81.89C107.708 81.63 106.368 81.48 104.808 81.44V88.82C104.808 90.42 105.588 91.22 107.148 91.22C107.988 91.22 108.788 90.94 109.548 90.38L109.608 90.35ZM127.304 90.38C127.384 90.38 127.434 90.43 127.454 90.53C127.474 90.61 127.444 90.67 127.364 90.71L124.274 92.18C124.194 92.22 124.104 92.24 124.004 92.24C123.744 92.24 123.504 92.07 123.284 91.73C123.084 91.37 122.944 90.89 122.864 90.29L121.364 91.28C120.884 91.62 120.444 91.86 120.044 92C119.664 92.14 119.254 92.21 118.814 92.21C118.054 92.21 117.464 92.02 117.044 91.64C116.624 91.24 116.414 90.74 116.414 90.14C116.414 89.5 116.664 88.97 117.164 88.55C117.684 88.11 118.504 87.68 119.624 87.26L122.834 86.09V84.11C122.834 82.91 122.674 82.04 122.354 81.5C122.054 80.96 121.604 80.69 121.004 80.69C120.344 80.69 119.844 80.92 119.504 81.38C119.164 81.84 118.944 82.36 118.844 82.94C118.724 83.82 118.314 84.26 117.614 84.26C117.254 84.26 116.984 84.17 116.804 83.99C116.624 83.81 116.534 83.59 116.534 83.33C116.534 82.83 116.844 82.33 117.464 81.83C118.104 81.33 118.864 80.92 119.744 80.6C120.644 80.28 121.434 80.12 122.114 80.12C122.934 80.12 123.564 80.39 124.004 80.93C124.464 81.45 124.694 82.21 124.694 83.21V88.76C124.694 89.44 124.784 89.94 124.964 90.26C125.164 90.58 125.464 90.74 125.864 90.74C126.224 90.74 126.684 90.62 127.244 90.38H127.304ZM122.834 89.84V89.66V86.51L120.314 87.53C119.774 87.73 119.364 87.98 119.084 88.28C118.804 88.56 118.664 88.92 118.664 89.36C118.664 89.84 118.814 90.24 119.114 90.56C119.434 90.86 119.834 91.01 120.314 91.01C120.714 91.01 121.164 90.86 121.664 90.56L122.834 89.84ZM138.852 92.36C137.552 92.36 136.462 92.08 135.582 91.52C134.702 90.94 134.042 90.2 133.602 89.3C133.182 88.4 132.972 87.45 132.972 86.45C132.972 85.17 133.302 84.06 133.962 83.12C134.622 82.16 135.462 81.43 136.482 80.93C137.502 80.41 138.552 80.15 139.632 80.15C140.532 80.15 141.342 80.33 142.062 80.69C142.802 81.05 143.172 81.5 143.172 82.04C143.172 82.34 143.062 82.59 142.842 82.79C142.642 82.99 142.372 83.09 142.032 83.09C141.392 83.09 140.912 82.73 140.592 82.01C140.372 81.57 140.112 81.25 139.812 81.05C139.532 80.85 139.122 80.75 138.582 80.75C137.502 80.75 136.662 81.19 136.062 82.07C135.462 82.93 135.162 84.08 135.162 85.52C135.162 87.2 135.572 88.58 136.392 89.66C137.212 90.72 138.462 91.25 140.142 91.25C141.282 91.25 142.282 90.93 143.142 90.29H143.202C143.262 90.29 143.312 90.32 143.352 90.38C143.412 90.44 143.412 90.49 143.352 90.53C142.652 91.17 141.942 91.64 141.222 91.94C140.522 92.22 139.732 92.36 138.852 92.36ZM163.394 91.64C163.434 91.64 163.454 91.7 163.454 91.82C163.454 91.94 163.434 92 163.394 92C162.894 92 162.504 91.99 162.224 91.97L160.604 91.94L158.414 91.97C158.094 91.99 157.654 92 157.094 92C157.054 92 157.034 91.94 157.034 91.82C157.034 91.7 157.054 91.64 157.094 91.64C158.054 91.64 158.534 91.44 158.534 91.04C158.534 90.86 158.444 90.65 158.264 90.41L154.604 85.52L153.284 86.57V89.57C153.284 90.41 153.404 90.97 153.644 91.25C153.884 91.51 154.384 91.64 155.144 91.64C155.204 91.64 155.234 91.7 155.234 91.82C155.234 91.94 155.204 92 155.144 92C154.644 92 154.254 91.99 153.974 91.97L152.354 91.94L150.674 91.97C150.394 91.99 150.024 92 149.564 92C149.504 92 149.474 91.94 149.474 91.82C149.474 91.7 149.504 91.64 149.564 91.64C150.304 91.64 150.794 91.51 151.034 91.25C151.274 90.97 151.394 90.41 151.394 89.57V74.12C151.394 73.4 151.324 72.88 151.184 72.56C151.044 72.24 150.804 72.08 150.464 72.08C150.184 72.08 149.744 72.22 149.144 72.5H149.114C149.034 72.5 148.964 72.45 148.904 72.35C148.864 72.25 148.884 72.18 148.964 72.14L152.834 70.28L152.984 70.25C153.044 70.25 153.104 70.28 153.164 70.34C153.244 70.4 153.284 70.46 153.284 70.52V86.06L157.094 82.88C157.714 82.38 158.024 81.94 158.024 81.56C158.024 81.32 157.884 81.13 157.604 80.99C157.344 80.85 156.944 80.78 156.404 80.78C156.344 80.78 156.314 80.72 156.314 80.6C156.314 80.48 156.344 80.42 156.404 80.42C156.964 80.42 157.384 80.43 157.664 80.45L159.884 80.48L161.924 80.45C162.204 80.43 162.574 80.42 163.034 80.42C163.074 80.42 163.094 80.48 163.094 80.6C163.094 80.72 163.074 80.78 163.034 80.78C162.254 80.78 161.394 80.97 160.454 81.35C159.534 81.71 158.624 82.26 157.724 83L156.074 84.32L159.974 89.57C160.974 90.95 162.114 91.64 163.394 91.64ZM188.792 92.12C188.192 92.12 187.502 92.09 186.722 92.03C186.422 92.01 186.052 91.99 185.612 91.97C185.192 91.95 184.722 91.94 184.202 91.94L182.132 91.97C181.752 91.99 181.242 92 180.602 92C180.562 92 180.542 91.94 180.542 91.82C180.542 91.7 180.562 91.64 180.602 91.64C181.342 91.64 181.882 91.59 182.222 91.49C182.562 91.39 182.792 91.2 182.912 90.92C183.052 90.62 183.122 90.17 183.122 89.57V75.68C183.122 75.08 183.062 74.64 182.942 74.36C182.822 74.08 182.592 73.89 182.252 73.79C181.912 73.67 181.372 73.61 180.632 73.61C180.592 73.61 180.572 73.55 180.572 73.43C180.572 73.31 180.592 73.25 180.632 73.25L182.132 73.28C183.012 73.32 183.702 73.34 184.202 73.34C184.962 73.34 185.712 73.31 186.452 73.25C187.412 73.21 188.052 73.19 188.372 73.19C190.452 73.19 192.292 73.59 193.892 74.39C195.492 75.19 196.732 76.28 197.612 77.66C198.492 79.04 198.932 80.59 198.932 82.31C198.932 84.25 198.472 85.97 197.552 87.47C196.652 88.95 195.422 90.1 193.862 90.92C192.322 91.72 190.632 92.12 188.792 92.12ZM188.492 91.64C190.032 91.64 191.392 91.31 192.572 90.65C193.772 89.97 194.702 88.98 195.362 87.68C196.042 86.36 196.382 84.79 196.382 82.97C196.382 81.23 196.062 79.66 195.422 78.26C194.782 76.84 193.872 75.72 192.692 74.9C191.532 74.08 190.182 73.67 188.642 73.67C187.782 73.67 187.122 73.72 186.662 73.82C186.202 73.92 185.862 74.12 185.642 74.42C185.422 74.7 185.312 75.14 185.312 75.74V89.24C185.312 90.12 185.522 90.74 185.942 91.1C186.382 91.46 187.232 91.64 188.492 91.64ZM215.774 90.26C215.834 90.26 215.884 90.3 215.924 90.38C215.984 90.44 215.994 90.5 215.954 90.56C214.614 91.76 213.134 92.36 211.514 92.36C210.334 92.36 209.324 92.1 208.484 91.58C207.644 91.04 207.004 90.33 206.564 89.45C206.124 88.55 205.904 87.59 205.904 86.57C205.904 85.39 206.184 84.31 206.744 83.33C207.324 82.35 208.104 81.58 209.084 81.02C210.064 80.44 211.144 80.15 212.324 80.15C213.484 80.15 214.364 80.45 214.964 81.05C215.584 81.63 215.894 82.47 215.894 83.57C215.894 84.11 215.774 84.38 215.534 84.38L208.124 84.41C208.084 84.85 208.064 85.19 208.064 85.43C208.064 87.17 208.474 88.57 209.294 89.63C210.114 90.69 211.274 91.22 212.774 91.22C213.374 91.22 213.874 91.15 214.274 91.01C214.694 90.85 215.184 90.6 215.744 90.26H215.774ZM211.304 80.75C210.464 80.75 209.774 81.04 209.234 81.62C208.694 82.18 208.344 82.97 208.184 83.99L213.644 83.87C213.644 82.85 213.434 82.08 213.014 81.56C212.614 81.02 212.044 80.75 211.304 80.75ZM234.679 80.42C234.719 80.42 234.739 80.48 234.739 80.6C234.739 80.72 234.719 80.78 234.679 80.78C234.159 80.78 233.709 80.96 233.329 81.32C232.969 81.66 232.619 82.24 232.279 83.06L228.529 91.97C228.489 92.07 228.379 92.12 228.199 92.12C228.039 92.12 227.929 92.07 227.869 91.97L223.609 82.91C223.209 82.03 222.869 81.46 222.589 81.2C222.309 80.92 221.969 80.78 221.569 80.78C221.509 80.78 221.479 80.72 221.479 80.6C221.479 80.48 221.509 80.42 221.569 80.42C221.949 80.42 222.249 80.43 222.469 80.45L223.759 80.48L225.799 80.45C226.099 80.43 226.509 80.42 227.029 80.42C227.089 80.42 227.119 80.48 227.119 80.6C227.119 80.72 227.089 80.78 227.029 80.78C225.849 80.78 225.259 81.01 225.259 81.47C225.259 81.63 225.299 81.79 225.379 81.95L228.949 89.45L231.649 82.94C231.789 82.56 231.859 82.26 231.859 82.04C231.859 81.2 231.089 80.78 229.549 80.78C229.509 80.78 229.489 80.72 229.489 80.6C229.489 80.48 229.509 80.42 229.549 80.42C230.089 80.42 230.499 80.43 230.779 80.45L232.579 80.48L233.719 80.45C233.919 80.43 234.239 80.42 234.679 80.42ZM250.086 90.26C250.146 90.26 250.196 90.3 250.236 90.38C250.296 90.44 250.306 90.5 250.266 90.56C248.926 91.76 247.446 92.36 245.826 92.36C244.646 92.36 243.636 92.1 242.796 91.58C241.956 91.04 241.316 90.33 240.876 89.45C240.436 88.55 240.216 87.59 240.216 86.57C240.216 85.39 240.496 84.31 241.056 83.33C241.636 82.35 242.416 81.58 243.396 81.02C244.376 80.44 245.456 80.15 246.636 80.15C247.796 80.15 248.676 80.45 249.276 81.05C249.896 81.63 250.206 82.47 250.206 83.57C250.206 84.11 250.086 84.38 249.846 84.38L242.436 84.41C242.396 84.85 242.376 85.19 242.376 85.43C242.376 87.17 242.786 88.57 243.606 89.63C244.426 90.69 245.586 91.22 247.086 91.22C247.686 91.22 248.186 91.15 248.586 91.01C249.006 90.85 249.496 90.6 250.056 90.26H250.086ZM245.616 80.75C244.776 80.75 244.086 81.04 243.546 81.62C243.006 82.18 242.656 82.97 242.496 83.99L247.956 83.87C247.956 82.85 247.746 82.08 247.326 81.56C246.926 81.02 246.356 80.75 245.616 80.75ZM257.111 92C257.051 92 257.021 91.94 257.021 91.82C257.021 91.7 257.051 91.64 257.111 91.64C257.851 91.64 258.341 91.51 258.581 91.25C258.821 90.97 258.941 90.41 258.941 89.57V74.12C258.941 73.4 258.871 72.88 258.731 72.56C258.611 72.24 258.381 72.08 258.041 72.08C257.741 72.08 257.291 72.22 256.691 72.5H256.661C256.581 72.5 256.511 72.45 256.451 72.35C256.411 72.23 256.431 72.16 256.511 72.14L260.471 70.28L260.591 70.25C260.651 70.25 260.721 70.28 260.801 70.34C260.881 70.4 260.921 70.46 260.921 70.52V89.57C260.921 90.41 261.031 90.97 261.251 91.25C261.491 91.51 261.991 91.64 262.751 91.64C262.811 91.64 262.841 91.7 262.841 91.82C262.841 91.94 262.811 92 262.751 92C262.271 92 261.881 91.99 261.581 91.97L259.931 91.94L258.251 91.97C257.971 91.99 257.591 92 257.111 92ZM275.194 92.39C274.014 92.39 272.974 92.11 272.074 91.55C271.194 90.97 270.504 90.2 270.004 89.24C269.524 88.26 269.284 87.2 269.284 86.06C269.284 84.76 269.604 83.66 270.244 82.76C270.884 81.84 271.694 81.16 272.674 80.72C273.674 80.26 274.694 80.03 275.734 80.03C276.914 80.03 277.944 80.32 278.824 80.9C279.724 81.48 280.414 82.25 280.894 83.21C281.374 84.15 281.614 85.15 281.614 86.21C281.614 87.45 281.324 88.54 280.744 89.48C280.164 90.4 279.384 91.12 278.404 91.64C277.424 92.14 276.354 92.39 275.194 92.39ZM276.064 91.82C277.104 91.82 277.904 91.43 278.464 90.65C279.044 89.87 279.334 88.68 279.334 87.08C279.334 85.82 279.134 84.7 278.734 83.72C278.334 82.74 277.784 81.98 277.084 81.44C276.384 80.9 275.604 80.63 274.744 80.63C273.724 80.63 272.934 81.01 272.374 81.77C271.814 82.53 271.534 83.64 271.534 85.1C271.534 86.34 271.724 87.48 272.104 88.52C272.504 89.54 273.044 90.35 273.724 90.95C274.404 91.53 275.184 91.82 276.064 91.82ZM296.778 80.03C297.598 80.03 298.358 80.25 299.058 80.69C299.778 81.13 300.348 81.77 300.768 82.61C301.188 83.45 301.398 84.43 301.398 85.55C301.398 87.07 301.058 88.35 300.378 89.39C299.718 90.41 298.888 91.17 297.888 91.67C296.888 92.15 295.898 92.39 294.918 92.39C294.298 92.39 293.748 92.34 293.268 92.24C292.788 92.14 292.308 91.96 291.828 91.7V97.82C291.828 98.42 291.898 98.86 292.038 99.14C292.198 99.42 292.478 99.61 292.878 99.71C293.298 99.83 293.938 99.89 294.798 99.89C294.838 99.89 294.858 99.95 294.858 100.07C294.858 100.19 294.838 100.25 294.798 100.25C294.078 100.25 293.518 100.24 293.118 100.22L290.898 100.19L289.248 100.22C288.968 100.24 288.588 100.25 288.108 100.25C288.048 100.25 288.018 100.19 288.018 100.07C288.018 99.95 288.048 99.89 288.108 99.89C288.648 99.89 289.038 99.83 289.278 99.71C289.538 99.61 289.708 99.42 289.788 99.14C289.888 98.86 289.938 98.42 289.938 97.82V83.75C289.938 83.05 289.858 82.55 289.698 82.25C289.558 81.93 289.288 81.77 288.888 81.77C288.508 81.77 287.988 81.92 287.328 82.22H287.298C287.218 82.22 287.158 82.17 287.118 82.07C287.058 81.97 287.068 81.91 287.148 81.89L290.658 80.21C290.738 80.17 290.808 80.15 290.868 80.15C291.128 80.15 291.348 80.36 291.528 80.78C291.708 81.18 291.808 81.76 291.828 82.52C292.668 81.66 293.488 81.03 294.288 80.63C295.108 80.23 295.938 80.03 296.778 80.03ZM295.758 91.73C296.798 91.73 297.638 91.27 298.278 90.35C298.938 89.43 299.268 88.14 299.268 86.48C299.268 84.82 298.898 83.54 298.158 82.64C297.438 81.72 296.508 81.26 295.368 81.26C294.688 81.26 294.068 81.42 293.508 81.74C292.948 82.04 292.388 82.48 291.828 83.06V89.87C292.348 90.49 292.908 90.96 293.508 91.28C294.128 91.58 294.878 91.73 295.758 91.73ZM317.92 90.26C317.98 90.26 318.03 90.3 318.07 90.38C318.13 90.44 318.14 90.5 318.1 90.56C316.76 91.76 315.28 92.36 313.66 92.36C312.48 92.36 311.47 92.1 310.63 91.58C309.79 91.04 309.15 90.33 308.71 89.45C308.27 88.55 308.05 87.59 308.05 86.57C308.05 85.39 308.33 84.31 308.89 83.33C309.47 82.35 310.25 81.58 311.23 81.02C312.21 80.44 313.29 80.15 314.47 80.15C315.63 80.15 316.51 80.45 317.11 81.05C317.73 81.63 318.04 82.47 318.04 83.57C318.04 84.11 317.92 84.38 317.68 84.38L310.27 84.41C310.23 84.85 310.21 85.19 310.21 85.43C310.21 87.17 310.62 88.57 311.44 89.63C312.26 90.69 313.42 91.22 314.92 91.22C315.52 91.22 316.02 91.15 316.42 91.01C316.84 90.85 317.33 90.6 317.89 90.26H317.92ZM313.45 80.75C312.61 80.75 311.92 81.04 311.38 81.62C310.84 82.18 310.49 82.97 310.33 83.99L315.79 83.87C315.79 82.85 315.58 82.08 315.16 81.56C314.76 81.02 314.19 80.75 313.45 80.75ZM332.145 80.15C332.585 80.15 333.005 80.28 333.405 80.54C333.825 80.8 334.035 81.11 334.035 81.47C334.035 81.75 333.935 81.99 333.735 82.19C333.555 82.37 333.305 82.46 332.985 82.46C332.785 82.46 332.615 82.42 332.475 82.34C332.335 82.26 332.175 82.14 331.995 81.98C331.795 81.82 331.615 81.7 331.455 81.62C331.315 81.54 331.135 81.5 330.915 81.5C330.655 81.5 330.385 81.6 330.105 81.8C329.845 82 329.415 82.44 328.815 83.12V89.57C328.815 90.15 328.885 90.59 329.025 90.89C329.185 91.17 329.465 91.37 329.865 91.49C330.265 91.59 330.875 91.64 331.695 91.64C331.755 91.64 331.785 91.7 331.785 91.82C331.785 91.94 331.755 92 331.695 92C331.035 92 330.505 91.99 330.105 91.97L327.855 91.94L326.235 91.97C325.955 91.99 325.575 92 325.095 92C325.035 92 325.005 91.94 325.005 91.82C325.005 91.7 325.035 91.64 325.095 91.64C325.615 91.64 325.995 91.59 326.235 91.49C326.495 91.37 326.665 91.17 326.745 90.89C326.845 90.59 326.895 90.15 326.895 89.57V83.69C326.895 83.03 326.815 82.55 326.655 82.25C326.495 81.95 326.235 81.8 325.875 81.8C325.575 81.8 325.045 81.95 324.285 82.25H324.255C324.175 82.25 324.115 82.21 324.075 82.13C324.035 82.03 324.055 81.96 324.135 81.92L327.735 80.18L327.915 80.15C328.115 80.15 328.305 80.38 328.485 80.84C328.685 81.28 328.795 81.86 328.815 82.58C329.635 81.64 330.285 81 330.765 80.66C331.245 80.32 331.705 80.15 332.145 80.15Z" fill="black"/>
<path d="M6.6 5.5C6.62667 5.5 6.64 5.54 6.64 5.62C6.64 5.7 6.62667 5.74 6.6 5.74C6.16 5.74 5.84 5.78 5.64 5.86C5.44 5.94 5.3 6.08 5.22 6.28C5.15333 6.46667 5.12 6.76 5.12 7.16V18.56C5.12 19.88 4.81333 20.9267 4.2 21.7C3.58667 22.4867 2.7 22.88 1.54 22.88C1.08667 22.88 0.733333 22.8 0.48 22.64C0.213333 22.4933 0.0799999 22.2867 0.0799999 22.02C0.0799999 21.82 0.14 21.66 0.26 21.54C0.38 21.42 0.546667 21.36 0.76 21.36C0.986667 21.36 1.16 21.4067 1.28 21.5C1.4 21.6067 1.52667 21.76 1.66 21.96C1.78 22.1467 1.88667 22.28 1.98 22.36C2.07333 22.44 2.20667 22.48 2.38 22.48C2.86 22.48 3.21333 22.2 3.44 21.64C3.68 21.0933 3.8 20.2067 3.8 18.98V7.12C3.8 6.72 3.75333 6.42667 3.66 6.24C3.56667 6.05333 3.38 5.92667 3.1 5.86C2.83333 5.78 2.41333 5.74 1.84 5.74C1.81333 5.74 1.8 5.7 1.8 5.62C1.8 5.54 1.81333 5.5 1.84 5.5L3 5.52C3.61333 5.54667 4.09333 5.56 4.44 5.56C4.78667 5.56 5.21333 5.54667 5.72 5.52L6.6 5.5ZM20.1853 16.86C20.2386 16.86 20.272 16.8933 20.2853 16.96C20.312 17.0133 20.2986 17.0533 20.2453 17.08L17.9053 18.18L17.8253 18.2C17.692 18.2 17.5653 18.0467 17.4453 17.74C17.3253 17.4333 17.2653 17.0333 17.2653 16.54V16.46C16.7453 17.0467 16.2253 17.48 15.7053 17.76C15.1853 18.0267 14.6453 18.16 14.0853 18.16C13.4186 18.16 12.8986 17.9533 12.5253 17.54C12.152 17.1133 11.9653 16.5 11.9653 15.7V12.64C11.9653 12.12 11.9186 11.7467 11.8253 11.52C11.732 11.28 11.5786 11.16 11.3653 11.16C11.1786 11.16 10.952 11.2267 10.6853 11.36H10.6653C10.612 11.36 10.572 11.3267 10.5453 11.26C10.5186 11.18 10.532 11.1333 10.5853 11.12L12.8053 10.12L12.8853 10.1C12.9253 10.1 12.9653 10.12 13.0053 10.16C13.0586 10.1867 13.0853 10.22 13.0853 10.26V15.04C13.0853 16.5867 13.6453 17.36 14.7653 17.36C15.192 17.36 15.6253 17.2533 16.0653 17.04C16.5053 16.8133 16.9053 16.5067 17.2653 16.12V12.64C17.2653 12.1067 17.2186 11.7267 17.1253 11.5C17.0453 11.2733 16.892 11.16 16.6653 11.16C16.4786 11.16 16.252 11.2267 15.9853 11.36H15.9653C15.912 11.36 15.872 11.3267 15.8453 11.26C15.832 11.18 15.852 11.1333 15.9053 11.12L18.1253 10.12L18.1853 10.1C18.2253 10.1 18.2653 10.12 18.3053 10.16C18.3586 10.1867 18.3853 10.22 18.3853 10.26V15.86C18.3853 16.3133 18.4386 16.64 18.5453 16.84C18.652 17.04 18.832 17.14 19.0853 17.14C19.312 17.14 19.6653 17.0467 20.1453 16.86H20.1853ZM24.1086 18C24.0686 18 24.0486 17.96 24.0486 17.88C24.0486 17.8 24.0686 17.76 24.1086 17.76C24.4686 17.76 24.7353 17.7267 24.9086 17.66C25.0819 17.58 25.2019 17.4467 25.2686 17.26C25.3353 17.06 25.3686 16.7667 25.3686 16.38V6.04C25.3686 5.56 25.3219 5.21333 25.2286 5C25.1353 4.78667 24.9686 4.68 24.7286 4.68C24.5286 4.68 24.2219 4.77333 23.8086 4.96H23.7686C23.7286 4.96 23.6953 4.92667 23.6686 4.86C23.6553 4.79333 23.6686 4.75333 23.7086 4.74L26.2686 3.52C26.2953 3.50667 26.3286 3.5 26.3686 3.5C26.3953 3.5 26.4286 3.52 26.4686 3.56C26.5219 3.58667 26.5486 3.62 26.5486 3.66V16.38C26.5486 16.7667 26.5753 17.0533 26.6286 17.24C26.6953 17.4267 26.8153 17.56 26.9886 17.64C27.1619 17.72 27.4286 17.76 27.7886 17.76C27.8286 17.76 27.8486 17.8 27.8486 17.88C27.8486 17.96 27.8286 18 27.7886 18C27.4953 18 27.2553 17.9933 27.0686 17.98L25.9486 17.96L24.8686 17.98C24.6819 17.9933 24.4286 18 24.1086 18ZM39.8923 17.7C41.0657 16.74 41.9723 15.96 42.6123 15.36C43.2523 14.7467 43.7123 14.2 43.9923 13.72C44.2723 13.24 44.4123 12.76 44.4123 12.28C44.4123 11.7467 44.2457 11.3133 43.9123 10.98C43.5923 10.6333 43.1723 10.46 42.6523 10.46C41.599 10.46 40.839 11.2867 40.3723 12.94C40.3723 12.9533 40.3457 12.96 40.2923 12.96C40.1723 12.96 40.119 12.9333 40.1323 12.88L40.9123 9.84C40.9123 9.81333 40.939 9.8 40.9923 9.8C41.0323 9.8 41.0657 9.81333 41.0923 9.84C41.1323 9.85333 41.1457 9.86667 41.1323 9.88C41.119 9.93333 41.1123 10.0067 41.1123 10.1C41.1123 10.3133 41.2123 10.42 41.4123 10.42C41.5323 10.42 41.7323 10.3733 42.0123 10.28C42.559 10.1067 43.0457 10.02 43.4723 10.02C44.1523 10.02 44.6857 10.2067 45.0723 10.58C45.4723 10.94 45.6723 11.4133 45.6723 12C45.6723 12.4667 45.519 12.9333 45.2123 13.4C44.919 13.8667 44.479 14.3667 43.8923 14.9C43.319 15.42 42.5123 16.08 41.4723 16.88C41.419 16.92 41.399 16.9533 41.4123 16.98C41.439 17.0067 41.4857 17.02 41.5523 17.02C43.019 17.02 44.039 17 44.6123 16.96C45.1857 16.92 45.599 16.8133 45.8523 16.64C46.1057 16.4667 46.279 16.16 46.3723 15.72C46.3723 15.6933 46.4057 15.68 46.4723 15.68C46.5657 15.68 46.6123 15.7 46.6123 15.74L46.3123 17.78C46.3123 17.8333 46.2923 17.8867 46.2523 17.94C46.2257 17.98 46.1857 18 46.1323 18H40.0323C39.9657 18 39.9123 17.9667 39.8723 17.9C39.8323 17.82 39.839 17.7533 39.8923 17.7ZM54.9992 18.26C54.2126 18.26 53.5059 18.08 52.8792 17.72C52.2659 17.36 51.7792 16.8667 51.4192 16.24C51.0726 15.6 50.8992 14.88 50.8992 14.08C50.8992 13.2933 51.0726 12.5933 51.4192 11.98C51.7792 11.3667 52.2726 10.8867 52.8992 10.54C53.5259 10.1933 54.2326 10.02 55.0192 10.02C55.7926 10.02 56.4859 10.2 57.0992 10.56C57.7126 10.9067 58.1859 11.3933 58.5192 12.02C58.8659 12.6467 59.0392 13.3533 59.0392 14.14C59.0392 14.9267 58.8659 15.6333 58.5192 16.26C58.1726 16.8867 57.6926 17.38 57.0792 17.74C56.4659 18.0867 55.7726 18.26 54.9992 18.26ZM55.2192 17.98C56.0192 17.98 56.6192 17.66 57.0192 17.02C57.4326 16.3667 57.6392 15.4867 57.6392 14.38C57.6392 13.0467 57.3659 12.0333 56.8192 11.34C56.2859 10.6467 55.6126 10.3 54.7992 10.3C54.0126 10.3 53.3926 10.6333 52.9392 11.3C52.4992 11.9667 52.2792 12.84 52.2792 13.92C52.2792 15.1067 52.5459 16.08 53.0792 16.84C53.6126 17.6 54.3259 17.98 55.2192 17.98ZM63.4705 17.7C64.6438 16.74 65.5505 15.96 66.1905 15.36C66.8305 14.7467 67.2905 14.2 67.5705 13.72C67.8505 13.24 67.9905 12.76 67.9905 12.28C67.9905 11.7467 67.8238 11.3133 67.4905 10.98C67.1705 10.6333 66.7505 10.46 66.2305 10.46C65.1771 10.46 64.4171 11.2867 63.9505 12.94C63.9505 12.9533 63.9238 12.96 63.8705 12.96C63.7505 12.96 63.6971 12.9333 63.7105 12.88L64.4905 9.84C64.4905 9.81333 64.5171 9.8 64.5705 9.8C64.6105 9.8 64.6438 9.81333 64.6705 9.84C64.7105 9.85333 64.7238 9.86667 64.7105 9.88C64.6971 9.93333 64.6905 10.0067 64.6905 10.1C64.6905 10.3133 64.7905 10.42 64.9905 10.42C65.1105 10.42 65.3105 10.3733 65.5905 10.28C66.1371 10.1067 66.6238 10.02 67.0505 10.02C67.7305 10.02 68.2638 10.2067 68.6505 10.58C69.0505 10.94 69.2505 11.4133 69.2505 12C69.2505 12.4667 69.0971 12.9333 68.7905 13.4C68.4971 13.8667 68.0571 14.3667 67.4705 14.9C66.8971 15.42 66.0905 16.08 65.0505 16.88C64.9971 16.92 64.9771 16.9533 64.9905 16.98C65.0171 17.0067 65.0638 17.02 65.1305 17.02C66.5971 17.02 67.6171 17 68.1905 16.96C68.7638 16.92 69.1771 16.8133 69.4305 16.64C69.6838 16.4667 69.8571 16.16 69.9505 15.72C69.9505 15.6933 69.9838 15.68 70.0505 15.68C70.1438 15.68 70.1905 15.7 70.1905 15.74L69.8905 17.78C69.8905 17.8333 69.8705 17.8867 69.8305 17.94C69.8038 17.98 69.7638 18 69.7105 18H63.6105C63.5438 18 63.4905 17.9667 63.4505 17.9C63.4105 17.82 63.4171 17.7533 63.4705 17.7ZM74.5173 17.7C75.6907 16.74 76.5973 15.96 77.2373 15.36C77.8773 14.7467 78.3373 14.2 78.6173 13.72C78.8973 13.24 79.0373 12.76 79.0373 12.28C79.0373 11.7467 78.8707 11.3133 78.5373 10.98C78.2173 10.6333 77.7973 10.46 77.2773 10.46C76.224 10.46 75.464 11.2867 74.9973 12.94C74.9973 12.9533 74.9707 12.96 74.9173 12.96C74.7973 12.96 74.744 12.9333 74.7573 12.88L75.5373 9.84C75.5373 9.81333 75.564 9.8 75.6173 9.8C75.6573 9.8 75.6907 9.81333 75.7173 9.84C75.7573 9.85333 75.7707 9.86667 75.7573 9.88C75.744 9.93333 75.7373 10.0067 75.7373 10.1C75.7373 10.3133 75.8373 10.42 76.0373 10.42C76.1573 10.42 76.3573 10.3733 76.6373 10.28C77.184 10.1067 77.6707 10.02 78.0973 10.02C78.7773 10.02 79.3107 10.2067 79.6973 10.58C80.0973 10.94 80.2973 11.4133 80.2973 12C80.2973 12.4667 80.144 12.9333 79.8373 13.4C79.544 13.8667 79.104 14.3667 78.5173 14.9C77.944 15.42 77.1373 16.08 76.0973 16.88C76.044 16.92 76.024 16.9533 76.0373 16.98C76.064 17.0067 76.1107 17.02 76.1773 17.02C77.644 17.02 78.664 17 79.2373 16.96C79.8107 16.92 80.224 16.8133 80.4773 16.64C80.7307 16.4667 80.904 16.16 80.9973 15.72C80.9973 15.6933 81.0307 15.68 81.0973 15.68C81.1907 15.68 81.2373 15.7 81.2373 15.74L80.9373 17.78C80.9373 17.8333 80.9173 17.8867 80.8773 17.94C80.8507 17.98 80.8107 18 80.7573 18H74.6573C74.5907 18 74.5373 17.9667 74.4973 17.9C74.4573 17.82 74.464 17.7533 74.5173 17.7ZM93.1917 19.52C93.1651 19.52 93.1384 19.4733 93.1117 19.38C93.0984 19.3 93.0917 19.2067 93.0917 19.1C93.0917 19.0067 93.0984 18.92 93.1117 18.84C93.1251 18.76 93.1451 18.72 93.1717 18.72H99.7917C99.8184 18.72 99.8384 18.76 99.8517 18.84C99.8784 18.9333 99.8917 19.0267 99.8917 19.12C99.8917 19.2133 99.8784 19.3 99.8517 19.38C99.8384 19.4733 99.8184 19.52 99.7917 19.52H93.1917ZM115.008 16.3C115.008 16.7267 115.061 17.04 115.168 17.24C115.288 17.4267 115.508 17.56 115.828 17.64C116.161 17.72 116.681 17.76 117.388 17.76C117.428 17.76 117.448 17.8 117.448 17.88C117.448 17.96 117.428 18 117.388 18C116.841 18 116.415 17.9933 116.108 17.98L114.368 17.96L113.028 17.98C112.775 17.9933 112.435 18 112.008 18C111.981 18 111.968 17.96 111.968 17.88C111.968 17.8 111.981 17.76 112.008 17.76C112.515 17.76 112.881 17.7267 113.108 17.66C113.348 17.5933 113.508 17.4667 113.588 17.28C113.668 17.08 113.708 16.78 113.708 16.38V7.12C113.708 6.72 113.668 6.42667 113.588 6.24C113.508 6.05333 113.348 5.92667 113.108 5.86C112.881 5.78 112.515 5.74 112.008 5.74C111.981 5.74 111.968 5.7 111.968 5.62C111.968 5.54 111.981 5.5 112.008 5.5L113.008 5.52C113.568 5.54667 114.015 5.56 114.348 5.56C114.681 5.56 115.055 5.54 115.468 5.5C115.628 5.5 115.881 5.49333 116.228 5.48C116.575 5.45333 116.875 5.44 117.128 5.44C118.355 5.44 119.335 5.71333 120.068 6.26C120.815 6.80667 121.188 7.64 121.188 8.76C121.188 9.64 120.968 10.38 120.528 10.98C120.101 11.58 119.548 12.0267 118.868 12.32C118.201 12.6133 117.508 12.76 116.788 12.76C116.388 12.76 116.061 12.7267 115.808 12.66C115.768 12.66 115.748 12.6267 115.748 12.56C115.748 12.52 115.755 12.48 115.768 12.44C115.795 12.4 115.821 12.3867 115.848 12.4C116.061 12.4533 116.301 12.48 116.568 12.48C117.448 12.48 118.188 12.1933 118.788 11.62C119.401 11.0467 119.708 10.22 119.708 9.14C119.708 8.08667 119.421 7.26 118.848 6.66C118.275 6.04667 117.541 5.74 116.648 5.74C116.168 5.74 115.821 5.76667 115.608 5.82C115.395 5.87333 115.241 6 115.148 6.2C115.055 6.38667 115.008 6.70667 115.008 7.16V16.3ZM130.488 10.1C130.782 10.1 131.062 10.18 131.328 10.34C131.595 10.5 131.728 10.6933 131.728 10.92C131.728 11.0933 131.668 11.24 131.548 11.36C131.442 11.48 131.282 11.54 131.068 11.54C130.948 11.54 130.842 11.52 130.748 11.48C130.668 11.4267 130.568 11.3533 130.448 11.26C130.328 11.1533 130.215 11.0733 130.108 11.02C130.002 10.9667 129.875 10.94 129.728 10.94C129.555 10.94 129.368 11.0133 129.168 11.16C128.982 11.3067 128.682 11.62 128.268 12.1V16.38C128.268 16.78 128.315 17.0733 128.408 17.26C128.515 17.4467 128.702 17.58 128.968 17.66C129.235 17.7267 129.648 17.76 130.208 17.76C130.262 17.76 130.288 17.8 130.288 17.88C130.288 17.96 130.262 18 130.208 18C129.782 18 129.442 17.9933 129.188 17.98L127.708 17.96L126.608 17.98C126.435 17.9933 126.195 18 125.888 18C125.848 18 125.828 17.96 125.828 17.88C125.828 17.8 125.848 17.76 125.888 17.76C126.248 17.76 126.515 17.7267 126.688 17.66C126.862 17.58 126.975 17.4467 127.028 17.26C127.095 17.0733 127.128 16.78 127.128 16.38V12.42C127.128 11.9667 127.075 11.64 126.968 11.44C126.862 11.24 126.682 11.14 126.428 11.14C126.215 11.14 125.855 11.24 125.348 11.44H125.308C125.255 11.44 125.215 11.4133 125.188 11.36C125.175 11.2933 125.195 11.2467 125.248 11.22L127.568 10.12L127.688 10.1C127.808 10.1 127.935 10.2533 128.068 10.56C128.202 10.8667 128.268 11.26 128.268 11.74V11.76C128.815 11.12 129.248 10.6867 129.568 10.46C129.888 10.22 130.195 10.1 130.488 10.1ZM142.219 16.88C142.259 16.88 142.292 16.9067 142.319 16.96C142.359 17 142.366 17.04 142.339 17.08C141.459 17.8533 140.486 18.24 139.419 18.24C138.646 18.24 137.986 18.06 137.439 17.7C136.892 17.34 136.472 16.8667 136.179 16.28C135.899 15.6933 135.759 15.0667 135.759 14.4C135.759 13.6133 135.946 12.8933 136.319 12.24C136.692 11.5733 137.199 11.0533 137.839 10.68C138.492 10.2933 139.206 10.1 139.979 10.1C140.726 10.1 141.299 10.3 141.699 10.7C142.099 11.1 142.299 11.66 142.299 12.38C142.299 12.5667 142.279 12.7 142.239 12.78C142.212 12.86 142.159 12.9 142.079 12.9L137.119 12.92C137.092 13.2133 137.079 13.4533 137.079 13.64C137.079 14.8 137.352 15.74 137.899 16.46C138.446 17.18 139.212 17.54 140.199 17.54C140.599 17.54 140.939 17.4867 141.219 17.38C141.512 17.2733 141.839 17.1067 142.199 16.88H142.219ZM139.319 10.5C138.746 10.5 138.272 10.6933 137.899 11.08C137.526 11.4533 137.279 11.98 137.159 12.66L140.959 12.58C140.959 11.9 140.812 11.3867 140.519 11.04C140.226 10.68 139.826 10.5 139.319 10.5ZM148.223 11.5C148.223 11.9667 148.376 12.34 148.683 12.62C148.99 12.8867 149.436 13.1733 150.023 13.48C150.49 13.72 150.85 13.9267 151.103 14.1C151.37 14.2733 151.596 14.5 151.783 14.78C151.97 15.06 152.063 15.4 152.063 15.8C152.063 16.48 151.81 17.0533 151.303 17.52C150.796 17.9867 150.11 18.22 149.243 18.22C148.536 18.22 147.896 18.02 147.323 17.62C147.243 17.5667 147.203 17.4867 147.203 17.38L147.163 15.82C147.163 15.78 147.196 15.76 147.263 15.76C147.343 15.7467 147.39 15.76 147.403 15.8C147.656 16.4667 147.983 16.9733 148.383 17.32C148.796 17.6667 149.27 17.84 149.803 17.84C150.243 17.84 150.576 17.7333 150.803 17.52C151.03 17.3067 151.13 16.9933 151.103 16.58C151.09 16.0733 150.93 15.6867 150.623 15.42C150.33 15.14 149.883 14.8533 149.283 14.56C148.843 14.3467 148.49 14.1533 148.223 13.98C147.97 13.8067 147.75 13.58 147.563 13.3C147.39 13.02 147.303 12.6733 147.303 12.26C147.303 11.54 147.57 10.9933 148.103 10.62C148.65 10.2333 149.29 10.04 150.023 10.04C150.556 10.04 151.043 10.14 151.483 10.34C151.563 10.3667 151.61 10.4 151.623 10.44C151.65 10.4667 151.663 10.5067 151.663 10.56C151.663 10.8267 151.656 11.0333 151.643 11.18L151.623 12.02C151.623 12.0467 151.583 12.06 151.503 12.06C151.423 12.06 151.383 12.0467 151.383 12.02C151.383 11.74 151.276 11.48 151.063 11.24C150.85 10.9867 150.583 10.7867 150.263 10.64C149.943 10.4933 149.623 10.42 149.303 10.42C148.97 10.42 148.703 10.5133 148.503 10.7C148.316 10.8733 148.223 11.14 148.223 11.5ZM163.141 16.88C163.181 16.88 163.214 16.9067 163.241 16.96C163.281 17 163.288 17.04 163.261 17.08C162.381 17.8533 161.408 18.24 160.341 18.24C159.568 18.24 158.908 18.06 158.361 17.7C157.814 17.34 157.394 16.8667 157.101 16.28C156.821 15.6933 156.681 15.0667 156.681 14.4C156.681 13.6133 156.868 12.8933 157.241 12.24C157.614 11.5733 158.121 11.0533 158.761 10.68C159.414 10.2933 160.128 10.1 160.901 10.1C161.648 10.1 162.221 10.3 162.621 10.7C163.021 11.1 163.221 11.66 163.221 12.38C163.221 12.5667 163.201 12.7 163.161 12.78C163.134 12.86 163.081 12.9 163.001 12.9L158.041 12.92C158.014 13.2133 158.001 13.4533 158.001 13.64C158.001 14.8 158.274 15.74 158.821 16.46C159.368 17.18 160.134 17.54 161.121 17.54C161.521 17.54 161.861 17.4867 162.141 17.38C162.434 17.2733 162.761 17.1067 163.121 16.88H163.141ZM160.241 10.5C159.668 10.5 159.194 10.6933 158.821 11.08C158.448 11.4533 158.201 11.98 158.081 12.66L161.881 12.58C161.881 11.9 161.734 11.3867 161.441 11.04C161.148 10.68 160.748 10.5 160.241 10.5ZM177.025 17.76C177.065 17.76 177.085 17.8 177.085 17.88C177.085 17.96 177.065 18 177.025 18C176.718 18 176.478 17.9933 176.305 17.98L175.225 17.96L174.125 17.98C173.952 17.9933 173.712 18 173.405 18C173.365 18 173.345 17.96 173.345 17.88C173.345 17.8 173.365 17.76 173.405 17.76C173.765 17.76 174.032 17.7267 174.205 17.66C174.378 17.58 174.492 17.4467 174.545 17.26C174.612 17.0733 174.645 16.78 174.645 16.38V13.14C174.645 12.3533 174.492 11.7733 174.185 11.4C173.892 11.0267 173.432 10.84 172.805 10.84C172.392 10.84 171.972 10.9533 171.545 11.18C171.132 11.3933 170.752 11.6933 170.405 12.08V16.38C170.405 16.78 170.432 17.0733 170.485 17.26C170.552 17.4467 170.672 17.58 170.845 17.66C171.018 17.7267 171.285 17.76 171.645 17.76C171.685 17.76 171.705 17.8 171.705 17.88C171.705 17.96 171.685 18 171.645 18C171.338 18 171.098 17.9933 170.925 17.98L169.845 17.96L168.745 17.98C168.572 17.9933 168.332 18 168.025 18C167.985 18 167.965 17.96 167.965 17.88C167.965 17.8 167.985 17.76 168.025 17.76C168.385 17.76 168.652 17.7267 168.825 17.66C168.998 17.58 169.112 17.4467 169.165 17.26C169.232 17.0733 169.265 16.78 169.265 16.38V12.42C169.265 11.9667 169.212 11.64 169.105 11.44C168.998 11.24 168.818 11.14 168.565 11.14C168.352 11.14 167.992 11.24 167.485 11.44H167.445C167.392 11.44 167.352 11.4133 167.325 11.36C167.312 11.2933 167.332 11.2467 167.385 11.22L169.705 10.12L169.825 10.1C169.945 10.1 170.072 10.2533 170.205 10.56C170.338 10.8667 170.405 11.26 170.405 11.74C170.912 11.1533 171.412 10.72 171.905 10.44C172.412 10.16 172.932 10.02 173.465 10.02C174.212 10.02 174.785 10.2267 175.185 10.64C175.585 11.0533 175.785 11.66 175.785 12.46V16.38C175.785 16.78 175.812 17.0733 175.865 17.26C175.932 17.4467 176.052 17.58 176.225 17.66C176.398 17.7267 176.665 17.76 177.025 17.76ZM186.677 16.96C186.73 16.96 186.77 16.9933 186.797 17.06C186.824 17.1133 186.817 17.1533 186.777 17.18C186.284 17.5667 185.837 17.84 185.437 18C185.05 18.16 184.644 18.24 184.217 18.24C183.657 18.24 183.197 18.1133 182.837 17.86C182.477 17.6067 182.297 17.1867 182.297 16.6V11.9C182.297 11.5533 182.27 11.3067 182.217 11.16C182.177 11.0133 182.09 10.92 181.957 10.88C181.824 10.8267 181.597 10.8 181.277 10.8C181.224 10.8 181.197 10.76 181.197 10.68C181.197 10.5867 181.224 10.54 181.277 10.54C181.81 10.5267 182.244 10.3867 182.577 10.12C182.91 9.84 183.104 9.47333 183.157 9.02C183.157 8.98 183.21 8.96 183.317 8.96C183.41 8.96 183.457 8.98 183.457 9.02V10.5C184.124 10.4867 185.05 10.42 186.237 10.3C186.264 10.3 186.29 10.3533 186.317 10.46C186.357 10.5533 186.377 10.66 186.377 10.78C186.377 10.8867 186.35 11 186.297 11.12C186.257 11.2267 186.21 11.2733 186.157 11.26C185.424 11.0733 184.524 10.9667 183.457 10.94V15.92C183.457 16.4667 183.59 16.8733 183.857 17.14C184.137 17.4067 184.53 17.54 185.037 17.54C185.624 17.54 186.157 17.3533 186.637 16.98L186.677 16.96Z" fill="black"/>
</svg>
