<svg width="442" height="101" viewBox="0 0 442 101" fill="none" xmlns="http://www.w3.org/2000/svg">
<path d="M11.9714 53.025C11.9714 53.7717 12.0531 54.32 12.2164 54.67C12.4031 54.9967 12.7414 55.23 13.2314 55.37C13.7447 55.51 14.5381 55.58 15.6114 55.58C15.6814 55.58 15.7164 55.65 15.7164 55.79C15.7164 55.93 15.6814 56 15.6114 56C14.6547 56 13.9081 55.9883 13.3714 55.965L10.3264 55.93L7.80641 55.965C7.36307 55.9883 6.75641 56 5.98641 56C5.91641 56 5.88141 55.93 5.88141 55.79C5.88141 55.65 5.91641 55.58 5.98641 55.58C6.77974 55.58 7.35141 55.5217 7.70141 55.405C8.05141 55.2883 8.28474 55.0667 8.40141 54.74C8.54141 54.4133 8.61141 53.8883 8.61141 53.165V36.96C8.61141 36.26 8.54141 35.7467 8.40141 35.42C8.28474 35.0933 8.03974 34.8717 7.66641 34.755C7.31641 34.615 6.75641 34.545 5.98641 34.545C5.91641 34.545 5.88141 34.475 5.88141 34.335C5.88141 34.195 5.91641 34.125 5.98641 34.125L7.80641 34.16C8.83307 34.2067 9.66141 34.23 10.2914 34.23C10.8281 34.23 11.4814 34.195 12.2514 34.125C12.5314 34.1017 12.9047 34.0783 13.3714 34.055C13.8614 34.0317 14.4331 34.02 15.0864 34.02C17.3964 34.02 19.2164 34.51 20.5464 35.49C21.8997 36.47 22.5764 37.975 22.5764 40.005C22.5764 41.475 22.1914 42.7233 21.4214 43.75C20.6747 44.7767 19.7064 45.5467 18.5164 46.06C17.3497 46.5733 16.1481 46.83 14.9114 46.83C14.2581 46.83 13.7097 46.7717 13.2664 46.655C13.1964 46.655 13.1614 46.5967 13.1614 46.48C13.1614 46.41 13.1731 46.34 13.1964 46.27C13.2431 46.2 13.2897 46.1767 13.3364 46.2C13.7097 46.2933 14.1181 46.34 14.5614 46.34C15.7747 46.34 16.8014 45.8383 17.6414 44.835C18.4814 43.8317 18.9014 42.3967 18.9014 40.53C18.9014 38.6867 18.4697 37.2633 17.6064 36.26C16.7431 35.2333 15.5531 34.72 14.0364 34.72C13.4764 34.72 13.0447 34.7783 12.7414 34.895C12.4614 35.0117 12.2631 35.2333 12.1464 35.56C12.0297 35.8633 11.9714 36.3533 11.9714 37.03V53.025ZM39.062 42.14C39.5986 42.14 40.112 42.315 40.602 42.665C41.092 43.015 41.337 43.435 41.337 43.925C41.337 44.3683 41.197 44.73 40.917 45.01C40.6603 45.29 40.2986 45.43 39.832 45.43C39.5286 45.43 39.272 45.3717 39.062 45.255C38.8753 45.115 38.677 44.9283 38.467 44.695C38.257 44.485 38.0703 44.3333 37.907 44.24C37.7436 44.1233 37.5453 44.065 37.312 44.065C37.0553 44.065 36.7753 44.17 36.472 44.38C36.192 44.5667 35.7486 44.975 35.142 45.605V53.165C35.142 53.8183 35.2353 54.32 35.422 54.67C35.6086 54.9967 35.9236 55.23 36.367 55.37C36.8103 55.51 37.4636 55.58 38.327 55.58C38.4203 55.58 38.467 55.65 38.467 55.79C38.467 55.93 38.4203 56 38.327 56C37.557 56 36.9386 55.9883 36.472 55.965L33.707 55.93L31.677 55.965C31.3503 55.9883 30.8953 56 30.312 56C30.242 56 30.207 55.93 30.207 55.79C30.207 55.65 30.242 55.58 30.312 55.58C31.1053 55.58 31.6303 55.4167 31.887 55.09C32.1436 54.7633 32.272 54.1217 32.272 53.165V46.48C32.272 45.7333 32.1786 45.185 31.992 44.835C31.8286 44.485 31.5486 44.31 31.152 44.31C30.802 44.31 30.2186 44.485 29.402 44.835H29.367C29.2736 44.835 29.2036 44.7767 29.157 44.66C29.1103 44.5433 29.122 44.4733 29.192 44.45L33.777 42.21C33.917 42.1633 33.9986 42.14 34.022 42.14C34.2553 42.14 34.4886 42.3967 34.722 42.91C34.9553 43.4 35.0953 44.0533 35.142 44.87C36.052 43.8433 36.8103 43.1317 37.417 42.735C38.0236 42.3383 38.572 42.14 39.062 42.14ZM55.0326 56.455C53.6326 56.455 52.396 56.1283 51.3226 55.475C50.2493 54.7983 49.421 53.9 48.8376 52.78C48.2543 51.6367 47.9626 50.4 47.9626 49.07C47.9626 47.5533 48.336 46.27 49.0826 45.22C49.8526 44.1467 50.821 43.3533 51.9876 42.84C53.1776 42.3033 54.391 42.035 55.6276 42.035C57.051 42.035 58.2876 42.3733 59.3376 43.05C60.411 43.7267 61.2276 44.625 61.7876 45.745C62.3476 46.8417 62.6276 48.02 62.6276 49.28C62.6276 50.68 62.2776 51.9283 61.5776 53.025C60.901 54.1217 59.9793 54.9733 58.8126 55.58C57.646 56.1633 56.386 56.455 55.0326 56.455ZM56.0826 55.755C57.1093 55.755 57.891 55.3 58.4276 54.39C58.9876 53.48 59.2676 52.15 59.2676 50.4C59.2676 48.8367 59.046 47.4717 58.6026 46.305C58.1826 45.1383 57.5993 44.2517 56.8526 43.645C56.1293 43.0383 55.336 42.735 54.4726 42.735C53.4226 42.735 52.6293 43.1667 52.0926 44.03C51.556 44.8933 51.2876 46.165 51.2876 47.845C51.2876 49.3617 51.486 50.7267 51.8826 51.94C52.3026 53.13 52.8743 54.0633 53.5976 54.74C54.3443 55.4167 55.1726 55.755 56.0826 55.755ZM73.593 34.86C72.1697 34.86 70.9913 35.3033 70.058 36.19C69.148 37.0533 68.448 38.3717 67.958 40.145C67.958 40.1917 67.888 40.215 67.748 40.215C67.6313 40.215 67.573 40.18 67.573 40.11C67.6663 39.2 67.7713 38.0333 67.888 36.61C68.0047 35.1633 68.063 34.0783 68.063 33.355C68.063 33.2383 68.1213 33.18 68.238 33.18C68.378 33.18 68.448 33.2383 68.448 33.355C68.448 33.8683 69.1013 34.125 70.408 34.125C72.4147 34.195 74.7597 34.23 77.443 34.23C78.8197 34.23 80.278 34.2067 81.818 34.16L84.198 34.125C85.0847 34.125 85.7263 34.0667 86.123 33.95C86.543 33.8333 86.8113 33.6 86.928 33.25C86.9513 33.1567 87.0213 33.11 87.138 33.11C87.2547 33.11 87.313 33.1567 87.313 33.25C87.243 33.9733 87.173 35.07 87.103 36.54C87.033 38.01 86.998 39.2 86.998 40.11C86.998 40.18 86.928 40.215 86.788 40.215C86.6713 40.215 86.6013 40.18 86.578 40.11C86.3447 38.3133 85.7963 36.995 84.933 36.155C84.0697 35.2917 82.903 34.86 81.433 34.86C80.7797 34.86 80.2897 34.9183 79.963 35.035C79.6597 35.1517 79.4497 35.3617 79.333 35.665C79.2397 35.945 79.193 36.4 79.193 37.03V53.165C79.193 53.8883 79.263 54.4133 79.403 54.74C79.543 55.0667 79.823 55.2883 80.243 55.405C80.663 55.5217 81.328 55.58 82.238 55.58C82.308 55.58 82.343 55.65 82.343 55.79C82.343 55.93 82.308 56 82.238 56C81.4213 56 80.7797 55.9883 80.313 55.965L77.443 55.93L74.713 55.965C74.223 55.9883 73.5463 56 72.683 56C72.6363 56 72.613 55.93 72.613 55.79C72.613 55.65 72.6363 55.58 72.683 55.58C73.593 55.58 74.258 55.5217 74.678 55.405C75.1213 55.2883 75.413 55.0667 75.553 54.74C75.7163 54.39 75.798 53.865 75.798 53.165V36.96C75.798 36.3533 75.7397 35.91 75.623 35.63C75.5063 35.35 75.2963 35.1517 74.993 35.035C74.6897 34.9183 74.223 34.86 73.593 34.86ZM108.3 53.795C108.37 53.795 108.428 53.8533 108.475 53.97C108.521 54.0867 108.51 54.1683 108.44 54.215L103.855 56.42L103.715 56.455C103.481 56.455 103.271 56.1983 103.085 55.685C102.898 55.1483 102.793 54.4367 102.77 53.55C101.136 55.44 99.4096 56.385 97.5896 56.385C96.3296 56.385 95.3496 56 94.6496 55.23C93.9496 54.4367 93.5996 53.3633 93.5996 52.01V46.795C93.5996 45.2083 93.2379 44.415 92.5146 44.415C92.2813 44.415 91.9546 44.5083 91.5346 44.695H91.4996C91.4063 44.695 91.3363 44.6367 91.2896 44.52C91.2429 44.4033 91.2546 44.3217 91.3246 44.275L95.7696 42.21L95.9096 42.175C96.0029 42.175 96.1079 42.2217 96.2246 42.315C96.3413 42.4083 96.3996 42.49 96.3996 42.56V50.505C96.3996 51.8117 96.6329 52.7917 97.0996 53.445C97.5896 54.075 98.3246 54.39 99.3046 54.39C99.8879 54.39 100.483 54.25 101.09 53.97C101.72 53.69 102.28 53.305 102.77 52.815V46.795C102.77 45.9783 102.676 45.3833 102.49 45.01C102.326 44.6133 102.058 44.415 101.685 44.415C101.475 44.415 101.148 44.5083 100.705 44.695H100.67C100.576 44.695 100.506 44.6367 100.46 44.52C100.413 44.38 100.436 44.2983 100.53 44.275L104.94 42.21C104.986 42.1867 105.045 42.175 105.115 42.175C105.208 42.175 105.313 42.2217 105.43 42.315C105.546 42.4083 105.605 42.49 105.605 42.56V52.045C105.605 52.8617 105.686 53.4333 105.85 53.76C106.013 54.0867 106.281 54.25 106.655 54.25C106.935 54.25 107.46 54.11 108.23 53.83L108.3 53.795ZM124.819 42.035C125.845 42.035 126.79 42.28 127.654 42.77C128.54 43.26 129.24 43.995 129.754 44.975C130.29 45.955 130.559 47.145 130.559 48.545C130.559 50.225 130.197 51.66 129.474 52.85C128.774 54.04 127.84 54.9383 126.674 55.545C125.507 56.1517 124.27 56.455 122.964 56.455C121.144 56.455 119.51 55.9183 118.064 54.845L115.089 56.21H115.019C114.925 56.21 114.867 56.1633 114.844 56.07C114.82 56 114.844 55.9417 114.914 55.895C115.544 55.4983 115.999 55.0433 116.279 54.53C116.582 53.9933 116.734 53.2817 116.734 52.395V35.28C116.734 34.4633 116.652 33.88 116.489 33.53C116.325 33.1567 116.045 32.97 115.649 32.97C115.369 32.97 114.914 33.11 114.284 33.39H114.249C114.155 33.39 114.085 33.3317 114.039 33.215C113.992 33.0983 113.992 33.0167 114.039 32.97L118.904 30.66L119.079 30.625C119.172 30.625 119.277 30.6717 119.394 30.765C119.51 30.8583 119.569 30.94 119.569 31.01V44.625C120.339 43.8317 121.144 43.2017 121.984 42.735C122.824 42.2683 123.769 42.035 124.819 42.035ZM123.874 55.755C125.017 55.755 125.892 55.2417 126.499 54.215C127.105 53.1883 127.409 51.73 127.409 49.84C127.409 47.7867 127.035 46.2467 126.289 45.22C125.565 44.17 124.585 43.645 123.349 43.645C122.159 43.645 120.899 44.1817 119.569 45.255V50.61C119.569 51.8233 119.79 52.815 120.234 53.585C120.7 54.355 121.26 54.915 121.914 55.265C122.59 55.5917 123.244 55.755 123.874 55.755ZM150.252 53.795C150.299 53.795 150.346 53.8417 150.392 53.935C150.462 54.0283 150.474 54.0983 150.427 54.145C149.564 54.9383 148.701 55.5217 147.837 55.895C146.974 56.245 146.041 56.42 145.037 56.42C143.614 56.42 142.377 56.105 141.327 55.475C140.301 54.845 139.507 54.0167 138.947 52.99C138.411 51.9633 138.142 50.855 138.142 49.665C138.142 48.2883 138.481 47.0283 139.157 45.885C139.834 44.7417 140.756 43.8433 141.922 43.19C143.112 42.5133 144.431 42.175 145.877 42.175C147.277 42.175 148.362 42.5133 149.132 43.19C149.902 43.8667 150.287 44.87 150.287 46.2C150.287 46.8767 150.147 47.215 149.867 47.215L141.327 47.25C141.304 47.46 141.292 47.775 141.292 48.195C141.292 50.2483 141.759 51.8817 142.692 53.095C143.649 54.285 145.002 54.88 146.752 54.88C147.406 54.88 147.954 54.81 148.397 54.67C148.841 54.5067 149.436 54.2267 150.182 53.83L150.252 53.795ZM144.617 42.875C143.754 42.875 143.042 43.2133 142.482 43.89C141.946 44.5433 141.584 45.4533 141.397 46.62L146.997 46.515C146.951 44.0883 146.157 42.875 144.617 42.875ZM25.3014 91.64C25.3614 91.64 25.3914 91.7 25.3914 91.82C25.3914 91.94 25.3614 92 25.3014 92H21.1914C20.7114 92 19.8014 91.19 18.4614 89.57C17.1414 87.93 15.5214 85.65 13.6014 82.73C13.0614 82.83 12.5614 82.88 12.1014 82.88C12.0014 82.88 11.5314 82.85 10.6914 82.79V89.57C10.6914 90.19 10.7514 90.64 10.8714 90.92C10.9914 91.2 11.2214 91.39 11.5614 91.49C11.9014 91.59 12.4414 91.64 13.1814 91.64C13.2414 91.64 13.2714 91.7 13.2714 91.82C13.2714 91.94 13.2414 92 13.1814 92C12.5414 92 12.0514 91.99 11.7114 91.97L9.58141 91.94L7.51141 91.97C7.13141 91.99 6.62141 92 5.98141 92C5.94141 92 5.92141 91.94 5.92141 91.82C5.92141 91.7 5.94141 91.64 5.98141 91.64C6.72141 91.64 7.26141 91.59 7.60141 91.49C7.94141 91.39 8.17141 91.2 8.29141 90.92C8.43141 90.62 8.50141 90.17 8.50141 89.57V75.68C8.50141 75.08 8.44141 74.64 8.32141 74.36C8.20141 74.08 7.97141 73.89 7.63141 73.79C7.29141 73.67 6.76141 73.61 6.04141 73.61C5.98141 73.61 5.95141 73.55 5.95141 73.43C5.95141 73.31 5.98141 73.25 6.04141 73.25L7.51141 73.28C8.35141 73.32 9.04141 73.34 9.58141 73.34C10.0014 73.34 10.4014 73.33 10.7814 73.31C11.1614 73.29 11.4914 73.27 11.7714 73.25C12.5114 73.19 13.2014 73.16 13.8414 73.16C15.4414 73.16 16.6814 73.52 17.5614 74.24C18.4614 74.94 18.9114 75.89 18.9114 77.09C18.9114 78.17 18.5914 79.15 17.9514 80.03C17.3314 80.91 16.5014 81.6 15.4614 82.1C17.1414 84.52 18.5414 86.41 19.6614 87.77C20.8014 89.13 21.8114 90.12 22.6914 90.74C23.5914 91.34 24.4614 91.64 25.3014 91.64ZM10.6914 82.07C11.2514 82.13 11.8414 82.16 12.4614 82.16C13.9614 82.16 15.0314 81.83 15.6714 81.17C16.3114 80.49 16.6314 79.44 16.6314 78.02C16.6314 76.44 16.3014 75.32 15.6414 74.66C14.9814 73.98 14.0314 73.64 12.7914 73.64C12.0114 73.64 11.4614 73.79 11.1414 74.09C10.8414 74.37 10.6914 74.92 10.6914 75.74V82.07ZM39.9161 90.26C39.9761 90.26 40.0261 90.3 40.0661 90.38C40.1261 90.44 40.1361 90.5 40.0961 90.56C38.7561 91.76 37.2761 92.36 35.6561 92.36C34.4761 92.36 33.4661 92.1 32.6261 91.58C31.7861 91.04 31.1461 90.33 30.7061 89.45C30.2661 88.55 30.0461 87.59 30.0461 86.57C30.0461 85.39 30.3261 84.31 30.8861 83.33C31.4661 82.35 32.2461 81.58 33.2261 81.02C34.2061 80.44 35.2861 80.15 36.4661 80.15C37.6261 80.15 38.5061 80.45 39.1061 81.05C39.7261 81.63 40.0361 82.47 40.0361 83.57C40.0361 84.11 39.9161 84.38 39.6761 84.38L32.2661 84.41C32.2261 84.85 32.2061 85.19 32.2061 85.43C32.2061 87.17 32.6161 88.57 33.4361 89.63C34.2561 90.69 35.4161 91.22 36.9161 91.22C37.5161 91.22 38.0161 91.15 38.4161 91.01C38.8361 90.85 39.3261 90.6 39.8861 90.26H39.9161ZM35.4461 80.75C34.6061 80.75 33.9161 81.04 33.3761 81.62C32.8361 82.18 32.4861 82.97 32.3261 83.99L37.7861 83.87C37.7861 82.85 37.5761 82.08 37.1561 81.56C36.7561 81.02 36.1861 80.75 35.4461 80.75ZM58.105 90.38C58.185 90.38 58.235 90.43 58.255 90.53C58.275 90.61 58.245 90.67 58.165 90.71L55.075 92.18C54.995 92.22 54.905 92.24 54.805 92.24C54.545 92.24 54.305 92.07 54.085 91.73C53.885 91.37 53.745 90.89 53.665 90.29L52.165 91.28C51.685 91.62 51.245 91.86 50.845 92C50.465 92.14 50.055 92.21 49.615 92.21C48.855 92.21 48.265 92.02 47.845 91.64C47.425 91.24 47.215 90.74 47.215 90.14C47.215 89.5 47.465 88.97 47.965 88.55C48.485 88.11 49.305 87.68 50.425 87.26L53.635 86.09V84.11C53.635 82.91 53.475 82.04 53.155 81.5C52.855 80.96 52.405 80.69 51.805 80.69C51.145 80.69 50.645 80.92 50.305 81.38C49.965 81.84 49.745 82.36 49.645 82.94C49.525 83.82 49.115 84.26 48.415 84.26C48.055 84.26 47.785 84.17 47.605 83.99C47.425 83.81 47.335 83.59 47.335 83.33C47.335 82.83 47.645 82.33 48.265 81.83C48.905 81.33 49.665 80.92 50.545 80.6C51.445 80.28 52.235 80.12 52.915 80.12C53.735 80.12 54.365 80.39 54.805 80.93C55.265 81.45 55.495 82.21 55.495 83.21V88.76C55.495 89.44 55.585 89.94 55.765 90.26C55.965 90.58 56.265 90.74 56.665 90.74C57.025 90.74 57.485 90.62 58.045 90.38H58.105ZM53.635 89.84V89.66V86.51L51.115 87.53C50.575 87.73 50.165 87.98 49.885 88.28C49.605 88.56 49.465 88.92 49.465 89.36C49.465 89.84 49.615 90.24 49.915 90.56C50.235 90.86 50.635 91.01 51.115 91.01C51.515 91.01 51.965 90.86 52.465 90.56L53.635 89.84ZM69.6527 92.36C68.3527 92.36 67.2627 92.08 66.3827 91.52C65.5027 90.94 64.8427 90.2 64.4027 89.3C63.9827 88.4 63.7727 87.45 63.7727 86.45C63.7727 85.17 64.1027 84.06 64.7627 83.12C65.4227 82.16 66.2627 81.43 67.2827 80.93C68.3027 80.41 69.3527 80.15 70.4327 80.15C71.3327 80.15 72.1427 80.33 72.8627 80.69C73.6027 81.05 73.9727 81.5 73.9727 82.04C73.9727 82.34 73.8627 82.59 73.6427 82.79C73.4427 82.99 73.1727 83.09 72.8327 83.09C72.1927 83.09 71.7127 82.73 71.3927 82.01C71.1727 81.57 70.9127 81.25 70.6127 81.05C70.3327 80.85 69.9227 80.75 69.3827 80.75C68.3027 80.75 67.4627 81.19 66.8627 82.07C66.2627 82.93 65.9627 84.08 65.9627 85.52C65.9627 87.2 66.3727 88.58 67.1927 89.66C68.0127 90.72 69.2627 91.25 70.9427 91.25C72.0827 91.25 73.0827 90.93 73.9427 90.29H74.0027C74.0627 90.29 74.1127 90.32 74.1527 90.38C74.2127 90.44 74.2127 90.49 74.1527 90.53C73.4527 91.17 72.7427 91.64 72.0227 91.94C71.3227 92.22 70.5327 92.36 69.6527 92.36ZM89.0352 90.35C89.0952 90.35 89.1452 90.4 89.1852 90.5C89.2252 90.58 89.2152 90.64 89.1552 90.68C88.4152 91.28 87.7452 91.71 87.1452 91.97C86.5452 92.23 85.9052 92.36 85.2252 92.36C84.3852 92.36 83.6852 92.17 83.1252 91.79C82.5852 91.39 82.3152 90.74 82.3152 89.84V82.85C82.3152 82.37 82.2752 82.02 82.1952 81.8C82.1152 81.56 81.9652 81.4 81.7452 81.32C81.5452 81.24 81.2152 81.2 80.7552 81.2C80.6952 81.2 80.6652 81.13 80.6652 80.99C80.6652 80.85 80.6952 80.78 80.7552 80.78C81.5952 80.76 82.2752 80.55 82.7952 80.15C83.3352 79.75 83.6652 79.19 83.7852 78.47C83.8052 78.41 83.8852 78.38 84.0252 78.38C84.1652 78.38 84.2352 78.41 84.2352 78.47V80.75C85.1952 80.73 86.5652 80.63 88.3452 80.45C88.4052 80.45 88.4552 80.52 88.4952 80.66C88.5352 80.8 88.5552 80.96 88.5552 81.14C88.5552 81.32 88.5252 81.5 88.4652 81.68C88.4052 81.84 88.3352 81.91 88.2552 81.89C87.1352 81.63 85.7952 81.48 84.2352 81.44V88.82C84.2352 90.42 85.0152 91.22 86.5752 91.22C87.4152 91.22 88.2152 90.94 88.9752 90.38L89.0352 90.35ZM126.993 73.25C127.053 73.25 127.083 73.31 127.083 73.43C127.083 73.55 127.053 73.61 126.993 73.61C126.173 73.61 125.563 73.86 125.163 74.36C124.783 74.84 124.593 75.6 124.593 76.64V92.36C124.593 92.42 124.543 92.46 124.443 92.48C124.343 92.5 124.273 92.49 124.233 92.45L110.253 75.71L110.163 75.59V88.64C110.163 89.68 110.353 90.44 110.733 90.92C111.113 91.4 111.703 91.64 112.503 91.64C112.563 91.64 112.593 91.7 112.593 91.82C112.593 91.94 112.563 92 112.503 92C112.023 92 111.643 91.99 111.363 91.97L109.833 91.94L108.243 91.97C107.943 91.99 107.513 92 106.953 92C106.913 92 106.893 91.94 106.893 91.82C106.893 91.7 106.913 91.64 106.953 91.64C107.813 91.64 108.433 91.4 108.813 90.92C109.213 90.44 109.413 89.68 109.413 88.64V74.81C108.593 74.01 107.763 73.61 106.923 73.61C106.863 73.61 106.833 73.55 106.833 73.43C106.833 73.31 106.863 73.25 106.923 73.25L108.033 73.28C108.273 73.3 108.613 73.31 109.053 73.31L110.463 73.28C110.623 73.26 110.833 73.25 111.093 73.25C111.253 73.25 111.363 73.29 111.423 73.37C111.503 73.43 111.623 73.58 111.783 73.82C112.023 74.18 112.263 74.51 112.503 74.81L123.843 88.55V76.64C123.843 75.6 123.663 74.84 123.303 74.36C122.943 73.86 122.353 73.61 121.533 73.61C121.493 73.61 121.473 73.55 121.473 73.43C121.473 73.31 121.493 73.25 121.533 73.25L122.703 73.28C123.343 73.32 123.853 73.34 124.233 73.34C124.613 73.34 125.123 73.32 125.763 73.28L126.993 73.25ZM144.589 90.38C144.669 90.38 144.719 90.43 144.739 90.53C144.759 90.61 144.729 90.67 144.649 90.71L141.559 92.18C141.479 92.22 141.389 92.24 141.289 92.24C141.029 92.24 140.789 92.07 140.569 91.73C140.369 91.37 140.229 90.89 140.149 90.29L138.649 91.28C138.169 91.62 137.729 91.86 137.329 92C136.949 92.14 136.539 92.21 136.099 92.21C135.339 92.21 134.749 92.02 134.329 91.64C133.909 91.24 133.699 90.74 133.699 90.14C133.699 89.5 133.949 88.97 134.449 88.55C134.969 88.11 135.789 87.68 136.909 87.26L140.119 86.09V84.11C140.119 82.91 139.959 82.04 139.639 81.5C139.339 80.96 138.889 80.69 138.289 80.69C137.629 80.69 137.129 80.92 136.789 81.38C136.449 81.84 136.229 82.36 136.129 82.94C136.009 83.82 135.599 84.26 134.899 84.26C134.539 84.26 134.269 84.17 134.089 83.99C133.909 83.81 133.819 83.59 133.819 83.33C133.819 82.83 134.129 82.33 134.749 81.83C135.389 81.33 136.149 80.92 137.029 80.6C137.929 80.28 138.719 80.12 139.399 80.12C140.219 80.12 140.849 80.39 141.289 80.93C141.749 81.45 141.979 82.21 141.979 83.21V88.76C141.979 89.44 142.069 89.94 142.249 90.26C142.449 90.58 142.749 90.74 143.149 90.74C143.509 90.74 143.969 90.62 144.529 90.38H144.589ZM140.119 89.84V89.66V86.51L137.599 87.53C137.059 87.73 136.649 87.98 136.369 88.28C136.089 88.56 135.949 88.92 135.949 89.36C135.949 89.84 136.099 90.24 136.399 90.56C136.719 90.86 137.119 91.01 137.599 91.01C137.999 91.01 138.449 90.86 138.949 90.56L140.119 89.84ZM158.627 90.35C158.687 90.35 158.737 90.4 158.777 90.5C158.817 90.58 158.807 90.64 158.747 90.68C158.007 91.28 157.337 91.71 156.737 91.97C156.137 92.23 155.497 92.36 154.817 92.36C153.977 92.36 153.277 92.17 152.717 91.79C152.177 91.39 151.907 90.74 151.907 89.84V82.85C151.907 82.37 151.867 82.02 151.787 81.8C151.707 81.56 151.557 81.4 151.337 81.32C151.137 81.24 150.807 81.2 150.347 81.2C150.287 81.2 150.257 81.13 150.257 80.99C150.257 80.85 150.287 80.78 150.347 80.78C151.187 80.76 151.867 80.55 152.387 80.15C152.927 79.75 153.257 79.19 153.377 78.47C153.397 78.41 153.477 78.38 153.617 78.38C153.757 78.38 153.827 78.41 153.827 78.47V80.75C154.787 80.73 156.157 80.63 157.937 80.45C157.997 80.45 158.047 80.52 158.087 80.66C158.127 80.8 158.147 80.96 158.147 81.14C158.147 81.32 158.117 81.5 158.057 81.68C157.997 81.84 157.927 81.91 157.847 81.89C156.727 81.63 155.387 81.48 153.827 81.44V88.82C153.827 90.42 154.607 91.22 156.167 91.22C157.007 91.22 157.807 90.94 158.567 90.38L158.627 90.35ZM167.954 76.73C167.514 76.73 167.164 76.61 166.904 76.37C166.664 76.13 166.544 75.79 166.544 75.35C166.544 74.95 166.664 74.63 166.904 74.39C167.164 74.15 167.514 74.03 167.954 74.03C168.374 74.03 168.704 74.15 168.944 74.39C169.184 74.63 169.304 74.95 169.304 75.35C169.304 75.79 169.184 76.13 168.944 76.37C168.704 76.61 168.374 76.73 167.954 76.73ZM165.374 92C165.314 92 165.284 91.94 165.284 91.82C165.284 91.7 165.314 91.64 165.374 91.64C166.114 91.64 166.604 91.51 166.844 91.25C167.084 90.97 167.204 90.41 167.204 89.57V83.99C167.204 83.29 167.134 82.78 166.994 82.46C166.854 82.14 166.604 81.98 166.244 81.98C165.904 81.98 165.464 82.12 164.924 82.4H164.894C164.814 82.4 164.754 82.35 164.714 82.25C164.674 82.15 164.694 82.08 164.774 82.04L168.764 80.18L168.884 80.15C168.944 80.15 169.004 80.18 169.064 80.24C169.144 80.3 169.184 80.36 169.184 80.42C169.184 80.56 169.174 80.96 169.154 81.62C169.134 82.28 169.124 83.06 169.124 83.96V89.57C169.124 90.15 169.164 90.59 169.244 90.89C169.344 91.17 169.524 91.37 169.784 91.49C170.044 91.59 170.434 91.64 170.954 91.64C171.014 91.64 171.044 91.7 171.044 91.82C171.044 91.94 171.014 92 170.954 92C170.454 92 170.064 91.99 169.784 91.97L168.164 91.94L166.484 91.97C166.204 91.99 165.834 92 165.374 92ZM189.538 80.42C189.578 80.42 189.598 80.48 189.598 80.6C189.598 80.72 189.578 80.78 189.538 80.78C189.018 80.78 188.568 80.96 188.188 81.32C187.828 81.66 187.478 82.24 187.138 83.06L183.388 91.97C183.348 92.07 183.238 92.12 183.058 92.12C182.898 92.12 182.788 92.07 182.728 91.97L178.468 82.91C178.068 82.03 177.728 81.46 177.448 81.2C177.168 80.92 176.828 80.78 176.428 80.78C176.368 80.78 176.338 80.72 176.338 80.6C176.338 80.48 176.368 80.42 176.428 80.42C176.808 80.42 177.108 80.43 177.328 80.45L178.618 80.48L180.658 80.45C180.958 80.43 181.368 80.42 181.888 80.42C181.948 80.42 181.978 80.48 181.978 80.6C181.978 80.72 181.948 80.78 181.888 80.78C180.708 80.78 180.118 81.01 180.118 81.47C180.118 81.63 180.158 81.79 180.238 81.95L183.808 89.45L186.508 82.94C186.648 82.56 186.718 82.26 186.718 82.04C186.718 81.2 185.948 80.78 184.408 80.78C184.368 80.78 184.348 80.72 184.348 80.6C184.348 80.48 184.368 80.42 184.408 80.42C184.948 80.42 185.358 80.43 185.638 80.45L187.438 80.48L188.578 80.45C188.778 80.43 189.098 80.42 189.538 80.42ZM204.945 90.26C205.005 90.26 205.055 90.3 205.095 90.38C205.155 90.44 205.165 90.5 205.125 90.56C203.785 91.76 202.305 92.36 200.685 92.36C199.505 92.36 198.495 92.1 197.655 91.58C196.815 91.04 196.175 90.33 195.735 89.45C195.295 88.55 195.075 87.59 195.075 86.57C195.075 85.39 195.355 84.31 195.915 83.33C196.495 82.35 197.275 81.58 198.255 81.02C199.235 80.44 200.315 80.15 201.495 80.15C202.655 80.15 203.535 80.45 204.135 81.05C204.755 81.63 205.065 82.47 205.065 83.57C205.065 84.11 204.945 84.38 204.705 84.38L197.295 84.41C197.255 84.85 197.235 85.19 197.235 85.43C197.235 87.17 197.645 88.57 198.465 89.63C199.285 90.69 200.445 91.22 201.945 91.22C202.545 91.22 203.045 91.15 203.445 91.01C203.865 90.85 204.355 90.6 204.915 90.26H204.945ZM200.475 80.75C199.635 80.75 198.945 81.04 198.405 81.62C197.865 82.18 197.515 82.97 197.355 83.99L202.815 83.87C202.815 82.85 202.605 82.08 202.185 81.56C201.785 81.02 201.215 80.75 200.475 80.75ZM231.542 92.12C230.942 92.12 230.252 92.09 229.472 92.03C229.172 92.01 228.802 91.99 228.362 91.97C227.942 91.95 227.472 91.94 226.952 91.94L224.882 91.97C224.502 91.99 223.992 92 223.352 92C223.312 92 223.292 91.94 223.292 91.82C223.292 91.7 223.312 91.64 223.352 91.64C224.092 91.64 224.632 91.59 224.972 91.49C225.312 91.39 225.542 91.2 225.662 90.92C225.802 90.62 225.872 90.17 225.872 89.57V75.68C225.872 75.08 225.812 74.64 225.692 74.36C225.572 74.08 225.342 73.89 225.002 73.79C224.662 73.67 224.122 73.61 223.382 73.61C223.342 73.61 223.322 73.55 223.322 73.43C223.322 73.31 223.342 73.25 223.382 73.25L224.882 73.28C225.762 73.32 226.452 73.34 226.952 73.34C227.712 73.34 228.462 73.31 229.202 73.25C230.162 73.21 230.802 73.19 231.122 73.19C233.202 73.19 235.042 73.59 236.642 74.39C238.242 75.19 239.482 76.28 240.362 77.66C241.242 79.04 241.682 80.59 241.682 82.31C241.682 84.25 241.222 85.97 240.302 87.47C239.402 88.95 238.172 90.1 236.612 90.92C235.072 91.72 233.382 92.12 231.542 92.12ZM231.242 91.64C232.782 91.64 234.142 91.31 235.322 90.65C236.522 89.97 237.452 88.98 238.112 87.68C238.792 86.36 239.132 84.79 239.132 82.97C239.132 81.23 238.812 79.66 238.172 78.26C237.532 76.84 236.622 75.72 235.442 74.9C234.282 74.08 232.932 73.67 231.392 73.67C230.532 73.67 229.872 73.72 229.412 73.82C228.952 73.92 228.612 74.12 228.392 74.42C228.172 74.7 228.062 75.14 228.062 75.74V89.24C228.062 90.12 228.272 90.74 228.692 91.1C229.132 91.46 229.982 91.64 231.242 91.64ZM258.524 90.26C258.584 90.26 258.634 90.3 258.674 90.38C258.734 90.44 258.744 90.5 258.704 90.56C257.364 91.76 255.884 92.36 254.264 92.36C253.084 92.36 252.074 92.1 251.234 91.58C250.394 91.04 249.754 90.33 249.314 89.45C248.874 88.55 248.654 87.59 248.654 86.57C248.654 85.39 248.934 84.31 249.494 83.33C250.074 82.35 250.854 81.58 251.834 81.02C252.814 80.44 253.894 80.15 255.074 80.15C256.234 80.15 257.114 80.45 257.714 81.05C258.334 81.63 258.644 82.47 258.644 83.57C258.644 84.11 258.524 84.38 258.284 84.38L250.874 84.41C250.834 84.85 250.814 85.19 250.814 85.43C250.814 87.17 251.224 88.57 252.044 89.63C252.864 90.69 254.024 91.22 255.524 91.22C256.124 91.22 256.624 91.15 257.024 91.01C257.444 90.85 257.934 90.6 258.494 90.26H258.524ZM254.054 80.75C253.214 80.75 252.524 81.04 251.984 81.62C251.444 82.18 251.094 82.97 250.934 83.99L256.394 83.87C256.394 82.85 256.184 82.08 255.764 81.56C255.364 81.02 254.794 80.75 254.054 80.75ZM277.429 80.42C277.469 80.42 277.489 80.48 277.489 80.6C277.489 80.72 277.469 80.78 277.429 80.78C276.909 80.78 276.459 80.96 276.079 81.32C275.719 81.66 275.369 82.24 275.029 83.06L271.279 91.97C271.239 92.07 271.129 92.12 270.949 92.12C270.789 92.12 270.679 92.07 270.619 91.97L266.359 82.91C265.959 82.03 265.619 81.46 265.339 81.2C265.059 80.92 264.719 80.78 264.319 80.78C264.259 80.78 264.229 80.72 264.229 80.6C264.229 80.48 264.259 80.42 264.319 80.42C264.699 80.42 264.999 80.43 265.219 80.45L266.509 80.48L268.549 80.45C268.849 80.43 269.259 80.42 269.779 80.42C269.839 80.42 269.869 80.48 269.869 80.6C269.869 80.72 269.839 80.78 269.779 80.78C268.599 80.78 268.009 81.01 268.009 81.47C268.009 81.63 268.049 81.79 268.129 81.95L271.699 89.45L274.399 82.94C274.539 82.56 274.609 82.26 274.609 82.04C274.609 81.2 273.839 80.78 272.299 80.78C272.259 80.78 272.239 80.72 272.239 80.6C272.239 80.48 272.259 80.42 272.299 80.42C272.839 80.42 273.249 80.43 273.529 80.45L275.329 80.48L276.469 80.45C276.669 80.43 276.989 80.42 277.429 80.42ZM292.836 90.26C292.896 90.26 292.946 90.3 292.986 90.38C293.046 90.44 293.056 90.5 293.016 90.56C291.676 91.76 290.196 92.36 288.576 92.36C287.396 92.36 286.386 92.1 285.546 91.58C284.706 91.04 284.066 90.33 283.626 89.45C283.186 88.55 282.966 87.59 282.966 86.57C282.966 85.39 283.246 84.31 283.806 83.33C284.386 82.35 285.166 81.58 286.146 81.02C287.126 80.44 288.206 80.15 289.386 80.15C290.546 80.15 291.426 80.45 292.026 81.05C292.646 81.63 292.956 82.47 292.956 83.57C292.956 84.11 292.836 84.38 292.596 84.38L285.186 84.41C285.146 84.85 285.126 85.19 285.126 85.43C285.126 87.17 285.536 88.57 286.356 89.63C287.176 90.69 288.336 91.22 289.836 91.22C290.436 91.22 290.936 91.15 291.336 91.01C291.756 90.85 292.246 90.6 292.806 90.26H292.836ZM288.366 80.75C287.526 80.75 286.836 81.04 286.296 81.62C285.756 82.18 285.406 82.97 285.246 83.99L290.706 83.87C290.706 82.85 290.496 82.08 290.076 81.56C289.676 81.02 289.106 80.75 288.366 80.75ZM299.861 92C299.801 92 299.771 91.94 299.771 91.82C299.771 91.7 299.801 91.64 299.861 91.64C300.601 91.64 301.091 91.51 301.331 91.25C301.571 90.97 301.691 90.41 301.691 89.57V74.12C301.691 73.4 301.621 72.88 301.481 72.56C301.361 72.24 301.131 72.08 300.791 72.08C300.491 72.08 300.041 72.22 299.441 72.5H299.411C299.331 72.5 299.261 72.45 299.201 72.35C299.161 72.23 299.181 72.16 299.261 72.14L303.221 70.28L303.341 70.25C303.401 70.25 303.471 70.28 303.551 70.34C303.631 70.4 303.671 70.46 303.671 70.52V89.57C303.671 90.41 303.781 90.97 304.001 91.25C304.241 91.51 304.741 91.64 305.501 91.64C305.561 91.64 305.591 91.7 305.591 91.82C305.591 91.94 305.561 92 305.501 92C305.021 92 304.631 91.99 304.331 91.97L302.681 91.94L301.001 91.97C300.721 91.99 300.341 92 299.861 92ZM317.944 92.39C316.764 92.39 315.724 92.11 314.824 91.55C313.944 90.97 313.254 90.2 312.754 89.24C312.274 88.26 312.034 87.2 312.034 86.06C312.034 84.76 312.354 83.66 312.994 82.76C313.634 81.84 314.444 81.16 315.424 80.72C316.424 80.26 317.444 80.03 318.484 80.03C319.664 80.03 320.694 80.32 321.574 80.9C322.474 81.48 323.164 82.25 323.644 83.21C324.124 84.15 324.364 85.15 324.364 86.21C324.364 87.45 324.074 88.54 323.494 89.48C322.914 90.4 322.134 91.12 321.154 91.64C320.174 92.14 319.104 92.39 317.944 92.39ZM318.814 91.82C319.854 91.82 320.654 91.43 321.214 90.65C321.794 89.87 322.084 88.68 322.084 87.08C322.084 85.82 321.884 84.7 321.484 83.72C321.084 82.74 320.534 81.98 319.834 81.44C319.134 80.9 318.354 80.63 317.494 80.63C316.474 80.63 315.684 81.01 315.124 81.77C314.564 82.53 314.284 83.64 314.284 85.1C314.284 86.34 314.474 87.48 314.854 88.52C315.254 89.54 315.794 90.35 316.474 90.95C317.154 91.53 317.934 91.82 318.814 91.82ZM339.528 80.03C340.348 80.03 341.108 80.25 341.808 80.69C342.528 81.13 343.098 81.77 343.518 82.61C343.938 83.45 344.148 84.43 344.148 85.55C344.148 87.07 343.808 88.35 343.128 89.39C342.468 90.41 341.638 91.17 340.638 91.67C339.638 92.15 338.648 92.39 337.668 92.39C337.048 92.39 336.498 92.34 336.018 92.24C335.538 92.14 335.058 91.96 334.578 91.7V97.82C334.578 98.42 334.648 98.86 334.788 99.14C334.948 99.42 335.228 99.61 335.628 99.71C336.048 99.83 336.688 99.89 337.548 99.89C337.588 99.89 337.608 99.95 337.608 100.07C337.608 100.19 337.588 100.25 337.548 100.25C336.828 100.25 336.268 100.24 335.868 100.22L333.648 100.19L331.998 100.22C331.718 100.24 331.338 100.25 330.858 100.25C330.798 100.25 330.768 100.19 330.768 100.07C330.768 99.95 330.798 99.89 330.858 99.89C331.398 99.89 331.788 99.83 332.028 99.71C332.288 99.61 332.458 99.42 332.538 99.14C332.638 98.86 332.688 98.42 332.688 97.82V83.75C332.688 83.05 332.608 82.55 332.448 82.25C332.308 81.93 332.038 81.77 331.638 81.77C331.258 81.77 330.738 81.92 330.078 82.22H330.048C329.968 82.22 329.908 82.17 329.868 82.07C329.808 81.97 329.818 81.91 329.898 81.89L333.408 80.21C333.488 80.17 333.558 80.15 333.618 80.15C333.878 80.15 334.098 80.36 334.278 80.78C334.458 81.18 334.558 81.76 334.578 82.52C335.418 81.66 336.238 81.03 337.038 80.63C337.858 80.23 338.688 80.03 339.528 80.03ZM338.508 91.73C339.548 91.73 340.388 91.27 341.028 90.35C341.688 89.43 342.018 88.14 342.018 86.48C342.018 84.82 341.648 83.54 340.908 82.64C340.188 81.72 339.258 81.26 338.118 81.26C337.438 81.26 336.818 81.42 336.258 81.74C335.698 82.04 335.138 82.48 334.578 83.06V89.87C335.098 90.49 335.658 90.96 336.258 91.28C336.878 91.58 337.628 91.73 338.508 91.73ZM360.67 90.26C360.73 90.26 360.78 90.3 360.82 90.38C360.88 90.44 360.89 90.5 360.85 90.56C359.51 91.76 358.03 92.36 356.41 92.36C355.23 92.36 354.22 92.1 353.38 91.58C352.54 91.04 351.9 90.33 351.46 89.45C351.02 88.55 350.8 87.59 350.8 86.57C350.8 85.39 351.08 84.31 351.64 83.33C352.22 82.35 353 81.58 353.98 81.02C354.96 80.44 356.04 80.15 357.22 80.15C358.38 80.15 359.26 80.45 359.86 81.05C360.48 81.63 360.79 82.47 360.79 83.57C360.79 84.11 360.67 84.38 360.43 84.38L353.02 84.41C352.98 84.85 352.96 85.19 352.96 85.43C352.96 87.17 353.37 88.57 354.19 89.63C355.01 90.69 356.17 91.22 357.67 91.22C358.27 91.22 358.77 91.15 359.17 91.01C359.59 90.85 360.08 90.6 360.64 90.26H360.67ZM356.2 80.75C355.36 80.75 354.67 81.04 354.13 81.62C353.59 82.18 353.24 82.97 353.08 83.99L358.54 83.87C358.54 82.85 358.33 82.08 357.91 81.56C357.51 81.02 356.94 80.75 356.2 80.75ZM374.895 80.15C375.335 80.15 375.755 80.28 376.155 80.54C376.575 80.8 376.785 81.11 376.785 81.47C376.785 81.75 376.685 81.99 376.485 82.19C376.305 82.37 376.055 82.46 375.735 82.46C375.535 82.46 375.365 82.42 375.225 82.34C375.085 82.26 374.925 82.14 374.745 81.98C374.545 81.82 374.365 81.7 374.205 81.62C374.065 81.54 373.885 81.5 373.665 81.5C373.405 81.5 373.135 81.6 372.855 81.8C372.595 82 372.165 82.44 371.565 83.12V89.57C371.565 90.15 371.635 90.59 371.775 90.89C371.935 91.17 372.215 91.37 372.615 91.49C373.015 91.59 373.625 91.64 374.445 91.64C374.505 91.64 374.535 91.7 374.535 91.82C374.535 91.94 374.505 92 374.445 92C373.785 92 373.255 91.99 372.855 91.97L370.605 91.94L368.985 91.97C368.705 91.99 368.325 92 367.845 92C367.785 92 367.755 91.94 367.755 91.82C367.755 91.7 367.785 91.64 367.845 91.64C368.365 91.64 368.745 91.59 368.985 91.49C369.245 91.37 369.415 91.17 369.495 90.89C369.595 90.59 369.645 90.15 369.645 89.57V83.69C369.645 83.03 369.565 82.55 369.405 82.25C369.245 81.95 368.985 81.8 368.625 81.8C368.325 81.8 367.795 81.95 367.035 82.25H367.005C366.925 82.25 366.865 82.21 366.825 82.13C366.785 82.03 366.805 81.96 366.885 81.92L370.485 80.18L370.665 80.15C370.865 80.15 371.055 80.38 371.235 80.84C371.435 81.28 371.545 81.86 371.565 82.58C372.385 81.64 373.035 81 373.515 80.66C373.995 80.32 374.455 80.15 374.895 80.15Z" fill="black"/>
<path d="M7.32 18.24C6.08 18.24 4.97333 17.9533 4 17.38C3.04 16.7933 2.29333 16.0067 1.76 15.02C1.24 14.02 0.98 12.9333 0.98 11.76C0.98 10.3867 1.32667 9.21333 2.02 8.24C2.71333 7.25333 3.6 6.51333 4.68 6.02C5.77333 5.52667 6.88667 5.28 8.02 5.28C9.28667 5.28 10.4 5.58 11.36 6.18C12.32 6.76667 13.0533 7.54667 13.56 8.52C14.08 9.49333 14.34 10.5267 14.34 11.62C14.34 12.8333 14.02 13.9467 13.38 14.96C12.74 15.9733 11.88 16.7733 10.8 17.36C9.73333 17.9467 8.57333 18.24 7.32 18.24ZM8.02 17.82C8.92667 17.82 9.74 17.6 10.46 17.16C11.1933 16.72 11.7667 16.0733 12.18 15.22C12.6067 14.3667 12.82 13.3533 12.82 12.18C12.82 10.9267 12.5867 9.81333 12.12 8.84C11.6533 7.86667 10.9933 7.10667 10.14 6.56C9.3 6.01333 8.31333 5.74 7.18 5.74C5.71333 5.74 4.56667 6.21333 3.74 7.16C2.91333 8.10667 2.5 9.40667 2.5 11.06C2.5 12.3133 2.73333 13.46 3.2 14.5C3.66667 15.5267 4.32 16.34 5.16 16.94C6 17.5267 6.95333 17.82 8.02 17.82ZM22.913 18.24C22.0463 18.24 21.3196 18.0533 20.733 17.68C20.1463 17.2933 19.713 16.8 19.433 16.2C19.153 15.6 19.013 14.9667 19.013 14.3C19.013 13.4467 19.2263 12.7067 19.653 12.08C20.0796 11.44 20.6263 10.9533 21.293 10.62C21.973 10.2733 22.6663 10.1 23.373 10.1C23.9596 10.1 24.493 10.22 24.973 10.46C25.4663 10.6867 25.713 10.9733 25.713 11.32C25.713 11.4933 25.6463 11.6467 25.513 11.78C25.393 11.9 25.2263 11.96 25.013 11.96C24.653 11.96 24.3596 11.74 24.133 11.3C23.9596 11.0333 23.773 10.8333 23.573 10.7C23.373 10.5667 23.0863 10.5 22.713 10.5C21.9663 10.5 21.3796 10.7933 20.953 11.38C20.5396 11.9533 20.333 12.7267 20.333 13.7C20.333 14.82 20.613 15.74 21.173 16.46C21.733 17.18 22.573 17.54 23.693 17.54C24.5063 17.54 25.1863 17.32 25.733 16.88H25.753C25.793 16.88 25.8263 16.9 25.853 16.94C25.893 16.98 25.8996 17.0133 25.873 17.04C25.4063 17.4533 24.933 17.76 24.453 17.96C23.9863 18.1467 23.473 18.24 22.913 18.24ZM35.7356 16.96C35.789 16.96 35.829 16.9933 35.8556 17.06C35.8823 17.1133 35.8756 17.1533 35.8356 17.18C35.3423 17.5667 34.8956 17.84 34.4956 18C34.109 18.16 33.7023 18.24 33.2756 18.24C32.7156 18.24 32.2556 18.1133 31.8956 17.86C31.5356 17.6067 31.3556 17.1867 31.3556 16.6V11.9C31.3556 11.5533 31.329 11.3067 31.2756 11.16C31.2356 11.0133 31.149 10.92 31.0156 10.88C30.8823 10.8267 30.6556 10.8 30.3356 10.8C30.2823 10.8 30.2556 10.76 30.2556 10.68C30.2556 10.5867 30.2823 10.54 30.3356 10.54C30.869 10.5267 31.3023 10.3867 31.6356 10.12C31.969 9.84 32.1623 9.47333 32.2156 9.02C32.2156 8.98 32.269 8.96 32.3756 8.96C32.469 8.96 32.5156 8.98 32.5156 9.02V10.5C33.1823 10.4867 34.109 10.42 35.2956 10.3C35.3223 10.3 35.349 10.3533 35.3756 10.46C35.4156 10.5533 35.4356 10.66 35.4356 10.78C35.4356 10.8867 35.409 11 35.3556 11.12C35.3156 11.2267 35.269 11.2733 35.2156 11.26C34.4823 11.0733 33.5823 10.9667 32.5156 10.94V15.92C32.5156 16.4667 32.649 16.8733 32.9156 17.14C33.1956 17.4067 33.589 17.54 34.0956 17.54C34.6823 17.54 35.2156 17.3533 35.6956 16.98L35.7356 16.96ZM47.7009 17.7C48.8743 16.74 49.7809 15.96 50.4209 15.36C51.0609 14.7467 51.5209 14.2 51.8009 13.72C52.0809 13.24 52.2209 12.76 52.2209 12.28C52.2209 11.7467 52.0543 11.3133 51.7209 10.98C51.4009 10.6333 50.9809 10.46 50.4609 10.46C49.4076 10.46 48.6476 11.2867 48.1809 12.94C48.1809 12.9533 48.1543 12.96 48.1009 12.96C47.9809 12.96 47.9276 12.9333 47.9409 12.88L48.7209 9.84C48.7209 9.81333 48.7476 9.8 48.8009 9.8C48.8409 9.8 48.8743 9.81333 48.9009 9.84C48.9409 9.85333 48.9543 9.86667 48.9409 9.88C48.9276 9.93333 48.9209 10.0067 48.9209 10.1C48.9209 10.3133 49.0209 10.42 49.2209 10.42C49.3409 10.42 49.5409 10.3733 49.8209 10.28C50.3676 10.1067 50.8543 10.02 51.2809 10.02C51.9609 10.02 52.4943 10.2067 52.8809 10.58C53.2809 10.94 53.4809 11.4133 53.4809 12C53.4809 12.4667 53.3276 12.9333 53.0209 13.4C52.7276 13.8667 52.2876 14.3667 51.7009 14.9C51.1276 15.42 50.3209 16.08 49.2809 16.88C49.2276 16.92 49.2076 16.9533 49.2209 16.98C49.2476 17.0067 49.2943 17.02 49.3609 17.02C50.8276 17.02 51.8476 17 52.4209 16.96C52.9943 16.92 53.4076 16.8133 53.6609 16.64C53.9143 16.4667 54.0876 16.16 54.1809 15.72C54.1809 15.6933 54.2143 15.68 54.2809 15.68C54.3743 15.68 54.4209 15.7 54.4209 15.74L54.1209 17.78C54.1209 17.8333 54.1009 17.8867 54.0609 17.94C54.0343 17.98 53.9943 18 53.9409 18H47.8409C47.7743 18 47.7209 17.9667 47.6809 17.9C47.6409 17.82 47.6476 17.7533 47.7009 17.7ZM62.8078 18.26C62.0211 18.26 61.3145 18.08 60.6878 17.72C60.0745 17.36 59.5878 16.8667 59.2278 16.24C58.8811 15.6 58.7078 14.88 58.7078 14.08C58.7078 13.2933 58.8811 12.5933 59.2278 11.98C59.5878 11.3667 60.0811 10.8867 60.7078 10.54C61.3345 10.1933 62.0411 10.02 62.8278 10.02C63.6011 10.02 64.2945 10.2 64.9078 10.56C65.5211 10.9067 65.9945 11.3933 66.3278 12.02C66.6745 12.6467 66.8478 13.3533 66.8478 14.14C66.8478 14.9267 66.6745 15.6333 66.3278 16.26C65.9811 16.8867 65.5011 17.38 64.8878 17.74C64.2745 18.0867 63.5811 18.26 62.8078 18.26ZM63.0278 17.98C63.8278 17.98 64.4278 17.66 64.8278 17.02C65.2411 16.3667 65.4478 15.4867 65.4478 14.38C65.4478 13.0467 65.1745 12.0333 64.6278 11.34C64.0945 10.6467 63.4211 10.3 62.6078 10.3C61.8211 10.3 61.2011 10.6333 60.7478 11.3C60.3078 11.9667 60.0878 12.84 60.0878 13.92C60.0878 15.1067 60.3545 16.08 60.8878 16.84C61.4211 17.6 62.1345 17.98 63.0278 17.98ZM71.2791 17.7C72.4524 16.74 73.3591 15.96 73.9991 15.36C74.6391 14.7467 75.0991 14.2 75.3791 13.72C75.6591 13.24 75.7991 12.76 75.7991 12.28C75.7991 11.7467 75.6324 11.3133 75.2991 10.98C74.9791 10.6333 74.5591 10.46 74.0391 10.46C72.9857 10.46 72.2257 11.2867 71.7591 12.94C71.7591 12.9533 71.7324 12.96 71.6791 12.96C71.5591 12.96 71.5057 12.9333 71.5191 12.88L72.2991 9.84C72.2991 9.81333 72.3257 9.8 72.3791 9.8C72.4191 9.8 72.4524 9.81333 72.4791 9.84C72.5191 9.85333 72.5324 9.86667 72.5191 9.88C72.5057 9.93333 72.4991 10.0067 72.4991 10.1C72.4991 10.3133 72.5991 10.42 72.7991 10.42C72.9191 10.42 73.1191 10.3733 73.3991 10.28C73.9457 10.1067 74.4324 10.02 74.8591 10.02C75.5391 10.02 76.0724 10.2067 76.4591 10.58C76.8591 10.94 77.0591 11.4133 77.0591 12C77.0591 12.4667 76.9057 12.9333 76.5991 13.4C76.3057 13.8667 75.8657 14.3667 75.2791 14.9C74.7057 15.42 73.8991 16.08 72.8591 16.88C72.8057 16.92 72.7857 16.9533 72.7991 16.98C72.8257 17.0067 72.8724 17.02 72.9391 17.02C74.4057 17.02 75.4257 17 75.9991 16.96C76.5724 16.92 76.9857 16.8133 77.2391 16.64C77.4924 16.4667 77.6657 16.16 77.7591 15.72C77.7591 15.6933 77.7924 15.68 77.8591 15.68C77.9524 15.68 77.9991 15.7 77.9991 15.74L77.6991 17.78C77.6991 17.8333 77.6791 17.8867 77.6391 17.94C77.6124 17.98 77.5724 18 77.5191 18H71.4191C71.3524 18 71.2991 17.9667 71.2591 17.9C71.2191 17.82 71.2257 17.7533 71.2791 17.7ZM82.3259 17.7C83.4993 16.74 84.4059 15.96 85.0459 15.36C85.6859 14.7467 86.1459 14.2 86.4259 13.72C86.7059 13.24 86.8459 12.76 86.8459 12.28C86.8459 11.7467 86.6793 11.3133 86.3459 10.98C86.0259 10.6333 85.6059 10.46 85.0859 10.46C84.0326 10.46 83.2726 11.2867 82.8059 12.94C82.8059 12.9533 82.7793 12.96 82.7259 12.96C82.6059 12.96 82.5526 12.9333 82.5659 12.88L83.3459 9.84C83.3459 9.81333 83.3726 9.8 83.4259 9.8C83.4659 9.8 83.4993 9.81333 83.5259 9.84C83.5659 9.85333 83.5793 9.86667 83.5659 9.88C83.5526 9.93333 83.5459 10.0067 83.5459 10.1C83.5459 10.3133 83.6459 10.42 83.8459 10.42C83.9659 10.42 84.1659 10.3733 84.4459 10.28C84.9926 10.1067 85.4793 10.02 85.9059 10.02C86.5859 10.02 87.1193 10.2067 87.5059 10.58C87.9059 10.94 88.1059 11.4133 88.1059 12C88.1059 12.4667 87.9526 12.9333 87.6459 13.4C87.3526 13.8667 86.9126 14.3667 86.3259 14.9C85.7526 15.42 84.9459 16.08 83.9059 16.88C83.8526 16.92 83.8326 16.9533 83.8459 16.98C83.8726 17.0067 83.9193 17.02 83.9859 17.02C85.4526 17.02 86.4726 17 87.0459 16.96C87.6193 16.92 88.0326 16.8133 88.2859 16.64C88.5393 16.4667 88.7126 16.16 88.8059 15.72C88.8059 15.6933 88.8393 15.68 88.9059 15.68C88.9993 15.68 89.0459 15.7 89.0459 15.74L88.7459 17.78C88.7459 17.8333 88.7259 17.8867 88.6859 17.94C88.6593 17.98 88.6193 18 88.5659 18H82.4659C82.3993 18 82.3459 17.9667 82.3059 17.9C82.2659 17.82 82.2726 17.7533 82.3259 17.7ZM101 19.52C100.974 19.52 100.947 19.4733 100.92 19.38C100.907 19.3 100.9 19.2067 100.9 19.1C100.9 19.0067 100.907 18.92 100.92 18.84C100.934 18.76 100.954 18.72 100.98 18.72H107.6C107.627 18.72 107.647 18.76 107.66 18.84C107.687 18.9333 107.7 19.0267 107.7 19.12C107.7 19.2133 107.687 19.3 107.66 19.38C107.647 19.4733 107.627 19.52 107.6 19.52H101ZM122.817 16.3C122.817 16.7267 122.87 17.04 122.977 17.24C123.097 17.4267 123.317 17.56 123.637 17.64C123.97 17.72 124.49 17.76 125.197 17.76C125.237 17.76 125.257 17.8 125.257 17.88C125.257 17.96 125.237 18 125.197 18C124.65 18 124.223 17.9933 123.917 17.98L122.177 17.96L120.837 17.98C120.583 17.9933 120.243 18 119.817 18C119.79 18 119.777 17.96 119.777 17.88C119.777 17.8 119.79 17.76 119.817 17.76C120.323 17.76 120.69 17.7267 120.917 17.66C121.157 17.5933 121.317 17.4667 121.397 17.28C121.477 17.08 121.517 16.78 121.517 16.38V7.12C121.517 6.72 121.477 6.42667 121.397 6.24C121.317 6.05333 121.157 5.92667 120.917 5.86C120.69 5.78 120.323 5.74 119.817 5.74C119.79 5.74 119.777 5.7 119.777 5.62C119.777 5.54 119.79 5.5 119.817 5.5L120.817 5.52C121.377 5.54667 121.823 5.56 122.157 5.56C122.49 5.56 122.863 5.54 123.277 5.5C123.437 5.5 123.69 5.49333 124.037 5.48C124.383 5.45333 124.683 5.44 124.937 5.44C126.163 5.44 127.143 5.71333 127.877 6.26C128.623 6.80667 128.997 7.64 128.997 8.76C128.997 9.64 128.777 10.38 128.337 10.98C127.91 11.58 127.357 12.0267 126.677 12.32C126.01 12.6133 125.317 12.76 124.597 12.76C124.197 12.76 123.87 12.7267 123.617 12.66C123.577 12.66 123.557 12.6267 123.557 12.56C123.557 12.52 123.563 12.48 123.577 12.44C123.603 12.4 123.63 12.3867 123.657 12.4C123.87 12.4533 124.11 12.48 124.377 12.48C125.257 12.48 125.997 12.1933 126.597 11.62C127.21 11.0467 127.517 10.22 127.517 9.14C127.517 8.08667 127.23 7.26 126.657 6.66C126.083 6.04667 125.35 5.74 124.457 5.74C123.977 5.74 123.63 5.76667 123.417 5.82C123.203 5.87333 123.05 6 122.957 6.2C122.863 6.38667 122.817 6.70667 122.817 7.16V16.3ZM138.297 10.1C138.59 10.1 138.87 10.18 139.137 10.34C139.404 10.5 139.537 10.6933 139.537 10.92C139.537 11.0933 139.477 11.24 139.357 11.36C139.25 11.48 139.09 11.54 138.877 11.54C138.757 11.54 138.65 11.52 138.557 11.48C138.477 11.4267 138.377 11.3533 138.257 11.26C138.137 11.1533 138.024 11.0733 137.917 11.02C137.81 10.9667 137.684 10.94 137.537 10.94C137.364 10.94 137.177 11.0133 136.977 11.16C136.79 11.3067 136.49 11.62 136.077 12.1V16.38C136.077 16.78 136.124 17.0733 136.217 17.26C136.324 17.4467 136.51 17.58 136.777 17.66C137.044 17.7267 137.457 17.76 138.017 17.76C138.07 17.76 138.097 17.8 138.097 17.88C138.097 17.96 138.07 18 138.017 18C137.59 18 137.25 17.9933 136.997 17.98L135.517 17.96L134.417 17.98C134.244 17.9933 134.004 18 133.697 18C133.657 18 133.637 17.96 133.637 17.88C133.637 17.8 133.657 17.76 133.697 17.76C134.057 17.76 134.324 17.7267 134.497 17.66C134.67 17.58 134.784 17.4467 134.837 17.26C134.904 17.0733 134.937 16.78 134.937 16.38V12.42C134.937 11.9667 134.884 11.64 134.777 11.44C134.67 11.24 134.49 11.14 134.237 11.14C134.024 11.14 133.664 11.24 133.157 11.44H133.117C133.064 11.44 133.024 11.4133 132.997 11.36C132.984 11.2933 133.004 11.2467 133.057 11.22L135.377 10.12L135.497 10.1C135.617 10.1 135.744 10.2533 135.877 10.56C136.01 10.8667 136.077 11.26 136.077 11.74V11.76C136.624 11.12 137.057 10.6867 137.377 10.46C137.697 10.22 138.004 10.1 138.297 10.1ZM150.028 16.88C150.068 16.88 150.101 16.9067 150.128 16.96C150.168 17 150.174 17.04 150.148 17.08C149.268 17.8533 148.294 18.24 147.228 18.24C146.454 18.24 145.794 18.06 145.248 17.7C144.701 17.34 144.281 16.8667 143.988 16.28C143.708 15.6933 143.568 15.0667 143.568 14.4C143.568 13.6133 143.754 12.8933 144.128 12.24C144.501 11.5733 145.008 11.0533 145.648 10.68C146.301 10.2933 147.014 10.1 147.788 10.1C148.534 10.1 149.108 10.3 149.508 10.7C149.908 11.1 150.108 11.66 150.108 12.38C150.108 12.5667 150.088 12.7 150.048 12.78C150.021 12.86 149.968 12.9 149.888 12.9L144.928 12.92C144.901 13.2133 144.888 13.4533 144.888 13.64C144.888 14.8 145.161 15.74 145.708 16.46C146.254 17.18 147.021 17.54 148.008 17.54C148.408 17.54 148.748 17.4867 149.028 17.38C149.321 17.2733 149.648 17.1067 150.008 16.88H150.028ZM147.128 10.5C146.554 10.5 146.081 10.6933 145.708 11.08C145.334 11.4533 145.088 11.98 144.968 12.66L148.768 12.58C148.768 11.9 148.621 11.3867 148.328 11.04C148.034 10.68 147.634 10.5 147.128 10.5ZM156.032 11.5C156.032 11.9667 156.185 12.34 156.492 12.62C156.798 12.8867 157.245 13.1733 157.832 13.48C158.298 13.72 158.658 13.9267 158.912 14.1C159.178 14.2733 159.405 14.5 159.592 14.78C159.778 15.06 159.872 15.4 159.872 15.8C159.872 16.48 159.618 17.0533 159.112 17.52C158.605 17.9867 157.918 18.22 157.052 18.22C156.345 18.22 155.705 18.02 155.132 17.62C155.052 17.5667 155.012 17.4867 155.012 17.38L154.972 15.82C154.972 15.78 155.005 15.76 155.072 15.76C155.152 15.7467 155.198 15.76 155.212 15.8C155.465 16.4667 155.792 16.9733 156.192 17.32C156.605 17.6667 157.078 17.84 157.612 17.84C158.052 17.84 158.385 17.7333 158.612 17.52C158.838 17.3067 158.938 16.9933 158.912 16.58C158.898 16.0733 158.738 15.6867 158.432 15.42C158.138 15.14 157.692 14.8533 157.092 14.56C156.652 14.3467 156.298 14.1533 156.032 13.98C155.778 13.8067 155.558 13.58 155.372 13.3C155.198 13.02 155.112 12.6733 155.112 12.26C155.112 11.54 155.378 10.9933 155.912 10.62C156.458 10.2333 157.098 10.04 157.832 10.04C158.365 10.04 158.852 10.14 159.292 10.34C159.372 10.3667 159.418 10.4 159.432 10.44C159.458 10.4667 159.472 10.5067 159.472 10.56C159.472 10.8267 159.465 11.0333 159.452 11.18L159.432 12.02C159.432 12.0467 159.392 12.06 159.312 12.06C159.232 12.06 159.192 12.0467 159.192 12.02C159.192 11.74 159.085 11.48 158.872 11.24C158.658 10.9867 158.392 10.7867 158.072 10.64C157.752 10.4933 157.432 10.42 157.112 10.42C156.778 10.42 156.512 10.5133 156.312 10.7C156.125 10.8733 156.032 11.14 156.032 11.5ZM170.95 16.88C170.99 16.88 171.023 16.9067 171.05 16.96C171.09 17 171.096 17.04 171.07 17.08C170.19 17.8533 169.216 18.24 168.15 18.24C167.376 18.24 166.716 18.06 166.17 17.7C165.623 17.34 165.203 16.8667 164.91 16.28C164.63 15.6933 164.49 15.0667 164.49 14.4C164.49 13.6133 164.676 12.8933 165.05 12.24C165.423 11.5733 165.93 11.0533 166.57 10.68C167.223 10.2933 167.936 10.1 168.71 10.1C169.456 10.1 170.03 10.3 170.43 10.7C170.83 11.1 171.03 11.66 171.03 12.38C171.03 12.5667 171.01 12.7 170.97 12.78C170.943 12.86 170.89 12.9 170.81 12.9L165.85 12.92C165.823 13.2133 165.81 13.4533 165.81 13.64C165.81 14.8 166.083 15.74 166.63 16.46C167.176 17.18 167.943 17.54 168.93 17.54C169.33 17.54 169.67 17.4867 169.95 17.38C170.243 17.2733 170.57 17.1067 170.93 16.88H170.95ZM168.05 10.5C167.476 10.5 167.003 10.6933 166.63 11.08C166.256 11.4533 166.01 11.98 165.89 12.66L169.69 12.58C169.69 11.9 169.543 11.3867 169.25 11.04C168.956 10.68 168.556 10.5 168.05 10.5ZM184.834 17.76C184.874 17.76 184.894 17.8 184.894 17.88C184.894 17.96 184.874 18 184.834 18C184.527 18 184.287 17.9933 184.114 17.98L183.034 17.96L181.934 17.98C181.76 17.9933 181.52 18 181.214 18C181.174 18 181.154 17.96 181.154 17.88C181.154 17.8 181.174 17.76 181.214 17.76C181.574 17.76 181.84 17.7267 182.014 17.66C182.187 17.58 182.3 17.4467 182.354 17.26C182.42 17.0733 182.454 16.78 182.454 16.38V13.14C182.454 12.3533 182.3 11.7733 181.994 11.4C181.7 11.0267 181.24 10.84 180.614 10.84C180.2 10.84 179.78 10.9533 179.354 11.18C178.94 11.3933 178.56 11.6933 178.214 12.08V16.38C178.214 16.78 178.24 17.0733 178.294 17.26C178.36 17.4467 178.48 17.58 178.654 17.66C178.827 17.7267 179.094 17.76 179.454 17.76C179.494 17.76 179.514 17.8 179.514 17.88C179.514 17.96 179.494 18 179.454 18C179.147 18 178.907 17.9933 178.734 17.98L177.654 17.96L176.554 17.98C176.38 17.9933 176.14 18 175.834 18C175.794 18 175.774 17.96 175.774 17.88C175.774 17.8 175.794 17.76 175.834 17.76C176.194 17.76 176.46 17.7267 176.634 17.66C176.807 17.58 176.92 17.4467 176.974 17.26C177.04 17.0733 177.074 16.78 177.074 16.38V12.42C177.074 11.9667 177.02 11.64 176.914 11.44C176.807 11.24 176.627 11.14 176.374 11.14C176.16 11.14 175.8 11.24 175.294 11.44H175.254C175.2 11.44 175.16 11.4133 175.134 11.36C175.12 11.2933 175.14 11.2467 175.194 11.22L177.514 10.12L177.634 10.1C177.754 10.1 177.88 10.2533 178.014 10.56C178.147 10.8667 178.214 11.26 178.214 11.74C178.72 11.1533 179.22 10.72 179.714 10.44C180.22 10.16 180.74 10.02 181.274 10.02C182.02 10.02 182.594 10.2267 182.994 10.64C183.394 11.0533 183.594 11.66 183.594 12.46V16.38C183.594 16.78 183.62 17.0733 183.674 17.26C183.74 17.4467 183.86 17.58 184.034 17.66C184.207 17.7267 184.474 17.76 184.834 17.76ZM194.486 16.96C194.539 16.96 194.579 16.9933 194.606 17.06C194.632 17.1133 194.626 17.1533 194.586 17.18C194.092 17.5667 193.646 17.84 193.246 18C192.859 18.16 192.452 18.24 192.026 18.24C191.466 18.24 191.006 18.1133 190.646 17.86C190.286 17.6067 190.106 17.1867 190.106 16.6V11.9C190.106 11.5533 190.079 11.3067 190.026 11.16C189.986 11.0133 189.899 10.92 189.766 10.88C189.632 10.8267 189.406 10.8 189.086 10.8C189.032 10.8 189.006 10.76 189.006 10.68C189.006 10.5867 189.032 10.54 189.086 10.54C189.619 10.5267 190.052 10.3867 190.386 10.12C190.719 9.84 190.912 9.47333 190.966 9.02C190.966 8.98 191.019 8.96 191.126 8.96C191.219 8.96 191.266 8.98 191.266 9.02V10.5C191.932 10.4867 192.859 10.42 194.046 10.3C194.072 10.3 194.099 10.3533 194.126 10.46C194.166 10.5533 194.186 10.66 194.186 10.78C194.186 10.8867 194.159 11 194.106 11.12C194.066 11.2267 194.019 11.2733 193.966 11.26C193.232 11.0733 192.332 10.9667 191.266 10.94V15.92C191.266 16.4667 191.399 16.8733 191.666 17.14C191.946 17.4067 192.339 17.54 192.846 17.54C193.432 17.54 193.966 17.3533 194.446 16.98L194.486 16.96Z" fill="black"/>
</svg>
