<svg xmlns="http://www.w3.org/2000/svg" width="443" height="101" fill="#000" xmlns:v="https://vecta.io/nano"><path d="M21.962 38.99c0 .047-.07.082-.21.105-.117.023-.187 0-.21-.07-.56-2.66-2.182-3.99-4.865-3.99h-1.4c-.84 0-1.435.152-1.785.455s-.525.805-.525 1.505v7.595h2.87c2.613 0 3.92-.875 3.92-2.625 0-.047.07-.07.21-.07s.21.023.21.07l-.035 3.08.035 1.61.035 1.82c0 .07-.07.105-.21.105s-.21-.035-.21-.105c0-1.983-1.342-2.975-4.025-2.975h-2.8v7.525c0 .747.093 1.295.28 1.645.187.327.548.56 1.085.7.56.14 1.412.21 2.555.21.047 0 .07.07.07.21s-.023.21-.07.21c-.957 0-1.703-.012-2.24-.035l-3.43-.035-2.555.035L6.807 56c-.07 0-.105-.07-.105-.21s.035-.21.105-.21c.84 0 1.447-.058 1.82-.175.397-.117.665-.338.805-.665.14-.35.21-.875.21-1.575V36.96c0-.7-.07-1.213-.21-1.54-.117-.327-.362-.548-.735-.665-.373-.14-.945-.21-1.715-.21-.07 0-.105-.07-.105-.21s.035-.21.105-.21h14.56c.233 0 .35.105.35.315l.07 4.55zm17.1 3.15c.537 0 1.05.175 1.54.525s.735.77.735 1.26c0 .443-.14.805-.42 1.085-.257.28-.618.42-1.085.42-.303 0-.56-.058-.77-.175-.187-.14-.385-.327-.595-.56-.21-.21-.397-.362-.56-.455-.163-.117-.362-.175-.595-.175-.257 0-.537.105-.84.315-.28.187-.723.595-1.33 1.225v7.56c0 .653.093 1.155.28 1.505.187.327.502.56.945.7s1.097.21 1.96.21c.093 0 .14.07.14.21s-.047.21-.14.21c-.77 0-1.388-.012-1.855-.035l-2.765-.035-2.03.035-1.365.035c-.07 0-.105-.07-.105-.21s.035-.21.105-.21c.793 0 1.318-.163 1.575-.49s.385-.968.385-1.925V46.48c0-.747-.093-1.295-.28-1.645-.163-.35-.443-.525-.84-.525-.35 0-.933.175-1.75.525h-.035c-.093 0-.163-.058-.21-.175s-.035-.187.035-.21l4.585-2.24.245-.07c.233 0 .467.257.7.77.233.49.373 1.143.42 1.96.91-1.027 1.668-1.738 2.275-2.135s1.155-.595 1.645-.595zm21.011 11.655c.047 0 .093.047.14.14.07.093.082.163.035.21-.863.793-1.727 1.377-2.59 1.75-.863.35-1.797.525-2.8.525-1.423 0-2.66-.315-3.71-.945-1.027-.63-1.82-1.458-2.38-2.485a7.07 7.07 0 0 1-.805-3.325c0-1.377.338-2.637 1.015-3.78a7.3 7.3 0 0 1 2.765-2.695c1.19-.677 2.508-1.015 3.955-1.015 1.4 0 2.485.338 3.255 1.015s1.155 1.68 1.155 3.01c0 .677-.14 1.015-.42 1.015l-8.54.035a9.34 9.34 0 0 0-.035.945c0 2.053.467 3.687 1.4 4.9.957 1.19 2.31 1.785 4.06 1.785.653 0 1.202-.07 1.645-.21.443-.163 1.038-.443 1.785-.84l.07-.035zm-5.635-10.92a2.65 2.65 0 0 0-2.135 1.015c-.537.653-.898 1.563-1.085 2.73l5.6-.105c-.047-2.427-.84-3.64-2.38-3.64zm25.206 10.92c.047 0 .093.047.14.14.07.093.082.163.035.21-.863.793-1.727 1.377-2.59 1.75-.863.35-1.797.525-2.8.525-1.423 0-2.66-.315-3.71-.945-1.027-.63-1.82-1.458-2.38-2.485a7.07 7.07 0 0 1-.805-3.325c0-1.377.338-2.637 1.015-3.78a7.3 7.3 0 0 1 2.765-2.695c1.19-.677 2.508-1.015 3.955-1.015 1.4 0 2.485.338 3.255 1.015s1.155 1.68 1.155 3.01c0 .677-.14 1.015-.42 1.015l-8.54.035a9.34 9.34 0 0 0-.035.945c0 2.053.467 3.687 1.4 4.9.957 1.19 2.31 1.785 4.06 1.785.653 0 1.202-.07 1.645-.21.443-.163 1.038-.443 1.785-.84l.07-.035zm-5.635-10.92a2.65 2.65 0 0 0-2.135 1.015c-.537.653-.898 1.563-1.085 2.73l5.6-.105c-.047-2.427-.84-3.64-2.38-3.64zM87.45 56c-.07 0-.105-.07-.105-.21s.035-.21.105-.21c.77 0 1.295-.163 1.575-.49.28-.35.42-.992.42-1.925V35.28c0-.817-.082-1.4-.245-1.75a.79.79 0 0 0-.805-.56c-.35 0-.817.14-1.4.42h-.035c-.093 0-.163-.058-.21-.175s-.047-.198 0-.245l4.935-2.31.14-.035c.093 0 .198.047.315.14.14.093.21.175.21.245v22.155c0 .957.128 1.598.385 1.925s.782.49 1.575.49c.07 0 .105.07.105.21s-.035.21-.105.21c-.56 0-1.015-.012-1.365-.035l-2.065-.035-2.03.035-1.4.035zm27.848-1.89c.093 0 .152.058.175.175.023.093-.012.163-.105.21l-3.605 1.715c-.093.047-.198.07-.315.07-.35 0-.688-.198-1.015-.595-.303-.42-.502-.968-.595-1.645l-1.61 1.12c-.56.397-1.073.677-1.54.84-.443.163-.945.245-1.505.245-.957 0-1.692-.222-2.205-.665-.49-.467-.735-1.073-.735-1.82 0-.63.163-1.143.49-1.54.35-.397.782-.712 1.295-.945.537-.257 1.318-.572 2.345-.945l3.395-1.26v-2.1c0-1.447-.152-2.497-.455-3.15-.28-.677-.735-1.015-1.365-1.015-.77 0-1.33.292-1.68.875-.327.56-.525 1.19-.595 1.89-.14 1.19-.735 1.785-1.785 1.785-.513 0-.898-.117-1.155-.35-.233-.233-.35-.525-.35-.875 0-.653.385-1.283 1.155-1.89.793-.63 1.738-1.132 2.835-1.505 1.12-.397 2.1-.595 2.94-.595 1.003 0 1.797.315 2.38.945.607.63.91 1.575.91 2.835v6.3c0 .723.117 1.272.35 1.645s.572.56 1.015.56c.35 0 .77-.105 1.26-.315h.07zm-5.53-.63v-.35-3.465l-2.1.875c-.607.233-1.108.513-1.505.84-.373.303-.56.747-.56 1.33 0 .56.175 1.015.525 1.365.373.327.817.49 1.33.49.42 0 .863-.14 1.33-.42l.98-.665zm28.487 2.1c.07 0 .105.07.105.21s-.035.21-.105.21c-.583 0-1.038-.012-1.365-.035l-2.03-.035-1.995.035-1.4.035c-.07 0-.105-.07-.105-.21s.035-.21.105-.21c.794 0 1.319-.163 1.575-.49s.385-.968.385-1.925v-5.25c0-1.307-.245-2.263-.735-2.87-.466-.63-1.213-.945-2.24-.945-.606 0-1.225.14-1.855.42s-1.201.653-1.715 1.12v7.525c0 .957.129 1.598.385 1.925s.782.49 1.575.49c.07 0 .105.07.105.21s-.035.21-.105.21c-.583 0-1.038-.012-1.365-.035l-2.03-.035-2.03.035-1.365.035c-.07 0-.105-.07-.105-.21s.035-.21.105-.21c.794 0 1.319-.163 1.575-.49s.385-.968.385-1.925V46.48c0-.747-.093-1.295-.28-1.645-.163-.35-.443-.525-.84-.525-.35 0-.933.175-1.75.525h-.035c-.093 0-.163-.058-.21-.175s-.035-.187.035-.21l4.585-2.24.245-.07c.234 0 .467.268.7.805.257.513.397 1.19.42 2.03 1.634-1.937 3.407-2.905 5.32-2.905 1.284 0 2.287.397 3.01 1.19.724.77 1.085 1.82 1.085 3.15v6.755c0 .957.129 1.598.385 1.925s.782.49 1.575.49zm14.086.84c-1.517 0-2.812-.327-3.885-.98-1.05-.677-1.832-1.54-2.345-2.59-.514-1.073-.77-2.193-.77-3.36 0-1.47.396-2.753 1.19-3.85a7.69 7.69 0 0 1 3.045-2.555c1.26-.607 2.531-.91 3.815-.91 1.096 0 2.088.222 2.975.665s1.33 1.038 1.33 1.785c0 .397-.152.747-.455 1.05-.304.28-.724.42-1.26.42-.887 0-1.529-.525-1.925-1.575-.234-.583-.479-.992-.735-1.225-.257-.257-.665-.385-1.225-.385-1.097 0-1.972.502-2.625 1.505-.63.98-.945 2.298-.945 3.955 0 1.937.443 3.512 1.33 4.725.91 1.19 2.321 1.785 4.235 1.785.653 0 1.236-.082 1.75-.245s1.073-.42 1.68-.77h.035c.07 0 .128.035.175.105.07.07.081.128.035.175-.864.77-1.715 1.342-2.555 1.715s-1.797.56-2.87.56zm16.552-17.955c-.607 0-1.085-.163-1.435-.49-.327-.327-.49-.793-.49-1.4 0-.583.163-1.027.49-1.33.35-.327.828-.49 1.435-.49.583 0 1.038.163 1.365.49.326.303.49.747.49 1.33 0 .607-.164 1.073-.49 1.4-.304.327-.759.49-1.365.49zM165.673 56c-.07 0-.105-.07-.105-.21s.035-.21.105-.21c.793 0 1.318-.163 1.575-.49s.385-.968.385-1.925v-6.37c0-.793-.082-1.365-.245-1.715-.164-.373-.444-.56-.84-.56-.35 0-.805.14-1.365.42h-.035c-.094 0-.164-.058-.21-.175s-.035-.198.035-.245l5.04-2.345.105-.035c.093 0 .186.058.28.175.116.093.175.175.175.245v.735l-.07 3.465v6.405c0 .957.128 1.598.385 1.925.28.327.816.49 1.61.49.07 0 .105.07.105.21s-.035.21-.105.21a22.09 22.09 0 0 1-1.4-.035l-2.03-.035-2.03.035-1.365.035zm30.647-.42c.07 0 .105.07.105.21s-.035.21-.105.21c-.584 0-1.039-.012-1.365-.035l-2.03-.035-1.995.035-1.4.035c-.07 0-.105-.07-.105-.21s.035-.21.105-.21c.793 0 1.318-.163 1.575-.49s.385-.968.385-1.925v-5.25c0-1.307-.245-2.263-.735-2.87-.467-.63-1.214-.945-2.24-.945-.607 0-1.225.14-1.855.42a6.39 6.39 0 0 0-1.715 1.12v7.525c0 .957.128 1.598.385 1.925s.781.49 1.575.49c.07 0 .105.07.105.21s-.035.21-.105.21c-.584 0-1.039-.012-1.365-.035l-2.03-.035-2.03.035-1.365.035c-.07 0-.105-.07-.105-.21s.035-.21.105-.21c.793 0 1.318-.163 1.575-.49s.385-.968.385-1.925V46.48c0-.747-.094-1.295-.28-1.645-.164-.35-.444-.525-.84-.525-.35 0-.934.175-1.75.525h-.035c-.094 0-.164-.058-.21-.175s-.035-.187.035-.21l4.585-2.24.245-.07c.233 0 .466.268.7.805.256.513.396 1.19.42 2.03 1.633-1.937 3.406-2.905 5.32-2.905 1.283 0 2.286.397 3.01 1.19.723.77 1.085 1.82 1.085 3.15v6.755c0 .957.128 1.598.385 1.925s.781.49 1.575.49zm14.715-.805l3.255.21c.84.117 1.563.443 2.17.98.63.537.945 1.377.945 2.52 0 1.283-.408 2.485-1.225 3.605-.817 1.143-1.902 2.053-3.255 2.73a9.57 9.57 0 0 1-4.34 1.015c-1.61 0-2.917-.362-3.92-1.085-.98-.723-1.47-1.668-1.47-2.835 0-1.657 1.19-3.278 3.57-4.865-1.727-.327-2.59-1.155-2.59-2.485a3.57 3.57 0 0 1 .595-1.995c.42-.607 1.05-1.202 1.89-1.785-.863-.397-1.54-.968-2.03-1.715-.467-.747-.7-1.54-.7-2.38 0-.91.28-1.703.84-2.38s1.283-1.19 2.17-1.54a8.02 8.02 0 0 1 2.905-.525c1.493 0 2.73.373 3.71 1.12.63-.397 1.248-.688 1.855-.875.607-.21 1.26-.315 1.96-.315.163 0 .245.303.245.91a3.95 3.95 0 0 1-.14 1.015c-.07.35-.152.49-.245.42-.98-.373-1.82-.56-2.52-.56-.21 0-.362.012-.455.035.677.747 1.015 1.633 1.015 2.66 0 .887-.28 1.692-.84 2.415s-1.295 1.283-2.205 1.68a7.19 7.19 0 0 1-2.905.595c-.77 0-1.47-.105-2.1-.315-.513.49-.77 1.073-.77 1.75 0 .84.338 1.377 1.015 1.61.7.233 1.89.362 3.57.385zm-2.24-11.9c-1.26 0-1.89.945-1.89 2.835 0 .98.152 1.855.455 2.625.327.77.735 1.365 1.225 1.785.513.42 1.038.63 1.575.63.607 0 1.108-.257 1.505-.77.397-.537.595-1.342.595-2.415 0-.98-.175-1.82-.525-2.52-.327-.723-.758-1.26-1.295-1.61-.513-.373-1.062-.56-1.645-.56zm1.68 21.875c1.33 0 2.392-.397 3.185-1.19.817-.77 1.225-1.82 1.225-3.15 0-.98-.222-1.692-.665-2.135-.42-.443-.992-.723-1.715-.84-.7-.117-1.703-.175-3.01-.175-.653 0-1.283-.035-1.89-.105-1.097.793-1.645 1.843-1.645 3.15 0 1.4.42 2.485 1.26 3.255.863.793 1.948 1.19 3.255 1.19zM19.312 77.27c0 .06-.06.09-.18.09-.1 0-.15-.03-.15-.09-.12-1.08-.49-1.91-1.11-2.49s-1.43-.87-2.43-.87h-1.65c-.9 0-1.51.13-1.83.39-.32.24-.48.71-.48 1.41v6.57h2.88c1.08 0 1.86-.17 2.34-.51.48-.36.72-.91.72-1.65 0-.04.06-.06.18-.06s.18.02.18.06l-.03 2.49.03 1.32.03 1.5c0 .04-.06.06-.18.06s-.18-.02-.18-.06c0-.88-.25-1.51-.75-1.89-.5-.4-1.31-.6-2.43-.6h-2.79v6.51c0 .64.08 1.11.24 1.41.18.28.51.48.99.6.5.12 1.28.18 2.34.18.04 0 .06.06.06.18s-.02.18-.06.18a47.03 47.03 0 0 1-1.92-.03l-2.79-.03-2.04.03-1.56.03c-.06 0-.09-.06-.09-.18s.03-.18.09-.18c.74 0 1.28-.05 1.62-.15.36-.1.6-.29.72-.57.14-.3.21-.75.21-1.35V75.68c0-.6-.06-1.04-.18-1.32s-.35-.47-.69-.57c-.34-.12-.88-.18-1.62-.18-.04 0-.06-.06-.06-.18s.02-.18.06-.18h12.18c.18 0 .27.09.27.27l.06 3.75zm20.722 12.96c.08 0 .13.05.15.15.04.1.03.17-.03.21l-3.63 1.71-.12.03c-.2 0-.39-.24-.57-.72s-.27-1.1-.27-1.86c-1.5 1.68-3.06 2.52-4.68 2.52-1.02 0-1.82-.32-2.4-.96s-.87-1.55-.87-2.73v-4.59c0-.76-.07-1.31-.21-1.65-.12-.34-.34-.51-.66-.51-.24 0-.57.09-.99.27h-.06c-.06 0-.11-.05-.15-.15-.02-.1 0-.16.06-.18l3.45-1.59.12-.03c.06 0 .13.03.21.09s.12.12.12.18v7.05c0 2.3.84 3.45 2.52 3.45.6 0 1.21-.15 1.83-.45a6 6 0 0 0 1.71-1.26v-5.22c0-.76-.07-1.31-.21-1.65s-.37-.51-.69-.51c-.24 0-.57.09-.99.27h-.06c-.06 0-.1-.05-.12-.15s0-.16.06-.18l3.45-1.59.12-.03c.06 0 .12.03.18.09.08.06.12.12.12.18v8.31c0 .68.08 1.17.24 1.47s.42.45.78.45c.3 0 .81-.13 1.53-.39l.06-.03zM45.887 92c-.06 0-.09-.06-.09-.18s.03-.18.09-.18c.74 0 1.23-.13 1.47-.39.24-.28.36-.84.36-1.68V74.12c0-.72-.07-1.24-.21-1.56-.12-.32-.35-.48-.69-.48-.3 0-.75.14-1.35.42h-.03c-.08 0-.15-.05-.21-.15-.04-.12-.02-.19.06-.21l3.96-1.86.12-.03c.06 0 .13.03.21.09s.12.12.12.18v19.05c0 .84.11 1.4.33 1.68.24.26.74.39 1.5.39.06 0 .09.06.09.18s-.03.18-.09.18c-.48 0-.87-.01-1.17-.03l-1.65-.03-1.68.03-1.14.03zm12.293 0c-.06 0-.09-.06-.09-.18s.03-.18.09-.18c.74 0 1.23-.13 1.47-.39.24-.28.36-.84.36-1.68V74.12c0-.72-.07-1.24-.21-1.56-.12-.32-.35-.48-.69-.48-.3 0-.75.14-1.35.42h-.03c-.08 0-.15-.05-.21-.15-.04-.12-.02-.19.06-.21l3.96-1.86.12-.03c.06 0 .13.03.21.09s.12.12.12.18v19.05c0 .84.11 1.4.33 1.68.24.26.74.39 1.5.39.06 0 .09.06.09.18s-.03.18-.09.18c-.48 0-.87-.01-1.17-.03L61 91.94l-1.68.03-1.14.03zm27.154-15.33c0 .76.19 1.43.57 2.01s.84 1.07 1.38 1.47 1.3.89 2.28 1.47l2.4 1.59a5.85 5.85 0 0 1 1.47 1.65c.42.66.63 1.44.63 2.34 0 .98-.25 1.86-.75 2.64-.48.78-1.19 1.4-2.13 1.86-.94.44-2.05.66-3.33.66-1.62 0-3.06-.36-4.32-1.08-.1-.06-.17-.13-.21-.21s-.07-.2-.09-.36l-.33-4.2c-.02-.08.02-.13.12-.15.12-.02.19.01.21.09.4 1.48 1.03 2.75 1.89 3.81.86 1.04 2 1.56 3.42 1.56.98 0 1.8-.26 2.46-.78s.99-1.37.99-2.55c0-.9-.2-1.67-.6-2.31a5.85 5.85 0 0 0-1.47-1.65c-.56-.46-1.33-.98-2.31-1.56l-2.28-1.53c-.54-.42-1-.94-1.38-1.56-.38-.64-.57-1.39-.57-2.25 0-1.02.27-1.88.81-2.58a4.73 4.73 0 0 1 2.13-1.59c.88-.36 1.81-.54 2.79-.54a9.45 9.45 0 0 1 3.57.69c.3.14.45.32.45.54l.18 3.6c0 .08-.06.13-.18.15-.1.02-.16-.01-.18-.09-.2-1.06-.65-2.06-1.35-3s-1.71-1.41-3.03-1.41c-1.06 0-1.87.31-2.43.93-.54.62-.81 1.4-.81 2.34zm24.274 13.68c.06 0 .11.05.15.15.04.08.03.14-.03.18-.74.6-1.41 1.03-2.01 1.29s-1.24.39-1.92.39c-.84 0-1.54-.19-2.1-.57-.54-.4-.81-1.05-.81-1.95v-6.99c0-.48-.04-.83-.12-1.05a.72.72 0 0 0-.45-.48c-.2-.08-.53-.12-.99-.12-.06 0-.09-.07-.09-.21s.03-.21.09-.21c.84-.02 1.52-.23 2.04-.63.54-.4.87-.96.99-1.68.02-.06.1-.09.239-.09s.211.03.211.09v2.28c.96-.02 2.33-.12 4.11-.3.06 0 .11.07.15.21a1.75 1.75 0 0 1 .06.48 1.7 1.7 0 0 1-.09.54c-.06.16-.13.23-.21.21-1.12-.26-2.46-.41-4.02-.45v7.38c0 1.6.78 2.4 2.34 2.4.84 0 1.64-.28 2.4-.84l.06-.03zm17.696.03c.08 0 .13.05.15.15.02.08-.01.14-.09.18l-3.09 1.47c-.08.04-.17.06-.27.06-.26 0-.5-.17-.72-.51-.2-.36-.34-.84-.42-1.44l-1.5.99c-.48.34-.92.58-1.32.72a3.53 3.53 0 0 1-1.23.21c-.76 0-1.35-.19-1.77-.57-.42-.4-.63-.9-.63-1.5 0-.64.25-1.17.75-1.59.52-.44 1.34-.87 2.46-1.29l3.21-1.17v-1.98c0-1.2-.16-2.07-.48-2.61a1.45 1.45 0 0 0-1.35-.81c-.66 0-1.16.23-1.5.69a3.62 3.62 0 0 0-.66 1.56c-.12.88-.53 1.32-1.23 1.32-.36 0-.63-.09-.81-.27s-.27-.4-.27-.66c0-.5.31-1 .93-1.5.64-.5 1.4-.91 2.28-1.23.9-.32 1.69-.48 2.37-.48.82 0 1.45.27 1.89.81.46.52.69 1.28.69 2.28v5.55c0 .68.09 1.18.27 1.5a.99.99 0 0 0 .9.48c.36 0 .82-.12 1.38-.36h.06zm-4.47-.54v-.18-3.15l-2.52 1.02c-.54.2-.95.45-1.23.75-.28.28-.42.64-.42 1.08 0 .48.15.88.45 1.2.32.3.72.45 1.2.45.4 0 .85-.15 1.35-.45l1.17-.72zm16.018 2.52c-1.3 0-2.39-.28-3.27-.84-.88-.58-1.54-1.32-1.98-2.22a6.66 6.66 0 0 1-.63-2.85c0-1.28.33-2.39.99-3.33.66-.96 1.5-1.69 2.52-2.19 1.02-.52 2.07-.78 3.15-.78.9 0 1.71.18 2.43.54.74.36 1.11.81 1.11 1.35a.97.97 0 0 1-.33.75c-.2.2-.47.3-.81.3-.64 0-1.12-.36-1.44-1.08-.22-.44-.48-.76-.78-.96-.28-.2-.69-.3-1.23-.3-1.08 0-1.92.44-2.52 1.32-.6.86-.9 2.01-.9 3.45 0 1.68.41 3.06 1.23 4.14.82 1.06 2.07 1.59 3.75 1.59 1.14 0 2.14-.32 3-.96h.06c.06 0 .11.03.15.09.06.06.06.11 0 .15-.7.64-1.41 1.11-2.13 1.41-.7.28-1.49.42-2.37.42zm24.542-.72c.04 0 .06.06.06.18s-.02.18-.06.18c-.5 0-.89-.01-1.17-.03l-1.62-.03-2.19.03-1.32.03c-.04 0-.06-.06-.06-.18s.02-.18.06-.18c.96 0 1.44-.2 1.44-.6 0-.18-.09-.39-.27-.63l-3.66-4.89-1.32 1.05v3c0 .84.12 1.4.36 1.68.24.26.74.39 1.5.39.06 0 .09.06.09.18s-.03.18-.09.18c-.5 0-.89-.01-1.17-.03l-1.62-.03-1.68.03-1.11.03c-.06 0-.09-.06-.09-.18s.03-.18.09-.18c.74 0 1.23-.13 1.47-.39.24-.28.36-.84.36-1.68V74.12c0-.72-.07-1.24-.21-1.56a.73.73 0 0 0-.72-.48c-.28 0-.72.14-1.32.42h-.03c-.08 0-.15-.05-.21-.15-.04-.1-.02-.17.06-.21l3.87-1.86.15-.03c.06 0 .12.03.18.09.08.06.12.12.12.18v15.54l3.81-3.18c.62-.5.93-.94.93-1.32 0-.24-.14-.43-.42-.57-.26-.14-.66-.21-1.2-.21-.06 0-.09-.06-.09-.18s.03-.18.09-.18l1.26.03 2.22.03 2.04-.03 1.11-.03c.04 0 .06.06.06.18s-.02.18-.06.18c-.78 0-1.64.19-2.58.57-.92.36-1.83.91-2.73 1.65l-1.65 1.32 3.9 5.25c1 1.38 2.14 2.07 3.42 2.07zm25.398.48c-.6 0-1.29-.03-2.07-.09l-1.11-.06-1.41-.03-2.07.03-1.53.03c-.04 0-.06-.06-.06-.18s.02-.18.06-.18c.74 0 1.28-.05 1.62-.15s.57-.29.69-.57c.14-.3.21-.75.21-1.35V75.68c0-.6-.06-1.04-.18-1.32s-.35-.47-.69-.57c-.34-.12-.88-.18-1.62-.18-.04 0-.06-.06-.06-.18s.02-.18.06-.18l1.5.03 2.07.06 2.25-.09 1.92-.06c2.08 0 3.92.4 5.52 1.2s2.84 1.89 3.72 3.27 1.32 2.93 1.32 4.65c0 1.94-.46 3.66-1.38 5.16-.9 1.48-2.13 2.63-3.69 3.45-1.54.8-3.23 1.2-5.07 1.2zm-.3-.48c1.54 0 2.9-.33 4.08-.99 1.2-.68 2.13-1.67 2.79-2.97.68-1.32 1.02-2.89 1.02-4.71 0-1.74-.32-3.31-.96-4.71-.64-1.42-1.55-2.54-2.73-3.36-1.16-.82-2.51-1.23-4.05-1.23-.86 0-1.52.05-1.98.15s-.8.3-1.02.6c-.22.28-.33.72-.33 1.32v13.5c0 .88.21 1.5.63 1.86.44.36 1.29.54 2.55.54zm27.282-1.38c.06 0 .11.04.15.12.06.06.07.12.03.18-1.34 1.2-2.82 1.8-4.44 1.8-1.18 0-2.19-.26-3.03-.78a5.32 5.32 0 0 1-1.92-2.13 6.47 6.47 0 0 1-.66-2.88c0-1.18.28-2.26.84-3.24.58-.98 1.36-1.75 2.34-2.31.98-.58 2.06-.87 3.24-.87 1.16 0 2.04.3 2.64.9.62.58.93 1.42.93 2.52 0 .54-.12.81-.36.81l-7.41.03-.06 1.02c0 1.74.41 3.14 1.23 4.2s1.98 1.59 3.48 1.59c.6 0 1.1-.07 1.5-.21.42-.16.91-.41 1.47-.75h.03zm-4.47-9.51c-.84 0-1.53.29-2.07.87-.54.56-.89 1.35-1.05 2.37l5.46-.12c0-1.02-.21-1.79-.63-2.31-.4-.54-.97-.81-1.71-.81zm23.375-.33c.04 0 .06.06.06.18s-.02.18-.06.18c-.52 0-.97.18-1.35.54-.36.34-.71.92-1.05 1.74l-3.75 8.91c-.04.1-.15.15-.33.15-.16 0-.27-.05-.33-.15l-4.26-9.06c-.4-.88-.74-1.45-1.02-1.71a1.39 1.39 0 0 0-1.02-.42c-.06 0-.09-.06-.09-.18s.03-.18.09-.18l.9.03 1.29.03 2.04-.03 1.23-.03c.06 0 .09.06.09.18s-.03.18-.09.18c-1.18 0-1.77.23-1.77.69 0 .16.04.32.12.48l3.57 7.5 2.7-6.51c.14-.38.21-.68.21-.9 0-.84-.77-1.26-2.31-1.26-.04 0-.06-.06-.06-.18s.02-.18.06-.18l1.23.03 1.8.03 1.14-.03c.2-.02.52-.03.96-.03zm15.407 9.84c.06 0 .11.04.15.12.06.06.07.12.03.18-1.34 1.2-2.82 1.8-4.44 1.8-1.18 0-2.19-.26-3.03-.78a5.32 5.32 0 0 1-1.92-2.13 6.47 6.47 0 0 1-.66-2.88c0-1.18.28-2.26.84-3.24.58-.98 1.36-1.75 2.34-2.31.98-.58 2.06-.87 3.24-.87 1.16 0 2.04.3 2.64.9.62.58.93 1.42.93 2.52 0 .54-.12.81-.36.81l-7.41.03-.06 1.02c0 1.74.41 3.14 1.23 4.2s1.98 1.59 3.48 1.59c.6 0 1.1-.07 1.5-.21.42-.16.91-.41 1.47-.75h.03zm-4.47-9.51c-.84 0-1.53.29-2.07.87-.54.56-.89 1.35-1.05 2.37l5.46-.12c0-1.02-.21-1.79-.63-2.31-.4-.54-.97-.81-1.71-.81zM257.111 92c-.06 0-.09-.06-.09-.18s.03-.18.09-.18c.74 0 1.23-.13 1.47-.39.24-.28.36-.84.36-1.68V74.12c0-.72-.07-1.24-.21-1.56-.12-.32-.35-.48-.69-.48-.3 0-.75.14-1.35.42h-.03c-.08 0-.15-.05-.21-.15-.04-.12-.02-.19.06-.21l3.96-1.86.12-.03c.06 0 .13.03.21.09s.12.12.12.18v19.05c0 .84.11 1.4.33 1.68.24.26.74.39 1.5.39.06 0 .09.06.09.18s-.03.18-.09.18c-.48 0-.87-.01-1.17-.03l-1.65-.03-1.68.03-1.14.03zm18.083.39c-1.18 0-2.22-.28-3.12-.84-.88-.58-1.57-1.35-2.07-2.31-.48-.98-.72-2.04-.72-3.18 0-1.3.32-2.4.96-3.3.64-.92 1.45-1.6 2.43-2.04 1-.46 2.02-.69 3.06-.69 1.18 0 2.21.29 3.09.87a5.77 5.77 0 0 1 2.07 2.31c.48.94.72 1.94.72 3 0 1.24-.29 2.33-.87 3.27-.58.92-1.36 1.64-2.34 2.16-.98.5-2.05.75-3.21.75zm.87-.57c1.04 0 1.84-.39 2.4-1.17.58-.78.87-1.97.87-3.57 0-1.26-.2-2.38-.6-3.36s-.95-1.74-1.65-2.28-1.48-.81-2.34-.81c-1.02 0-1.81.38-2.37 1.14s-.84 1.87-.84 3.33c0 1.24.19 2.38.57 3.42.4 1.02.94 1.83 1.62 2.43a3.5 3.5 0 0 0 2.34.87zm20.714-11.79c.82 0 1.58.22 2.28.66.72.44 1.29 1.08 1.71 1.92s.63 1.82.63 2.94c0 1.52-.34 2.8-1.02 3.84-.66 1.02-1.49 1.78-2.49 2.28-1 .48-1.99.72-2.97.72-.62 0-1.17-.05-1.65-.15s-.96-.28-1.44-.54v6.12c0 .6.07 1.04.21 1.32.16.28.44.47.84.57.42.12 1.06.18 1.92.18.04 0 .06.06.06.18s-.02.18-.06.18c-.72 0-1.28-.01-1.68-.03l-2.22-.03-1.65.03-1.14.03c-.06 0-.09-.06-.09-.18s.03-.18.09-.18c.54 0 .93-.06 1.17-.18.26-.1.43-.29.51-.57.1-.28.15-.72.15-1.32V83.75c0-.7-.08-1.2-.24-1.5-.14-.32-.41-.48-.81-.48-.38 0-.9.15-1.56.45h-.03c-.08 0-.14-.05-.18-.15-.06-.1-.05-.16.03-.18l3.51-1.68c.08-.04.15-.06.21-.06.26 0 .48.21.66.63.18.4.28.98.3 1.74.84-.86 1.66-1.49 2.46-1.89.82-.4 1.65-.6 2.49-.6zm-1.02 11.7c1.04 0 1.88-.46 2.52-1.38.66-.92.99-2.21.99-3.87s-.37-2.94-1.11-3.84a3.38 3.38 0 0 0-2.79-1.38c-.68 0-1.3.16-1.86.48-.56.3-1.12.74-1.68 1.32v6.81c.52.62 1.08 1.09 1.68 1.41.62.3 1.37.45 2.25.45zm22.162-1.47c.06 0 .11.04.15.12.06.06.07.12.03.18-1.34 1.2-2.82 1.8-4.44 1.8-1.18 0-2.19-.26-3.03-.78a5.32 5.32 0 0 1-1.92-2.13 6.47 6.47 0 0 1-.66-2.88c0-1.18.28-2.26.84-3.24.58-.98 1.36-1.75 2.34-2.31.98-.58 2.06-.87 3.24-.87 1.16 0 2.04.3 2.64.9.62.58.93 1.42.93 2.52 0 .54-.12.81-.36.81l-7.41.03-.06 1.02c0 1.74.41 3.14 1.23 4.2s1.98 1.59 3.48 1.59c.6 0 1.1-.07 1.5-.21.42-.16.91-.41 1.47-.75h.03zm-4.47-9.51c-.84 0-1.53.29-2.07.87-.54.56-.89 1.35-1.05 2.37l5.46-.12c0-1.02-.21-1.79-.63-2.31-.4-.54-.97-.81-1.71-.81zm18.695-.6c.44 0 .86.13 1.26.39.42.26.63.57.63.93a.98.98 0 0 1-.3.72c-.18.18-.43.27-.75.27-.2 0-.37-.04-.51-.12s-.3-.2-.48-.36c-.2-.16-.38-.28-.54-.36-.14-.08-.32-.12-.54-.12-.26 0-.53.1-.81.3-.26.2-.69.64-1.29 1.32v6.45c0 .58.07 1.02.21 1.32.16.28.44.48.84.6.4.1 1.01.15 1.83.15.06 0 .09.06.09.18s-.03.18-.09.18a33.35 33.35 0 0 1-1.59-.03l-2.25-.03-1.62.03-1.14.03c-.06 0-.09-.06-.09-.18s.03-.18.09-.18c.52 0 .9-.05 1.14-.15.26-.12.43-.32.51-.6.1-.3.15-.74.15-1.32v-5.88c0-.66-.08-1.14-.24-1.44s-.42-.45-.78-.45c-.3 0-.83.15-1.59.45h-.03c-.08 0-.14-.04-.18-.12-.04-.1-.02-.17.06-.21l3.6-1.74.18-.03c.2 0 .39.23.57.69.2.44.31 1.02.33 1.74.82-.94 1.47-1.58 1.95-1.92s.94-.51 1.38-.51z"/><path d="M14.98 17.76c.053 0 .08.04.08.12s-.027.12-.08.12c-.253 0-.647-.013-1.18-.04l-1.16-.04-1.12.04-.98.04c-.053 0-.08-.04-.08-.12s.027-.12.08-.12c.493 0 .853-.047 1.08-.14s.34-.253.34-.48c0-.187-.087-.473-.26-.86L9.92 12.5H5.16L3.9 15.46c-.187.453-.28.82-.28 1.1 0 .413.16.72.48.92.333.187.827.28 1.48.28.067 0 .1.04.1.12s-.033.12-.1.12c-.24 0-.587-.013-1.04-.04l-1.32-.04-1.2.04-1 .04c-.067 0-.1-.04-.1-.12s.033-.12.1-.12c.373 0 .687-.067.94-.2.267-.147.513-.393.74-.74.24-.36.5-.873.78-1.54L7.7 5.32c.027-.04.073-.06.14-.06s.107.02.12.06l4.72 9.94c.453.987.84 1.653 1.16 2 .32.333.7.5 1.14.5zM5.32 12.1h4.42L7.4 7.16 5.32 12.1zm19.103-2.08c.547 0 1.053.147 1.52.44s.84.72 1.12 1.28.42 1.213.42 1.96c0 1-.227 1.847-.68 2.54-.453.68-1.013 1.187-1.68 1.52-.653.333-1.3.5-1.94.5-.413 0-.787-.04-1.12-.12-.32-.08-.653-.213-1-.4v4.14c0 .4.047.693.14.88.107.187.3.313.58.38.28.08.707.12 1.28.12.027 0 .04.04.04.12s-.013.12-.04.12c-.453 0-.813-.007-1.08-.02l-1.46-.02-1.1.02-.74.02c-.04 0-.06-.04-.06-.12s.02-.12.06-.12c.36 0 .627-.04.8-.12a.6.6 0 0 0 .36-.38c.067-.187.1-.48.1-.88v-9.4c0-.48-.053-.82-.16-1.02-.107-.213-.293-.32-.56-.32-.293 0-.647.093-1.06.28l-.04.02c-.053 0-.087-.033-.1-.1-.027-.067-.02-.113.02-.14l2.22-1.06c.027-.013.073-.02.14-.02.187 0 .34.14.46.42s.187.68.2 1.2c1.133-1.147 2.253-1.72 3.36-1.72zm-.64 7.82c.707 0 1.287-.307 1.74-.92.453-.627.68-1.493.68-2.6 0-1.12-.247-1.987-.74-2.6-.493-.627-1.12-.94-1.88-.94a2.59 2.59 0 0 0-1.3.34c-.4.227-.807.547-1.22.96v4.5c.373.413.767.727 1.18.94.427.213.94.32 1.54.32zm12.975-7.74a1.61 1.61 0 0 1 .84.24c.267.16.4.353.4.58a.6.6 0 0 1-.18.44c-.107.12-.267.18-.48.18-.12 0-.227-.02-.32-.06l-.3-.22c-.12-.107-.233-.187-.34-.24a.84.84 0 0 0-.38-.08c-.173 0-.36.073-.56.22-.187.147-.487.46-.9.94v4.28c0 .4.047.693.14.88.107.187.293.32.56.4.267.067.68.1 1.24.1.053 0 .08.04.08.12s-.027.12-.08.12c-.427 0-.767-.007-1.02-.02l-1.48-.02-1.1.02-.72.02c-.04 0-.06-.04-.06-.12s.02-.12.06-.12c.36 0 .627-.033.8-.1a.6.6 0 0 0 .34-.4c.067-.187.1-.48.1-.88v-3.96c0-.453-.053-.78-.16-.98s-.287-.3-.54-.3c-.213 0-.573.1-1.08.3h-.04c-.053 0-.093-.027-.12-.08-.013-.067.007-.113.06-.14l2.32-1.1.12-.02c.12 0 .247.153.38.46s.2.7.2 1.18v.02c.547-.64.98-1.073 1.3-1.3.32-.24.627-.36.92-.36zm13.213 7.6l2.72-2.34c.64-.613 1.1-1.16 1.38-1.64s.42-.96.42-1.44c0-.533-.167-.967-.5-1.3-.32-.347-.74-.52-1.26-.52-1.053 0-1.813.827-2.28 2.48 0 .013-.027.02-.08.02-.12 0-.173-.027-.16-.08l.78-3.04c0-.027.027-.04.08-.04.04 0 .073.013.1.04.04.013.053.027.04.04-.013.053-.02.127-.02.22 0 .213.1.32.3.32.12 0 .32-.047.6-.14.547-.173 1.033-.26 1.46-.26.68 0 1.213.187 1.6.56.4.36.6.833.6 1.42 0 .467-.153.933-.46 1.4-.293.467-.733.967-1.32 1.5-.573.52-1.38 1.18-2.42 1.98-.053.04-.073.073-.06.1.027.027.073.04.14.04l3.06-.06c.573-.04.987-.147 1.24-.32s.427-.48.52-.92c0-.027.033-.04.1-.04.093 0 .14.02.14.06l-.3 2.04c0 .053-.02.107-.06.16-.027.04-.067.06-.12.06h-6.1c-.067 0-.12-.033-.16-.1-.04-.08-.033-.147.02-.2zm15.107.56c-.787 0-1.493-.18-2.12-.54-.613-.36-1.1-.853-1.46-1.48-.347-.64-.52-1.36-.52-2.16 0-.787.173-1.487.52-2.1a3.84 3.84 0 0 1 1.48-1.44c.627-.347 1.333-.52 2.12-.52.773 0 1.467.18 2.08.54.613.347 1.087.833 1.42 1.46.347.627.52 1.333.52 2.12s-.173 1.493-.52 2.12a3.84 3.84 0 0 1-1.44 1.48c-.613.347-1.307.52-2.08.52zm.22-.28c.8 0 1.4-.32 1.8-.96.413-.653.62-1.533.62-2.64 0-1.333-.273-2.347-.82-3.04-.533-.693-1.207-1.04-2.02-1.04-.787 0-1.407.333-1.86 1-.44.667-.66 1.54-.66 2.62 0 1.187.267 2.16.8 2.92s1.247 1.14 2.14 1.14zm8.251-.28l2.72-2.34c.64-.613 1.1-1.16 1.38-1.64s.42-.96.42-1.44c0-.533-.167-.967-.5-1.3-.32-.347-.74-.52-1.26-.52-1.053 0-1.813.827-2.28 2.48 0 .013-.027.02-.08.02-.12 0-.173-.027-.16-.08l.78-3.04c0-.027.027-.04.08-.04.04 0 .073.013.1.04.04.013.053.027.04.04a.95.95 0 0 0-.02.22c0 .213.1.32.3.32.12 0 .32-.047.6-.14.547-.173 1.033-.26 1.46-.26.68 0 1.213.187 1.6.56.4.36.6.833.6 1.42 0 .467-.153.933-.46 1.4-.293.467-.733.967-1.32 1.5-.573.52-1.38 1.18-2.42 1.98-.053.04-.073.073-.06.1.027.027.073.04.14.04l3.06-.06c.573-.04.987-.147 1.24-.32s.427-.48.52-.92c0-.027.033-.04.1-.04.093 0 .14.02.14.06l-.3 2.04c0 .053-.02.107-.06.16-.027.04-.067.06-.12.06h-6.1c-.067 0-.12-.033-.16-.1-.04-.08-.033-.147.02-.2zm13.067-5.8c0-.413-.04-.713-.12-.9s-.24-.313-.48-.38c-.227-.067-.6-.1-1.12-.1-.04 0-.06-.04-.06-.12s.02-.12.06-.12l.92.02 1.36.02 1.34-.02.94-.02c.04 0 .06.04.06.12s-.02.12-.06.12c-.493 0-.86.04-1.1.12-.227.067-.387.193-.48.38s-.14.48-.14.88v4.48c0 .413.04.713.12.9s.233.313.46.38c.24.067.62.1 1.14.1.04 0 .06.04.06.12s-.02.12-.06.12c-.387 0-.693-.007-.92-.02l-1.36-.02-1.34.02-.94.02c-.04 0-.06-.04-.06-.12s.02-.12.06-.12c.493 0 .853-.033 1.08-.1.24-.08.407-.213.5-.4s.14-.48.14-.88V11.9zm15.249 7.62c-.027 0-.054-.047-.08-.14a1.65 1.65 0 0 1-.02-.28c0-.093.006-.18.02-.26s.033-.12.06-.12h6.62c.026 0 .046.04.06.12a1.04 1.04 0 0 1 .04.28c0 .093-.014.18-.04.26-.014.093-.034.14-.06.14h-6.6zM122.74 7.84c0 .52.127.973.38 1.36a3.79 3.79 0 0 0 .92.98l1.52.96 1.62 1.06c.387.28.713.64.98 1.08.28.427.42.94.42 1.54 0 .64-.16 1.22-.48 1.74s-.793.933-1.42 1.24c-.613.293-1.353.44-2.22.44-1.027 0-1.967-.233-2.82-.7-.067-.04-.113-.087-.14-.14a2.19 2.19 0 0 1-.04-.24l-.26-2.72c-.013-.053.013-.087.08-.1.08-.013.127.007.14.06.213.96.607 1.787 1.18 2.48.587.693 1.36 1.04 2.32 1.04.667 0 1.227-.18 1.68-.54.467-.373.7-.96.7-1.76 0-.6-.133-1.12-.4-1.56s-.593-.8-.98-1.08c-.373-.293-.887-.633-1.54-1.02l-1.52-1c-.36-.28-.667-.633-.92-1.06s-.38-.927-.38-1.5c0-.667.173-1.233.52-1.7.36-.48.82-.833 1.38-1.06.573-.24 1.18-.36 1.82-.36.787 0 1.567.16 2.34.48.2.067.3.18.3.34l.14 2.3c0 .053-.033.08-.1.08s-.107-.027-.12-.08c-.107-.693-.393-1.333-.86-1.92-.467-.6-1.14-.9-2.02-.9-.747 0-1.307.22-1.68.66-.36.427-.54.96-.54 1.6zm17.104 9.04c.04 0 .073.027.1.08.04.04.047.08.02.12-.88.773-1.853 1.16-2.92 1.16-.773 0-1.433-.18-1.98-.54a3.59 3.59 0 0 1-1.26-1.42 4.31 4.31 0 0 1-.42-1.88 4.28 4.28 0 0 1 .56-2.16c.373-.667.88-1.187 1.52-1.56.653-.387 1.367-.58 2.14-.58.747 0 1.32.2 1.72.6s.6.96.6 1.68c0 .187-.02.32-.06.4-.027.08-.08.12-.16.12l-4.96.02-.04.72c0 1.16.273 2.1.82 2.82s1.313 1.08 2.3 1.08c.4 0 .74-.053 1.02-.16a5.26 5.26 0 0 0 .98-.5h.02zm-2.9-6.38c-.573 0-1.047.193-1.42.58-.373.373-.62.9-.74 1.58l3.8-.08c0-.68-.147-1.193-.44-1.54-.293-.36-.693-.54-1.2-.54zm13.264-.48c.547 0 1.053.147 1.52.44s.84.72 1.12 1.28.42 1.213.42 1.96c0 1-.227 1.847-.68 2.54-.453.68-1.013 1.187-1.68 1.52-.653.333-1.3.5-1.94.5-.413 0-.787-.04-1.12-.12a4.35 4.35 0 0 1-1-.4v4.14c0 .4.047.693.14.88.107.187.3.313.58.38.28.08.707.12 1.28.12.027 0 .04.04.04.12s-.013.12-.04.12a22.85 22.85 0 0 1-1.08-.02l-1.46-.02-1.1.02-.74.02c-.04 0-.06-.04-.06-.12s.02-.12.06-.12c.36 0 .627-.04.8-.12.173-.067.293-.193.36-.38s.1-.48.1-.88v-9.4c0-.48-.053-.82-.16-1.02-.107-.213-.293-.32-.56-.32-.293 0-.647.093-1.06.28l-.04.02c-.053 0-.087-.033-.1-.1-.027-.067-.02-.113.02-.14l2.22-1.06c.027-.013.073-.02.14-.02.187 0 .34.14.46.42s.187.68.2 1.2c1.133-1.147 2.253-1.72 3.36-1.72zm-.64 7.82c.707 0 1.287-.307 1.74-.92.453-.627.68-1.493.68-2.6 0-1.12-.247-1.987-.74-2.6-.493-.627-1.12-.94-1.88-.94a2.59 2.59 0 0 0-1.3.34c-.4.227-.807.547-1.22.96v4.5c.373.413.767.727 1.18.94.427.213.94.32 1.54.32zm13.695-.88c.053 0 .093.033.12.1.027.053.02.093-.02.12-.493.387-.94.66-1.34.82a3.16 3.16 0 0 1-1.22.24c-.56 0-1.02-.127-1.38-.38s-.54-.673-.54-1.26v-4.7c0-.347-.027-.593-.08-.74-.04-.147-.127-.24-.26-.28-.133-.053-.36-.08-.68-.08-.053 0-.08-.04-.08-.12 0-.093.027-.14.08-.14.533-.013.967-.153 1.3-.42a1.63 1.63 0 0 0 .58-1.1c0-.04.053-.06.16-.06.093 0 .14.02.14.06v1.48c.667-.013 1.593-.08 2.78-.2.027 0 .053.053.08.16.04.093.06.2.06.32 0 .107-.027.22-.08.34-.04.107-.087.153-.14.14-.733-.187-1.633-.293-2.7-.32v4.98c0 .547.133.953.4 1.22.28.267.673.4 1.18.4.587 0 1.12-.187 1.6-.56l.04-.02zm11.965.74l2.72-2.34c.64-.613 1.1-1.16 1.38-1.64s.42-.96.42-1.44c0-.533-.166-.967-.5-1.3-.32-.347-.74-.52-1.26-.52-1.053 0-1.813.827-2.28 2.48 0 .013-.026.02-.08.02-.12 0-.173-.027-.16-.08l.78-3.04c0-.027.027-.04.08-.04.04 0 .074.013.1.04.04.013.054.027.04.04a.97.97 0 0 0-.02.22c0 .213.1.32.3.32.12 0 .32-.047.6-.14.547-.173 1.034-.26 1.46-.26.68 0 1.214.187 1.6.56.4.36.6.833.6 1.42 0 .467-.153.933-.46 1.4-.293.467-.733.967-1.32 1.5-.573.52-1.38 1.18-2.42 1.98-.053.04-.073.073-.06.1.027.027.074.04.14.04l3.06-.06c.574-.04.987-.147 1.24-.32s.427-.48.52-.92c0-.027.034-.04.1-.04.094 0 .14.02.14.06l-.3 2.04c0 .053-.02.107-.06.16-.026.04-.066.06-.12.06h-6.1c-.066 0-.12-.033-.16-.1-.04-.08-.033-.147.02-.2zm15.107.56c-.787 0-1.493-.18-2.12-.54a3.99 3.99 0 0 1-1.46-1.48c-.347-.64-.52-1.36-.52-2.16 0-.787.173-1.487.52-2.1.36-.613.853-1.093 1.48-1.44s1.333-.52 2.12-.52c.773 0 1.467.18 2.08.54.613.347 1.087.833 1.42 1.46.347.627.52 1.333.52 2.12s-.173 1.493-.52 2.12-.827 1.12-1.44 1.48c-.613.347-1.307.52-2.08.52zm.22-.28c.8 0 1.4-.32 1.8-.96.413-.653.62-1.533.62-2.64 0-1.333-.273-2.347-.82-3.04-.533-.693-1.207-1.04-2.02-1.04a2.13 2.13 0 0 0-1.86 1c-.44.667-.66 1.54-.66 2.62 0 1.187.267 2.16.8 2.92s1.247 1.14 2.14 1.14zm8.251-.28l2.72-2.34c.64-.613 1.1-1.16 1.38-1.64s.42-.96.42-1.44c0-.533-.166-.967-.5-1.3-.32-.347-.74-.52-1.26-.52-1.053 0-1.813.827-2.28 2.48 0 .013-.026.02-.08.02-.12 0-.173-.027-.16-.08l.78-3.04c0-.027.027-.04.08-.04.04 0 .074.013.1.04.04.013.054.027.04.04a.97.97 0 0 0-.02.22c0 .213.1.32.3.32.12 0 .32-.047.6-.14.547-.173 1.034-.26 1.46-.26.68 0 1.214.187 1.6.56.4.36.6.833.6 1.42 0 .467-.153.933-.46 1.4-.293.467-.733.967-1.32 1.5-.573.52-1.38 1.18-2.42 1.98-.053.04-.073.073-.06.1.027.027.074.04.14.04l3.06-.06c.574-.04.987-.147 1.24-.32s.427-.48.52-.92c0-.027.034-.04.1-.04.094 0 .14.02.14.06l-.3 2.04c0 .053-.02.107-.06.16-.026.04-.066.06-.12.06h-6.1c-.066 0-.12-.033-.16-.1-.04-.08-.033-.147.02-.2zm13.067-5.8c0-.413-.04-.713-.12-.9s-.24-.313-.48-.38c-.226-.067-.6-.1-1.12-.1-.04 0-.06-.04-.06-.12s.02-.12.06-.12l.92.02 1.36.02 1.34-.02.94-.02c.04 0 .06.04.06.12s-.02.12-.06.12c-.493 0-.86.04-1.1.12-.226.067-.386.193-.48.38s-.14.48-.14.88v4.48c0 .413.04.713.12.9s.234.313.46.38c.24.067.62.1 1.14.1.04 0 .06.04.06.12s-.02.12-.06.12a16.57 16.57 0 0 1-.92-.02l-1.36-.02-1.34.02-.94.02c-.04 0-.06-.04-.06-.12s.02-.12.06-.12c.494 0 .854-.033 1.08-.1.24-.08.407-.213.5-.4s.14-.48.14-.88V11.9z"/></svg>