<svg width="443" height="101" viewBox="0 0 443 101" fill="none" xmlns="http://www.w3.org/2000/svg">
<path d="M21.9617 38.99C21.9617 39.0367 21.8917 39.0717 21.7517 39.095C21.6351 39.1183 21.5651 39.095 21.5417 39.025C20.9817 36.365 19.3601 35.035 16.6767 35.035H15.2767C14.4367 35.035 13.8417 35.1867 13.4917 35.49C13.1417 35.7933 12.9667 36.295 12.9667 36.995V44.59H15.8367C18.4501 44.59 19.7567 43.715 19.7567 41.965C19.7567 41.9183 19.8267 41.895 19.9667 41.895C20.1067 41.895 20.1767 41.9183 20.1767 41.965L20.1417 45.045C20.1417 45.7683 20.1534 46.305 20.1767 46.655L20.2117 48.475C20.2117 48.545 20.1417 48.58 20.0017 48.58C19.8617 48.58 19.7917 48.545 19.7917 48.475C19.7917 46.4917 18.4501 45.5 15.7667 45.5H12.9667V53.025C12.9667 53.7717 13.0601 54.32 13.2467 54.67C13.4334 54.9967 13.7951 55.23 14.3317 55.37C14.8917 55.51 15.7434 55.58 16.8867 55.58C16.9334 55.58 16.9567 55.65 16.9567 55.79C16.9567 55.93 16.9334 56 16.8867 56C15.9301 56 15.1834 55.9883 14.6467 55.965L11.2167 55.93L8.66172 55.965C8.21839 55.9883 7.60005 56 6.80672 56C6.73672 56 6.70172 55.93 6.70172 55.79C6.70172 55.65 6.73672 55.58 6.80672 55.58C7.64672 55.58 8.25339 55.5217 8.62672 55.405C9.02339 55.2883 9.29172 55.0667 9.43172 54.74C9.57172 54.39 9.64172 53.865 9.64172 53.165V36.96C9.64172 36.26 9.57172 35.7467 9.43172 35.42C9.31505 35.0933 9.07005 34.8717 8.69672 34.755C8.32339 34.615 7.75172 34.545 6.98172 34.545C6.91172 34.545 6.87672 34.475 6.87672 34.335C6.87672 34.195 6.91172 34.125 6.98172 34.125H21.5417C21.7751 34.125 21.8917 34.23 21.8917 34.44L21.9617 38.99ZM39.062 42.14C39.5986 42.14 40.112 42.315 40.602 42.665C41.092 43.015 41.337 43.435 41.337 43.925C41.337 44.3683 41.197 44.73 40.917 45.01C40.6603 45.29 40.2986 45.43 39.832 45.43C39.5286 45.43 39.272 45.3717 39.062 45.255C38.8753 45.115 38.677 44.9283 38.467 44.695C38.257 44.485 38.0703 44.3333 37.907 44.24C37.7436 44.1233 37.5453 44.065 37.312 44.065C37.0553 44.065 36.7753 44.17 36.472 44.38C36.192 44.5667 35.7486 44.975 35.142 45.605V53.165C35.142 53.8183 35.2353 54.32 35.422 54.67C35.6086 54.9967 35.9236 55.23 36.367 55.37C36.8103 55.51 37.4636 55.58 38.327 55.58C38.4203 55.58 38.467 55.65 38.467 55.79C38.467 55.93 38.4203 56 38.327 56C37.557 56 36.9386 55.9883 36.472 55.965L33.707 55.93L31.677 55.965C31.3503 55.9883 30.8953 56 30.312 56C30.242 56 30.207 55.93 30.207 55.79C30.207 55.65 30.242 55.58 30.312 55.58C31.1053 55.58 31.6303 55.4167 31.887 55.09C32.1436 54.7633 32.272 54.1217 32.272 53.165V46.48C32.272 45.7333 32.1786 45.185 31.992 44.835C31.8286 44.485 31.5486 44.31 31.152 44.31C30.802 44.31 30.2186 44.485 29.402 44.835H29.367C29.2736 44.835 29.2036 44.7767 29.157 44.66C29.1103 44.5433 29.122 44.4733 29.192 44.45L33.777 42.21C33.917 42.1633 33.9986 42.14 34.022 42.14C34.2553 42.14 34.4886 42.3967 34.722 42.91C34.9553 43.4 35.0953 44.0533 35.142 44.87C36.052 43.8433 36.8103 43.1317 37.417 42.735C38.0236 42.3383 38.572 42.14 39.062 42.14ZM60.0726 53.795C60.1193 53.795 60.166 53.8417 60.2126 53.935C60.2826 54.0283 60.2943 54.0983 60.2476 54.145C59.3843 54.9383 58.521 55.5217 57.6576 55.895C56.7943 56.245 55.861 56.42 54.8576 56.42C53.4343 56.42 52.1976 56.105 51.1476 55.475C50.121 54.845 49.3276 54.0167 48.7676 52.99C48.231 51.9633 47.9626 50.855 47.9626 49.665C47.9626 48.2883 48.301 47.0283 48.9776 45.885C49.6543 44.7417 50.576 43.8433 51.7426 43.19C52.9326 42.5133 54.251 42.175 55.6976 42.175C57.0976 42.175 58.1826 42.5133 58.9526 43.19C59.7226 43.8667 60.1076 44.87 60.1076 46.2C60.1076 46.8767 59.9676 47.215 59.6876 47.215L51.1476 47.25C51.1243 47.46 51.1126 47.775 51.1126 48.195C51.1126 50.2483 51.5793 51.8817 52.5126 53.095C53.4693 54.285 54.8226 54.88 56.5726 54.88C57.226 54.88 57.7743 54.81 58.2176 54.67C58.661 54.5067 59.256 54.2267 60.0026 53.83L60.0726 53.795ZM54.4376 42.875C53.5743 42.875 52.8626 43.2133 52.3026 43.89C51.766 44.5433 51.4043 45.4533 51.2176 46.62L56.8176 46.515C56.771 44.0883 55.9776 42.875 54.4376 42.875ZM79.6439 53.795C79.6906 53.795 79.7372 53.8417 79.7839 53.935C79.8539 54.0283 79.8656 54.0983 79.8189 54.145C78.9556 54.9383 78.0922 55.5217 77.2289 55.895C76.3656 56.245 75.4322 56.42 74.4289 56.42C73.0056 56.42 71.7689 56.105 70.7189 55.475C69.6922 54.845 68.8989 54.0167 68.3389 52.99C67.8022 51.9633 67.5339 50.855 67.5339 49.665C67.5339 48.2883 67.8722 47.0283 68.5489 45.885C69.2256 44.7417 70.1472 43.8433 71.3139 43.19C72.5039 42.5133 73.8222 42.175 75.2689 42.175C76.6689 42.175 77.7539 42.5133 78.5239 43.19C79.2939 43.8667 79.6789 44.87 79.6789 46.2C79.6789 46.8767 79.5389 47.215 79.2589 47.215L70.7189 47.25C70.6956 47.46 70.6839 47.775 70.6839 48.195C70.6839 50.2483 71.1506 51.8817 72.0839 53.095C73.0406 54.285 74.3939 54.88 76.1439 54.88C76.7972 54.88 77.3456 54.81 77.7889 54.67C78.2322 54.5067 78.8272 54.2267 79.5739 53.83L79.6439 53.795ZM74.0089 42.875C73.1456 42.875 72.4339 43.2133 71.8739 43.89C71.3372 44.5433 70.9756 45.4533 70.7889 46.62L76.3889 46.515C76.3422 44.0883 75.5489 42.875 74.0089 42.875ZM87.4503 56C87.3803 56 87.3453 55.93 87.3453 55.79C87.3453 55.65 87.3803 55.58 87.4503 55.58C88.2203 55.58 88.7453 55.4167 89.0253 55.09C89.3053 54.74 89.4453 54.0983 89.4453 53.165V35.28C89.4453 34.4633 89.3636 33.88 89.2003 33.53C89.0603 33.1567 88.7919 32.97 88.3953 32.97C88.0453 32.97 87.5786 33.11 86.9953 33.39H86.9603C86.8669 33.39 86.7969 33.3317 86.7503 33.215C86.7036 33.0983 86.7036 33.0167 86.7503 32.97L91.6853 30.66L91.8253 30.625C91.9186 30.625 92.0236 30.6717 92.1403 30.765C92.2803 30.8583 92.3503 30.94 92.3503 31.01V53.165C92.3503 54.1217 92.4786 54.7633 92.7353 55.09C92.9919 55.4167 93.5169 55.58 94.3103 55.58C94.3803 55.58 94.4153 55.65 94.4153 55.79C94.4153 55.93 94.3803 56 94.3103 56C93.7503 56 93.2953 55.9883 92.9453 55.965L90.8803 55.93L88.8503 55.965C88.5003 55.9883 88.0336 56 87.4503 56ZM115.298 54.11C115.391 54.11 115.45 54.1683 115.473 54.285C115.496 54.3783 115.461 54.4483 115.368 54.495L111.763 56.21C111.67 56.2567 111.565 56.28 111.448 56.28C111.098 56.28 110.76 56.0817 110.433 55.685C110.13 55.265 109.931 54.7167 109.838 54.04L108.228 55.16C107.668 55.5567 107.155 55.8367 106.688 56C106.245 56.1633 105.743 56.245 105.183 56.245C104.226 56.245 103.491 56.0233 102.978 55.58C102.488 55.1133 102.243 54.5067 102.243 53.76C102.243 53.13 102.406 52.6167 102.733 52.22C103.083 51.8233 103.515 51.5083 104.028 51.275C104.565 51.0183 105.346 50.7033 106.373 50.33L109.768 49.07V46.97C109.768 45.5233 109.616 44.4733 109.313 43.82C109.033 43.1433 108.578 42.805 107.948 42.805C107.178 42.805 106.618 43.0967 106.268 43.68C105.941 44.24 105.743 44.87 105.673 45.57C105.533 46.76 104.938 47.355 103.888 47.355C103.375 47.355 102.99 47.2383 102.733 47.005C102.5 46.7717 102.383 46.48 102.383 46.13C102.383 45.4767 102.768 44.8467 103.538 44.24C104.331 43.61 105.276 43.1083 106.373 42.735C107.493 42.3383 108.473 42.14 109.313 42.14C110.316 42.14 111.11 42.455 111.693 43.085C112.3 43.715 112.603 44.66 112.603 45.92V52.22C112.603 52.9433 112.72 53.4917 112.953 53.865C113.186 54.2383 113.525 54.425 113.968 54.425C114.318 54.425 114.738 54.32 115.228 54.11H115.298ZM109.768 53.48V53.13V49.665L107.668 50.54C107.061 50.7733 106.56 51.0533 106.163 51.38C105.79 51.6833 105.603 52.1267 105.603 52.71C105.603 53.27 105.778 53.725 106.128 54.075C106.501 54.4017 106.945 54.565 107.458 54.565C107.878 54.565 108.321 54.425 108.788 54.145L109.768 53.48ZM138.255 55.58C138.325 55.58 138.36 55.65 138.36 55.79C138.36 55.93 138.325 56 138.255 56C137.672 56 137.217 55.9883 136.89 55.965L134.86 55.93L132.865 55.965C132.515 55.9883 132.049 56 131.465 56C131.395 56 131.36 55.93 131.36 55.79C131.36 55.65 131.395 55.58 131.465 55.58C132.259 55.58 132.784 55.4167 133.04 55.09C133.297 54.7633 133.425 54.1217 133.425 53.165V47.915C133.425 46.6083 133.18 45.6517 132.69 45.045C132.224 44.415 131.477 44.1 130.45 44.1C129.844 44.1 129.225 44.24 128.595 44.52C127.965 44.8 127.394 45.1733 126.88 45.64V53.165C126.88 54.1217 127.009 54.7633 127.265 55.09C127.522 55.4167 128.047 55.58 128.84 55.58C128.91 55.58 128.945 55.65 128.945 55.79C128.945 55.93 128.91 56 128.84 56C128.257 56 127.802 55.9883 127.475 55.965L125.445 55.93L123.415 55.965C123.089 55.9883 122.634 56 122.05 56C121.98 56 121.945 55.93 121.945 55.79C121.945 55.65 121.98 55.58 122.05 55.58C122.844 55.58 123.369 55.4167 123.625 55.09C123.882 54.7633 124.01 54.1217 124.01 53.165V46.48C124.01 45.7333 123.917 45.185 123.73 44.835C123.567 44.485 123.287 44.31 122.89 44.31C122.54 44.31 121.957 44.485 121.14 44.835H121.105C121.012 44.835 120.942 44.7767 120.895 44.66C120.849 44.5433 120.86 44.4733 120.93 44.45L125.515 42.21C125.655 42.1633 125.737 42.14 125.76 42.14C125.994 42.14 126.227 42.4083 126.46 42.945C126.717 43.4583 126.857 44.135 126.88 44.975C128.514 43.0383 130.287 42.07 132.2 42.07C133.484 42.07 134.487 42.4667 135.21 43.26C135.934 44.03 136.295 45.08 136.295 46.41V53.165C136.295 54.1217 136.424 54.7633 136.68 55.09C136.937 55.4167 137.462 55.58 138.255 55.58ZM152.341 56.42C150.824 56.42 149.529 56.0933 148.456 55.44C147.406 54.7633 146.624 53.9 146.111 52.85C145.597 51.7767 145.341 50.6567 145.341 49.49C145.341 48.02 145.737 46.7367 146.531 45.64C147.324 44.52 148.339 43.6683 149.576 43.085C150.836 42.4783 152.107 42.175 153.391 42.175C154.487 42.175 155.479 42.3967 156.366 42.84C157.252 43.2833 157.696 43.8783 157.696 44.625C157.696 45.0217 157.544 45.3717 157.241 45.675C156.937 45.955 156.517 46.095 155.981 46.095C155.094 46.095 154.452 45.57 154.056 44.52C153.822 43.9367 153.577 43.5283 153.321 43.295C153.064 43.0383 152.656 42.91 152.096 42.91C150.999 42.91 150.124 43.4117 149.471 44.415C148.841 45.395 148.526 46.7133 148.526 48.37C148.526 50.3067 148.969 51.8817 149.856 53.095C150.766 54.285 152.177 54.88 154.091 54.88C154.744 54.88 155.327 54.7983 155.841 54.635C156.354 54.4717 156.914 54.215 157.521 53.865H157.556C157.626 53.865 157.684 53.9 157.731 53.97C157.801 54.04 157.812 54.0983 157.766 54.145C156.902 54.915 156.051 55.4867 155.211 55.86C154.371 56.2333 153.414 56.42 152.341 56.42ZM168.893 38.465C168.286 38.465 167.808 38.3017 167.458 37.975C167.131 37.6483 166.968 37.1817 166.968 36.575C166.968 35.9917 167.131 35.5483 167.458 35.245C167.808 34.9183 168.286 34.755 168.893 34.755C169.476 34.755 169.931 34.9183 170.258 35.245C170.584 35.5483 170.748 35.9917 170.748 36.575C170.748 37.1817 170.584 37.6483 170.258 37.975C169.954 38.3017 169.499 38.465 168.893 38.465ZM165.673 56C165.603 56 165.568 55.93 165.568 55.79C165.568 55.65 165.603 55.58 165.673 55.58C166.466 55.58 166.991 55.4167 167.248 55.09C167.504 54.7633 167.633 54.1217 167.633 53.165V46.795C167.633 46.0017 167.551 45.43 167.388 45.08C167.224 44.7067 166.944 44.52 166.548 44.52C166.198 44.52 165.743 44.66 165.183 44.94H165.148C165.054 44.94 164.984 44.8817 164.938 44.765C164.891 44.6483 164.903 44.5667 164.973 44.52L170.013 42.175L170.118 42.14C170.211 42.14 170.304 42.1983 170.398 42.315C170.514 42.4083 170.573 42.49 170.573 42.56V43.295C170.526 44.275 170.503 45.43 170.503 46.76V53.165C170.503 54.1217 170.631 54.7633 170.888 55.09C171.168 55.4167 171.704 55.58 172.498 55.58C172.568 55.58 172.603 55.65 172.603 55.79C172.603 55.93 172.568 56 172.498 56C171.914 56 171.448 55.9883 171.098 55.965L169.068 55.93L167.038 55.965C166.711 55.9883 166.256 56 165.673 56ZM196.32 55.58C196.39 55.58 196.425 55.65 196.425 55.79C196.425 55.93 196.39 56 196.32 56C195.736 56 195.281 55.9883 194.955 55.965L192.925 55.93L190.93 55.965C190.58 55.9883 190.113 56 189.53 56C189.46 56 189.425 55.93 189.425 55.79C189.425 55.65 189.46 55.58 189.53 55.58C190.323 55.58 190.848 55.4167 191.105 55.09C191.361 54.7633 191.49 54.1217 191.49 53.165V47.915C191.49 46.6083 191.245 45.6517 190.755 45.045C190.288 44.415 189.541 44.1 188.515 44.1C187.908 44.1 187.29 44.24 186.66 44.52C186.03 44.8 185.458 45.1733 184.945 45.64V53.165C184.945 54.1217 185.073 54.7633 185.33 55.09C185.586 55.4167 186.111 55.58 186.905 55.58C186.975 55.58 187.01 55.65 187.01 55.79C187.01 55.93 186.975 56 186.905 56C186.321 56 185.866 55.9883 185.54 55.965L183.51 55.93L181.48 55.965C181.153 55.9883 180.698 56 180.115 56C180.045 56 180.01 55.93 180.01 55.79C180.01 55.65 180.045 55.58 180.115 55.58C180.908 55.58 181.433 55.4167 181.69 55.09C181.946 54.7633 182.075 54.1217 182.075 53.165V46.48C182.075 45.7333 181.981 45.185 181.795 44.835C181.631 44.485 181.351 44.31 180.955 44.31C180.605 44.31 180.021 44.485 179.205 44.835H179.17C179.076 44.835 179.006 44.7767 178.96 44.66C178.913 44.5433 178.925 44.4733 178.995 44.45L183.58 42.21C183.72 42.1633 183.801 42.14 183.825 42.14C184.058 42.14 184.291 42.4083 184.525 42.945C184.781 43.4583 184.921 44.135 184.945 44.975C186.578 43.0383 188.351 42.07 190.265 42.07C191.548 42.07 192.551 42.4667 193.275 43.26C193.998 44.03 194.36 45.08 194.36 46.41V53.165C194.36 54.1217 194.488 54.7633 194.745 55.09C195.001 55.4167 195.526 55.58 196.32 55.58ZM211.035 54.775C212.365 54.7983 213.45 54.8683 214.29 54.985C215.13 55.1017 215.853 55.4283 216.46 55.965C217.09 56.5017 217.405 57.3417 217.405 58.485C217.405 59.7683 216.997 60.97 216.18 62.09C215.363 63.2333 214.278 64.1433 212.925 64.82C211.572 65.4967 210.125 65.835 208.585 65.835C206.975 65.835 205.668 65.4733 204.665 64.75C203.685 64.0267 203.195 63.0817 203.195 61.915C203.195 60.2583 204.385 58.6367 206.765 57.05C205.038 56.7233 204.175 55.895 204.175 54.565C204.175 53.8417 204.373 53.1767 204.77 52.57C205.19 51.9633 205.82 51.3683 206.66 50.785C205.797 50.3883 205.12 49.8167 204.63 49.07C204.163 48.3233 203.93 47.53 203.93 46.69C203.93 45.78 204.21 44.9867 204.77 44.31C205.33 43.6333 206.053 43.12 206.94 42.77C207.85 42.42 208.818 42.245 209.845 42.245C211.338 42.245 212.575 42.6183 213.555 43.365C214.185 42.9683 214.803 42.6767 215.41 42.49C216.017 42.28 216.67 42.175 217.37 42.175C217.533 42.175 217.615 42.4783 217.615 43.085C217.615 43.4117 217.568 43.75 217.475 44.1C217.405 44.45 217.323 44.59 217.23 44.52C216.25 44.1467 215.41 43.96 214.71 43.96C214.5 43.96 214.348 43.9717 214.255 43.995C214.932 44.7417 215.27 45.6283 215.27 46.655C215.27 47.5417 214.99 48.3467 214.43 49.07C213.87 49.7933 213.135 50.3533 212.225 50.75C211.315 51.1467 210.347 51.345 209.32 51.345C208.55 51.345 207.85 51.24 207.22 51.03C206.707 51.52 206.45 52.1033 206.45 52.78C206.45 53.62 206.788 54.1567 207.465 54.39C208.165 54.6233 209.355 54.7517 211.035 54.775ZM208.795 42.875C207.535 42.875 206.905 43.82 206.905 45.71C206.905 46.69 207.057 47.565 207.36 48.335C207.687 49.105 208.095 49.7 208.585 50.12C209.098 50.54 209.623 50.75 210.16 50.75C210.767 50.75 211.268 50.4933 211.665 49.98C212.062 49.4433 212.26 48.6383 212.26 47.565C212.26 46.585 212.085 45.745 211.735 45.045C211.408 44.3217 210.977 43.785 210.44 43.435C209.927 43.0617 209.378 42.875 208.795 42.875ZM210.475 64.75C211.805 64.75 212.867 64.3533 213.66 63.56C214.477 62.79 214.885 61.74 214.885 60.41C214.885 59.43 214.663 58.7183 214.22 58.275C213.8 57.8317 213.228 57.5517 212.505 57.435C211.805 57.3183 210.802 57.26 209.495 57.26C208.842 57.26 208.212 57.225 207.605 57.155C206.508 57.9483 205.96 58.9983 205.96 60.305C205.96 61.705 206.38 62.79 207.22 63.56C208.083 64.3533 209.168 64.75 210.475 64.75ZM19.3117 77.27C19.3117 77.33 19.2517 77.36 19.1317 77.36C19.0317 77.36 18.9817 77.33 18.9817 77.27C18.8617 76.19 18.4917 75.36 17.8717 74.78C17.2517 74.2 16.4417 73.91 15.4417 73.91H13.7917C12.8917 73.91 12.2817 74.04 11.9617 74.3C11.6417 74.54 11.4817 75.01 11.4817 75.71V82.28H14.3617C15.4417 82.28 16.2217 82.11 16.7017 81.77C17.1817 81.41 17.4217 80.86 17.4217 80.12C17.4217 80.08 17.4817 80.06 17.6017 80.06C17.7217 80.06 17.7817 80.08 17.7817 80.12L17.7517 82.61C17.7517 83.19 17.7617 83.63 17.7817 83.93L17.8117 85.43C17.8117 85.47 17.7517 85.49 17.6317 85.49C17.5117 85.49 17.4517 85.47 17.4517 85.43C17.4517 84.55 17.2017 83.92 16.7017 83.54C16.2017 83.14 15.3917 82.94 14.2717 82.94H11.4817V89.45C11.4817 90.09 11.5617 90.56 11.7217 90.86C11.9017 91.14 12.2317 91.34 12.7117 91.46C13.2117 91.58 13.9917 91.64 15.0517 91.64C15.0917 91.64 15.1117 91.7 15.1117 91.82C15.1117 91.94 15.0917 92 15.0517 92C14.2317 92 13.5917 91.99 13.1317 91.97L10.3417 91.94L8.30172 91.97C7.92172 91.99 7.40172 92 6.74172 92C6.68172 92 6.65172 91.94 6.65172 91.82C6.65172 91.7 6.68172 91.64 6.74172 91.64C7.48172 91.64 8.02172 91.59 8.36172 91.49C8.72172 91.39 8.96172 91.2 9.08172 90.92C9.22172 90.62 9.29172 90.17 9.29172 89.57V75.68C9.29172 75.08 9.23172 74.64 9.11172 74.36C8.99172 74.08 8.76172 73.89 8.42172 73.79C8.08172 73.67 7.54172 73.61 6.80172 73.61C6.76172 73.61 6.74172 73.55 6.74172 73.43C6.74172 73.31 6.76172 73.25 6.80172 73.25H18.9817C19.1617 73.25 19.2517 73.34 19.2517 73.52L19.3117 77.27ZM40.0333 90.23C40.1133 90.23 40.1633 90.28 40.1833 90.38C40.2233 90.48 40.2133 90.55 40.1533 90.59L36.5233 92.3L36.4033 92.33C36.2033 92.33 36.0133 92.09 35.8333 91.61C35.6533 91.13 35.5633 90.51 35.5633 89.75C34.0633 91.43 32.5033 92.27 30.8833 92.27C29.8633 92.27 29.0633 91.95 28.4833 91.31C27.9033 90.67 27.6133 89.76 27.6133 88.58V83.99C27.6133 83.23 27.5433 82.68 27.4033 82.34C27.2833 82 27.0633 81.83 26.7433 81.83C26.5033 81.83 26.1733 81.92 25.7533 82.1H25.6933C25.6333 82.1 25.5833 82.05 25.5433 81.95C25.5233 81.85 25.5433 81.79 25.6033 81.77L29.0533 80.18L29.1733 80.15C29.2333 80.15 29.3033 80.18 29.3833 80.24C29.4633 80.3 29.5033 80.36 29.5033 80.42V87.47C29.5033 89.77 30.3433 90.92 32.0233 90.92C32.6233 90.92 33.2333 90.77 33.8533 90.47C34.4733 90.17 35.0433 89.75 35.5633 89.21V83.99C35.5633 83.23 35.4933 82.68 35.3533 82.34C35.2133 82 34.9833 81.83 34.6633 81.83C34.4233 81.83 34.0933 81.92 33.6733 82.1H33.6133C33.5533 82.1 33.5133 82.05 33.4933 81.95C33.4733 81.85 33.4933 81.79 33.5533 81.77L37.0033 80.18L37.1233 80.15C37.1833 80.15 37.2433 80.18 37.3033 80.24C37.3833 80.3 37.4233 80.36 37.4233 80.42V88.73C37.4233 89.41 37.5033 89.9 37.6633 90.2C37.8233 90.5 38.0833 90.65 38.4433 90.65C38.7433 90.65 39.2533 90.52 39.9733 90.26L40.0333 90.23ZM45.8868 92C45.8268 92 45.7968 91.94 45.7968 91.82C45.7968 91.7 45.8268 91.64 45.8868 91.64C46.6268 91.64 47.1168 91.51 47.3568 91.25C47.5968 90.97 47.7168 90.41 47.7168 89.57V74.12C47.7168 73.4 47.6468 72.88 47.5068 72.56C47.3868 72.24 47.1568 72.08 46.8168 72.08C46.5168 72.08 46.0668 72.22 45.4668 72.5H45.4368C45.3568 72.5 45.2868 72.45 45.2268 72.35C45.1868 72.23 45.2068 72.16 45.2868 72.14L49.2468 70.28L49.3668 70.25C49.4268 70.25 49.4968 70.28 49.5768 70.34C49.6568 70.4 49.6968 70.46 49.6968 70.52V89.57C49.6968 90.41 49.8068 90.97 50.0268 91.25C50.2668 91.51 50.7668 91.64 51.5268 91.64C51.5868 91.64 51.6168 91.7 51.6168 91.82C51.6168 91.94 51.5868 92 51.5268 92C51.0468 92 50.6568 91.99 50.3568 91.97L48.7068 91.94L47.0268 91.97C46.7468 91.99 46.3668 92 45.8868 92ZM58.1798 92C58.1198 92 58.0898 91.94 58.0898 91.82C58.0898 91.7 58.1198 91.64 58.1798 91.64C58.9198 91.64 59.4098 91.51 59.6498 91.25C59.8898 90.97 60.0098 90.41 60.0098 89.57V74.12C60.0098 73.4 59.9398 72.88 59.7998 72.56C59.6798 72.24 59.4498 72.08 59.1098 72.08C58.8098 72.08 58.3598 72.22 57.7598 72.5H57.7298C57.6498 72.5 57.5798 72.45 57.5198 72.35C57.4798 72.23 57.4998 72.16 57.5798 72.14L61.5398 70.28L61.6598 70.25C61.7198 70.25 61.7898 70.28 61.8698 70.34C61.9498 70.4 61.9898 70.46 61.9898 70.52V89.57C61.9898 90.41 62.0998 90.97 62.3198 91.25C62.5598 91.51 63.0598 91.64 63.8198 91.64C63.8798 91.64 63.9098 91.7 63.9098 91.82C63.9098 91.94 63.8798 92 63.8198 92C63.3398 92 62.9498 91.99 62.6498 91.97L60.9998 91.94L59.3198 91.97C59.0398 91.99 58.6598 92 58.1798 92ZM85.334 76.67C85.334 77.43 85.524 78.1 85.904 78.68C86.284 79.26 86.744 79.75 87.284 80.15C87.824 80.55 88.584 81.04 89.564 81.62C90.584 82.24 91.384 82.77 91.964 83.21C92.544 83.65 93.034 84.2 93.434 84.86C93.854 85.52 94.064 86.3 94.064 87.2C94.064 88.18 93.814 89.06 93.314 89.84C92.834 90.62 92.124 91.24 91.184 91.7C90.244 92.14 89.134 92.36 87.854 92.36C86.234 92.36 84.794 92 83.534 91.28C83.434 91.22 83.364 91.15 83.324 91.07C83.284 90.99 83.254 90.87 83.234 90.71L82.904 86.51C82.884 86.43 82.924 86.38 83.024 86.36C83.144 86.34 83.214 86.37 83.234 86.45C83.634 87.93 84.264 89.2 85.124 90.26C85.984 91.3 87.124 91.82 88.544 91.82C89.524 91.82 90.344 91.56 91.004 91.04C91.664 90.52 91.994 89.67 91.994 88.49C91.994 87.59 91.794 86.82 91.394 86.18C90.994 85.52 90.504 84.97 89.924 84.53C89.364 84.07 88.594 83.55 87.614 82.97C86.634 82.35 85.874 81.84 85.334 81.44C84.794 81.02 84.334 80.5 83.954 79.88C83.574 79.24 83.384 78.49 83.384 77.63C83.384 76.61 83.654 75.75 84.194 75.05C84.734 74.33 85.444 73.8 86.324 73.46C87.204 73.1 88.134 72.92 89.114 72.92C90.354 72.92 91.544 73.15 92.684 73.61C92.984 73.75 93.134 73.93 93.134 74.15L93.314 77.75C93.314 77.83 93.254 77.88 93.134 77.9C93.034 77.92 92.974 77.89 92.954 77.81C92.754 76.75 92.304 75.75 91.604 74.81C90.904 73.87 89.894 73.4 88.574 73.4C87.514 73.4 86.704 73.71 86.144 74.33C85.604 74.95 85.334 75.73 85.334 76.67ZM109.608 90.35C109.668 90.35 109.718 90.4 109.758 90.5C109.798 90.58 109.788 90.64 109.728 90.68C108.988 91.28 108.318 91.71 107.718 91.97C107.118 92.23 106.478 92.36 105.798 92.36C104.958 92.36 104.258 92.17 103.698 91.79C103.158 91.39 102.888 90.74 102.888 89.84V82.85C102.888 82.37 102.848 82.02 102.768 81.8C102.688 81.56 102.538 81.4 102.318 81.32C102.118 81.24 101.788 81.2 101.328 81.2C101.268 81.2 101.238 81.13 101.238 80.99C101.238 80.85 101.268 80.78 101.328 80.78C102.168 80.76 102.848 80.55 103.368 80.15C103.908 79.75 104.238 79.19 104.358 78.47C104.378 78.41 104.458 78.38 104.597 78.38C104.738 78.38 104.808 78.41 104.808 78.47V80.75C105.768 80.73 107.138 80.63 108.918 80.45C108.978 80.45 109.028 80.52 109.068 80.66C109.108 80.8 109.128 80.96 109.128 81.14C109.128 81.32 109.098 81.5 109.038 81.68C108.978 81.84 108.908 81.91 108.828 81.89C107.708 81.63 106.368 81.48 104.808 81.44V88.82C104.808 90.42 105.588 91.22 107.148 91.22C107.988 91.22 108.788 90.94 109.548 90.38L109.608 90.35ZM127.304 90.38C127.384 90.38 127.434 90.43 127.454 90.53C127.474 90.61 127.444 90.67 127.364 90.71L124.274 92.18C124.194 92.22 124.104 92.24 124.004 92.24C123.744 92.24 123.504 92.07 123.284 91.73C123.084 91.37 122.944 90.89 122.864 90.29L121.364 91.28C120.884 91.62 120.444 91.86 120.044 92C119.664 92.14 119.254 92.21 118.814 92.21C118.054 92.21 117.464 92.02 117.044 91.64C116.624 91.24 116.414 90.74 116.414 90.14C116.414 89.5 116.664 88.97 117.164 88.55C117.684 88.11 118.504 87.68 119.624 87.26L122.834 86.09V84.11C122.834 82.91 122.674 82.04 122.354 81.5C122.054 80.96 121.604 80.69 121.004 80.69C120.344 80.69 119.844 80.92 119.504 81.38C119.164 81.84 118.944 82.36 118.844 82.94C118.724 83.82 118.314 84.26 117.614 84.26C117.254 84.26 116.984 84.17 116.804 83.99C116.624 83.81 116.534 83.59 116.534 83.33C116.534 82.83 116.844 82.33 117.464 81.83C118.104 81.33 118.864 80.92 119.744 80.6C120.644 80.28 121.434 80.12 122.114 80.12C122.934 80.12 123.564 80.39 124.004 80.93C124.464 81.45 124.694 82.21 124.694 83.21V88.76C124.694 89.44 124.784 89.94 124.964 90.26C125.164 90.58 125.464 90.74 125.864 90.74C126.224 90.74 126.684 90.62 127.244 90.38H127.304ZM122.834 89.84V89.66V86.51L120.314 87.53C119.774 87.73 119.364 87.98 119.084 88.28C118.804 88.56 118.664 88.92 118.664 89.36C118.664 89.84 118.814 90.24 119.114 90.56C119.434 90.86 119.834 91.01 120.314 91.01C120.714 91.01 121.164 90.86 121.664 90.56L122.834 89.84ZM138.852 92.36C137.552 92.36 136.462 92.08 135.582 91.52C134.702 90.94 134.042 90.2 133.602 89.3C133.182 88.4 132.972 87.45 132.972 86.45C132.972 85.17 133.302 84.06 133.962 83.12C134.622 82.16 135.462 81.43 136.482 80.93C137.502 80.41 138.552 80.15 139.632 80.15C140.532 80.15 141.342 80.33 142.062 80.69C142.802 81.05 143.172 81.5 143.172 82.04C143.172 82.34 143.062 82.59 142.842 82.79C142.642 82.99 142.372 83.09 142.032 83.09C141.392 83.09 140.912 82.73 140.592 82.01C140.372 81.57 140.112 81.25 139.812 81.05C139.532 80.85 139.122 80.75 138.582 80.75C137.502 80.75 136.662 81.19 136.062 82.07C135.462 82.93 135.162 84.08 135.162 85.52C135.162 87.2 135.572 88.58 136.392 89.66C137.212 90.72 138.462 91.25 140.142 91.25C141.282 91.25 142.282 90.93 143.142 90.29H143.202C143.262 90.29 143.312 90.32 143.352 90.38C143.412 90.44 143.412 90.49 143.352 90.53C142.652 91.17 141.942 91.64 141.222 91.94C140.522 92.22 139.732 92.36 138.852 92.36ZM163.394 91.64C163.434 91.64 163.454 91.7 163.454 91.82C163.454 91.94 163.434 92 163.394 92C162.894 92 162.504 91.99 162.224 91.97L160.604 91.94L158.414 91.97C158.094 91.99 157.654 92 157.094 92C157.054 92 157.034 91.94 157.034 91.82C157.034 91.7 157.054 91.64 157.094 91.64C158.054 91.64 158.534 91.44 158.534 91.04C158.534 90.86 158.444 90.65 158.264 90.41L154.604 85.52L153.284 86.57V89.57C153.284 90.41 153.404 90.97 153.644 91.25C153.884 91.51 154.384 91.64 155.144 91.64C155.204 91.64 155.234 91.7 155.234 91.82C155.234 91.94 155.204 92 155.144 92C154.644 92 154.254 91.99 153.974 91.97L152.354 91.94L150.674 91.97C150.394 91.99 150.024 92 149.564 92C149.504 92 149.474 91.94 149.474 91.82C149.474 91.7 149.504 91.64 149.564 91.64C150.304 91.64 150.794 91.51 151.034 91.25C151.274 90.97 151.394 90.41 151.394 89.57V74.12C151.394 73.4 151.324 72.88 151.184 72.56C151.044 72.24 150.804 72.08 150.464 72.08C150.184 72.08 149.744 72.22 149.144 72.5H149.114C149.034 72.5 148.964 72.45 148.904 72.35C148.864 72.25 148.884 72.18 148.964 72.14L152.834 70.28L152.984 70.25C153.044 70.25 153.104 70.28 153.164 70.34C153.244 70.4 153.284 70.46 153.284 70.52V86.06L157.094 82.88C157.714 82.38 158.024 81.94 158.024 81.56C158.024 81.32 157.884 81.13 157.604 80.99C157.344 80.85 156.944 80.78 156.404 80.78C156.344 80.78 156.314 80.72 156.314 80.6C156.314 80.48 156.344 80.42 156.404 80.42C156.964 80.42 157.384 80.43 157.664 80.45L159.884 80.48L161.924 80.45C162.204 80.43 162.574 80.42 163.034 80.42C163.074 80.42 163.094 80.48 163.094 80.6C163.094 80.72 163.074 80.78 163.034 80.78C162.254 80.78 161.394 80.97 160.454 81.35C159.534 81.71 158.624 82.26 157.724 83L156.074 84.32L159.974 89.57C160.974 90.95 162.114 91.64 163.394 91.64ZM188.792 92.12C188.192 92.12 187.502 92.09 186.722 92.03C186.422 92.01 186.052 91.99 185.612 91.97C185.192 91.95 184.722 91.94 184.202 91.94L182.132 91.97C181.752 91.99 181.242 92 180.602 92C180.562 92 180.542 91.94 180.542 91.82C180.542 91.7 180.562 91.64 180.602 91.64C181.342 91.64 181.882 91.59 182.222 91.49C182.562 91.39 182.792 91.2 182.912 90.92C183.052 90.62 183.122 90.17 183.122 89.57V75.68C183.122 75.08 183.062 74.64 182.942 74.36C182.822 74.08 182.592 73.89 182.252 73.79C181.912 73.67 181.372 73.61 180.632 73.61C180.592 73.61 180.572 73.55 180.572 73.43C180.572 73.31 180.592 73.25 180.632 73.25L182.132 73.28C183.012 73.32 183.702 73.34 184.202 73.34C184.962 73.34 185.712 73.31 186.452 73.25C187.412 73.21 188.052 73.19 188.372 73.19C190.452 73.19 192.292 73.59 193.892 74.39C195.492 75.19 196.732 76.28 197.612 77.66C198.492 79.04 198.932 80.59 198.932 82.31C198.932 84.25 198.472 85.97 197.552 87.47C196.652 88.95 195.422 90.1 193.862 90.92C192.322 91.72 190.632 92.12 188.792 92.12ZM188.492 91.64C190.032 91.64 191.392 91.31 192.572 90.65C193.772 89.97 194.702 88.98 195.362 87.68C196.042 86.36 196.382 84.79 196.382 82.97C196.382 81.23 196.062 79.66 195.422 78.26C194.782 76.84 193.872 75.72 192.692 74.9C191.532 74.08 190.182 73.67 188.642 73.67C187.782 73.67 187.122 73.72 186.662 73.82C186.202 73.92 185.862 74.12 185.642 74.42C185.422 74.7 185.312 75.14 185.312 75.74V89.24C185.312 90.12 185.522 90.74 185.942 91.1C186.382 91.46 187.232 91.64 188.492 91.64ZM215.774 90.26C215.834 90.26 215.884 90.3 215.924 90.38C215.984 90.44 215.994 90.5 215.954 90.56C214.614 91.76 213.134 92.36 211.514 92.36C210.334 92.36 209.324 92.1 208.484 91.58C207.644 91.04 207.004 90.33 206.564 89.45C206.124 88.55 205.904 87.59 205.904 86.57C205.904 85.39 206.184 84.31 206.744 83.33C207.324 82.35 208.104 81.58 209.084 81.02C210.064 80.44 211.144 80.15 212.324 80.15C213.484 80.15 214.364 80.45 214.964 81.05C215.584 81.63 215.894 82.47 215.894 83.57C215.894 84.11 215.774 84.38 215.534 84.38L208.124 84.41C208.084 84.85 208.064 85.19 208.064 85.43C208.064 87.17 208.474 88.57 209.294 89.63C210.114 90.69 211.274 91.22 212.774 91.22C213.374 91.22 213.874 91.15 214.274 91.01C214.694 90.85 215.184 90.6 215.744 90.26H215.774ZM211.304 80.75C210.464 80.75 209.774 81.04 209.234 81.62C208.694 82.18 208.344 82.97 208.184 83.99L213.644 83.87C213.644 82.85 213.434 82.08 213.014 81.56C212.614 81.02 212.044 80.75 211.304 80.75ZM234.679 80.42C234.719 80.42 234.739 80.48 234.739 80.6C234.739 80.72 234.719 80.78 234.679 80.78C234.159 80.78 233.709 80.96 233.329 81.32C232.969 81.66 232.619 82.24 232.279 83.06L228.529 91.97C228.489 92.07 228.379 92.12 228.199 92.12C228.039 92.12 227.929 92.07 227.869 91.97L223.609 82.91C223.209 82.03 222.869 81.46 222.589 81.2C222.309 80.92 221.969 80.78 221.569 80.78C221.509 80.78 221.479 80.72 221.479 80.6C221.479 80.48 221.509 80.42 221.569 80.42C221.949 80.42 222.249 80.43 222.469 80.45L223.759 80.48L225.799 80.45C226.099 80.43 226.509 80.42 227.029 80.42C227.089 80.42 227.119 80.48 227.119 80.6C227.119 80.72 227.089 80.78 227.029 80.78C225.849 80.78 225.259 81.01 225.259 81.47C225.259 81.63 225.299 81.79 225.379 81.95L228.949 89.45L231.649 82.94C231.789 82.56 231.859 82.26 231.859 82.04C231.859 81.2 231.089 80.78 229.549 80.78C229.509 80.78 229.489 80.72 229.489 80.6C229.489 80.48 229.509 80.42 229.549 80.42C230.089 80.42 230.499 80.43 230.779 80.45L232.579 80.48L233.719 80.45C233.919 80.43 234.239 80.42 234.679 80.42ZM250.086 90.26C250.146 90.26 250.196 90.3 250.236 90.38C250.296 90.44 250.306 90.5 250.266 90.56C248.926 91.76 247.446 92.36 245.826 92.36C244.646 92.36 243.636 92.1 242.796 91.58C241.956 91.04 241.316 90.33 240.876 89.45C240.436 88.55 240.216 87.59 240.216 86.57C240.216 85.39 240.496 84.31 241.056 83.33C241.636 82.35 242.416 81.58 243.396 81.02C244.376 80.44 245.456 80.15 246.636 80.15C247.796 80.15 248.676 80.45 249.276 81.05C249.896 81.63 250.206 82.47 250.206 83.57C250.206 84.11 250.086 84.38 249.846 84.38L242.436 84.41C242.396 84.85 242.376 85.19 242.376 85.43C242.376 87.17 242.786 88.57 243.606 89.63C244.426 90.69 245.586 91.22 247.086 91.22C247.686 91.22 248.186 91.15 248.586 91.01C249.006 90.85 249.496 90.6 250.056 90.26H250.086ZM245.616 80.75C244.776 80.75 244.086 81.04 243.546 81.62C243.006 82.18 242.656 82.97 242.496 83.99L247.956 83.87C247.956 82.85 247.746 82.08 247.326 81.56C246.926 81.02 246.356 80.75 245.616 80.75ZM257.111 92C257.051 92 257.021 91.94 257.021 91.82C257.021 91.7 257.051 91.64 257.111 91.64C257.851 91.64 258.341 91.51 258.581 91.25C258.821 90.97 258.941 90.41 258.941 89.57V74.12C258.941 73.4 258.871 72.88 258.731 72.56C258.611 72.24 258.381 72.08 258.041 72.08C257.741 72.08 257.291 72.22 256.691 72.5H256.661C256.581 72.5 256.511 72.45 256.451 72.35C256.411 72.23 256.431 72.16 256.511 72.14L260.471 70.28L260.591 70.25C260.651 70.25 260.721 70.28 260.801 70.34C260.881 70.4 260.921 70.46 260.921 70.52V89.57C260.921 90.41 261.031 90.97 261.251 91.25C261.491 91.51 261.991 91.64 262.751 91.64C262.811 91.64 262.841 91.7 262.841 91.82C262.841 91.94 262.811 92 262.751 92C262.271 92 261.881 91.99 261.581 91.97L259.931 91.94L258.251 91.97C257.971 91.99 257.591 92 257.111 92ZM275.194 92.39C274.014 92.39 272.974 92.11 272.074 91.55C271.194 90.97 270.504 90.2 270.004 89.24C269.524 88.26 269.284 87.2 269.284 86.06C269.284 84.76 269.604 83.66 270.244 82.76C270.884 81.84 271.694 81.16 272.674 80.72C273.674 80.26 274.694 80.03 275.734 80.03C276.914 80.03 277.944 80.32 278.824 80.9C279.724 81.48 280.414 82.25 280.894 83.21C281.374 84.15 281.614 85.15 281.614 86.21C281.614 87.45 281.324 88.54 280.744 89.48C280.164 90.4 279.384 91.12 278.404 91.64C277.424 92.14 276.354 92.39 275.194 92.39ZM276.064 91.82C277.104 91.82 277.904 91.43 278.464 90.65C279.044 89.87 279.334 88.68 279.334 87.08C279.334 85.82 279.134 84.7 278.734 83.72C278.334 82.74 277.784 81.98 277.084 81.44C276.384 80.9 275.604 80.63 274.744 80.63C273.724 80.63 272.934 81.01 272.374 81.77C271.814 82.53 271.534 83.64 271.534 85.1C271.534 86.34 271.724 87.48 272.104 88.52C272.504 89.54 273.044 90.35 273.724 90.95C274.404 91.53 275.184 91.82 276.064 91.82ZM296.778 80.03C297.598 80.03 298.358 80.25 299.058 80.69C299.778 81.13 300.348 81.77 300.768 82.61C301.188 83.45 301.398 84.43 301.398 85.55C301.398 87.07 301.058 88.35 300.378 89.39C299.718 90.41 298.888 91.17 297.888 91.67C296.888 92.15 295.898 92.39 294.918 92.39C294.298 92.39 293.748 92.34 293.268 92.24C292.788 92.14 292.308 91.96 291.828 91.7V97.82C291.828 98.42 291.898 98.86 292.038 99.14C292.198 99.42 292.478 99.61 292.878 99.71C293.298 99.83 293.938 99.89 294.798 99.89C294.838 99.89 294.858 99.95 294.858 100.07C294.858 100.19 294.838 100.25 294.798 100.25C294.078 100.25 293.518 100.24 293.118 100.22L290.898 100.19L289.248 100.22C288.968 100.24 288.588 100.25 288.108 100.25C288.048 100.25 288.018 100.19 288.018 100.07C288.018 99.95 288.048 99.89 288.108 99.89C288.648 99.89 289.038 99.83 289.278 99.71C289.538 99.61 289.708 99.42 289.788 99.14C289.888 98.86 289.938 98.42 289.938 97.82V83.75C289.938 83.05 289.858 82.55 289.698 82.25C289.558 81.93 289.288 81.77 288.888 81.77C288.508 81.77 287.988 81.92 287.328 82.22H287.298C287.218 82.22 287.158 82.17 287.118 82.07C287.058 81.97 287.068 81.91 287.148 81.89L290.658 80.21C290.738 80.17 290.808 80.15 290.868 80.15C291.128 80.15 291.348 80.36 291.528 80.78C291.708 81.18 291.808 81.76 291.828 82.52C292.668 81.66 293.488 81.03 294.288 80.63C295.108 80.23 295.938 80.03 296.778 80.03ZM295.758 91.73C296.798 91.73 297.638 91.27 298.278 90.35C298.938 89.43 299.268 88.14 299.268 86.48C299.268 84.82 298.898 83.54 298.158 82.64C297.438 81.72 296.508 81.26 295.368 81.26C294.688 81.26 294.068 81.42 293.508 81.74C292.948 82.04 292.388 82.48 291.828 83.06V89.87C292.348 90.49 292.908 90.96 293.508 91.28C294.128 91.58 294.878 91.73 295.758 91.73ZM317.92 90.26C317.98 90.26 318.03 90.3 318.07 90.38C318.13 90.44 318.14 90.5 318.1 90.56C316.76 91.76 315.28 92.36 313.66 92.36C312.48 92.36 311.47 92.1 310.63 91.58C309.79 91.04 309.15 90.33 308.71 89.45C308.27 88.55 308.05 87.59 308.05 86.57C308.05 85.39 308.33 84.31 308.89 83.33C309.47 82.35 310.25 81.58 311.23 81.02C312.21 80.44 313.29 80.15 314.47 80.15C315.63 80.15 316.51 80.45 317.11 81.05C317.73 81.63 318.04 82.47 318.04 83.57C318.04 84.11 317.92 84.38 317.68 84.38L310.27 84.41C310.23 84.85 310.21 85.19 310.21 85.43C310.21 87.17 310.62 88.57 311.44 89.63C312.26 90.69 313.42 91.22 314.92 91.22C315.52 91.22 316.02 91.15 316.42 91.01C316.84 90.85 317.33 90.6 317.89 90.26H317.92ZM313.45 80.75C312.61 80.75 311.92 81.04 311.38 81.62C310.84 82.18 310.49 82.97 310.33 83.99L315.79 83.87C315.79 82.85 315.58 82.08 315.16 81.56C314.76 81.02 314.19 80.75 313.45 80.75ZM332.145 80.15C332.585 80.15 333.005 80.28 333.405 80.54C333.825 80.8 334.035 81.11 334.035 81.47C334.035 81.75 333.935 81.99 333.735 82.19C333.555 82.37 333.305 82.46 332.985 82.46C332.785 82.46 332.615 82.42 332.475 82.34C332.335 82.26 332.175 82.14 331.995 81.98C331.795 81.82 331.615 81.7 331.455 81.62C331.315 81.54 331.135 81.5 330.915 81.5C330.655 81.5 330.385 81.6 330.105 81.8C329.845 82 329.415 82.44 328.815 83.12V89.57C328.815 90.15 328.885 90.59 329.025 90.89C329.185 91.17 329.465 91.37 329.865 91.49C330.265 91.59 330.875 91.64 331.695 91.64C331.755 91.64 331.785 91.7 331.785 91.82C331.785 91.94 331.755 92 331.695 92C331.035 92 330.505 91.99 330.105 91.97L327.855 91.94L326.235 91.97C325.955 91.99 325.575 92 325.095 92C325.035 92 325.005 91.94 325.005 91.82C325.005 91.7 325.035 91.64 325.095 91.64C325.615 91.64 325.995 91.59 326.235 91.49C326.495 91.37 326.665 91.17 326.745 90.89C326.845 90.59 326.895 90.15 326.895 89.57V83.69C326.895 83.03 326.815 82.55 326.655 82.25C326.495 81.95 326.235 81.8 325.875 81.8C325.575 81.8 325.045 81.95 324.285 82.25H324.255C324.175 82.25 324.115 82.21 324.075 82.13C324.035 82.03 324.055 81.96 324.135 81.92L327.735 80.18L327.915 80.15C328.115 80.15 328.305 80.38 328.485 80.84C328.685 81.28 328.795 81.86 328.815 82.58C329.635 81.64 330.285 81 330.765 80.66C331.245 80.32 331.705 80.15 332.145 80.15Z" fill="black"/>
<path d="M14.98 17.76C15.0333 17.76 15.06 17.8 15.06 17.88C15.06 17.96 15.0333 18 14.98 18C14.7267 18 14.3333 17.9867 13.8 17.96C13.2667 17.9333 12.88 17.92 12.64 17.92C12.3467 17.92 11.9733 17.9333 11.52 17.96C11.0933 17.9867 10.7667 18 10.54 18C10.4867 18 10.46 17.96 10.46 17.88C10.46 17.8 10.4867 17.76 10.54 17.76C11.0333 17.76 11.3933 17.7133 11.62 17.62C11.8467 17.5267 11.96 17.3667 11.96 17.14C11.96 16.9533 11.8733 16.6667 11.7 16.28L9.92 12.5H5.16L3.9 15.46C3.71333 15.9133 3.62 16.28 3.62 16.56C3.62 16.9733 3.78 17.28 4.1 17.48C4.43333 17.6667 4.92667 17.76 5.58 17.76C5.64667 17.76 5.68 17.8 5.68 17.88C5.68 17.96 5.64667 18 5.58 18C5.34 18 4.99333 17.9867 4.54 17.96C4.03333 17.9333 3.59333 17.92 3.22 17.92C2.87333 17.92 2.47333 17.9333 2.02 17.96C1.62 17.9867 1.28667 18 1.02 18C0.953333 18 0.92 17.96 0.92 17.88C0.92 17.8 0.953333 17.76 1.02 17.76C1.39333 17.76 1.70667 17.6933 1.96 17.56C2.22667 17.4133 2.47333 17.1667 2.7 16.82C2.94 16.46 3.2 15.9467 3.48 15.28L7.7 5.32C7.72667 5.28 7.77333 5.26 7.84 5.26C7.90667 5.26 7.94667 5.28 7.96 5.32L12.68 15.26C13.1333 16.2467 13.52 16.9133 13.84 17.26C14.16 17.5933 14.54 17.76 14.98 17.76ZM5.32 12.1H9.74L7.4 7.16L5.32 12.1ZM24.423 10.02C24.9696 10.02 25.4763 10.1667 25.943 10.46C26.4096 10.7533 26.783 11.18 27.063 11.74C27.343 12.3 27.483 12.9533 27.483 13.7C27.483 14.7 27.2563 15.5467 26.803 16.24C26.3496 16.92 25.7896 17.4267 25.123 17.76C24.4696 18.0933 23.823 18.26 23.183 18.26C22.7696 18.26 22.3963 18.22 22.063 18.14C21.743 18.06 21.4096 17.9267 21.063 17.74V21.88C21.063 22.28 21.1096 22.5733 21.203 22.76C21.3096 22.9467 21.503 23.0733 21.783 23.14C22.063 23.22 22.4896 23.26 23.063 23.26C23.0896 23.26 23.103 23.3 23.103 23.38C23.103 23.46 23.0896 23.5 23.063 23.5C22.6096 23.5 22.2496 23.4933 21.983 23.48L20.523 23.46L19.423 23.48C19.2363 23.4933 18.9896 23.5 18.683 23.5C18.643 23.5 18.623 23.46 18.623 23.38C18.623 23.3 18.643 23.26 18.683 23.26C19.043 23.26 19.3096 23.22 19.483 23.14C19.6563 23.0733 19.7763 22.9467 19.843 22.76C19.9096 22.5733 19.943 22.28 19.943 21.88V12.48C19.943 12 19.8896 11.66 19.783 11.46C19.6763 11.2467 19.4896 11.14 19.223 11.14C18.9296 11.14 18.5763 11.2333 18.163 11.42L18.123 11.44C18.0696 11.44 18.0363 11.4067 18.023 11.34C17.9963 11.2733 18.003 11.2267 18.043 11.2L20.263 10.14C20.2896 10.1267 20.3363 10.12 20.403 10.12C20.5896 10.12 20.743 10.26 20.863 10.54C20.983 10.82 21.0496 11.22 21.063 11.74C22.1963 10.5933 23.3163 10.02 24.423 10.02ZM23.783 17.84C24.4896 17.84 25.0696 17.5333 25.523 16.92C25.9763 16.2933 26.203 15.4267 26.203 14.32C26.203 13.2 25.9563 12.3333 25.463 11.72C24.9696 11.0933 24.343 10.78 23.583 10.78C23.1163 10.78 22.683 10.8933 22.283 11.12C21.883 11.3467 21.4763 11.6667 21.063 12.08V16.58C21.4363 16.9933 21.8296 17.3067 22.243 17.52C22.6696 17.7333 23.183 17.84 23.783 17.84ZM36.7578 10.1C37.0511 10.1 37.3311 10.18 37.5978 10.34C37.8645 10.5 37.9978 10.6933 37.9978 10.92C37.9978 11.0933 37.9378 11.24 37.8178 11.36C37.7111 11.48 37.5511 11.54 37.3378 11.54C37.2178 11.54 37.1111 11.52 37.0178 11.48C36.9378 11.4267 36.8378 11.3533 36.7178 11.26C36.5978 11.1533 36.4845 11.0733 36.3778 11.02C36.2711 10.9667 36.1445 10.94 35.9978 10.94C35.8245 10.94 35.6378 11.0133 35.4378 11.16C35.2511 11.3067 34.9511 11.62 34.5378 12.1V16.38C34.5378 16.78 34.5845 17.0733 34.6778 17.26C34.7845 17.4467 34.9711 17.58 35.2378 17.66C35.5045 17.7267 35.9178 17.76 36.4778 17.76C36.5311 17.76 36.5578 17.8 36.5578 17.88C36.5578 17.96 36.5311 18 36.4778 18C36.0511 18 35.7111 17.9933 35.4578 17.98L33.9778 17.96L32.8778 17.98C32.7045 17.9933 32.4645 18 32.1578 18C32.1178 18 32.0978 17.96 32.0978 17.88C32.0978 17.8 32.1178 17.76 32.1578 17.76C32.5178 17.76 32.7845 17.7267 32.9578 17.66C33.1311 17.58 33.2445 17.4467 33.2978 17.26C33.3645 17.0733 33.3978 16.78 33.3978 16.38V12.42C33.3978 11.9667 33.3445 11.64 33.2378 11.44C33.1311 11.24 32.9511 11.14 32.6978 11.14C32.4845 11.14 32.1245 11.24 31.6178 11.44H31.5778C31.5245 11.44 31.4845 11.4133 31.4578 11.36C31.4445 11.2933 31.4645 11.2467 31.5178 11.22L33.8378 10.12L33.9578 10.1C34.0778 10.1 34.2045 10.2533 34.3378 10.56C34.4711 10.8667 34.5378 11.26 34.5378 11.74V11.76C35.0845 11.12 35.5178 10.6867 35.8378 10.46C36.1578 10.22 36.4645 10.1 36.7578 10.1ZM49.9705 17.7C51.1438 16.74 52.0505 15.96 52.6905 15.36C53.3305 14.7467 53.7905 14.2 54.0705 13.72C54.3505 13.24 54.4905 12.76 54.4905 12.28C54.4905 11.7467 54.3238 11.3133 53.9905 10.98C53.6705 10.6333 53.2505 10.46 52.7305 10.46C51.6771 10.46 50.9171 11.2867 50.4505 12.94C50.4505 12.9533 50.4238 12.96 50.3705 12.96C50.2505 12.96 50.1971 12.9333 50.2105 12.88L50.9905 9.84C50.9905 9.81333 51.0171 9.8 51.0705 9.8C51.1105 9.8 51.1438 9.81333 51.1705 9.84C51.2105 9.85333 51.2238 9.86667 51.2105 9.88C51.1971 9.93333 51.1905 10.0067 51.1905 10.1C51.1905 10.3133 51.2905 10.42 51.4905 10.42C51.6105 10.42 51.8105 10.3733 52.0905 10.28C52.6371 10.1067 53.1238 10.02 53.5505 10.02C54.2305 10.02 54.7638 10.2067 55.1505 10.58C55.5505 10.94 55.7505 11.4133 55.7505 12C55.7505 12.4667 55.5971 12.9333 55.2905 13.4C54.9971 13.8667 54.5571 14.3667 53.9705 14.9C53.3971 15.42 52.5905 16.08 51.5505 16.88C51.4971 16.92 51.4771 16.9533 51.4905 16.98C51.5171 17.0067 51.5638 17.02 51.6305 17.02C53.0971 17.02 54.1171 17 54.6905 16.96C55.2638 16.92 55.6771 16.8133 55.9305 16.64C56.1838 16.4667 56.3571 16.16 56.4505 15.72C56.4505 15.6933 56.4838 15.68 56.5505 15.68C56.6438 15.68 56.6905 15.7 56.6905 15.74L56.3905 17.78C56.3905 17.8333 56.3705 17.8867 56.3305 17.94C56.3038 17.98 56.2638 18 56.2105 18H50.1105C50.0438 18 49.9905 17.9667 49.9505 17.9C49.9105 17.82 49.9171 17.7533 49.9705 17.7ZM65.0773 18.26C64.2907 18.26 63.584 18.08 62.9573 17.72C62.344 17.36 61.8573 16.8667 61.4973 16.24C61.1507 15.6 60.9773 14.88 60.9773 14.08C60.9773 13.2933 61.1507 12.5933 61.4973 11.98C61.8573 11.3667 62.3507 10.8867 62.9773 10.54C63.604 10.1933 64.3107 10.02 65.0973 10.02C65.8707 10.02 66.564 10.2 67.1773 10.56C67.7907 10.9067 68.264 11.3933 68.5973 12.02C68.944 12.6467 69.1173 13.3533 69.1173 14.14C69.1173 14.9267 68.944 15.6333 68.5973 16.26C68.2507 16.8867 67.7707 17.38 67.1573 17.74C66.544 18.0867 65.8507 18.26 65.0773 18.26ZM65.2973 17.98C66.0973 17.98 66.6973 17.66 67.0973 17.02C67.5107 16.3667 67.7173 15.4867 67.7173 14.38C67.7173 13.0467 67.444 12.0333 66.8973 11.34C66.364 10.6467 65.6907 10.3 64.8773 10.3C64.0907 10.3 63.4707 10.6333 63.0173 11.3C62.5773 11.9667 62.3573 12.84 62.3573 13.92C62.3573 15.1067 62.624 16.08 63.1573 16.84C63.6907 17.6 64.404 17.98 65.2973 17.98ZM73.5486 17.7C74.7219 16.74 75.6286 15.96 76.2686 15.36C76.9086 14.7467 77.3686 14.2 77.6486 13.72C77.9286 13.24 78.0686 12.76 78.0686 12.28C78.0686 11.7467 77.9019 11.3133 77.5686 10.98C77.2486 10.6333 76.8286 10.46 76.3086 10.46C75.2553 10.46 74.4953 11.2867 74.0286 12.94C74.0286 12.9533 74.0019 12.96 73.9486 12.96C73.8286 12.96 73.7753 12.9333 73.7886 12.88L74.5686 9.84C74.5686 9.81333 74.5953 9.8 74.6486 9.8C74.6886 9.8 74.7219 9.81333 74.7486 9.84C74.7886 9.85333 74.8019 9.86667 74.7886 9.88C74.7753 9.93333 74.7686 10.0067 74.7686 10.1C74.7686 10.3133 74.8686 10.42 75.0686 10.42C75.1886 10.42 75.3886 10.3733 75.6686 10.28C76.2153 10.1067 76.7019 10.02 77.1286 10.02C77.8086 10.02 78.3419 10.2067 78.7286 10.58C79.1286 10.94 79.3286 11.4133 79.3286 12C79.3286 12.4667 79.1753 12.9333 78.8686 13.4C78.5753 13.8667 78.1353 14.3667 77.5486 14.9C76.9753 15.42 76.1686 16.08 75.1286 16.88C75.0753 16.92 75.0553 16.9533 75.0686 16.98C75.0953 17.0067 75.1419 17.02 75.2086 17.02C76.6753 17.02 77.6953 17 78.2686 16.96C78.8419 16.92 79.2553 16.8133 79.5086 16.64C79.7619 16.4667 79.9353 16.16 80.0286 15.72C80.0286 15.6933 80.0619 15.68 80.1286 15.68C80.2219 15.68 80.2686 15.7 80.2686 15.74L79.9686 17.78C79.9686 17.8333 79.9486 17.8867 79.9086 17.94C79.8819 17.98 79.8419 18 79.7886 18H73.6886C73.6219 18 73.5686 17.9667 73.5286 17.9C73.4886 17.82 73.4953 17.7533 73.5486 17.7ZM86.6155 11.9C86.6155 11.4867 86.5755 11.1867 86.4955 11C86.4155 10.8133 86.2555 10.6867 86.0155 10.62C85.7888 10.5533 85.4155 10.52 84.8955 10.52C84.8555 10.52 84.8355 10.48 84.8355 10.4C84.8355 10.32 84.8555 10.28 84.8955 10.28C85.2821 10.28 85.5888 10.2867 85.8155 10.3L87.1755 10.32L88.5155 10.3C88.7421 10.2867 89.0555 10.28 89.4555 10.28C89.4955 10.28 89.5155 10.32 89.5155 10.4C89.5155 10.48 89.4955 10.52 89.4555 10.52C88.9621 10.52 88.5955 10.56 88.3555 10.64C88.1288 10.7067 87.9688 10.8333 87.8755 11.02C87.7821 11.2067 87.7355 11.5 87.7355 11.9V16.38C87.7355 16.7933 87.7755 17.0933 87.8555 17.28C87.9355 17.4667 88.0888 17.5933 88.3155 17.66C88.5555 17.7267 88.9355 17.76 89.4555 17.76C89.4955 17.76 89.5155 17.8 89.5155 17.88C89.5155 17.96 89.4955 18 89.4555 18C89.0688 18 88.7621 17.9933 88.5355 17.98L87.1755 17.96L85.8355 17.98C85.6088 17.9933 85.2955 18 84.8955 18C84.8555 18 84.8355 17.96 84.8355 17.88C84.8355 17.8 84.8555 17.76 84.8955 17.76C85.3888 17.76 85.7488 17.7267 85.9755 17.66C86.2155 17.58 86.3821 17.4467 86.4755 17.26C86.5688 17.0733 86.6155 16.78 86.6155 16.38V11.9ZM101.864 19.52C101.837 19.52 101.81 19.4733 101.784 19.38C101.77 19.3 101.764 19.2067 101.764 19.1C101.764 19.0067 101.77 18.92 101.784 18.84C101.797 18.76 101.817 18.72 101.844 18.72H108.464C108.49 18.72 108.51 18.76 108.524 18.84C108.55 18.9333 108.564 19.0267 108.564 19.12C108.564 19.2133 108.55 19.3 108.524 19.38C108.51 19.4733 108.49 19.52 108.464 19.52H101.864ZM122.74 7.84C122.74 8.36 122.867 8.81333 123.12 9.2C123.373 9.58667 123.68 9.91333 124.04 10.18C124.413 10.4333 124.92 10.7533 125.56 11.14C126.267 11.5667 126.807 11.92 127.18 12.2C127.567 12.48 127.893 12.84 128.16 13.28C128.44 13.7067 128.58 14.22 128.58 14.82C128.58 15.46 128.42 16.04 128.1 16.56C127.78 17.08 127.307 17.4933 126.68 17.8C126.067 18.0933 125.327 18.24 124.46 18.24C123.433 18.24 122.493 18.0067 121.64 17.54C121.573 17.5 121.527 17.4533 121.5 17.4C121.487 17.3467 121.473 17.2667 121.46 17.16L121.2 14.44C121.187 14.3867 121.213 14.3533 121.28 14.34C121.36 14.3267 121.407 14.3467 121.42 14.4C121.633 15.36 122.027 16.1867 122.6 16.88C123.187 17.5733 123.96 17.92 124.92 17.92C125.587 17.92 126.147 17.74 126.6 17.38C127.067 17.0067 127.3 16.42 127.3 15.62C127.3 15.02 127.167 14.5 126.9 14.06C126.633 13.62 126.307 13.26 125.92 12.98C125.547 12.6867 125.033 12.3467 124.38 11.96C123.74 11.5733 123.233 11.24 122.86 10.96C122.5 10.68 122.193 10.3267 121.94 9.9C121.687 9.47333 121.56 8.97333 121.56 8.4C121.56 7.73333 121.733 7.16667 122.08 6.7C122.44 6.22 122.9 5.86667 123.46 5.64C124.033 5.4 124.64 5.28 125.28 5.28C126.067 5.28 126.847 5.44 127.62 5.76C127.82 5.82667 127.92 5.94 127.92 6.1L128.06 8.4C128.06 8.45333 128.027 8.48 127.96 8.48C127.893 8.48 127.853 8.45333 127.84 8.4C127.733 7.70667 127.447 7.06667 126.98 6.48C126.513 5.88 125.84 5.58 124.96 5.58C124.213 5.58 123.653 5.8 123.28 6.24C122.92 6.66667 122.74 7.2 122.74 7.84ZM139.844 16.88C139.884 16.88 139.917 16.9067 139.944 16.96C139.984 17 139.991 17.04 139.964 17.08C139.084 17.8533 138.111 18.24 137.044 18.24C136.271 18.24 135.611 18.06 135.064 17.7C134.517 17.34 134.097 16.8667 133.804 16.28C133.524 15.6933 133.384 15.0667 133.384 14.4C133.384 13.6133 133.571 12.8933 133.944 12.24C134.317 11.5733 134.824 11.0533 135.464 10.68C136.117 10.2933 136.831 10.1 137.604 10.1C138.351 10.1 138.924 10.3 139.324 10.7C139.724 11.1 139.924 11.66 139.924 12.38C139.924 12.5667 139.904 12.7 139.864 12.78C139.837 12.86 139.784 12.9 139.704 12.9L134.744 12.92C134.717 13.2133 134.704 13.4533 134.704 13.64C134.704 14.8 134.977 15.74 135.524 16.46C136.071 17.18 136.837 17.54 137.824 17.54C138.224 17.54 138.564 17.4867 138.844 17.38C139.137 17.2733 139.464 17.1067 139.824 16.88H139.844ZM136.944 10.5C136.371 10.5 135.897 10.6933 135.524 11.08C135.151 11.4533 134.904 11.98 134.784 12.66L138.584 12.58C138.584 11.9 138.437 11.3867 138.144 11.04C137.851 10.68 137.451 10.5 136.944 10.5ZM150.208 10.02C150.755 10.02 151.261 10.1667 151.728 10.46C152.195 10.7533 152.568 11.18 152.848 11.74C153.128 12.3 153.268 12.9533 153.268 13.7C153.268 14.7 153.041 15.5467 152.588 16.24C152.135 16.92 151.575 17.4267 150.908 17.76C150.255 18.0933 149.608 18.26 148.968 18.26C148.555 18.26 148.181 18.22 147.848 18.14C147.528 18.06 147.195 17.9267 146.848 17.74V21.88C146.848 22.28 146.895 22.5733 146.988 22.76C147.095 22.9467 147.288 23.0733 147.568 23.14C147.848 23.22 148.275 23.26 148.848 23.26C148.875 23.26 148.888 23.3 148.888 23.38C148.888 23.46 148.875 23.5 148.848 23.5C148.395 23.5 148.035 23.4933 147.768 23.48L146.308 23.46L145.208 23.48C145.021 23.4933 144.775 23.5 144.468 23.5C144.428 23.5 144.408 23.46 144.408 23.38C144.408 23.3 144.428 23.26 144.468 23.26C144.828 23.26 145.095 23.22 145.268 23.14C145.441 23.0733 145.561 22.9467 145.628 22.76C145.695 22.5733 145.728 22.28 145.728 21.88V12.48C145.728 12 145.675 11.66 145.568 11.46C145.461 11.2467 145.275 11.14 145.008 11.14C144.715 11.14 144.361 11.2333 143.948 11.42L143.908 11.44C143.855 11.44 143.821 11.4067 143.808 11.34C143.781 11.2733 143.788 11.2267 143.828 11.2L146.048 10.14C146.075 10.1267 146.121 10.12 146.188 10.12C146.375 10.12 146.528 10.26 146.648 10.54C146.768 10.82 146.835 11.22 146.848 11.74C147.981 10.5933 149.101 10.02 150.208 10.02ZM149.568 17.84C150.275 17.84 150.855 17.5333 151.308 16.92C151.761 16.2933 151.988 15.4267 151.988 14.32C151.988 13.2 151.741 12.3333 151.248 11.72C150.755 11.0933 150.128 10.78 149.368 10.78C148.901 10.78 148.468 10.8933 148.068 11.12C147.668 11.3467 147.261 11.6667 146.848 12.08V16.58C147.221 16.9933 147.615 17.3067 148.028 17.52C148.455 17.7333 148.968 17.84 149.568 17.84ZM163.263 16.96C163.316 16.96 163.356 16.9933 163.383 17.06C163.41 17.1133 163.403 17.1533 163.363 17.18C162.87 17.5667 162.423 17.84 162.023 18C161.636 18.16 161.23 18.24 160.803 18.24C160.243 18.24 159.783 18.1133 159.423 17.86C159.063 17.6067 158.883 17.1867 158.883 16.6V11.9C158.883 11.5533 158.856 11.3067 158.803 11.16C158.763 11.0133 158.676 10.92 158.543 10.88C158.41 10.8267 158.183 10.8 157.863 10.8C157.81 10.8 157.783 10.76 157.783 10.68C157.783 10.5867 157.81 10.54 157.863 10.54C158.396 10.5267 158.83 10.3867 159.163 10.12C159.496 9.84 159.69 9.47333 159.743 9.02C159.743 8.98 159.796 8.96 159.903 8.96C159.996 8.96 160.043 8.98 160.043 9.02V10.5C160.71 10.4867 161.636 10.42 162.823 10.3C162.85 10.3 162.876 10.3533 162.903 10.46C162.943 10.5533 162.963 10.66 162.963 10.78C162.963 10.8867 162.936 11 162.883 11.12C162.843 11.2267 162.796 11.2733 162.743 11.26C162.01 11.0733 161.11 10.9667 160.043 10.94V15.92C160.043 16.4667 160.176 16.8733 160.443 17.14C160.723 17.4067 161.116 17.54 161.623 17.54C162.21 17.54 162.743 17.3533 163.223 16.98L163.263 16.96ZM175.228 17.7C176.402 16.74 177.308 15.96 177.948 15.36C178.588 14.7467 179.048 14.2 179.328 13.72C179.608 13.24 179.748 12.76 179.748 12.28C179.748 11.7467 179.582 11.3133 179.248 10.98C178.928 10.6333 178.508 10.46 177.988 10.46C176.935 10.46 176.175 11.2867 175.708 12.94C175.708 12.9533 175.682 12.96 175.628 12.96C175.508 12.96 175.455 12.9333 175.468 12.88L176.248 9.84C176.248 9.81333 176.275 9.8 176.328 9.8C176.368 9.8 176.402 9.81333 176.428 9.84C176.468 9.85333 176.482 9.86667 176.468 9.88C176.455 9.93333 176.448 10.0067 176.448 10.1C176.448 10.3133 176.548 10.42 176.748 10.42C176.868 10.42 177.068 10.3733 177.348 10.28C177.895 10.1067 178.382 10.02 178.808 10.02C179.488 10.02 180.022 10.2067 180.408 10.58C180.808 10.94 181.008 11.4133 181.008 12C181.008 12.4667 180.855 12.9333 180.548 13.4C180.255 13.8667 179.815 14.3667 179.228 14.9C178.655 15.42 177.848 16.08 176.808 16.88C176.755 16.92 176.735 16.9533 176.748 16.98C176.775 17.0067 176.822 17.02 176.888 17.02C178.355 17.02 179.375 17 179.948 16.96C180.522 16.92 180.935 16.8133 181.188 16.64C181.442 16.4667 181.615 16.16 181.708 15.72C181.708 15.6933 181.742 15.68 181.808 15.68C181.902 15.68 181.948 15.7 181.948 15.74L181.648 17.78C181.648 17.8333 181.628 17.8867 181.588 17.94C181.562 17.98 181.522 18 181.468 18H175.368C175.302 18 175.248 17.9667 175.208 17.9C175.168 17.82 175.175 17.7533 175.228 17.7ZM190.335 18.26C189.548 18.26 188.842 18.08 188.215 17.72C187.602 17.36 187.115 16.8667 186.755 16.24C186.408 15.6 186.235 14.88 186.235 14.08C186.235 13.2933 186.408 12.5933 186.755 11.98C187.115 11.3667 187.608 10.8867 188.235 10.54C188.862 10.1933 189.568 10.02 190.355 10.02C191.128 10.02 191.822 10.2 192.435 10.56C193.048 10.9067 193.522 11.3933 193.855 12.02C194.202 12.6467 194.375 13.3533 194.375 14.14C194.375 14.9267 194.202 15.6333 193.855 16.26C193.508 16.8867 193.028 17.38 192.415 17.74C191.802 18.0867 191.108 18.26 190.335 18.26ZM190.555 17.98C191.355 17.98 191.955 17.66 192.355 17.02C192.768 16.3667 192.975 15.4867 192.975 14.38C192.975 13.0467 192.702 12.0333 192.155 11.34C191.622 10.6467 190.948 10.3 190.135 10.3C189.348 10.3 188.728 10.6333 188.275 11.3C187.835 11.9667 187.615 12.84 187.615 13.92C187.615 15.1067 187.882 16.08 188.415 16.84C188.948 17.6 189.662 17.98 190.555 17.98ZM198.806 17.7C199.98 16.74 200.886 15.96 201.526 15.36C202.166 14.7467 202.626 14.2 202.906 13.72C203.186 13.24 203.326 12.76 203.326 12.28C203.326 11.7467 203.16 11.3133 202.826 10.98C202.506 10.6333 202.086 10.46 201.566 10.46C200.513 10.46 199.753 11.2867 199.286 12.94C199.286 12.9533 199.26 12.96 199.206 12.96C199.086 12.96 199.033 12.9333 199.046 12.88L199.826 9.84C199.826 9.81333 199.853 9.8 199.906 9.8C199.946 9.8 199.98 9.81333 200.006 9.84C200.046 9.85333 200.06 9.86667 200.046 9.88C200.033 9.93333 200.026 10.0067 200.026 10.1C200.026 10.3133 200.126 10.42 200.326 10.42C200.446 10.42 200.646 10.3733 200.926 10.28C201.473 10.1067 201.96 10.02 202.386 10.02C203.066 10.02 203.6 10.2067 203.986 10.58C204.386 10.94 204.586 11.4133 204.586 12C204.586 12.4667 204.433 12.9333 204.126 13.4C203.833 13.8667 203.393 14.3667 202.806 14.9C202.233 15.42 201.426 16.08 200.386 16.88C200.333 16.92 200.313 16.9533 200.326 16.98C200.353 17.0067 200.4 17.02 200.466 17.02C201.933 17.02 202.953 17 203.526 16.96C204.1 16.92 204.513 16.8133 204.766 16.64C205.02 16.4667 205.193 16.16 205.286 15.72C205.286 15.6933 205.32 15.68 205.386 15.68C205.48 15.68 205.526 15.7 205.526 15.74L205.226 17.78C205.226 17.8333 205.206 17.8867 205.166 17.94C205.14 17.98 205.1 18 205.046 18H198.946C198.88 18 198.826 17.9667 198.786 17.9C198.746 17.82 198.753 17.7533 198.806 17.7ZM211.873 11.9C211.873 11.4867 211.833 11.1867 211.753 11C211.673 10.8133 211.513 10.6867 211.273 10.62C211.047 10.5533 210.673 10.52 210.153 10.52C210.113 10.52 210.093 10.48 210.093 10.4C210.093 10.32 210.113 10.28 210.153 10.28C210.54 10.28 210.847 10.2867 211.073 10.3L212.433 10.32L213.773 10.3C214 10.2867 214.313 10.28 214.713 10.28C214.753 10.28 214.773 10.32 214.773 10.4C214.773 10.48 214.753 10.52 214.713 10.52C214.22 10.52 213.853 10.56 213.613 10.64C213.387 10.7067 213.227 10.8333 213.133 11.02C213.04 11.2067 212.993 11.5 212.993 11.9V16.38C212.993 16.7933 213.033 17.0933 213.113 17.28C213.193 17.4667 213.347 17.5933 213.573 17.66C213.813 17.7267 214.193 17.76 214.713 17.76C214.753 17.76 214.773 17.8 214.773 17.88C214.773 17.96 214.753 18 214.713 18C214.327 18 214.02 17.9933 213.793 17.98L212.433 17.96L211.093 17.98C210.867 17.9933 210.553 18 210.153 18C210.113 18 210.093 17.96 210.093 17.88C210.093 17.8 210.113 17.76 210.153 17.76C210.647 17.76 211.007 17.7267 211.233 17.66C211.473 17.58 211.64 17.4467 211.733 17.26C211.827 17.0733 211.873 16.78 211.873 16.38V11.9Z" fill="black"/>
</svg>
