<svg xmlns="http://www.w3.org/2000/svg" width="442" height="101" fill="#000" xmlns:v="https://vecta.io/nano"><path d="M11.971 53.025c0 .747.082 1.295.245 1.645.187.327.525.56 1.015.7.513.14 1.307.21 2.38.21.07 0 .105.07.105.21s-.035.21-.105.21c-.957 0-1.703-.012-2.24-.035l-3.045-.035-2.52.035-1.82.035c-.07 0-.105-.07-.105-.21s.035-.21.105-.21c.793 0 1.365-.058 1.715-.175a1.05 1.05 0 0 0 .7-.665c.14-.327.21-.852.21-1.575V36.96c0-.7-.07-1.213-.21-1.54-.117-.327-.362-.548-.735-.665-.35-.14-.91-.21-1.68-.21-.07 0-.105-.07-.105-.21s.035-.21.105-.21l1.82.035 2.485.07c.537 0 1.19-.035 1.96-.105l1.12-.07 1.715-.035c2.31 0 4.13.49 5.46 1.47 1.353.98 2.03 2.485 2.03 4.515 0 1.47-.385 2.718-1.155 3.745a6.9 6.9 0 0 1-2.905 2.31c-1.167.513-2.368.77-3.605.77-.653 0-1.202-.058-1.645-.175-.07 0-.105-.058-.105-.175a.66.66 0 0 1 .035-.21c.047-.07.093-.093.14-.07.373.093.782.14 1.225.14 1.213 0 2.24-.502 3.08-1.505s1.26-2.438 1.26-4.305c0-1.843-.432-3.267-1.295-4.27-.863-1.027-2.053-1.54-3.57-1.54-.56 0-.992.058-1.295.175-.28.117-.478.338-.595.665-.117.303-.175.793-.175 1.47v15.995zM39.062 42.14c.537 0 1.05.175 1.54.525s.735.77.735 1.26c0 .443-.14.805-.42 1.085-.257.28-.618.42-1.085.42-.303 0-.56-.058-.77-.175-.187-.14-.385-.327-.595-.56-.21-.21-.397-.362-.56-.455-.163-.117-.362-.175-.595-.175-.257 0-.537.105-.84.315-.28.187-.723.595-1.33 1.225v7.56c0 .653.093 1.155.28 1.505.187.327.502.56.945.7s1.097.21 1.96.21c.093 0 .14.07.14.21s-.047.21-.14.21c-.77 0-1.388-.012-1.855-.035l-2.765-.035-2.03.035-1.365.035c-.07 0-.105-.07-.105-.21s.035-.21.105-.21c.793 0 1.318-.163 1.575-.49s.385-.968.385-1.925V46.48c0-.747-.093-1.295-.28-1.645-.163-.35-.443-.525-.84-.525-.35 0-.933.175-1.75.525h-.035c-.093 0-.163-.058-.21-.175s-.035-.187.035-.21l4.585-2.24.245-.07c.233 0 .467.257.7.77.233.49.373 1.143.42 1.96.91-1.027 1.668-1.738 2.275-2.135s1.155-.595 1.645-.595zm15.971 14.315c-1.4 0-2.637-.327-3.71-.98-1.073-.677-1.902-1.575-2.485-2.695-.583-1.143-.875-2.38-.875-3.71 0-1.517.373-2.8 1.12-3.85.77-1.073 1.738-1.867 2.905-2.38 1.19-.537 2.403-.805 3.64-.805 1.423 0 2.66.338 3.71 1.015 1.073.677 1.89 1.575 2.45 2.695.56 1.097.84 2.275.84 3.535 0 1.4-.35 2.648-1.05 3.745a6.95 6.95 0 0 1-2.765 2.555c-1.167.583-2.427.875-3.78.875zm1.05-.7c1.027 0 1.808-.455 2.345-1.365.56-.91.84-2.24.84-3.99 0-1.563-.222-2.928-.665-4.095-.42-1.167-1.003-2.053-1.75-2.66-.723-.607-1.517-.91-2.38-.91-1.05 0-1.843.432-2.38 1.295s-.805 2.135-.805 3.815c0 1.517.198 2.882.595 4.095.42 1.19.992 2.123 1.715 2.8.747.677 1.575 1.015 2.485 1.015zm17.51-20.895c-1.423 0-2.602.443-3.535 1.33-.91.863-1.61 2.182-2.1 3.955 0 .047-.07.07-.21.07-.117 0-.175-.035-.175-.105l.315-3.5.175-3.255c0-.117.058-.175.175-.175.14 0 .21.058.21.175 0 .513.653.77 1.96.77l7.035.105 4.375-.07 2.38-.035c.887 0 1.528-.058 1.925-.175.42-.117.688-.35.805-.7.023-.093.093-.14.21-.14s.175.047.175.14l-.21 3.29-.105 3.57c0 .07-.07.105-.21.105-.117 0-.187-.035-.21-.105-.233-1.797-.782-3.115-1.645-3.955-.863-.863-2.03-1.295-3.5-1.295-.653 0-1.143.058-1.47.175a1.05 1.05 0 0 0-.63.63c-.093.28-.14.735-.14 1.365v16.135c0 .723.07 1.248.21 1.575s.42.548.84.665 1.085.175 1.995.175c.07 0 .105.07.105.21s-.035.21-.105.21c-.817 0-1.458-.012-1.925-.035l-2.87-.035-2.73.035-2.03.035c-.047 0-.07-.07-.07-.21s.023-.21.07-.21c.91 0 1.575-.058 1.995-.175.443-.117.735-.338.875-.665.163-.35.245-.875.245-1.575V36.96c0-.607-.058-1.05-.175-1.33a1.06 1.06 0 0 0-.63-.595c-.303-.117-.77-.175-1.4-.175zM108.3 53.795c.07 0 .128.058.175.175s.035.198-.035.245l-4.585 2.205-.14.035c-.234 0-.444-.257-.63-.77-.187-.537-.292-1.248-.315-2.135-1.634 1.89-3.36 2.835-5.18 2.835-1.26 0-2.24-.385-2.94-1.155-.7-.793-1.05-1.867-1.05-3.22v-5.215c0-1.587-.362-2.38-1.085-2.38-.233 0-.56.093-.98.28H91.5c-.093 0-.163-.058-.21-.175s-.035-.198.035-.245l4.445-2.065.14-.035c.093 0 .198.047.315.14s.175.175.175.245v7.945c0 1.307.233 2.287.7 2.94.49.63 1.225.945 2.205.945.583 0 1.178-.14 1.785-.42.63-.28 1.19-.665 1.68-1.155v-6.02c0-.817-.094-1.412-.28-1.785-.164-.397-.432-.595-.805-.595-.21 0-.537.093-.98.28h-.035c-.094 0-.164-.058-.21-.175-.047-.14-.024-.222.07-.245l4.41-2.065c.046-.023.105-.035.175-.035.093 0 .198.047.315.14s.175.175.175.245v9.485c0 .817.081 1.388.245 1.715s.431.49.805.49c.28 0 .805-.14 1.575-.42l.07-.035zm16.519-11.76c1.026 0 1.971.245 2.835.735.886.49 1.586 1.225 2.1 2.205.536.98.805 2.17.805 3.57 0 1.68-.362 3.115-1.085 4.305-.7 1.19-1.634 2.088-2.8 2.695a7.93 7.93 0 0 1-3.71.91c-1.82 0-3.454-.537-4.9-1.61l-2.975 1.365h-.07c-.094 0-.152-.047-.175-.14-.024-.07 0-.128.07-.175.63-.397 1.085-.852 1.365-1.365.303-.537.455-1.248.455-2.135V35.28c0-.817-.082-1.4-.245-1.75-.164-.373-.444-.56-.84-.56-.28 0-.735.14-1.365.42h-.035c-.094 0-.164-.058-.21-.175s-.047-.198 0-.245l4.865-2.31.175-.035c.093 0 .198.047.315.14s.175.175.175.245v13.615c.77-.793 1.575-1.423 2.415-1.89s1.785-.7 2.835-.7zm-.945 13.72c1.143 0 2.018-.513 2.625-1.54s.91-2.485.91-4.375c0-2.053-.374-3.593-1.12-4.62-.724-1.05-1.704-1.575-2.94-1.575-1.19 0-2.45.537-3.78 1.61v5.355c0 1.213.221 2.205.665 2.975.466.77 1.026 1.33 1.68 1.68.676.327 1.33.49 1.96.49zm26.378-1.96c.047 0 .094.047.14.14.07.093.082.163.035.21-.863.793-1.726 1.377-2.59 1.75-.863.35-1.796.525-2.8.525-1.423 0-2.66-.315-3.71-.945-1.026-.63-1.82-1.458-2.38-2.485-.536-1.027-.805-2.135-.805-3.325a7.29 7.29 0 0 1 1.015-3.78 7.31 7.31 0 0 1 2.765-2.695c1.19-.677 2.509-1.015 3.955-1.015 1.4 0 2.485.338 3.255 1.015s1.155 1.68 1.155 3.01c0 .677-.14 1.015-.42 1.015l-8.54.035c-.023.21-.035.525-.035.945 0 2.053.467 3.687 1.4 4.9.957 1.19 2.31 1.785 4.06 1.785.654 0 1.202-.07 1.645-.21.444-.163 1.039-.443 1.785-.84l.07-.035zm-5.635-10.92a2.65 2.65 0 0 0-2.135 1.015c-.536.653-.898 1.563-1.085 2.73l5.6-.105c-.046-2.427-.84-3.64-2.38-3.64zM25.301 91.64c.06 0 .09.06.09.18s-.03.18-.09.18h-4.11c-.48 0-1.39-.81-2.73-2.43-1.32-1.64-2.94-3.92-4.86-6.84-.54.1-1.04.15-1.5.15-.1 0-.57-.03-1.41-.09v6.78c0 .62.06 1.07.18 1.35s.35.47.69.57.88.15 1.62.15c.06 0 .09.06.09.18s-.03.18-.09.18c-.64 0-1.13-.01-1.47-.03l-2.13-.03-2.07.03-1.53.03c-.04 0-.06-.06-.06-.18s.02-.18.06-.18c.74 0 1.28-.05 1.62-.15s.57-.29.69-.57c.14-.3.21-.75.21-1.35V75.68c0-.6-.06-1.04-.18-1.32s-.35-.47-.69-.57c-.34-.12-.87-.18-1.59-.18-.06 0-.09-.06-.09-.18s.03-.18.09-.18l1.47.03 2.07.06 1.2-.03.99-.06 2.07-.09c1.6 0 2.84.36 3.72 1.08.9.7 1.35 1.65 1.35 2.85a4.88 4.88 0 0 1-.96 2.94c-.62.88-1.45 1.57-2.49 2.07l4.2 5.67c1.14 1.36 2.15 2.35 3.03 2.97.9.6 1.77.9 2.61.9zm-14.61-9.57a16.63 16.63 0 0 0 1.77.09c1.5 0 2.57-.33 3.21-.99.64-.68.96-1.73.96-3.15 0-1.58-.33-2.7-.99-3.36-.66-.68-1.61-1.02-2.85-1.02-.78 0-1.33.15-1.65.45-.3.28-.45.83-.45 1.65v6.33zm29.225 8.19c.06 0 .11.04.15.12.06.06.07.12.03.18-1.34 1.2-2.82 1.8-4.44 1.8-1.18 0-2.19-.26-3.03-.78a5.32 5.32 0 0 1-1.92-2.13 6.47 6.47 0 0 1-.66-2.88c0-1.18.28-2.26.84-3.24.58-.98 1.36-1.75 2.34-2.31.98-.58 2.06-.87 3.24-.87 1.16 0 2.04.3 2.64.9.62.58.93 1.42.93 2.52 0 .54-.12.81-.36.81l-7.41.03-.06 1.02c0 1.74.41 3.14 1.23 4.2s1.98 1.59 3.48 1.59c.6 0 1.1-.07 1.5-.21.42-.16.91-.41 1.47-.75h.03zm-4.47-9.51c-.84 0-1.53.29-2.07.87-.54.56-.89 1.35-1.05 2.37l5.46-.12c0-1.02-.21-1.79-.63-2.31-.4-.54-.97-.81-1.71-.81zm22.659 9.63c.08 0 .13.05.15.15.02.08-.01.14-.09.18l-3.09 1.47c-.08.04-.17.06-.27.06-.26 0-.5-.17-.72-.51-.2-.36-.34-.84-.42-1.44l-1.5.99c-.48.34-.92.58-1.32.72a3.53 3.53 0 0 1-1.23.21c-.76 0-1.35-.19-1.77-.57-.42-.4-.63-.9-.63-1.5 0-.64.25-1.17.75-1.59.52-.44 1.34-.87 2.46-1.29l3.21-1.17v-1.98c0-1.2-.16-2.07-.48-2.61a1.45 1.45 0 0 0-1.35-.81c-.66 0-1.16.23-1.5.69a3.62 3.62 0 0 0-.66 1.56c-.12.88-.53 1.32-1.23 1.32-.36 0-.63-.09-.81-.27s-.27-.4-.27-.66c0-.5.31-1 .93-1.5.64-.5 1.4-.91 2.28-1.23.9-.32 1.69-.48 2.37-.48.82 0 1.45.27 1.89.81.46.52.69 1.28.69 2.28v5.55c0 .68.09 1.18.27 1.5a.99.99 0 0 0 .9.48c.36 0 .82-.12 1.38-.36h.06zm-4.47-.54v-.18-3.15l-2.52 1.02c-.54.2-.95.45-1.23.75-.28.28-.42.64-.42 1.08 0 .48.15.88.45 1.2.32.3.72.45 1.2.45.4 0 .85-.15 1.35-.45l1.17-.72zm16.018 2.52c-1.3 0-2.39-.28-3.27-.84-.88-.58-1.54-1.32-1.98-2.22a6.66 6.66 0 0 1-.63-2.85c0-1.28.33-2.39.99-3.33.66-.96 1.5-1.69 2.52-2.19 1.02-.52 2.07-.78 3.15-.78.9 0 1.71.18 2.43.54.74.36 1.11.81 1.11 1.35a.97.97 0 0 1-.33.75c-.2.2-.47.3-.81.3-.64 0-1.12-.36-1.44-1.08-.22-.44-.48-.76-.78-.96-.28-.2-.69-.3-1.23-.3-1.08 0-1.92.44-2.52 1.32-.6.86-.9 2.01-.9 3.45 0 1.68.41 3.06 1.23 4.14.82 1.06 2.07 1.59 3.75 1.59 1.14 0 2.14-.32 3-.96h.06c.06 0 .11.03.15.09.06.06.06.11 0 .15-.7.64-1.41 1.11-2.13 1.41-.7.28-1.49.42-2.37.42zm19.383-2.01c.06 0 .11.05.15.15.04.08.03.14-.03.18-.74.6-1.41 1.03-2.01 1.29s-1.24.39-1.92.39c-.84 0-1.54-.19-2.1-.57-.54-.4-.81-1.05-.81-1.95v-6.99c0-.48-.04-.83-.12-1.05a.72.72 0 0 0-.45-.48c-.2-.08-.53-.12-.99-.12-.06 0-.09-.07-.09-.21s.03-.21.09-.21c.84-.02 1.52-.23 2.04-.63.54-.4.87-.96.99-1.68.02-.06.1-.09.24-.09s.21.03.21.09v2.28c.96-.02 2.33-.12 4.11-.3.06 0 .11.07.15.21a1.75 1.75 0 0 1 .06.48 1.7 1.7 0 0 1-.09.54c-.06.16-.13.23-.21.21-1.12-.26-2.46-.41-4.02-.45v7.38c0 1.6.78 2.4 2.34 2.4.84 0 1.64-.28 2.4-.84l.06-.03zm37.958-17.1c.06 0 .09.06.09.18s-.03.18-.09.18c-.82 0-1.43.25-1.83.75-.38.48-.57 1.24-.57 2.28v15.72c0 .06-.05.1-.15.12s-.17.01-.21-.03l-13.98-16.74-.09-.12v13.05c0 1.04.19 1.8.57 2.28s.97.72 1.77.72c.06 0 .09.06.09.18s-.03.18-.09.18c-.48 0-.86-.01-1.14-.03l-1.53-.03-1.59.03-1.29.03c-.04 0-.06-.06-.06-.18s.02-.18.06-.18c.86 0 1.48-.24 1.86-.72.4-.48.6-1.24.6-2.28V74.81c-.82-.8-1.65-1.2-2.49-1.2-.06 0-.09-.06-.09-.18s.03-.18.09-.18l1.11.03c.24.02.58.03 1.02.03l1.41-.03a5.29 5.29 0 0 1 .63-.03c.16 0 .27.04.33.12.08.06.2.21.36.45l.72.99 11.34 13.74V76.64c0-1.04-.18-1.8-.54-2.28-.36-.5-.95-.75-1.77-.75-.04 0-.06-.06-.06-.18s.02-.18.06-.18l1.17.03 1.53.06 1.53-.06 1.23-.03zm17.596 17.13c.08 0 .13.05.15.15.02.08-.01.14-.09.18l-3.09 1.47c-.08.04-.17.06-.27.06-.26 0-.5-.17-.72-.51-.2-.36-.34-.84-.42-1.44l-1.5.99c-.48.34-.92.58-1.32.72a3.53 3.53 0 0 1-1.23.21c-.76 0-1.35-.19-1.77-.57-.42-.4-.63-.9-.63-1.5 0-.64.25-1.17.75-1.59.52-.44 1.34-.87 2.46-1.29l3.21-1.17v-1.98c0-1.2-.16-2.07-.48-2.61a1.45 1.45 0 0 0-1.35-.81c-.66 0-1.16.23-1.5.69a3.62 3.62 0 0 0-.66 1.56c-.12.88-.53 1.32-1.23 1.32-.36 0-.63-.09-.81-.27s-.27-.4-.27-.66c0-.5.31-1 .93-1.5.64-.5 1.4-.91 2.28-1.23.9-.32 1.69-.48 2.37-.48.82 0 1.45.27 1.89.81.46.52.69 1.28.69 2.28v5.55c0 .68.09 1.18.27 1.5a.99.99 0 0 0 .9.48c.36 0 .82-.12 1.38-.36h.06zm-4.47-.54v-.18-3.15l-2.52 1.02c-.54.2-.95.45-1.23.75-.28.28-.42.64-.42 1.08 0 .48.15.88.45 1.2.32.3.72.45 1.2.45.4 0 .85-.15 1.35-.45l1.17-.72zm18.508.51c.06 0 .11.05.15.15.04.08.03.14-.03.18-.74.6-1.41 1.03-2.01 1.29s-1.24.39-1.92.39c-.84 0-1.54-.19-2.1-.57-.54-.4-.81-1.05-.81-1.95v-6.99c0-.48-.04-.83-.12-1.05a.72.72 0 0 0-.45-.48c-.2-.08-.53-.12-.99-.12-.06 0-.09-.07-.09-.21s.03-.21.09-.21c.84-.02 1.52-.23 2.04-.63.54-.4.87-.96.99-1.68.02-.06.1-.09.24-.09s.21.03.21.09v2.28c.96-.02 2.33-.12 4.11-.3.06 0 .11.07.15.21a1.75 1.75 0 0 1 .06.48 1.7 1.7 0 0 1-.09.54c-.06.16-.13.23-.21.21-1.12-.26-2.46-.41-4.02-.45v7.38c0 1.6.78 2.4 2.34 2.4.84 0 1.64-.28 2.4-.84l.06-.03zm9.327-13.62c-.44 0-.79-.12-1.05-.36-.24-.24-.36-.58-.36-1.02 0-.4.12-.72.36-.96.26-.24.61-.36 1.05-.36.42 0 .75.12.99.36s.36.56.36.96c0 .44-.12.78-.36 1.02s-.57.36-.99.36zM165.374 92c-.06 0-.09-.06-.09-.18s.03-.18.09-.18c.74 0 1.23-.13 1.47-.39.24-.28.36-.84.36-1.68v-5.58c0-.7-.07-1.21-.21-1.53a.75.75 0 0 0-.75-.48c-.34 0-.78.14-1.32.42h-.03c-.08 0-.14-.05-.18-.15s-.02-.17.06-.21l3.99-1.86.12-.03c.06 0 .12.03.18.09.08.06.12.12.12.18l-.03 1.2-.03 2.34v5.61c0 .58.04 1.02.12 1.32.1.28.28.48.54.6.26.1.65.15 1.17.15.06 0 .09.06.09.18s-.03.18-.09.18c-.5 0-.89-.01-1.17-.03l-1.62-.03-1.68.03-1.11.03zm24.164-11.58c.04 0 .06.06.06.18s-.02.18-.06.18c-.52 0-.97.18-1.35.54-.36.34-.71.92-1.05 1.74l-3.75 8.91c-.04.1-.15.15-.33.15-.16 0-.27-.05-.33-.15l-4.26-9.06c-.4-.88-.74-1.45-1.02-1.71a1.39 1.39 0 0 0-1.02-.42c-.06 0-.09-.06-.09-.18s.03-.18.09-.18l.9.03 1.29.03 2.04-.03 1.23-.03c.06 0 .09.06.09.18s-.03.18-.09.18c-1.18 0-1.77.23-1.77.69 0 .16.04.32.12.48l3.57 7.5 2.7-6.51c.14-.38.21-.68.21-.9 0-.84-.77-1.26-2.31-1.26-.04 0-.06-.06-.06-.18s.02-.18.06-.18l1.23.03 1.8.03 1.14-.03c.2-.02.52-.03.96-.03zm15.407 9.84c.06 0 .11.04.15.12.06.06.07.12.03.18-1.34 1.2-2.82 1.8-4.44 1.8-1.18 0-2.19-.26-3.03-.78a5.32 5.32 0 0 1-1.92-2.13 6.47 6.47 0 0 1-.66-2.88c0-1.18.28-2.26.84-3.24.58-.98 1.36-1.75 2.34-2.31.98-.58 2.06-.87 3.24-.87 1.16 0 2.04.3 2.64.9.62.58.93 1.42.93 2.52 0 .54-.12.81-.36.81l-7.41.03-.06 1.02c0 1.74.41 3.14 1.23 4.2s1.98 1.59 3.48 1.59c.6 0 1.1-.07 1.5-.21.42-.16.91-.41 1.47-.75h.03zm-4.47-9.51c-.84 0-1.53.29-2.07.87-.54.56-.89 1.35-1.05 2.37l5.46-.12c0-1.02-.21-1.79-.63-2.31-.4-.54-.97-.81-1.71-.81zm31.067 11.37c-.6 0-1.29-.03-2.07-.09l-1.11-.06-1.41-.03-2.07.03-1.53.03c-.04 0-.06-.06-.06-.18s.02-.18.06-.18c.74 0 1.28-.05 1.62-.15s.57-.29.69-.57c.14-.3.21-.75.21-1.35V75.68c0-.6-.06-1.04-.18-1.32s-.35-.47-.69-.57c-.34-.12-.88-.18-1.62-.18-.04 0-.06-.06-.06-.18s.02-.18.06-.18l1.5.03 2.07.06 2.25-.09 1.92-.06c2.08 0 3.92.4 5.52 1.2s2.84 1.89 3.72 3.27 1.32 2.93 1.32 4.65c0 1.94-.46 3.66-1.38 5.16-.9 1.48-2.13 2.63-3.69 3.45-1.54.8-3.23 1.2-5.07 1.2zm-.3-.48c1.54 0 2.9-.33 4.08-.99 1.2-.68 2.13-1.67 2.79-2.97.68-1.32 1.02-2.89 1.02-4.71 0-1.74-.32-3.31-.96-4.71-.64-1.42-1.55-2.54-2.73-3.36-1.16-.82-2.51-1.23-4.05-1.23-.86 0-1.52.05-1.98.15s-.8.3-1.02.6c-.22.28-.33.72-.33 1.32v13.5c0 .88.21 1.5.63 1.86.44.36 1.29.54 2.55.54zm27.282-1.38c.06 0 .11.04.15.12.06.06.07.12.03.18-1.34 1.2-2.82 1.8-4.44 1.8-1.18 0-2.19-.26-3.03-.78a5.32 5.32 0 0 1-1.92-2.13 6.47 6.47 0 0 1-.66-2.88c0-1.18.28-2.26.84-3.24.58-.98 1.36-1.75 2.34-2.31.98-.58 2.06-.87 3.24-.87 1.16 0 2.04.3 2.64.9.62.58.93 1.42.93 2.52 0 .54-.12.81-.36.81l-7.41.03-.06 1.02c0 1.74.41 3.14 1.23 4.2s1.98 1.59 3.48 1.59c.6 0 1.1-.07 1.5-.21.42-.16.91-.41 1.47-.75h.03zm-4.47-9.51c-.84 0-1.53.29-2.07.87-.54.56-.89 1.35-1.05 2.37l5.46-.12c0-1.02-.21-1.79-.63-2.31-.4-.54-.97-.81-1.71-.81zm23.375-.33c.04 0 .06.06.06.18s-.02.18-.06.18c-.52 0-.97.18-1.35.54-.36.34-.71.92-1.05 1.74l-3.75 8.91c-.04.1-.15.15-.33.15-.16 0-.27-.05-.33-.15l-4.26-9.06c-.4-.88-.74-1.45-1.02-1.71a1.39 1.39 0 0 0-1.02-.42c-.06 0-.09-.06-.09-.18s.03-.18.09-.18l.9.03 1.29.03 2.04-.03 1.23-.03c.06 0 .09.06.09.18s-.03.18-.09.18c-1.18 0-1.77.23-1.77.69 0 .16.04.32.12.48l3.57 7.5 2.7-6.51c.14-.38.21-.68.21-.9 0-.84-.77-1.26-2.31-1.26-.04 0-.06-.06-.06-.18s.02-.18.06-.18l1.23.03 1.8.03 1.14-.03c.2-.02.52-.03.96-.03zm15.407 9.84c.06 0 .11.04.15.12.06.06.07.12.03.18-1.34 1.2-2.82 1.8-4.44 1.8-1.18 0-2.19-.26-3.03-.78a5.32 5.32 0 0 1-1.92-2.13 6.47 6.47 0 0 1-.66-2.88c0-1.18.28-2.26.84-3.24.58-.98 1.36-1.75 2.34-2.31.98-.58 2.06-.87 3.24-.87 1.16 0 2.04.3 2.64.9.62.58.93 1.42.93 2.52 0 .54-.12.81-.36.81l-7.41.03-.06 1.02c0 1.74.41 3.14 1.23 4.2s1.98 1.59 3.48 1.59c.6 0 1.1-.07 1.5-.21.42-.16.91-.41 1.47-.75h.03zm-4.47-9.51c-.84 0-1.53.29-2.07.87-.54.56-.89 1.35-1.05 2.37l5.46-.12c0-1.02-.21-1.79-.63-2.31-.4-.54-.97-.81-1.71-.81zM299.861 92c-.06 0-.09-.06-.09-.18s.03-.18.09-.18c.74 0 1.23-.13 1.47-.39.24-.28.36-.84.36-1.68V74.12c0-.72-.07-1.24-.21-1.56-.12-.32-.35-.48-.69-.48-.3 0-.75.14-1.35.42h-.03c-.08 0-.15-.05-.21-.15-.04-.12-.02-.19.06-.21l3.96-1.86.12-.03c.06 0 .13.03.21.09s.12.12.12.18v19.05c0 .84.11 1.4.33 1.68.24.26.74.39 1.5.39.06 0 .09.06.09.18s-.03.18-.09.18c-.48 0-.87-.01-1.17-.03l-1.65-.03-1.68.03-1.14.03zm18.083.39c-1.18 0-2.22-.28-3.12-.84-.88-.58-1.57-1.35-2.07-2.31-.48-.98-.72-2.04-.72-3.18 0-1.3.32-2.4.96-3.3.64-.92 1.45-1.6 2.43-2.04 1-.46 2.02-.69 3.06-.69 1.18 0 2.21.29 3.09.87a5.77 5.77 0 0 1 2.07 2.31c.48.94.72 1.94.72 3 0 1.24-.29 2.33-.87 3.27-.58.92-1.36 1.64-2.34 2.16-.98.5-2.05.75-3.21.75zm.87-.57c1.04 0 1.84-.39 2.4-1.17.58-.78.87-1.97.87-3.57 0-1.26-.2-2.38-.6-3.36s-.95-1.74-1.65-2.28-1.48-.81-2.34-.81c-1.02 0-1.81.38-2.37 1.14s-.84 1.87-.84 3.33c0 1.24.19 2.38.57 3.42.4 1.02.94 1.83 1.62 2.43a3.5 3.5 0 0 0 2.34.87zm20.714-11.79c.82 0 1.58.22 2.28.66.72.44 1.29 1.08 1.71 1.92s.63 1.82.63 2.94c0 1.52-.34 2.8-1.02 3.84-.66 1.02-1.49 1.78-2.49 2.28-1 .48-1.99.72-2.97.72-.62 0-1.17-.05-1.65-.15s-.96-.28-1.44-.54v6.12c0 .6.07 1.04.21 1.32.16.28.44.47.84.57.42.12 1.06.18 1.92.18.04 0 .06.06.06.18s-.02.18-.06.18c-.72 0-1.28-.01-1.68-.03l-2.22-.03-1.65.03-1.14.03c-.06 0-.09-.06-.09-.18s.03-.18.09-.18c.54 0 .93-.06 1.17-.18.26-.1.43-.29.51-.57.1-.28.15-.72.15-1.32V83.75c0-.7-.08-1.2-.24-1.5-.14-.32-.41-.48-.81-.48-.38 0-.9.15-1.56.45h-.03c-.08 0-.14-.05-.18-.15-.06-.1-.05-.16.03-.18l3.51-1.68c.08-.04.15-.06.21-.06.26 0 .48.21.66.63.18.4.28.98.3 1.74.84-.86 1.66-1.49 2.46-1.89.82-.4 1.65-.6 2.49-.6zm-1.02 11.7c1.04 0 1.88-.46 2.52-1.38.66-.92.99-2.21.99-3.87s-.37-2.94-1.11-3.84a3.38 3.38 0 0 0-2.79-1.38c-.68 0-1.3.16-1.86.48-.56.3-1.12.74-1.68 1.32v6.81c.52.62 1.08 1.09 1.68 1.41.62.3 1.37.45 2.25.45zm22.162-1.47c.06 0 .11.04.15.12.06.06.07.12.03.18-1.34 1.2-2.82 1.8-4.44 1.8-1.18 0-2.19-.26-3.03-.78a5.32 5.32 0 0 1-1.92-2.13 6.47 6.47 0 0 1-.66-2.88c0-1.18.28-2.26.84-3.24.58-.98 1.36-1.75 2.34-2.31.98-.58 2.06-.87 3.24-.87 1.16 0 2.04.3 2.64.9.62.58.93 1.42.93 2.52 0 .54-.12.81-.36.81l-7.41.03-.06 1.02c0 1.74.41 3.14 1.23 4.2s1.98 1.59 3.48 1.59c.6 0 1.1-.07 1.5-.21.42-.16.91-.41 1.47-.75h.03zm-4.47-9.51c-.84 0-1.53.29-2.07.87-.54.56-.89 1.35-1.05 2.37l5.46-.12c0-1.02-.21-1.79-.63-2.31-.4-.54-.97-.81-1.71-.81zm18.695-.6c.44 0 .86.13 1.26.39.42.26.63.57.63.93a.98.98 0 0 1-.3.72c-.18.18-.43.27-.75.27-.2 0-.37-.04-.51-.12s-.3-.2-.48-.36c-.2-.16-.38-.28-.54-.36-.14-.08-.32-.12-.54-.12-.26 0-.53.1-.81.3-.26.2-.69.64-1.29 1.32v6.45c0 .58.07 1.02.21 1.32.16.28.44.48.84.6.4.1 1.01.15 1.83.15.06 0 .09.06.09.18s-.03.18-.09.18a33.35 33.35 0 0 1-1.59-.03l-2.25-.03-1.62.03-1.14.03c-.06 0-.09-.06-.09-.18s.03-.18.09-.18c.52 0 .9-.05 1.14-.15.26-.12.43-.32.51-.6.1-.3.15-.74.15-1.32v-5.88c0-.66-.08-1.14-.24-1.44s-.42-.45-.78-.45c-.3 0-.83.15-1.59.45h-.03c-.08 0-.14-.04-.18-.12-.04-.1-.02-.17.06-.21l3.6-1.74.18-.03c.2 0 .39.23.57.69.2.44.31 1.02.33 1.74.82-.94 1.47-1.58 1.95-1.92s.94-.51 1.38-.51z"/><path d="M7.32 18.24c-1.24 0-2.347-.287-3.32-.86-.96-.587-1.707-1.373-2.24-2.36a6.96 6.96 0 0 1-.78-3.26c0-1.373.347-2.547 1.04-3.52.693-.987 1.58-1.727 2.66-2.22 1.093-.493 2.207-.74 3.34-.74 1.267 0 2.38.3 3.34.9.96.587 1.693 1.367 2.2 2.34.52.973.78 2.007.78 3.1a6.13 6.13 0 0 1-.96 3.34c-.64 1.013-1.5 1.813-2.58 2.4-1.067.587-2.227.88-3.48.88zm.7-.42c.907 0 1.72-.22 2.44-.66.733-.44 1.307-1.087 1.72-1.94.427-.853.64-1.867.64-3.04 0-1.253-.233-2.367-.7-3.34s-1.127-1.733-1.98-2.28c-.84-.547-1.827-.82-2.96-.82-1.467 0-2.613.473-3.44 1.42S2.5 9.407 2.5 11.06c0 1.253.233 2.4.7 3.44.467 1.027 1.12 1.84 1.96 2.44.84.587 1.793.88 2.86.88zm14.893.42c-.867 0-1.593-.187-2.18-.56-.587-.387-1.02-.88-1.3-1.48a4.44 4.44 0 0 1-.42-1.9c0-.853.213-1.593.64-2.22.427-.64.973-1.127 1.64-1.46.68-.347 1.373-.52 2.08-.52.587 0 1.12.12 1.6.36.493.227.74.513.74.86 0 .173-.067.327-.2.46-.12.12-.287.18-.5.18-.36 0-.653-.22-.88-.66-.173-.267-.36-.467-.56-.6s-.487-.2-.86-.2c-.747 0-1.333.293-1.76.88-.413.573-.62 1.347-.62 2.32 0 1.12.28 2.04.84 2.76s1.4 1.08 2.52 1.08c.813 0 1.493-.22 2.04-.66h.02c.04 0 .073.02.1.06.04.04.047.073.02.1-.467.413-.94.72-1.42.92a4.11 4.11 0 0 1-1.54.28zm12.823-1.28c.053 0 .093.033.12.1.027.053.02.093-.02.12-.493.387-.94.66-1.34.82a3.16 3.16 0 0 1-1.22.24c-.56 0-1.02-.127-1.38-.38s-.54-.673-.54-1.26v-4.7c0-.347-.027-.593-.08-.74a.37.37 0 0 0-.26-.28c-.133-.053-.36-.08-.68-.08-.053 0-.08-.04-.08-.12 0-.093.027-.14.08-.14.533-.013.967-.153 1.3-.42a1.63 1.63 0 0 0 .58-1.1c0-.04.053-.06.16-.06.093 0 .14.02.14.06v1.48c.667-.013 1.593-.08 2.78-.2.027 0 .053.053.08.16.04.093.06.2.06.32 0 .107-.027.22-.08.34-.04.107-.087.153-.14.14-.733-.187-1.633-.293-2.7-.32v4.98c0 .547.133.953.4 1.22.28.267.673.4 1.18.4.587 0 1.12-.187 1.6-.56l.04-.02zm11.965.74l2.72-2.34c.64-.613 1.1-1.16 1.38-1.64s.42-.96.42-1.44c0-.533-.167-.967-.5-1.3-.32-.347-.74-.52-1.26-.52-1.053 0-1.813.827-2.28 2.48 0 .013-.027.02-.08.02-.12 0-.173-.027-.16-.08l.78-3.04c0-.027.027-.04.08-.04.04 0 .073.013.1.04.04.013.053.027.04.04a.95.95 0 0 0-.02.22c0 .213.1.32.3.32.12 0 .32-.047.6-.14.547-.173 1.033-.26 1.46-.26.68 0 1.213.187 1.6.56.4.36.6.833.6 1.42 0 .467-.153.933-.46 1.4-.293.467-.733.967-1.32 1.5-.573.52-1.38 1.18-2.42 1.98-.053.04-.073.073-.06.1.027.027.073.04.14.04l3.06-.06c.573-.04.987-.147 1.24-.32s.427-.48.52-.92c0-.027.033-.04.1-.04.093 0 .14.02.14.06l-.3 2.04c0 .053-.02.107-.06.16-.027.04-.067.06-.12.06h-6.1c-.067 0-.12-.033-.16-.1-.04-.08-.033-.147.02-.2zm15.107.56c-.787 0-1.493-.18-2.12-.54-.613-.36-1.1-.853-1.46-1.48-.347-.64-.52-1.36-.52-2.16 0-.787.173-1.487.52-2.1a3.84 3.84 0 0 1 1.48-1.44c.627-.347 1.333-.52 2.12-.52.773 0 1.467.18 2.08.54.613.347 1.087.833 1.42 1.46.347.627.52 1.333.52 2.12s-.173 1.493-.52 2.12a3.84 3.84 0 0 1-1.44 1.48c-.613.347-1.307.52-2.08.52zm.22-.28c.8 0 1.4-.32 1.8-.96.413-.653.62-1.533.62-2.64 0-1.333-.273-2.347-.82-3.04-.533-.693-1.207-1.04-2.02-1.04-.787 0-1.407.333-1.86 1-.44.667-.66 1.54-.66 2.62 0 1.187.267 2.16.8 2.92s1.247 1.14 2.14 1.14zm8.251-.28l2.72-2.34c.64-.613 1.1-1.16 1.38-1.64s.42-.96.42-1.44c0-.533-.167-.967-.5-1.3-.32-.347-.74-.52-1.26-.52-1.053 0-1.813.827-2.28 2.48 0 .013-.027.02-.08.02-.12 0-.173-.027-.16-.08l.78-3.04c0-.027.027-.04.08-.04.04 0 .073.013.1.04.04.013.053.027.04.04-.013.053-.02.127-.02.22 0 .213.1.32.3.32.12 0 .32-.047.6-.14.547-.173 1.033-.26 1.46-.26.68 0 1.213.187 1.6.56.4.36.6.833.6 1.42 0 .467-.153.933-.46 1.4-.293.467-.733.967-1.32 1.5-.573.52-1.38 1.18-2.42 1.98-.053.04-.073.073-.06.1.027.027.073.04.14.04l3.06-.06c.573-.04.987-.147 1.24-.32s.427-.48.52-.92c0-.027.033-.04.1-.04.093 0 .14.02.14.06l-.3 2.04c0 .053-.02.107-.06.16-.027.04-.067.06-.12.06h-6.1c-.067 0-.12-.033-.16-.1-.04-.08-.033-.147.02-.2zm11.047 0l2.72-2.34c.64-.613 1.1-1.16 1.38-1.64s.42-.96.42-1.44c0-.533-.167-.967-.5-1.3-.32-.347-.74-.52-1.26-.52-1.053 0-1.813.827-2.28 2.48 0 .013-.027.02-.08.02-.12 0-.173-.027-.16-.08l.78-3.04c0-.027.027-.04.08-.04.04 0 .073.013.1.04.04.013.053.027.04.04a.95.95 0 0 0-.02.22c0 .213.1.32.3.32.12 0 .32-.047.6-.14.547-.173 1.033-.26 1.46-.26.68 0 1.213.187 1.6.56.4.36.6.833.6 1.42 0 .467-.153.933-.46 1.4-.293.467-.733.967-1.32 1.5-.573.52-1.38 1.18-2.42 1.98-.053.04-.073.073-.06.1.027.027.073.04.14.04l3.06-.06c.573-.04.987-.147 1.24-.32s.427-.48.52-.92c0-.027.033-.04.1-.04.093 0 .14.02.14.06l-.3 2.04c0 .053-.02.107-.06.16-.027.04-.067.06-.12.06h-6.1c-.067 0-.12-.033-.16-.1-.04-.08-.033-.147.02-.2zM101 19.52c-.026 0-.053-.047-.08-.14a1.76 1.76 0 0 1-.02-.28 1.62 1.62 0 0 1 .02-.26c.014-.08.034-.12.06-.12h6.62c.027 0 .047.04.06.12.027.093.04.187.04.28a.81.81 0 0 1-.04.26c-.013.093-.033.14-.06.14H101zm21.817-3.22c0 .427.053.74.16.94.12.187.34.32.66.4.333.08.853.12 1.56.12.04 0 .06.04.06.12s-.02.12-.06.12a31.38 31.38 0 0 1-1.28-.02l-1.74-.02-1.34.02-1.02.02c-.027 0-.04-.04-.04-.12s.013-.12.04-.12c.506 0 .873-.033 1.1-.1.24-.067.4-.193.48-.38.08-.2.12-.5.12-.9V7.12c0-.4-.04-.693-.12-.88s-.24-.313-.48-.38c-.227-.08-.594-.12-1.1-.12-.027 0-.04-.04-.04-.12s.013-.12.04-.12l1 .02 1.34.04c.333 0 .706-.02 1.12-.06l.76-.02.9-.04c1.226 0 2.206.273 2.94.82.746.547 1.12 1.38 1.12 2.5 0 .88-.22 1.62-.66 2.22a3.89 3.89 0 0 1-1.66 1.34c-.667.293-1.36.44-2.08.44-.4 0-.727-.033-.98-.1-.04 0-.06-.033-.06-.1a.36.36 0 0 1 .02-.12c.026-.04.053-.053.08-.04.213.053.453.08.72.08.88 0 1.62-.287 2.22-.86.613-.573.92-1.4.92-2.48 0-1.053-.287-1.88-.86-2.48-.574-.613-1.307-.92-2.2-.92-.48 0-.827.027-1.04.08a.66.66 0 0 0-.46.38c-.094.187-.14.507-.14.96v9.14zm15.48-6.2a1.61 1.61 0 0 1 .84.24c.267.16.4.353.4.58a.6.6 0 0 1-.18.44c-.107.12-.267.18-.48.18-.12 0-.227-.02-.32-.06l-.3-.22c-.12-.107-.233-.187-.34-.24a.84.84 0 0 0-.38-.08c-.173 0-.36.073-.56.22-.187.147-.487.46-.9.94v4.28c0 .4.047.693.14.88.107.187.293.32.56.4.267.067.68.1 1.24.1.053 0 .08.04.08.12s-.027.12-.08.12a20.43 20.43 0 0 1-1.02-.02l-1.48-.02-1.1.02-.72.02c-.04 0-.06-.04-.06-.12s.02-.12.06-.12c.36 0 .627-.033.8-.1a.6.6 0 0 0 .34-.4c.067-.187.1-.48.1-.88v-3.96c0-.453-.053-.78-.16-.98s-.287-.3-.54-.3c-.213 0-.573.1-1.08.3h-.04c-.053 0-.093-.027-.12-.08-.013-.067.007-.113.06-.14l2.32-1.1.12-.02c.12 0 .247.153.38.46s.2.7.2 1.18v.02c.547-.64.98-1.073 1.3-1.3.32-.24.627-.36.92-.36zm11.731 6.78c.04 0 .073.027.1.08.04.04.046.08.02.12-.88.773-1.854 1.16-2.92 1.16-.774 0-1.434-.18-1.98-.54a3.59 3.59 0 0 1-1.26-1.42 4.31 4.31 0 0 1-.42-1.88 4.27 4.27 0 0 1 .56-2.16c.373-.667.88-1.187 1.52-1.56.653-.387 1.366-.58 2.14-.58.746 0 1.32.2 1.72.6s.6.96.6 1.68c0 .187-.02.32-.06.4-.027.08-.08.12-.16.12l-4.96.02-.04.72c0 1.16.273 2.1.82 2.82s1.313 1.08 2.3 1.08c.4 0 .74-.053 1.02-.16a5.26 5.26 0 0 0 .98-.5h.02zm-2.9-6.38c-.574 0-1.047.193-1.42.58-.374.373-.62.9-.74 1.58l3.8-.08c0-.68-.147-1.193-.44-1.54-.294-.36-.694-.54-1.2-.54zm8.904 1c0 .467.153.84.46 1.12.306.267.753.553 1.34.86l1.08.62a2.37 2.37 0 0 1 .68.68c.186.28.28.62.28 1.02 0 .68-.254 1.253-.76 1.72s-1.194.7-2.06.7c-.707 0-1.347-.2-1.92-.6-.08-.053-.12-.133-.12-.24l-.04-1.56c0-.04.033-.06.1-.06.08-.013.126 0 .14.04.253.667.58 1.173.98 1.52.413.347.886.52 1.42.52.44 0 .773-.107 1-.32s.326-.527.3-.94c-.014-.507-.174-.893-.48-1.16-.294-.28-.74-.567-1.34-.86l-1.06-.58c-.254-.173-.474-.4-.66-.68-.174-.28-.26-.627-.26-1.04 0-.72.266-1.267.8-1.64.546-.387 1.186-.58 1.92-.58.533 0 1.02.1 1.46.3.08.027.126.06.14.1.026.027.04.067.04.12l-.02.62-.02.84c0 .027-.04.04-.12.04s-.12-.013-.12-.04c0-.28-.107-.54-.32-.78-.214-.253-.48-.453-.8-.6s-.64-.22-.96-.22c-.334 0-.6.093-.8.28-.187.173-.28.44-.28.8zm14.918 5.38c.04 0 .073.027.1.08.04.04.046.08.02.12-.88.773-1.854 1.16-2.92 1.16-.774 0-1.434-.18-1.98-.54a3.59 3.59 0 0 1-1.26-1.42 4.31 4.31 0 0 1-.42-1.88 4.27 4.27 0 0 1 .56-2.16c.373-.667.88-1.187 1.52-1.56.653-.387 1.366-.58 2.14-.58.746 0 1.32.2 1.72.6s.6.96.6 1.68c0 .187-.02.32-.06.4-.027.08-.08.12-.16.12l-4.96.02-.04.72c0 1.16.273 2.1.82 2.82s1.313 1.08 2.3 1.08c.4 0 .74-.053 1.02-.16a5.26 5.26 0 0 0 .98-.5h.02zm-2.9-6.38c-.574 0-1.047.193-1.42.58-.374.373-.62.9-.74 1.58l3.8-.08c0-.68-.147-1.193-.44-1.54-.294-.36-.694-.54-1.2-.54zm16.784 7.26c.04 0 .06.04.06.12s-.02.12-.06.12a9.97 9.97 0 0 1-.72-.02l-1.08-.02-1.1.02-.72.02c-.04 0-.06-.04-.06-.12s.02-.12.06-.12c.36 0 .626-.033.8-.1.173-.08.286-.213.34-.4.066-.187.1-.48.1-.88v-3.24c0-.787-.154-1.367-.46-1.74-.294-.373-.754-.56-1.38-.56-.414 0-.834.113-1.26.34-.414.213-.794.513-1.14.9v4.3c0 .4.026.693.08.88.066.187.186.32.36.4.173.067.44.1.8.1.04 0 .06.04.06.12s-.02.12-.06.12a9.97 9.97 0 0 1-.72-.02l-1.08-.02-1.1.02-.72.02c-.04 0-.06-.04-.06-.12s.02-.12.06-.12c.36 0 .626-.033.8-.1.173-.08.286-.213.34-.4.066-.187.1-.48.1-.88v-3.96c0-.453-.054-.78-.16-.98s-.287-.3-.54-.3c-.214 0-.574.1-1.08.3h-.04c-.054 0-.094-.027-.12-.08-.014-.067.006-.113.06-.14l2.32-1.1.12-.02c.12 0 .246.153.38.46s.2.7.2 1.18c.506-.587 1.006-1.02 1.5-1.3.506-.28 1.026-.42 1.56-.42.746 0 1.32.207 1.72.62s.6 1.02.6 1.82v3.92c0 .4.026.693.08.88.066.187.186.32.36.4.173.067.44.1.8.1zm9.652-.8c.053 0 .093.033.12.1.026.053.02.093-.02.12-.494.387-.94.66-1.34.82-.387.16-.794.24-1.22.24-.56 0-1.02-.127-1.38-.38s-.54-.673-.54-1.26v-4.7c0-.347-.027-.593-.08-.74-.04-.147-.127-.24-.26-.28-.134-.053-.36-.08-.68-.08-.054 0-.08-.04-.08-.12 0-.093.026-.14.08-.14.533-.013.966-.153 1.3-.42.333-.28.526-.647.58-1.1 0-.04.053-.06.16-.06.093 0 .14.02.14.06v1.48c.666-.013 1.593-.08 2.78-.2.026 0 .053.053.08.16.04.093.06.2.06.32 0 .107-.027.22-.08.34-.04.107-.087.153-.14.14-.734-.187-1.634-.293-2.7-.32v4.98c0 .547.133.953.4 1.22.28.267.673.4 1.18.4.586 0 1.12-.187 1.6-.56l.04-.02z"/></svg>