<svg width="442" height="101" viewBox="0 0 442 101" fill="none" xmlns="http://www.w3.org/2000/svg">
<path d="M29.3967 55.58C29.5134 55.58 29.5717 55.65 29.5717 55.79C29.5717 55.93 29.5134 56 29.3967 56C28.9534 56 28.2417 55.9767 27.2617 55.93C26.2817 55.8833 25.5701 55.86 25.1267 55.86C24.5434 55.86 23.8551 55.8833 23.0617 55.93C22.2684 55.9767 21.6501 56 21.2067 56C21.1134 56 21.0667 55.93 21.0667 55.79C21.0667 55.65 21.1134 55.58 21.2067 55.58C21.8834 55.58 22.3734 55.51 22.6767 55.37C23.0034 55.2067 23.1667 54.95 23.1667 54.6C23.1667 54.25 22.9684 53.655 22.5717 52.815L19.9117 47.425H11.4417L9.76172 51.205C9.45839 51.905 9.30672 52.535 9.30672 53.095C9.30672 53.9117 9.59839 54.53 10.1817 54.95C10.7651 55.37 11.5817 55.58 12.6317 55.58C12.7484 55.58 12.8067 55.65 12.8067 55.79C12.8067 55.93 12.7484 56 12.6317 56C12.2117 56 11.6051 55.9767 10.8117 55.93C9.92505 55.8833 9.15505 55.86 8.50172 55.86C7.87172 55.86 7.13672 55.8833 6.29672 55.93C5.55005 55.9767 4.93172 56 4.44172 56C4.32505 56 4.26672 55.93 4.26672 55.79C4.26672 55.65 4.32505 55.58 4.44172 55.58C5.09505 55.58 5.64339 55.4517 6.08672 55.195C6.53005 54.9383 6.96172 54.4833 7.38172 53.83C7.80172 53.1533 8.30339 52.1617 8.88672 50.855L16.4117 33.915C16.4584 33.845 16.5634 33.81 16.7267 33.81C16.8901 33.81 16.9834 33.845 17.0067 33.915L25.5817 51.205C26.3984 52.885 27.0751 54.04 27.6117 54.67C28.1717 55.2767 28.7667 55.58 29.3967 55.58ZM11.8267 46.55H19.4917L15.4667 38.395L11.8267 46.55ZM44.8295 42.14C45.3662 42.14 45.8795 42.315 46.3695 42.665C46.8595 43.015 47.1045 43.435 47.1045 43.925C47.1045 44.3683 46.9645 44.73 46.6845 45.01C46.4279 45.29 46.0662 45.43 45.5995 45.43C45.2962 45.43 45.0395 45.3717 44.8295 45.255C44.6429 45.115 44.4445 44.9283 44.2345 44.695C44.0245 44.485 43.8379 44.3333 43.6745 44.24C43.5112 44.1233 43.3129 44.065 43.0795 44.065C42.8229 44.065 42.5429 44.17 42.2395 44.38C41.9595 44.5667 41.5162 44.975 40.9095 45.605V53.165C40.9095 53.8183 41.0029 54.32 41.1895 54.67C41.3762 54.9967 41.6912 55.23 42.1345 55.37C42.5779 55.51 43.2312 55.58 44.0945 55.58C44.1879 55.58 44.2345 55.65 44.2345 55.79C44.2345 55.93 44.1879 56 44.0945 56C43.3245 56 42.7062 55.9883 42.2395 55.965L39.4745 55.93L37.4445 55.965C37.1179 55.9883 36.6629 56 36.0795 56C36.0095 56 35.9745 55.93 35.9745 55.79C35.9745 55.65 36.0095 55.58 36.0795 55.58C36.8729 55.58 37.3979 55.4167 37.6545 55.09C37.9112 54.7633 38.0395 54.1217 38.0395 53.165V46.48C38.0395 45.7333 37.9462 45.185 37.7595 44.835C37.5962 44.485 37.3162 44.31 36.9195 44.31C36.5695 44.31 35.9862 44.485 35.1695 44.835H35.1345C35.0412 44.835 34.9712 44.7767 34.9245 44.66C34.8779 44.5433 34.8895 44.4733 34.9595 44.45L39.5445 42.21C39.6845 42.1633 39.7662 42.14 39.7895 42.14C40.0229 42.14 40.2562 42.3967 40.4895 42.91C40.7229 43.4 40.8629 44.0533 40.9095 44.87C41.8195 43.8433 42.5779 43.1317 43.1845 42.735C43.7912 42.3383 44.3395 42.14 44.8295 42.14ZM62.2604 43.225C62.3537 43.0617 62.2954 42.98 62.0854 42.98C59.9154 42.98 58.2237 43.26 57.0104 43.82C55.8204 44.3567 55.0154 45.255 54.5954 46.515C54.5954 46.5383 54.5487 46.55 54.4554 46.55C54.2687 46.55 54.187 46.5033 54.2104 46.41L55.6104 41.23C55.6104 41.2067 55.657 41.195 55.7504 41.195C55.937 41.195 56.0187 41.2417 55.9954 41.335C55.9487 41.5217 55.9254 41.65 55.9254 41.72C55.9254 42.0233 56.0654 42.2333 56.3454 42.35C56.6254 42.4433 57.0804 42.49 57.7104 42.49H65.5504C65.6437 42.49 65.7254 42.5367 65.7954 42.63C65.8654 42.7233 65.877 42.8167 65.8304 42.91L57.7454 55.16C57.6754 55.3233 57.7337 55.405 57.9204 55.405C59.6704 55.405 61.0587 55.2883 62.0854 55.055C63.1354 54.8217 63.9404 54.4367 64.5004 53.9C65.0604 53.34 65.4687 52.57 65.7254 51.59C65.7487 51.52 65.8187 51.485 65.9354 51.485C66.0754 51.485 66.1454 51.52 66.1454 51.59L66.0754 55.615C66.0754 55.7083 66.0404 55.8017 65.9704 55.895C65.9004 55.965 65.8187 56 65.7254 56H54.4904C54.397 56 54.3154 55.9533 54.2454 55.86C54.1987 55.7667 54.1987 55.6733 54.2454 55.58L62.2604 43.225ZM87.0499 54.355C87.1433 54.355 87.1899 54.5533 87.1899 54.95C87.1899 55.1833 87.1666 55.4167 87.1199 55.65C87.0733 55.86 87.0266 55.965 86.9799 55.965L86.1399 55.93C85.3933 55.8833 84.8333 55.86 84.4599 55.86V60.935C84.4599 61.1683 84.3666 61.3317 84.1799 61.425L81.8699 62.58C81.7299 62.6267 81.6599 62.65 81.6599 62.65C81.5899 62.65 81.5549 62.5567 81.5549 62.37V55.755C80.1316 55.7317 77.4599 55.72 73.5399 55.72C73.4233 55.72 73.3299 55.6733 73.2599 55.58C73.1899 55.4867 73.2016 55.3933 73.2949 55.3L83.9349 42.14C83.9816 42.0933 84.0516 42.07 84.1449 42.07C84.2149 42.07 84.2849 42.0933 84.3549 42.14C84.4249 42.1633 84.4599 42.21 84.4599 42.28V54.46L87.0499 54.355ZM75.5349 54.565C78.4283 54.565 80.4349 54.5533 81.5549 54.53V46.83L75.3599 54.32C75.2199 54.4833 75.2783 54.565 75.5349 54.565ZM110.888 53.795C110.958 53.795 111.017 53.8533 111.063 53.97C111.11 54.0867 111.098 54.1683 111.028 54.215L106.443 56.42L106.303 56.455C106.07 56.455 105.86 56.1983 105.673 55.685C105.487 55.1483 105.382 54.4367 105.358 53.55C103.725 55.44 101.998 56.385 100.178 56.385C98.9185 56.385 97.9385 56 97.2385 55.23C96.5385 54.4367 96.1885 53.3633 96.1885 52.01V46.795C96.1885 45.2083 95.8268 44.415 95.1035 44.415C94.8701 44.415 94.5435 44.5083 94.1235 44.695H94.0885C93.9951 44.695 93.9251 44.6367 93.8785 44.52C93.8318 44.4033 93.8435 44.3217 93.9135 44.275L98.3585 42.21L98.4985 42.175C98.5918 42.175 98.6968 42.2217 98.8135 42.315C98.9301 42.4083 98.9885 42.49 98.9885 42.56V50.505C98.9885 51.8117 99.2218 52.7917 99.6885 53.445C100.178 54.075 100.913 54.39 101.893 54.39C102.477 54.39 103.072 54.25 103.678 53.97C104.308 53.69 104.868 53.305 105.358 52.815V46.795C105.358 45.9783 105.265 45.3833 105.078 45.01C104.915 44.6133 104.647 44.415 104.273 44.415C104.063 44.415 103.737 44.5083 103.293 44.695H103.258C103.165 44.695 103.095 44.6367 103.048 44.52C103.002 44.38 103.025 44.2983 103.118 44.275L107.528 42.21C107.575 42.1867 107.633 42.175 107.703 42.175C107.797 42.175 107.902 42.2217 108.018 42.315C108.135 42.4083 108.193 42.49 108.193 42.56V52.045C108.193 52.8617 108.275 53.4333 108.438 53.76C108.602 54.0867 108.87 54.25 109.243 54.25C109.523 54.25 110.048 54.11 110.818 53.83L110.888 53.795ZM18.3117 77.27C18.3117 77.33 18.2517 77.36 18.1317 77.36C18.0317 77.36 17.9817 77.33 17.9817 77.27C17.8617 76.19 17.4917 75.36 16.8717 74.78C16.2517 74.2 15.4417 73.91 14.4417 73.91H12.7917C11.8917 73.91 11.2817 74.04 10.9617 74.3C10.6417 74.54 10.4817 75.01 10.4817 75.71V82.28H13.3617C14.4417 82.28 15.2217 82.11 15.7017 81.77C16.1817 81.41 16.4217 80.86 16.4217 80.12C16.4217 80.08 16.4817 80.06 16.6017 80.06C16.7217 80.06 16.7817 80.08 16.7817 80.12L16.7517 82.61C16.7517 83.19 16.7617 83.63 16.7817 83.93L16.8117 85.43C16.8117 85.47 16.7517 85.49 16.6317 85.49C16.5117 85.49 16.4517 85.47 16.4517 85.43C16.4517 84.55 16.2017 83.92 15.7017 83.54C15.2017 83.14 14.3917 82.94 13.2717 82.94H10.4817V89.45C10.4817 90.09 10.5617 90.56 10.7217 90.86C10.9017 91.14 11.2317 91.34 11.7117 91.46C12.2117 91.58 12.9917 91.64 14.0517 91.64C14.0917 91.64 14.1117 91.7 14.1117 91.82C14.1117 91.94 14.0917 92 14.0517 92C13.2317 92 12.5917 91.99 12.1317 91.97L9.34172 91.94L7.30172 91.97C6.92172 91.99 6.40172 92 5.74172 92C5.68172 92 5.65172 91.94 5.65172 91.82C5.65172 91.7 5.68172 91.64 5.74172 91.64C6.48172 91.64 7.02172 91.59 7.36172 91.49C7.72172 91.39 7.96172 91.2 8.08172 90.92C8.22172 90.62 8.29172 90.17 8.29172 89.57V75.68C8.29172 75.08 8.23172 74.64 8.11172 74.36C7.99172 74.08 7.76172 73.89 7.42172 73.79C7.08172 73.67 6.54172 73.61 5.80172 73.61C5.76172 73.61 5.74172 73.55 5.74172 73.43C5.74172 73.31 5.76172 73.25 5.80172 73.25H17.9817C18.1617 73.25 18.2517 73.34 18.2517 73.52L18.3117 77.27ZM39.0333 90.23C39.1133 90.23 39.1633 90.28 39.1833 90.38C39.2233 90.48 39.2133 90.55 39.1533 90.59L35.5233 92.3L35.4033 92.33C35.2033 92.33 35.0133 92.09 34.8333 91.61C34.6533 91.13 34.5633 90.51 34.5633 89.75C33.0633 91.43 31.5033 92.27 29.8833 92.27C28.8633 92.27 28.0633 91.95 27.4833 91.31C26.9033 90.67 26.6133 89.76 26.6133 88.58V83.99C26.6133 83.23 26.5433 82.68 26.4033 82.34C26.2833 82 26.0633 81.83 25.7433 81.83C25.5033 81.83 25.1733 81.92 24.7533 82.1H24.6933C24.6333 82.1 24.5833 82.05 24.5433 81.95C24.5233 81.85 24.5433 81.79 24.6033 81.77L28.0533 80.18L28.1733 80.15C28.2333 80.15 28.3033 80.18 28.3833 80.24C28.4633 80.3 28.5033 80.36 28.5033 80.42V87.47C28.5033 89.77 29.3433 90.92 31.0233 90.92C31.6233 90.92 32.2333 90.77 32.8533 90.47C33.4733 90.17 34.0433 89.75 34.5633 89.21V83.99C34.5633 83.23 34.4933 82.68 34.3533 82.34C34.2133 82 33.9833 81.83 33.6633 81.83C33.4233 81.83 33.0933 81.92 32.6733 82.1H32.6133C32.5533 82.1 32.5133 82.05 32.4933 81.95C32.4733 81.85 32.4933 81.79 32.5533 81.77L36.0033 80.18L36.1233 80.15C36.1833 80.15 36.2433 80.18 36.3033 80.24C36.3833 80.3 36.4233 80.36 36.4233 80.42V88.73C36.4233 89.41 36.5033 89.9 36.6633 90.2C36.8233 90.5 37.0833 90.65 37.4433 90.65C37.7433 90.65 38.2533 90.52 38.9733 90.26L39.0333 90.23ZM44.8868 92C44.8268 92 44.7968 91.94 44.7968 91.82C44.7968 91.7 44.8268 91.64 44.8868 91.64C45.6268 91.64 46.1168 91.51 46.3568 91.25C46.5968 90.97 46.7168 90.41 46.7168 89.57V74.12C46.7168 73.4 46.6468 72.88 46.5068 72.56C46.3868 72.24 46.1568 72.08 45.8168 72.08C45.5168 72.08 45.0668 72.22 44.4668 72.5H44.4368C44.3568 72.5 44.2868 72.45 44.2268 72.35C44.1868 72.23 44.2068 72.16 44.2868 72.14L48.2468 70.28L48.3668 70.25C48.4268 70.25 48.4968 70.28 48.5768 70.34C48.6568 70.4 48.6968 70.46 48.6968 70.52V89.57C48.6968 90.41 48.8068 90.97 49.0268 91.25C49.2668 91.51 49.7668 91.64 50.5268 91.64C50.5868 91.64 50.6168 91.7 50.6168 91.82C50.6168 91.94 50.5868 92 50.5268 92C50.0468 92 49.6568 91.99 49.3568 91.97L47.7068 91.94L46.0268 91.97C45.7468 91.99 45.3668 92 44.8868 92ZM57.1798 92C57.1198 92 57.0898 91.94 57.0898 91.82C57.0898 91.7 57.1198 91.64 57.1798 91.64C57.9198 91.64 58.4098 91.51 58.6498 91.25C58.8898 90.97 59.0098 90.41 59.0098 89.57V74.12C59.0098 73.4 58.9398 72.88 58.7998 72.56C58.6798 72.24 58.4498 72.08 58.1098 72.08C57.8098 72.08 57.3598 72.22 56.7598 72.5H56.7298C56.6498 72.5 56.5798 72.45 56.5198 72.35C56.4798 72.23 56.4998 72.16 56.5798 72.14L60.5398 70.28L60.6598 70.25C60.7198 70.25 60.7898 70.28 60.8698 70.34C60.9498 70.4 60.9898 70.46 60.9898 70.52V89.57C60.9898 90.41 61.0998 90.97 61.3198 91.25C61.5598 91.51 62.0598 91.64 62.8198 91.64C62.8798 91.64 62.9098 91.7 62.9098 91.82C62.9098 91.94 62.8798 92 62.8198 92C62.3398 92 61.9498 91.99 61.6498 91.97L59.9998 91.94L58.3198 91.97C58.0398 91.99 57.6598 92 57.1798 92ZM84.334 76.67C84.334 77.43 84.524 78.1 84.904 78.68C85.284 79.26 85.744 79.75 86.284 80.15C86.824 80.55 87.584 81.04 88.564 81.62C89.584 82.24 90.384 82.77 90.964 83.21C91.544 83.65 92.034 84.2 92.434 84.86C92.854 85.52 93.064 86.3 93.064 87.2C93.064 88.18 92.814 89.06 92.314 89.84C91.834 90.62 91.124 91.24 90.184 91.7C89.244 92.14 88.134 92.36 86.854 92.36C85.234 92.36 83.794 92 82.534 91.28C82.434 91.22 82.364 91.15 82.324 91.07C82.284 90.99 82.254 90.87 82.234 90.71L81.904 86.51C81.884 86.43 81.924 86.38 82.024 86.36C82.144 86.34 82.214 86.37 82.234 86.45C82.634 87.93 83.264 89.2 84.124 90.26C84.984 91.3 86.124 91.82 87.544 91.82C88.524 91.82 89.344 91.56 90.004 91.04C90.664 90.52 90.994 89.67 90.994 88.49C90.994 87.59 90.794 86.82 90.394 86.18C89.994 85.52 89.504 84.97 88.924 84.53C88.364 84.07 87.594 83.55 86.614 82.97C85.634 82.35 84.874 81.84 84.334 81.44C83.794 81.02 83.334 80.5 82.954 79.88C82.574 79.24 82.384 78.49 82.384 77.63C82.384 76.61 82.654 75.75 83.194 75.05C83.734 74.33 84.444 73.8 85.324 73.46C86.204 73.1 87.134 72.92 88.114 72.92C89.354 72.92 90.544 73.15 91.684 73.61C91.984 73.75 92.134 73.93 92.134 74.15L92.314 77.75C92.314 77.83 92.254 77.88 92.134 77.9C92.034 77.92 91.974 77.89 91.954 77.81C91.754 76.75 91.304 75.75 90.604 74.81C89.904 73.87 88.894 73.4 87.574 73.4C86.514 73.4 85.704 73.71 85.144 74.33C84.604 74.95 84.334 75.73 84.334 76.67ZM108.608 90.35C108.668 90.35 108.718 90.4 108.758 90.5C108.798 90.58 108.788 90.64 108.728 90.68C107.988 91.28 107.318 91.71 106.718 91.97C106.118 92.23 105.478 92.36 104.798 92.36C103.958 92.36 103.258 92.17 102.698 91.79C102.158 91.39 101.888 90.74 101.888 89.84V82.85C101.888 82.37 101.848 82.02 101.768 81.8C101.688 81.56 101.538 81.4 101.318 81.32C101.118 81.24 100.788 81.2 100.328 81.2C100.268 81.2 100.238 81.13 100.238 80.99C100.238 80.85 100.268 80.78 100.328 80.78C101.168 80.76 101.848 80.55 102.368 80.15C102.908 79.75 103.238 79.19 103.358 78.47C103.378 78.41 103.458 78.38 103.597 78.38C103.738 78.38 103.808 78.41 103.808 78.47V80.75C104.768 80.73 106.138 80.63 107.918 80.45C107.978 80.45 108.028 80.52 108.068 80.66C108.108 80.8 108.128 80.96 108.128 81.14C108.128 81.32 108.098 81.5 108.038 81.68C107.978 81.84 107.908 81.91 107.828 81.89C106.708 81.63 105.368 81.48 103.808 81.44V88.82C103.808 90.42 104.588 91.22 106.148 91.22C106.988 91.22 107.788 90.94 108.548 90.38L108.608 90.35ZM126.304 90.38C126.384 90.38 126.434 90.43 126.454 90.53C126.474 90.61 126.444 90.67 126.364 90.71L123.274 92.18C123.194 92.22 123.104 92.24 123.004 92.24C122.744 92.24 122.504 92.07 122.284 91.73C122.084 91.37 121.944 90.89 121.864 90.29L120.364 91.28C119.884 91.62 119.444 91.86 119.044 92C118.664 92.14 118.254 92.21 117.814 92.21C117.054 92.21 116.464 92.02 116.044 91.64C115.624 91.24 115.414 90.74 115.414 90.14C115.414 89.5 115.664 88.97 116.164 88.55C116.684 88.11 117.504 87.68 118.624 87.26L121.834 86.09V84.11C121.834 82.91 121.674 82.04 121.354 81.5C121.054 80.96 120.604 80.69 120.004 80.69C119.344 80.69 118.844 80.92 118.504 81.38C118.164 81.84 117.944 82.36 117.844 82.94C117.724 83.82 117.314 84.26 116.614 84.26C116.254 84.26 115.984 84.17 115.804 83.99C115.624 83.81 115.534 83.59 115.534 83.33C115.534 82.83 115.844 82.33 116.464 81.83C117.104 81.33 117.864 80.92 118.744 80.6C119.644 80.28 120.434 80.12 121.114 80.12C121.934 80.12 122.564 80.39 123.004 80.93C123.464 81.45 123.694 82.21 123.694 83.21V88.76C123.694 89.44 123.784 89.94 123.964 90.26C124.164 90.58 124.464 90.74 124.864 90.74C125.224 90.74 125.684 90.62 126.244 90.38H126.304ZM121.834 89.84V89.66V86.51L119.314 87.53C118.774 87.73 118.364 87.98 118.084 88.28C117.804 88.56 117.664 88.92 117.664 89.36C117.664 89.84 117.814 90.24 118.114 90.56C118.434 90.86 118.834 91.01 119.314 91.01C119.714 91.01 120.164 90.86 120.664 90.56L121.834 89.84ZM137.852 92.36C136.552 92.36 135.462 92.08 134.582 91.52C133.702 90.94 133.042 90.2 132.602 89.3C132.182 88.4 131.972 87.45 131.972 86.45C131.972 85.17 132.302 84.06 132.962 83.12C133.622 82.16 134.462 81.43 135.482 80.93C136.502 80.41 137.552 80.15 138.632 80.15C139.532 80.15 140.342 80.33 141.062 80.69C141.802 81.05 142.172 81.5 142.172 82.04C142.172 82.34 142.062 82.59 141.842 82.79C141.642 82.99 141.372 83.09 141.032 83.09C140.392 83.09 139.912 82.73 139.592 82.01C139.372 81.57 139.112 81.25 138.812 81.05C138.532 80.85 138.122 80.75 137.582 80.75C136.502 80.75 135.662 81.19 135.062 82.07C134.462 82.93 134.162 84.08 134.162 85.52C134.162 87.2 134.572 88.58 135.392 89.66C136.212 90.72 137.462 91.25 139.142 91.25C140.282 91.25 141.282 90.93 142.142 90.29H142.202C142.262 90.29 142.312 90.32 142.352 90.38C142.412 90.44 142.412 90.49 142.352 90.53C141.652 91.17 140.942 91.64 140.222 91.94C139.522 92.22 138.732 92.36 137.852 92.36ZM162.394 91.64C162.434 91.64 162.454 91.7 162.454 91.82C162.454 91.94 162.434 92 162.394 92C161.894 92 161.504 91.99 161.224 91.97L159.604 91.94L157.414 91.97C157.094 91.99 156.654 92 156.094 92C156.054 92 156.034 91.94 156.034 91.82C156.034 91.7 156.054 91.64 156.094 91.64C157.054 91.64 157.534 91.44 157.534 91.04C157.534 90.86 157.444 90.65 157.264 90.41L153.604 85.52L152.284 86.57V89.57C152.284 90.41 152.404 90.97 152.644 91.25C152.884 91.51 153.384 91.64 154.144 91.64C154.204 91.64 154.234 91.7 154.234 91.82C154.234 91.94 154.204 92 154.144 92C153.644 92 153.254 91.99 152.974 91.97L151.354 91.94L149.674 91.97C149.394 91.99 149.024 92 148.564 92C148.504 92 148.474 91.94 148.474 91.82C148.474 91.7 148.504 91.64 148.564 91.64C149.304 91.64 149.794 91.51 150.034 91.25C150.274 90.97 150.394 90.41 150.394 89.57V74.12C150.394 73.4 150.324 72.88 150.184 72.56C150.044 72.24 149.804 72.08 149.464 72.08C149.184 72.08 148.744 72.22 148.144 72.5H148.114C148.034 72.5 147.964 72.45 147.904 72.35C147.864 72.25 147.884 72.18 147.964 72.14L151.834 70.28L151.984 70.25C152.044 70.25 152.104 70.28 152.164 70.34C152.244 70.4 152.284 70.46 152.284 70.52V86.06L156.094 82.88C156.714 82.38 157.024 81.94 157.024 81.56C157.024 81.32 156.884 81.13 156.604 80.99C156.344 80.85 155.944 80.78 155.404 80.78C155.344 80.78 155.314 80.72 155.314 80.6C155.314 80.48 155.344 80.42 155.404 80.42C155.964 80.42 156.384 80.43 156.664 80.45L158.884 80.48L160.924 80.45C161.204 80.43 161.574 80.42 162.034 80.42C162.074 80.42 162.094 80.48 162.094 80.6C162.094 80.72 162.074 80.78 162.034 80.78C161.254 80.78 160.394 80.97 159.454 81.35C158.534 81.71 157.624 82.26 156.724 83L155.074 84.32L158.974 89.57C159.974 90.95 161.114 91.64 162.394 91.64ZM187.792 92.12C187.192 92.12 186.502 92.09 185.722 92.03C185.422 92.01 185.052 91.99 184.612 91.97C184.192 91.95 183.722 91.94 183.202 91.94L181.132 91.97C180.752 91.99 180.242 92 179.602 92C179.562 92 179.542 91.94 179.542 91.82C179.542 91.7 179.562 91.64 179.602 91.64C180.342 91.64 180.882 91.59 181.222 91.49C181.562 91.39 181.792 91.2 181.912 90.92C182.052 90.62 182.122 90.17 182.122 89.57V75.68C182.122 75.08 182.062 74.64 181.942 74.36C181.822 74.08 181.592 73.89 181.252 73.79C180.912 73.67 180.372 73.61 179.632 73.61C179.592 73.61 179.572 73.55 179.572 73.43C179.572 73.31 179.592 73.25 179.632 73.25L181.132 73.28C182.012 73.32 182.702 73.34 183.202 73.34C183.962 73.34 184.712 73.31 185.452 73.25C186.412 73.21 187.052 73.19 187.372 73.19C189.452 73.19 191.292 73.59 192.892 74.39C194.492 75.19 195.732 76.28 196.612 77.66C197.492 79.04 197.932 80.59 197.932 82.31C197.932 84.25 197.472 85.97 196.552 87.47C195.652 88.95 194.422 90.1 192.862 90.92C191.322 91.72 189.632 92.12 187.792 92.12ZM187.492 91.64C189.032 91.64 190.392 91.31 191.572 90.65C192.772 89.97 193.702 88.98 194.362 87.68C195.042 86.36 195.382 84.79 195.382 82.97C195.382 81.23 195.062 79.66 194.422 78.26C193.782 76.84 192.872 75.72 191.692 74.9C190.532 74.08 189.182 73.67 187.642 73.67C186.782 73.67 186.122 73.72 185.662 73.82C185.202 73.92 184.862 74.12 184.642 74.42C184.422 74.7 184.312 75.14 184.312 75.74V89.24C184.312 90.12 184.522 90.74 184.942 91.1C185.382 91.46 186.232 91.64 187.492 91.64ZM214.774 90.26C214.834 90.26 214.884 90.3 214.924 90.38C214.984 90.44 214.994 90.5 214.954 90.56C213.614 91.76 212.134 92.36 210.514 92.36C209.334 92.36 208.324 92.1 207.484 91.58C206.644 91.04 206.004 90.33 205.564 89.45C205.124 88.55 204.904 87.59 204.904 86.57C204.904 85.39 205.184 84.31 205.744 83.33C206.324 82.35 207.104 81.58 208.084 81.02C209.064 80.44 210.144 80.15 211.324 80.15C212.484 80.15 213.364 80.45 213.964 81.05C214.584 81.63 214.894 82.47 214.894 83.57C214.894 84.11 214.774 84.38 214.534 84.38L207.124 84.41C207.084 84.85 207.064 85.19 207.064 85.43C207.064 87.17 207.474 88.57 208.294 89.63C209.114 90.69 210.274 91.22 211.774 91.22C212.374 91.22 212.874 91.15 213.274 91.01C213.694 90.85 214.184 90.6 214.744 90.26H214.774ZM210.304 80.75C209.464 80.75 208.774 81.04 208.234 81.62C207.694 82.18 207.344 82.97 207.184 83.99L212.644 83.87C212.644 82.85 212.434 82.08 212.014 81.56C211.614 81.02 211.044 80.75 210.304 80.75ZM233.679 80.42C233.719 80.42 233.739 80.48 233.739 80.6C233.739 80.72 233.719 80.78 233.679 80.78C233.159 80.78 232.709 80.96 232.329 81.32C231.969 81.66 231.619 82.24 231.279 83.06L227.529 91.97C227.489 92.07 227.379 92.12 227.199 92.12C227.039 92.12 226.929 92.07 226.869 91.97L222.609 82.91C222.209 82.03 221.869 81.46 221.589 81.2C221.309 80.92 220.969 80.78 220.569 80.78C220.509 80.78 220.479 80.72 220.479 80.6C220.479 80.48 220.509 80.42 220.569 80.42C220.949 80.42 221.249 80.43 221.469 80.45L222.759 80.48L224.799 80.45C225.099 80.43 225.509 80.42 226.029 80.42C226.089 80.42 226.119 80.48 226.119 80.6C226.119 80.72 226.089 80.78 226.029 80.78C224.849 80.78 224.259 81.01 224.259 81.47C224.259 81.63 224.299 81.79 224.379 81.95L227.949 89.45L230.649 82.94C230.789 82.56 230.859 82.26 230.859 82.04C230.859 81.2 230.089 80.78 228.549 80.78C228.509 80.78 228.489 80.72 228.489 80.6C228.489 80.48 228.509 80.42 228.549 80.42C229.089 80.42 229.499 80.43 229.779 80.45L231.579 80.48L232.719 80.45C232.919 80.43 233.239 80.42 233.679 80.42ZM249.086 90.26C249.146 90.26 249.196 90.3 249.236 90.38C249.296 90.44 249.306 90.5 249.266 90.56C247.926 91.76 246.446 92.36 244.826 92.36C243.646 92.36 242.636 92.1 241.796 91.58C240.956 91.04 240.316 90.33 239.876 89.45C239.436 88.55 239.216 87.59 239.216 86.57C239.216 85.39 239.496 84.31 240.056 83.33C240.636 82.35 241.416 81.58 242.396 81.02C243.376 80.44 244.456 80.15 245.636 80.15C246.796 80.15 247.676 80.45 248.276 81.05C248.896 81.63 249.206 82.47 249.206 83.57C249.206 84.11 249.086 84.38 248.846 84.38L241.436 84.41C241.396 84.85 241.376 85.19 241.376 85.43C241.376 87.17 241.786 88.57 242.606 89.63C243.426 90.69 244.586 91.22 246.086 91.22C246.686 91.22 247.186 91.15 247.586 91.01C248.006 90.85 248.496 90.6 249.056 90.26H249.086ZM244.616 80.75C243.776 80.75 243.086 81.04 242.546 81.62C242.006 82.18 241.656 82.97 241.496 83.99L246.956 83.87C246.956 82.85 246.746 82.08 246.326 81.56C245.926 81.02 245.356 80.75 244.616 80.75ZM256.111 92C256.051 92 256.021 91.94 256.021 91.82C256.021 91.7 256.051 91.64 256.111 91.64C256.851 91.64 257.341 91.51 257.581 91.25C257.821 90.97 257.941 90.41 257.941 89.57V74.12C257.941 73.4 257.871 72.88 257.731 72.56C257.611 72.24 257.381 72.08 257.041 72.08C256.741 72.08 256.291 72.22 255.691 72.5H255.661C255.581 72.5 255.511 72.45 255.451 72.35C255.411 72.23 255.431 72.16 255.511 72.14L259.471 70.28L259.591 70.25C259.651 70.25 259.721 70.28 259.801 70.34C259.881 70.4 259.921 70.46 259.921 70.52V89.57C259.921 90.41 260.031 90.97 260.251 91.25C260.491 91.51 260.991 91.64 261.751 91.64C261.811 91.64 261.841 91.7 261.841 91.82C261.841 91.94 261.811 92 261.751 92C261.271 92 260.881 91.99 260.581 91.97L258.931 91.94L257.251 91.97C256.971 91.99 256.591 92 256.111 92ZM274.194 92.39C273.014 92.39 271.974 92.11 271.074 91.55C270.194 90.97 269.504 90.2 269.004 89.24C268.524 88.26 268.284 87.2 268.284 86.06C268.284 84.76 268.604 83.66 269.244 82.76C269.884 81.84 270.694 81.16 271.674 80.72C272.674 80.26 273.694 80.03 274.734 80.03C275.914 80.03 276.944 80.32 277.824 80.9C278.724 81.48 279.414 82.25 279.894 83.21C280.374 84.15 280.614 85.15 280.614 86.21C280.614 87.45 280.324 88.54 279.744 89.48C279.164 90.4 278.384 91.12 277.404 91.64C276.424 92.14 275.354 92.39 274.194 92.39ZM275.064 91.82C276.104 91.82 276.904 91.43 277.464 90.65C278.044 89.87 278.334 88.68 278.334 87.08C278.334 85.82 278.134 84.7 277.734 83.72C277.334 82.74 276.784 81.98 276.084 81.44C275.384 80.9 274.604 80.63 273.744 80.63C272.724 80.63 271.934 81.01 271.374 81.77C270.814 82.53 270.534 83.64 270.534 85.1C270.534 86.34 270.724 87.48 271.104 88.52C271.504 89.54 272.044 90.35 272.724 90.95C273.404 91.53 274.184 91.82 275.064 91.82ZM295.778 80.03C296.598 80.03 297.358 80.25 298.058 80.69C298.778 81.13 299.348 81.77 299.768 82.61C300.188 83.45 300.398 84.43 300.398 85.55C300.398 87.07 300.058 88.35 299.378 89.39C298.718 90.41 297.888 91.17 296.888 91.67C295.888 92.15 294.898 92.39 293.918 92.39C293.298 92.39 292.748 92.34 292.268 92.24C291.788 92.14 291.308 91.96 290.828 91.7V97.82C290.828 98.42 290.898 98.86 291.038 99.14C291.198 99.42 291.478 99.61 291.878 99.71C292.298 99.83 292.938 99.89 293.798 99.89C293.838 99.89 293.858 99.95 293.858 100.07C293.858 100.19 293.838 100.25 293.798 100.25C293.078 100.25 292.518 100.24 292.118 100.22L289.898 100.19L288.248 100.22C287.968 100.24 287.588 100.25 287.108 100.25C287.048 100.25 287.018 100.19 287.018 100.07C287.018 99.95 287.048 99.89 287.108 99.89C287.648 99.89 288.038 99.83 288.278 99.71C288.538 99.61 288.708 99.42 288.788 99.14C288.888 98.86 288.938 98.42 288.938 97.82V83.75C288.938 83.05 288.858 82.55 288.698 82.25C288.558 81.93 288.288 81.77 287.888 81.77C287.508 81.77 286.988 81.92 286.328 82.22H286.298C286.218 82.22 286.158 82.17 286.118 82.07C286.058 81.97 286.068 81.91 286.148 81.89L289.658 80.21C289.738 80.17 289.808 80.15 289.868 80.15C290.128 80.15 290.348 80.36 290.528 80.78C290.708 81.18 290.808 81.76 290.828 82.52C291.668 81.66 292.488 81.03 293.288 80.63C294.108 80.23 294.938 80.03 295.778 80.03ZM294.758 91.73C295.798 91.73 296.638 91.27 297.278 90.35C297.938 89.43 298.268 88.14 298.268 86.48C298.268 84.82 297.898 83.54 297.158 82.64C296.438 81.72 295.508 81.26 294.368 81.26C293.688 81.26 293.068 81.42 292.508 81.74C291.948 82.04 291.388 82.48 290.828 83.06V89.87C291.348 90.49 291.908 90.96 292.508 91.28C293.128 91.58 293.878 91.73 294.758 91.73ZM316.92 90.26C316.98 90.26 317.03 90.3 317.07 90.38C317.13 90.44 317.14 90.5 317.1 90.56C315.76 91.76 314.28 92.36 312.66 92.36C311.48 92.36 310.47 92.1 309.63 91.58C308.79 91.04 308.15 90.33 307.71 89.45C307.27 88.55 307.05 87.59 307.05 86.57C307.05 85.39 307.33 84.31 307.89 83.33C308.47 82.35 309.25 81.58 310.23 81.02C311.21 80.44 312.29 80.15 313.47 80.15C314.63 80.15 315.51 80.45 316.11 81.05C316.73 81.63 317.04 82.47 317.04 83.57C317.04 84.11 316.92 84.38 316.68 84.38L309.27 84.41C309.23 84.85 309.21 85.19 309.21 85.43C309.21 87.17 309.62 88.57 310.44 89.63C311.26 90.69 312.42 91.22 313.92 91.22C314.52 91.22 315.02 91.15 315.42 91.01C315.84 90.85 316.33 90.6 316.89 90.26H316.92ZM312.45 80.75C311.61 80.75 310.92 81.04 310.38 81.62C309.84 82.18 309.49 82.97 309.33 83.99L314.79 83.87C314.79 82.85 314.58 82.08 314.16 81.56C313.76 81.02 313.19 80.75 312.45 80.75ZM331.145 80.15C331.585 80.15 332.005 80.28 332.405 80.54C332.825 80.8 333.035 81.11 333.035 81.47C333.035 81.75 332.935 81.99 332.735 82.19C332.555 82.37 332.305 82.46 331.985 82.46C331.785 82.46 331.615 82.42 331.475 82.34C331.335 82.26 331.175 82.14 330.995 81.98C330.795 81.82 330.615 81.7 330.455 81.62C330.315 81.54 330.135 81.5 329.915 81.5C329.655 81.5 329.385 81.6 329.105 81.8C328.845 82 328.415 82.44 327.815 83.12V89.57C327.815 90.15 327.885 90.59 328.025 90.89C328.185 91.17 328.465 91.37 328.865 91.49C329.265 91.59 329.875 91.64 330.695 91.64C330.755 91.64 330.785 91.7 330.785 91.82C330.785 91.94 330.755 92 330.695 92C330.035 92 329.505 91.99 329.105 91.97L326.855 91.94L325.235 91.97C324.955 91.99 324.575 92 324.095 92C324.035 92 324.005 91.94 324.005 91.82C324.005 91.7 324.035 91.64 324.095 91.64C324.615 91.64 324.995 91.59 325.235 91.49C325.495 91.37 325.665 91.17 325.745 90.89C325.845 90.59 325.895 90.15 325.895 89.57V83.69C325.895 83.03 325.815 82.55 325.655 82.25C325.495 81.95 325.235 81.8 324.875 81.8C324.575 81.8 324.045 81.95 323.285 82.25H323.255C323.175 82.25 323.115 82.21 323.075 82.13C323.035 82.03 323.055 81.96 323.135 81.92L326.735 80.18L326.915 80.15C327.115 80.15 327.305 80.38 327.485 80.84C327.685 81.28 327.795 81.86 327.815 82.58C328.635 81.64 329.285 81 329.765 80.66C330.245 80.32 330.705 80.15 331.145 80.15Z" fill="black"/>
<path d="M2.9 7.84C2.9 8.36 3.02667 8.81333 3.28 9.2C3.53333 9.58667 3.84 9.91333 4.2 10.18C4.57333 10.4333 5.08 10.7533 5.72 11.14C6.42667 11.5667 6.96667 11.92 7.34 12.2C7.72667 12.48 8.05333 12.84 8.32 13.28C8.6 13.7067 8.74 14.22 8.74 14.82C8.74 15.46 8.58 16.04 8.26 16.56C7.94 17.08 7.46667 17.4933 6.84 17.8C6.22667 18.0933 5.48667 18.24 4.62 18.24C3.59333 18.24 2.65333 18.0067 1.8 17.54C1.73333 17.5 1.68667 17.4533 1.66 17.4C1.64667 17.3467 1.63333 17.2667 1.62 17.16L1.36 14.44C1.34667 14.3867 1.37333 14.3533 1.44 14.34C1.52 14.3267 1.56667 14.3467 1.58 14.4C1.79333 15.36 2.18667 16.1867 2.76 16.88C3.34667 17.5733 4.12 17.92 5.08 17.92C5.74667 17.92 6.30667 17.74 6.76 17.38C7.22667 17.0067 7.46 16.42 7.46 15.62C7.46 15.02 7.32667 14.5 7.06 14.06C6.79333 13.62 6.46667 13.26 6.08 12.98C5.70667 12.6867 5.19333 12.3467 4.54 11.96C3.9 11.5733 3.39333 11.24 3.02 10.96C2.66 10.68 2.35333 10.3267 2.1 9.9C1.84667 9.47333 1.72 8.97333 1.72 8.4C1.72 7.73333 1.89333 7.16667 2.24 6.7C2.6 6.22 3.06 5.86667 3.62 5.64C4.19333 5.4 4.8 5.28 5.44 5.28C6.22667 5.28 7.00667 5.44 7.78 5.76C7.98 5.82667 8.08 5.94 8.08 6.1L8.22 8.4C8.22 8.45333 8.18667 8.48 8.12 8.48C8.05333 8.48 8.01333 8.45333 8 8.4C7.89333 7.70667 7.60667 7.06667 7.14 6.48C6.67333 5.88 6 5.58 5.12 5.58C4.37333 5.58 3.81333 5.8 3.44 6.24C3.08 6.66667 2.9 7.2 2.9 7.84ZM20.0042 16.88C20.0442 16.88 20.0776 16.9067 20.1042 16.96C20.1442 17 20.1509 17.04 20.1242 17.08C19.2442 17.8533 18.2709 18.24 17.2042 18.24C16.4309 18.24 15.7709 18.06 15.2242 17.7C14.6776 17.34 14.2576 16.8667 13.9642 16.28C13.6842 15.6933 13.5442 15.0667 13.5442 14.4C13.5442 13.6133 13.7309 12.8933 14.1042 12.24C14.4776 11.5733 14.9842 11.0533 15.6242 10.68C16.2776 10.2933 16.9909 10.1 17.7642 10.1C18.5109 10.1 19.0842 10.3 19.4842 10.7C19.8842 11.1 20.0842 11.66 20.0842 12.38C20.0842 12.5667 20.0642 12.7 20.0242 12.78C19.9976 12.86 19.9442 12.9 19.8642 12.9L14.9042 12.92C14.8776 13.2133 14.8642 13.4533 14.8642 13.64C14.8642 14.8 15.1376 15.74 15.6842 16.46C16.2309 17.18 16.9976 17.54 17.9842 17.54C18.3842 17.54 18.7242 17.4867 19.0042 17.38C19.2976 17.2733 19.6242 17.1067 19.9842 16.88H20.0042ZM17.1042 10.5C16.5309 10.5 16.0576 10.6933 15.6842 11.08C15.3109 11.4533 15.0642 11.98 14.9442 12.66L18.7442 12.58C18.7442 11.9 18.5976 11.3867 18.3042 11.04C18.0109 10.68 17.6109 10.5 17.1042 10.5ZM30.3683 10.02C30.9149 10.02 31.4216 10.1667 31.8883 10.46C32.3549 10.7533 32.7283 11.18 33.0083 11.74C33.2883 12.3 33.4283 12.9533 33.4283 13.7C33.4283 14.7 33.2016 15.5467 32.7483 16.24C32.2949 16.92 31.7349 17.4267 31.0683 17.76C30.4149 18.0933 29.7683 18.26 29.1283 18.26C28.7149 18.26 28.3416 18.22 28.0083 18.14C27.6883 18.06 27.3549 17.9267 27.0083 17.74V21.88C27.0083 22.28 27.0549 22.5733 27.1483 22.76C27.2549 22.9467 27.4483 23.0733 27.7283 23.14C28.0083 23.22 28.4349 23.26 29.0083 23.26C29.0349 23.26 29.0483 23.3 29.0483 23.38C29.0483 23.46 29.0349 23.5 29.0083 23.5C28.5549 23.5 28.1949 23.4933 27.9283 23.48L26.4683 23.46L25.3683 23.48C25.1816 23.4933 24.9349 23.5 24.6283 23.5C24.5883 23.5 24.5683 23.46 24.5683 23.38C24.5683 23.3 24.5883 23.26 24.6283 23.26C24.9883 23.26 25.2549 23.22 25.4283 23.14C25.6016 23.0733 25.7216 22.9467 25.7883 22.76C25.8549 22.5733 25.8883 22.28 25.8883 21.88V12.48C25.8883 12 25.8349 11.66 25.7283 11.46C25.6216 11.2467 25.4349 11.14 25.1683 11.14C24.8749 11.14 24.5216 11.2333 24.1083 11.42L24.0683 11.44C24.0149 11.44 23.9816 11.4067 23.9683 11.34C23.9416 11.2733 23.9483 11.2267 23.9883 11.2L26.2083 10.14C26.2349 10.1267 26.2816 10.12 26.3483 10.12C26.5349 10.12 26.6883 10.26 26.8083 10.54C26.9283 10.82 26.9949 11.22 27.0083 11.74C28.1416 10.5933 29.2616 10.02 30.3683 10.02ZM29.7283 17.84C30.4349 17.84 31.0149 17.5333 31.4683 16.92C31.9216 16.2933 32.1483 15.4267 32.1483 14.32C32.1483 13.2 31.9016 12.3333 31.4083 11.72C30.9149 11.0933 30.2883 10.78 29.5283 10.78C29.0616 10.78 28.6283 10.8933 28.2283 11.12C27.8283 11.3467 27.4216 11.6667 27.0083 12.08V16.58C27.3816 16.9933 27.7749 17.3067 28.1883 17.52C28.6149 17.7333 29.1283 17.84 29.7283 17.84ZM43.4231 16.96C43.4765 16.96 43.5165 16.9933 43.5431 17.06C43.5698 17.1133 43.5631 17.1533 43.5231 17.18C43.0298 17.5667 42.5831 17.84 42.1831 18C41.7965 18.16 41.3898 18.24 40.9631 18.24C40.4031 18.24 39.9431 18.1133 39.5831 17.86C39.2231 17.6067 39.0431 17.1867 39.0431 16.6V11.9C39.0431 11.5533 39.0165 11.3067 38.9631 11.16C38.9231 11.0133 38.8365 10.92 38.7031 10.88C38.5698 10.8267 38.3431 10.8 38.0231 10.8C37.9698 10.8 37.9431 10.76 37.9431 10.68C37.9431 10.5867 37.9698 10.54 38.0231 10.54C38.5565 10.5267 38.9898 10.3867 39.3231 10.12C39.6565 9.84 39.8498 9.47333 39.9031 9.02C39.9031 8.98 39.9565 8.96 40.0631 8.96C40.1565 8.96 40.2031 8.98 40.2031 9.02V10.5C40.8698 10.4867 41.7965 10.42 42.9831 10.3C43.0098 10.3 43.0365 10.3533 43.0631 10.46C43.1031 10.5533 43.1231 10.66 43.1231 10.78C43.1231 10.8867 43.0965 11 43.0431 11.12C43.0031 11.2267 42.9565 11.2733 42.9031 11.26C42.1698 11.0733 41.2698 10.9667 40.2031 10.94V15.92C40.2031 16.4667 40.3365 16.8733 40.6031 17.14C40.8831 17.4067 41.2765 17.54 41.7831 17.54C42.3698 17.54 42.9031 17.3533 43.3831 16.98L43.4231 16.96ZM55.3884 17.7C56.5618 16.74 57.4684 15.96 58.1084 15.36C58.7484 14.7467 59.2084 14.2 59.4884 13.72C59.7684 13.24 59.9084 12.76 59.9084 12.28C59.9084 11.7467 59.7418 11.3133 59.4084 10.98C59.0884 10.6333 58.6684 10.46 58.1484 10.46C57.0951 10.46 56.3351 11.2867 55.8684 12.94C55.8684 12.9533 55.8418 12.96 55.7884 12.96C55.6684 12.96 55.6151 12.9333 55.6284 12.88L56.4084 9.84C56.4084 9.81333 56.4351 9.8 56.4884 9.8C56.5284 9.8 56.5618 9.81333 56.5884 9.84C56.6284 9.85333 56.6418 9.86667 56.6284 9.88C56.6151 9.93333 56.6084 10.0067 56.6084 10.1C56.6084 10.3133 56.7084 10.42 56.9084 10.42C57.0284 10.42 57.2284 10.3733 57.5084 10.28C58.0551 10.1067 58.5418 10.02 58.9684 10.02C59.6484 10.02 60.1818 10.2067 60.5684 10.58C60.9684 10.94 61.1684 11.4133 61.1684 12C61.1684 12.4667 61.0151 12.9333 60.7084 13.4C60.4151 13.8667 59.9751 14.3667 59.3884 14.9C58.8151 15.42 58.0084 16.08 56.9684 16.88C56.9151 16.92 56.8951 16.9533 56.9084 16.98C56.9351 17.0067 56.9818 17.02 57.0484 17.02C58.5151 17.02 59.5351 17 60.1084 16.96C60.6818 16.92 61.0951 16.8133 61.3484 16.64C61.6018 16.4667 61.7751 16.16 61.8684 15.72C61.8684 15.6933 61.9018 15.68 61.9684 15.68C62.0618 15.68 62.1084 15.7 62.1084 15.74L61.8084 17.78C61.8084 17.8333 61.7884 17.8867 61.7484 17.94C61.7218 17.98 61.6818 18 61.6284 18H55.5284C55.4618 18 55.4084 17.9667 55.3684 17.9C55.3284 17.82 55.3351 17.7533 55.3884 17.7ZM70.4953 18.26C69.7086 18.26 69.002 18.08 68.3753 17.72C67.762 17.36 67.2753 16.8667 66.9153 16.24C66.5686 15.6 66.3953 14.88 66.3953 14.08C66.3953 13.2933 66.5686 12.5933 66.9153 11.98C67.2753 11.3667 67.7686 10.8867 68.3953 10.54C69.022 10.1933 69.7286 10.02 70.5153 10.02C71.2886 10.02 71.982 10.2 72.5953 10.56C73.2086 10.9067 73.682 11.3933 74.0153 12.02C74.362 12.6467 74.5353 13.3533 74.5353 14.14C74.5353 14.9267 74.362 15.6333 74.0153 16.26C73.6686 16.8867 73.1886 17.38 72.5753 17.74C71.962 18.0867 71.2686 18.26 70.4953 18.26ZM70.7153 17.98C71.5153 17.98 72.1153 17.66 72.5153 17.02C72.9286 16.3667 73.1353 15.4867 73.1353 14.38C73.1353 13.0467 72.862 12.0333 72.3153 11.34C71.782 10.6467 71.1086 10.3 70.2953 10.3C69.5086 10.3 68.8886 10.6333 68.4353 11.3C67.9953 11.9667 67.7753 12.84 67.7753 13.92C67.7753 15.1067 68.042 16.08 68.5753 16.84C69.1086 17.6 69.822 17.98 70.7153 17.98ZM78.9666 17.7C80.1399 16.74 81.0466 15.96 81.6866 15.36C82.3266 14.7467 82.7866 14.2 83.0666 13.72C83.3466 13.24 83.4866 12.76 83.4866 12.28C83.4866 11.7467 83.3199 11.3133 82.9866 10.98C82.6666 10.6333 82.2466 10.46 81.7266 10.46C80.6732 10.46 79.9132 11.2867 79.4466 12.94C79.4466 12.9533 79.4199 12.96 79.3666 12.96C79.2466 12.96 79.1932 12.9333 79.2066 12.88L79.9866 9.84C79.9866 9.81333 80.0132 9.8 80.0666 9.8C80.1066 9.8 80.1399 9.81333 80.1666 9.84C80.2066 9.85333 80.2199 9.86667 80.2066 9.88C80.1932 9.93333 80.1866 10.0067 80.1866 10.1C80.1866 10.3133 80.2866 10.42 80.4866 10.42C80.6066 10.42 80.8066 10.3733 81.0866 10.28C81.6332 10.1067 82.1199 10.02 82.5466 10.02C83.2266 10.02 83.7599 10.2067 84.1466 10.58C84.5466 10.94 84.7466 11.4133 84.7466 12C84.7466 12.4667 84.5932 12.9333 84.2866 13.4C83.9932 13.8667 83.5532 14.3667 82.9666 14.9C82.3932 15.42 81.5866 16.08 80.5466 16.88C80.4932 16.92 80.4732 16.9533 80.4866 16.98C80.5132 17.0067 80.5599 17.02 80.6266 17.02C82.0932 17.02 83.1132 17 83.6866 16.96C84.2599 16.92 84.6732 16.8133 84.9266 16.64C85.1799 16.4667 85.3532 16.16 85.4466 15.72C85.4466 15.6933 85.4799 15.68 85.5466 15.68C85.6399 15.68 85.6866 15.7 85.6866 15.74L85.3866 17.78C85.3866 17.8333 85.3666 17.8867 85.3266 17.94C85.2999 17.98 85.2599 18 85.2066 18H79.1066C79.0399 18 78.9866 17.9667 78.9466 17.9C78.9066 17.82 78.9132 17.7533 78.9666 17.7ZM92.0334 11.9C92.0334 11.4867 91.9934 11.1867 91.9134 11C91.8334 10.8133 91.6734 10.6867 91.4334 10.62C91.2068 10.5533 90.8334 10.52 90.3134 10.52C90.2734 10.52 90.2534 10.48 90.2534 10.4C90.2534 10.32 90.2734 10.28 90.3134 10.28C90.7001 10.28 91.0068 10.2867 91.2334 10.3L92.5934 10.32L93.9334 10.3C94.1601 10.2867 94.4734 10.28 94.8734 10.28C94.9134 10.28 94.9334 10.32 94.9334 10.4C94.9334 10.48 94.9134 10.52 94.8734 10.52C94.3801 10.52 94.0134 10.56 93.7734 10.64C93.5468 10.7067 93.3868 10.8333 93.2934 11.02C93.2001 11.2067 93.1534 11.5 93.1534 11.9V16.38C93.1534 16.7933 93.1934 17.0933 93.2734 17.28C93.3534 17.4667 93.5068 17.5933 93.7334 17.66C93.9734 17.7267 94.3534 17.76 94.8734 17.76C94.9134 17.76 94.9334 17.8 94.9334 17.88C94.9334 17.96 94.9134 18 94.8734 18C94.4868 18 94.1801 17.9933 93.9534 17.98L92.5934 17.96L91.2534 17.98C91.0268 17.9933 90.7134 18 90.3134 18C90.2734 18 90.2534 17.96 90.2534 17.88C90.2534 17.8 90.2734 17.76 90.3134 17.76C90.8068 17.76 91.1668 17.7267 91.3934 17.66C91.6334 17.58 91.8001 17.4467 91.8934 17.26C91.9868 17.0733 92.0334 16.78 92.0334 16.38V11.9ZM107.282 19.52C107.255 19.52 107.228 19.4733 107.202 19.38C107.188 19.3 107.182 19.2067 107.182 19.1C107.182 19.0067 107.188 18.92 107.202 18.84C107.215 18.76 107.235 18.72 107.262 18.72H113.882C113.908 18.72 113.928 18.76 113.942 18.84C113.968 18.9333 113.982 19.0267 113.982 19.12C113.982 19.2133 113.968 19.3 113.942 19.38C113.928 19.4733 113.908 19.52 113.882 19.52H107.282ZM130.858 5.5C130.884 5.5 130.898 5.54 130.898 5.62C130.898 5.7 130.884 5.74 130.858 5.74C130.418 5.74 130.098 5.78 129.898 5.86C129.698 5.94 129.558 6.08 129.478 6.28C129.411 6.46667 129.378 6.76 129.378 7.16V18.56C129.378 19.88 129.071 20.9267 128.458 21.7C127.844 22.4867 126.958 22.88 125.798 22.88C125.344 22.88 124.991 22.8 124.738 22.64C124.471 22.4933 124.338 22.2867 124.338 22.02C124.338 21.82 124.398 21.66 124.518 21.54C124.638 21.42 124.804 21.36 125.018 21.36C125.244 21.36 125.418 21.4067 125.538 21.5C125.658 21.6067 125.784 21.76 125.918 21.96C126.038 22.1467 126.144 22.28 126.238 22.36C126.331 22.44 126.464 22.48 126.638 22.48C127.118 22.48 127.471 22.2 127.698 21.64C127.938 21.0933 128.058 20.2067 128.058 18.98V7.12C128.058 6.72 128.011 6.42667 127.918 6.24C127.824 6.05333 127.638 5.92667 127.358 5.86C127.091 5.78 126.671 5.74 126.098 5.74C126.071 5.74 126.058 5.7 126.058 5.62C126.058 5.54 126.071 5.5 126.098 5.5L127.258 5.52C127.871 5.54667 128.351 5.56 128.698 5.56C129.044 5.56 129.471 5.54667 129.978 5.52L130.858 5.5ZM144.443 16.86C144.496 16.86 144.53 16.8933 144.543 16.96C144.57 17.0133 144.556 17.0533 144.503 17.08L142.163 18.18L142.083 18.2C141.95 18.2 141.823 18.0467 141.703 17.74C141.583 17.4333 141.523 17.0333 141.523 16.54V16.46C141.003 17.0467 140.483 17.48 139.963 17.76C139.443 18.0267 138.903 18.16 138.343 18.16C137.676 18.16 137.156 17.9533 136.783 17.54C136.41 17.1133 136.223 16.5 136.223 15.7V12.64C136.223 12.12 136.176 11.7467 136.083 11.52C135.99 11.28 135.836 11.16 135.623 11.16C135.436 11.16 135.21 11.2267 134.943 11.36H134.923C134.87 11.36 134.83 11.3267 134.803 11.26C134.776 11.18 134.79 11.1333 134.843 11.12L137.063 10.12L137.143 10.1C137.183 10.1 137.223 10.12 137.263 10.16C137.316 10.1867 137.343 10.22 137.343 10.26V15.04C137.343 16.5867 137.903 17.36 139.023 17.36C139.45 17.36 139.883 17.2533 140.323 17.04C140.763 16.8133 141.163 16.5067 141.523 16.12V12.64C141.523 12.1067 141.476 11.7267 141.383 11.5C141.303 11.2733 141.15 11.16 140.923 11.16C140.736 11.16 140.51 11.2267 140.243 11.36H140.223C140.17 11.36 140.13 11.3267 140.103 11.26C140.09 11.18 140.11 11.1333 140.163 11.12L142.383 10.12L142.443 10.1C142.483 10.1 142.523 10.12 142.563 10.16C142.616 10.1867 142.643 10.22 142.643 10.26V15.86C142.643 16.3133 142.696 16.64 142.803 16.84C142.91 17.04 143.09 17.14 143.343 17.14C143.57 17.14 143.923 17.0467 144.403 16.86H144.443ZM148.366 18C148.326 18 148.306 17.96 148.306 17.88C148.306 17.8 148.326 17.76 148.366 17.76C148.726 17.76 148.993 17.7267 149.166 17.66C149.34 17.58 149.46 17.4467 149.526 17.26C149.593 17.06 149.626 16.7667 149.626 16.38V6.04C149.626 5.56 149.58 5.21333 149.486 5C149.393 4.78667 149.226 4.68 148.986 4.68C148.786 4.68 148.48 4.77333 148.066 4.96H148.026C147.986 4.96 147.953 4.92667 147.926 4.86C147.913 4.79333 147.926 4.75333 147.966 4.74L150.526 3.52C150.553 3.50667 150.586 3.5 150.626 3.5C150.653 3.5 150.686 3.52 150.726 3.56C150.78 3.58667 150.806 3.62 150.806 3.66V16.38C150.806 16.7667 150.833 17.0533 150.886 17.24C150.953 17.4267 151.073 17.56 151.246 17.64C151.42 17.72 151.686 17.76 152.046 17.76C152.086 17.76 152.106 17.8 152.106 17.88C152.106 17.96 152.086 18 152.046 18C151.753 18 151.513 17.9933 151.326 17.98L150.206 17.96L149.126 17.98C148.94 17.9933 148.686 18 148.366 18ZM164.15 17.7C165.323 16.74 166.23 15.96 166.87 15.36C167.51 14.7467 167.97 14.2 168.25 13.72C168.53 13.24 168.67 12.76 168.67 12.28C168.67 11.7467 168.503 11.3133 168.17 10.98C167.85 10.6333 167.43 10.46 166.91 10.46C165.857 10.46 165.097 11.2867 164.63 12.94C164.63 12.9533 164.603 12.96 164.55 12.96C164.43 12.96 164.377 12.9333 164.39 12.88L165.17 9.84C165.17 9.81333 165.197 9.8 165.25 9.8C165.29 9.8 165.323 9.81333 165.35 9.84C165.39 9.85333 165.403 9.86667 165.39 9.88C165.377 9.93333 165.37 10.0067 165.37 10.1C165.37 10.3133 165.47 10.42 165.67 10.42C165.79 10.42 165.99 10.3733 166.27 10.28C166.817 10.1067 167.303 10.02 167.73 10.02C168.41 10.02 168.943 10.2067 169.33 10.58C169.73 10.94 169.93 11.4133 169.93 12C169.93 12.4667 169.777 12.9333 169.47 13.4C169.177 13.8667 168.737 14.3667 168.15 14.9C167.577 15.42 166.77 16.08 165.73 16.88C165.677 16.92 165.657 16.9533 165.67 16.98C165.697 17.0067 165.743 17.02 165.81 17.02C167.277 17.02 168.297 17 168.87 16.96C169.443 16.92 169.857 16.8133 170.11 16.64C170.363 16.4667 170.537 16.16 170.63 15.72C170.63 15.6933 170.663 15.68 170.73 15.68C170.823 15.68 170.87 15.7 170.87 15.74L170.57 17.78C170.57 17.8333 170.55 17.8867 170.51 17.94C170.483 17.98 170.443 18 170.39 18H164.29C164.223 18 164.17 17.9667 164.13 17.9C164.09 17.82 164.097 17.7533 164.15 17.7ZM179.257 18.26C178.47 18.26 177.764 18.08 177.137 17.72C176.524 17.36 176.037 16.8667 175.677 16.24C175.33 15.6 175.157 14.88 175.157 14.08C175.157 13.2933 175.33 12.5933 175.677 11.98C176.037 11.3667 176.53 10.8867 177.157 10.54C177.784 10.1933 178.49 10.02 179.277 10.02C180.05 10.02 180.744 10.2 181.357 10.56C181.97 10.9067 182.444 11.3933 182.777 12.02C183.124 12.6467 183.297 13.3533 183.297 14.14C183.297 14.9267 183.124 15.6333 182.777 16.26C182.43 16.8867 181.95 17.38 181.337 17.74C180.724 18.0867 180.03 18.26 179.257 18.26ZM179.477 17.98C180.277 17.98 180.877 17.66 181.277 17.02C181.69 16.3667 181.897 15.4867 181.897 14.38C181.897 13.0467 181.624 12.0333 181.077 11.34C180.544 10.6467 179.87 10.3 179.057 10.3C178.27 10.3 177.65 10.6333 177.197 11.3C176.757 11.9667 176.537 12.84 176.537 13.92C176.537 15.1067 176.804 16.08 177.337 16.84C177.87 17.6 178.584 17.98 179.477 17.98ZM187.728 17.7C188.902 16.74 189.808 15.96 190.448 15.36C191.088 14.7467 191.548 14.2 191.828 13.72C192.108 13.24 192.248 12.76 192.248 12.28C192.248 11.7467 192.082 11.3133 191.748 10.98C191.428 10.6333 191.008 10.46 190.488 10.46C189.435 10.46 188.675 11.2867 188.208 12.94C188.208 12.9533 188.182 12.96 188.128 12.96C188.008 12.96 187.955 12.9333 187.968 12.88L188.748 9.84C188.748 9.81333 188.775 9.8 188.828 9.8C188.868 9.8 188.902 9.81333 188.928 9.84C188.968 9.85333 188.982 9.86667 188.968 9.88C188.955 9.93333 188.948 10.0067 188.948 10.1C188.948 10.3133 189.048 10.42 189.248 10.42C189.368 10.42 189.568 10.3733 189.848 10.28C190.395 10.1067 190.882 10.02 191.308 10.02C191.988 10.02 192.522 10.2067 192.908 10.58C193.308 10.94 193.508 11.4133 193.508 12C193.508 12.4667 193.355 12.9333 193.048 13.4C192.755 13.8667 192.315 14.3667 191.728 14.9C191.155 15.42 190.348 16.08 189.308 16.88C189.255 16.92 189.235 16.9533 189.248 16.98C189.275 17.0067 189.322 17.02 189.388 17.02C190.855 17.02 191.875 17 192.448 16.96C193.022 16.92 193.435 16.8133 193.688 16.64C193.942 16.4667 194.115 16.16 194.208 15.72C194.208 15.6933 194.242 15.68 194.308 15.68C194.402 15.68 194.448 15.7 194.448 15.74L194.148 17.78C194.148 17.8333 194.128 17.8867 194.088 17.94C194.062 17.98 194.022 18 193.968 18H187.868C187.802 18 187.748 17.9667 187.708 17.9C187.668 17.82 187.675 17.7533 187.728 17.7ZM198.775 17.7C199.948 16.74 200.855 15.96 201.495 15.36C202.135 14.7467 202.595 14.2 202.875 13.72C203.155 13.24 203.295 12.76 203.295 12.28C203.295 11.7467 203.128 11.3133 202.795 10.98C202.475 10.6333 202.055 10.46 201.535 10.46C200.482 10.46 199.722 11.2867 199.255 12.94C199.255 12.9533 199.228 12.96 199.175 12.96C199.055 12.96 199.002 12.9333 199.015 12.88L199.795 9.84C199.795 9.81333 199.822 9.8 199.875 9.8C199.915 9.8 199.948 9.81333 199.975 9.84C200.015 9.85333 200.028 9.86667 200.015 9.88C200.002 9.93333 199.995 10.0067 199.995 10.1C199.995 10.3133 200.095 10.42 200.295 10.42C200.415 10.42 200.615 10.3733 200.895 10.28C201.442 10.1067 201.928 10.02 202.355 10.02C203.035 10.02 203.568 10.2067 203.955 10.58C204.355 10.94 204.555 11.4133 204.555 12C204.555 12.4667 204.402 12.9333 204.095 13.4C203.802 13.8667 203.362 14.3667 202.775 14.9C202.202 15.42 201.395 16.08 200.355 16.88C200.302 16.92 200.282 16.9533 200.295 16.98C200.322 17.0067 200.368 17.02 200.435 17.02C201.902 17.02 202.922 17 203.495 16.96C204.068 16.92 204.482 16.8133 204.735 16.64C204.988 16.4667 205.162 16.16 205.255 15.72C205.255 15.6933 205.288 15.68 205.355 15.68C205.448 15.68 205.495 15.7 205.495 15.74L205.195 17.78C205.195 17.8333 205.175 17.8867 205.135 17.94C205.108 17.98 205.068 18 205.015 18H198.915C198.848 18 198.795 17.9667 198.755 17.9C198.715 17.82 198.722 17.7533 198.775 17.7Z" fill="black"/>
</svg>
