<svg xmlns="http://www.w3.org/2000/svg" width="443" height="101" fill="#000" xmlns:v="https://vecta.io/nano"><path d="M17.797 43.715c1.913.21 3.442.852 4.585 1.925s1.715 2.403 1.715 3.99c0 1.213-.338 2.322-1.015 3.325-.653.98-1.575 1.762-2.765 2.345-1.167.56-2.473.84-3.92.84-.677 0-1.458-.035-2.345-.105l-1.155-.07-1.575-.035-2.52.035-1.82.035c-.07 0-.105-.07-.105-.21s.035-.21.105-.21c.747 0 1.307-.058 1.68-.175.373-.14.63-.373.77-.7.163-.327.245-.84.245-1.54V36.96c0-.677-.082-1.178-.245-1.505-.14-.35-.397-.583-.77-.7-.35-.14-.898-.21-1.645-.21-.047 0-.07-.07-.07-.21s.023-.21.07-.21l1.82.035 2.485.07c.653 0 1.342-.035 2.065-.105l.91-.07 1.26-.035c2.077 0 3.663.397 4.76 1.19s1.645 1.913 1.645 3.36c0 1.12-.362 2.135-1.085 3.045-.723.887-1.75 1.587-3.08 2.1zm-2.835-8.995c-.747 0-1.26.152-1.54.455-.257.303-.385.922-.385 1.855v6.65l1.47.035c1.377 0 2.415-.443 3.115-1.33.7-.91 1.05-2.077 1.05-3.5 0-1.33-.315-2.357-.945-3.08s-1.552-1.085-2.765-1.085zm.875 20.615c3.15 0 4.725-1.622 4.725-4.865 0-1.773-.467-3.197-1.4-4.27-.91-1.073-2.252-1.61-4.025-1.61l-2.1.07v8.505c0 .537.07.957.21 1.26s.408.537.805.7c.397.14.992.21 1.785.21zm29.96-1.225c.093 0 .152.058.175.175.023.093-.012.163-.105.21l-3.605 1.715c-.093.047-.198.07-.315.07-.35 0-.688-.198-1.015-.595-.303-.42-.502-.968-.595-1.645l-1.61 1.12c-.56.397-1.073.677-1.54.84-.443.163-.945.245-1.505.245-.957 0-1.692-.222-2.205-.665-.49-.467-.735-1.073-.735-1.82 0-.63.163-1.143.49-1.54.35-.397.782-.712 1.295-.945.537-.257 1.318-.572 2.345-.945l3.395-1.26v-2.1c0-1.447-.152-2.497-.455-3.15-.28-.677-.735-1.015-1.365-1.015-.77 0-1.33.292-1.68.875-.327.56-.525 1.19-.595 1.89-.14 1.19-.735 1.785-1.785 1.785-.513 0-.898-.117-1.155-.35-.233-.233-.35-.525-.35-.875 0-.653.385-1.283 1.155-1.89.793-.63 1.738-1.132 2.835-1.505 1.12-.397 2.1-.595 2.94-.595 1.003 0 1.797.315 2.38.945.607.63.91 1.575.91 2.835v6.3c0 .723.117 1.272.35 1.645s.572.56 1.015.56c.35 0 .77-.105 1.26-.315h.07zm-5.53-.63v-.35-3.465l-2.1.875c-.607.233-1.108.513-1.505.84-.373.303-.56.747-.56 1.33 0 .56.175 1.015.525 1.365.373.327.817.49 1.33.49.42 0 .863-.14 1.33-.42l.98-.665zM52.409 56c-.07 0-.105-.07-.105-.21s.035-.21.105-.21c.77 0 1.295-.163 1.575-.49.28-.35.42-.992.42-1.925V35.28c0-.817-.082-1.4-.245-1.75a.79.79 0 0 0-.805-.56c-.35 0-.817.14-1.4.42h-.035c-.093 0-.163-.058-.21-.175s-.047-.198 0-.245l4.935-2.31.14-.035c.093 0 .198.047.315.14.14.093.21.175.21.245v22.155c0 .957.128 1.598.385 1.925s.782.49 1.575.49c.07 0 .105.07.105.21s-.035.21-.105.21c-.56 0-1.015-.012-1.365-.035l-2.065-.035-2.03.035-1.4.035zm21.443.455c-1.4 0-2.637-.327-3.71-.98a6.9 6.9 0 0 1-2.485-2.695c-.583-1.143-.875-2.38-.875-3.71 0-1.517.373-2.8 1.12-3.85.77-1.073 1.738-1.867 2.905-2.38 1.19-.537 2.403-.805 3.64-.805 1.423 0 2.66.338 3.71 1.015 1.073.677 1.89 1.575 2.45 2.695.56 1.097.84 2.275.84 3.535 0 1.4-.35 2.648-1.05 3.745-.677 1.097-1.598 1.948-2.765 2.555-1.167.583-2.427.875-3.78.875zm1.05-.7c1.027 0 1.808-.455 2.345-1.365.56-.91.84-2.24.84-3.99 0-1.563-.222-2.928-.665-4.095-.42-1.167-1.003-2.053-1.75-2.66-.723-.607-1.517-.91-2.38-.91-1.05 0-1.843.432-2.38 1.295s-.805 2.135-.805 3.815c0 1.517.198 2.882.595 4.095.42 1.19.992 2.123 1.715 2.8.747.677 1.575 1.015 2.485 1.015zm21.221.7c-1.4 0-2.637-.327-3.71-.98-1.073-.677-1.902-1.575-2.485-2.695-.583-1.143-.875-2.38-.875-3.71 0-1.517.373-2.8 1.12-3.85.77-1.073 1.738-1.867 2.905-2.38 1.19-.537 2.403-.805 3.64-.805 1.423 0 2.66.338 3.71 1.015 1.074.677 1.89 1.575 2.45 2.695.56 1.097.84 2.275.84 3.535 0 1.4-.35 2.648-1.05 3.745-.676 1.097-1.598 1.948-2.765 2.555-1.167.583-2.427.875-3.78.875zm1.05-.7c1.027 0 1.808-.455 2.345-1.365.56-.91.84-2.24.84-3.99 0-1.563-.221-2.928-.665-4.095-.42-1.167-1.003-2.053-1.75-2.66-.723-.607-1.517-.91-2.38-.91-1.05 0-1.843.432-2.38 1.295s-.805 2.135-.805 3.815c0 1.517.198 2.882.595 4.095.42 1.19.992 2.123 1.715 2.8.747.677 1.575 1.015 2.485 1.015zm24.197-1.995c.07 0 .128.047.175.14.07.093.07.163 0 .21-.863.817-1.68 1.412-2.45 1.785-.77.35-1.587.525-2.45.525-1.003 0-1.855-.233-2.555-.7-.677-.49-1.015-1.295-1.015-2.415v-7.91c0-.77-.128-1.283-.385-1.54-.233-.257-.7-.385-1.4-.385-.023 0-.058-.023-.105-.07a.67.67 0 0 1-.035-.21c0-.07.012-.128.035-.175.047-.07.082-.105.105-.105 2.193-.093 3.57-1.038 4.13-2.835.047-.093.14-.14.28-.14.163 0 .245.047.245.14v2.765c1.097-.023 2.648-.14 4.655-.35.047 0 .093.093.14.28a1.41 1.41 0 0 1 .105.56c0 .21-.047.42-.14.63-.07.21-.152.303-.245.28-1.307-.303-2.812-.49-4.515-.56v8.47c0 .91.222 1.587.665 2.03.467.42 1.108.63 1.925.63.98 0 1.902-.338 2.765-1.015l.07-.035zm25.035-15.925c0 .863.21 1.633.63 2.31a7.48 7.48 0 0 0 1.61 1.715c.653.49 1.528 1.073 2.625 1.75l2.8 1.925a6.88 6.88 0 0 1 1.75 1.995c.49.77.735 1.68.735 2.73 0 1.19-.315 2.252-.945 3.185-.607.933-1.482 1.668-2.625 2.205-1.12.513-2.403.77-3.85.77-.98 0-1.995-.128-3.045-.385-1.027-.257-1.808-.572-2.345-.945-.21-.14-.327-.362-.35-.665l-.21-5.32v-.035c0-.093.058-.14.175-.14.117-.023.187.012.21.105.77 1.937 1.645 3.523 2.625 4.76 1.003 1.237 2.275 1.855 3.815 1.855 1.003 0 1.843-.268 2.52-.805.677-.56 1.015-1.482 1.015-2.765 0-1.027-.233-1.925-.7-2.695a6.37 6.37 0 0 0-1.68-1.925c-.653-.513-1.552-1.143-2.695-1.89l-2.625-1.82c-.63-.513-1.167-1.132-1.61-1.855-.443-.747-.665-1.61-.665-2.59 0-1.213.338-2.24 1.015-3.08s1.552-1.458 2.625-1.855a9.51 9.51 0 0 1 3.43-.63c.793 0 1.587.082 2.38.245.793.14 1.458.327 1.995.56.35.14.525.362.525.665l.105 4.76c0 .07-.07.117-.21.14-.117.023-.187 0-.21-.07-.467-1.423-1.097-2.707-1.89-3.85-.77-1.167-1.937-1.75-3.5-1.75-1.05 0-1.89.303-2.52.91-.607.607-.91 1.435-.91 2.485zm28.449 15.925c.07 0 .129.047.175.14.07.093.07.163 0 .21-.863.817-1.68 1.412-2.45 1.785a5.85 5.85 0 0 1-2.45.525c-1.003 0-1.855-.233-2.555-.7-.676-.49-1.015-1.295-1.015-2.415v-7.91c0-.77-.128-1.283-.385-1.54-.233-.257-.7-.385-1.4-.385-.023 0-.058-.023-.105-.07a.67.67 0 0 1-.035-.21c0-.07.012-.128.035-.175.047-.07.082-.105.105-.105 2.194-.093 3.57-1.038 4.13-2.835.047-.093.14-.14.28-.14.164 0 .245.047.245.14v2.765c1.097-.023 2.649-.14 4.655-.35.047 0 .094.093.14.28a1.41 1.41 0 0 1 .105.56 1.53 1.53 0 0 1-.14.63c-.07.21-.151.303-.245.28-1.306-.303-2.811-.49-4.515-.56v8.47c0 .91.222 1.587.665 2.03.467.42 1.109.63 1.925.63.98 0 1.902-.338 2.765-1.015l.07-.035zm23.167.035c.07 0 .129.058.175.175s.035.198-.035.245l-4.585 2.205-.14.035c-.233 0-.443-.257-.63-.77-.186-.537-.291-1.248-.315-2.135-1.633 1.89-3.36 2.835-5.18 2.835-1.26 0-2.24-.385-2.94-1.155-.7-.793-1.05-1.867-1.05-3.22v-5.215c0-1.587-.361-2.38-1.085-2.38-.233 0-.56.093-.98.28h-.035c-.093 0-.163-.058-.21-.175s-.035-.198.035-.245l4.445-2.065.14-.035c.094 0 .199.047.315.14s.175.175.175.245v7.945c0 1.307.234 2.287.7 2.94.49.63 1.225.945 2.205.945.584 0 1.179-.14 1.785-.42.63-.28 1.19-.665 1.68-1.155v-6.02c0-.817-.093-1.412-.28-1.785-.163-.397-.431-.595-.805-.595-.21 0-.536.093-.98.28h-.035c-.093 0-.163-.058-.21-.175-.046-.14-.023-.222.07-.245l4.41-2.065a.39.39 0 0 1 .175-.035c.094 0 .199.047.315.14s.175.175.175.245v9.485c0 .817.082 1.388.245 1.715s.432.49.805.49c.28 0 .805-.14 1.575-.42l.07-.035zm23.099.035c.07 0 .129.058.175.175.07.117.07.187 0 .21l-4.48 2.17-.21.035c-.233 0-.455-.233-.665-.7-.186-.467-.291-1.097-.315-1.89-.84.793-1.703 1.435-2.59 1.925-.886.467-1.855.7-2.905.7-1.003 0-1.925-.268-2.765-.805-.84-.56-1.505-1.353-1.995-2.38s-.735-2.228-.735-3.605c0-1.727.409-3.162 1.225-4.305a7.32 7.32 0 0 1 3.08-2.52c1.237-.537 2.474-.805 3.71-.805a7.84 7.84 0 0 1 2.94.56V35.28c0-.817-.081-1.4-.245-1.75a.79.79 0 0 0-.805-.56c-.256 0-.723.14-1.4.42h-.07c-.093 0-.163-.058-.21-.175s-.046-.187 0-.21l4.935-2.345.14-.035c.094 0 .199.047.315.14s.175.175.175.245v21c0 .817.082 1.4.245 1.75.164.327.444.49.84.49.467 0 .992-.14 1.575-.42h.035zm-9.24 1.085c.677 0 1.307-.152 1.89-.455.607-.303 1.214-.735 1.82-1.295v-.035-8.33c-.466-.653-.991-1.132-1.575-1.435-.56-.327-1.236-.49-2.03-.49-1.33 0-2.368.467-3.115 1.4-.723.933-1.085 2.368-1.085 4.305 0 1.96.385 3.512 1.155 4.655.77 1.12 1.75 1.68 2.94 1.68zm19.486-16.45c-.606 0-1.085-.163-1.435-.49-.326-.327-.49-.793-.49-1.4 0-.583.164-1.027.49-1.33.35-.327.829-.49 1.435-.49.584 0 1.039.163 1.365.49.327.303.49.747.49 1.33 0 .607-.163 1.073-.49 1.4-.303.327-.758.49-1.365.49zM228.146 56c-.07 0-.105-.07-.105-.21s.035-.21.105-.21c.794 0 1.319-.163 1.575-.49s.385-.968.385-1.925v-6.37c0-.793-.081-1.365-.245-1.715a.85.85 0 0 0-.84-.56c-.35 0-.805.14-1.365.42h-.035c-.093 0-.163-.058-.21-.175s-.035-.198.035-.245l5.04-2.345.105-.035c.094 0 .187.058.28.175.117.093.175.175.175.245v.735l-.07 3.465v6.405c0 .957.129 1.598.385 1.925.28.327.817.49 1.61.49.07 0 .105.07.105.21s-.035.21-.105.21a22.11 22.11 0 0 1-1.4-.035l-2.03-.035-2.03.035-1.365.035zm21.232.455c-1.4 0-2.636-.327-3.71-.98a6.91 6.91 0 0 1-2.485-2.695 8.05 8.05 0 0 1-.875-3.71c0-1.517.374-2.8 1.12-3.85.77-1.073 1.739-1.867 2.905-2.38 1.19-.537 2.404-.805 3.64-.805 1.424 0 2.66.338 3.71 1.015 1.074.677 1.89 1.575 2.45 2.695.56 1.097.84 2.275.84 3.535 0 1.4-.35 2.648-1.05 3.745-.676 1.097-1.598 1.948-2.765 2.555a8.33 8.33 0 0 1-3.78.875zm1.05-.7c1.027 0 1.809-.455 2.345-1.365.56-.91.84-2.24.84-3.99 0-1.563-.221-2.928-.665-4.095-.42-1.167-1.003-2.053-1.75-2.66-.723-.607-1.516-.91-2.38-.91-1.05 0-1.843.432-2.38 1.295s-.805 2.135-.805 3.815c0 1.517.199 2.882.595 4.095.42 1.19.992 2.123 1.715 2.8.747.677 1.575 1.015 2.485 1.015zM19.312 77.27c0 .06-.06.09-.18.09-.1 0-.15-.03-.15-.09-.12-1.08-.49-1.91-1.11-2.49s-1.43-.87-2.43-.87h-1.65c-.9 0-1.51.13-1.83.39-.32.24-.48.71-.48 1.41v6.57h2.88c1.08 0 1.86-.17 2.34-.51.48-.36.72-.91.72-1.65 0-.04.06-.06.18-.06s.18.02.18.06l-.03 2.49.03 1.32.03 1.5c0 .04-.06.06-.18.06s-.18-.02-.18-.06c0-.88-.25-1.51-.75-1.89-.5-.4-1.31-.6-2.43-.6h-2.79v6.51c0 .64.08 1.11.24 1.41.18.28.51.48.99.6.5.12 1.28.18 2.34.18.04 0 .06.06.06.18s-.02.18-.06.18a47.03 47.03 0 0 1-1.92-.03l-2.79-.03-2.04.03-1.56.03c-.06 0-.09-.06-.09-.18s.03-.18.09-.18c.74 0 1.28-.05 1.62-.15.36-.1.6-.29.72-.57.14-.3.21-.75.21-1.35V75.68c0-.6-.06-1.04-.18-1.32s-.35-.47-.69-.57c-.34-.12-.88-.18-1.62-.18-.04 0-.06-.06-.06-.18s.02-.18.06-.18h12.18c.18 0 .27.09.27.27l.06 3.75zm20.722 12.96c.08 0 .13.05.15.15.04.1.03.17-.03.21l-3.63 1.71-.12.03c-.2 0-.39-.24-.57-.72s-.27-1.1-.27-1.86c-1.5 1.68-3.06 2.52-4.68 2.52-1.02 0-1.82-.32-2.4-.96s-.87-1.55-.87-2.73v-4.59c0-.76-.07-1.31-.21-1.65-.12-.34-.34-.51-.66-.51-.24 0-.57.09-.99.27h-.06c-.06 0-.11-.05-.15-.15-.02-.1 0-.16.06-.18l3.45-1.59.12-.03c.06 0 .13.03.21.09s.12.12.12.18v7.05c0 2.3.84 3.45 2.52 3.45.6 0 1.21-.15 1.83-.45a6 6 0 0 0 1.71-1.26v-5.22c0-.76-.07-1.31-.21-1.65s-.37-.51-.69-.51c-.24 0-.57.09-.99.27h-.06c-.06 0-.1-.05-.12-.15s0-.16.06-.18l3.45-1.59.12-.03c.06 0 .12.03.18.09.08.06.12.12.12.18v8.31c0 .68.08 1.17.24 1.47s.42.45.78.45c.3 0 .81-.13 1.53-.39l.06-.03zM45.887 92c-.06 0-.09-.06-.09-.18s.03-.18.09-.18c.74 0 1.23-.13 1.47-.39.24-.28.36-.84.36-1.68V74.12c0-.72-.07-1.24-.21-1.56-.12-.32-.35-.48-.69-.48-.3 0-.75.14-1.35.42h-.03c-.08 0-.15-.05-.21-.15-.04-.12-.02-.19.06-.21l3.96-1.86.12-.03c.06 0 .13.03.21.09s.12.12.12.18v19.05c0 .84.11 1.4.33 1.68.24.26.74.39 1.5.39.06 0 .09.06.09.18s-.03.18-.09.18c-.48 0-.87-.01-1.17-.03l-1.65-.03-1.68.03-1.14.03zm12.293 0c-.06 0-.09-.06-.09-.18s.03-.18.09-.18c.74 0 1.23-.13 1.47-.39.24-.28.36-.84.36-1.68V74.12c0-.72-.07-1.24-.21-1.56-.12-.32-.35-.48-.69-.48-.3 0-.75.14-1.35.42h-.03c-.08 0-.15-.05-.21-.15-.04-.12-.02-.19.06-.21l3.96-1.86.12-.03c.06 0 .13.03.21.09s.12.12.12.18v19.05c0 .84.11 1.4.33 1.68.24.26.74.39 1.5.39.06 0 .09.06.09.18s-.03.18-.09.18c-.48 0-.87-.01-1.17-.03L61 91.94l-1.68.03-1.14.03zm27.154-15.33c0 .76.19 1.43.57 2.01s.84 1.07 1.38 1.47 1.3.89 2.28 1.47l2.4 1.59a5.85 5.85 0 0 1 1.47 1.65c.42.66.63 1.44.63 2.34 0 .98-.25 1.86-.75 2.64-.48.78-1.19 1.4-2.13 1.86-.94.44-2.05.66-3.33.66-1.62 0-3.06-.36-4.32-1.08-.1-.06-.17-.13-.21-.21s-.07-.2-.09-.36l-.33-4.2c-.02-.08.02-.13.12-.15.12-.02.19.01.21.09.4 1.48 1.03 2.75 1.89 3.81.86 1.04 2 1.56 3.42 1.56.98 0 1.8-.26 2.46-.78s.99-1.37.99-2.55c0-.9-.2-1.67-.6-2.31a5.85 5.85 0 0 0-1.47-1.65c-.56-.46-1.33-.98-2.31-1.56l-2.28-1.53c-.54-.42-1-.94-1.38-1.56-.38-.64-.57-1.39-.57-2.25 0-1.02.27-1.88.81-2.58a4.73 4.73 0 0 1 2.13-1.59c.88-.36 1.81-.54 2.79-.54a9.45 9.45 0 0 1 3.57.69c.3.14.45.32.45.54l.18 3.6c0 .08-.06.13-.18.15-.1.02-.16-.01-.18-.09-.2-1.06-.65-2.06-1.35-3s-1.71-1.41-3.03-1.41c-1.06 0-1.87.31-2.43.93-.54.62-.81 1.4-.81 2.34zm24.274 13.68c.06 0 .11.05.15.15.04.08.03.14-.03.18-.74.6-1.41 1.03-2.01 1.29s-1.24.39-1.92.39c-.84 0-1.54-.19-2.1-.57-.54-.4-.81-1.05-.81-1.95v-6.99c0-.48-.04-.83-.12-1.05a.72.72 0 0 0-.45-.48c-.2-.08-.53-.12-.99-.12-.06 0-.09-.07-.09-.21s.03-.21.09-.21c.84-.02 1.52-.23 2.04-.63.54-.4.87-.96.99-1.68.02-.06.1-.09.239-.09s.211.03.211.09v2.28c.96-.02 2.33-.12 4.11-.3.06 0 .11.07.15.21a1.75 1.75 0 0 1 .06.48 1.7 1.7 0 0 1-.09.54c-.06.16-.13.23-.21.21-1.12-.26-2.46-.41-4.02-.45v7.38c0 1.6.78 2.4 2.34 2.4.84 0 1.64-.28 2.4-.84l.06-.03zm17.696.03c.08 0 .13.05.15.15.02.08-.01.14-.09.18l-3.09 1.47c-.08.04-.17.06-.27.06-.26 0-.5-.17-.72-.51-.2-.36-.34-.84-.42-1.44l-1.5.99c-.48.34-.92.58-1.32.72a3.53 3.53 0 0 1-1.23.21c-.76 0-1.35-.19-1.77-.57-.42-.4-.63-.9-.63-1.5 0-.64.25-1.17.75-1.59.52-.44 1.34-.87 2.46-1.29l3.21-1.17v-1.98c0-1.2-.16-2.07-.48-2.61a1.45 1.45 0 0 0-1.35-.81c-.66 0-1.16.23-1.5.69a3.62 3.62 0 0 0-.66 1.56c-.12.88-.53 1.32-1.23 1.32-.36 0-.63-.09-.81-.27s-.27-.4-.27-.66c0-.5.31-1 .93-1.5.64-.5 1.4-.91 2.28-1.23.9-.32 1.69-.48 2.37-.48.82 0 1.45.27 1.89.81.46.52.69 1.28.69 2.28v5.55c0 .68.09 1.18.27 1.5a.99.99 0 0 0 .9.48c.36 0 .82-.12 1.38-.36h.06zm-4.47-.54v-.18-3.15l-2.52 1.02c-.54.2-.95.45-1.23.75-.28.28-.42.64-.42 1.08 0 .48.15.88.45 1.2.32.3.72.45 1.2.45.4 0 .85-.15 1.35-.45l1.17-.72zm16.018 2.52c-1.3 0-2.39-.28-3.27-.84-.88-.58-1.54-1.32-1.98-2.22a6.66 6.66 0 0 1-.63-2.85c0-1.28.33-2.39.99-3.33.66-.96 1.5-1.69 2.52-2.19 1.02-.52 2.07-.78 3.15-.78.9 0 1.71.18 2.43.54.74.36 1.11.81 1.11 1.35a.97.97 0 0 1-.33.75c-.2.2-.47.3-.81.3-.64 0-1.12-.36-1.44-1.08-.22-.44-.48-.76-.78-.96-.28-.2-.69-.3-1.23-.3-1.08 0-1.92.44-2.52 1.32-.6.86-.9 2.01-.9 3.45 0 1.68.41 3.06 1.23 4.14.82 1.06 2.07 1.59 3.75 1.59 1.14 0 2.14-.32 3-.96h.06c.06 0 .11.03.15.09.06.06.06.11 0 .15-.7.64-1.41 1.11-2.13 1.41-.7.28-1.49.42-2.37.42zm24.542-.72c.04 0 .06.06.06.18s-.02.18-.06.18c-.5 0-.89-.01-1.17-.03l-1.62-.03-2.19.03-1.32.03c-.04 0-.06-.06-.06-.18s.02-.18.06-.18c.96 0 1.44-.2 1.44-.6 0-.18-.09-.39-.27-.63l-3.66-4.89-1.32 1.05v3c0 .84.12 1.4.36 1.68.24.26.74.39 1.5.39.06 0 .09.06.09.18s-.03.18-.09.18c-.5 0-.89-.01-1.17-.03l-1.62-.03-1.68.03-1.11.03c-.06 0-.09-.06-.09-.18s.03-.18.09-.18c.74 0 1.23-.13 1.47-.39.24-.28.36-.84.36-1.68V74.12c0-.72-.07-1.24-.21-1.56a.73.73 0 0 0-.72-.48c-.28 0-.72.14-1.32.42h-.03c-.08 0-.15-.05-.21-.15-.04-.1-.02-.17.06-.21l3.87-1.86.15-.03c.06 0 .12.03.18.09.08.06.12.12.12.18v15.54l3.81-3.18c.62-.5.93-.94.93-1.32 0-.24-.14-.43-.42-.57-.26-.14-.66-.21-1.2-.21-.06 0-.09-.06-.09-.18s.03-.18.09-.18l1.26.03 2.22.03 2.04-.03 1.11-.03c.04 0 .06.06.06.18s-.02.18-.06.18c-.78 0-1.64.19-2.58.57-.92.36-1.83.91-2.73 1.65l-1.65 1.32 3.9 5.25c1 1.38 2.14 2.07 3.42 2.07zm25.398.48c-.6 0-1.29-.03-2.07-.09l-1.11-.06-1.41-.03-2.07.03-1.53.03c-.04 0-.06-.06-.06-.18s.02-.18.06-.18c.74 0 1.28-.05 1.62-.15s.57-.29.69-.57c.14-.3.21-.75.21-1.35V75.68c0-.6-.06-1.04-.18-1.32s-.35-.47-.69-.57c-.34-.12-.88-.18-1.62-.18-.04 0-.06-.06-.06-.18s.02-.18.06-.18l1.5.03 2.07.06 2.25-.09 1.92-.06c2.08 0 3.92.4 5.52 1.2s2.84 1.89 3.72 3.27 1.32 2.93 1.32 4.65c0 1.94-.46 3.66-1.38 5.16-.9 1.48-2.13 2.63-3.69 3.45-1.54.8-3.23 1.2-5.07 1.2zm-.3-.48c1.54 0 2.9-.33 4.08-.99 1.2-.68 2.13-1.67 2.79-2.97.68-1.32 1.02-2.89 1.02-4.71 0-1.74-.32-3.31-.96-4.71-.64-1.42-1.55-2.54-2.73-3.36-1.16-.82-2.51-1.23-4.05-1.23-.86 0-1.52.05-1.98.15s-.8.3-1.02.6c-.22.28-.33.72-.33 1.32v13.5c0 .88.21 1.5.63 1.86.44.36 1.29.54 2.55.54zm27.282-1.38c.06 0 .11.04.15.12.06.06.07.12.03.18-1.34 1.2-2.82 1.8-4.44 1.8-1.18 0-2.19-.26-3.03-.78a5.32 5.32 0 0 1-1.92-2.13 6.47 6.47 0 0 1-.66-2.88c0-1.18.28-2.26.84-3.24.58-.98 1.36-1.75 2.34-2.31.98-.58 2.06-.87 3.24-.87 1.16 0 2.04.3 2.64.9.62.58.93 1.42.93 2.52 0 .54-.12.81-.36.81l-7.41.03-.06 1.02c0 1.74.41 3.14 1.23 4.2s1.98 1.59 3.48 1.59c.6 0 1.1-.07 1.5-.21.42-.16.91-.41 1.47-.75h.03zm-4.47-9.51c-.84 0-1.53.29-2.07.87-.54.56-.89 1.35-1.05 2.37l5.46-.12c0-1.02-.21-1.79-.63-2.31-.4-.54-.97-.81-1.71-.81zm23.375-.33c.04 0 .06.06.06.18s-.02.18-.06.18c-.52 0-.97.18-1.35.54-.36.34-.71.92-1.05 1.74l-3.75 8.91c-.04.1-.15.15-.33.15-.16 0-.27-.05-.33-.15l-4.26-9.06c-.4-.88-.74-1.45-1.02-1.71a1.39 1.39 0 0 0-1.02-.42c-.06 0-.09-.06-.09-.18s.03-.18.09-.18l.9.03 1.29.03 2.04-.03 1.23-.03c.06 0 .09.06.09.18s-.03.18-.09.18c-1.18 0-1.77.23-1.77.69 0 .16.04.32.12.48l3.57 7.5 2.7-6.51c.14-.38.21-.68.21-.9 0-.84-.77-1.26-2.31-1.26-.04 0-.06-.06-.06-.18s.02-.18.06-.18l1.23.03 1.8.03 1.14-.03c.2-.02.52-.03.96-.03zm15.407 9.84c.06 0 .11.04.15.12.06.06.07.12.03.18-1.34 1.2-2.82 1.8-4.44 1.8-1.18 0-2.19-.26-3.03-.78a5.32 5.32 0 0 1-1.92-2.13 6.47 6.47 0 0 1-.66-2.88c0-1.18.28-2.26.84-3.24.58-.98 1.36-1.75 2.34-2.31.98-.58 2.06-.87 3.24-.87 1.16 0 2.04.3 2.64.9.62.58.93 1.42.93 2.52 0 .54-.12.81-.36.81l-7.41.03-.06 1.02c0 1.74.41 3.14 1.23 4.2s1.98 1.59 3.48 1.59c.6 0 1.1-.07 1.5-.21.42-.16.91-.41 1.47-.75h.03zm-4.47-9.51c-.84 0-1.53.29-2.07.87-.54.56-.89 1.35-1.05 2.37l5.46-.12c0-1.02-.21-1.79-.63-2.31-.4-.54-.97-.81-1.71-.81zM257.111 92c-.06 0-.09-.06-.09-.18s.03-.18.09-.18c.74 0 1.23-.13 1.47-.39.24-.28.36-.84.36-1.68V74.12c0-.72-.07-1.24-.21-1.56-.12-.32-.35-.48-.69-.48-.3 0-.75.14-1.35.42h-.03c-.08 0-.15-.05-.21-.15-.04-.12-.02-.19.06-.21l3.96-1.86.12-.03c.06 0 .13.03.21.09s.12.12.12.18v19.05c0 .84.11 1.4.33 1.68.24.26.74.39 1.5.39.06 0 .09.06.09.18s-.03.18-.09.18c-.48 0-.87-.01-1.17-.03l-1.65-.03-1.68.03-1.14.03zm18.083.39c-1.18 0-2.22-.28-3.12-.84-.88-.58-1.57-1.35-2.07-2.31-.48-.98-.72-2.04-.72-3.18 0-1.3.32-2.4.96-3.3.64-.92 1.45-1.6 2.43-2.04 1-.46 2.02-.69 3.06-.69 1.18 0 2.21.29 3.09.87a5.77 5.77 0 0 1 2.07 2.31c.48.94.72 1.94.72 3 0 1.24-.29 2.33-.87 3.27-.58.92-1.36 1.64-2.34 2.16-.98.5-2.05.75-3.21.75zm.87-.57c1.04 0 1.84-.39 2.4-1.17.58-.78.87-1.97.87-3.57 0-1.26-.2-2.38-.6-3.36s-.95-1.74-1.65-2.28-1.48-.81-2.34-.81c-1.02 0-1.81.38-2.37 1.14s-.84 1.87-.84 3.33c0 1.24.19 2.38.57 3.42.4 1.02.94 1.83 1.62 2.43a3.5 3.5 0 0 0 2.34.87zm20.714-11.79c.82 0 1.58.22 2.28.66.72.44 1.29 1.08 1.71 1.92s.63 1.82.63 2.94c0 1.52-.34 2.8-1.02 3.84-.66 1.02-1.49 1.78-2.49 2.28-1 .48-1.99.72-2.97.72-.62 0-1.17-.05-1.65-.15s-.96-.28-1.44-.54v6.12c0 .6.07 1.04.21 1.32.16.28.44.47.84.57.42.12 1.06.18 1.92.18.04 0 .06.06.06.18s-.02.18-.06.18c-.72 0-1.28-.01-1.68-.03l-2.22-.03-1.65.03-1.14.03c-.06 0-.09-.06-.09-.18s.03-.18.09-.18c.54 0 .93-.06 1.17-.18.26-.1.43-.29.51-.57.1-.28.15-.72.15-1.32V83.75c0-.7-.08-1.2-.24-1.5-.14-.32-.41-.48-.81-.48-.38 0-.9.15-1.56.45h-.03c-.08 0-.14-.05-.18-.15-.06-.1-.05-.16.03-.18l3.51-1.68c.08-.04.15-.06.21-.06.26 0 .48.21.66.63.18.4.28.98.3 1.74.84-.86 1.66-1.49 2.46-1.89.82-.4 1.65-.6 2.49-.6zm-1.02 11.7c1.04 0 1.88-.46 2.52-1.38.66-.92.99-2.21.99-3.87s-.37-2.94-1.11-3.84a3.38 3.38 0 0 0-2.79-1.38c-.68 0-1.3.16-1.86.48-.56.3-1.12.74-1.68 1.32v6.81c.52.62 1.08 1.09 1.68 1.41.62.3 1.37.45 2.25.45zm22.162-1.47c.06 0 .11.04.15.12.06.06.07.12.03.18-1.34 1.2-2.82 1.8-4.44 1.8-1.18 0-2.19-.26-3.03-.78a5.32 5.32 0 0 1-1.92-2.13 6.47 6.47 0 0 1-.66-2.88c0-1.18.28-2.26.84-3.24.58-.98 1.36-1.75 2.34-2.31.98-.58 2.06-.87 3.24-.87 1.16 0 2.04.3 2.64.9.62.58.93 1.42.93 2.52 0 .54-.12.81-.36.81l-7.41.03-.06 1.02c0 1.74.41 3.14 1.23 4.2s1.98 1.59 3.48 1.59c.6 0 1.1-.07 1.5-.21.42-.16.91-.41 1.47-.75h.03zm-4.47-9.51c-.84 0-1.53.29-2.07.87-.54.56-.89 1.35-1.05 2.37l5.46-.12c0-1.02-.21-1.79-.63-2.31-.4-.54-.97-.81-1.71-.81zm18.695-.6c.44 0 .86.13 1.26.39.42.26.63.57.63.93a.98.98 0 0 1-.3.72c-.18.18-.43.27-.75.27-.2 0-.37-.04-.51-.12s-.3-.2-.48-.36c-.2-.16-.38-.28-.54-.36-.14-.08-.32-.12-.54-.12-.26 0-.53.1-.81.3-.26.2-.69.64-1.29 1.32v6.45c0 .58.07 1.02.21 1.32.16.28.44.48.84.6.4.1 1.01.15 1.83.15.06 0 .09.06.09.18s-.03.18-.09.18a33.35 33.35 0 0 1-1.59-.03l-2.25-.03-1.62.03-1.14.03c-.06 0-.09-.06-.09-.18s.03-.18.09-.18c.52 0 .9-.05 1.14-.15.26-.12.43-.32.51-.6.1-.3.15-.74.15-1.32v-5.88c0-.66-.08-1.14-.24-1.44s-.42-.45-.78-.45c-.3 0-.83.15-1.59.45h-.03c-.08 0-.14-.04-.18-.12-.04-.1-.02-.17.06-.21l3.6-1.74.18-.03c.2 0 .39.23.57.69.2.44.31 1.02.33 1.74.82-.94 1.47-1.58 1.95-1.92s.94-.51 1.38-.51z"/><path d="M6.6 5.5c.027 0 .04.04.04.12s-.013.12-.04.12c-.44 0-.76.04-.96.12s-.34.22-.42.42c-.067.187-.1.48-.1.88v11.4c0 1.32-.307 2.367-.92 3.14-.613.787-1.5 1.18-2.66 1.18-.453 0-.807-.08-1.06-.24-.267-.147-.4-.353-.4-.62 0-.2.06-.36.18-.48s.287-.18.5-.18c.227 0 .4.047.52.14a2.4 2.4 0 0 1 .38.46c.12.187.227.32.32.4s.227.12.4.12c.48 0 .833-.28 1.06-.84.24-.547.36-1.433.36-2.66V7.12c0-.4-.047-.693-.14-.88s-.28-.313-.56-.38c-.267-.08-.687-.12-1.26-.12-.027 0-.04-.04-.04-.12s.013-.12.04-.12L3 5.52l1.44.04 1.28-.04.88-.02zm13.585 11.36c.053 0 .087.033.1.1.027.053.013.093-.04.12l-2.34 1.1-.08.02c-.133 0-.26-.153-.38-.46s-.18-.707-.18-1.2v-.08c-.52.587-1.04 1.02-1.56 1.3-.52.267-1.06.4-1.62.4-.667 0-1.187-.207-1.56-.62-.373-.427-.56-1.04-.56-1.84v-3.06c0-.52-.047-.893-.14-1.12-.093-.24-.247-.36-.46-.36-.187 0-.413.067-.68.2h-.02c-.053 0-.093-.033-.12-.1-.027-.08-.013-.127.04-.14l2.22-1 .08-.02c.04 0 .08.02.12.06.053.027.08.06.08.1v4.78c0 1.547.56 2.32 1.68 2.32.427 0 .86-.107 1.3-.32a4.37 4.37 0 0 0 1.2-.92v-3.48c0-.533-.047-.913-.14-1.14-.08-.227-.233-.34-.46-.34-.187 0-.413.067-.68.2h-.02c-.053 0-.093-.033-.12-.1-.013-.08.007-.127.06-.14l2.22-1 .06-.02c.04 0 .08.02.12.06.053.027.08.06.08.1v5.6c0 .453.053.78.16.98s.287.3.54.3c.227 0 .58-.093 1.06-.28h.04zM24.109 18c-.04 0-.06-.04-.06-.12s.02-.12.06-.12c.36 0 .627-.033.8-.1a.67.67 0 0 0 .36-.4c.067-.2.1-.493.1-.88V6.04c0-.48-.047-.827-.14-1.04a.5.5 0 0 0-.5-.32c-.2 0-.507.093-.92.28h-.04c-.04 0-.073-.033-.1-.1-.013-.067 0-.107.04-.12l2.56-1.22c.027-.013.06-.02.1-.02.027 0 .06.02.1.06.053.027.08.06.08.1v12.72c0 .387.027.673.08.86a.67.67 0 0 0 .36.4c.173.08.44.12.8.12.04 0 .06.04.06.12s-.02.12-.06.12a10.51 10.51 0 0 1-.72-.02l-1.12-.02-1.08.02-.76.02zm15.784-.3l2.72-2.34c.64-.613 1.1-1.16 1.38-1.64s.42-.96.42-1.44c0-.533-.167-.967-.5-1.3-.32-.347-.74-.52-1.26-.52-1.053 0-1.813.827-2.28 2.48 0 .013-.027.02-.08.02-.12 0-.173-.027-.16-.08l.78-3.04c0-.027.027-.04.08-.04.04 0 .073.013.1.04.04.013.053.027.04.04a.95.95 0 0 0-.02.22c0 .213.1.32.3.32.12 0 .32-.047.6-.14.547-.173 1.033-.26 1.46-.26.68 0 1.213.187 1.6.56.4.36.6.833.6 1.42 0 .467-.153.933-.46 1.4-.293.467-.733.967-1.32 1.5-.573.52-1.38 1.18-2.42 1.98-.053.04-.073.073-.06.1.027.027.073.04.14.04l3.06-.06c.573-.04.987-.147 1.24-.32s.427-.48.52-.92c0-.027.033-.04.1-.04.093 0 .14.02.14.06l-.3 2.04c0 .053-.02.107-.06.16-.027.04-.067.06-.12.06h-6.1c-.067 0-.12-.033-.16-.1-.04-.08-.033-.147.02-.2zm15.107.56c-.787 0-1.493-.18-2.12-.54-.613-.36-1.1-.853-1.46-1.48-.347-.64-.52-1.36-.52-2.16 0-.787.173-1.487.52-2.1a3.84 3.84 0 0 1 1.48-1.44c.627-.347 1.333-.52 2.12-.52.773 0 1.467.18 2.08.54.613.347 1.087.833 1.42 1.46.347.627.52 1.333.52 2.12s-.173 1.493-.52 2.12a3.84 3.84 0 0 1-1.44 1.48c-.613.347-1.307.52-2.08.52zm.22-.28c.8 0 1.4-.32 1.8-.96.413-.653.62-1.533.62-2.64 0-1.333-.273-2.347-.82-3.04-.533-.693-1.207-1.04-2.02-1.04-.787 0-1.407.333-1.86 1-.44.667-.66 1.54-.66 2.62 0 1.187.267 2.16.8 2.92s1.247 1.14 2.14 1.14zm8.251-.28l2.72-2.34c.64-.613 1.1-1.16 1.38-1.64s.42-.96.42-1.44c0-.533-.167-.967-.5-1.3-.32-.347-.74-.52-1.26-.52-1.053 0-1.813.827-2.28 2.48 0 .013-.027.02-.08.02-.12 0-.173-.027-.16-.08l.78-3.04c0-.027.027-.04.08-.04.04 0 .073.013.1.04.04.013.053.027.04.04-.013.053-.02.127-.02.22 0 .213.1.32.3.32.12 0 .32-.047.6-.14.547-.173 1.033-.26 1.46-.26.68 0 1.213.187 1.6.56.4.36.6.833.6 1.42 0 .467-.153.933-.46 1.4-.293.467-.733.967-1.32 1.5-.573.52-1.38 1.18-2.42 1.98-.053.04-.073.073-.06.1.027.027.073.04.14.04l3.06-.06c.573-.04.987-.147 1.24-.32s.427-.48.52-.92c0-.027.033-.04.1-.04.093 0 .14.02.14.06l-.3 2.04c0 .053-.02.107-.06.16-.027.04-.067.06-.12.06h-6.1c-.067 0-.12-.033-.16-.1-.04-.08-.033-.147.02-.2zm11.047 0l2.72-2.34c.64-.613 1.1-1.16 1.38-1.64s.42-.96.42-1.44c0-.533-.167-.967-.5-1.3-.32-.347-.74-.52-1.26-.52-1.053 0-1.813.827-2.28 2.48 0 .013-.027.02-.08.02-.12 0-.173-.027-.16-.08l.78-3.04c0-.027.027-.04.08-.04.04 0 .073.013.1.04.04.013.053.027.04.04a.95.95 0 0 0-.02.22c0 .213.1.32.3.32.12 0 .32-.047.6-.14.547-.173 1.033-.26 1.46-.26.68 0 1.213.187 1.6.56.4.36.6.833.6 1.42 0 .467-.153.933-.46 1.4-.293.467-.733.967-1.32 1.5-.573.52-1.38 1.18-2.42 1.98-.053.04-.073.073-.06.1.027.027.073.04.14.04l3.06-.06c.573-.04.987-.147 1.24-.32s.427-.48.52-.92c0-.027.033-.04.1-.04.093 0 .14.02.14.06l-.3 2.04c0 .053-.02.107-.06.16-.027.04-.067.06-.12.06h-6.1c-.067 0-.12-.033-.16-.1-.04-.08-.033-.147.02-.2zm18.674 1.82c-.027 0-.053-.047-.08-.14-.013-.08-.02-.173-.02-.28a1.59 1.59 0 0 1 .02-.26c.013-.08.033-.12.06-.12h6.62c.027 0 .047.04.06.12.027.093.04.187.04.28s-.013.18-.04.26c-.013.093-.033.14-.06.14h-6.6zm21.816-3.22c0 .427.053.74.16.94.12.187.34.32.66.4.333.08.853.12 1.56.12.04 0 .06.04.06.12s-.02.12-.06.12c-.547 0-.973-.007-1.28-.02l-1.74-.02-1.34.02-1.02.02c-.027 0-.04-.04-.04-.12s.013-.12.04-.12c.507 0 .873-.033 1.1-.1.24-.067.4-.193.48-.38.08-.2.12-.5.12-.9V7.12c0-.4-.04-.693-.12-.88s-.24-.313-.48-.38c-.227-.08-.593-.12-1.1-.12-.027 0-.04-.04-.04-.12s.013-.12.04-.12l1 .02 1.34.04a11.73 11.73 0 0 0 1.12-.06l.76-.02.9-.04c1.227 0 2.207.273 2.94.82.747.547 1.12 1.38 1.12 2.5 0 .88-.22 1.62-.66 2.22a3.89 3.89 0 0 1-1.66 1.34c-.667.293-1.36.44-2.08.44-.4 0-.727-.033-.98-.1-.04 0-.06-.033-.06-.1 0-.04.007-.08.02-.12.027-.04.053-.053.08-.04.213.053.453.08.72.08.88 0 1.62-.287 2.22-.86.613-.573.92-1.4.92-2.48 0-1.053-.287-1.88-.86-2.48-.573-.613-1.307-.92-2.2-.92-.48 0-.827.027-1.04.08a.66.66 0 0 0-.46.38c-.093.187-.14.507-.14.96v9.14zm15.48-6.2c.294 0 .574.08.84.24s.4.353.4.58a.6.6 0 0 1-.18.44c-.106.12-.266.18-.48.18-.12 0-.226-.02-.32-.06l-.3-.22c-.12-.107-.233-.187-.34-.24s-.233-.08-.38-.08c-.173 0-.36.073-.56.22-.186.147-.486.46-.9.94v4.28c0 .4.047.693.14.88.107.187.294.32.56.4.267.067.68.1 1.24.1.054 0 .08.04.08.12s-.026.12-.08.12c-.426 0-.766-.007-1.02-.02l-1.48-.02-1.1.02-.72.02c-.04 0-.06-.04-.06-.12s.02-.12.06-.12c.36 0 .627-.033.8-.1a.6.6 0 0 0 .34-.4c.067-.187.1-.48.1-.88v-3.96c0-.453-.053-.78-.16-.98s-.286-.3-.54-.3c-.213 0-.573.1-1.08.3h-.04c-.053 0-.093-.027-.12-.08-.013-.067.007-.113.06-.14l2.32-1.1.12-.02c.12 0 .247.153.38.46s.2.7.2 1.18v.02c.547-.64.98-1.073 1.3-1.3.32-.24.627-.36.92-.36zm11.731 6.78c.04 0 .073.027.1.08.04.04.047.08.02.12-.88.773-1.853 1.16-2.92 1.16-.773 0-1.433-.18-1.98-.54a3.59 3.59 0 0 1-1.26-1.42 4.31 4.31 0 0 1-.42-1.88 4.28 4.28 0 0 1 .56-2.16c.373-.667.88-1.187 1.52-1.56.653-.387 1.367-.58 2.14-.58.747 0 1.32.2 1.72.6s.6.96.6 1.68c0 .187-.02.32-.06.4-.027.08-.08.12-.16.12l-4.96.02-.04.72c0 1.16.273 2.1.82 2.82s1.313 1.08 2.3 1.08c.4 0 .74-.053 1.02-.16a5.26 5.26 0 0 0 .98-.5h.02zm-2.9-6.38c-.573 0-1.047.193-1.42.58-.373.373-.62.9-.74 1.58l3.8-.08c0-.68-.147-1.193-.44-1.54-.293-.36-.693-.54-1.2-.54zm8.904 1c0 .467.153.84.46 1.12.307.267.753.553 1.34.86l1.08.62a2.36 2.36 0 0 1 .68.68c.187.28.28.62.28 1.02 0 .68-.253 1.253-.76 1.72s-1.193.7-2.06.7c-.707 0-1.347-.2-1.92-.6-.08-.053-.12-.133-.12-.24l-.04-1.56c0-.04.033-.06.1-.06.08-.013.127 0 .14.04.253.667.58 1.173.98 1.52.413.347.887.52 1.42.52.44 0 .773-.107 1-.32s.327-.527.3-.94c-.013-.507-.173-.893-.48-1.16-.293-.28-.74-.567-1.34-.86l-1.06-.58a2.48 2.48 0 0 1-.66-.68c-.173-.28-.26-.627-.26-1.04 0-.72.267-1.267.8-1.64.547-.387 1.187-.58 1.92-.58.533 0 1.02.1 1.46.3.08.027.127.06.14.1.027.027.04.067.04.12l-.02.62-.02.84c0 .027-.04.04-.12.04s-.12-.013-.12-.04c0-.28-.107-.54-.32-.78-.213-.253-.48-.453-.8-.6s-.64-.22-.96-.22c-.333 0-.6.093-.8.28-.187.173-.28.44-.28.8zm14.918 5.38c.04 0 .073.027.1.08.04.04.047.08.02.12-.88.773-1.853 1.16-2.92 1.16-.773 0-1.433-.18-1.98-.54a3.59 3.59 0 0 1-1.26-1.42 4.31 4.31 0 0 1-.42-1.88 4.28 4.28 0 0 1 .56-2.16c.373-.667.88-1.187 1.52-1.56.653-.387 1.367-.58 2.14-.58.747 0 1.32.2 1.72.6s.6.96.6 1.68c0 .187-.02.32-.06.4-.027.08-.08.12-.16.12l-4.96.02-.04.72c0 1.16.273 2.1.82 2.82s1.313 1.08 2.3 1.08c.4 0 .74-.053 1.02-.16a5.26 5.26 0 0 0 .98-.5h.02zm-2.9-6.38c-.573 0-1.047.193-1.42.58-.373.373-.62.9-.74 1.58l3.8-.08c0-.68-.147-1.193-.44-1.54-.293-.36-.693-.54-1.2-.54zm16.784 7.26c.04 0 .06.04.06.12s-.02.12-.06.12a9.97 9.97 0 0 1-.72-.02l-1.08-.02-1.1.02-.72.02c-.04 0-.06-.04-.06-.12s.02-.12.06-.12c.36 0 .627-.033.8-.1a.6.6 0 0 0 .34-.4c.067-.187.1-.48.1-.88v-3.24c0-.787-.153-1.367-.46-1.74-.293-.373-.753-.56-1.38-.56-.413 0-.833.113-1.26.34-.413.213-.793.513-1.14.9v4.3c0 .4.027.693.08.88a.67.67 0 0 0 .36.4c.173.067.44.1.8.1.04 0 .06.04.06.12s-.02.12-.06.12a9.97 9.97 0 0 1-.72-.02l-1.08-.02-1.1.02-.72.02c-.04 0-.06-.04-.06-.12s.02-.12.06-.12c.36 0 .627-.033.8-.1a.6.6 0 0 0 .34-.4c.067-.187.1-.48.1-.88v-3.96c0-.453-.053-.78-.16-.98s-.287-.3-.54-.3c-.213 0-.573.1-1.08.3h-.04c-.053 0-.093-.027-.12-.08-.013-.067.007-.113.06-.14l2.32-1.1.12-.02c.12 0 .247.153.38.46s.2.7.2 1.18c.507-.587 1.007-1.02 1.5-1.3a3.19 3.19 0 0 1 1.56-.42c.747 0 1.32.207 1.72.62s.6 1.02.6 1.82v3.92c0 .4.027.693.08.88a.67.67 0 0 0 .36.4c.173.067.44.1.8.1zm9.652-.8c.053 0 .093.033.12.1.027.053.02.093-.02.12-.493.387-.94.66-1.34.82a3.16 3.16 0 0 1-1.22.24c-.56 0-1.02-.127-1.38-.38s-.54-.673-.54-1.26v-4.7c0-.347-.027-.593-.08-.74-.04-.147-.127-.24-.26-.28-.133-.053-.36-.08-.68-.08-.053 0-.08-.04-.08-.12 0-.093.027-.14.08-.14.533-.013.967-.153 1.3-.42a1.63 1.63 0 0 0 .58-1.1c0-.04.053-.06.16-.06.093 0 .14.02.14.06v1.48c.667-.013 1.593-.08 2.78-.2.027 0 .053.053.08.16.04.093.06.2.06.32 0 .107-.027.22-.08.34-.04.107-.087.153-.14.14-.733-.187-1.633-.293-2.7-.32v4.98c0 .547.133.953.4 1.22.28.267.673.4 1.18.4.587 0 1.12-.187 1.6-.56l.04-.02z"/></svg>