<svg width="288" height="269" viewBox="0 0 288 269" fill="none" xmlns="http://www.w3.org/2000/svg">
<g clip-path="url(#clip0_285_77)">
<path d="M252.224 107.6H8.94411C3.57765 107.6 0 111.187 0 116.567C0 143.467 5.36647 170.367 16.0994 193.68C26.8323 216.993 41.1429 234.927 59.0311 249.273C60.8199 251.067 62.6087 251.067 64.3975 251.067H26.8323C21.4658 251.067 17.8882 254.653 17.8882 260.033C17.8882 265.413 21.4658 269 26.8323 269H205.714C211.081 269 214.658 265.413 214.658 260.033C214.658 254.653 211.081 251.067 205.714 251.067H168.149C169.938 251.067 171.727 251.067 173.516 249.273C189.615 236.72 203.925 220.58 214.658 199.06H216.447C245.068 199.06 261.168 188.3 271.901 181.127C282.634 170.367 289.789 157.813 289.789 145.26C289.789 123.74 271.901 107.6 252.224 107.6ZM257.59 166.78C252.224 172.16 241.491 177.54 223.602 179.333C228.969 163.193 232.547 145.26 234.335 127.327H252.224C261.168 127.327 268.323 134.5 268.323 143.467C268.323 150.64 266.534 159.607 257.59 166.78Z" fill="#A3A3A3"/>
<path d="M80.4988 89.6667C75.1323 89.6667 71.5547 86.08 71.5547 80.7V44.8334C71.5547 39.4534 75.1323 35.8667 80.4988 35.8667C85.8652 35.8667 89.4429 39.4534 89.4429 44.8334V80.7C89.4429 86.08 85.8652 89.6667 80.4988 89.6667Z" fill="#A3A3A3"/>
<path d="M116.272 89.6667C110.906 89.6667 107.328 86.08 107.328 80.7V8.96667C107.328 3.58667 110.906 0 116.272 0C121.639 0 125.216 3.58667 125.216 8.96667V80.7C125.216 86.08 121.639 89.6667 116.272 89.6667Z" fill="#A3A3A3"/>
<path d="M152.05 89.6667C148.472 89.6667 143.105 86.08 143.105 80.7V44.8334C143.105 39.4534 146.683 35.8667 152.05 35.8667C157.416 35.8667 160.994 39.4534 160.994 44.8334V80.7C160.994 86.08 157.416 89.6667 152.05 89.6667Z" fill="#A3A3A3"/>
</g>
<defs>
<clipPath id="clip0_285_77">
<rect width="288" height="269" fill="white"/>
</clipPath>
</defs>
</svg>
