<svg xmlns="http://www.w3.org/2000/svg" width="339" height="65" fill="none" xmlns:v="https://vecta.io/nano"><path d="M24.34 1.25c.14 0 .21.14.21.42s-.07.42-.21.42c-1.307 0-2.287.14-2.94.42-.607.28-1.027.77-1.26 1.47-.187.653-.28 1.68-.28 3.08v38.78c0 5.04-1.237 8.983-3.71 11.83-2.427 2.893-5.857 4.34-10.29 4.34-1.68 0-3.033-.35-4.06-1.05-1.073-.653-1.61-1.587-1.61-2.8 0-.84.28-1.587.84-2.24.56-.607 1.353-.91 2.38-.91s1.82.28 2.38.84c.56.607 1.073 1.423 1.54 2.45.327.747.653 1.307.98 1.68s.723.56 1.19.56c1.213 0 2.1-.863 2.66-2.59.607-1.68.91-4.457.91-8.33V6.92c0-1.4-.163-2.427-.49-3.08-.28-.653-.863-1.097-1.75-1.33-.84-.28-2.17-.42-3.99-.42-.093 0-.14-.14-.14-.42s.047-.42.14-.42l4.2.07c2.24.093 4.013.14 5.32.14 1.26 0 2.87-.047 4.83-.14l3.15-.07zm37.521 39.34c.14 0 .257.117.35.35s.07.397-.07.49l-9.17 4.41-.28.07c-.467 0-.887-.513-1.26-1.54-.373-1.073-.583-2.497-.63-4.27-3.267 3.78-6.72 5.67-10.36 5.67-2.52 0-4.48-.77-5.88-2.31-1.4-1.587-2.1-3.733-2.1-6.44V26.59c0-3.173-.723-4.76-2.17-4.76-.467 0-1.12.187-1.96.56h-.07c-.187 0-.327-.117-.42-.35s-.07-.397.07-.49l8.89-4.13.28-.07c.187 0 .397.093.63.28s.35.35.35.49v15.89c0 2.613.467 4.573 1.4 5.88.98 1.26 2.45 1.89 4.41 1.89 1.167 0 2.357-.28 3.57-.84 1.26-.56 2.38-1.33 3.36-2.31V26.59c0-1.633-.187-2.823-.56-3.57-.327-.793-.863-1.19-1.61-1.19-.42 0-1.073.187-1.96.56h-.07c-.187 0-.327-.117-.42-.35-.093-.28-.047-.443.14-.49l8.82-4.13a.78.78 0 0 1 .35-.07c.187 0 .397.093.63.28s.35.35.35.49v18.97c0 1.633.163 2.777.49 3.43s.863.98 1.61.98c.56 0 1.61-.28 3.15-.84l.14-.07zm8.258-18.97c0 1.447.49 2.66 1.47 3.64 1.027.98 2.497 2.007 4.41 3.08 1.68.933 2.963 1.703 3.85 2.31.933.607 1.727 1.423 2.38 2.45.7 1.027 1.05 2.263 1.05 3.71 0 1.587-.397 3.057-1.19 4.41s-1.983 2.45-3.57 3.29c-1.54.84-3.383 1.26-5.53 1.26-2.567 0-4.923-.653-7.07-1.96-.28-.28-.42-.56-.42-.84l-.14-6.44c0-.14.117-.21.35-.21.28-.047.443-.023.49.07.793 2.333 1.983 4.247 3.57 5.74 1.633 1.493 3.36 2.24 5.18 2.24 1.167 0 2.077-.303 2.73-.91s.98-1.517.98-2.73c0-1.773-.513-3.173-1.54-4.2-1.027-1.073-2.52-2.123-4.48-3.15-1.587-.84-2.823-1.54-3.71-2.1-.887-.607-1.657-1.4-2.31-2.38-.607-1.027-.91-2.287-.91-3.78 0-2.66.957-4.643 2.87-5.95 1.96-1.307 4.317-1.96 7.07-1.96 1.82 0 3.687.35 5.6 1.05.42.187.63.443.63.77 0 1.073-.023 1.913-.07 2.52l-.07 3.36c0 .14-.14.21-.42.21s-.42-.07-.42-.21c0-.933-.373-1.89-1.12-2.87-.747-1.027-1.703-1.867-2.87-2.52s-2.357-.98-3.57-.98c-2.147 0-3.22 1.027-3.22 3.08zm38.144 18.9c.14 0 .257.093.35.28.14.187.14.327 0 .42-1.726 1.633-3.36 2.823-4.9 3.57-1.54.7-3.173 1.05-4.9 1.05-2.007 0-3.71-.467-5.11-1.4-1.353-.98-2.03-2.59-2.03-4.83V23.79c0-1.54-.257-2.567-.77-3.08-.467-.513-1.4-.77-2.8-.77-.047 0-.117-.047-.21-.14a1.32 1.32 0 0 1-.07-.42c0-.14.023-.257.07-.35.093-.14.163-.21.21-.21 4.387-.187 7.14-2.077 8.26-5.67.093-.187.28-.28.56-.28.327 0 .49.093.49.28v5.53c2.193-.047 5.297-.28 9.31-.7.094 0 .187.187.28.56a2.82 2.82 0 0 1 .21 1.12c0 .42-.093.84-.28 1.26-.14.42-.303.607-.49.56-2.613-.607-5.623-.98-9.03-1.12V37.3c0 1.82.443 3.173 1.33 4.06.933.84 2.217 1.26 3.85 1.26 1.96 0 3.804-.677 5.53-2.03l.14-.07zm29.071-31.85c0 1.727.42 3.267 1.26 4.62a14.96 14.96 0 0 0 3.22 3.43c1.306.98 3.056 2.147 5.25 3.5 2.38 1.493 4.246 2.777 5.6 3.85 1.4 1.073 2.566 2.403 3.5 3.99.98 1.54 1.47 3.36 1.47 5.46 0 2.38-.63 4.503-1.89 6.37-1.214 1.867-2.964 3.337-5.25 4.41-2.24 1.027-4.807 1.54-7.7 1.54-1.96 0-3.99-.257-6.09-.77-2.054-.513-3.617-1.143-4.69-1.89-.42-.28-.654-.723-.7-1.33l-.42-10.64v-.07c0-.187.116-.28.35-.28.233-.047.373.023.42.21 1.54 3.873 3.29 7.047 5.25 9.52 2.006 2.473 4.55 3.71 7.63 3.71 2.006 0 3.686-.537 5.04-1.61 1.353-1.12 2.03-2.963 2.03-5.53 0-2.053-.467-3.85-1.4-5.39-.887-1.54-2.007-2.823-3.36-3.85-1.307-1.027-3.104-2.287-5.39-3.78-2.24-1.447-3.99-2.66-5.25-3.64-1.26-1.027-2.334-2.263-3.22-3.71-.887-1.493-1.33-3.22-1.33-5.18 0-2.427.676-4.48 2.03-6.16s3.103-2.917 5.25-3.71c2.193-.84 4.48-1.26 6.86-1.26 1.586 0 3.173.163 4.76.49 1.586.28 2.916.653 3.99 1.12.7.28 1.05.723 1.05 1.33l.21 9.52c0 .14-.14.233-.42.28-.234.047-.374 0-.42-.14-.934-2.847-2.194-5.413-3.78-7.7-1.54-2.333-3.874-3.5-7-3.5-2.1 0-3.78.607-5.04 1.82-1.214 1.213-1.82 2.87-1.82 4.97zm53.258 32.55c.187 0 .303.117.35.35.047.187-.023.327-.21.42l-7.21 3.43a1.39 1.39 0 0 1-.63.14c-.7 0-1.377-.397-2.03-1.19-.607-.84-1.003-1.937-1.19-3.29l-3.22 2.24c-1.12.793-2.147 1.353-3.08 1.68-.887.327-1.89.49-3.01.49-1.913 0-3.383-.443-4.41-1.33-.98-.933-1.47-2.147-1.47-3.64 0-1.26.327-2.287.98-3.08.7-.793 1.563-1.423 2.59-1.89 1.073-.513 2.637-1.143 4.69-1.89l6.79-2.52v-4.2c0-2.893-.303-4.993-.91-6.3-.56-1.353-1.47-2.03-2.73-2.03-1.54 0-2.66.583-3.36 1.75-.653 1.12-1.05 2.38-1.19 3.78-.28 2.38-1.47 3.57-3.57 3.57-1.027 0-1.797-.233-2.31-.7-.467-.467-.7-1.05-.7-1.75 0-1.307.77-2.567 2.31-3.78 1.587-1.26 3.477-2.263 5.67-3.01 2.24-.793 4.2-1.19 5.88-1.19 2.007 0 3.593.63 4.76 1.89 1.213 1.26 1.82 3.15 1.82 5.67v12.6c0 1.447.233 2.543.7 3.29s1.143 1.12 2.03 1.12c.7 0 1.54-.21 2.52-.63h.14zm-11.06-1.26v-.7-6.93l-4.2 1.75c-1.213.467-2.217 1.027-3.01 1.68-.747.607-1.12 1.493-1.12 2.66 0 1.12.35 2.03 1.05 2.73.747.653 1.633.98 2.66.98.84 0 1.727-.28 2.66-.84l1.96-1.33zm41.376-21.98c.093 0 .14.14.14.42s-.047.42-.14.42c-1.4 0-2.613.56-3.64 1.68-.98 1.12-1.89 2.823-2.73 5.11l-8.05 21.35c-1.68 4.48-3.29 8.003-4.83 10.57s-3.103 4.387-4.69 5.46c-1.587 1.12-3.337 1.68-5.25 1.68-1.307 0-2.31-.28-3.01-.84-.747-.513-1.12-1.307-1.12-2.38 0-.933.303-1.657.91-2.17.56-.467 1.26-.7 2.1-.7.56 0 1.027.07 1.4.21a8.5 8.5 0 0 1 1.26.7c.467.28.863.49 1.19.63.373.14.817.21 1.33.21 1.073 0 2.053-.443 2.94-1.33.933-.84 1.89-2.263 2.87-4.27 1.027-2.007 2.24-4.853 3.64-8.54l-11.06-22.4c-1.027-2.007-1.843-3.337-2.45-3.99a2.65 2.65 0 0 0-2.1-.98c-.14 0-.21-.14-.21-.42s.07-.42.21-.42c1.213 0 2.147.023 2.8.07l2.73.07 4.76-.07c.7-.047 1.657-.07 2.87-.07.14 0 .21.14.21.42s-.07.42-.21.42c-1.26 0-2.193.117-2.8.35-.56.187-.84.56-.84 1.12 0 .42.117.84.35 1.26l8.54 17.64 4.69-13.58c.42-1.213.63-2.24.63-3.08 0-2.473-1.563-3.71-4.69-3.71-.093 0-.14-.14-.14-.42s.047-.42.14-.42c1.26 0 2.217.023 2.87.07l4.2.07 2.73-.07c.513-.047 1.33-.07 2.45-.07zm66.854 26.18c.14 0 .21.14.21.42s-.07.42-.21.42c-1.586 0-2.87-.023-3.85-.07l-5.11-.07-5.95.07c-.84.047-1.96.07-3.36.07-.14 0-.21-.14-.21-.42s.07-.42.21-.42c1.774 0 3.057-.117 3.85-.35s1.33-.677 1.61-1.33.42-1.703.42-3.15V23.16h-24.01v16.17c0 1.4.14 2.45.42 3.15.28.653.817 1.097 1.61 1.33.84.233 2.147.35 3.92.35.094 0 .14.14.14.42s-.046.42-.14.42c-1.586 0-2.823-.023-3.71-.07l-5.81-.07-5.11.07c-.886.047-2.123.07-3.71.07-.093 0-.14-.14-.14-.42s.047-.42.14-.42c1.68 0 2.917-.117 3.71-.35s1.33-.677 1.61-1.33c.28-.7.42-1.75.42-3.15V6.92c0-1.4-.14-2.427-.42-3.08s-.816-1.097-1.61-1.33c-.793-.28-2.006-.42-3.64-.42-.093 0-.14-.14-.14-.42s.047-.42.14-.42l3.71.07 5.04.14c1.634 0 3.57-.047 5.81-.14l3.71-.07c.094 0 .14.14.14.42s-.046.42-.14.42c-1.726 0-3.01.14-3.85.42-.793.28-1.353.77-1.68 1.47-.28.653-.42 1.68-.42 3.08v14.28h24.01V7.06c0-1.4-.14-2.427-.42-3.08-.28-.7-.84-1.19-1.68-1.47-.793-.28-2.053-.42-3.78-.42-.14 0-.21-.14-.21-.42s.07-.42.21-.42l3.36.07c2.24.093 4.224.14 5.95.14 1.26 0 2.964-.047 5.11-.14l3.85-.07c.14 0 .21.14.21.42s-.07.42-.21.42c-1.68 0-2.916.14-3.71.42-.746.233-1.26.677-1.54 1.33s-.42 1.68-.42 3.08v32.41c0 1.4.14 2.45.42 3.15.28.653.794 1.097 1.54 1.33.794.233 2.03.35 3.71.35zm11.811-34.23c-1.214 0-2.17-.327-2.87-.98-.654-.653-.98-1.587-.98-2.8 0-1.167.326-2.053.98-2.66.7-.653 1.656-.98 2.87-.98 1.166 0 2.076.327 2.73.98.653.607.98 1.493.98 2.66 0 1.213-.327 2.147-.98 2.8-.607.653-1.517.98-2.73.98zM293.133 45c-.14 0-.21-.14-.21-.42s.07-.42.21-.42c1.586 0 2.636-.327 3.15-.98s.77-1.937.77-3.85V26.59c0-1.587-.164-2.73-.49-3.43-.327-.747-.887-1.12-1.68-1.12-.7 0-1.61.28-2.73.84h-.07c-.187 0-.327-.117-.42-.35s-.07-.397.07-.49l10.08-4.69.21-.07c.186 0 .373.117.56.35.233.187.35.35.35.49v1.47c-.094 1.96-.14 4.27-.14 6.93v12.81c0 1.913.256 3.197.77 3.85.56.653 1.633.98 3.22.98.14 0 .21.14.21.42s-.07.42-.21.42c-1.167 0-2.1-.023-2.8-.07l-4.06-.07-4.06.07c-.654.047-1.564.07-2.73.07zm36.61-43.19c-.094-.233.326-.42 1.26-.56a16.43 16.43 0 0 1 3.08-.28c1.026 0 2.03.093 3.01.28.98.14 1.423.327 1.33.56-.934 3.78-1.657 7.91-2.17 12.39-.467 4.433-.91 9.823-1.33 16.17l-.07 1.4c0 .187-.304.28-.91.28-.654 0-.98-.093-.98-.28-.327-6.533-.724-12.157-1.19-16.87-.42-4.76-1.097-9.123-2.03-13.09zm3.92 43.96c-1.167 0-2.1-.35-2.8-1.05s-1.05-1.633-1.05-2.8c0-1.12.35-2.007 1.05-2.66s1.633-.98 2.8-.98c1.213 0 2.146.327 2.8.98s.98 1.54.98 2.66c0 1.213-.327 2.17-.98 2.87-.654.653-1.587.98-2.8.98z" fill="#4971ff"/></svg>