<svg xmlns="http://www.w3.org/2000/svg" width="133" height="85" fill="none" xmlns:v="https://vecta.io/nano"><path d="M95.144 83.368c.272 0 .408.272.408.816s-.136.816-.408.816c-3.083 0-5.576-.045-7.48-.136l-9.928-.136-11.56.136-6.528.136c-.272 0-.408-.272-.408-.816s.136-.816.408-.816c3.445 0 5.939-.227 7.48-.68s2.584-1.315 3.128-2.584.816-3.309.816-6.12V42.568H24.424v31.416c0 2.72.272 4.76.816 6.12.544 1.269 1.587 2.131 3.128 2.584 1.632.453 4.171.68 7.616.68.181 0 .272.272.272.816s-.091.816-.272.816c-3.083 0-5.485-.045-7.208-.136l-11.288-.136-9.928.136L.352 85c-.181 0-.272-.272-.272-.816s.091-.816.272-.816c3.264 0 5.667-.227 7.208-.68s2.584-1.315 3.128-2.584c.544-1.36.816-3.4.816-6.12V11.016c0-2.72-.272-4.715-.816-5.984S9.101 2.901 7.56 2.448c-1.541-.544-3.899-.816-7.072-.816-.181 0-.272-.272-.272-.816S.307 0 .488 0l7.208.136 9.792.272c3.173 0 6.936-.091 11.288-.272L35.984 0c.181 0 .272.272.272.816s-.091.816-.272.816c-3.355 0-5.848.272-7.48.816-1.541.544-2.629 1.496-3.264 2.856-.544 1.269-.816 3.264-.816 5.984v27.744h46.648V11.288c0-2.72-.272-4.715-.816-5.984-.544-1.36-1.632-2.312-3.264-2.856-1.541-.544-3.989-.816-7.344-.816-.272 0-.408-.272-.408-.816S59.376 0 59.648 0l6.528.136c4.352.181 8.205.272 11.56.272 2.448 0 5.757-.091 9.928-.272L95.144 0c.272 0 .408.272.408.816s-.136.816-.408.816c-3.264 0-5.667.272-7.208.816-1.451.453-2.448 1.315-2.992 2.584s-.816 3.264-.816 5.984v62.968c0 2.72.272 4.76.816 6.12.544 1.269 1.541 2.131 2.992 2.584 1.541.453 3.944.68 7.208.68zm22.946-66.504c-2.358 0-4.216-.635-5.576-1.904-1.27-1.269-1.904-3.083-1.904-5.44 0-2.267.634-3.989 1.904-5.168 1.36-1.269 3.218-1.904 5.576-1.904 2.266 0 4.034.635 5.304 1.904 1.269 1.179 1.904 2.901 1.904 5.168 0 2.357-.635 4.171-1.904 5.44-1.179 1.269-2.947 1.904-5.304 1.904zM105.578 85c-.272 0-.408-.272-.408-.816s.136-.816.408-.816c3.082 0 5.122-.635 6.12-1.904s1.496-3.763 1.496-7.48V49.232c0-3.083-.318-5.304-.952-6.664-.635-1.451-1.723-2.176-3.264-2.176-1.36 0-3.128.544-5.304 1.632h-.136c-.363 0-.635-.227-.816-.68s-.136-.771.136-.952l19.584-9.112.408-.136c.362 0 .725.227 1.088.68.453.363.68.68.68.952v2.856c-.182 3.808-.272 8.296-.272 13.464v24.888c0 3.717.498 6.211 1.496 7.48 1.088 1.269 3.173 1.904 6.256 1.904.272 0 .408.272.408.816s-.136.816-.408.816c-2.267 0-4.08-.045-5.44-.136l-7.888-.136-7.888.136c-1.27.091-3.038.136-5.304.136z" fill="#fff"/></svg>