<svg xmlns="http://www.w3.org/2000/svg" width="390" height="654" fill="none" xmlns:v="https://vecta.io/nano"><path d="M57.24 166.72c-3.72 0-8.04-.18-12.96-.54l-6.84-.36a217.61 217.61 0 0 0-9.36-.18l-12.78.18c-2.28.12-5.46.18-9.54.18-.24 0-.36-.36-.36-1.08s.12-1.08.36-1.08c4.08 0 7.02-.3 8.82-.9 1.92-.6 3.24-1.74 3.96-3.42.72-1.8 1.08-4.5 1.08-8.1V68.08c0-3.6-.36-6.24-1.08-7.92-.6-1.68-1.86-2.82-3.78-3.42-1.92-.72-4.86-1.08-8.82-1.08-.24 0-.36-.36-.36-1.08s.12-1.08.36-1.08l9.54.18c5.28.24 9.48.36 12.6.36 4.8 0 9.66-.18 14.58-.54l12.06-.36c12.24 0 23.1 2.4 32.58 7.2s16.8 11.34 21.96 19.62c5.28 8.28 7.92 17.58 7.92 27.9 0 11.64-2.7 21.96-8.1 30.96-5.4 8.88-12.66 15.78-21.78 20.7-9.12 4.8-19.14 7.2-30.06 7.2zm-1.8-3.6c8.28 0 15.6-1.98 21.96-5.94 6.48-3.96 11.52-9.78 15.12-17.46 3.6-7.8 5.4-17.1 5.4-27.9 0-10.32-1.74-19.62-5.22-27.9-3.36-8.4-8.16-15-14.4-19.8-6.24-4.92-13.5-7.38-21.78-7.38-5.04 0-8.94.3-11.7.9s-4.8 1.74-6.12 3.42c-1.2 1.56-1.8 4.02-1.8 7.38v81c0 4.92 1.26 8.46 3.78 10.62 2.52 2.04 7.44 3.06 14.76 3.06zm112.192 5.22c-7.2 0-13.56-1.68-19.08-5.04-5.52-3.48-9.78-8.1-12.78-13.86-3-5.88-4.5-12.24-4.5-19.08 0-7.8 1.92-14.4 5.76-19.8 3.96-5.52 8.94-9.6 14.94-12.24 6.12-2.76 12.36-4.14 18.72-4.14 7.32 0 13.68 1.74 19.08 5.22 5.52 3.48 9.72 8.1 12.6 13.86 2.88 5.64 4.32 11.7 4.32 18.18 0 7.2-1.8 13.62-5.4 19.26-3.48 5.64-8.22 10.02-14.22 13.14-6 3-12.48 4.5-19.44 4.5zm5.4-3.6c5.28 0 9.3-2.34 12.06-7.02 2.88-4.68 4.32-11.52 4.32-20.52 0-8.04-1.14-15.06-3.42-21.06-2.16-6-5.16-10.56-9-13.68-3.72-3.12-7.8-4.68-12.24-4.68-5.4 0-9.48 2.22-12.24 6.66s-4.14 10.98-4.14 19.62c0 7.8 1.02 14.82 3.06 21.06 2.16 6.12 5.1 10.92 8.82 14.4 3.84 3.48 8.1 5.22 12.78 5.22zm130.559-.9c.36 0 .54.36.54 1.08s-.18 1.08-.54 1.08c-3 0-5.34-.06-7.02-.18l-10.44-.18-10.26.18c-1.8.12-4.2.18-7.2.18-.36 0-.54-.36-.54-1.08s.18-1.08.54-1.08c4.08 0 6.78-.84 8.1-2.52s1.98-4.98 1.98-9.9v-27c0-6.72-1.26-11.64-3.78-14.76-2.4-3.24-6.24-4.86-11.52-4.86-3.12 0-6.3.72-9.54 2.16s-6.18 3.36-8.82 5.76v38.7c0 4.92.66 8.22 1.98 9.9s4.02 2.52 8.1 2.52c.36 0 .54.36.54 1.08s-.18 1.08-.54 1.08c-3 0-5.34-.06-7.02-.18l-10.44-.18-10.44.18c-1.68.12-4.02.18-7.02.18-.36 0-.54-.36-.54-1.08s.18-1.08.54-1.08c4.08 0 6.78-.84 8.1-2.52s1.98-4.98 1.98-9.9v-34.38c0-3.84-.48-6.66-1.44-8.46-.84-1.8-2.28-2.7-4.32-2.7-1.8 0-4.8.9-9 2.7h-.18c-.48 0-.84-.3-1.08-.9s-.18-.96.18-1.08l23.58-11.52c.72-.24 1.14-.36 1.26-.36 1.2 0 2.4 1.38 3.6 4.14 1.32 2.64 2.04 6.12 2.16 10.44 8.4-9.96 17.52-14.94 27.36-14.94 6.6 0 11.76 2.04 15.48 6.12 3.72 3.96 5.58 9.36 5.58 16.2v34.74c0 4.92.66 8.22 1.98 9.9s4.02 2.52 8.1 2.52zm4.165-107.1c-.12-1.32 1.62-2.64 5.22-3.96s6.78-1.98 9.54-1.98c1.92 0 2.82.42 2.7 1.26l-10.62 48.06c-.24.24-.78.42-1.62.54-.72.12-1.08 0-1.08-.36l-4.14-43.56zm78.203 97.74c.36 0 .66.24.9.72.36.48.36.84 0 1.08-4.44 4.2-8.64 7.26-12.6 9.18-3.96 1.8-8.16 2.7-12.6 2.7-5.16 0-9.54-1.2-13.14-3.6-3.48-2.52-5.22-6.66-5.22-12.42v-40.68c0-3.96-.66-6.6-1.98-7.92-1.2-1.32-3.6-1.98-7.2-1.98-.12 0-.3-.12-.54-.36-.12-.36-.18-.72-.18-1.08s.06-.66.18-.9c.24-.36.42-.54.54-.54 11.28-.48 18.36-5.34 21.24-14.58.24-.48.72-.72 1.44-.72.84 0 1.26.24 1.26.72v14.22c5.64-.12 13.62-.72 23.94-1.8.24 0 .48.48.72 1.44.36.84.54 1.8.54 2.88s-.24 2.16-.72 3.24c-.36 1.08-.78 1.56-1.26 1.44-6.72-1.56-14.46-2.52-23.22-2.88v43.56c0 4.68 1.14 8.16 3.42 10.44 2.4 2.16 5.7 3.24 9.9 3.24 5.04 0 9.78-1.74 14.22-5.22l.36-.18zM63.18 320.82c9.84 1.08 17.7 4.38 23.58 9.9s8.82 12.36 8.82 20.52c0 6.24-1.74 11.94-5.22 17.1-3.36 5.04-8.1 9.06-14.22 12.06-6 2.88-12.72 4.32-20.16 4.32-3.48 0-7.5-.18-12.06-.54-1.56-.12-3.54-.24-5.94-.36a163.67 163.67 0 0 0-8.1-.18l-12.96.18c-2.28.12-5.4.18-9.36.18-.36 0-.54-.36-.54-1.08s.18-1.08.54-1.08c3.84 0 6.72-.3 8.64-.9 1.92-.72 3.24-1.92 3.96-3.6.84-1.68 1.26-4.32 1.26-7.92v-83.34c0-3.48-.42-6.06-1.26-7.74-.72-1.8-2.04-3-3.96-3.6-1.8-.72-4.62-1.08-8.46-1.08-.24 0-.36-.36-.36-1.08s.12-1.08.36-1.08l9.36.18c5.28.24 9.54.36 12.78.36 3.36 0 6.9-.18 10.62-.54l4.68-.36c1.92-.12 4.08-.18 6.48-.18 10.68 0 18.84 2.04 24.48 6.12s8.46 9.84 8.46 17.28c0 5.76-1.86 10.98-5.58 15.66-3.72 4.56-9 8.16-15.84 10.8zM48.6 274.56c-3.84 0-6.48.78-7.92 2.34-1.32 1.56-1.98 4.74-1.98 9.54v34.2l7.56.18c7.08 0 12.42-2.28 16.02-6.84 3.6-4.68 5.4-10.68 5.4-18 0-6.84-1.62-12.12-4.86-15.84s-7.98-5.58-14.22-5.58zm4.5 106.02c16.2 0 24.3-8.34 24.3-25.02 0-9.12-2.4-16.44-7.2-21.96-4.68-5.52-11.58-8.28-20.7-8.28-4.32 0-7.92.12-10.8.36v43.74c0 2.76.36 4.92 1.08 6.48s2.1 2.76 4.14 3.6c2.04.72 5.1 1.08 9.18 1.08zm120.061-7.92c.24 0 .48.24.72.72.36.48.42.84.18 1.08-4.44 4.08-8.88 7.08-13.32 9-4.44 1.8-9.24 2.7-14.4 2.7-7.32 0-13.68-1.62-19.08-4.86-5.28-3.24-9.36-7.5-12.24-12.78-2.76-5.28-4.14-10.98-4.14-17.1 0-7.08 1.74-13.56 5.22-19.44s8.22-10.5 14.22-13.86c6.12-3.48 12.9-5.22 20.34-5.22 7.2 0 12.78 1.74 16.74 5.22s5.94 8.64 5.94 15.48c0 3.48-.72 5.22-2.16 5.22l-43.92.18c-.12 1.08-.18 2.7-.18 4.86 0 10.56 2.4 18.96 7.2 25.2 4.92 6.12 11.88 9.18 20.88 9.18 3.36 0 6.18-.36 8.46-1.08 2.28-.84 5.34-2.28 9.18-4.32l.36-.18zm-28.98-56.16c-4.44 0-8.1 1.74-10.98 5.22-2.76 3.36-4.62 8.04-5.58 14.04l28.8-.54c-.24-12.48-4.32-18.72-12.24-18.72zM29.52 508.58c0 4.44 1.08 8.4 3.24 11.88 2.28 3.36 5.04 6.3 8.28 8.82 3.36 2.52 7.86 5.52 13.5 9 6.12 3.84 10.92 7.14 14.4 9.9 3.6 2.76 6.6 6.18 9 10.26 2.52 3.96 3.78 8.64 3.78 14.04 0 6.12-1.62 11.58-4.86 16.38-3.12 4.8-7.62 8.58-13.5 11.34-5.76 2.64-12.36 3.96-19.8 3.96-5.04 0-10.26-.66-15.66-1.98-5.28-1.32-9.3-2.94-12.06-4.86-1.08-.72-1.68-1.86-1.8-3.42l-1.08-27.36v-.18c0-.48.3-.72.9-.72.6-.12.96.06 1.08.54 3.96 9.96 8.46 18.12 13.5 24.48 5.16 6.36 11.7 9.54 19.62 9.54 5.16 0 9.48-1.38 12.96-4.14 3.48-2.88 5.22-7.62 5.22-14.22 0-5.28-1.2-9.9-3.6-13.86-2.28-3.96-5.16-7.26-8.64-9.9-3.36-2.64-7.98-5.88-13.86-9.72-5.76-3.72-10.26-6.84-13.5-9.36-3.24-2.64-6-5.82-8.28-9.54-2.28-3.84-3.42-8.28-3.42-13.32 0-6.24 1.74-11.52 5.22-15.84s7.98-7.5 13.5-9.54c5.64-2.16 11.52-3.24 17.64-3.24 4.08 0 8.16.42 12.24 1.26 4.08.72 7.5 1.68 10.26 2.88 1.8.72 2.7 1.86 2.7 3.42l.54 24.48c0 .36-.36.6-1.08.72-.6.12-.96 0-1.08-.36-2.4-7.32-5.64-13.92-9.72-19.8-3.96-6-9.96-9-18-9-5.4 0-9.72 1.56-12.96 4.68-3.12 3.12-4.68 7.38-4.68 12.78zm149.19 91.26c.48 0 .72.36.72 1.08s-.24 1.08-.72 1.08c-3 0-5.4-.06-7.2-.18l-10.26-.18-10.26.18c-1.8.12-4.2.18-7.2.18-.36 0-.54-.36-.54-1.08s.18-1.08.54-1.08c3.96 0 6.66-.84 8.1-2.52 1.44-1.8 2.16-5.1 2.16-9.9V560.6c0-13.2-5.16-19.8-15.48-19.8-3.24 0-6.54.78-9.9 2.34-3.24 1.44-6.12 3.42-8.64 5.94v38.34c0 4.92.66 8.22 1.98 9.9 1.44 1.68 4.2 2.52 8.28 2.52.48 0 .72.36.72 1.08s-.24 1.08-.72 1.08c-3 0-5.4-.06-7.2-.18l-10.26-.18-10.26.18c-1.8.12-4.199.18-7.199.18-.36 0-.54-.36-.54-1.08s.18-1.08.54-1.08c3.96 0 6.659-.84 8.099-2.52 1.44-1.8 2.16-5.1 2.16-9.9v-91.98c0-4.2-.42-7.2-1.26-9-.84-1.92-2.22-2.88-4.14-2.88-1.8 0-4.26.72-7.38 2.16h-.18c-.36 0-.72-.3-1.08-.9-.24-.72-.18-1.14.18-1.26l25.02-11.88.9-.18c.48 0 .96.24 1.44.72.6.48.9.9.9 1.26v72c8.64-9.96 17.82-14.94 27.54-14.94 6.6 0 11.7 1.98 15.3 5.94 3.72 3.96 5.58 9.36 5.58 16.2v34.74c0 4.92.66 8.22 1.98 9.9 1.44 1.68 4.2 2.52 8.28 2.52zm82.415-67.32c.24 0 .36.36.36 1.08s-.12 1.08-.36 1.08c-3.6 0-6.72 1.44-9.36 4.32-2.52 2.88-4.86 7.26-7.02 13.14l-20.7 54.9c-4.32 11.52-8.46 20.58-12.42 27.18s-7.98 11.28-12.06 14.04c-4.08 2.88-8.58 4.32-13.5 4.32-3.36 0-5.94-.72-7.74-2.16-1.92-1.32-2.88-3.36-2.88-6.12 0-2.4.78-4.26 2.34-5.58 1.44-1.2 3.24-1.8 5.4-1.8 1.44 0 2.64.18 3.6.54 1.08.48 2.16 1.08 3.24 1.8 1.2.72 2.22 1.26 3.06 1.62.96.36 2.1.54 3.42.54 2.76 0 5.28-1.14 7.56-3.42 2.4-2.16 4.86-5.82 7.38-10.98 2.64-5.16 5.76-12.48 9.36-21.96l-28.44-57.6c-2.64-5.16-4.74-8.58-6.3-10.26-1.44-1.68-3.24-2.52-5.4-2.52-.36 0-.54-.36-.54-1.08s.18-1.08.54-1.08c3.12 0 5.52.06 7.2.18l7.02.18 12.24-.18c1.8-.12 4.26-.18 7.38-.18.36 0 .54.36.54 1.08s-.18 1.08-.54 1.08c-3.24 0-5.64.3-7.2.9-1.44.48-2.16 1.44-2.16 2.88 0 1.08.3 2.16.9 3.24l21.96 45.36 12.06-34.92c1.08-3.12 1.62-5.76 1.62-7.92 0-6.36-4.02-9.54-12.06-9.54-.24 0-.36-.36-.36-1.08s.12-1.08.36-1.08c3.24 0 5.7.06 7.38.18l10.8.18 7.02-.18c1.32-.12 3.42-.18 6.3-.18z" fill="#4971ff"/></svg>