<svg xmlns="http://www.w3.org/2000/svg" width="464" height="34" fill="none" xmlns:v="https://vecta.io/nano"><path d="M33.95 32.4c.1 0 .15.1.15.3s-.05.3-.15.3H25.9c-.767 0-2.2-1.333-4.3-4-2.067-2.667-4.583-6.4-7.55-11.2-.733.067-1.3.1-1.7.1-.733 0-1.6-.033-2.6-.1v11.15c0 1.033.083 1.783.25 2.25.2.467.55.783 1.05.95.533.167 1.367.25 2.5.25.067 0 .1.1.1.3s-.033.3-.1.3c-1.1 0-1.95-.017-2.55-.05l-3.7-.05-3.6.05c-.633.033-1.5.05-2.6.05-.1 0-.15-.1-.15-.3s.05-.3.15-.3c1.133 0 1.95-.083 2.45-.25.533-.167.9-.483 1.1-.95.2-.5.3-1.25.3-2.25V5.8c0-1-.1-1.733-.3-2.2-.167-.467-.517-.783-1.05-.95-.533-.2-1.35-.3-2.45-.3-.067 0-.1-.1-.1-.3s.033-.3.1-.3l2.6.05c1.467.067 2.65.1 3.55.1 1.1 0 2.3-.05 3.6-.15l1.55-.1c.633-.033 1.333-.05 2.1-.05 2.9 0 5.133.567 6.7 1.7 1.6 1.133 2.4 2.717 2.4 4.75 0 1.833-.517 3.483-1.55 4.95-1 1.467-2.35 2.633-4.05 3.5 2.733 4.033 5.017 7.183 6.85 9.45s3.45 3.917 4.85 4.95c1.433 1 2.833 1.5 4.2 1.5zM9.75 16.45c.8.133 1.767.2 2.9.2 2.167 0 3.717-.533 4.65-1.6.933-1.1 1.4-2.85 1.4-5.25 0-2.7-.467-4.583-1.4-5.65-.9-1.067-2.217-1.6-3.95-1.6-1.3 0-2.233.25-2.8.75-.533.467-.8 1.333-.8 2.6v10.55zm78.222 8.75c0-.067.067-.1.2-.1a.34.34 0 0 1 .25.1c.1.033.15.067.15.1-.333 2.533-.5 4.85-.5 6.95 0 .267-.05.467-.15.6-.1.1-.3.15-.6.15h-21.7c-.1 0-.15-.1-.15-.3s.05-.3.15-.3c1.133 0 1.95-.083 2.45-.25.533-.167.883-.483 1.05-.95.2-.5.3-1.25.3-2.25V5.8c0-1-.1-1.733-.3-2.2-.167-.467-.517-.783-1.05-.95-.533-.2-1.35-.3-2.45-.3-.1 0-.15-.1-.15-.3s.05-.3.15-.3h20.8c.333 0 .5.15.5.45l.1 6.5c0 .067-.1.117-.3.15-.167.033-.267 0-.3-.1-.8-3.8-3.117-5.7-6.95-5.7h-2c-1.2 0-2.05.217-2.55.65s-.75 1.167-.75 2.2v10.2h4.8c3.667 0 5.5-1.233 5.5-3.7 0-.1.083-.15.25-.15.2 0 .3.05.3.15l-.05 4.35.05 2.35c.067 1.067.1 1.933.1 2.6 0 .067-.1.1-.3.1s-.3-.033-.3-.1c0-2.867-1.867-4.3-5.6-4.3h-4.75v11.35c0 1.1.2 1.867.6 2.3.433.433 1.183.65 2.25.65h2.45c4.467 0 7.3-2.167 8.5-6.5zm68.443 7.2c.167 0 .25.1.25.3s-.083.3-.25.3c-.633 0-1.65-.033-3.05-.1s-2.416-.1-3.05-.1a51.14 51.14 0 0 0-2.95.1c-1.133.067-2.016.1-2.65.1-.133 0-.2-.1-.2-.3s.067-.3.2-.3c.967 0 1.667-.1 2.1-.3.467-.233.7-.6.7-1.1s-.283-1.35-.85-2.55l-3.8-7.7h-12.1l-2.4 5.4c-.433 1-.65 1.9-.65 2.7 0 1.167.417 2.05 1.25 2.65s2 .9 3.5.9c.167 0 .25.1.25.3s-.083.3-.25.3c-.6 0-1.466-.033-2.6-.1a63.82 63.82 0 0 0-3.3-.1c-.9 0-1.95.033-3.15.1-1.066.067-1.95.1-2.65.1-.166 0-.25-.1-.25-.3s.084-.3.25-.3c.934 0 1.717-.183 2.35-.55s1.25-1.017 1.85-1.95c.6-.967 1.317-2.383 2.15-4.25l10.75-24.2c.067-.1.217-.15.45-.15s.367.05.4.15l12.25 24.7c1.167 2.4 2.134 4.05 2.9 4.95.8.867 1.65 1.3 2.55 1.3zm-25.1-12.9h10.95l-5.75-11.65-5.2 11.65zm75.611-18.3c3.7 0 6.684.517 8.95 1.55.267.133.434.267.5.4.067.1.134.35.2.75l.6 6.6c0 .1-.083.167-.25.2s-.283-.017-.35-.15c-.866-2.733-2.166-4.817-3.9-6.25-1.7-1.433-3.816-2.15-6.35-2.15-2.433 0-4.616.617-6.55 1.85-1.9 1.2-3.383 2.95-4.45 5.25-1.066 2.267-1.6 4.917-1.6 7.95 0 3 .567 5.683 1.7 8.05 1.134 2.333 2.684 4.15 4.65 5.45s4.184 1.95 6.65 1.95c2.434 0 4.45-.633 6.05-1.9 1.634-1.3 3.067-3.35 4.3-6.15.034-.1.134-.133.3-.1s.25.083.25.15l-.65 6c-.033.4-.1.65-.2.75-.066.1-.233.217-.5.35-3 1.233-6.183 1.85-9.55 1.85-3.566 0-6.75-.667-9.55-2-2.8-1.367-4.983-3.267-6.55-5.7-1.566-2.467-2.35-5.283-2.35-8.45 0-3.133.817-5.933 2.45-8.4s3.867-4.383 6.7-5.75c2.834-1.4 6-2.1 9.5-2.1zm53.581 1.6c-2.033 0-3.717.633-5.05 1.9-1.3 1.233-2.3 3.117-3 5.65 0 .067-.1.1-.3.1-.167 0-.25-.05-.25-.15l.45-5c.167-2.067.25-3.617.25-4.65 0-.167.083-.25.25-.25.2 0 .3.083.3.25 0 .733.933 1.1 2.8 1.1 2.867.1 6.217.15 10.05.15a206.8 206.8 0 0 0 6.25-.1l3.4-.05c1.267 0 2.183-.083 2.75-.25.6-.167.983-.5 1.15-1 .033-.133.133-.2.3-.2s.25.067.25.2c-.1 1.033-.2 2.6-.3 4.7s-.15 3.8-.15 5.1c0 .1-.1.15-.3.15-.167 0-.267-.05-.3-.15-.333-2.567-1.117-4.45-2.35-5.65-1.233-1.233-2.9-1.85-5-1.85-.933 0-1.633.083-2.1.25-.433.167-.733.467-.9.9-.133.4-.2 1.05-.2 1.95v23.05c0 1.033.1 1.783.3 2.25s.6.783 1.2.95 1.55.25 2.85.25c.1 0 .15.1.15.3s-.05.3-.15.3c-1.167 0-2.083-.017-2.75-.05l-4.1-.05-3.9.05c-.7.033-1.667.05-2.9.05-.067 0-.1-.1-.1-.3s.033-.3.1-.3c1.3 0 2.25-.083 2.85-.25.633-.167 1.05-.483 1.25-.95.233-.5.35-1.25.35-2.25V5.8c0-.867-.083-1.5-.25-1.9s-.467-.683-.9-.85-1.1-.25-2-.25zm62.332 26.15c0 1.033.084 1.783.25 2.25s.5.783 1 .95c.534.167 1.367.25 2.5.25.1 0 .15.1.15.3s-.05.3-.15.3c-1.066 0-1.916-.017-2.55-.05l-3.7-.05-3.6.05c-.633.033-1.5.05-2.6.05-.1 0-.15-.1-.15-.3s.05-.3.15-.3c1.134 0 1.95-.083 2.45-.25.534-.167.9-.483 1.1-.95.2-.5.3-1.25.3-2.25V5.8c0-1-.1-1.733-.3-2.2s-.566-.783-1.1-.95c-.5-.2-1.316-.3-2.45-.3-.1 0-.15-.1-.15-.3s.05-.3.15-.3l2.6.05c1.467.067 2.667.1 3.6.1 1.034 0 2.284-.033 3.75-.1l2.5-.05c.1 0 .15.1.15.3s-.05.3-.15.3c-1.1 0-1.916.1-2.45.3a1.81 1.81 0 0 0-1.05 1.05c-.166.467-.25 1.2-.25 2.2v23.05zm54.344 4.65c-3.1 0-5.867-.717-8.3-2.15-2.4-1.467-4.267-3.433-5.6-5.9-1.3-2.5-1.95-5.217-1.95-8.15 0-3.433.866-6.367 2.6-8.8 1.733-2.467 3.95-4.317 6.65-5.55 2.733-1.233 5.516-1.85 8.35-1.85 3.166 0 5.95.75 8.35 2.25 2.4 1.467 4.233 3.417 5.5 5.85 1.3 2.433 1.95 5.017 1.95 7.75 0 3.033-.8 5.817-2.4 8.35s-3.75 4.533-6.45 6c-2.667 1.467-5.567 2.2-8.7 2.2zm1.7-1.2c2 0 3.783-.533 5.35-1.6 1.6-1.1 2.85-2.7 3.75-4.8.933-2.1 1.4-4.6 1.4-7.5 0-3.067-.517-5.817-1.55-8.25-1-2.433-2.45-4.333-4.35-5.7-1.867-1.367-4.067-2.05-6.6-2.05-3.234 0-5.75 1.167-7.55 3.5-1.767 2.3-2.65 5.5-2.65 9.6 0 3.167.516 6.033 1.55 8.6 1.066 2.567 2.516 4.583 4.35 6.05 1.866 1.433 3.966 2.15 6.3 2.15zm84.131-30.65c.067 0 .1.1.1.3s-.033.3-.1.3c-1.333 0-2.367.483-3.1 1.45-.733.933-1.1 2.283-1.1 4.05V33.7c0 .1-.083.167-.25.2s-.283.017-.35-.05L434.764 6.6v20.35c0 1.767.35 3.117 1.05 4.05s1.717 1.4 3.05 1.4c.067 0 .1.1.1.3s-.033.3-.1.3c-.9 0-1.583-.017-2.05-.05l-2.65-.05-2.95.05a39.68 39.68 0 0 1-2.3.05c-.1 0-.15-.1-.15-.3s.05-.3.15-.3c1.433 0 2.533-.467 3.3-1.4.8-.933 1.2-2.283 1.2-4.05V5.05c-.933-1-1.783-1.7-2.55-2.1-.733-.4-1.5-.6-2.3-.6-.067 0-.1-.1-.1-.3s.033-.3.1-.3l2 .05c.433.033 1.05.05 1.85.05l3.2-.05c.4-.033.883-.05 1.45-.05.267 0 .467.067.6.2s.333.4.6.8l1.2 1.6 18 21.2V7.85c0-1.767-.35-3.117-1.05-4.05-.7-.967-1.7-1.45-3-1.45-.067 0-.1-.1-.1-.3s.033-.3.1-.3l2.05.05c1.067.067 1.95.1 2.65.1.667 0 1.567-.033 2.7-.1l2.2-.05z" fill="#fff"/></svg>