<svg xmlns="http://www.w3.org/2000/svg" width="390" height="654" fill="none" xmlns:v="https://vecta.io/nano"><path d="M167.56 53.5c.36 0 .54.36.54 1.08s-.18 1.08-.54 1.08c-3.36 0-5.88.36-7.56 1.08-1.56.72-2.64 1.98-3.24 3.78-.48 1.68-.72 4.32-.72 7.92v99.72c0 12.96-3.18 23.1-9.54 30.42-6.24 7.44-15.06 11.16-26.46 11.16-4.32 0-7.8-.9-10.44-2.7-2.76-1.68-4.14-4.08-4.14-7.2 0-2.16.72-4.08 2.16-5.76 1.44-1.56 3.48-2.34 6.12-2.34s4.68.72 6.12 2.16c1.44 1.56 2.76 3.66 3.96 6.3.84 1.92 1.68 3.36 2.52 4.32s1.86 1.44 3.06 1.44c3.12 0 5.4-2.22 6.84-6.66 1.56-4.32 2.34-11.46 2.34-21.42V68.08c0-3.6-.42-6.24-1.26-7.92-.72-1.68-2.22-2.82-4.5-3.42-2.16-.72-5.58-1.08-10.26-1.08-.24 0-.36-.36-.36-1.08s.12-1.08.36-1.08l10.8.18c5.76.24 10.32.36 13.68.36 3.24 0 7.38-.12 12.42-.36l8.1-.18zm96.481 101.16c.36 0 .66.3.9.9s.18 1.02-.18 1.26l-23.58 11.34-.72.18c-1.2 0-2.28-1.32-3.24-3.96-.96-2.76-1.5-6.42-1.62-10.98-8.4 9.72-17.28 14.58-26.64 14.58-6.48 0-11.52-1.98-15.12-5.94-3.6-4.08-5.4-9.6-5.4-16.56v-26.82c0-8.16-1.86-12.24-5.58-12.24-1.2 0-2.88.48-5.04 1.44h-.18c-.48 0-.84-.3-1.08-.9s-.18-1.02.18-1.26l22.86-10.62.72-.18c.48 0 1.02.24 1.62.72s.9.9.9 1.26v40.86c0 6.72 1.2 11.76 3.6 15.12 2.52 3.24 6.3 4.86 11.34 4.86 3 0 6.06-.72 9.18-2.16 3.24-1.44 6.12-3.42 8.64-5.94v-30.96c0-4.2-.48-7.26-1.44-9.18-.84-2.04-2.22-3.06-4.14-3.06-1.08 0-2.76.48-5.04 1.44h-.18c-.48 0-.84-.3-1.08-.9-.24-.72-.12-1.14.36-1.26l22.68-10.62c.24-.12.54-.18.9-.18.48 0 1.02.24 1.62.72s.9.9.9 1.26v48.78c0 4.2.42 7.14 1.26 8.82s2.22 2.52 4.14 2.52c1.44 0 4.14-.72 8.1-2.16l.36-.18zm21.236-48.78c0 3.72 1.26 6.84 3.78 9.36 2.64 2.52 6.42 5.16 11.34 7.92 4.32 2.4 7.62 4.38 9.9 5.94 2.4 1.56 4.44 3.66 6.12 6.3 1.8 2.64 2.7 5.82 2.7 9.54 0 4.08-1.02 7.86-3.06 11.34s-5.1 6.3-9.18 8.46c-3.96 2.16-8.7 3.24-14.22 3.24-6.6 0-12.66-1.68-18.18-5.04-.72-.72-1.08-1.44-1.08-2.16l-.36-16.56c0-.36.3-.54.9-.54.72-.12 1.14-.06 1.26.18 2.04 6 5.1 10.92 9.18 14.76 4.2 3.84 8.64 5.76 13.32 5.76 3 0 5.34-.78 7.02-2.34s2.52-3.9 2.52-7.02c0-4.56-1.32-8.16-3.96-10.8-2.64-2.76-6.48-5.46-11.52-8.1-4.08-2.16-7.26-3.96-9.54-5.4-2.28-1.56-4.26-3.6-5.94-6.12-1.56-2.64-2.34-5.88-2.34-9.72 0-6.84 2.46-11.94 7.38-15.3 5.04-3.36 11.1-5.04 18.18-5.04 4.68 0 9.48.9 14.4 2.7 1.08.48 1.62 1.14 1.62 1.98 0 2.76-.06 4.92-.18 6.48l-.18 8.64c0 .36-.36.54-1.08.54s-1.08-.18-1.08-.54c0-2.4-.96-4.86-2.88-7.38-1.92-2.64-4.38-4.8-7.38-6.48s-6.06-2.52-9.18-2.52c-5.52 0-8.28 2.64-8.28 7.92zm98.085 48.6c.36 0 .66.24.9.72.36.48.36.84 0 1.08-4.44 4.2-8.64 7.26-12.6 9.18-3.96 1.8-8.16 2.7-12.6 2.7-5.16 0-9.54-1.2-13.14-3.6-3.48-2.52-5.22-6.66-5.22-12.42v-40.68c0-3.96-.66-6.6-1.98-7.92-1.2-1.32-3.6-1.98-7.2-1.98-.12 0-.3-.12-.54-.36-.12-.36-.18-.72-.18-1.08s.06-.66.18-.9c.24-.36.42-.54.54-.54 11.28-.48 18.36-5.34 21.24-14.58.24-.48.72-.72 1.44-.72.84 0 1.26.24 1.26.72v14.22c5.64-.12 13.62-.72 23.94-1.8.24 0 .48.48.72 1.44.36.84.54 1.8.54 2.88s-.24 2.16-.72 3.24c-.36 1.08-.78 1.56-1.26 1.44-6.72-1.56-14.46-2.52-23.22-2.88v43.56c0 4.68 1.14 8.16 3.42 10.44 2.4 2.16 5.7 3.24 9.9 3.24 5.04 0 9.78-1.74 14.22-5.22l.36-.18zM144.52 290.58c0 4.44 1.08 8.4 3.24 11.88 2.28 3.36 5.04 6.3 8.28 8.82 3.36 2.52 7.86 5.52 13.5 9 6.12 3.84 10.92 7.14 14.4 9.9 3.6 2.76 6.6 6.18 9 10.26 2.52 3.96 3.78 8.64 3.78 14.04 0 6.12-1.62 11.58-4.86 16.38-3.12 4.8-7.62 8.58-13.5 11.34-5.76 2.64-12.36 3.96-19.8 3.96-5.04 0-10.26-.66-15.66-1.98-5.28-1.32-9.3-2.94-12.06-4.86-1.08-.72-1.68-1.86-1.8-3.42l-1.08-27.36v-.18c0-.48.3-.72.9-.72.6-.12.96.06 1.08.54 3.96 9.96 8.46 18.12 13.5 24.48 5.16 6.36 11.7 9.54 19.62 9.54 5.16 0 9.48-1.38 12.96-4.14 3.48-2.88 5.22-7.62 5.22-14.22 0-5.28-1.2-9.9-3.6-13.86-2.28-3.96-5.16-7.26-8.64-9.9-3.36-2.64-7.98-5.88-13.86-9.72-5.76-3.72-10.26-6.84-13.5-9.36-3.24-2.64-6-5.82-8.28-9.54-2.28-3.84-3.42-8.28-3.42-13.32 0-6.24 1.74-11.52 5.22-15.84s7.98-7.5 13.5-9.54c5.64-2.16 11.52-3.24 17.64-3.24 4.08 0 8.16.42 12.24 1.26 4.08.72 7.5 1.68 10.26 2.88 1.8.72 2.7 1.86 2.7 3.42l.54 24.48c0 .36-.36.6-1.08.72-.6.12-.96 0-1.08-.36-2.4-7.32-5.64-13.92-9.72-19.8-3.96-6-9.96-9-18-9-5.4 0-9.72 1.56-12.96 4.68-3.12 3.12-4.68 7.38-4.68 12.78zm136.95 83.7c.48 0 .78.3.9.9.12.48-.06.84-.54 1.08l-18.54 8.82c-.48.24-1.02.36-1.62.36-1.8 0-3.54-1.02-5.22-3.06-1.56-2.16-2.58-4.98-3.06-8.46l-8.28 5.76c-2.88 2.04-5.52 3.48-7.92 4.32-2.28.84-4.86 1.26-7.74 1.26-4.92 0-8.7-1.14-11.34-3.42-2.52-2.4-3.78-5.52-3.78-9.36 0-3.24.84-5.88 2.52-7.92 1.8-2.04 4.02-3.66 6.66-4.86 2.76-1.32 6.78-2.94 12.06-4.86l17.46-6.48v-10.8c0-7.44-.78-12.84-2.34-16.2-1.44-3.48-3.78-5.22-7.02-5.22-3.96 0-6.84 1.5-8.64 4.5-1.68 2.88-2.7 6.12-3.06 9.72-.72 6.12-3.78 9.18-9.18 9.18-2.64 0-4.62-.6-5.94-1.8-1.2-1.2-1.8-2.7-1.8-4.5 0-3.36 1.98-6.6 5.94-9.72 4.08-3.24 8.94-5.82 14.58-7.74 5.76-2.04 10.8-3.06 15.12-3.06 5.16 0 9.24 1.62 12.24 4.86 3.12 3.24 4.68 8.1 4.68 14.58v32.4c0 3.72.6 6.54 1.8 8.46s2.94 2.88 5.22 2.88c1.8 0 3.96-.54 6.48-1.62h.36zm-28.44-3.24v-1.8-17.82l-10.8 4.5c-3.12 1.2-5.7 2.64-7.74 4.32-1.92 1.56-2.88 3.84-2.88 6.84 0 2.88.9 5.22 2.7 7.02 1.92 1.68 4.2 2.52 6.84 2.52 2.16 0 4.44-.72 6.84-2.16l5.04-3.42zm106.396-56.52c.24 0 .36.36.36 1.08s-.12 1.08-.36 1.08c-3.6 0-6.72 1.44-9.36 4.32-2.52 2.88-4.86 7.26-7.02 13.14l-20.7 54.9c-4.32 11.52-8.46 20.58-12.42 27.18s-7.98 11.28-12.06 14.04c-4.08 2.88-8.58 4.32-13.5 4.32-3.36 0-5.94-.72-7.74-2.16-1.92-1.32-2.88-3.36-2.88-6.12 0-2.4.78-4.26 2.34-5.58 1.44-1.2 3.24-1.8 5.4-1.8 1.44 0 2.64.18 3.6.54 1.08.48 2.16 1.08 3.24 1.8 1.2.72 2.22 1.26 3.06 1.62.96.36 2.1.54 3.42.54 2.76 0 5.28-1.14 7.56-3.42 2.4-2.16 4.86-5.82 7.38-10.98 2.64-5.16 5.76-12.48 9.36-21.96l-28.44-57.6c-2.64-5.16-4.74-8.58-6.3-10.26-1.44-1.68-3.24-2.52-5.4-2.52-.36 0-.54-.36-.54-1.08s.18-1.08.54-1.08c3.12 0 5.52.06 7.2.18l7.02.18 12.24-.18c1.8-.12 4.26-.18 7.38-.18.36 0 .54.36.54 1.08s-.18 1.08-.54 1.08c-3.24 0-5.64.3-7.2.9-1.44.48-2.16 1.44-2.16 2.88 0 1.08.3 2.16.9 3.24l21.96 45.36 12.06-34.92c1.08-3.12 1.62-5.76 1.62-7.92 0-6.36-4.02-9.54-12.06-9.54-.24 0-.36-.36-.36-1.08s.12-1.08.36-1.08c3.24 0 5.7.06 7.38.18l10.8.18 7.02-.18c1.32-.12 3.42-.18 6.3-.18zM246.22 599.84c.36 0 .54.36.54 1.08s-.18 1.08-.54 1.08c-4.08 0-7.38-.06-9.9-.18l-13.14-.18-15.3.18c-2.16.12-5.04.18-8.64.18-.36 0-.54-.36-.54-1.08s.18-1.08.54-1.08c4.56 0 7.86-.3 9.9-.9s3.42-1.74 4.14-3.42 1.08-4.38 1.08-8.1v-41.58h-61.74v41.58c0 3.6.36 6.3 1.08 8.1.72 1.68 2.1 2.82 4.14 3.42 2.16.6 5.52.9 10.08.9.24 0 .36.36.36 1.08s-.12 1.08-.36 1.08c-4.08 0-7.26-.06-9.54-.18l-14.94-.18-13.14.18c-2.28.12-5.46.18-9.54.18-.24 0-.36-.36-.36-1.08s.12-1.08.36-1.08c4.32 0 7.5-.3 9.54-.9s3.42-1.74 4.14-3.42c.72-1.8 1.08-4.5 1.08-8.1v-83.34c0-3.6-.36-6.24-1.08-7.92s-2.1-2.82-4.14-3.42c-2.04-.72-5.16-1.08-9.36-1.08-.24 0-.36-.36-.36-1.08s.12-1.08.36-1.08l9.54.18 12.96.36c4.2 0 9.18-.12 14.94-.36l9.54-.18c.24 0 .36.36.36 1.08s-.12 1.08-.36 1.08c-4.44 0-7.74.36-9.9 1.08-2.04.72-3.48 1.98-4.32 3.78-.72 1.68-1.08 4.32-1.08 7.92v36.72h61.74v-36.72c0-3.6-.36-6.24-1.08-7.92-.72-1.8-2.16-3.06-4.32-3.78-2.04-.72-5.28-1.08-9.72-1.08-.36 0-.54-.36-.54-1.08s.18-1.08.54-1.08l8.64.18c5.76.24 10.86.36 15.3.36 3.24 0 7.62-.12 13.14-.36l9.9-.18c.36 0 .54.36.54 1.08s-.18 1.08-.54 1.08c-4.32 0-7.5.36-9.54 1.08-1.92.6-3.24 1.74-3.96 3.42s-1.08 4.32-1.08 7.92v83.34c0 3.6.36 6.3 1.08 8.1.72 1.68 2.04 2.82 3.96 3.42 2.04.6 5.22.9 9.54.9zm30.369-88.02c-3.12 0-5.58-.84-7.38-2.52-1.68-1.68-2.52-4.08-2.52-7.2 0-3 .84-5.28 2.52-6.84 1.8-1.68 4.26-2.52 7.38-2.52 3 0 5.34.84 7.02 2.52 1.68 1.56 2.52 3.84 2.52 6.84 0 3.12-.84 5.52-2.52 7.2-1.56 1.68-3.9 2.52-7.02 2.52zM260.029 602c-.36 0-.54-.36-.54-1.08s.18-1.08.54-1.08c4.08 0 6.78-.84 8.1-2.52s1.98-4.98 1.98-9.9v-32.76c0-4.08-.42-7.02-1.26-8.82-.84-1.92-2.28-2.88-4.32-2.88-1.8 0-4.14.72-7.02 2.16h-.18c-.48 0-.84-.3-1.08-.9s-.18-1.02.18-1.26l25.92-12.06.54-.18c.48 0 .96.3 1.44.9.6.48.9.9.9 1.26v3.78c-.24 5.04-.36 10.98-.36 17.82v32.94c0 4.92.66 8.22 1.98 9.9 1.44 1.68 4.2 2.52 8.28 2.52.36 0 .54.36.54 1.08s-.18 1.08-.54 1.08c-3 0-5.4-.06-7.2-.18l-10.44-.18-10.44.18c-1.68.12-4.02.18-7.02.18zm94.14-111.06c-.24-.6.84-1.08 3.24-1.44 2.52-.48 5.16-.72 7.92-.72 2.64 0 5.22.24 7.74.72 2.52.36 3.66.84 3.42 1.44-2.4 9.72-4.26 20.34-5.58 31.86-1.2 11.4-2.34 25.26-3.42 41.58l-.18 3.6c0 .48-.78.72-2.34.72-1.68 0-2.52-.24-2.52-.72-.84-16.8-1.86-31.26-3.06-43.38-1.08-12.24-2.82-23.46-5.22-33.66zm10.08 113.04c-3 0-5.4-.9-7.2-2.7s-2.7-4.2-2.7-7.2c0-2.88.9-5.16 2.7-6.84s4.2-2.52 7.2-2.52c3.12 0 5.52.84 7.2 2.52s2.52 3.96 2.52 6.84c0 3.12-.84 5.58-2.52 7.38-1.68 1.68-4.08 2.52-7.2 2.52z" fill="#4971ff"/></svg>