<svg xmlns="http://www.w3.org/2000/svg" width="120" height="33" fill="none" xmlns:v="https://vecta.io/nano"><path d="M5.7 5.8c0 1.2.3 2.267.9 3.2.633.933 1.4 1.75 2.3 2.45S11.017 13 12.55 14l4 2.8c1 .8 1.85 1.783 2.55 2.95.7 1.133 1.05 2.45 1.05 3.95 0 1.733-.467 3.283-1.4 4.65-.933 1.333-2.233 2.383-3.9 3.15-1.633.733-3.467 1.1-5.5 1.1-1.5 0-3.067-.2-4.7-.6-1.633-.433-2.733-.9-3.3-1.4l-.4-.35c-.067-.133-.1-.333-.1-.6L.7 21.7v-.05c0-.133.083-.2.25-.2.167-.033.267.017.3.15l2.6 4.95c.767 1.267 1.717 2.383 2.85 3.35 1.167.967 2.483 1.45 3.95 1.45 1.333 0 2.433-.35 3.3-1.05.867-.733 1.3-1.967 1.3-3.7 0-1.467-.333-2.75-1-3.85-.633-1.1-1.417-2.033-2.35-2.8s-2.217-1.683-3.85-2.75L4.3 14.55c-.867-.733-1.617-1.617-2.25-2.65S1.1 9.65 1.1 8.25c0-1.767.5-3.25 1.5-4.45 1.033-1.233 2.35-2.133 3.95-2.7C8.15.5 9.833.2 11.6.2c1.167 0 2.35.117 3.55.35 1.2.2 2.167.45 2.9.75.3.133.5.283.6.45.1.133.15.317.15.55v7.35c0 .1-.083.183-.25.25-.167.033-.267 0-.3-.1l-.4-.95c-.833-2.1-1.817-3.883-2.95-5.35-1.1-1.467-2.65-2.2-4.65-2.2-1.333 0-2.433.383-3.3 1.15-.833.767-1.25 1.883-1.25 3.35zm41.832 18.25c0-.067.067-.1.2-.1a.34.34 0 0 1 .25.1c.1.033.15.067.15.1-.333 2.6-.5 4.967-.5 7.1 0 .267-.05.467-.15.6-.1.1-.3.15-.6.15h-22.1c-.1 0-.15-.1-.15-.3s.05-.3.15-.3c1.067 0 1.833-.083 2.3-.25a1.5 1.5 0 0 0 1-.95c.167-.5.25-1.25.25-2.25V4.8c0-1-.083-1.733-.25-2.2a1.5 1.5 0 0 0-1-.95c-.5-.2-1.267-.3-2.3-.3-.1 0-.15-.1-.15-.3s.05-.3.15-.3h21.2c.333 0 .5.15.5.45l.1 6.65c0 .067-.1.117-.3.15-.167.033-.267 0-.3-.1-.533-1.933-1.433-3.367-2.7-4.3s-2.933-1.4-5-1.4h-1.5c-1 0-1.733.217-2.2.65s-.7 1.1-.7 2v10.2h4.15c1.933 0 3.417-.333 4.45-1s1.55-1.6 1.55-2.8c0-.1.083-.15.25-.15.2 0 .3.05.3.15l-.05 4.5.05 2.4.1 2.7c0 .067-.1.1-.3.1s-.3-.033-.3-.1c0-1.367-.533-2.433-1.6-3.2-1.033-.8-2.533-1.2-4.5-1.2h-4.1v11.3c0 .967.183 1.683.55 2.15s.95.7 1.75.7h1.65c2.6 0 4.683-.533 6.25-1.6s2.717-2.717 3.45-4.95zM86.47.75c.067 0 .1.1.1.3s-.033.3-.1.3c-1.333 0-2.383.533-3.15 1.6-.767 1.033-1.15 2.433-1.15 4.2v25.6c0 .1-.083.167-.25.2-.133.033-.233.017-.3-.05L58.17 6.2v19.45c0 1.767.367 3.167 1.1 4.2s1.75 1.55 3.05 1.55c.067 0 .1.1.1.3s-.033.3-.1.3c-.933 0-1.65-.017-2.15-.05l-2.7-.05-3.1.05-2.45.05c-.1 0-.15-.1-.15-.3s.05-.3.15-.3c1.467 0 2.617-.517 3.45-1.55.867-1.033 1.3-2.433 1.3-4.2V4.5c-1.1-1.2-2.05-2.017-2.85-2.45-.767-.467-1.567-.7-2.4-.7-.067 0-.1-.1-.1-.3s.033-.3.1-.3l2.1.05c.433.033 1.067.05 1.9.05l3.8-.05 1.7-.05c.267 0 .467.067.6.2s.367.417.7.85l1.2 1.55 17.3 19.95V7.15c0-1.8-.367-3.217-1.1-4.25s-1.75-1.55-3.05-1.55c-.067 0-.1-.1-.1-.3s.033-.3.1-.3l2.15.05 2.7.1 2.8-.1 2.25-.05zm16.918 31.45a56.95 56.95 0 0 1-3.8-.15l-2-.1-2.6-.05-3.7.05-2.7.05c-.067 0-.1-.1-.1-.3s.033-.3.1-.3c1.067 0 1.85-.083 2.35-.25a1.5 1.5 0 0 0 1-.95c.2-.5.3-1.25.3-2.25V4.8c0-1-.1-1.733-.3-2.2a1.5 1.5 0 0 0-1-.95c-.467-.2-1.217-.3-2.25-.3-.1 0-.15-.1-.15-.3s.05-.3.15-.3l2.65.05 3.65.1 4.2-.15 3.5-.1c3.367 0 6.35.667 8.95 2 2.633 1.333 4.667 3.15 6.1 5.45s2.15 4.883 2.15 7.75c0 3.233-.75 6.1-2.25 8.6-1.467 2.467-3.467 4.383-6 5.75-2.5 1.333-5.25 2-8.25 2zm-.5-1.15c2.133 0 4.017-.533 5.65-1.6 1.633-1.1 2.9-2.717 3.8-4.85.933-2.133 1.4-4.683 1.4-7.65 0-2.833-.433-5.4-1.3-7.7-.867-2.333-2.1-4.167-3.7-5.5a8.41 8.41 0 0 0-5.55-2c-2.067 0-3.483.2-4.25.6s-1.15 1.25-1.15 2.55v22.5c0 1.333.35 2.283 1.05 2.85.7.533 2.05.8 4.05.8z" fill="#fff"/></svg>