<svg xmlns="http://www.w3.org/2000/svg" width="354" height="71" fill="none" xmlns:v="https://vecta.io/nano"><path d="M20.299 51.28c-1.447 0-3.127-.07-5.04-.21l-2.66-.14-3.64-.07-4.97.07-3.71.07c-.093 0-.14-.14-.14-.42s.047-.42.14-.42c1.587 0 2.73-.117 3.43-.35.747-.233 1.26-.677 1.54-1.33.28-.7.42-1.75.42-3.15V12.92c0-1.4-.14-2.427-.42-3.08-.233-.653-.723-1.097-1.47-1.33-.747-.28-1.89-.42-3.43-.42-.093 0-.14-.14-.14-.42s.047-.42.14-.42l3.71.07 4.9.14 5.67-.21 4.69-.14c4.76 0 8.983.933 12.67 2.8s6.533 4.41 8.54 7.63c2.053 3.22 3.08 6.837 3.08 10.85 0 4.527-1.05 8.54-3.15 12.04-2.1 3.453-4.923 6.137-8.47 8.05-3.547 1.867-7.443 2.8-11.69 2.8zm-.7-1.4c3.22 0 6.067-.77 8.54-2.31 2.52-1.54 4.48-3.803 5.88-6.79 1.4-3.033 2.1-6.65 2.1-10.85 0-4.013-.677-7.63-2.03-10.85-1.307-3.267-3.173-5.833-5.6-7.7-2.427-1.913-5.25-2.87-8.47-2.87-1.96 0-3.477.117-4.55.35s-1.867.677-2.38 1.33c-.467.607-.7 1.563-.7 2.87v31.5c0 1.913.49 3.29 1.47 4.13.98.793 2.893 1.19 5.74 1.19zm43.63 2.03c-2.8 0-5.273-.653-7.42-1.96-2.147-1.353-3.803-3.15-4.97-5.39-1.167-2.287-1.75-4.76-1.75-7.42 0-3.033.747-5.6 2.24-7.7 1.54-2.147 3.477-3.733 5.81-4.76 2.38-1.073 4.807-1.61 7.28-1.61 2.847 0 5.32.677 7.42 2.03 2.147 1.353 3.78 3.15 4.9 5.39 1.12 2.193 1.68 4.55 1.68 7.07 0 2.8-.7 5.297-2.1 7.49-1.353 2.193-3.197 3.897-5.53 5.11-2.333 1.167-4.853 1.75-7.56 1.75zm2.1-1.4c2.053 0 3.617-.91 4.69-2.73 1.12-1.82 1.68-4.48 1.68-7.98 0-3.127-.443-5.857-1.33-8.19-.84-2.333-2.007-4.107-3.5-5.32-1.447-1.213-3.033-1.82-4.76-1.82-2.1 0-3.687.863-4.76 2.59s-1.61 4.27-1.61 7.63c0 3.033.397 5.763 1.19 8.19.84 2.38 1.983 4.247 3.43 5.6 1.493 1.353 3.15 2.03 4.97 2.03zm50.773-.35c.14 0 .21.14.21.42s-.07.42-.21.42c-1.166 0-2.076-.023-2.73-.07l-4.06-.07-3.99.07c-.7.047-1.633.07-2.8.07-.14 0-.21-.14-.21-.42s.07-.42.21-.42c1.587 0 2.637-.327 3.15-.98s.77-1.937.77-3.85v-10.5c0-2.613-.49-4.527-1.47-5.74-.933-1.26-2.426-1.89-4.48-1.89-1.213 0-2.45.28-3.71.84a12.79 12.79 0 0 0-3.43 2.24v15.05c0 1.913.257 3.197.77 3.85s1.563.98 3.15.98c.14 0 .21.14.21.42s-.07.42-.21.42a40.73 40.73 0 0 1-2.73-.07l-4.06-.07-4.06.07c-.653.047-1.563.07-2.73.07-.14 0-.21-.14-.21-.42s.07-.42.21-.42c1.587 0 2.637-.327 3.15-.98s.77-1.937.77-3.85V31.96c0-1.493-.187-2.59-.56-3.29-.327-.7-.887-1.05-1.68-1.05-.7 0-1.867.35-3.5 1.05h-.07c-.187 0-.327-.117-.42-.35s-.07-.373.07-.42l9.17-4.48c.28-.093.443-.14.49-.14.467 0 .933.537 1.4 1.61.513 1.027.793 2.38.84 4.06 3.267-3.873 6.814-5.81 10.64-5.81 2.567 0 4.574.793 6.02 2.38 1.447 1.54 2.17 3.64 2.17 6.3v13.51c0 1.913.257 3.197.77 3.85s1.564.98 3.15.98zm1.62-41.65c-.047-.513.63-1.027 2.03-1.54s2.637-.77 3.71-.77c.747 0 1.097.163 1.05.49l-4.13 18.69c-.093.093-.303.163-.63.21-.28.047-.42 0-.42-.14l-1.61-16.94zm30.412 38.01c.14 0 .257.093.35.28.14.187.14.327 0 .42-1.726 1.633-3.36 2.823-4.9 3.57-1.54.7-3.173 1.05-4.9 1.05-2.006 0-3.71-.467-5.11-1.4-1.353-.98-2.03-2.59-2.03-4.83V29.79c0-1.54-.256-2.567-.77-3.08-.466-.513-1.4-.77-2.8-.77-.046 0-.116-.047-.21-.14a1.34 1.34 0 0 1-.07-.42c0-.14.024-.257.07-.35.094-.14.164-.21.21-.21 4.387-.187 7.14-2.077 8.26-5.67.094-.187.28-.28.56-.28.327 0 .49.093.49.28v5.53c2.194-.047 5.297-.28 9.31-.7.094 0 .187.187.28.56a2.82 2.82 0 0 1 .21 1.12c0 .42-.093.84-.28 1.26-.14.42-.303.607-.49.56-2.613-.607-5.623-.98-9.03-1.12V43.3c0 1.82.444 3.173 1.33 4.06.934.84 2.217 1.26 3.85 1.26 1.96 0 3.804-.677 5.53-2.03l.14-.07zm42.161-20.09c3.826.42 6.883 1.703 9.17 3.85s3.43 4.807 3.43 7.98a11.64 11.64 0 0 1-2.03 6.65c-1.307 1.96-3.15 3.523-5.53 4.69-2.334 1.12-4.947 1.68-7.84 1.68-1.354 0-2.917-.07-4.69-.21a89.52 89.52 0 0 0-2.31-.14c-.934-.047-1.984-.07-3.15-.07l-5.04.07c-.887.047-2.1.07-3.64.07-.14 0-.21-.14-.21-.42s.07-.42.21-.42c1.493 0 2.613-.117 3.36-.35.746-.28 1.26-.747 1.54-1.4.326-.653.49-1.68.49-3.08V12.92c0-1.353-.164-2.357-.49-3.01-.28-.7-.794-1.167-1.54-1.4-.7-.28-1.797-.42-3.29-.42-.094 0-.14-.14-.14-.42s.046-.42.14-.42l3.64.07c2.053.093 3.71.14 4.97.14 1.306 0 2.683-.07 4.13-.21l1.82-.14c.746-.047 1.586-.07 2.52-.07 4.153 0 7.326.793 9.52 2.38s3.29 3.827 3.29 6.72c0 2.24-.724 4.27-2.17 6.09-1.447 1.773-3.5 3.173-6.16 4.2zm-5.67-17.99c-1.494 0-2.52.303-3.08.91-.514.607-.77 1.843-.77 3.71v13.3l2.94.07c2.753 0 4.83-.887 6.23-2.66 1.4-1.82 2.1-4.153 2.1-7 0-2.66-.63-4.713-1.89-6.16s-3.104-2.17-5.53-2.17zm1.75 41.23c6.3 0 9.45-3.243 9.45-9.73 0-3.547-.934-6.393-2.8-8.54-1.82-2.147-4.504-3.22-8.05-3.22-1.68 0-3.08.047-4.2.14v17.01c0 1.073.14 1.913.42 2.52s.816 1.073 1.61 1.4c.793.28 1.983.42 3.57.42zm46.69-3.08c.093 0 .187.093.28.28.14.187.163.327.07.42-1.727 1.587-3.453 2.753-5.18 3.5-1.727.7-3.593 1.05-5.6 1.05-2.847 0-5.32-.63-7.42-1.89-2.053-1.26-3.64-2.917-4.76-4.97-1.073-2.053-1.61-4.27-1.61-6.65 0-2.753.677-5.273 2.03-7.56a14.6 14.6 0 0 1 5.53-5.39c2.38-1.353 5.017-2.03 7.91-2.03 2.8 0 4.97.677 6.51 2.03s2.31 3.36 2.31 6.02c0 1.353-.28 2.03-.84 2.03l-17.08.07c-.047.42-.07 1.05-.07 1.89 0 4.107.933 7.373 2.8 9.8 1.913 2.38 4.62 3.57 8.12 3.57 1.307 0 2.403-.14 3.29-.42.887-.327 2.077-.887 3.57-1.68l.14-.07zm-11.27-21.84c-1.727 0-3.15.677-4.27 2.03-1.073 1.307-1.797 3.127-2.17 5.46l11.2-.21c-.093-4.853-1.68-7.28-4.76-7.28zm41.679-10.08c0 1.727.42 3.267 1.26 4.62a14.98 14.98 0 0 0 3.22 3.43c1.307.98 3.057 2.147 5.25 3.5 2.38 1.493 4.247 2.777 5.6 3.85 1.4 1.073 2.567 2.403 3.5 3.99.98 1.54 1.47 3.36 1.47 5.46 0 2.38-.63 4.503-1.89 6.37-1.213 1.867-2.963 3.337-5.25 4.41-2.24 1.027-4.807 1.54-7.7 1.54-1.96 0-3.99-.257-6.09-.77-2.053-.513-3.617-1.143-4.69-1.89-.42-.28-.653-.723-.7-1.33l-.42-10.64v-.07c0-.187.117-.28.35-.28.233-.047.373.023.42.21 1.54 3.873 3.29 7.047 5.25 9.52 2.007 2.473 4.55 3.71 7.63 3.71 2.007 0 3.687-.537 5.04-1.61 1.353-1.12 2.03-2.963 2.03-5.53 0-2.053-.467-3.85-1.4-5.39-.887-1.54-2.007-2.823-3.36-3.85-1.307-1.027-3.103-2.287-5.39-3.78-2.24-1.447-3.99-2.66-5.25-3.64-1.26-1.027-2.333-2.263-3.22-3.71-.887-1.493-1.33-3.22-1.33-5.18 0-2.427.677-4.48 2.03-6.16s3.103-2.917 5.25-3.71c2.193-.84 4.48-1.26 6.86-1.26a23.55 23.55 0 0 1 4.76.49c1.587.28 2.917.653 3.99 1.12.7.28 1.05.723 1.05 1.33l.21 9.52c0 .14-.14.233-.42.28-.233.047-.373 0-.42-.14-.933-2.847-2.193-5.413-3.78-7.7-1.54-2.333-3.873-3.5-7-3.5-2.1 0-3.78.607-5.04 1.82-1.213 1.213-1.82 2.87-1.82 4.97zm58.019 35.49c.186 0 .28.14.28.42s-.094.42-.28.42c-1.167 0-2.1-.023-2.8-.07l-3.99-.07-3.99.07c-.7.047-1.634.07-2.8.07-.14 0-.21-.14-.21-.42s.07-.42.21-.42c1.54 0 2.59-.327 3.15-.98.56-.7.84-1.983.84-3.85V34.9c0-5.133-2.007-7.7-6.02-7.7-1.26 0-2.544.303-3.85.91-1.26.56-2.38 1.33-3.36 2.31v14.91c0 1.913.256 3.197.77 3.85.56.653 1.633.98 3.22.98.186 0 .28.14.28.42s-.094.42-.28.42c-1.167 0-2.1-.023-2.8-.07l-3.99-.07-3.99.07c-.7.047-1.634.07-2.8.07-.14 0-.21-.14-.21-.42s.07-.42.21-.42c1.54 0 2.59-.327 3.15-.98.56-.7.84-1.983.84-3.85V9.56c0-1.633-.164-2.8-.49-3.5-.327-.747-.864-1.12-1.61-1.12-.7 0-1.657.28-2.87.84h-.07c-.14 0-.28-.117-.42-.35-.094-.28-.07-.443.07-.49l9.73-4.62.35-.07c.186 0 .373.093.56.28.233.187.35.35.35.49v28c3.36-3.873 6.93-5.81 10.71-5.81 2.566 0 4.55.77 5.95 2.31 1.446 1.54 2.17 3.64 2.17 6.3v13.51c0 1.913.256 3.197.77 3.85.56.653 1.633.98 3.22.98zm32.05-26.18c.093 0 .14.14.14.42s-.047.42-.14.42c-1.4 0-2.614.56-3.64 1.68-.98 1.12-1.89 2.823-2.73 5.11l-8.05 21.35c-1.68 4.48-3.29 8.003-4.83 10.57s-3.104 4.387-4.69 5.46c-1.587 1.12-3.337 1.68-5.25 1.68-1.307 0-2.31-.28-3.01-.84-.747-.513-1.12-1.307-1.12-2.38 0-.933.303-1.657.91-2.17.56-.467 1.26-.7 2.1-.7.56 0 1.026.07 1.4.21a8.5 8.5 0 0 1 1.26.7c.466.28.863.49 1.19.63.373.14.816.21 1.33.21 1.073 0 2.053-.443 2.94-1.33.933-.84 1.89-2.263 2.87-4.27 1.026-2.007 2.24-4.853 3.64-8.54l-11.06-22.4c-1.027-2.007-1.844-3.337-2.45-3.99a2.65 2.65 0 0 0-2.1-.98c-.14 0-.21-.14-.21-.42s.07-.42.21-.42c1.213 0 2.146.023 2.8.07l2.73.07 4.76-.07c.7-.047 1.656-.07 2.87-.07.14 0 .21.14.21.42s-.07.42-.21.42c-1.26 0-2.194.117-2.8.35-.56.187-.84.56-.84 1.12 0 .42.116.84.35 1.26l8.54 17.64 4.69-13.58c.42-1.213.63-2.24.63-3.08 0-2.473-1.564-3.71-4.69-3.71-.094 0-.14-.14-.14-.42s.046-.42.14-.42c1.26 0 2.216.023 2.87.07l4.2.07 2.73-.07c.513-.047 1.33-.07 2.45-.07z" fill="#4971ff"/></svg>