<svg width="373" height="393" viewBox="0 0 373 393" fill="none" xmlns="http://www.w3.org/2000/svg">
<path d="M21.0266 83.5C21.0266 85.6333 21.2599 87.2 21.7266 88.2C22.2599 89.1333 23.2266 89.8 24.6266 90.2C26.0932 90.6 28.3599 90.8 31.4266 90.8C31.6266 90.8 31.7266 91 31.7266 91.4C31.7266 91.8 31.6266 92 31.4266 92C28.6932 92 26.5599 91.9667 25.0266 91.9L16.3266 91.8L9.12656 91.9C7.8599 91.9667 6.12656 92 3.92656 92C3.72656 92 3.62656 91.8 3.62656 91.4C3.62656 91 3.72656 90.8 3.92656 90.8C6.19323 90.8 7.82656 90.6333 8.82656 90.3C9.82656 89.9667 10.4932 89.3333 10.8266 88.4C11.2266 87.4667 11.4266 85.9667 11.4266 83.9V37.6C11.4266 35.6 11.2266 34.1333 10.8266 33.2C10.4932 32.2667 9.79323 31.6333 8.72656 31.3C7.72656 30.9 6.12656 30.7 3.92656 30.7C3.72656 30.7 3.62656 30.5 3.62656 30.1C3.62656 29.7 3.72656 29.5 3.92656 29.5L9.12656 29.6C12.0599 29.7333 14.4266 29.8 16.2266 29.8C17.7599 29.8 19.6266 29.7 21.8266 29.5C22.6266 29.4333 23.6932 29.3667 25.0266 29.3C26.4266 29.2333 28.0599 29.2 29.9266 29.2C36.5266 29.2 41.7266 30.6 45.5266 33.4C49.3932 36.2 51.3266 40.5 51.3266 46.3C51.3266 50.5 50.2266 54.0667 48.0266 57C45.8932 59.9333 43.1266 62.1333 39.7266 63.6C36.3932 65.0667 32.9599 65.8 29.4266 65.8C27.5599 65.8 25.9932 65.6333 24.7266 65.3C24.5266 65.3 24.4266 65.1333 24.4266 64.8C24.4266 64.6 24.4599 64.4 24.5266 64.2C24.6599 64 24.7932 63.9333 24.9266 64C25.9932 64.2667 27.1599 64.4 28.4266 64.4C31.8932 64.4 34.8266 62.9667 37.2266 60.1C39.6266 57.2333 40.8266 53.1333 40.8266 47.8C40.8266 42.5333 39.5932 38.4667 37.1266 35.6C34.6599 32.6667 31.2599 31.2 26.9266 31.2C25.3266 31.2 24.0932 31.3667 23.2266 31.7C22.4266 32.0333 21.8599 32.6667 21.5266 33.6C21.1932 34.4667 21.0266 35.8667 21.0266 37.8V83.5ZM89.4281 52.4C90.9615 52.4 92.4281 52.9 93.8281 53.9C95.2281 54.9 95.9281 56.1 95.9281 57.5C95.9281 58.7667 95.5281 59.8 94.7281 60.6C93.9948 61.4 92.9615 61.8 91.6281 61.8C90.7615 61.8 90.0281 61.6333 89.4281 61.3C88.8948 60.9 88.3281 60.3667 87.7281 59.7C87.1281 59.1 86.5948 58.6667 86.1281 58.4C85.6615 58.0667 85.0948 57.9 84.4281 57.9C83.6948 57.9 82.8948 58.2 82.0281 58.8C81.2281 59.3333 79.9615 60.5 78.2281 62.3V83.9C78.2281 85.7667 78.4948 87.2 79.0281 88.2C79.5615 89.1333 80.4615 89.8 81.7281 90.2C82.9948 90.6 84.8615 90.8 87.3281 90.8C87.5948 90.8 87.7281 91 87.7281 91.4C87.7281 91.8 87.5948 92 87.3281 92C85.1281 92 83.3615 91.9667 82.0281 91.9L74.1281 91.8L68.3281 91.9C67.3948 91.9667 66.0948 92 64.4281 92C64.2281 92 64.1281 91.8 64.1281 91.4C64.1281 91 64.2281 90.8 64.4281 90.8C66.6948 90.8 68.1948 90.3333 68.9281 89.4C69.6615 88.4667 70.0281 86.6333 70.0281 83.9V64.8C70.0281 62.6667 69.7615 61.1 69.2281 60.1C68.7615 59.1 67.9615 58.6 66.8281 58.6C65.8281 58.6 64.1615 59.1 61.8281 60.1H61.7281C61.4615 60.1 61.2615 59.9333 61.1281 59.6C60.9948 59.2667 61.0281 59.0667 61.2281 59L74.3281 52.6C74.7281 52.4667 74.9615 52.4 75.0281 52.4C75.6948 52.4 76.3615 53.1333 77.0281 54.6C77.6948 56 78.0948 57.8667 78.2281 60.2C80.8281 57.2667 82.9948 55.2333 84.7281 54.1C86.4615 52.9667 88.0281 52.4 89.4281 52.4ZM126.059 93.3C122.059 93.3 118.525 92.3667 115.459 90.5C112.392 88.5667 110.025 86 108.359 82.8C106.692 79.5333 105.859 76 105.859 72.2C105.859 67.8667 106.925 64.2 109.059 61.2C111.259 58.1333 114.025 55.8667 117.359 54.4C120.759 52.8667 124.225 52.1 127.759 52.1C131.825 52.1 135.359 53.0667 138.359 55C141.425 56.9333 143.759 59.5 145.359 62.7C146.959 65.8333 147.759 69.2 147.759 72.8C147.759 76.8 146.759 80.3667 144.759 83.5C142.825 86.6333 140.192 89.0667 136.859 90.8C133.525 92.4667 129.925 93.3 126.059 93.3ZM129.059 91.3C131.992 91.3 134.225 90 135.759 87.4C137.359 84.8 138.159 81 138.159 76C138.159 71.5333 137.525 67.6333 136.259 64.3C135.059 60.9667 133.392 58.4333 131.259 56.7C129.192 54.9667 126.925 54.1 124.459 54.1C121.459 54.1 119.192 55.3333 117.659 57.8C116.125 60.2667 115.359 63.9 115.359 68.7C115.359 73.0333 115.925 76.9333 117.059 80.4C118.259 83.8 119.892 86.4667 121.959 88.4C124.092 90.3333 126.459 91.3 129.059 91.3ZM188.791 52.1C191.725 52.1 194.425 52.8 196.891 54.2C199.425 55.6 201.425 57.7 202.891 60.5C204.425 63.3 205.191 66.7 205.191 70.7C205.191 75.5 204.158 79.6 202.091 83C200.091 86.4 197.425 88.9667 194.091 90.7C190.758 92.4333 187.225 93.3 183.491 93.3C178.291 93.3 173.625 91.7667 169.491 88.7L160.991 92.6H160.791C160.525 92.6 160.358 92.4667 160.291 92.2C160.225 92 160.291 91.8333 160.491 91.7C162.291 90.5667 163.591 89.2667 164.391 87.8C165.258 86.2667 165.691 84.2333 165.691 81.7V32.8C165.691 30.4667 165.458 28.8 164.991 27.8C164.525 26.7333 163.725 26.2 162.591 26.2C161.791 26.2 160.491 26.6 158.691 27.4H158.591C158.325 27.4 158.125 27.2333 157.991 26.9C157.858 26.5667 157.858 26.3333 157.991 26.2L171.891 19.6L172.391 19.5C172.658 19.5 172.958 19.6333 173.291 19.9C173.625 20.1667 173.791 20.4 173.791 20.6V59.5C175.991 57.2333 178.291 55.4333 180.691 54.1C183.091 52.7667 185.791 52.1 188.791 52.1ZM186.091 91.3C189.358 91.3 191.858 89.8333 193.591 86.9C195.325 83.9667 196.191 79.8 196.191 74.4C196.191 68.5333 195.125 64.1333 192.991 61.2C190.925 58.2 188.125 56.7 184.591 56.7C181.191 56.7 177.591 58.2333 173.791 61.3V76.6C173.791 80.0667 174.425 82.9 175.691 85.1C177.025 87.3 178.625 88.9 180.491 89.9C182.425 90.8333 184.291 91.3 186.091 91.3ZM218.259 92C218.059 92 217.959 91.8 217.959 91.4C217.959 91 218.059 90.8 218.259 90.8C220.459 90.8 221.959 90.3333 222.759 89.4C223.559 88.4 223.959 86.5667 223.959 83.9V32.8C223.959 30.4667 223.725 28.8 223.259 27.8C222.859 26.7333 222.092 26.2 220.959 26.2C219.959 26.2 218.625 26.6 216.959 27.4H216.859C216.592 27.4 216.392 27.2333 216.259 26.9C216.125 26.5667 216.125 26.3333 216.259 26.2L230.359 19.6L230.759 19.5C231.025 19.5 231.325 19.6333 231.659 19.9C232.059 20.1667 232.259 20.4 232.259 20.6V83.9C232.259 86.6333 232.625 88.4667 233.359 89.4C234.092 90.3333 235.592 90.8 237.859 90.8C238.059 90.8 238.159 91 238.159 91.4C238.159 91.8 238.059 92 237.859 92C236.259 92 234.959 91.9667 233.959 91.9L228.059 91.8L222.259 91.9C221.259 91.9667 219.925 92 218.259 92ZM284.923 85.7C285.057 85.7 285.19 85.8333 285.323 86.1C285.523 86.3667 285.557 86.5667 285.423 86.7C282.957 88.9667 280.49 90.6333 278.023 91.7C275.557 92.7 272.89 93.2 270.023 93.2C265.957 93.2 262.423 92.3 259.423 90.5C256.49 88.7 254.223 86.3333 252.623 83.4C251.09 80.4667 250.323 77.3 250.323 73.9C250.323 69.9667 251.29 66.3667 253.223 63.1C255.157 59.8333 257.79 57.2667 261.123 55.4C264.523 53.4667 268.29 52.5 272.423 52.5C276.423 52.5 279.523 53.4667 281.723 55.4C283.923 57.3333 285.023 60.2 285.023 64C285.023 65.9333 284.623 66.9 283.823 66.9L259.423 67C259.357 67.6 259.323 68.5 259.323 69.7C259.323 75.5667 260.657 80.2333 263.323 83.7C266.057 87.1 269.923 88.8 274.923 88.8C276.79 88.8 278.357 88.6 279.623 88.2C280.89 87.7333 282.59 86.9333 284.723 85.8L284.923 85.7ZM268.823 54.5C266.357 54.5 264.323 55.4667 262.723 57.4C261.19 59.2667 260.157 61.8667 259.623 65.2L275.623 64.9C275.49 57.9667 273.223 54.5 268.823 54.5ZM369.827 90.8C370.094 90.8 370.227 91 370.227 91.4C370.227 91.8 370.094 92 369.827 92C368.161 92 366.827 91.9667 365.827 91.9L360.127 91.8L354.427 91.9C353.427 91.9667 352.094 92 350.427 92C350.227 92 350.127 91.8 350.127 91.4C350.127 91 350.227 90.8 350.427 90.8C352.627 90.8 354.127 90.3333 354.927 89.4C355.727 88.4 356.127 86.5667 356.127 83.9V69C356.127 65.2667 355.461 62.5 354.127 60.7C352.861 58.9 350.894 58 348.227 58C346.427 58 344.627 58.4333 342.827 59.3C341.027 60.1667 339.461 61.3333 338.127 62.8V63.8V83.9C338.127 86.6333 338.494 88.4667 339.227 89.4C340.027 90.3333 341.561 90.8 343.827 90.8C344.027 90.8 344.127 91 344.127 91.4C344.127 91.8 344.027 92 343.827 92C342.161 92 340.827 91.9667 339.827 91.9L334.027 91.8L328.327 91.9C327.327 91.9667 325.994 92 324.327 92C324.127 92 324.027 91.8 324.027 91.4C324.027 91 324.127 90.8 324.327 90.8C326.594 90.8 328.094 90.3333 328.827 89.4C329.627 88.4667 330.027 86.6333 330.027 83.9V69C330.027 65.2667 329.361 62.5 328.027 60.7C326.761 58.9 324.794 58 322.127 58C320.461 58 318.761 58.4 317.027 59.2C315.294 60 313.761 61.0667 312.427 62.4V83.9C312.427 86.6333 312.794 88.4667 313.527 89.4C314.261 90.3333 315.761 90.8 318.027 90.8C318.227 90.8 318.327 91 318.327 91.4C318.327 91.8 318.227 92 318.027 92C316.361 92 315.061 91.9667 314.127 91.9L308.327 91.8L302.527 91.9C301.594 91.9667 300.294 92 298.627 92C298.427 92 298.327 91.8 298.327 91.4C298.327 91 298.427 90.8 298.627 90.8C300.894 90.8 302.394 90.3333 303.127 89.4C303.861 88.4667 304.227 86.6333 304.227 83.9V64.8C304.227 62.6667 303.961 61.1 303.427 60.1C302.961 59.1 302.161 58.6 301.027 58.6C300.027 58.6 298.361 59.1 296.027 60.1H295.927C295.661 60.1 295.461 59.9333 295.327 59.6C295.194 59.2667 295.227 59.0667 295.427 59L308.527 52.6C308.927 52.4667 309.161 52.4 309.227 52.4C309.894 52.4 310.561 53.1667 311.227 54.7C311.961 56.1667 312.361 58.1 312.427 60.5C316.894 55.0333 321.761 52.3 327.027 52.3C330.094 52.3 332.561 53.0667 334.427 54.6C336.294 56.0667 337.461 58.2333 337.927 61.1C342.661 55.2333 347.727 52.3 353.127 52.3C356.661 52.3 359.361 53.3333 361.227 55.4C363.161 57.4 364.127 60.4667 364.127 64.6V83.9C364.127 86.6333 364.494 88.4667 365.227 89.4C366.027 90.3333 367.561 90.8 369.827 90.8ZM63.1324 161.1C63.1324 163.567 63.7324 165.767 64.9324 167.7C66.1991 169.567 67.7324 171.2 69.5324 172.6C71.3991 174 73.8991 175.667 77.0324 177.6C80.4324 179.733 83.0991 181.567 85.0324 183.1C87.0324 184.633 88.6991 186.533 90.0324 188.8C91.4324 191 92.1324 193.6 92.1324 196.6C92.1324 200 91.2324 203.033 89.4324 205.7C87.6991 208.367 85.1991 210.467 81.9324 212C78.7324 213.467 75.0658 214.2 70.9324 214.2C68.1324 214.2 65.2324 213.833 62.2324 213.1C59.2991 212.367 57.0658 211.467 55.5324 210.4C54.9324 210 54.5991 209.367 54.5324 208.5L53.9324 193.3V193.2C53.9324 192.933 54.0991 192.8 54.4324 192.8C54.7658 192.733 54.9658 192.833 55.0324 193.1C57.2324 198.633 59.7324 203.167 62.5324 206.7C65.3991 210.233 69.0324 212 73.4324 212C76.2991 212 78.6991 211.233 80.6324 209.7C82.5658 208.1 83.5324 205.467 83.5324 201.8C83.5324 198.867 82.8658 196.3 81.5324 194.1C80.2658 191.9 78.6658 190.067 76.7324 188.6C74.8658 187.133 72.2991 185.333 69.0324 183.2C65.8324 181.133 63.3324 179.4 61.5324 178C59.7324 176.533 58.1991 174.767 56.9324 172.7C55.6658 170.567 55.0324 168.1 55.0324 165.3C55.0324 161.833 55.9991 158.9 57.9324 156.5C59.8658 154.1 62.3658 152.333 65.4324 151.2C68.5658 150 71.8324 149.4 75.2324 149.4C77.4991 149.4 79.7658 149.633 82.0324 150.1C84.2991 150.5 86.1991 151.033 87.7324 151.7C88.7324 152.1 89.2324 152.733 89.2324 153.6L89.5324 167.2C89.5324 167.4 89.3324 167.533 88.9324 167.6C88.5991 167.667 88.3991 167.6 88.3324 167.4C86.9991 163.333 85.1991 159.667 82.9324 156.4C80.7324 153.067 77.3991 151.4 72.9324 151.4C69.9324 151.4 67.5324 152.267 65.7324 154C63.9991 155.733 63.1324 158.1 63.1324 161.1ZM126.916 214.3C122.916 214.3 119.383 213.367 116.316 211.5C113.249 209.567 110.883 207 109.216 203.8C107.549 200.533 106.716 197 106.716 193.2C106.716 188.867 107.783 185.2 109.916 182.2C112.116 179.133 114.883 176.867 118.216 175.4C121.616 173.867 125.083 173.1 128.616 173.1C132.683 173.1 136.216 174.067 139.216 176C142.283 177.933 144.616 180.5 146.216 183.7C147.816 186.833 148.616 190.2 148.616 193.8C148.616 197.8 147.616 201.367 145.616 204.5C143.683 207.633 141.049 210.067 137.716 211.8C134.383 213.467 130.783 214.3 126.916 214.3ZM129.916 212.3C132.849 212.3 135.083 211 136.616 208.4C138.216 205.8 139.016 202 139.016 197C139.016 192.533 138.383 188.633 137.116 185.3C135.916 181.967 134.249 179.433 132.116 177.7C130.049 175.967 127.783 175.1 125.316 175.1C122.316 175.1 120.049 176.333 118.516 178.8C116.983 181.267 116.216 184.9 116.216 189.7C116.216 194.033 116.783 197.933 117.916 201.4C119.116 204.8 120.749 207.467 122.816 209.4C124.949 211.333 127.316 212.3 129.916 212.3ZM161.749 213C161.549 213 161.449 212.8 161.449 212.4C161.449 212 161.549 211.8 161.749 211.8C163.949 211.8 165.449 211.333 166.249 210.4C167.049 209.4 167.449 207.567 167.449 204.9V153.8C167.449 151.467 167.215 149.8 166.749 148.8C166.349 147.733 165.582 147.2 164.449 147.2C163.449 147.2 162.115 147.6 160.449 148.4H160.349C160.082 148.4 159.882 148.233 159.749 147.9C159.615 147.567 159.615 147.333 159.749 147.2L173.849 140.6L174.249 140.5C174.515 140.5 174.815 140.633 175.149 140.9C175.549 141.167 175.749 141.4 175.749 141.6V204.9C175.749 207.633 176.115 209.467 176.849 210.4C177.582 211.333 179.082 211.8 181.349 211.8C181.549 211.8 181.649 212 181.649 212.4C181.649 212.8 181.549 213 181.349 213C179.749 213 178.449 212.967 177.449 212.9L171.549 212.8L165.749 212.9C164.749 212.967 163.415 213 161.749 213ZM235.114 174.4C235.247 174.4 235.314 174.6 235.314 175C235.314 175.4 235.247 175.6 235.114 175.6C233.247 175.6 231.614 176.267 230.214 177.6C228.88 178.933 227.58 181.067 226.314 184L213.914 213C213.78 213.333 213.447 213.5 212.914 213.5C212.314 213.5 211.914 213.333 211.714 213L196.914 182.7C195.514 179.767 194.314 177.867 193.314 177C192.314 176.067 191.08 175.6 189.614 175.6C189.414 175.6 189.314 175.4 189.314 175C189.314 174.6 189.414 174.4 189.614 174.4C190.814 174.4 191.78 174.433 192.514 174.5L198.314 174.6L205.714 174.5C206.78 174.433 208.247 174.4 210.114 174.4C210.314 174.4 210.414 174.6 210.414 175C210.414 175.4 210.314 175.6 210.114 175.6C206.18 175.6 204.214 176.367 204.214 177.9C204.214 178.3 204.38 178.833 204.714 179.5L216.214 202.2L223.814 183.8C224.28 182.667 224.514 181.567 224.514 180.5C224.514 178.9 223.914 177.7 222.714 176.9C221.58 176.033 219.88 175.6 217.614 175.6C217.48 175.6 217.414 175.4 217.414 175C217.414 174.6 217.48 174.4 217.614 174.4C219.414 174.4 220.78 174.433 221.714 174.5L227.714 174.6L231.614 174.5C232.347 174.433 233.514 174.4 235.114 174.4ZM278.261 206.7C278.395 206.7 278.528 206.833 278.661 207.1C278.861 207.367 278.895 207.567 278.761 207.7C276.295 209.967 273.828 211.633 271.361 212.7C268.895 213.7 266.228 214.2 263.361 214.2C259.295 214.2 255.761 213.3 252.761 211.5C249.828 209.7 247.561 207.333 245.961 204.4C244.428 201.467 243.661 198.3 243.661 194.9C243.661 190.967 244.628 187.367 246.561 184.1C248.495 180.833 251.128 178.267 254.461 176.4C257.861 174.467 261.628 173.5 265.761 173.5C269.761 173.5 272.861 174.467 275.061 176.4C277.261 178.333 278.361 181.2 278.361 185C278.361 186.933 277.961 187.9 277.161 187.9L252.761 188C252.695 188.6 252.661 189.5 252.661 190.7C252.661 196.567 253.995 201.233 256.661 204.7C259.395 208.1 263.261 209.8 268.261 209.8C270.128 209.8 271.695 209.6 272.961 209.2C274.228 208.733 275.928 207.933 278.061 206.8L278.261 206.7ZM262.161 175.5C259.695 175.5 257.661 176.467 256.061 178.4C254.528 180.267 253.495 182.867 252.961 186.2L268.961 185.9C268.828 178.967 266.561 175.5 262.161 175.5ZM316.965 173.4C318.499 173.4 319.965 173.9 321.365 174.9C322.765 175.9 323.465 177.1 323.465 178.5C323.465 179.767 323.065 180.8 322.265 181.6C321.532 182.4 320.499 182.8 319.165 182.8C318.299 182.8 317.565 182.633 316.965 182.3C316.432 181.9 315.865 181.367 315.265 180.7C314.665 180.1 314.132 179.667 313.665 179.4C313.199 179.067 312.632 178.9 311.965 178.9C311.232 178.9 310.432 179.2 309.565 179.8C308.765 180.333 307.499 181.5 305.765 183.3V204.9C305.765 206.767 306.032 208.2 306.565 209.2C307.099 210.133 307.999 210.8 309.265 211.2C310.532 211.6 312.399 211.8 314.865 211.8C315.132 211.8 315.265 212 315.265 212.4C315.265 212.8 315.132 213 314.865 213C312.665 213 310.899 212.967 309.565 212.9L301.665 212.8L295.865 212.9C294.932 212.967 293.632 213 291.965 213C291.765 213 291.665 212.8 291.665 212.4C291.665 212 291.765 211.8 291.965 211.8C294.232 211.8 295.732 211.333 296.465 210.4C297.199 209.467 297.565 207.633 297.565 204.9V185.8C297.565 183.667 297.299 182.1 296.765 181.1C296.299 180.1 295.499 179.6 294.365 179.6C293.365 179.6 291.699 180.1 289.365 181.1H289.265C288.999 181.1 288.799 180.933 288.665 180.6C288.532 180.267 288.565 180.067 288.765 180L301.865 173.6C302.265 173.467 302.499 173.4 302.565 173.4C303.232 173.4 303.899 174.133 304.565 175.6C305.232 177 305.632 178.867 305.765 181.2C308.365 178.267 310.532 176.233 312.265 175.1C313.999 173.967 315.565 173.4 316.965 173.4Z" fill="#4971FF"/>
<path d="M24.538 304.265C24.538 304.325 24.448 304.37 24.268 304.4C24.118 304.43 24.028 304.4 23.998 304.31C23.518 302.57 22.708 301.28 21.568 300.44C20.428 299.6 18.928 299.18 17.068 299.18H15.718C14.818 299.18 14.158 299.375 13.738 299.765C13.318 300.155 13.108 300.755 13.108 301.565V311.285H16.348C18.088 311.285 19.408 310.985 20.308 310.385C21.238 309.755 21.703 308.9 21.703 307.82C21.703 307.76 21.793 307.73 21.973 307.73C22.153 307.73 22.243 307.76 22.243 307.82L22.198 311.915C22.198 312.875 22.213 313.595 22.243 314.075L22.288 316.46C22.288 316.55 22.198 316.595 22.018 316.595C21.838 316.595 21.748 316.55 21.748 316.46C21.748 315.26 21.268 314.315 20.308 313.625C19.378 312.905 18.043 312.545 16.303 312.545H13.108V322.175C13.108 323.105 13.228 323.795 13.468 324.245C13.708 324.695 14.158 325.01 14.818 325.19C15.478 325.37 16.513 325.46 17.923 325.46C17.983 325.46 18.013 325.55 18.013 325.73C18.013 325.91 17.983 326 17.923 326C16.693 326 15.733 325.985 15.043 325.955L10.453 325.91L7.07795 325.955C6.47795 325.985 5.65295 326 4.60295 326C4.51295 326 4.46795 325.91 4.46795 325.73C4.46795 325.55 4.51295 325.46 4.60295 325.46C5.65295 325.46 6.41795 325.385 6.89795 325.235C7.37795 325.085 7.69295 324.8 7.84295 324.38C8.02295 323.93 8.11295 323.255 8.11295 322.355V301.52C8.11295 300.62 8.03795 299.96 7.88795 299.54C7.73795 299.12 7.43795 298.835 6.98795 298.685C6.53795 298.505 5.84795 298.415 4.91795 298.415C4.82795 298.415 4.78295 298.325 4.78295 298.145C4.78295 297.965 4.82795 297.875 4.91795 297.875H23.998C24.298 297.875 24.448 298.01 24.448 298.28L24.538 304.265ZM64.8787 303.635C64.8787 302.015 64.5037 300.74 63.7537 299.81C63.0337 298.88 62.0137 298.415 60.6937 298.415C60.6337 298.415 60.6037 298.325 60.6037 298.145C60.6037 297.965 60.6337 297.875 60.6937 297.875L62.8537 297.92C63.9937 297.98 64.9087 298.01 65.5987 298.01C66.1687 298.01 66.9937 297.98 68.0737 297.92L70.1437 297.875C70.2037 297.875 70.2337 297.965 70.2337 298.145C70.2337 298.325 70.2037 298.415 70.1437 298.415C68.9737 298.415 68.0587 298.88 67.3987 299.81C66.7387 300.74 66.4087 302.015 66.4087 303.635V316.145C66.4087 318.245 65.9437 320.09 65.0137 321.68C64.0837 323.27 62.7637 324.5 61.0537 325.37C59.3737 326.21 57.4237 326.63 55.2037 326.63C52.9837 326.63 51.0187 326.21 49.3087 325.37C47.5987 324.53 46.2487 323.315 45.2587 321.725C44.2987 320.105 43.8187 318.215 43.8187 316.055V301.52C43.8187 300.62 43.7287 299.96 43.5487 299.54C43.3987 299.12 43.0987 298.835 42.6487 298.685C42.2287 298.505 41.5537 298.415 40.6237 298.415C40.5337 298.415 40.4887 298.325 40.4887 298.145C40.4887 297.965 40.5337 297.875 40.6237 297.875L43.0087 297.92C44.3887 297.98 45.4837 298.01 46.2937 298.01C47.1937 298.01 48.3337 297.98 49.7137 297.92L52.0087 297.875C52.0987 297.875 52.1437 297.965 52.1437 298.145C52.1437 298.325 52.0987 298.415 52.0087 298.415C51.0787 298.415 50.3887 298.505 49.9387 298.685C49.5187 298.865 49.2187 299.18 49.0387 299.63C48.8887 300.05 48.8137 300.71 48.8137 301.61V314.48C48.8137 318.05 49.5187 320.69 50.9287 322.4C52.3387 324.11 54.3337 324.965 56.9137 324.965C59.4037 324.965 61.3537 324.215 62.7637 322.715C64.1737 321.185 64.8787 319.01 64.8787 316.19V303.635ZM93.0093 322.175C93.0093 322.955 93.0693 323.525 93.1893 323.885C93.3093 324.215 93.5343 324.44 93.8643 324.56C94.2243 324.68 94.7943 324.74 95.5743 324.74H97.1043C99.4443 324.74 101.469 324.125 103.179 322.895C104.889 321.635 106.029 319.94 106.599 317.81C106.599 317.75 106.659 317.72 106.779 317.72C106.839 317.72 106.899 317.75 106.959 317.81C107.049 317.84 107.094 317.87 107.094 317.9C106.824 320.87 106.689 323.345 106.689 325.325C106.689 325.565 106.629 325.745 106.509 325.865C106.419 325.955 106.254 326 106.014 326H84.7743C84.7143 326 84.6843 325.91 84.6843 325.73C84.6843 325.55 84.7143 325.46 84.7743 325.46C85.7343 325.46 86.4243 325.385 86.8443 325.235C87.2943 325.085 87.5943 324.8 87.7443 324.38C87.9243 323.93 88.0143 323.255 88.0143 322.355V301.52C88.0143 300.62 87.9243 299.96 87.7443 299.54C87.5943 299.12 87.2943 298.835 86.8443 298.685C86.3943 298.505 85.7043 298.415 84.7743 298.415C84.7143 298.415 84.6843 298.325 84.6843 298.145C84.6843 297.965 84.7143 297.875 84.7743 297.875L87.0693 297.92C88.4493 297.98 89.5893 298.01 90.4893 298.01C91.3893 298.01 92.5293 297.98 93.9093 297.92L96.2043 297.875C96.2943 297.875 96.3393 297.965 96.3393 298.145C96.3393 298.325 96.2943 298.415 96.2043 298.415C95.2743 298.415 94.5843 298.505 94.1343 298.685C93.6843 298.835 93.3843 299.135 93.2343 299.585C93.0843 300.005 93.0093 300.665 93.0093 301.565V322.175ZM130.131 322.175C130.131 322.955 130.191 323.525 130.311 323.885C130.431 324.215 130.656 324.44 130.986 324.56C131.346 324.68 131.916 324.74 132.696 324.74H134.226C136.566 324.74 138.591 324.125 140.301 322.895C142.011 321.635 143.151 319.94 143.721 317.81C143.721 317.75 143.781 317.72 143.901 317.72C143.961 317.72 144.021 317.75 144.081 317.81C144.171 317.84 144.216 317.87 144.216 317.9C143.946 320.87 143.811 323.345 143.811 325.325C143.811 325.565 143.751 325.745 143.631 325.865C143.541 325.955 143.376 326 143.136 326H121.896C121.836 326 121.806 325.91 121.806 325.73C121.806 325.55 121.836 325.46 121.896 325.46C122.856 325.46 123.546 325.385 123.966 325.235C124.416 325.085 124.716 324.8 124.866 324.38C125.046 323.93 125.136 323.255 125.136 322.355V301.52C125.136 300.62 125.046 299.96 124.866 299.54C124.716 299.12 124.416 298.835 123.966 298.685C123.516 298.505 122.826 298.415 121.896 298.415C121.836 298.415 121.806 298.325 121.806 298.145C121.806 297.965 121.836 297.875 121.896 297.875L124.191 297.92C125.571 297.98 126.711 298.01 127.611 298.01C128.511 298.01 129.651 297.98 131.031 297.92L133.326 297.875C133.416 297.875 133.461 297.965 133.461 298.145C133.461 298.325 133.416 298.415 133.326 298.415C132.396 298.415 131.706 298.505 131.256 298.685C130.806 298.835 130.506 299.135 130.356 299.585C130.206 300.005 130.131 300.665 130.131 301.565V322.175ZM188.644 302.42C188.644 303.5 188.914 304.46 189.454 305.3C190.024 306.14 190.714 306.875 191.524 307.505C192.334 308.135 193.429 308.9 194.809 309.8C196.309 310.76 197.509 311.6 198.409 312.32C199.309 313.04 200.074 313.925 200.704 314.975C201.334 315.995 201.649 317.18 201.649 318.53C201.649 320.09 201.229 321.485 200.389 322.715C199.549 323.915 198.379 324.86 196.879 325.55C195.409 326.21 193.759 326.54 191.929 326.54C190.579 326.54 189.169 326.36 187.699 326C186.229 325.61 185.239 325.19 184.729 324.74C184.579 324.62 184.459 324.515 184.369 324.425C184.309 324.305 184.279 324.125 184.279 323.885L184.144 316.73V316.685C184.144 316.565 184.219 316.505 184.369 316.505C184.519 316.475 184.609 316.52 184.639 316.64C185.539 318.47 186.319 319.955 186.979 321.095C187.669 322.235 188.524 323.24 189.544 324.11C190.594 324.98 191.779 325.415 193.099 325.415C194.299 325.415 195.289 325.1 196.069 324.47C196.849 323.81 197.239 322.7 197.239 321.14C197.239 319.82 196.939 318.665 196.339 317.675C195.769 316.685 195.064 315.845 194.224 315.155C193.384 314.465 192.229 313.64 190.759 312.68C189.319 311.75 188.194 310.955 187.384 310.295C186.604 309.635 185.929 308.84 185.359 307.91C184.789 306.98 184.504 305.885 184.504 304.625C184.504 303.035 184.954 301.7 185.854 300.62C186.784 299.51 187.969 298.7 189.409 298.19C190.849 297.65 192.364 297.38 193.954 297.38C195.004 297.38 196.069 297.485 197.149 297.695C198.229 297.875 199.099 298.1 199.759 298.37C200.029 298.49 200.209 298.625 200.299 298.775C200.389 298.895 200.434 299.06 200.434 299.27V305.885C200.434 305.975 200.359 306.05 200.209 306.11C200.059 306.14 199.969 306.11 199.939 306.02L199.579 305.165C198.829 303.275 197.944 301.67 196.924 300.35C195.934 299.03 194.539 298.37 192.739 298.37C191.539 298.37 190.549 298.715 189.769 299.405C189.019 300.095 188.644 301.1 188.644 302.42ZM226.563 298.91C222.993 298.91 220.428 301.235 218.868 305.885C218.838 305.975 218.748 306.02 218.598 306.02C218.448 305.99 218.373 305.93 218.373 305.84C218.493 304.64 218.628 303.095 218.778 301.205C218.928 299.285 219.003 297.845 219.003 296.885C219.003 296.735 219.078 296.66 219.228 296.66C219.408 296.66 219.498 296.735 219.498 296.885C219.498 297.545 220.353 297.875 222.063 297.875C224.643 297.965 227.658 298.01 231.108 298.01C232.878 298.01 234.753 297.98 236.733 297.92L239.793 297.875C240.933 297.875 241.758 297.8 242.268 297.65C242.808 297.5 243.153 297.2 243.303 296.75C243.333 296.63 243.423 296.57 243.573 296.57C243.753 296.57 243.843 296.63 243.843 296.75C243.753 297.65 243.648 299.09 243.528 301.07C243.438 303.05 243.393 304.64 243.393 305.84C243.393 305.93 243.318 305.975 243.168 305.975C243.018 305.975 242.928 305.93 242.898 305.84C242.448 303.53 241.608 301.805 240.378 300.665C239.148 299.495 237.633 298.91 235.833 298.91C234.963 298.91 234.378 299.105 234.078 299.495C233.808 299.855 233.673 300.56 233.673 301.61V322.355C233.673 323.285 233.763 323.96 233.943 324.38C234.123 324.8 234.468 325.085 234.978 325.235C235.488 325.385 236.298 325.46 237.408 325.46C237.498 325.46 237.543 325.55 237.543 325.73C237.543 325.91 237.498 326 237.408 326C236.328 326 235.473 325.985 234.843 325.955L231.108 325.91L227.463 325.955C226.833 325.985 225.963 326 224.853 326C224.763 326 224.718 325.91 224.718 325.73C224.718 325.55 224.763 325.46 224.853 325.46C225.933 325.46 226.728 325.385 227.238 325.235C227.778 325.085 228.138 324.8 228.318 324.38C228.528 323.93 228.633 323.255 228.633 322.355V301.52C228.633 300.5 228.498 299.81 228.228 299.45C227.958 299.09 227.403 298.91 226.563 298.91ZM287.19 325.46C287.34 325.46 287.415 325.55 287.415 325.73C287.415 325.91 287.34 326 287.19 326C286.59 326 285.66 325.97 284.4 325.91C283.08 325.85 282.135 325.82 281.565 325.82C280.815 325.82 279.9 325.85 278.82 325.91C277.8 325.97 276.99 326 276.39 326C276.27 326 276.21 325.91 276.21 325.73C276.21 325.55 276.27 325.46 276.39 325.46C277.17 325.46 277.725 325.385 278.055 325.235C278.415 325.055 278.595 324.755 278.595 324.335C278.595 323.825 278.295 322.97 277.695 321.77L274.635 315.695H263.565L261.81 319.61C261.42 320.48 261.225 321.29 261.225 322.04C261.225 323.12 261.6 323.96 262.35 324.56C263.13 325.16 264.165 325.46 265.455 325.46C265.605 325.46 265.68 325.55 265.68 325.73C265.68 325.91 265.605 326 265.455 326C264.915 326 264.135 325.97 263.115 325.91C261.975 325.85 260.985 325.82 260.145 325.82C259.335 325.82 258.36 325.85 257.22 325.91C256.2 325.97 255.375 326 254.745 326C254.625 326 254.565 325.91 254.565 325.73C254.565 325.55 254.625 325.46 254.745 325.46C255.585 325.46 256.29 325.295 256.86 324.965C257.43 324.605 258 323.99 258.57 323.12C259.14 322.22 259.815 320.9 260.595 319.16L270.36 297.695C270.42 297.605 270.555 297.56 270.765 297.56C271.005 297.56 271.14 297.605 271.17 297.695L282.42 319.835C283.47 321.965 284.34 323.435 285.03 324.245C285.72 325.055 286.44 325.46 287.19 325.46ZM264.15 314.435H273.96L268.785 304.175L264.15 314.435ZM318.425 297.38C319.835 297.38 321.26 297.5 322.7 297.74C324.17 297.95 325.34 298.235 326.21 298.595C326.48 298.685 326.645 298.805 326.705 298.955C326.795 299.075 326.855 299.3 326.885 299.63L327.47 305.885C327.47 305.975 327.395 306.035 327.245 306.065C327.095 306.095 326.99 306.05 326.93 305.93C326.09 303.47 324.89 301.595 323.33 300.305C321.77 298.985 319.895 298.325 317.705 298.325C315.665 298.325 313.835 298.88 312.215 299.99C310.625 301.07 309.365 302.63 308.435 304.67C307.535 306.71 307.085 309.095 307.085 311.825C307.085 314.585 307.55 317.015 308.48 319.115C309.44 321.185 310.745 322.79 312.395 323.93C314.075 325.04 315.995 325.595 318.155 325.595C320.225 325.595 321.965 325.04 323.375 323.93C324.785 322.79 326.12 320.93 327.38 318.35C327.41 318.26 327.5 318.23 327.65 318.26C327.8 318.29 327.875 318.35 327.875 318.44L327.2 324.02C327.14 324.38 327.08 324.62 327.02 324.74C326.96 324.83 326.795 324.935 326.525 325.055C323.765 326.045 320.975 326.54 318.155 326.54C314.945 326.54 312.065 325.94 309.515 324.74C306.995 323.51 305.015 321.8 303.575 319.61C302.135 317.42 301.415 314.93 301.415 312.14C301.415 309.29 302.15 306.755 303.62 304.535C305.12 302.285 307.16 300.53 309.74 299.27C312.35 298.01 315.245 297.38 318.425 297.38ZM372.32 325.46C372.41 325.46 372.455 325.55 372.455 325.73C372.455 325.91 372.41 326 372.32 326H367.28C366.8 326 366.395 326.015 366.065 326.045C365.735 326.075 365.465 326.09 365.255 326.09C364.775 326.09 364.355 325.985 363.995 325.775C363.665 325.535 363.245 325.115 362.735 324.515C362.255 323.915 361.385 322.76 360.125 321.05C359.975 320.84 359.795 320.615 359.585 320.375C359.405 320.105 359.195 319.805 358.955 319.475L353.06 311.555L352.07 312.545V322.355C352.07 323.285 352.145 323.96 352.295 324.38C352.445 324.8 352.73 325.085 353.15 325.235C353.6 325.385 354.305 325.46 355.265 325.46C355.385 325.46 355.445 325.55 355.445 325.73C355.445 325.91 355.385 326 355.265 326C354.275 326 353.495 325.985 352.925 325.955L349.55 325.91L346.22 325.955C345.62 325.985 344.81 326 343.79 326C343.73 326 343.7 325.91 343.7 325.73C343.7 325.55 343.73 325.46 343.79 325.46C344.75 325.46 345.455 325.385 345.905 325.235C346.355 325.085 346.655 324.8 346.805 324.38C346.985 323.93 347.075 323.255 347.075 322.355V301.52C347.075 300.62 346.985 299.96 346.805 299.54C346.655 299.12 346.355 298.835 345.905 298.685C345.485 298.505 344.81 298.415 343.88 298.415C343.79 298.415 343.745 298.325 343.745 298.145C343.745 297.965 343.79 297.875 343.88 297.875L346.265 297.92C347.645 297.98 348.74 298.01 349.55 298.01C350.45 298.01 351.59 297.98 352.97 297.92L355.265 297.875C355.355 297.875 355.4 297.965 355.4 298.145C355.4 298.325 355.355 298.415 355.265 298.415C354.335 298.415 353.645 298.505 353.195 298.685C352.775 298.865 352.475 299.18 352.295 299.63C352.145 300.05 352.07 300.71 352.07 301.61V311.15L360.53 302.51C361.4 301.64 361.835 300.845 361.835 300.125C361.835 299.585 361.595 299.165 361.115 298.865C360.635 298.565 359.96 298.415 359.09 298.415C359 298.415 358.955 298.325 358.955 298.145C358.955 297.965 359 297.875 359.09 297.875L361.205 297.92C362.525 297.98 363.755 298.01 364.895 298.01C366.125 298.01 367.4 297.98 368.72 297.92L370.745 297.875C370.835 297.875 370.88 297.965 370.88 298.145C370.88 298.325 370.835 298.415 370.745 298.415C369.365 298.415 367.85 298.82 366.2 299.63C364.55 300.41 363.05 301.46 361.7 302.78L356.615 307.955L363.275 316.955C365.225 319.745 366.68 321.725 367.64 322.895C368.63 324.035 369.425 324.755 370.025 325.055C370.625 325.325 371.39 325.46 372.32 325.46ZM26.1743 380.18C25.2143 380.18 24.0743 380.135 22.7543 380.045C22.2743 380.015 21.6743 379.985 20.9543 379.955C20.2643 379.925 19.4843 379.91 18.6143 379.91L15.2843 379.955C14.6843 379.985 13.8743 380 12.8543 380C12.7943 380 12.7643 379.91 12.7643 379.73C12.7643 379.55 12.7943 379.46 12.8543 379.46C13.8143 379.46 14.5193 379.385 14.9693 379.235C15.4193 379.085 15.7193 378.8 15.8693 378.38C16.0493 377.93 16.1393 377.255 16.1393 376.355V355.52C16.1393 354.62 16.0493 353.96 15.8693 353.54C15.7193 353.12 15.4193 352.835 14.9693 352.685C14.5493 352.505 13.8743 352.415 12.9443 352.415C12.8543 352.415 12.8093 352.325 12.8093 352.145C12.8093 351.965 12.8543 351.875 12.9443 351.875L15.3293 351.92C16.7093 351.98 17.8043 352.01 18.6143 352.01C19.8443 352.01 21.1043 351.965 22.3943 351.875C23.9543 351.815 25.0043 351.785 25.5443 351.785C28.5743 351.785 31.2593 352.385 33.5993 353.585C35.9693 354.785 37.7993 356.42 39.0893 358.49C40.3793 360.56 41.0243 362.885 41.0243 365.465C41.0243 368.375 40.3493 370.955 38.9993 373.205C37.6793 375.425 35.8793 377.15 33.5993 378.38C31.3493 379.58 28.8743 380.18 26.1743 380.18ZM25.7243 379.145C27.6443 379.145 29.3393 378.665 30.8093 377.705C32.2793 376.715 33.4193 375.26 34.2293 373.34C35.0693 371.42 35.4893 369.125 35.4893 366.455C35.4893 363.905 35.0993 361.595 34.3193 359.525C33.5393 357.425 32.4293 355.775 30.9893 354.575C29.5493 353.375 27.8843 352.775 25.9943 352.775C24.1343 352.775 22.8593 352.955 22.1693 353.315C21.4793 353.675 21.1343 354.44 21.1343 355.61V375.86C21.1343 377.06 21.4493 377.915 22.0793 378.425C22.7093 378.905 23.9243 379.145 25.7243 379.145ZM78.1528 372.845C78.1528 372.785 78.2128 372.755 78.3328 372.755C78.4228 372.755 78.4978 372.785 78.5578 372.845C78.6478 372.875 78.6928 372.905 78.6928 372.935C78.3928 375.275 78.2428 377.405 78.2428 379.325C78.2428 379.565 78.1978 379.745 78.1078 379.865C78.0178 379.955 77.8378 380 77.5678 380H57.6778C57.5878 380 57.5428 379.91 57.5428 379.73C57.5428 379.55 57.5878 379.46 57.6778 379.46C58.6378 379.46 59.3278 379.385 59.7478 379.235C60.1978 379.085 60.4978 378.8 60.6478 378.38C60.7978 377.93 60.8728 377.255 60.8728 376.355V355.52C60.8728 354.62 60.7978 353.96 60.6478 353.54C60.4978 353.12 60.1978 352.835 59.7478 352.685C59.2978 352.505 58.6078 352.415 57.6778 352.415C57.5878 352.415 57.5428 352.325 57.5428 352.145C57.5428 351.965 57.5878 351.875 57.6778 351.875H76.7578C77.0578 351.875 77.2078 352.01 77.2078 352.28L77.2978 358.265C77.2978 358.325 77.2078 358.37 77.0278 358.4C76.8778 358.43 76.7878 358.4 76.7578 358.31C76.2778 356.57 75.4678 355.28 74.3278 354.44C73.1878 353.6 71.6878 353.18 69.8278 353.18H68.4778C67.5778 353.18 66.9178 353.375 66.4978 353.765C66.0778 354.155 65.8678 354.755 65.8678 355.565V364.745H69.6028C71.3428 364.745 72.6778 364.445 73.6078 363.845C74.5378 363.245 75.0028 362.405 75.0028 361.325C75.0028 361.235 75.0778 361.19 75.2278 361.19C75.4078 361.19 75.4978 361.235 75.4978 361.325L75.4528 365.375L75.4978 367.535C75.5578 368.555 75.5878 369.365 75.5878 369.965C75.5878 370.025 75.4978 370.055 75.3178 370.055C75.1378 370.055 75.0478 370.025 75.0478 369.965C75.0478 368.735 74.5678 367.775 73.6078 367.085C72.6778 366.365 71.3278 366.005 69.5578 366.005H65.8678V376.175C65.8678 377.045 66.0328 377.69 66.3628 378.11C66.6928 378.53 67.2178 378.74 67.9378 378.74H69.4228C71.7628 378.74 73.6378 378.26 75.0478 377.3C76.4578 376.34 77.4928 374.855 78.1528 372.845ZM123.187 351.875C123.277 351.875 123.322 351.965 123.322 352.145C123.322 352.325 123.277 352.415 123.187 352.415C122.107 352.415 121.072 352.895 120.082 353.855C119.092 354.815 118.297 356.105 117.697 357.725L109.372 379.955C109.342 380.075 109.177 380.135 108.877 380.135C108.577 380.135 108.412 380.075 108.382 379.955L96.9069 355.61C96.3669 354.53 95.8269 353.735 95.2869 353.225C94.7469 352.685 94.1469 352.415 93.4869 352.415C93.3969 352.415 93.3519 352.325 93.3519 352.145C93.3519 351.965 93.3969 351.875 93.4869 351.875C93.9369 351.875 94.2519 351.89 94.4319 351.92C95.0319 351.98 95.8119 352.01 96.7719 352.01C99.3519 352.01 101.542 351.98 103.342 351.92C103.822 351.89 104.422 351.875 105.142 351.875C105.232 351.875 105.277 351.965 105.277 352.145C105.277 352.325 105.232 352.415 105.142 352.415C104.242 352.415 103.537 352.61 103.027 353C102.547 353.36 102.307 353.885 102.307 354.575C102.307 355.085 102.472 355.7 102.802 356.42L110.587 373.025L116.437 357.59C116.737 356.75 116.887 356.03 116.887 355.43C116.887 354.5 116.602 353.765 116.032 353.225C115.492 352.685 114.697 352.415 113.647 352.415C113.557 352.415 113.512 352.325 113.512 352.145C113.512 351.965 113.557 351.875 113.647 351.875L115.852 351.92C117.112 351.98 118.237 352.01 119.227 352.01C119.797 352.01 120.502 351.98 121.342 351.92L123.187 351.875ZM157.889 372.845C157.889 372.785 157.949 372.755 158.069 372.755C158.159 372.755 158.234 372.785 158.294 372.845C158.384 372.875 158.429 372.905 158.429 372.935C158.129 375.275 157.979 377.405 157.979 379.325C157.979 379.565 157.934 379.745 157.844 379.865C157.754 379.955 157.574 380 157.304 380H137.414C137.324 380 137.279 379.91 137.279 379.73C137.279 379.55 137.324 379.46 137.414 379.46C138.374 379.46 139.064 379.385 139.484 379.235C139.934 379.085 140.234 378.8 140.384 378.38C140.534 377.93 140.609 377.255 140.609 376.355V355.52C140.609 354.62 140.534 353.96 140.384 353.54C140.234 353.12 139.934 352.835 139.484 352.685C139.034 352.505 138.344 352.415 137.414 352.415C137.324 352.415 137.279 352.325 137.279 352.145C137.279 351.965 137.324 351.875 137.414 351.875H156.494C156.794 351.875 156.944 352.01 156.944 352.28L157.034 358.265C157.034 358.325 156.944 358.37 156.764 358.4C156.614 358.43 156.524 358.4 156.494 358.31C156.014 356.57 155.204 355.28 154.064 354.44C152.924 353.6 151.424 353.18 149.564 353.18H148.214C147.314 353.18 146.654 353.375 146.234 353.765C145.814 354.155 145.604 354.755 145.604 355.565V364.745H149.339C151.079 364.745 152.414 364.445 153.344 363.845C154.274 363.245 154.739 362.405 154.739 361.325C154.739 361.235 154.814 361.19 154.964 361.19C155.144 361.19 155.234 361.235 155.234 361.325L155.189 365.375L155.234 367.535C155.294 368.555 155.324 369.365 155.324 369.965C155.324 370.025 155.234 370.055 155.054 370.055C154.874 370.055 154.784 370.025 154.784 369.965C154.784 368.735 154.304 367.775 153.344 367.085C152.414 366.365 151.064 366.005 149.294 366.005H145.604V376.175C145.604 377.045 145.769 377.69 146.099 378.11C146.429 378.53 146.954 378.74 147.674 378.74H149.159C151.499 378.74 153.374 378.26 154.784 377.3C156.194 376.34 157.229 374.855 157.889 372.845ZM182.583 376.175C182.583 376.955 182.643 377.525 182.763 377.885C182.883 378.215 183.108 378.44 183.438 378.56C183.798 378.68 184.368 378.74 185.148 378.74H186.678C189.018 378.74 191.043 378.125 192.753 376.895C194.463 375.635 195.603 373.94 196.173 371.81C196.173 371.75 196.233 371.72 196.353 371.72C196.413 371.72 196.473 371.75 196.533 371.81C196.623 371.84 196.668 371.87 196.668 371.9C196.398 374.87 196.263 377.345 196.263 379.325C196.263 379.565 196.203 379.745 196.083 379.865C195.993 379.955 195.828 380 195.588 380H174.348C174.288 380 174.258 379.91 174.258 379.73C174.258 379.55 174.288 379.46 174.348 379.46C175.308 379.46 175.998 379.385 176.418 379.235C176.868 379.085 177.168 378.8 177.318 378.38C177.498 377.93 177.588 377.255 177.588 376.355V355.52C177.588 354.62 177.498 353.96 177.318 353.54C177.168 353.12 176.868 352.835 176.418 352.685C175.968 352.505 175.278 352.415 174.348 352.415C174.288 352.415 174.258 352.325 174.258 352.145C174.258 351.965 174.288 351.875 174.348 351.875L176.643 351.92C178.023 351.98 179.163 352.01 180.063 352.01C180.963 352.01 182.103 351.98 183.483 351.92L185.778 351.875C185.868 351.875 185.913 351.965 185.913 352.145C185.913 352.325 185.868 352.415 185.778 352.415C184.848 352.415 184.158 352.505 183.708 352.685C183.258 352.835 182.958 353.135 182.808 353.585C182.658 354.005 182.583 354.665 182.583 355.565V376.175ZM226.59 380.54C223.8 380.54 221.31 379.895 219.12 378.605C216.96 377.285 215.28 375.515 214.08 373.295C212.91 371.045 212.325 368.6 212.325 365.96C212.325 362.87 213.105 360.23 214.665 358.04C216.225 355.82 218.22 354.155 220.65 353.045C223.11 351.935 225.615 351.38 228.165 351.38C231.015 351.38 233.52 352.055 235.68 353.405C237.84 354.725 239.49 356.48 240.63 358.67C241.8 360.86 242.385 363.185 242.385 365.645C242.385 368.375 241.665 370.88 240.225 373.16C238.785 375.44 236.85 377.24 234.42 378.56C232.02 379.88 229.41 380.54 226.59 380.54ZM228.075 379.415C229.755 379.415 231.255 378.935 232.575 377.975C233.925 376.985 234.975 375.56 235.725 373.7C236.475 371.81 236.85 369.56 236.85 366.95C236.85 364.19 236.43 361.73 235.59 359.57C234.75 357.38 233.535 355.67 231.945 354.44C230.355 353.21 228.495 352.595 226.365 352.595C223.635 352.595 221.535 353.63 220.065 355.7C218.595 357.74 217.86 360.605 217.86 364.295C217.86 367.205 218.295 369.815 219.165 372.125C220.065 374.405 221.28 376.19 222.81 377.48C224.37 378.77 226.125 379.415 228.075 379.415ZM266.893 376.175C266.893 377.135 266.998 377.84 267.208 378.29C267.418 378.71 267.808 379.01 268.378 379.19C268.978 379.37 269.923 379.46 271.213 379.46C271.303 379.46 271.348 379.55 271.348 379.73C271.348 379.91 271.303 380 271.213 380C269.983 380 269.023 379.985 268.333 379.955L264.418 379.91L261.133 379.955C260.533 379.985 259.723 380 258.703 380C258.613 380 258.568 379.91 258.568 379.73C258.568 379.55 258.613 379.46 258.703 379.46C259.663 379.46 260.353 379.385 260.773 379.235C261.223 379.085 261.523 378.8 261.673 378.38C261.823 377.93 261.898 377.255 261.898 376.355V355.52C261.898 354.62 261.823 353.96 261.673 353.54C261.523 353.12 261.223 352.835 260.773 352.685C260.323 352.505 259.633 352.415 258.703 352.415C258.613 352.415 258.568 352.325 258.568 352.145C258.568 351.965 258.613 351.875 258.703 351.875L261.088 351.92C262.468 351.98 263.563 352.01 264.373 352.01C265.093 352.01 265.948 351.965 266.938 351.875C267.328 351.845 267.823 351.815 268.423 351.785C269.023 351.755 269.713 351.74 270.493 351.74C273.553 351.74 275.968 352.385 277.738 353.675C279.508 354.935 280.393 356.9 280.393 359.57C280.393 361.43 279.913 363.005 278.953 364.295C277.993 365.585 276.748 366.56 275.218 367.22C273.718 367.88 272.173 368.21 270.583 368.21C269.773 368.21 269.068 368.135 268.468 367.985C268.408 367.985 268.378 367.91 268.378 367.76C268.378 367.67 268.393 367.58 268.423 367.49C268.483 367.4 268.543 367.37 268.603 367.4C269.053 367.52 269.563 367.58 270.133 367.58C271.513 367.58 272.653 366.935 273.553 365.645C274.483 364.355 274.948 362.525 274.948 360.155C274.948 357.785 274.438 355.955 273.418 354.665C272.428 353.375 270.973 352.73 269.053 352.73C268.213 352.73 267.643 352.925 267.343 353.315C267.043 353.705 266.893 354.47 266.893 355.61V376.175ZM316.966 372.845C316.966 372.785 317.026 372.755 317.146 372.755C317.236 372.755 317.311 372.785 317.371 372.845C317.461 372.875 317.506 372.905 317.506 372.935C317.206 375.275 317.056 377.405 317.056 379.325C317.056 379.565 317.011 379.745 316.921 379.865C316.831 379.955 316.651 380 316.381 380H296.491C296.401 380 296.356 379.91 296.356 379.73C296.356 379.55 296.401 379.46 296.491 379.46C297.451 379.46 298.141 379.385 298.561 379.235C299.011 379.085 299.311 378.8 299.461 378.38C299.611 377.93 299.686 377.255 299.686 376.355V355.52C299.686 354.62 299.611 353.96 299.461 353.54C299.311 353.12 299.011 352.835 298.561 352.685C298.111 352.505 297.421 352.415 296.491 352.415C296.401 352.415 296.356 352.325 296.356 352.145C296.356 351.965 296.401 351.875 296.491 351.875H315.571C315.871 351.875 316.021 352.01 316.021 352.28L316.111 358.265C316.111 358.325 316.021 358.37 315.841 358.4C315.691 358.43 315.601 358.4 315.571 358.31C315.091 356.57 314.281 355.28 313.141 354.44C312.001 353.6 310.501 353.18 308.641 353.18H307.291C306.391 353.18 305.731 353.375 305.311 353.765C304.891 354.155 304.681 354.755 304.681 355.565V364.745H308.416C310.156 364.745 311.491 364.445 312.421 363.845C313.351 363.245 313.816 362.405 313.816 361.325C313.816 361.235 313.891 361.19 314.041 361.19C314.221 361.19 314.311 361.235 314.311 361.325L314.266 365.375L314.311 367.535C314.371 368.555 314.401 369.365 314.401 369.965C314.401 370.025 314.311 370.055 314.131 370.055C313.951 370.055 313.861 370.025 313.861 369.965C313.861 368.735 313.381 367.775 312.421 367.085C311.491 366.365 310.141 366.005 308.371 366.005H304.681V376.175C304.681 377.045 304.846 377.69 305.176 378.11C305.506 378.53 306.031 378.74 306.751 378.74H308.236C310.576 378.74 312.451 378.26 313.861 377.3C315.271 376.34 316.306 374.855 316.966 372.845ZM363.935 379.46C363.995 379.46 364.025 379.55 364.025 379.73C364.025 379.91 363.995 380 363.935 380H355.925C355.265 380 354.035 378.815 352.235 376.445C350.435 374.045 348.26 370.7 345.71 366.41C345.47 366.44 345.125 366.455 344.675 366.455C343.505 366.455 342.68 366.44 342.2 366.41V376.355C342.2 377.285 342.275 377.96 342.425 378.38C342.575 378.8 342.86 379.085 343.28 379.235C343.73 379.385 344.435 379.46 345.395 379.46C345.455 379.46 345.485 379.55 345.485 379.73C345.485 379.91 345.455 380 345.395 380C344.405 380 343.625 379.985 343.055 379.955L339.635 379.91L336.35 379.955C335.75 379.985 334.94 380 333.92 380C333.83 380 333.785 379.91 333.785 379.73C333.785 379.55 333.83 379.46 333.92 379.46C334.88 379.46 335.57 379.385 335.99 379.235C336.44 379.085 336.74 378.8 336.89 378.38C337.07 377.93 337.16 377.255 337.16 376.355V355.52C337.16 354.62 337.085 353.96 336.935 353.54C336.785 353.12 336.485 352.835 336.035 352.685C335.585 352.505 334.895 352.415 333.965 352.415C333.905 352.415 333.875 352.325 333.875 352.145C333.875 351.965 333.905 351.875 333.965 351.875L336.35 351.92C337.73 351.98 338.825 352.01 339.635 352.01C340.655 352.01 341.72 351.965 342.83 351.875C343.22 351.845 343.7 351.815 344.27 351.785C344.87 351.755 345.53 351.74 346.25 351.74C348.98 351.74 351.095 352.25 352.595 353.27C354.095 354.26 354.845 355.655 354.845 357.455C354.845 359.105 354.395 360.605 353.495 361.955C352.595 363.275 351.395 364.34 349.895 365.15C352.295 368.75 354.305 371.57 355.925 373.61C357.545 375.65 358.985 377.135 360.245 378.065C361.505 378.995 362.735 379.46 363.935 379.46ZM342.2 365.15C342.92 365.27 343.79 365.33 344.81 365.33C346.55 365.33 347.795 364.85 348.545 363.89C349.325 362.9 349.715 361.325 349.715 359.165C349.715 356.705 349.355 355.01 348.635 354.08C347.915 353.15 346.88 352.685 345.53 352.685C344.33 352.685 343.475 352.91 342.965 353.36C342.455 353.81 342.2 354.56 342.2 355.61V365.15Z" fill="#4971FF"/>
</svg>
