<svg xmlns="http://www.w3.org/2000/svg" width="1337" height="379" fill="none" xmlns:v="https://vecta.io/nano"><path stroke="#1b1b1b" stroke-width="3" stroke-linecap="round" d="M904.5 265.5h427"/><path d="M488.88 270.23c0-.04.04-.06.12-.06.06 0 .11.02.15.06.06.02.09.04.09.06-.2 1.56-.3 2.98-.3 4.26 0 .16-.03.28-.09.36-.06.06-.18.09-.36.09h-13.26c-.06 0-.09-.06-.09-.18s.03-.18.09-.18c.64 0 1.1-.05 1.38-.15a.9.9 0 0 0 .6-.57c.1-.3.15-.75.15-1.35v-13.89c0-.6-.05-1.04-.15-1.32a.9.9 0 0 0-.6-.57c-.3-.12-.76-.18-1.38-.18-.06 0-.09-.06-.09-.18s.03-.18.09-.18h12.72c.2 0 .3.09.3.27l.06 3.99c0 .04-.06.07-.18.09-.1.02-.16 0-.18-.06-.32-1.16-.86-2.02-1.62-2.58s-1.76-.84-3-.84h-.9c-.6 0-1.04.13-1.32.39s-.42.66-.42 1.2v6.12h2.49c1.16 0 2.05-.2 2.67-.6a1.89 1.89 0 0 0 .93-1.68c0-.06.05-.09.15-.09.12 0 .18.03.18.09l-.03 2.7.03 1.44.06 1.62c0 .04-.06.06-.18.06s-.18-.02-.18-.06c0-.82-.32-1.46-.96-1.92-.62-.48-1.52-.72-2.7-.72h-2.46v6.78c0 .58.11 1.01.33 1.29s.57.42 1.05.42h.99c1.56 0 2.81-.32 3.75-.96s1.63-1.63 2.07-2.97zm32.993 4.41c.06 0 .09.06.09.18s-.03.18-.09.18a23.1 23.1 0 0 1-1.35-.03l-1.8-.03-2.46.03-1.59.03c-.06 0-.09-.06-.09-.18s.03-.18.09-.18c.66 0 .99-.17.99-.51 0-.18-.09-.4-.27-.66l-4.11-6.36-2.58 3.69c-.78 1.1-1.17 1.99-1.17 2.67 0 .78.52 1.17 1.56 1.17.04 0 .06.06.06.18s-.02.18-.06.18c-.66 0-1.16-.01-1.5-.03l-2.22-.03-1.41.03a18.49 18.49 0 0 1-1.26.03c-.06 0-.09-.06-.09-.18s.03-.18.09-.18c.62 0 1.38-.33 2.28-.99s1.84-1.67 2.82-3.03l3.06-4.14-4.8-7.47c-.54-.86-1.06-1.47-1.56-1.83-.5-.38-1.03-.57-1.59-.57-.06 0-.09-.06-.09-.18s.03-.18.09-.18l1.29.03 1.26.06 2.61-.06 1.71-.03c.04 0 .06.06.06.18s-.02.18-.06.18c-.68 0-1.02.17-1.02.51 0 .16.09.39.27.69l3.96 6.09 2.4-3.42c.78-1.12 1.17-2.02 1.17-2.7 0-.78-.52-1.17-1.56-1.17-.04 0-.06-.06-.06-.18s.02-.18.06-.18l1.5.03 2.22.06 1.41-.06 1.26-.03c.06 0 .09.06.09.18s-.03.18-.09.18c-.64 0-1.41.34-2.31 1.02-.88.66-1.82 1.67-2.82 3.03l-2.85 3.9 5.13 7.95c.5.74 1.01 1.28 1.53 1.62s1.12.51 1.8.51zm18.584-2.19c0 .64.07 1.11.21 1.41.14.28.4.48.78.6.4.12 1.03.18 1.89.18.06 0 .09.06.09.18s-.03.18-.09.18a47.03 47.03 0 0 1-1.92-.03l-2.61-.03-2.19.03-1.62.03c-.06 0-.09-.06-.09-.18s.03-.18.09-.18c.64 0 1.1-.05 1.38-.15a.9.9 0 0 0 .6-.57c.1-.3.15-.75.15-1.35v-13.89c0-.6-.05-1.04-.15-1.32a.9.9 0 0 0-.6-.57c-.3-.12-.76-.18-1.38-.18-.06 0-.09-.06-.09-.18s.03-.18.09-.18l1.59.03 2.19.06c.48 0 1.05-.03 1.71-.09l.99-.06 1.38-.03c2.04 0 3.65.43 4.83 1.29 1.18.84 1.77 2.15 1.77 3.93 0 1.24-.32 2.29-.96 3.15s-1.47 1.51-2.49 1.95c-1 .44-2.03.66-3.09.66-.54 0-1.01-.05-1.41-.15-.04 0-.06-.05-.06-.15 0-.06.01-.12.03-.18.04-.06.08-.08.12-.06.3.08.64.12 1.02.12.92 0 1.68-.43 2.28-1.29.62-.86.93-2.08.93-3.66s-.34-2.8-1.02-3.66c-.66-.86-1.63-1.29-2.91-1.29-.56 0-.94.13-1.14.39s-.3.77-.3 1.53v13.71zm36.982-2.22c0-.04.04-.06.12-.06.06 0 .11.02.15.06.06.02.09.04.09.06-.2 1.56-.3 2.98-.3 4.26 0 .16-.03.28-.09.36-.06.06-.18.09-.36.09h-13.26c-.06 0-.09-.06-.09-.18s.03-.18.09-.18c.64 0 1.1-.05 1.38-.15a.9.9 0 0 0 .6-.57c.1-.3.15-.75.15-1.35v-13.89c0-.6-.05-1.04-.15-1.32a.9.9 0 0 0-.6-.57c-.3-.12-.76-.18-1.38-.18-.06 0-.09-.06-.09-.18s.03-.18.09-.18h12.72c.2 0 .3.09.3.27l.06 3.99c0 .04-.06.07-.18.09-.1.02-.16 0-.18-.06-.32-1.16-.86-2.02-1.62-2.58s-1.76-.84-3-.84h-.9c-.6 0-1.04.13-1.32.39s-.42.66-.42 1.2v6.12h2.49c1.16 0 2.05-.2 2.67-.6a1.89 1.89 0 0 0 .93-1.68c0-.06.05-.09.15-.09.12 0 .18.03.18.09l-.03 2.7.03 1.44.06 1.62c0 .04-.06.06-.18.06s-.18-.02-.18-.06c0-.82-.32-1.46-.96-1.92-.62-.48-1.52-.72-2.7-.72h-2.46v6.78c0 .58.11 1.01.33 1.29s.57.42 1.05.42h.99c1.56 0 2.81-.32 3.75-.96s1.63-1.63 2.07-2.97zm34.912 4.41c.04 0 .06.06.06.18s-.02.18-.06.18h-5.34c-.44 0-1.26-.79-2.46-2.37-1.2-1.6-2.65-3.83-4.35-6.69-.16.02-.39.03-.69.03a30.62 30.62 0 0 1-1.65-.03v6.63c0 .62.05 1.07.15 1.35a.9.9 0 0 0 .57.57c.3.1.77.15 1.41.15.04 0 .06.06.06.18s-.02.18-.06.18c-.66 0-1.18-.01-1.56-.03l-2.28-.03-2.19.03-1.62.03c-.06 0-.09-.06-.09-.18s.03-.18.09-.18c.64 0 1.1-.05 1.38-.15a.9.9 0 0 0 .6-.57c.12-.3.18-.75.18-1.35v-13.89c0-.6-.05-1.04-.15-1.32a.9.9 0 0 0-.6-.57c-.3-.12-.76-.18-1.38-.18-.04 0-.06-.06-.06-.18s.02-.18.06-.18l1.59.03 2.19.06 2.13-.09.96-.06 1.32-.03c1.82 0 3.23.34 4.23 1.02 1 .66 1.5 1.59 1.5 2.79a5.29 5.29 0 0 1-.9 3c-.6.88-1.4 1.59-2.4 2.13l4.02 5.64c1.08 1.36 2.04 2.35 2.88 2.97s1.66.93 2.46.93zm-14.49-9.54c.48.08 1.06.12 1.74.12 1.16 0 1.99-.32 2.49-.96.52-.66.78-1.71.78-3.15 0-1.64-.24-2.77-.72-3.39s-1.17-.93-2.07-.93c-.8 0-1.37.15-1.71.45s-.51.8-.51 1.5v6.36zm33.008 7.47c0 .62.05 1.07.15 1.35a.9.9 0 0 0 .57.57c.3.1.77.15 1.41.15.06 0 .09.06.09.18s-.03.18-.09.18c-.66 0-1.18-.01-1.56-.03l-2.28-.03-2.22.03-1.62.03c-.04 0-.06-.06-.06-.18s.02-.18.06-.18c.64 0 1.11-.05 1.41-.15a.9.9 0 0 0 .6-.57c.12-.3.18-.75.18-1.35v-13.89c0-.6-.06-1.04-.18-1.32a.9.9 0 0 0-.6-.57c-.3-.12-.77-.18-1.41-.18-.04 0-.06-.06-.06-.18s.02-.18.06-.18l1.62.03 2.22.06 2.31-.06 1.53-.03c.06 0 .09.06.09.18s-.03.18-.09.18c-.62 0-1.08.06-1.38.18s-.5.33-.6.63c-.1.28-.15.72-.15 1.32v13.83zm30.324-2.34c0-.04.04-.06.119-.06a.2.2 0 0 1 .15.06c.061.02.091.04.091.06-.2 1.56-.3 2.98-.3 4.26 0 .16-.03.28-.09.36-.06.06-.18.09-.36.09h-13.26c-.06 0-.09-.06-.09-.18s.03-.18.09-.18c.64 0 1.1-.05 1.38-.15a.9.9 0 0 0 .6-.57c.1-.3.15-.75.15-1.35v-13.89c0-.6-.05-1.04-.15-1.32a.9.9 0 0 0-.6-.57c-.3-.12-.76-.18-1.38-.18-.06 0-.09-.06-.09-.18s.03-.18.09-.18h12.72c.2 0 .3.09.3.27l.06 3.99c0 .04-.06.07-.18.09-.1.02-.16 0-.18-.06-.32-1.16-.86-2.02-1.62-2.58s-1.76-.84-3-.84h-.9c-.6 0-1.04.13-1.32.39s-.42.66-.42 1.2v6.12h2.49c1.16 0 2.05-.2 2.67-.6a1.89 1.89 0 0 0 .93-1.68c0-.06.05-.09.15-.09.12 0 .18.03.18.09l-.03 2.7.03 1.44.06 1.62c0 .04-.06.06-.18.06s-.18-.02-.18-.06c0-.82-.32-1.46-.96-1.92-.62-.48-1.52-.72-2.7-.72h-2.46v6.78c0 .58.11 1.01.33 1.29s.57.42 1.05.42h.99c1.56 0 2.81-.32 3.75-.96s1.63-1.63 2.07-2.97zm35.362-13.98c.04 0 .06.06.06.18s-.02.18-.06.18a2.2 2.2 0 0 0-1.89.96c-.46.62-.69 1.46-.69 2.52v15.36c0 .06-.05.1-.15.12-.08.02-.14.01-.18-.03l-14.07-16.02v11.67c0 1.06.22 1.9.66 2.52s1.05.93 1.83.93c.04 0 .06.06.06.18s-.02.18-.06.18c-.56 0-.99-.01-1.29-.03l-1.62-.03-1.86.03-1.47.03c-.06 0-.09-.06-.09-.18s.03-.18.09-.18c.88 0 1.57-.31 2.07-.93.52-.62.78-1.46.78-2.52V258.5c-.66-.72-1.23-1.21-1.71-1.47a2.73 2.73 0 0 0-1.44-.42c-.04 0-.06-.06-.06-.18s.02-.18.06-.18l1.26.03c.26.02.64.03 1.14.03l2.28-.03 1.02-.03c.16 0 .28.04.36.12s.22.25.42.51l.72.93 10.38 11.97v-9.69c0-1.08-.22-1.93-.66-2.55s-1.05-.93-1.83-.93c-.04 0-.06-.06-.06-.18s.02-.18.06-.18l1.29.03 1.62.06 1.68-.06 1.35-.03zm25.181-.33c.94 0 1.89.08 2.85.24.98.14 1.76.33 2.34.57.18.06.29.14.33.24.06.08.1.23.12.45l.39 4.17c0 .06-.05.1-.15.12s-.17-.01-.21-.09c-.56-1.64-1.36-2.89-2.4-3.75-1.04-.88-2.29-1.32-3.75-1.32-1.36 0-2.58.37-3.66 1.11-1.06.72-1.9 1.76-2.52 3.12-.6 1.36-.9 2.95-.9 4.77 0 1.84.31 3.46.93 4.86.64 1.38 1.51 2.45 2.61 3.21 1.12.74 2.4 1.11 3.84 1.11 1.38 0 2.54-.37 3.48-1.11.94-.76 1.83-2 2.67-3.72.02-.06.08-.08.18-.06s.15.06.15.12l-.45 3.72c-.04.24-.08.4-.12.48-.04.06-.15.13-.33.21a16.42 16.42 0 0 1-5.58.99c-2.14 0-4.06-.4-5.76-1.2-1.68-.82-3-1.96-3.96-3.42s-1.44-3.12-1.44-4.98c0-1.9.49-3.59 1.47-5.07 1-1.5 2.36-2.67 4.08-3.51 1.74-.84 3.67-1.26 5.79-1.26zm34.49 14.31c0-.04.04-.06.12-.06.06 0 .11.02.15.06.06.02.09.04.09.06-.2 1.56-.3 2.98-.3 4.26 0 .16-.03.28-.09.36-.06.06-.18.09-.36.09h-13.26c-.06 0-.09-.06-.09-.18s.03-.18.09-.18c.64 0 1.1-.05 1.38-.15a.9.9 0 0 0 .6-.57c.1-.3.15-.75.15-1.35v-13.89c0-.6-.05-1.04-.15-1.32a.9.9 0 0 0-.6-.57c-.3-.12-.76-.18-1.38-.18-.06 0-.09-.06-.09-.18s.03-.18.09-.18h12.72c.2 0 .3.09.3.27l.06 3.99c0 .04-.06.07-.18.09-.1.02-.16 0-.18-.06-.32-1.16-.86-2.02-1.62-2.58s-1.76-.84-3-.84h-.9c-.6 0-1.04.13-1.32.39s-.42.66-.42 1.2v6.12h2.49c1.16 0 2.05-.2 2.67-.6a1.89 1.89 0 0 0 .93-1.68c0-.06.05-.09.15-.09.12 0 .18.03.18.09l-.03 2.7.03 1.44.06 1.62c0 .04-.06.06-.18.06s-.18-.02-.18-.06c0-.82-.32-1.46-.96-1.92-.62-.48-1.52-.72-2.7-.72h-2.46v6.78c0 .58.11 1.01.33 1.29s.57.42 1.05.42h.99c1.56 0 2.81-.32 3.75-.96s1.63-1.63 2.07-2.97zm23.452 4.89c-.64 0-1.4-.03-2.28-.09l-1.2-.06-1.56-.03-2.22.03-1.62.03c-.04 0-.06-.06-.06-.18s.02-.18.06-.18c.64 0 1.11-.05 1.41-.15a.9.9 0 0 0 .6-.57c.12-.3.18-.75.18-1.35v-13.89c0-.6-.06-1.04-.18-1.32a.9.9 0 0 0-.6-.57c-.28-.12-.73-.18-1.35-.18-.06 0-.09-.06-.09-.18s.03-.18.09-.18l1.59.03 2.19.06 2.52-.09 2.1-.06c2.02 0 3.81.4 5.37 1.2 1.58.8 2.8 1.89 3.66 3.27s1.29 2.93 1.29 4.65c0 1.94-.45 3.66-1.35 5.16-.88 1.48-2.08 2.63-3.6 3.45-1.5.8-3.15 1.2-4.95 1.2zm-.3-.69c1.28 0 2.41-.32 3.39-.96.98-.66 1.74-1.63 2.28-2.91.56-1.28.84-2.81.84-4.59 0-1.7-.26-3.24-.78-4.62-.52-1.4-1.26-2.5-2.22-3.3s-2.07-1.2-3.33-1.2c-1.24 0-2.09.12-2.55.36s-.69.75-.69 1.53v13.5c0 .8.21 1.37.63 1.71.42.32 1.23.48 2.43.48zm49.514-1.86c0 .62.05 1.07.15 1.35a.9.9 0 0 0 .57.57c.3.1.77.15 1.41.15.06 0 .09.06.09.18s-.03.18-.09.18c-.66 0-1.18-.01-1.56-.03l-2.28-.03-2.22.03-1.62.03c-.04 0-.06-.06-.06-.18s.02-.18.06-.18c.64 0 1.11-.05 1.41-.15a.9.9 0 0 0 .6-.57c.12-.3.18-.75.18-1.35v-13.89c0-.6-.06-1.04-.18-1.32a.9.9 0 0 0-.6-.57c-.3-.12-.77-.18-1.41-.18-.04 0-.06-.06-.06-.18s.02-.18.06-.18l1.62.03 2.22.06 2.31-.06 1.53-.03c.06 0 .09.06.09.18s-.03.18-.09.18c-.62 0-1.08.06-1.38.18s-.5.33-.6.63c-.1.28-.15.72-.15 1.32v13.83zm37.134-16.32c.04 0 .06.06.06.18s-.02.18-.06.18a2.2 2.2 0 0 0-1.89.96c-.46.62-.69 1.46-.69 2.52v15.36c0 .06-.05.1-.15.12-.08.02-.14.01-.18-.03l-14.07-16.02v11.67c0 1.06.22 1.9.66 2.52s1.05.93 1.83.93c.04 0 .06.06.06.18s-.02.18-.06.18c-.56 0-.99-.01-1.29-.03l-1.62-.03-1.86.03-1.47.03c-.06 0-.09-.06-.09-.18s.03-.18.09-.18c.88 0 1.57-.31 2.07-.93.52-.62.78-1.46.78-2.52V258.5c-.66-.72-1.23-1.21-1.71-1.47a2.73 2.73 0 0 0-1.44-.42c-.04 0-.06-.06-.06-.18s.02-.18.06-.18l1.26.03c.26.02.64.03 1.14.03l2.28-.03 1.02-.03c.16 0 .28.04.36.12s.22.25.42.51l.72.93 10.38 11.97v-9.69c0-1.08-.22-1.93-.66-2.55s-1.05-.93-1.83-.93c-.04 0-.06-.06-.06-.18s.02-.18.06-.18l1.29.03 1.62.06 1.68-.06 1.35-.03z" fill="#1b1b1b"/><path stroke="#1b1b1b" stroke-width="3" stroke-linecap="round" d="M9.5 265.5h427"/><g fill="#4971ff"><path d="M34.62 333.02c0 .08-.12.14-.36.18-.2.04-.32 0-.36-.12-.64-2.32-1.72-4.04-3.24-5.16s-3.52-1.68-6-1.68h-1.8c-1.2 0-2.08.26-2.64.78s-.84 1.32-.84 2.4v12.96h4.32c2.32 0 4.08-.4 5.28-1.2 1.24-.84 1.86-1.98 1.86-3.42 0-.08.12-.12.36-.12s.36.04.36.12l-.06 5.46.06 2.88.06 3.18c0 .12-.12.18-.36.18s-.36-.06-.36-.18c0-1.6-.64-2.86-1.92-3.78-1.24-.96-3.02-1.44-5.34-1.44h-4.26v12.84c0 1.24.16 2.16.48 2.76s.92 1.02 1.8 1.26 2.26.36 4.14.36c.08 0 .12.12.12.36s-.04.36-.12.36c-1.64 0-2.92-.02-3.84-.06l-6.12-.06-4.5.06-3.3.06c-.12 0-.18-.12-.18-.36s.06-.36.18-.36c1.4 0 2.42-.1 3.06-.3s1.06-.58 1.26-1.14c.24-.6.36-1.5.36-2.7v-27.78c0-1.2-.1-2.08-.3-2.64s-.6-.94-1.2-1.14c-.6-.24-1.52-.36-2.76-.36-.12 0-.18-.12-.18-.36s.06-.36.18-.36H33.9c.4 0 .6.18.6.54l.12 7.98zm63.028-.84c0-2.16-.5-3.86-1.5-5.1-.96-1.24-2.32-1.86-4.08-1.86-.08 0-.12-.12-.12-.36s.04-.36.12-.36l2.88.06 3.66.12 3.3-.12 2.76-.06c.08 0 .12.12.12.36s-.04.36-.12.36c-1.56 0-2.78.62-3.66 1.86s-1.32 2.94-1.32 5.1v16.68c0 2.8-.62 5.26-1.86 7.38s-3 3.76-5.28 4.92c-2.24 1.12-4.84 1.68-7.8 1.68s-5.58-.56-7.86-1.68-4.08-2.74-5.4-4.86c-1.28-2.16-1.92-4.68-1.92-7.56v-19.38c0-1.2-.12-2.08-.36-2.64-.2-.56-.6-.94-1.2-1.14-.56-.24-1.46-.36-2.7-.36-.12 0-.18-.12-.18-.36s.06-.36.18-.36l3.18.06 4.38.12 4.56-.12 3.06-.06c.12 0 .18.12.18.36s-.06.36-.18.36c-1.24 0-2.16.12-2.76.36-.56.24-.96.66-1.2 1.26-.2.56-.3 1.44-.3 2.64v17.16c0 4.76.94 8.28 2.82 10.56s4.54 3.42 7.98 3.42c3.32 0 5.92-1 7.8-3 1.88-2.04 2.82-4.94 2.82-8.7v-16.74zm46.747 24.72c0 1.04.08 1.8.24 2.28.16.44.46.74.9.9.48.16 1.24.24 2.28.24h2.04c3.12 0 5.82-.82 8.1-2.46 2.28-1.68 3.8-3.94 4.56-6.78 0-.08.08-.12.24-.12.08 0 .16.04.24.12.12.04.18.08.18.12-.36 3.96-.54 7.26-.54 9.9 0 .32-.08.56-.24.72-.12.12-.34.18-.66.18h-28.32c-.08 0-.12-.12-.12-.36s.04-.36.12-.36c1.28 0 2.2-.1 2.76-.3.6-.2 1-.58 1.2-1.14.24-.6.36-1.5.36-2.7v-27.78c0-1.2-.12-2.08-.36-2.64-.2-.56-.6-.94-1.2-1.14-.6-.24-1.52-.36-2.76-.36-.08 0-.12-.12-.12-.36s.04-.36.12-.36l3.06.06c1.84.08 3.36.12 4.56.12s2.72-.04 4.56-.12l3.06-.06c.12 0 .18.12.18.36s-.06.36-.18.36c-1.24 0-2.16.12-2.76.36a1.8 1.8 0 0 0-1.2 1.2c-.2.56-.3 1.44-.3 2.64v27.48zm58.735 0c0 1.04.08 1.8.24 2.28.16.44.46.74.9.9.48.16 1.24.24 2.28.24h2.04c3.12 0 5.82-.82 8.1-2.46 2.28-1.68 3.8-3.94 4.56-6.78 0-.08.08-.12.24-.12.08 0 .16.04.24.12.12.04.18.08.18.12-.36 3.96-.54 7.26-.54 9.9 0 .32-.08.56-.24.72-.12.12-.34.18-.66.18h-28.32c-.08 0-.12-.12-.12-.36s.04-.36.12-.36c1.28 0 2.2-.1 2.76-.3.6-.2 1-.58 1.2-1.14.24-.6.36-1.5.36-2.7v-27.78c0-1.2-.12-2.08-.36-2.64-.2-.56-.6-.94-1.2-1.14-.6-.24-1.52-.36-2.76-.36-.08 0-.12-.12-.12-.36s.04-.36.12-.36l3.06.06c1.84.08 3.36.12 4.56.12s2.72-.04 4.56-.12l3.06-.06c.12 0 .18.12.18.36s-.06.36-.18.36c-1.24 0-2.16.12-2.76.36a1.8 1.8 0 0 0-1.2 1.2c-.2.56-.3 1.44-.3 2.64v27.48zm96.498-26.34c0 1.44.36 2.72 1.08 3.84.76 1.12 1.68 2.1 2.76 2.94s2.54 1.86 4.38 3.06c2 1.28 3.6 2.4 4.8 3.36s2.22 2.14 3.06 3.54c.84 1.36 1.26 2.94 1.26 4.74 0 2.08-.56 3.94-1.68 5.58-1.12 1.6-2.68 2.86-4.68 3.78-1.96.88-4.16 1.32-6.6 1.32-1.8 0-3.68-.24-5.64-.72-1.96-.52-3.28-1.08-3.96-1.68-.2-.16-.36-.3-.48-.42-.08-.16-.12-.4-.12-.72l-.18-9.54v-.06c0-.16.1-.24.3-.24.2-.04.32.02.36.18 1.2 2.44 2.24 4.42 3.12 5.94.92 1.52 2.06 2.86 3.42 4.02 1.4 1.16 2.98 1.74 4.74 1.74 1.6 0 2.92-.42 3.96-1.26 1.04-.88 1.56-2.36 1.56-4.44 0-1.76-.4-3.3-1.2-4.62-.76-1.32-1.7-2.44-2.82-3.36s-2.66-2.02-4.62-3.3c-1.92-1.24-3.42-2.3-4.5-3.18-1.04-.88-1.94-1.94-2.7-3.18s-1.14-2.7-1.14-4.38c0-2.12.6-3.9 1.8-5.34 1.24-1.48 2.82-2.56 4.74-3.24 1.92-.72 3.94-1.08 6.06-1.08a22.28 22.28 0 0 1 4.26.42c1.44.24 2.6.54 3.48.9.36.16.6.34.72.54.12.16.18.38.18.66v8.82c0 .12-.1.22-.3.3-.2.04-.32 0-.36-.12l-.48-1.14c-1-2.52-2.18-4.66-3.54-6.42-1.32-1.76-3.18-2.64-5.58-2.64-1.6 0-2.92.46-3.96 1.38-1 .92-1.5 2.26-1.5 4.02zm59.799-4.68c-4.76 0-8.18 3.1-10.26 9.3-.04.12-.16.18-.36.18-.2-.04-.3-.12-.3-.24l.54-6.18c.2-2.56.3-4.48.3-5.76 0-.2.1-.3.3-.3.24 0 .36.1.36.3 0 .88 1.14 1.32 3.42 1.32 3.44.12 7.46.18 12.06.18a248.19 248.19 0 0 0 7.5-.12l4.08-.06c1.52 0 2.62-.1 3.3-.3.72-.2 1.18-.6 1.38-1.2.04-.16.16-.24.36-.24.24 0 .36.08.36.24-.12 1.2-.26 3.12-.42 5.76-.12 2.64-.18 4.76-.18 6.36 0 .12-.1.18-.3.18s-.32-.06-.36-.18c-.6-3.08-1.72-5.38-3.36-6.9-1.64-1.56-3.66-2.34-6.06-2.34-1.16 0-1.94.26-2.34.78-.36.48-.54 1.42-.54 2.82v27.66c0 1.24.12 2.14.36 2.7s.7.94 1.38 1.14 1.76.3 3.24.3c.12 0 .18.12.18.36s-.06.36-.18.36c-1.44 0-2.58-.02-3.42-.06l-4.98-.06-4.86.06c-.84.04-2 .06-3.48.06-.12 0-.18-.12-.18-.36s.06-.36.18-.36c1.44 0 2.5-.1 3.18-.3.72-.2 1.2-.58 1.44-1.14.28-.6.42-1.5.42-2.7v-27.78c0-1.36-.18-2.28-.54-2.76s-1.1-.72-2.22-.72zm90.076 35.4c.2 0 .3.12.3.36s-.1.36-.3.36c-.8 0-2.04-.04-3.72-.12l-3.78-.12c-1 0-2.22.04-3.66.12a58.18 58.18 0 0 1-3.24.12c-.16 0-.24-.12-.24-.36s.08-.36.24-.36c1.04 0 1.78-.1 2.22-.3.48-.24.72-.64.72-1.2 0-.68-.4-1.82-1.2-3.42l-4.08-8.1h-14.76l-2.34 5.22c-.52 1.16-.78 2.24-.78 3.24 0 1.44.5 2.56 1.5 3.36 1.04.8 2.42 1.2 4.14 1.2.2 0 .3.12.3.36s-.1.36-.3.36c-.72 0-1.76-.04-3.12-.12a76.68 76.68 0 0 0-3.96-.12c-1.08 0-2.38.04-3.9.12-1.36.08-2.46.12-3.3.12-.16 0-.24-.12-.24-.36s.08-.36.24-.36c1.12 0 2.06-.22 2.82-.66.76-.48 1.52-1.3 2.28-2.46.76-1.2 1.66-2.96 2.7-5.28l13.02-28.62c.08-.12.26-.18.54-.18.32 0 .5.06.54.18l15 29.52c1.4 2.84 2.56 4.8 3.48 5.88s1.88 1.62 2.88 1.62zm-30.72-14.7h13.08l-6.9-13.68-6.18 13.68zm81.606-22.74c1.88 0 3.78.16 5.7.48 1.96.28 3.52.66 4.68 1.14.36.12.58.28.66.48.12.16.2.46.24.9l.78 8.34c0 .12-.1.2-.3.24s-.34-.02-.42-.18c-1.12-3.28-2.72-5.78-4.8-7.5-2.08-1.76-4.58-2.64-7.5-2.64-2.72 0-5.16.74-7.32 2.22-2.12 1.44-3.8 3.52-5.04 6.24-1.2 2.72-1.8 5.9-1.8 9.54 0 3.68.62 6.92 1.86 9.72 1.28 2.76 3.02 4.9 5.22 6.42 2.24 1.48 4.8 2.22 7.68 2.22 2.76 0 5.08-.74 6.96-2.22 1.88-1.52 3.66-4 5.34-7.44.04-.12.16-.16.36-.12s.3.12.3.24l-.9 7.44c-.08.48-.16.8-.24.96-.08.12-.3.26-.66.42-3.68 1.32-7.4 1.98-11.16 1.98-4.28 0-8.12-.8-11.52-2.4-3.36-1.64-6-3.92-7.92-6.84s-2.88-6.24-2.88-9.96c0-3.8.98-7.18 2.94-10.14 2-3 4.72-5.34 8.16-7.02 3.48-1.68 7.34-2.52 11.58-2.52zm81.1 37.44c.12 0 .18.12.18.36s-.06.36-.18.36h-6.72c-.64 0-1.18.02-1.62.06s-.8.06-1.08.06c-.64 0-1.2-.14-1.68-.42-.44-.32-1-.88-1.68-1.68-.64-.8-1.8-2.34-3.48-4.62-.2-.28-.44-.58-.72-.9a36.26 36.26 0 0 0-.84-1.2l-7.86-10.56-1.32 1.32v13.08c0 1.24.1 2.14.3 2.7s.58.94 1.14 1.14c.6.2 1.54.3 2.82.3.16 0 .24.12.24.36s-.08.36-.24.36c-1.32 0-2.36-.02-3.12-.06l-4.5-.06-4.44.06c-.8.04-1.88.06-3.24.06-.08 0-.12-.12-.12-.36s.04-.36.12-.36c1.28 0 2.22-.1 2.82-.3s1-.58 1.2-1.14c.24-.6.36-1.5.36-2.7v-27.78c0-1.2-.12-2.08-.36-2.64-.2-.56-.6-.94-1.2-1.14-.56-.24-1.46-.36-2.7-.36-.12 0-.18-.12-.18-.36s.06-.36.18-.36l3.18.06c1.84.08 3.3.12 4.38.12 1.2 0 2.72-.04 4.56-.12l3.06-.06c.12 0 .18.12.18.36s-.06.36-.18.36c-1.24 0-2.16.12-2.76.36-.56.24-.96.66-1.2 1.26-.2.56-.3 1.44-.3 2.64v12.72l11.28-11.52c1.16-1.16 1.74-2.22 1.74-3.18 0-.72-.32-1.28-.96-1.68s-1.54-.6-2.7-.6c-.12 0-.18-.12-.18-.36s.06-.36.18-.36l2.82.06c1.76.08 3.4.12 4.92.12a112.41 112.41 0 0 0 5.1-.12l2.7-.06c.12 0 .18.12.18.36s-.06.36-.18.36c-1.84 0-3.86.54-6.06 1.62-2.2 1.04-4.2 2.44-6 4.2l-6.78 6.9 8.88 12c2.6 3.72 4.54 6.36 5.82 7.92 1.32 1.52 2.38 2.48 3.18 2.88.8.36 1.82.54 3.06.54zm85.179.96c-1.28 0-2.8-.06-4.56-.18l-2.4-.12c-.92-.04-1.96-.06-3.12-.06l-4.44.06c-.8.04-1.88.06-3.24.06-.08 0-.12-.12-.12-.36s.04-.36.12-.36c1.28 0 2.22-.1 2.82-.3s1-.58 1.2-1.14c.24-.6.36-1.5.36-2.7v-27.78c0-1.2-.12-2.08-.36-2.64-.2-.56-.6-.94-1.2-1.14-.56-.24-1.46-.36-2.7-.36-.12 0-.18-.12-.18-.36s.06-.36.18-.36l3.18.06c1.84.08 3.3.12 4.38.12a72.43 72.43 0 0 0 5.04-.18l4.2-.12c4.04 0 7.62.8 10.74 2.4 3.16 1.6 5.6 3.78 7.32 6.54s2.58 5.86 2.58 9.3c0 3.88-.9 7.32-2.7 10.32a18.37 18.37 0 0 1-7.2 6.9c-3 1.6-6.3 2.4-9.9 2.4zm-.6-1.38c2.56 0 4.82-.64 6.78-1.92 1.96-1.32 3.48-3.26 4.56-5.82 1.12-2.56 1.68-5.62 1.68-9.18 0-3.4-.52-6.48-1.56-9.24-1.04-2.8-2.52-5-4.44-6.6s-4.14-2.4-6.66-2.4c-2.48 0-4.18.24-5.1.72s-1.38 1.5-1.38 3.06v27c0 1.6.42 2.74 1.26 3.42.84.64 2.46.96 4.86.96zm79.145-8.4c0-.08.08-.12.24-.12.12 0 .22.04.3.12.12.04.18.08.18.12-.4 3.12-.6 5.96-.6 8.52 0 .32-.06.56-.18.72-.12.12-.36.18-.72.18h-26.52c-.12 0-.18-.12-.18-.36s.06-.36.18-.36c1.28 0 2.2-.1 2.76-.3.6-.2 1-.58 1.2-1.14.2-.6.3-1.5.3-2.7v-27.78c0-1.2-.1-2.08-.3-2.64s-.6-.94-1.2-1.14c-.6-.24-1.52-.36-2.76-.36-.12 0-.18-.12-.18-.36s.06-.36.18-.36h25.44c.4 0 .6.18.6.54l.12 7.98c0 .08-.12.14-.36.18-.2.04-.32 0-.36-.12-.64-2.32-1.72-4.04-3.24-5.16s-3.52-1.68-6-1.68h-1.8c-1.2 0-2.08.26-2.64.78s-.84 1.32-.84 2.4v12.24h4.98c2.32 0 4.1-.4 5.34-1.2s1.86-1.92 1.86-3.36c0-.12.1-.18.3-.18.24 0 .36.06.36.18l-.06 5.4.06 2.88a58.18 58.18 0 0 1 .12 3.24c0 .08-.12.12-.36.12s-.36-.04-.36-.12c0-1.64-.64-2.92-1.92-3.84-1.24-.96-3.04-1.44-5.4-1.44h-4.92v13.56c0 1.16.22 2.02.66 2.58s1.14.84 2.1.84h1.98c3.12 0 5.62-.64 7.5-1.92s3.26-3.26 4.14-5.94zm69.285-27.96c.12 0 .18.12.18.36s-.06.36-.18.36c-1.44 0-2.82.64-4.14 1.92s-2.38 3-3.18 5.16l-11.1 29.64c-.04.16-.26.24-.66.24s-.62-.08-.66-.24l-15.3-32.46c-.72-1.44-1.44-2.5-2.16-3.18-.72-.72-1.52-1.08-2.4-1.08-.12 0-.18-.12-.18-.36s.06-.36.18-.36c.6 0 1.02.02 1.26.06.8.08 1.84.12 3.12.12l8.76-.12a39.65 39.65 0 0 1 2.4-.06c.12 0 .18.12.18.36s-.06.36-.18.36c-1.2 0-2.14.26-2.82.78-.64.48-.96 1.18-.96 2.1 0 .68.22 1.5.66 2.46l10.38 22.14 7.8-20.58c.4-1.12.6-2.08.6-2.88 0-1.24-.38-2.22-1.14-2.94-.72-.72-1.78-1.08-3.18-1.08-.12 0-.18-.12-.18-.36s.06-.36.18-.36l2.94.06c1.68.08 3.18.12 4.5.12.76 0 1.7-.04 2.82-.12l2.46-.06zm55.509 27.96c0-.08.08-.12.24-.12.12 0 .22.04.3.12.12.04.18.08.18.12-.4 3.12-.6 5.96-.6 8.52 0 .32-.06.56-.18.72-.12.12-.36.18-.72.18h-26.52c-.12 0-.18-.12-.18-.36s.06-.36.18-.36c1.28 0 2.2-.1 2.76-.3.6-.2 1-.58 1.2-1.14.2-.6.3-1.5.3-2.7v-27.78c0-1.2-.1-2.08-.3-2.64s-.6-.94-1.2-1.14c-.6-.24-1.52-.36-2.76-.36-.12 0-.18-.12-.18-.36s.06-.36.18-.36h25.44c.4 0 .6.18.6.54l.12 7.98c0 .08-.12.14-.36.18-.2.04-.32 0-.36-.12-.64-2.32-1.72-4.04-3.24-5.16s-3.52-1.68-6-1.68h-1.8c-1.2 0-2.08.26-2.64.78s-.84 1.32-.84 2.4v12.24h4.98c2.32 0 4.1-.4 5.34-1.2s1.86-1.92 1.86-3.36c0-.12.1-.18.3-.18.24 0 .36.06.36.18l-.06 5.4.06 2.88a58.18 58.18 0 0 1 .12 3.24c0 .08-.12.12-.36.12s-.36-.04-.36-.12c0-1.64-.64-2.92-1.92-3.84-1.24-.96-3.04-1.44-5.4-1.44h-4.92v13.56c0 1.16.22 2.02.66 2.58s1.14.84 2.1.84h1.98c3.12 0 5.62-.64 7.5-1.92s3.26-3.26 4.14-5.94zm42.166 4.44c0 1.04.08 1.8.24 2.28.16.44.46.74.9.9.48.16 1.24.24 2.28.24h2.04c3.12 0 5.82-.82 8.1-2.46 2.28-1.68 3.8-3.94 4.56-6.78 0-.08.08-.12.24-.12.08 0 .16.04.24.12.12.04.18.08.18.12-.36 3.96-.54 7.26-.54 9.9 0 .32-.08.56-.24.72-.12.12-.34.18-.66.18h-28.32c-.08 0-.12-.12-.12-.36s.04-.36.12-.36c1.28 0 2.2-.1 2.76-.3.6-.2 1-.58 1.2-1.14.24-.6.36-1.5.36-2.7v-27.78c0-1.2-.12-2.08-.36-2.64-.2-.56-.6-.94-1.2-1.14-.6-.24-1.52-.36-2.76-.36-.08 0-.12-.12-.12-.36s.04-.36.12-.36l3.06.06c1.84.08 3.36.12 4.56.12s2.72-.04 4.56-.12l3.06-.06c.12 0 .18.12.18.36s-.06.36-.18.36c-1.24 0-2.16.12-2.76.36a1.8 1.8 0 0 0-1.2 1.2c-.2.56-.3 1.44-.3 2.64v27.48zm67.915 5.82c-3.72 0-7.04-.86-9.96-2.58a18.43 18.43 0 0 1-6.72-7.08c-1.56-3-2.34-6.26-2.34-9.78 0-4.12 1.04-7.64 3.12-10.56a19.51 19.51 0 0 1 7.98-6.66c3.28-1.48 6.62-2.22 10.02-2.22 3.8 0 7.14.9 10.02 2.7 2.88 1.76 5.08 4.1 6.6 7.02a19.43 19.43 0 0 1 2.342 9.3c0 3.64-.96 6.98-2.882 10.02s-4.5 5.44-7.74 7.2c-3.2 1.76-6.68 2.64-10.44 2.64zm1.98-1.5c2.24 0 4.24-.64 6-1.92 1.8-1.32 3.2-3.22 4.2-5.7 1-2.52 1.5-5.52 1.5-9 0-3.68-.56-6.96-1.68-9.84-1.12-2.92-2.74-5.2-4.86-6.84s-4.6-2.46-7.44-2.46c-3.64 0-6.44 1.38-8.4 4.14-1.96 2.72-2.94 6.54-2.94 11.46 0 3.88.58 7.36 1.74 10.44 1.2 3.04 2.82 5.42 4.86 7.14 2.08 1.72 4.42 2.58 7.02 2.58zm61.002-4.32c0 1.28.14 2.22.42 2.82.28.56.8.96 1.56 1.2.8.24 2.06.36 3.78.36.12 0 .18.12.18.36s-.06.36-.18.36c-1.64 0-2.92-.02-3.84-.06l-5.22-.06-4.38.06c-.8.04-1.88.06-3.24.06-.12 0-.18-.12-.18-.36s.06-.36.18-.36c1.28 0 2.2-.1 2.76-.3.6-.2 1-.58 1.2-1.14.2-.6.3-1.5.3-2.7v-27.78c0-1.2-.1-2.08-.3-2.64s-.6-.94-1.2-1.14c-.6-.24-1.52-.36-2.76-.36-.12 0-.18-.12-.18-.36s.06-.36.18-.36l3.18.06c1.84.08 3.3.12 4.38.12.96 0 2.1-.06 3.42-.18a76.57 76.57 0 0 1 1.98-.12c.8-.04 1.72-.06 2.76-.06 4.08 0 7.3.86 9.66 2.58 2.36 1.68 3.54 4.3 3.54 7.86 0 2.48-.64 4.58-1.92 6.3s-2.94 3.02-4.98 3.9c-2 .88-4.06 1.32-6.18 1.32-1.08 0-2.02-.1-2.82-.3-.08 0-.12-.1-.12-.3 0-.12.02-.24.06-.36.08-.12.16-.16.24-.12.6.16 1.28.24 2.04.24 1.84 0 3.36-.86 4.56-2.58 1.24-1.72 1.86-4.16 1.86-7.32s-.68-5.6-2.04-7.32c-1.32-1.72-3.26-2.58-5.82-2.58-1.12 0-1.88.26-2.28.78s-.6 1.54-.6 3.06v27.42zm96.22 4.38c.08 0 .12.12.12.36s-.04.36-.12.36c-1.36 0-2.44-.02-3.24-.06l-4.44-.06-4.5.06c-.76.04-1.8.06-3.12.06-.12 0-.18-.12-.18-.36s.06-.36.18-.36c1.68 0 2.82-.2 3.42-.6s.9-1.24.9-2.52l-.06-1.02-1.26-24.54-12.36 28.98c-.08.16-.24.24-.48.24s-.4-.08-.48-.24l-15.18-28.86-.48 21.66c-.04 2.16.38 3.86 1.26 5.1.92 1.2 2.2 1.8 3.84 1.8.12 0 .18.12.18.36s-.06.36-.18.36c-1.08 0-1.92-.02-2.52-.06l-3.3-.06-3.78.06c-.64.04-1.5.06-2.58.06-.12 0-.18-.12-.18-.36s.06-.36.18-.36c1.64 0 2.94-.62 3.9-1.86s1.46-2.92 1.5-5.04l.54-24.84-.06-.06c-.8-1.48-1.64-2.56-2.52-3.24-.84-.68-1.82-1.02-2.94-1.02-.12 0-.18-.12-.18-.36s.06-.36.18-.36l2.82.06c.56.04 1.28.06 2.16.06l3.18-.06c.36-.04.82-.06 1.38-.06.52 0 .92.18 1.2.54s.8 1.22 1.56 2.58l13.08 24.54 11.4-26.16c.24-.56.48-.94.72-1.14.28-.24.64-.36 1.08-.36.36 0 .76.02 1.2.06.48.04 1.02.06 1.62.06l3.54-.06c.56-.04 1.36-.06 2.4-.06.12 0 .18.12.18.36s-.06.36-.18.36c-1.88 0-3.24.38-4.08 1.14s-1.22 1.94-1.14 3.54l1.44 27.24c.08 1.24.22 2.14.42 2.7.24.56.64.94 1.2 1.14.6.2 1.52.3 2.76.3zm57.27-8.82c0-.08.08-.12.24-.12.12 0 .22.04.3.12.12.04.18.08.18.12-.4 3.12-.6 5.96-.6 8.52 0 .32-.06.56-.18.72-.12.12-.36.18-.72.18h-26.52c-.12 0-.18-.12-.18-.36s.06-.36.18-.36c1.28 0 2.2-.1 2.76-.3.6-.2 1-.58 1.2-1.14.2-.6.3-1.5.3-2.7v-27.78c0-1.2-.1-2.08-.3-2.64s-.6-.94-1.2-1.14c-.6-.24-1.52-.36-2.76-.36-.12 0-.18-.12-.18-.36s.06-.36.18-.36h25.44c.4 0 .6.18.6.54l.12 7.98c0 .08-.12.14-.36.18-.2.04-.32 0-.36-.12-.64-2.32-1.72-4.04-3.24-5.16s-3.52-1.68-6-1.68h-1.8c-1.2 0-2.08.26-2.64.78s-.84 1.32-.84 2.4v12.24h4.98c2.32 0 4.1-.4 5.34-1.2s1.86-1.92 1.86-3.36c0-.12.1-.18.3-.18.24 0 .36.06.36.18l-.06 5.4.06 2.88a58.18 58.18 0 0 1 .12 3.24c0 .08-.12.12-.36.12s-.36-.04-.36-.12c0-1.64-.64-2.92-1.92-3.84-1.24-.96-3.04-1.44-5.4-1.44h-4.92v13.56c0 1.16.22 2.02.66 2.58s1.14.84 2.1.84h1.98c3.12 0 5.62-.64 7.5-1.92s3.26-3.26 4.14-5.94zm72.76-27.96c.08 0 .12.12.12.36s-.04.36-.12.36c-1.6 0-2.86.64-3.78 1.92-.92 1.24-1.38 2.92-1.38 5.04v30.72c0 .12-.1.2-.3.24-.16.04-.28.02-.36-.06l-28.14-32.04v23.34c0 2.12.44 3.8 1.32 5.04s2.1 1.86 3.66 1.86c.08 0 .12.12.12.36s-.04.36-.12.36c-1.12 0-1.98-.02-2.58-.06l-3.24-.06-3.72.06c-.68.04-1.66.06-2.94.06-.12 0-.18-.12-.18-.36s.06-.36.18-.36c1.76 0 3.14-.62 4.14-1.86 1.04-1.24 1.56-2.92 1.56-5.04V329c-1.32-1.44-2.46-2.42-3.42-2.94-.92-.56-1.88-.84-2.88-.84-.08 0-.12-.12-.12-.36s.04-.36.12-.36l2.52.06c.52.04 1.28.06 2.28.06l4.56-.06c.56-.04 1.24-.06 2.04-.06.32 0 .56.08.72.24s.44.5.84 1.02c.68.92 1.16 1.54 1.44 1.86l20.76 23.94v-19.38c0-2.16-.44-3.86-1.32-5.1s-2.1-1.86-3.66-1.86c-.08 0-.12-.12-.12-.36s.04-.36.12-.36l2.58.06c1.28.08 2.36.12 3.24.12.8 0 1.92-.04 3.36-.12l2.7-.06zm40.1 1.38c-4.76 0-8.18 3.1-10.26 9.3-.04.12-.16.18-.36.18-.2-.04-.3-.12-.3-.24l.54-6.18c.2-2.56.3-4.48.3-5.76 0-.2.1-.3.3-.3.24 0 .36.1.36.3 0 .88 1.14 1.32 3.42 1.32 3.44.12 7.46.18 12.06.18a248.19 248.19 0 0 0 7.5-.12l4.08-.06c1.52 0 2.62-.1 3.3-.3.72-.2 1.18-.6 1.38-1.2.04-.16.16-.24.36-.24.24 0 .36.08.36.24-.12 1.2-.26 3.12-.42 5.76-.12 2.64-.18 4.76-.18 6.36 0 .12-.1.18-.3.18s-.32-.06-.36-.18c-.6-3.08-1.72-5.38-3.36-6.9-1.64-1.56-3.66-2.34-6.06-2.34-1.16 0-1.94.26-2.34.78-.36.48-.54 1.42-.54 2.82v27.66c0 1.24.12 2.14.36 2.7s.7.94 1.38 1.14 1.76.3 3.24.3c.12 0 .18.12.18.36s-.06.36-.18.36c-1.44 0-2.58-.02-3.42-.06l-4.98-.06-4.86.06c-.84.04-2 .06-3.48.06-.12 0-.18-.12-.18-.36s.06-.36.18-.36c1.44 0 2.5-.1 3.18-.3.72-.2 1.2-.58 1.44-1.14.28-.6.42-1.5.42-2.7v-27.78c0-1.36-.18-2.28-.54-2.76s-1.1-.72-2.22-.72z"/><path d="M45.989 184.3c0 4.693.513 8.14 1.54 10.34 1.173 2.053 3.3 3.52 6.38 4.4 3.227.88 8.213 1.32 14.96 1.32.44 0 .66.44.66 1.32s-.22 1.32-.66 1.32c-6.013 0-10.707-.073-14.08-.22l-19.14-.22-15.84.22c-2.787.147-6.6.22-11.44.22-.44 0-.66-.44-.66-1.32s.22-1.32.66-1.32c4.987 0 8.58-.367 10.78-1.1s3.667-2.127 4.4-4.18c.88-2.053 1.32-5.353 1.32-9.9V83.32c0-4.4-.44-7.627-1.32-9.68-.733-2.053-2.273-3.447-4.62-4.18-2.2-.88-5.72-1.32-10.56-1.32-.44 0-.66-.44-.66-1.32s.22-1.32.66-1.32l11.44.22c6.453.293 11.66.44 15.62.44 3.373 0 7.48-.22 12.32-.66 1.76-.147 4.107-.293 7.04-.44 3.08-.147 6.673-.22 10.78-.22 14.52 0 25.96 3.08 34.32 9.24 8.507 6.16 12.761 15.62 12.761 28.38 0 9.24-2.42 17.087-7.26 23.54-4.694 6.453-10.78 11.293-18.26 14.52-7.333 3.227-14.887 4.84-22.66 4.84-4.107 0-7.553-.367-10.34-1.1-.44 0-.66-.367-.66-1.1 0-.44.073-.88.22-1.32.293-.44.587-.587.88-.44 2.347.587 4.913.88 7.7.88 7.627 0 14.08-3.153 19.36-9.46s7.92-15.327 7.92-27.06c0-11.587-2.713-20.533-8.14-26.84-5.427-6.453-12.907-9.68-22.44-9.68-3.52 0-6.233.367-8.14 1.1-1.76.733-3.007 2.127-3.74 4.18-.733 1.907-1.1 4.987-1.1 9.24V184.3zm137.284-68.42c3.373 0 6.6 1.1 9.68 3.3s4.62 4.84 4.62 7.92c0 2.787-.88 5.06-2.64 6.82-1.613 1.76-3.887 2.64-6.82 2.64-1.907 0-3.52-.367-4.84-1.1-1.173-.88-2.42-2.053-3.74-3.52-1.32-1.32-2.493-2.273-3.52-2.86-1.027-.733-2.273-1.1-3.74-1.1-1.613 0-3.373.66-5.28 1.98-1.76 1.173-4.547 3.74-8.36 7.7v47.52c0 4.107.587 7.26 1.76 9.46 1.173 2.053 3.153 3.52 5.94 4.4s6.893 1.32 12.32 1.32c.587 0 .88.44.88 1.32s-.293 1.32-.88 1.32c-4.84 0-8.727-.073-11.66-.22l-17.38-.22-12.76.22c-2.053.147-4.913.22-8.58.22-.44 0-.66-.44-.66-1.32s.22-1.32.66-1.32c4.987 0 8.287-1.027 9.9-3.08s2.42-6.087 2.42-12.1v-42.02c0-4.693-.587-8.14-1.76-10.34-1.027-2.2-2.787-3.3-5.28-3.3-2.2 0-5.867 1.1-11 3.3h-.22c-.587 0-1.027-.367-1.32-1.1s-.22-1.173.22-1.32l28.82-14.08c.88-.293 1.393-.44 1.54-.44 1.467 0 2.933 1.613 4.4 4.84 1.467 3.08 2.347 7.187 2.64 12.32 5.72-6.453 10.487-10.927 14.3-13.42s7.26-3.74 10.34-3.74zm67.387 89.98c-8.8 0-16.573-2.053-23.32-6.16-6.747-4.253-11.953-9.9-15.62-16.94-3.667-7.187-5.5-14.96-5.5-23.32 0-9.533 2.347-17.6 7.04-24.2 4.84-6.747 10.927-11.733 18.26-14.96 7.48-3.373 15.107-5.06 22.88-5.06 8.947 0 16.72 2.127 23.32 6.38 6.747 4.253 11.88 9.9 15.4 16.94 3.52 6.893 5.28 14.3 5.28 22.22 0 8.8-2.2 16.647-6.6 23.54-4.253 6.893-10.047 12.247-17.38 16.06-7.333 3.667-15.253 5.5-23.76 5.5zm6.6-4.4c6.453 0 11.367-2.86 14.74-8.58 3.52-5.72 5.28-14.08 5.28-25.08 0-9.827-1.393-18.407-4.18-25.74-2.64-7.333-6.307-12.907-11-16.72-4.547-3.813-9.533-5.72-14.96-5.72-6.6 0-11.587 2.713-14.96 8.14s-5.06 13.42-5.06 23.98c0 9.533 1.247 18.113 3.74 25.74 2.64 7.48 6.233 13.347 10.78 17.6 4.693 4.253 9.9 6.38 15.62 6.38zm118.212-86.24c6.454 0 12.394 1.54 17.82 4.62 5.574 3.08 9.974 7.7 13.2 13.86 3.374 6.16 5.06 13.64 5.06 22.44 0 10.56-2.273 19.58-6.82 27.06-4.4 7.48-10.266 13.127-17.6 16.94s-15.106 5.72-23.32 5.72c-11.44 0-21.706-3.373-30.8-10.12l-18.7 8.58h-.44c-.586 0-.953-.293-1.1-.88-.146-.44 0-.807.44-1.1 3.96-2.493 6.82-5.353 8.58-8.58 1.907-3.373 2.86-7.847 2.86-13.42V72.76c0-5.133-.513-8.8-1.54-11-1.026-2.347-2.786-3.52-5.28-3.52-1.76 0-4.62.88-8.58 2.64h-.22c-.586 0-1.026-.367-1.32-1.1s-.293-1.247 0-1.54l30.58-14.52 1.1-.22c.587 0 1.247.293 1.98.88s1.1 1.1 1.1 1.54v85.58c4.84-4.987 9.9-8.947 15.18-11.88s11.22-4.4 17.82-4.4zm-5.94 86.24c7.187 0 12.687-3.227 16.5-9.68s5.72-15.62 5.72-27.5c0-12.907-2.346-22.587-7.04-29.04-4.546-6.6-10.706-9.9-18.48-9.9-7.48 0-15.4 3.373-23.76 10.12v33.66c0 7.627 1.394 13.86 4.18 18.7 2.934 4.84 6.454 8.36 10.56 10.56 4.254 2.053 8.36 3.08 12.32 3.08zm57.568 1.54c-.44 0-.66-.44-.66-1.32s.22-1.32.66-1.32c4.84 0 8.14-1.027 9.9-3.08 1.76-2.2 2.64-6.233 2.64-12.1V72.76c0-5.133-.513-8.8-1.54-11-.88-2.347-2.567-3.52-5.06-3.52-2.2 0-5.133.88-8.8 2.64h-.22c-.587 0-1.027-.367-1.32-1.1s-.293-1.247 0-1.54l31.02-14.52.88-.22c.587 0 1.247.293 1.98.88.88.587 1.32 1.1 1.32 1.54v139.26c0 6.013.807 10.047 2.42 12.1s4.913 3.08 9.9 3.08c.44 0 .66.44.66 1.32s-.22 1.32-.66 1.32c-3.52 0-6.38-.073-8.58-.22l-12.98-.22-12.76.22c-2.2.147-5.133.22-8.8.22zm133.463-13.86c.293 0 .586.293.88.88.44.587.513 1.027.22 1.32-5.427 4.987-10.854 8.653-16.28 11-5.427 2.2-11.294 3.3-17.6 3.3-8.947 0-16.72-1.98-23.32-5.94-6.454-3.96-11.44-9.167-14.96-15.62-3.374-6.453-5.06-13.42-5.06-20.9 0-8.653 2.126-16.573 6.38-23.76s10.046-12.833 17.38-16.94c7.48-4.253 15.766-6.38 24.86-6.38 8.8 0 15.62 2.127 20.46 6.38s7.26 10.56 7.26 18.92c0 4.253-.88 6.38-2.64 6.38l-53.68.22c-.147 1.32-.22 3.3-.22 5.94 0 12.907 2.933 23.173 8.8 30.8 6.013 7.48 14.52 11.22 25.52 11.22 4.106 0 7.553-.44 10.34-1.32 2.786-1.027 6.526-2.787 11.22-5.28l.44-.22zm-35.42-68.64c-5.427 0-9.9 2.127-13.42 6.38-3.374 4.107-5.647 9.827-6.82 17.16l35.2-.66c-.294-15.253-5.28-22.88-14.96-22.88zm209.008 79.86c.587 0 .88.44.88 1.32s-.293 1.32-.88 1.32c-3.666 0-6.6-.073-8.8-.22l-12.54-.22-12.54.22c-2.2.147-5.133.22-8.8.22-.44 0-.66-.44-.66-1.32s.22-1.32.66-1.32c4.84 0 8.14-1.027 9.9-3.08 1.76-2.2 2.64-6.233 2.64-12.1V152.4c0-8.213-1.466-14.3-4.4-18.26-2.786-3.96-7.113-5.94-12.98-5.94-3.96 0-7.92.953-11.88 2.86s-7.406 4.473-10.34 7.7v2.2 44.22c0 6.013.807 10.047 2.42 12.1 1.76 2.053 5.134 3.08 10.12 3.08.44 0 .66.44.66 1.32s-.22 1.32-.66 1.32c-3.666 0-6.6-.073-8.8-.22l-12.76-.22-12.54.22c-2.2.147-5.133.22-8.8.22-.44 0-.66-.44-.66-1.32s.22-1.32.66-1.32c4.987 0 8.287-1.027 9.9-3.08 1.76-2.053 2.64-6.087 2.64-12.1V152.4c0-8.213-1.466-14.3-4.4-18.26-2.786-3.96-7.113-5.94-12.98-5.94-3.666 0-7.406.88-11.22 2.64s-7.186 4.107-10.12 7.04v47.3c0 6.013.807 10.047 2.42 12.1s4.914 3.08 9.9 3.08c.44 0 .66.44.66 1.32s-.22 1.32-.66 1.32c-3.666 0-6.526-.073-8.58-.22l-12.76-.22-12.76.22c-2.053.147-4.913.22-8.58.22-.44 0-.66-.44-.66-1.32s.22-1.32.66-1.32c4.987 0 8.287-1.027 9.9-3.08s2.42-6.087 2.42-12.1v-42.02c0-4.693-.586-8.14-1.76-10.34-1.026-2.2-2.786-3.3-5.28-3.3-2.2 0-5.866 1.1-11 3.3h-.22c-.586 0-1.026-.367-1.32-1.1s-.22-1.173.22-1.32l28.82-14.08c.88-.293 1.394-.44 1.54-.44 1.467 0 2.934 1.687 4.4 5.06 1.614 3.227 2.494 7.48 2.64 12.76 9.827-12.027 20.534-18.04 32.12-18.04 6.747 0 12.174 1.687 16.28 5.06 4.107 3.227 6.674 7.993 7.7 14.3 10.414-12.907 21.56-19.36 33.44-19.36 7.774 0 13.714 2.273 17.82 6.82 4.254 4.4 6.38 11.147 6.38 20.24v42.46c0 6.013.807 10.047 2.42 12.1 1.76 2.053 5.134 3.08 10.12 3.08zm91.924-111.54c0 5.427 1.32 10.267 3.96 14.52 2.787 4.107 6.16 7.7 10.12 10.78 4.107 3.08 9.607 6.747 16.5 11 7.48 4.693 13.347 8.727 17.6 12.1 4.4 3.373 8.067 7.553 11 12.54 3.08 4.84 4.62 10.56 4.62 17.16 0 7.48-1.98 14.153-5.94 20.02-3.813 5.867-9.313 10.487-16.5 13.86-7.04 3.227-15.107 4.84-24.2 4.84-6.16 0-12.54-.807-19.14-2.42-6.453-1.613-11.367-3.593-14.74-5.94-1.32-.88-2.053-2.273-2.2-4.18l-1.32-33.44v-.22c0-.587.367-.88 1.1-.88.733-.147 1.173.073 1.32.66 4.84 12.173 10.34 22.147 16.5 29.92 6.307 7.773 14.3 11.66 23.98 11.66 6.307 0 11.587-1.687 15.84-5.06 4.253-3.52 6.38-9.313 6.38-17.38 0-6.453-1.467-12.1-4.4-16.94-2.787-4.84-6.307-8.873-10.56-12.1-4.107-3.227-9.753-7.187-16.94-11.88-7.04-4.547-12.54-8.36-16.5-11.44-3.96-3.227-7.333-7.113-10.12-11.66-2.787-4.693-4.18-10.12-4.18-16.28 0-7.627 2.127-14.08 6.38-19.36s9.753-9.167 16.5-11.66c6.893-2.64 14.08-3.96 21.56-3.96 4.987 0 9.973.513 14.96 1.54 4.987.88 9.167 2.053 12.54 3.52 2.2.88 3.3 2.273 3.3 4.18l.66 29.92c0 .44-.44.733-1.32.88-.733.147-1.173 0-1.32-.44-2.933-8.947-6.893-17.013-11.88-24.2-4.84-7.333-12.173-11-22-11-6.6 0-11.88 1.907-15.84 5.72-3.813 3.813-5.72 9.02-5.72 15.62zm127.124 117.04c-8.8 0-16.573-2.053-23.32-6.16-6.747-4.253-11.953-9.9-15.62-16.94-3.667-7.187-5.5-14.96-5.5-23.32 0-9.533 2.347-17.6 7.04-24.2 4.84-6.747 10.927-11.733 18.26-14.96 7.48-3.373 15.107-5.06 22.88-5.06 8.947 0 16.72 2.127 23.32 6.38 6.747 4.253 11.88 9.9 15.4 16.94 3.52 6.893 5.282 14.3 5.282 22.22 0 8.8-2.202 16.647-6.602 23.54-4.253 6.893-10.047 12.247-17.38 16.06-7.333 3.667-15.253 5.5-23.76 5.5zm6.6-4.4c6.453 0 11.367-2.86 14.74-8.58 3.52-5.72 5.28-14.08 5.28-25.08 0-9.827-1.393-18.407-4.18-25.74-2.64-7.333-6.307-12.907-11-16.72-4.547-3.813-9.533-5.72-14.96-5.72-6.6 0-11.587 2.713-14.96 8.14s-5.06 13.42-5.06 23.98c0 9.533 1.247 18.113 3.74 25.74 2.64 7.48 6.233 13.347 10.78 17.6 4.693 4.253 9.9 6.38 15.62 6.38zm56.832 1.54c-.44 0-.66-.44-.66-1.32s.22-1.32.66-1.32c4.84 0 8.14-1.027 9.9-3.08 1.76-2.2 2.64-6.233 2.64-12.1V72.76c0-5.133-.51-8.8-1.54-11-.88-2.347-2.57-3.52-5.06-3.52-2.2 0-5.13.88-8.8 2.64h-.22c-.59 0-1.03-.367-1.32-1.1s-.29-1.247 0-1.54l31.02-14.52.88-.22c.59 0 1.25.293 1.98.88.88.587 1.32 1.1 1.32 1.54v139.26c0 6.013.81 10.047 2.42 12.1s4.91 3.08 9.9 3.08c.44 0 .66.44.66 1.32s-.22 1.32-.66 1.32c-3.52 0-6.38-.073-8.58-.22l-12.98-.22-12.76.22c-2.2.147-5.13.22-8.8.22zm148.2-84.92c.3 0 .44.44.44 1.32s-.14 1.32-.44 1.32c-4.1 0-7.7 1.467-10.78 4.4-2.93 2.933-5.79 7.627-8.58 14.08l-27.28 63.8c-.29.733-1.02 1.1-2.2 1.1-1.32 0-2.2-.367-2.64-1.1l-32.56-66.66c-3.08-6.453-5.72-10.633-7.92-12.54-2.2-2.053-4.91-3.08-8.14-3.08-.44 0-.66-.44-.66-1.32s.22-1.32.66-1.32c2.64 0 4.77.073 6.38.22l12.76.22 16.28-.22c2.35-.147 5.58-.22 9.68-.22.44 0 .66.44.66 1.32s-.22 1.32-.66 1.32c-8.65 0-12.98 1.687-12.98 5.06 0 .88.37 2.053 1.1 3.52l25.3 49.94 16.72-40.48c1.03-2.493 1.54-4.913 1.54-7.26 0-3.52-1.32-6.16-3.96-7.92-2.49-1.907-6.23-2.86-11.22-2.86-.29 0-.44-.44-.44-1.32s.15-1.32.44-1.32c3.96 0 6.97.073 9.02.22l13.2.22 8.58-.22c1.62-.147 4.18-.22 7.7-.22zm81.73 71.06c.29 0 .58.293.88.88.44.587.51 1.027.22 1.32-5.43 4.987-10.86 8.653-16.28 11-5.43 2.2-11.3 3.3-17.6 3.3-8.95 0-16.72-1.98-23.32-5.94-6.46-3.96-11.44-9.167-14.96-15.62-3.38-6.453-5.06-13.42-5.06-20.9 0-8.653 2.12-16.573 6.38-23.76 4.25-7.187 10.04-12.833 17.38-16.94 7.48-4.253 15.76-6.38 24.86-6.38 8.8 0 15.62 2.127 20.46 6.38s7.26 10.56 7.26 18.92c0 4.253-.88 6.38-2.64 6.38l-53.68.22c-.15 1.32-.22 3.3-.22 5.94 0 12.907 2.93 23.173 8.8 30.8 6.01 7.48 14.52 11.22 25.52 11.22 4.1 0 7.55-.44 10.34-1.32 2.78-1.027 6.52-2.787 11.22-5.28l.44-.22zm-35.42-68.64c-5.43 0-9.9 2.127-13.42 6.38-3.38 4.107-5.65 9.827-6.82 17.16l35.2-.66c-.3-15.253-5.28-22.88-14.96-22.88zm107.37-4.62c3.37 0 6.6 1.1 9.68 3.3s4.62 4.84 4.62 7.92c0 2.787-.88 5.06-2.64 6.82-1.62 1.76-3.89 2.64-6.82 2.64-1.91 0-3.52-.367-4.84-1.1-1.18-.88-2.42-2.053-3.74-3.52-1.32-1.32-2.5-2.273-3.52-2.86-1.03-.733-2.28-1.1-3.74-1.1-1.62 0-3.38.66-5.28 1.98-1.76 1.173-4.55 3.74-8.36 7.7v47.52c0 4.107.58 7.26 1.76 9.46 1.17 2.053 3.15 3.52 5.94 4.4 2.78.88 6.89 1.32 12.32 1.32.58 0 .88.44.88 1.32s-.3 1.32-.88 1.32c-4.84 0-8.73-.073-11.66-.22l-17.38-.22-12.76.22c-2.06.147-4.92.22-8.58.22-.44 0-.66-.44-.66-1.32s.22-1.32.66-1.32c4.98 0 8.28-1.027 9.9-3.08 1.61-2.053 2.42-6.087 2.42-12.1v-42.02c0-4.693-.59-8.14-1.76-10.34-1.03-2.2-2.79-3.3-5.28-3.3-2.2 0-5.87 1.1-11 3.3h-.22c-.59 0-1.03-.367-1.32-1.1-.3-.733-.22-1.173.22-1.32l28.82-14.08c.88-.293 1.39-.44 1.54-.44 1.46 0 2.93 1.613 4.4 4.84 1.46 3.08 2.34 7.187 2.64 12.32 5.72-6.453 10.48-10.927 14.3-13.42 3.81-2.493 7.26-3.74 10.34-3.74z"/></g></svg>