<svg width="1337" height="379" viewBox="0 0 1337 379" fill="none" xmlns="http://www.w3.org/2000/svg">
<line x1="904.5" y1="265.5" x2="1331.5" y2="265.5" stroke="#1B1B1B" stroke-width="3" stroke-linecap="round"/>
<path d="M488.88 270.23C488.88 270.19 488.92 270.17 489 270.17C489.06 270.17 489.11 270.19 489.15 270.23C489.21 270.25 489.24 270.27 489.24 270.29C489.04 271.85 488.94 273.27 488.94 274.55C488.94 274.71 488.91 274.83 488.85 274.91C488.79 274.97 488.67 275 488.49 275H475.23C475.17 275 475.14 274.94 475.14 274.82C475.14 274.7 475.17 274.64 475.23 274.64C475.87 274.64 476.33 274.59 476.61 274.49C476.91 274.39 477.11 274.2 477.21 273.92C477.31 273.62 477.36 273.17 477.36 272.57V258.68C477.36 258.08 477.31 257.64 477.21 257.36C477.11 257.08 476.91 256.89 476.61 256.79C476.31 256.67 475.85 256.61 475.23 256.61C475.17 256.61 475.14 256.55 475.14 256.43C475.14 256.31 475.17 256.25 475.23 256.25H487.95C488.15 256.25 488.25 256.34 488.25 256.52L488.31 260.51C488.31 260.55 488.25 260.58 488.13 260.6C488.03 260.62 487.97 260.6 487.95 260.54C487.63 259.38 487.09 258.52 486.33 257.96C485.57 257.4 484.57 257.12 483.33 257.12H482.43C481.83 257.12 481.39 257.25 481.11 257.51C480.83 257.77 480.69 258.17 480.69 258.71V264.83H483.18C484.34 264.83 485.23 264.63 485.85 264.23C486.47 263.83 486.78 263.27 486.78 262.55C486.78 262.49 486.83 262.46 486.93 262.46C487.05 262.46 487.11 262.49 487.11 262.55L487.08 265.25L487.11 266.69C487.15 267.37 487.17 267.91 487.17 268.31C487.17 268.35 487.11 268.37 486.99 268.37C486.87 268.37 486.81 268.35 486.81 268.31C486.81 267.49 486.49 266.85 485.85 266.39C485.23 265.91 484.33 265.67 483.15 265.67H480.69V272.45C480.69 273.03 480.8 273.46 481.02 273.74C481.24 274.02 481.59 274.16 482.07 274.16H483.06C484.62 274.16 485.87 273.84 486.81 273.2C487.75 272.56 488.44 271.57 488.88 270.23ZM521.873 274.64C521.933 274.64 521.963 274.7 521.963 274.82C521.963 274.94 521.933 275 521.873 275C521.293 275 520.843 274.99 520.523 274.97L518.723 274.94L516.263 274.97C515.883 274.99 515.353 275 514.673 275C514.613 275 514.583 274.94 514.583 274.82C514.583 274.7 514.613 274.64 514.673 274.64C515.333 274.64 515.663 274.47 515.663 274.13C515.663 273.95 515.573 273.73 515.393 273.47L511.283 267.11L508.703 270.8C507.923 271.9 507.533 272.79 507.533 273.47C507.533 274.25 508.053 274.64 509.093 274.64C509.133 274.64 509.153 274.7 509.153 274.82C509.153 274.94 509.133 275 509.093 275C508.433 275 507.933 274.99 507.593 274.97L505.373 274.94L503.963 274.97C503.703 274.99 503.283 275 502.703 275C502.643 275 502.613 274.94 502.613 274.82C502.613 274.7 502.643 274.64 502.703 274.64C503.323 274.64 504.083 274.31 504.983 273.65C505.883 272.99 506.823 271.98 507.803 270.62L510.863 266.48L506.063 259.01C505.523 258.15 505.003 257.54 504.503 257.18C504.003 256.8 503.473 256.61 502.913 256.61C502.853 256.61 502.823 256.55 502.823 256.43C502.823 256.31 502.853 256.25 502.913 256.25L504.203 256.28C504.763 256.32 505.183 256.34 505.463 256.34C506.163 256.34 507.033 256.32 508.073 256.28L509.783 256.25C509.823 256.25 509.843 256.31 509.843 256.43C509.843 256.55 509.823 256.61 509.783 256.61C509.103 256.61 508.763 256.78 508.763 257.12C508.763 257.28 508.853 257.51 509.033 257.81L512.993 263.9L515.393 260.48C516.173 259.36 516.563 258.46 516.563 257.78C516.563 257 516.043 256.61 515.003 256.61C514.963 256.61 514.943 256.55 514.943 256.43C514.943 256.31 514.963 256.25 515.003 256.25L516.503 256.28C517.303 256.32 518.043 256.34 518.723 256.34C519.143 256.34 519.613 256.32 520.133 256.28L521.393 256.25C521.453 256.25 521.483 256.31 521.483 256.43C521.483 256.55 521.453 256.61 521.393 256.61C520.753 256.61 519.983 256.95 519.083 257.63C518.203 258.29 517.263 259.3 516.263 260.66L513.413 264.56L518.543 272.51C519.043 273.25 519.553 273.79 520.073 274.13C520.593 274.47 521.193 274.64 521.873 274.64ZM540.457 272.45C540.457 273.09 540.527 273.56 540.667 273.86C540.807 274.14 541.067 274.34 541.447 274.46C541.847 274.58 542.477 274.64 543.337 274.64C543.397 274.64 543.427 274.7 543.427 274.82C543.427 274.94 543.397 275 543.337 275C542.517 275 541.877 274.99 541.417 274.97L538.807 274.94L536.617 274.97C536.217 274.99 535.677 275 534.997 275C534.937 275 534.907 274.94 534.907 274.82C534.907 274.7 534.937 274.64 534.997 274.64C535.637 274.64 536.097 274.59 536.377 274.49C536.677 274.39 536.877 274.2 536.977 273.92C537.077 273.62 537.127 273.17 537.127 272.57V258.68C537.127 258.08 537.077 257.64 536.977 257.36C536.877 257.08 536.677 256.89 536.377 256.79C536.077 256.67 535.617 256.61 534.997 256.61C534.937 256.61 534.907 256.55 534.907 256.43C534.907 256.31 534.937 256.25 534.997 256.25L536.587 256.28C537.507 256.32 538.237 256.34 538.777 256.34C539.257 256.34 539.827 256.31 540.487 256.25C540.747 256.23 541.077 256.21 541.477 256.19C541.877 256.17 542.337 256.16 542.857 256.16C544.897 256.16 546.507 256.59 547.687 257.45C548.867 258.29 549.457 259.6 549.457 261.38C549.457 262.62 549.137 263.67 548.497 264.53C547.857 265.39 547.027 266.04 546.007 266.48C545.007 266.92 543.977 267.14 542.917 267.14C542.377 267.14 541.907 267.09 541.507 266.99C541.467 266.99 541.447 266.94 541.447 266.84C541.447 266.78 541.457 266.72 541.477 266.66C541.517 266.6 541.557 266.58 541.597 266.6C541.897 266.68 542.237 266.72 542.617 266.72C543.537 266.72 544.297 266.29 544.897 265.43C545.517 264.57 545.827 263.35 545.827 261.77C545.827 260.19 545.487 258.97 544.807 258.11C544.147 257.25 543.177 256.82 541.897 256.82C541.337 256.82 540.957 256.95 540.757 257.21C540.557 257.47 540.457 257.98 540.457 258.74V272.45ZM577.439 270.23C577.439 270.19 577.479 270.17 577.559 270.17C577.619 270.17 577.669 270.19 577.709 270.23C577.769 270.25 577.799 270.27 577.799 270.29C577.599 271.85 577.499 273.27 577.499 274.55C577.499 274.71 577.469 274.83 577.409 274.91C577.349 274.97 577.229 275 577.049 275H563.789C563.729 275 563.699 274.94 563.699 274.82C563.699 274.7 563.729 274.64 563.789 274.64C564.429 274.64 564.889 274.59 565.169 274.49C565.469 274.39 565.669 274.2 565.769 273.92C565.869 273.62 565.919 273.17 565.919 272.57V258.68C565.919 258.08 565.869 257.64 565.769 257.36C565.669 257.08 565.469 256.89 565.169 256.79C564.869 256.67 564.409 256.61 563.789 256.61C563.729 256.61 563.699 256.55 563.699 256.43C563.699 256.31 563.729 256.25 563.789 256.25H576.509C576.709 256.25 576.809 256.34 576.809 256.52L576.869 260.51C576.869 260.55 576.809 260.58 576.689 260.6C576.589 260.62 576.529 260.6 576.509 260.54C576.189 259.38 575.649 258.52 574.889 257.96C574.129 257.4 573.129 257.12 571.889 257.12H570.989C570.389 257.12 569.949 257.25 569.669 257.51C569.389 257.77 569.249 258.17 569.249 258.71V264.83H571.739C572.899 264.83 573.789 264.63 574.409 264.23C575.029 263.83 575.339 263.27 575.339 262.55C575.339 262.49 575.389 262.46 575.489 262.46C575.609 262.46 575.669 262.49 575.669 262.55L575.639 265.25L575.669 266.69C575.709 267.37 575.729 267.91 575.729 268.31C575.729 268.35 575.669 268.37 575.549 268.37C575.429 268.37 575.369 268.35 575.369 268.31C575.369 267.49 575.049 266.85 574.409 266.39C573.789 265.91 572.889 265.67 571.709 265.67H569.249V272.45C569.249 273.03 569.359 273.46 569.579 273.74C569.799 274.02 570.149 274.16 570.629 274.16H571.619C573.179 274.16 574.429 273.84 575.369 273.2C576.309 272.56 576.999 271.57 577.439 270.23ZM612.351 274.64C612.391 274.64 612.411 274.7 612.411 274.82C612.411 274.94 612.391 275 612.351 275H607.011C606.571 275 605.751 274.21 604.551 272.63C603.351 271.03 601.901 268.8 600.201 265.94C600.041 265.96 599.811 265.97 599.511 265.97C598.731 265.97 598.181 265.96 597.861 265.94V272.57C597.861 273.19 597.911 273.64 598.011 273.92C598.111 274.2 598.301 274.39 598.581 274.49C598.881 274.59 599.351 274.64 599.991 274.64C600.031 274.64 600.051 274.7 600.051 274.82C600.051 274.94 600.031 275 599.991 275C599.331 275 598.811 274.99 598.431 274.97L596.151 274.94L593.961 274.97C593.561 274.99 593.021 275 592.341 275C592.281 275 592.251 274.94 592.251 274.82C592.251 274.7 592.281 274.64 592.341 274.64C592.981 274.64 593.441 274.59 593.721 274.49C594.021 274.39 594.221 274.2 594.321 273.92C594.441 273.62 594.501 273.17 594.501 272.57V258.68C594.501 258.08 594.451 257.64 594.351 257.36C594.251 257.08 594.051 256.89 593.751 256.79C593.451 256.67 592.991 256.61 592.371 256.61C592.331 256.61 592.311 256.55 592.311 256.43C592.311 256.31 592.331 256.25 592.371 256.25L593.961 256.28C594.881 256.32 595.611 256.34 596.151 256.34C596.831 256.34 597.541 256.31 598.281 256.25C598.541 256.23 598.861 256.21 599.241 256.19C599.641 256.17 600.081 256.16 600.561 256.16C602.381 256.16 603.791 256.5 604.791 257.18C605.791 257.84 606.291 258.77 606.291 259.97C606.291 261.07 605.991 262.07 605.391 262.97C604.791 263.85 603.991 264.56 602.991 265.1C604.591 267.5 605.931 269.38 607.011 270.74C608.091 272.1 609.051 273.09 609.891 273.71C610.731 274.33 611.551 274.64 612.351 274.64ZM597.861 265.1C598.341 265.18 598.921 265.22 599.601 265.22C600.761 265.22 601.591 264.9 602.091 264.26C602.611 263.6 602.871 262.55 602.871 261.11C602.871 259.47 602.631 258.34 602.151 257.72C601.671 257.1 600.981 256.79 600.081 256.79C599.281 256.79 598.711 256.94 598.371 257.24C598.031 257.54 597.861 258.04 597.861 258.74V265.1ZM630.869 272.57C630.869 273.19 630.919 273.64 631.019 273.92C631.119 274.2 631.309 274.39 631.589 274.49C631.889 274.59 632.359 274.64 632.999 274.64C633.059 274.64 633.089 274.7 633.089 274.82C633.089 274.94 633.059 275 632.999 275C632.339 275 631.819 274.99 631.439 274.97L629.159 274.94L626.939 274.97C626.539 274.99 625.999 275 625.319 275C625.279 275 625.259 274.94 625.259 274.82C625.259 274.7 625.279 274.64 625.319 274.64C625.959 274.64 626.429 274.59 626.729 274.49C627.029 274.39 627.229 274.2 627.329 273.92C627.449 273.62 627.509 273.17 627.509 272.57V258.68C627.509 258.08 627.449 257.64 627.329 257.36C627.229 257.08 627.029 256.89 626.729 256.79C626.429 256.67 625.959 256.61 625.319 256.61C625.279 256.61 625.259 256.55 625.259 256.43C625.259 256.31 625.279 256.25 625.319 256.25L626.939 256.28C627.859 256.32 628.599 256.34 629.159 256.34C629.779 256.34 630.549 256.32 631.469 256.28L632.999 256.25C633.059 256.25 633.089 256.31 633.089 256.43C633.089 256.55 633.059 256.61 632.999 256.61C632.379 256.61 631.919 256.67 631.619 256.79C631.319 256.91 631.119 257.12 631.019 257.42C630.919 257.7 630.869 258.14 630.869 258.74V272.57ZM661.193 270.23C661.193 270.19 661.233 270.17 661.312 270.17C661.373 270.17 661.423 270.19 661.462 270.23C661.523 270.25 661.553 270.27 661.553 270.29C661.353 271.85 661.253 273.27 661.253 274.55C661.253 274.71 661.223 274.83 661.163 274.91C661.103 274.97 660.983 275 660.803 275H647.543C647.483 275 647.453 274.94 647.453 274.82C647.453 274.7 647.483 274.64 647.543 274.64C648.183 274.64 648.643 274.59 648.923 274.49C649.223 274.39 649.423 274.2 649.523 273.92C649.623 273.62 649.673 273.17 649.673 272.57V258.68C649.673 258.08 649.623 257.64 649.523 257.36C649.423 257.08 649.223 256.89 648.923 256.79C648.623 256.67 648.163 256.61 647.543 256.61C647.483 256.61 647.453 256.55 647.453 256.43C647.453 256.31 647.483 256.25 647.543 256.25H660.263C660.463 256.25 660.563 256.34 660.563 256.52L660.623 260.51C660.623 260.55 660.563 260.58 660.443 260.6C660.343 260.62 660.283 260.6 660.263 260.54C659.943 259.38 659.403 258.52 658.643 257.96C657.883 257.4 656.883 257.12 655.643 257.12H654.743C654.143 257.12 653.703 257.25 653.423 257.51C653.143 257.77 653.003 258.17 653.003 258.71V264.83H655.493C656.653 264.83 657.543 264.63 658.163 264.23C658.783 263.83 659.093 263.27 659.093 262.55C659.093 262.49 659.143 262.46 659.243 262.46C659.363 262.46 659.423 262.49 659.423 262.55L659.393 265.25L659.423 266.69C659.463 267.37 659.483 267.91 659.483 268.31C659.483 268.35 659.423 268.37 659.303 268.37C659.183 268.37 659.123 268.35 659.123 268.31C659.123 267.49 658.803 266.85 658.163 266.39C657.543 265.91 656.643 265.67 655.463 265.67H653.003V272.45C653.003 273.03 653.113 273.46 653.333 273.74C653.553 274.02 653.903 274.16 654.383 274.16H655.373C656.933 274.16 658.183 273.84 659.123 273.2C660.063 272.56 660.753 271.57 661.193 270.23ZM696.555 256.25C696.595 256.25 696.615 256.31 696.615 256.43C696.615 256.55 696.595 256.61 696.555 256.61C695.755 256.61 695.125 256.93 694.665 257.57C694.205 258.19 693.975 259.03 693.975 260.09V275.45C693.975 275.51 693.925 275.55 693.825 275.57C693.745 275.59 693.685 275.58 693.645 275.54L679.575 259.52V271.19C679.575 272.25 679.795 273.09 680.235 273.71C680.675 274.33 681.285 274.64 682.065 274.64C682.105 274.64 682.125 274.7 682.125 274.82C682.125 274.94 682.105 275 682.065 275C681.505 275 681.075 274.99 680.775 274.97L679.155 274.94L677.295 274.97C676.955 274.99 676.465 275 675.825 275C675.765 275 675.735 274.94 675.735 274.82C675.735 274.7 675.765 274.64 675.825 274.64C676.705 274.64 677.395 274.33 677.895 273.71C678.415 273.09 678.675 272.25 678.675 271.19V258.5C678.015 257.78 677.445 257.29 676.965 257.03C676.505 256.75 676.025 256.61 675.525 256.61C675.485 256.61 675.465 256.55 675.465 256.43C675.465 256.31 675.485 256.25 675.525 256.25L676.785 256.28C677.045 256.3 677.425 256.31 677.925 256.31L680.205 256.28C680.485 256.26 680.825 256.25 681.225 256.25C681.385 256.25 681.505 256.29 681.585 256.37C681.665 256.45 681.805 256.62 682.005 256.88C682.345 257.34 682.585 257.65 682.725 257.81L693.105 269.78V260.09C693.105 259.01 692.885 258.16 692.445 257.54C692.005 256.92 691.395 256.61 690.615 256.61C690.575 256.61 690.555 256.55 690.555 256.43C690.555 256.31 690.575 256.25 690.615 256.25L691.905 256.28C692.545 256.32 693.085 256.34 693.525 256.34C693.925 256.34 694.485 256.32 695.205 256.28L696.555 256.25ZM721.736 255.92C722.676 255.92 723.626 256 724.586 256.16C725.566 256.3 726.346 256.49 726.926 256.73C727.106 256.79 727.216 256.87 727.256 256.97C727.316 257.05 727.356 257.2 727.376 257.42L727.766 261.59C727.766 261.65 727.716 261.69 727.616 261.71C727.516 261.73 727.446 261.7 727.406 261.62C726.846 259.98 726.046 258.73 725.006 257.87C723.966 256.99 722.716 256.55 721.256 256.55C719.896 256.55 718.676 256.92 717.596 257.66C716.536 258.38 715.696 259.42 715.076 260.78C714.476 262.14 714.176 263.73 714.176 265.55C714.176 267.39 714.486 269.01 715.106 270.41C715.746 271.79 716.616 272.86 717.716 273.62C718.836 274.36 720.116 274.73 721.556 274.73C722.936 274.73 724.096 274.36 725.036 273.62C725.976 272.86 726.866 271.62 727.706 269.9C727.726 269.84 727.786 269.82 727.886 269.84C727.986 269.86 728.036 269.9 728.036 269.96L727.586 273.68C727.546 273.92 727.506 274.08 727.466 274.16C727.426 274.22 727.316 274.29 727.136 274.37C725.296 275.03 723.436 275.36 721.556 275.36C719.416 275.36 717.496 274.96 715.796 274.16C714.116 273.34 712.796 272.2 711.836 270.74C710.876 269.28 710.396 267.62 710.396 265.76C710.396 263.86 710.886 262.17 711.866 260.69C712.866 259.19 714.226 258.02 715.946 257.18C717.686 256.34 719.616 255.92 721.736 255.92ZM756.226 270.23C756.226 270.19 756.266 270.17 756.346 270.17C756.406 270.17 756.456 270.19 756.496 270.23C756.556 270.25 756.586 270.27 756.586 270.29C756.386 271.85 756.286 273.27 756.286 274.55C756.286 274.71 756.256 274.83 756.196 274.91C756.136 274.97 756.016 275 755.836 275H742.576C742.516 275 742.486 274.94 742.486 274.82C742.486 274.7 742.516 274.64 742.576 274.64C743.216 274.64 743.676 274.59 743.956 274.49C744.256 274.39 744.456 274.2 744.556 273.92C744.656 273.62 744.706 273.17 744.706 272.57V258.68C744.706 258.08 744.656 257.64 744.556 257.36C744.456 257.08 744.256 256.89 743.956 256.79C743.656 256.67 743.196 256.61 742.576 256.61C742.516 256.61 742.486 256.55 742.486 256.43C742.486 256.31 742.516 256.25 742.576 256.25H755.296C755.496 256.25 755.596 256.34 755.596 256.52L755.656 260.51C755.656 260.55 755.596 260.58 755.476 260.6C755.376 260.62 755.316 260.6 755.296 260.54C754.976 259.38 754.436 258.52 753.676 257.96C752.916 257.4 751.916 257.12 750.676 257.12H749.776C749.176 257.12 748.736 257.25 748.456 257.51C748.176 257.77 748.036 258.17 748.036 258.71V264.83H750.526C751.686 264.83 752.576 264.63 753.196 264.23C753.816 263.83 754.126 263.27 754.126 262.55C754.126 262.49 754.176 262.46 754.276 262.46C754.396 262.46 754.456 262.49 754.456 262.55L754.426 265.25L754.456 266.69C754.496 267.37 754.516 267.91 754.516 268.31C754.516 268.35 754.456 268.37 754.336 268.37C754.216 268.37 754.156 268.35 754.156 268.31C754.156 267.49 753.836 266.85 753.196 266.39C752.576 265.91 751.676 265.67 750.496 265.67H748.036V272.45C748.036 273.03 748.146 273.46 748.366 273.74C748.586 274.02 748.936 274.16 749.416 274.16H750.406C751.966 274.16 753.216 273.84 754.156 273.2C755.096 272.56 755.786 271.57 756.226 270.23ZM779.678 275.12C779.038 275.12 778.278 275.09 777.398 275.03C777.078 275.01 776.678 274.99 776.198 274.97C775.738 274.95 775.218 274.94 774.638 274.94L772.418 274.97C772.018 274.99 771.478 275 770.798 275C770.758 275 770.738 274.94 770.738 274.82C770.738 274.7 770.758 274.64 770.798 274.64C771.438 274.64 771.908 274.59 772.208 274.49C772.508 274.39 772.708 274.2 772.808 273.92C772.928 273.62 772.988 273.17 772.988 272.57V258.68C772.988 258.08 772.928 257.64 772.808 257.36C772.708 257.08 772.508 256.89 772.208 256.79C771.928 256.67 771.478 256.61 770.858 256.61C770.798 256.61 770.768 256.55 770.768 256.43C770.768 256.31 770.798 256.25 770.858 256.25L772.448 256.28C773.368 256.32 774.098 256.34 774.638 256.34C775.458 256.34 776.298 256.31 777.158 256.25C778.198 256.21 778.898 256.19 779.258 256.19C781.278 256.19 783.068 256.59 784.628 257.39C786.208 258.19 787.428 259.28 788.288 260.66C789.148 262.04 789.578 263.59 789.578 265.31C789.578 267.25 789.128 268.97 788.228 270.47C787.348 271.95 786.148 273.1 784.628 273.92C783.128 274.72 781.478 275.12 779.678 275.12ZM779.378 274.43C780.658 274.43 781.788 274.11 782.768 273.47C783.748 272.81 784.508 271.84 785.048 270.56C785.608 269.28 785.888 267.75 785.888 265.97C785.888 264.27 785.628 262.73 785.108 261.35C784.588 259.95 783.848 258.85 782.888 258.05C781.928 257.25 780.818 256.85 779.558 256.85C778.318 256.85 777.468 256.97 777.008 257.21C776.548 257.45 776.318 257.96 776.318 258.74V272.24C776.318 273.04 776.528 273.61 776.948 273.95C777.368 274.27 778.178 274.43 779.378 274.43ZM828.892 272.57C828.892 273.19 828.942 273.64 829.042 273.92C829.142 274.2 829.332 274.39 829.612 274.49C829.912 274.59 830.382 274.64 831.022 274.64C831.082 274.64 831.112 274.7 831.112 274.82C831.112 274.94 831.082 275 831.022 275C830.362 275 829.842 274.99 829.462 274.97L827.182 274.94L824.962 274.97C824.562 274.99 824.022 275 823.342 275C823.302 275 823.282 274.94 823.282 274.82C823.282 274.7 823.302 274.64 823.342 274.64C823.982 274.64 824.452 274.59 824.752 274.49C825.052 274.39 825.252 274.2 825.352 273.92C825.472 273.62 825.532 273.17 825.532 272.57V258.68C825.532 258.08 825.472 257.64 825.352 257.36C825.252 257.08 825.052 256.89 824.752 256.79C824.452 256.67 823.982 256.61 823.342 256.61C823.302 256.61 823.282 256.55 823.282 256.43C823.282 256.31 823.302 256.25 823.342 256.25L824.962 256.28C825.882 256.32 826.622 256.34 827.182 256.34C827.802 256.34 828.572 256.32 829.492 256.28L831.022 256.25C831.082 256.25 831.112 256.31 831.112 256.43C831.112 256.55 831.082 256.61 831.022 256.61C830.402 256.61 829.942 256.67 829.642 256.79C829.342 256.91 829.142 257.12 829.042 257.42C828.942 257.7 828.892 258.14 828.892 258.74V272.57ZM866.026 256.25C866.066 256.25 866.086 256.31 866.086 256.43C866.086 256.55 866.066 256.61 866.026 256.61C865.226 256.61 864.596 256.93 864.136 257.57C863.676 258.19 863.446 259.03 863.446 260.09V275.45C863.446 275.51 863.396 275.55 863.296 275.57C863.216 275.59 863.156 275.58 863.116 275.54L849.046 259.52V271.19C849.046 272.25 849.266 273.09 849.706 273.71C850.146 274.33 850.756 274.64 851.536 274.64C851.576 274.64 851.596 274.7 851.596 274.82C851.596 274.94 851.576 275 851.536 275C850.976 275 850.546 274.99 850.246 274.97L848.626 274.94L846.766 274.97C846.426 274.99 845.936 275 845.296 275C845.236 275 845.206 274.94 845.206 274.82C845.206 274.7 845.236 274.64 845.296 274.64C846.176 274.64 846.866 274.33 847.366 273.71C847.886 273.09 848.146 272.25 848.146 271.19V258.5C847.486 257.78 846.916 257.29 846.436 257.03C845.976 256.75 845.496 256.61 844.996 256.61C844.956 256.61 844.936 256.55 844.936 256.43C844.936 256.31 844.956 256.25 844.996 256.25L846.256 256.28C846.516 256.3 846.896 256.31 847.396 256.31L849.676 256.28C849.956 256.26 850.296 256.25 850.696 256.25C850.856 256.25 850.976 256.29 851.056 256.37C851.136 256.45 851.276 256.62 851.476 256.88C851.816 257.34 852.056 257.65 852.196 257.81L862.576 269.78V260.09C862.576 259.01 862.356 258.16 861.916 257.54C861.476 256.92 860.866 256.61 860.086 256.61C860.046 256.61 860.026 256.55 860.026 256.43C860.026 256.31 860.046 256.25 860.086 256.25L861.376 256.28C862.016 256.32 862.556 256.34 862.996 256.34C863.396 256.34 863.956 256.32 864.676 256.28L866.026 256.25Z" fill="#1B1B1B"/>
<line x1="9.5" y1="265.5" x2="436.5" y2="265.5" stroke="#1B1B1B" stroke-width="3" stroke-linecap="round"/>
<path d="M34.62 333.02C34.62 333.1 34.5 333.16 34.26 333.2C34.06 333.24 33.94 333.2 33.9 333.08C33.26 330.76 32.18 329.04 30.66 327.92C29.14 326.8 27.14 326.24 24.66 326.24H22.86C21.66 326.24 20.78 326.5 20.22 327.02C19.66 327.54 19.38 328.34 19.38 329.42V342.38H23.7C26.02 342.38 27.78 341.98 28.98 341.18C30.22 340.34 30.84 339.2 30.84 337.76C30.84 337.68 30.96 337.64 31.2 337.64C31.44 337.64 31.56 337.68 31.56 337.76L31.5 343.22C31.5 344.5 31.52 345.46 31.56 346.1L31.62 349.28C31.62 349.4 31.5 349.46 31.26 349.46C31.02 349.46 30.9 349.4 30.9 349.28C30.9 347.68 30.26 346.42 28.98 345.5C27.74 344.54 25.96 344.06 23.64 344.06H19.38V356.9C19.38 358.14 19.54 359.06 19.86 359.66C20.18 360.26 20.78 360.68 21.66 360.92C22.54 361.16 23.92 361.28 25.8 361.28C25.88 361.28 25.92 361.4 25.92 361.64C25.92 361.88 25.88 362 25.8 362C24.16 362 22.88 361.98 21.96 361.94L15.84 361.88L11.34 361.94C10.54 361.98 9.44 362 8.04 362C7.92 362 7.86 361.88 7.86 361.64C7.86 361.4 7.92 361.28 8.04 361.28C9.44 361.28 10.46 361.18 11.1 360.98C11.74 360.78 12.16 360.4 12.36 359.84C12.6 359.24 12.72 358.34 12.72 357.14V329.36C12.72 328.16 12.62 327.28 12.42 326.72C12.22 326.16 11.82 325.78 11.22 325.58C10.62 325.34 9.7 325.22 8.46 325.22C8.34 325.22 8.28 325.1 8.28 324.86C8.28 324.62 8.34 324.5 8.46 324.5H33.9C34.3 324.5 34.5 324.68 34.5 325.04L34.62 333.02ZM97.6477 332.18C97.6477 330.02 97.1477 328.32 96.1477 327.08C95.1877 325.84 93.8277 325.22 92.0677 325.22C91.9877 325.22 91.9477 325.1 91.9477 324.86C91.9477 324.62 91.9877 324.5 92.0677 324.5L94.9477 324.56C96.4677 324.64 97.6877 324.68 98.6077 324.68C99.3677 324.68 100.468 324.64 101.908 324.56L104.668 324.5C104.748 324.5 104.788 324.62 104.788 324.86C104.788 325.1 104.748 325.22 104.668 325.22C103.108 325.22 101.888 325.84 101.008 327.08C100.128 328.32 99.6877 330.02 99.6877 332.18V348.86C99.6877 351.66 99.0677 354.12 97.8277 356.24C96.5877 358.36 94.8277 360 92.5477 361.16C90.3077 362.28 87.7077 362.84 84.7477 362.84C81.7877 362.84 79.1677 362.28 76.8877 361.16C74.6077 360.04 72.8077 358.42 71.4877 356.3C70.2077 354.14 69.5677 351.62 69.5677 348.74V329.36C69.5677 328.16 69.4477 327.28 69.2077 326.72C69.0077 326.16 68.6077 325.78 68.0077 325.58C67.4477 325.34 66.5477 325.22 65.3077 325.22C65.1877 325.22 65.1277 325.1 65.1277 324.86C65.1277 324.62 65.1877 324.5 65.3077 324.5L68.4877 324.56C70.3277 324.64 71.7877 324.68 72.8677 324.68C74.0677 324.68 75.5877 324.64 77.4277 324.56L80.4877 324.5C80.6077 324.5 80.6677 324.62 80.6677 324.86C80.6677 325.1 80.6077 325.22 80.4877 325.22C79.2477 325.22 78.3277 325.34 77.7277 325.58C77.1677 325.82 76.7677 326.24 76.5277 326.84C76.3277 327.4 76.2277 328.28 76.2277 329.48V346.64C76.2277 351.4 77.1677 354.92 79.0477 357.2C80.9277 359.48 83.5877 360.62 87.0277 360.62C90.3477 360.62 92.9477 359.62 94.8277 357.62C96.7077 355.58 97.6477 352.68 97.6477 348.92V332.18ZM144.395 356.9C144.395 357.94 144.475 358.7 144.635 359.18C144.795 359.62 145.095 359.92 145.535 360.08C146.015 360.24 146.775 360.32 147.815 360.32H149.855C152.975 360.32 155.675 359.5 157.955 357.86C160.235 356.18 161.755 353.92 162.515 351.08C162.515 351 162.595 350.96 162.755 350.96C162.835 350.96 162.915 351 162.995 351.08C163.115 351.12 163.175 351.16 163.175 351.2C162.815 355.16 162.635 358.46 162.635 361.1C162.635 361.42 162.555 361.66 162.395 361.82C162.275 361.94 162.055 362 161.735 362H133.415C133.335 362 133.295 361.88 133.295 361.64C133.295 361.4 133.335 361.28 133.415 361.28C134.695 361.28 135.615 361.18 136.175 360.98C136.775 360.78 137.175 360.4 137.375 359.84C137.615 359.24 137.735 358.34 137.735 357.14V329.36C137.735 328.16 137.615 327.28 137.375 326.72C137.175 326.16 136.775 325.78 136.175 325.58C135.575 325.34 134.655 325.22 133.415 325.22C133.335 325.22 133.295 325.1 133.295 324.86C133.295 324.62 133.335 324.5 133.415 324.5L136.475 324.56C138.315 324.64 139.835 324.68 141.035 324.68C142.235 324.68 143.755 324.64 145.595 324.56L148.655 324.5C148.775 324.5 148.835 324.62 148.835 324.86C148.835 325.1 148.775 325.22 148.655 325.22C147.415 325.22 146.495 325.34 145.895 325.58C145.295 325.78 144.895 326.18 144.695 326.78C144.495 327.34 144.395 328.22 144.395 329.42V356.9ZM203.13 356.9C203.13 357.94 203.21 358.7 203.37 359.18C203.53 359.62 203.83 359.92 204.27 360.08C204.75 360.24 205.51 360.32 206.55 360.32H208.59C211.71 360.32 214.41 359.5 216.69 357.86C218.97 356.18 220.49 353.92 221.25 351.08C221.25 351 221.33 350.96 221.49 350.96C221.57 350.96 221.65 351 221.73 351.08C221.85 351.12 221.91 351.16 221.91 351.2C221.55 355.16 221.37 358.46 221.37 361.1C221.37 361.42 221.29 361.66 221.13 361.82C221.01 361.94 220.79 362 220.47 362H192.15C192.07 362 192.03 361.88 192.03 361.64C192.03 361.4 192.07 361.28 192.15 361.28C193.43 361.28 194.35 361.18 194.91 360.98C195.51 360.78 195.91 360.4 196.11 359.84C196.35 359.24 196.47 358.34 196.47 357.14V329.36C196.47 328.16 196.35 327.28 196.11 326.72C195.91 326.16 195.51 325.78 194.91 325.58C194.31 325.34 193.39 325.22 192.15 325.22C192.07 325.22 192.03 325.1 192.03 324.86C192.03 324.62 192.07 324.5 192.15 324.5L195.21 324.56C197.05 324.64 198.57 324.68 199.77 324.68C200.97 324.68 202.49 324.64 204.33 324.56L207.39 324.5C207.51 324.5 207.57 324.62 207.57 324.86C207.57 325.1 207.51 325.22 207.39 325.22C206.15 325.22 205.23 325.34 204.63 325.58C204.03 325.78 203.63 326.18 203.43 326.78C203.23 327.34 203.13 328.22 203.13 329.42V356.9ZM299.628 330.56C299.628 332 299.988 333.28 300.708 334.4C301.468 335.52 302.388 336.5 303.468 337.34C304.548 338.18 306.008 339.2 307.848 340.4C309.848 341.68 311.448 342.8 312.648 343.76C313.848 344.72 314.868 345.9 315.708 347.3C316.548 348.66 316.968 350.24 316.968 352.04C316.968 354.12 316.408 355.98 315.288 357.62C314.168 359.22 312.608 360.48 310.608 361.4C308.648 362.28 306.448 362.72 304.008 362.72C302.208 362.72 300.328 362.48 298.368 362C296.408 361.48 295.088 360.92 294.408 360.32C294.208 360.16 294.048 360.02 293.928 359.9C293.848 359.74 293.808 359.5 293.808 359.18L293.628 349.64V349.58C293.628 349.42 293.728 349.34 293.928 349.34C294.128 349.3 294.248 349.36 294.288 349.52C295.488 351.96 296.528 353.94 297.408 355.46C298.328 356.98 299.468 358.32 300.828 359.48C302.228 360.64 303.808 361.22 305.568 361.22C307.168 361.22 308.488 360.8 309.528 359.96C310.568 359.08 311.088 357.6 311.088 355.52C311.088 353.76 310.688 352.22 309.888 350.9C309.128 349.58 308.188 348.46 307.068 347.54C305.948 346.62 304.408 345.52 302.448 344.24C300.528 343 299.028 341.94 297.948 341.06C296.908 340.18 296.008 339.12 295.248 337.88C294.488 336.64 294.108 335.18 294.108 333.5C294.108 331.38 294.708 329.6 295.908 328.16C297.148 326.68 298.728 325.6 300.648 324.92C302.568 324.2 304.588 323.84 306.708 323.84C308.108 323.84 309.528 323.98 310.968 324.26C312.408 324.5 313.568 324.8 314.448 325.16C314.808 325.32 315.048 325.5 315.168 325.7C315.288 325.86 315.348 326.08 315.348 326.36V335.18C315.348 335.3 315.248 335.4 315.048 335.48C314.848 335.52 314.728 335.48 314.688 335.36L314.208 334.22C313.208 331.7 312.028 329.56 310.668 327.8C309.348 326.04 307.488 325.16 305.088 325.16C303.488 325.16 302.168 325.62 301.128 326.54C300.128 327.46 299.628 328.8 299.628 330.56ZM359.427 325.88C354.667 325.88 351.247 328.98 349.167 335.18C349.127 335.3 349.007 335.36 348.807 335.36C348.607 335.32 348.507 335.24 348.507 335.12C348.667 333.52 348.847 331.46 349.047 328.94C349.247 326.38 349.347 324.46 349.347 323.18C349.347 322.98 349.447 322.88 349.647 322.88C349.887 322.88 350.007 322.98 350.007 323.18C350.007 324.06 351.147 324.5 353.427 324.5C356.867 324.62 360.887 324.68 365.487 324.68C367.847 324.68 370.347 324.64 372.987 324.56L377.067 324.5C378.587 324.5 379.687 324.4 380.367 324.2C381.087 324 381.547 323.6 381.747 323C381.787 322.84 381.907 322.76 382.107 322.76C382.347 322.76 382.467 322.84 382.467 323C382.347 324.2 382.207 326.12 382.047 328.76C381.927 331.4 381.867 333.52 381.867 335.12C381.867 335.24 381.767 335.3 381.567 335.3C381.367 335.3 381.247 335.24 381.207 335.12C380.607 332.04 379.487 329.74 377.847 328.22C376.207 326.66 374.187 325.88 371.787 325.88C370.627 325.88 369.847 326.14 369.447 326.66C369.087 327.14 368.907 328.08 368.907 329.48V357.14C368.907 358.38 369.027 359.28 369.267 359.84C369.507 360.4 369.967 360.78 370.647 360.98C371.327 361.18 372.407 361.28 373.887 361.28C374.007 361.28 374.067 361.4 374.067 361.64C374.067 361.88 374.007 362 373.887 362C372.447 362 371.307 361.98 370.467 361.94L365.487 361.88L360.627 361.94C359.787 361.98 358.627 362 357.147 362C357.027 362 356.967 361.88 356.967 361.64C356.967 361.4 357.027 361.28 357.147 361.28C358.587 361.28 359.647 361.18 360.327 360.98C361.047 360.78 361.527 360.4 361.767 359.84C362.047 359.24 362.187 358.34 362.187 357.14V329.36C362.187 328 362.007 327.08 361.647 326.6C361.287 326.12 360.547 325.88 359.427 325.88ZM449.503 361.28C449.703 361.28 449.803 361.4 449.803 361.64C449.803 361.88 449.703 362 449.503 362C448.703 362 447.463 361.96 445.783 361.88C444.023 361.8 442.763 361.76 442.003 361.76C441.003 361.76 439.783 361.8 438.343 361.88C436.983 361.96 435.903 362 435.103 362C434.943 362 434.863 361.88 434.863 361.64C434.863 361.4 434.943 361.28 435.103 361.28C436.143 361.28 436.883 361.18 437.323 360.98C437.803 360.74 438.043 360.34 438.043 359.78C438.043 359.1 437.643 357.96 436.843 356.36L432.763 348.26H418.003L415.663 353.48C415.143 354.64 414.883 355.72 414.883 356.72C414.883 358.16 415.383 359.28 416.383 360.08C417.423 360.88 418.803 361.28 420.523 361.28C420.723 361.28 420.823 361.4 420.823 361.64C420.823 361.88 420.723 362 420.523 362C419.803 362 418.763 361.96 417.403 361.88C415.883 361.8 414.563 361.76 413.443 361.76C412.363 361.76 411.063 361.8 409.543 361.88C408.183 361.96 407.083 362 406.243 362C406.083 362 406.003 361.88 406.003 361.64C406.003 361.4 406.083 361.28 406.243 361.28C407.363 361.28 408.303 361.06 409.063 360.62C409.823 360.14 410.583 359.32 411.343 358.16C412.103 356.96 413.003 355.2 414.043 352.88L427.063 324.26C427.143 324.14 427.323 324.08 427.603 324.08C427.923 324.08 428.103 324.14 428.143 324.26L443.143 353.78C444.543 356.62 445.703 358.58 446.623 359.66C447.543 360.74 448.503 361.28 449.503 361.28ZM418.783 346.58H431.863L424.963 332.9L418.783 346.58ZM500.389 323.84C502.269 323.84 504.169 324 506.089 324.32C508.049 324.6 509.609 324.98 510.769 325.46C511.129 325.58 511.349 325.74 511.429 325.94C511.549 326.1 511.629 326.4 511.669 326.84L512.449 335.18C512.449 335.3 512.349 335.38 512.149 335.42C511.949 335.46 511.809 335.4 511.729 335.24C510.609 331.96 509.009 329.46 506.929 327.74C504.849 325.98 502.349 325.1 499.429 325.1C496.709 325.1 494.269 325.84 492.109 327.32C489.989 328.76 488.309 330.84 487.069 333.56C485.869 336.28 485.269 339.46 485.269 343.1C485.269 346.78 485.889 350.02 487.129 352.82C488.409 355.58 490.149 357.72 492.349 359.24C494.589 360.72 497.149 361.46 500.029 361.46C502.789 361.46 505.109 360.72 506.989 359.24C508.869 357.72 510.649 355.24 512.329 351.8C512.369 351.68 512.489 351.64 512.689 351.68C512.889 351.72 512.989 351.8 512.989 351.92L512.089 359.36C512.009 359.84 511.929 360.16 511.849 360.32C511.769 360.44 511.549 360.58 511.189 360.74C507.509 362.06 503.789 362.72 500.029 362.72C495.749 362.72 491.909 361.92 488.509 360.32C485.149 358.68 482.509 356.4 480.589 353.48C478.669 350.56 477.709 347.24 477.709 343.52C477.709 339.72 478.689 336.34 480.649 333.38C482.649 330.38 485.369 328.04 488.809 326.36C492.289 324.68 496.149 323.84 500.389 323.84ZM581.489 361.28C581.609 361.28 581.669 361.4 581.669 361.64C581.669 361.88 581.609 362 581.489 362H574.769C574.129 362 573.589 362.02 573.149 362.06C572.709 362.1 572.349 362.12 572.069 362.12C571.429 362.12 570.869 361.98 570.389 361.7C569.949 361.38 569.389 360.82 568.709 360.02C568.069 359.22 566.909 357.68 565.229 355.4C565.029 355.12 564.789 354.82 564.509 354.5C564.269 354.14 563.989 353.74 563.669 353.3L555.809 342.74L554.489 344.06V357.14C554.489 358.38 554.589 359.28 554.789 359.84C554.989 360.4 555.369 360.78 555.929 360.98C556.529 361.18 557.469 361.28 558.749 361.28C558.909 361.28 558.989 361.4 558.989 361.64C558.989 361.88 558.909 362 558.749 362C557.429 362 556.389 361.98 555.629 361.94L551.129 361.88L546.689 361.94C545.889 361.98 544.809 362 543.449 362C543.369 362 543.329 361.88 543.329 361.64C543.329 361.4 543.369 361.28 543.449 361.28C544.729 361.28 545.669 361.18 546.269 360.98C546.869 360.78 547.269 360.4 547.469 359.84C547.709 359.24 547.829 358.34 547.829 357.14V329.36C547.829 328.16 547.709 327.28 547.469 326.72C547.269 326.16 546.869 325.78 546.269 325.58C545.709 325.34 544.809 325.22 543.569 325.22C543.449 325.22 543.389 325.1 543.389 324.86C543.389 324.62 543.449 324.5 543.569 324.5L546.749 324.56C548.589 324.64 550.049 324.68 551.129 324.68C552.329 324.68 553.849 324.64 555.689 324.56L558.749 324.5C558.869 324.5 558.929 324.62 558.929 324.86C558.929 325.1 558.869 325.22 558.749 325.22C557.509 325.22 556.589 325.34 555.989 325.58C555.429 325.82 555.029 326.24 554.789 326.84C554.589 327.4 554.489 328.28 554.489 329.48V342.2L565.769 330.68C566.929 329.52 567.509 328.46 567.509 327.5C567.509 326.78 567.189 326.22 566.549 325.82C565.909 325.42 565.009 325.22 563.849 325.22C563.729 325.22 563.669 325.1 563.669 324.86C563.669 324.62 563.729 324.5 563.849 324.5L566.669 324.56C568.429 324.64 570.069 324.68 571.589 324.68C573.229 324.68 574.929 324.64 576.689 324.56L579.389 324.5C579.509 324.5 579.569 324.62 579.569 324.86C579.569 325.1 579.509 325.22 579.389 325.22C577.549 325.22 575.529 325.76 573.329 326.84C571.129 327.88 569.129 329.28 567.329 331.04L560.549 337.94L569.429 349.94C572.029 353.66 573.969 356.3 575.249 357.86C576.569 359.38 577.629 360.34 578.429 360.74C579.229 361.1 580.249 361.28 581.489 361.28ZM666.668 362.24C665.388 362.24 663.868 362.18 662.108 362.06C661.468 362.02 660.668 361.98 659.708 361.94C658.788 361.9 657.748 361.88 656.588 361.88L652.148 361.94C651.348 361.98 650.268 362 648.908 362C648.828 362 648.788 361.88 648.788 361.64C648.788 361.4 648.828 361.28 648.908 361.28C650.188 361.28 651.128 361.18 651.728 360.98C652.328 360.78 652.728 360.4 652.928 359.84C653.168 359.24 653.288 358.34 653.288 357.14V329.36C653.288 328.16 653.168 327.28 652.928 326.72C652.728 326.16 652.328 325.78 651.728 325.58C651.168 325.34 650.268 325.22 649.028 325.22C648.908 325.22 648.848 325.1 648.848 324.86C648.848 324.62 648.908 324.5 649.028 324.5L652.208 324.56C654.048 324.64 655.508 324.68 656.588 324.68C658.228 324.68 659.908 324.62 661.628 324.5C663.708 324.42 665.108 324.38 665.828 324.38C669.868 324.38 673.448 325.18 676.568 326.78C679.728 328.38 682.168 330.56 683.888 333.32C685.608 336.08 686.468 339.18 686.468 342.62C686.468 346.5 685.568 349.94 683.768 352.94C682.008 355.9 679.608 358.2 676.568 359.84C673.568 361.44 670.268 362.24 666.668 362.24ZM666.068 360.86C668.628 360.86 670.888 360.22 672.848 358.94C674.808 357.62 676.328 355.68 677.408 353.12C678.528 350.56 679.088 347.5 679.088 343.94C679.088 340.54 678.568 337.46 677.528 334.7C676.488 331.9 675.008 329.7 673.088 328.1C671.168 326.5 668.948 325.7 666.428 325.7C663.948 325.7 662.248 325.94 661.328 326.42C660.408 326.9 659.948 327.92 659.948 329.48V356.48C659.948 358.08 660.368 359.22 661.208 359.9C662.048 360.54 663.668 360.86 666.068 360.86ZM745.213 352.46C745.213 352.38 745.293 352.34 745.453 352.34C745.573 352.34 745.673 352.38 745.753 352.46C745.873 352.5 745.933 352.54 745.933 352.58C745.533 355.7 745.333 358.54 745.333 361.1C745.333 361.42 745.273 361.66 745.153 361.82C745.033 361.94 744.793 362 744.433 362H717.913C717.793 362 717.733 361.88 717.733 361.64C717.733 361.4 717.793 361.28 717.913 361.28C719.193 361.28 720.113 361.18 720.673 360.98C721.273 360.78 721.673 360.4 721.873 359.84C722.073 359.24 722.173 358.34 722.173 357.14V329.36C722.173 328.16 722.073 327.28 721.873 326.72C721.673 326.16 721.273 325.78 720.673 325.58C720.073 325.34 719.153 325.22 717.913 325.22C717.793 325.22 717.733 325.1 717.733 324.86C717.733 324.62 717.793 324.5 717.913 324.5H743.353C743.753 324.5 743.953 324.68 743.953 325.04L744.073 333.02C744.073 333.1 743.953 333.16 743.713 333.2C743.513 333.24 743.393 333.2 743.353 333.08C742.713 330.76 741.633 329.04 740.113 327.92C738.593 326.8 736.593 326.24 734.113 326.24H732.313C731.113 326.24 730.233 326.5 729.673 327.02C729.113 327.54 728.833 328.34 728.833 329.42V341.66H733.813C736.133 341.66 737.913 341.26 739.153 340.46C740.393 339.66 741.013 338.54 741.013 337.1C741.013 336.98 741.113 336.92 741.313 336.92C741.553 336.92 741.673 336.98 741.673 337.1L741.613 342.5L741.673 345.38C741.753 346.74 741.793 347.82 741.793 348.62C741.793 348.7 741.673 348.74 741.433 348.74C741.193 348.74 741.073 348.7 741.073 348.62C741.073 346.98 740.433 345.7 739.153 344.78C737.913 343.82 736.113 343.34 733.753 343.34H728.833V356.9C728.833 358.06 729.053 358.92 729.493 359.48C729.933 360.04 730.633 360.32 731.593 360.32H733.573C736.693 360.32 739.193 359.68 741.073 358.4C742.953 357.12 744.333 355.14 745.213 352.46ZM814.498 324.5C814.618 324.5 814.678 324.62 814.678 324.86C814.678 325.1 814.618 325.22 814.498 325.22C813.058 325.22 811.678 325.86 810.358 327.14C809.038 328.42 807.978 330.14 807.178 332.3L796.078 361.94C796.038 362.1 795.818 362.18 795.418 362.18C795.018 362.18 794.798 362.1 794.758 361.94L779.458 329.48C778.738 328.04 778.018 326.98 777.298 326.3C776.578 325.58 775.778 325.22 774.898 325.22C774.778 325.22 774.718 325.1 774.718 324.86C774.718 324.62 774.778 324.5 774.898 324.5C775.498 324.5 775.918 324.52 776.158 324.56C776.958 324.64 777.998 324.68 779.278 324.68C782.718 324.68 785.638 324.64 788.038 324.56C788.678 324.52 789.478 324.5 790.438 324.5C790.558 324.5 790.618 324.62 790.618 324.86C790.618 325.1 790.558 325.22 790.438 325.22C789.238 325.22 788.298 325.48 787.618 326C786.978 326.48 786.658 327.18 786.658 328.1C786.658 328.78 786.878 329.6 787.318 330.56L797.698 352.7L805.498 332.12C805.898 331 806.098 330.04 806.098 329.24C806.098 328 805.718 327.02 804.958 326.3C804.238 325.58 803.178 325.22 801.778 325.22C801.658 325.22 801.598 325.1 801.598 324.86C801.598 324.62 801.658 324.5 801.778 324.5L804.718 324.56C806.398 324.64 807.898 324.68 809.218 324.68C809.978 324.68 810.918 324.64 812.038 324.56L814.498 324.5ZM870.007 352.46C870.007 352.38 870.087 352.34 870.247 352.34C870.367 352.34 870.467 352.38 870.547 352.46C870.667 352.5 870.727 352.54 870.727 352.58C870.327 355.7 870.127 358.54 870.127 361.1C870.127 361.42 870.067 361.66 869.947 361.82C869.827 361.94 869.587 362 869.227 362H842.707C842.587 362 842.527 361.88 842.527 361.64C842.527 361.4 842.587 361.28 842.707 361.28C843.987 361.28 844.907 361.18 845.467 360.98C846.067 360.78 846.467 360.4 846.667 359.84C846.867 359.24 846.967 358.34 846.967 357.14V329.36C846.967 328.16 846.867 327.28 846.667 326.72C846.467 326.16 846.067 325.78 845.467 325.58C844.867 325.34 843.947 325.22 842.707 325.22C842.587 325.22 842.527 325.1 842.527 324.86C842.527 324.62 842.587 324.5 842.707 324.5H868.147C868.547 324.5 868.747 324.68 868.747 325.04L868.867 333.02C868.867 333.1 868.747 333.16 868.507 333.2C868.307 333.24 868.187 333.2 868.147 333.08C867.507 330.76 866.427 329.04 864.907 327.92C863.387 326.8 861.387 326.24 858.907 326.24H857.107C855.907 326.24 855.027 326.5 854.467 327.02C853.907 327.54 853.627 328.34 853.627 329.42V341.66H858.607C860.927 341.66 862.707 341.26 863.947 340.46C865.187 339.66 865.807 338.54 865.807 337.1C865.807 336.98 865.907 336.92 866.107 336.92C866.347 336.92 866.467 336.98 866.467 337.1L866.407 342.5L866.467 345.38C866.547 346.74 866.587 347.82 866.587 348.62C866.587 348.7 866.467 348.74 866.227 348.74C865.987 348.74 865.867 348.7 865.867 348.62C865.867 346.98 865.227 345.7 863.947 344.78C862.707 343.82 860.907 343.34 858.547 343.34H853.627V356.9C853.627 358.06 853.847 358.92 854.287 359.48C854.727 360.04 855.427 360.32 856.387 360.32H858.367C861.487 360.32 863.987 359.68 865.867 358.4C867.747 357.12 869.127 355.14 870.007 352.46ZM912.173 356.9C912.173 357.94 912.253 358.7 912.413 359.18C912.573 359.62 912.873 359.92 913.313 360.08C913.793 360.24 914.553 360.32 915.593 360.32H917.633C920.753 360.32 923.453 359.5 925.733 357.86C928.013 356.18 929.533 353.92 930.293 351.08C930.293 351 930.373 350.96 930.533 350.96C930.613 350.96 930.693 351 930.773 351.08C930.893 351.12 930.953 351.16 930.953 351.2C930.593 355.16 930.413 358.46 930.413 361.1C930.413 361.42 930.333 361.66 930.173 361.82C930.053 361.94 929.833 362 929.513 362H901.193C901.113 362 901.073 361.88 901.073 361.64C901.073 361.4 901.113 361.28 901.193 361.28C902.473 361.28 903.393 361.18 903.953 360.98C904.553 360.78 904.953 360.4 905.153 359.84C905.393 359.24 905.513 358.34 905.513 357.14V329.36C905.513 328.16 905.393 327.28 905.153 326.72C904.953 326.16 904.553 325.78 903.953 325.58C903.353 325.34 902.433 325.22 901.193 325.22C901.113 325.22 901.073 325.1 901.073 324.86C901.073 324.62 901.113 324.5 901.193 324.5L904.253 324.56C906.093 324.64 907.613 324.68 908.813 324.68C910.013 324.68 911.533 324.64 913.373 324.56L916.433 324.5C916.553 324.5 916.613 324.62 916.613 324.86C916.613 325.1 916.553 325.22 916.433 325.22C915.193 325.22 914.273 325.34 913.673 325.58C913.073 325.78 912.673 326.18 912.473 326.78C912.273 327.34 912.173 328.22 912.173 329.42V356.9ZM980.088 362.72C976.368 362.72 973.048 361.86 970.128 360.14C967.248 358.38 965.008 356.02 963.408 353.06C961.848 350.06 961.068 346.8 961.068 343.28C961.068 339.16 962.108 335.64 964.188 332.72C966.268 329.76 968.928 327.54 972.168 326.06C975.448 324.58 978.788 323.84 982.188 323.84C985.988 323.84 989.328 324.74 992.208 326.54C995.088 328.3 997.288 330.64 998.808 333.56C1000.37 336.48 1001.15 339.58 1001.15 342.86C1001.15 346.5 1000.19 349.84 998.268 352.88C996.348 355.92 993.768 358.32 990.528 360.08C987.328 361.84 983.848 362.72 980.088 362.72ZM982.068 361.22C984.308 361.22 986.308 360.58 988.068 359.3C989.868 357.98 991.268 356.08 992.268 353.6C993.268 351.08 993.768 348.08 993.768 344.6C993.768 340.92 993.208 337.64 992.088 334.76C990.968 331.84 989.348 329.56 987.228 327.92C985.108 326.28 982.628 325.46 979.788 325.46C976.148 325.46 973.348 326.84 971.388 329.6C969.428 332.32 968.448 336.14 968.448 341.06C968.448 344.94 969.028 348.42 970.188 351.5C971.388 354.54 973.008 356.92 975.048 358.64C977.128 360.36 979.468 361.22 982.068 361.22ZM1043.07 356.9C1043.07 358.18 1043.21 359.12 1043.49 359.72C1043.77 360.28 1044.29 360.68 1045.05 360.92C1045.85 361.16 1047.11 361.28 1048.83 361.28C1048.95 361.28 1049.01 361.4 1049.01 361.64C1049.01 361.88 1048.95 362 1048.83 362C1047.19 362 1045.91 361.98 1044.99 361.94L1039.77 361.88L1035.39 361.94C1034.59 361.98 1033.51 362 1032.15 362C1032.03 362 1031.97 361.88 1031.97 361.64C1031.97 361.4 1032.03 361.28 1032.15 361.28C1033.43 361.28 1034.35 361.18 1034.91 360.98C1035.51 360.78 1035.91 360.4 1036.11 359.84C1036.31 359.24 1036.41 358.34 1036.41 357.14V329.36C1036.41 328.16 1036.31 327.28 1036.11 326.72C1035.91 326.16 1035.51 325.78 1034.91 325.58C1034.31 325.34 1033.39 325.22 1032.15 325.22C1032.03 325.22 1031.97 325.1 1031.97 324.86C1031.97 324.62 1032.03 324.5 1032.15 324.5L1035.33 324.56C1037.17 324.64 1038.63 324.68 1039.71 324.68C1040.67 324.68 1041.81 324.62 1043.13 324.5C1043.65 324.46 1044.31 324.42 1045.11 324.38C1045.91 324.34 1046.83 324.32 1047.87 324.32C1051.95 324.32 1055.17 325.18 1057.53 326.9C1059.89 328.58 1061.07 331.2 1061.07 334.76C1061.07 337.24 1060.43 339.34 1059.15 341.06C1057.87 342.78 1056.21 344.08 1054.17 344.96C1052.17 345.84 1050.11 346.28 1047.99 346.28C1046.91 346.28 1045.97 346.18 1045.17 345.98C1045.09 345.98 1045.05 345.88 1045.05 345.68C1045.05 345.56 1045.07 345.44 1045.11 345.32C1045.19 345.2 1045.27 345.16 1045.35 345.2C1045.95 345.36 1046.63 345.44 1047.39 345.44C1049.23 345.44 1050.75 344.58 1051.95 342.86C1053.19 341.14 1053.81 338.7 1053.81 335.54C1053.81 332.38 1053.13 329.94 1051.77 328.22C1050.45 326.5 1048.51 325.64 1045.95 325.64C1044.83 325.64 1044.07 325.9 1043.67 326.42C1043.27 326.94 1043.07 327.96 1043.07 329.48V356.9ZM1139.29 361.28C1139.37 361.28 1139.41 361.4 1139.41 361.64C1139.41 361.88 1139.37 362 1139.29 362C1137.93 362 1136.85 361.98 1136.05 361.94L1131.61 361.88L1127.11 361.94C1126.35 361.98 1125.31 362 1123.99 362C1123.87 362 1123.81 361.88 1123.81 361.64C1123.81 361.4 1123.87 361.28 1123.99 361.28C1125.67 361.28 1126.81 361.08 1127.41 360.68C1128.01 360.28 1128.31 359.44 1128.31 358.16L1128.25 357.14L1126.99 332.6L1114.63 361.58C1114.55 361.74 1114.39 361.82 1114.15 361.82C1113.91 361.82 1113.75 361.74 1113.67 361.58L1098.49 332.72L1098.01 354.38C1097.97 356.54 1098.39 358.24 1099.27 359.48C1100.19 360.68 1101.47 361.28 1103.11 361.28C1103.23 361.28 1103.29 361.4 1103.29 361.64C1103.29 361.88 1103.23 362 1103.11 362C1102.03 362 1101.19 361.98 1100.59 361.94L1097.29 361.88L1093.51 361.94C1092.87 361.98 1092.01 362 1090.93 362C1090.81 362 1090.75 361.88 1090.75 361.64C1090.75 361.4 1090.81 361.28 1090.93 361.28C1092.57 361.28 1093.87 360.66 1094.83 359.42C1095.79 358.18 1096.29 356.5 1096.33 354.38L1096.87 329.54L1096.81 329.48C1096.01 328 1095.17 326.92 1094.29 326.24C1093.45 325.56 1092.47 325.22 1091.35 325.22C1091.23 325.22 1091.17 325.1 1091.17 324.86C1091.17 324.62 1091.23 324.5 1091.35 324.5L1094.17 324.56C1094.73 324.6 1095.45 324.62 1096.33 324.62L1099.51 324.56C1099.87 324.52 1100.33 324.5 1100.89 324.5C1101.41 324.5 1101.81 324.68 1102.09 325.04C1102.37 325.4 1102.89 326.26 1103.65 327.62L1116.73 352.16L1128.13 326C1128.37 325.44 1128.61 325.06 1128.85 324.86C1129.13 324.62 1129.49 324.5 1129.93 324.5C1130.29 324.5 1130.69 324.52 1131.13 324.56C1131.61 324.6 1132.15 324.62 1132.75 324.62L1136.29 324.56C1136.85 324.52 1137.65 324.5 1138.69 324.5C1138.81 324.5 1138.87 324.62 1138.87 324.86C1138.87 325.1 1138.81 325.22 1138.69 325.22C1136.81 325.22 1135.45 325.6 1134.61 326.36C1133.77 327.12 1133.39 328.3 1133.47 329.9L1134.91 357.14C1134.99 358.38 1135.13 359.28 1135.33 359.84C1135.57 360.4 1135.97 360.78 1136.53 360.98C1137.13 361.18 1138.05 361.28 1139.29 361.28ZM1196.56 352.46C1196.56 352.38 1196.64 352.34 1196.8 352.34C1196.92 352.34 1197.02 352.38 1197.1 352.46C1197.22 352.5 1197.28 352.54 1197.28 352.58C1196.88 355.7 1196.68 358.54 1196.68 361.1C1196.68 361.42 1196.62 361.66 1196.5 361.82C1196.38 361.94 1196.14 362 1195.78 362H1169.26C1169.14 362 1169.08 361.88 1169.08 361.64C1169.08 361.4 1169.14 361.28 1169.26 361.28C1170.54 361.28 1171.46 361.18 1172.02 360.98C1172.62 360.78 1173.02 360.4 1173.22 359.84C1173.42 359.24 1173.52 358.34 1173.52 357.14V329.36C1173.52 328.16 1173.42 327.28 1173.22 326.72C1173.02 326.16 1172.62 325.78 1172.02 325.58C1171.42 325.34 1170.5 325.22 1169.26 325.22C1169.14 325.22 1169.08 325.1 1169.08 324.86C1169.08 324.62 1169.14 324.5 1169.26 324.5H1194.7C1195.1 324.5 1195.3 324.68 1195.3 325.04L1195.42 333.02C1195.42 333.1 1195.3 333.16 1195.06 333.2C1194.86 333.24 1194.74 333.2 1194.7 333.08C1194.06 330.76 1192.98 329.04 1191.46 327.92C1189.94 326.8 1187.94 326.24 1185.46 326.24H1183.66C1182.46 326.24 1181.58 326.5 1181.02 327.02C1180.46 327.54 1180.18 328.34 1180.18 329.42V341.66H1185.16C1187.48 341.66 1189.26 341.26 1190.5 340.46C1191.74 339.66 1192.36 338.54 1192.36 337.1C1192.36 336.98 1192.46 336.92 1192.66 336.92C1192.9 336.92 1193.02 336.98 1193.02 337.1L1192.96 342.5L1193.02 345.38C1193.1 346.74 1193.14 347.82 1193.14 348.62C1193.14 348.7 1193.02 348.74 1192.78 348.74C1192.54 348.74 1192.42 348.7 1192.42 348.62C1192.42 346.98 1191.78 345.7 1190.5 344.78C1189.26 343.82 1187.46 343.34 1185.1 343.34H1180.18V356.9C1180.18 358.06 1180.4 358.92 1180.84 359.48C1181.28 360.04 1181.98 360.32 1182.94 360.32H1184.92C1188.04 360.32 1190.54 359.68 1192.42 358.4C1194.3 357.12 1195.68 355.14 1196.56 352.46ZM1269.32 324.5C1269.4 324.5 1269.44 324.62 1269.44 324.86C1269.44 325.1 1269.4 325.22 1269.32 325.22C1267.72 325.22 1266.46 325.86 1265.54 327.14C1264.62 328.38 1264.16 330.06 1264.16 332.18V362.9C1264.16 363.02 1264.06 363.1 1263.86 363.14C1263.7 363.18 1263.58 363.16 1263.5 363.08L1235.36 331.04V354.38C1235.36 356.5 1235.8 358.18 1236.68 359.42C1237.56 360.66 1238.78 361.28 1240.34 361.28C1240.42 361.28 1240.46 361.4 1240.46 361.64C1240.46 361.88 1240.42 362 1240.34 362C1239.22 362 1238.36 361.98 1237.76 361.94L1234.52 361.88L1230.8 361.94C1230.12 361.98 1229.14 362 1227.86 362C1227.74 362 1227.68 361.88 1227.68 361.64C1227.68 361.4 1227.74 361.28 1227.86 361.28C1229.62 361.28 1231 360.66 1232 359.42C1233.04 358.18 1233.56 356.5 1233.56 354.38V329C1232.24 327.56 1231.1 326.58 1230.14 326.06C1229.22 325.5 1228.26 325.22 1227.26 325.22C1227.18 325.22 1227.14 325.1 1227.14 324.86C1227.14 324.62 1227.18 324.5 1227.26 324.5L1229.78 324.56C1230.3 324.6 1231.06 324.62 1232.06 324.62L1236.62 324.56C1237.18 324.52 1237.86 324.5 1238.66 324.5C1238.98 324.5 1239.22 324.58 1239.38 324.74C1239.54 324.9 1239.82 325.24 1240.22 325.76C1240.9 326.68 1241.38 327.3 1241.66 327.62L1262.42 351.56V332.18C1262.42 330.02 1261.98 328.32 1261.1 327.08C1260.22 325.84 1259 325.22 1257.44 325.22C1257.36 325.22 1257.32 325.1 1257.32 324.86C1257.32 324.62 1257.36 324.5 1257.44 324.5L1260.02 324.56C1261.3 324.64 1262.38 324.68 1263.26 324.68C1264.06 324.68 1265.18 324.64 1266.62 324.56L1269.32 324.5ZM1309.42 325.88C1304.66 325.88 1301.24 328.98 1299.16 335.18C1299.12 335.3 1299 335.36 1298.8 335.36C1298.6 335.32 1298.5 335.24 1298.5 335.12C1298.66 333.52 1298.84 331.46 1299.04 328.94C1299.24 326.38 1299.34 324.46 1299.34 323.18C1299.34 322.98 1299.44 322.88 1299.64 322.88C1299.88 322.88 1300 322.98 1300 323.18C1300 324.06 1301.14 324.5 1303.42 324.5C1306.86 324.62 1310.88 324.68 1315.48 324.68C1317.84 324.68 1320.34 324.64 1322.98 324.56L1327.06 324.5C1328.58 324.5 1329.68 324.4 1330.36 324.2C1331.08 324 1331.54 323.6 1331.74 323C1331.78 322.84 1331.9 322.76 1332.1 322.76C1332.34 322.76 1332.46 322.84 1332.46 323C1332.34 324.2 1332.2 326.12 1332.04 328.76C1331.92 331.4 1331.86 333.52 1331.86 335.12C1331.86 335.24 1331.76 335.3 1331.56 335.3C1331.36 335.3 1331.24 335.24 1331.2 335.12C1330.6 332.04 1329.48 329.74 1327.84 328.22C1326.2 326.66 1324.18 325.88 1321.78 325.88C1320.62 325.88 1319.84 326.14 1319.44 326.66C1319.08 327.14 1318.9 328.08 1318.9 329.48V357.14C1318.9 358.38 1319.02 359.28 1319.26 359.84C1319.5 360.4 1319.96 360.78 1320.64 360.98C1321.32 361.18 1322.4 361.28 1323.88 361.28C1324 361.28 1324.06 361.4 1324.06 361.64C1324.06 361.88 1324 362 1323.88 362C1322.44 362 1321.3 361.98 1320.46 361.94L1315.48 361.88L1310.62 361.94C1309.78 361.98 1308.62 362 1307.14 362C1307.02 362 1306.96 361.88 1306.96 361.64C1306.96 361.4 1307.02 361.28 1307.14 361.28C1308.58 361.28 1309.64 361.18 1310.32 360.98C1311.04 360.78 1311.52 360.4 1311.76 359.84C1312.04 359.24 1312.18 358.34 1312.18 357.14V329.36C1312.18 328 1312 327.08 1311.64 326.6C1311.28 326.12 1310.54 325.88 1309.42 325.88Z" fill="#4971FF"/>
<path d="M45.9885 184.3C45.9885 188.993 46.5018 192.44 47.5285 194.64C48.7018 196.693 50.8285 198.16 53.9085 199.04C57.1352 199.92 62.1218 200.36 68.8685 200.36C69.3085 200.36 69.5285 200.8 69.5285 201.68C69.5285 202.56 69.3085 203 68.8685 203C62.8552 203 58.1619 202.927 54.7885 202.78L35.6485 202.56L19.8085 202.78C17.0218 202.927 13.2085 203 8.36852 203C7.92852 203 7.70852 202.56 7.70852 201.68C7.70852 200.8 7.92852 200.36 8.36852 200.36C13.3552 200.36 16.9485 199.993 19.1485 199.26C21.3485 198.527 22.8152 197.133 23.5485 195.08C24.4285 193.027 24.8685 189.727 24.8685 185.18V83.32C24.8685 78.92 24.4285 75.6933 23.5485 73.64C22.8152 71.5867 21.2752 70.1933 18.9285 69.46C16.7285 68.58 13.2085 68.14 8.36852 68.14C7.92852 68.14 7.70852 67.7 7.70852 66.82C7.70852 65.94 7.92852 65.5 8.36852 65.5L19.8085 65.72C26.2618 66.0133 31.4685 66.16 35.4285 66.16C38.8019 66.16 42.9085 65.94 47.7485 65.5C49.5085 65.3533 51.8552 65.2067 54.7885 65.06C57.8685 64.9133 61.4619 64.84 65.5685 64.84C80.0885 64.84 91.5285 67.92 99.8885 74.08C108.395 80.24 112.649 89.7 112.649 102.46C112.649 111.7 110.229 119.547 105.389 126C100.695 132.453 94.6085 137.293 87.1285 140.52C79.7952 143.747 72.2419 145.36 64.4685 145.36C60.3619 145.36 56.9152 144.993 54.1285 144.26C53.6885 144.26 53.4685 143.893 53.4685 143.16C53.4685 142.72 53.5419 142.28 53.6885 141.84C53.9819 141.4 54.2752 141.253 54.5685 141.4C56.9152 141.987 59.4819 142.28 62.2685 142.28C69.8952 142.28 76.3485 139.127 81.6285 132.82C86.9085 126.513 89.5485 117.493 89.5485 105.76C89.5485 94.1733 86.8352 85.2267 81.4085 78.92C75.9819 72.4667 68.5019 69.24 58.9685 69.24C55.4485 69.24 52.7352 69.6067 50.8285 70.34C49.0685 71.0733 47.8219 72.4667 47.0885 74.52C46.3552 76.4267 45.9885 79.5067 45.9885 83.76V184.3ZM183.272 115.88C186.645 115.88 189.872 116.98 192.952 119.18C196.032 121.38 197.572 124.02 197.572 127.1C197.572 129.887 196.692 132.16 194.932 133.92C193.319 135.68 191.045 136.56 188.112 136.56C186.205 136.56 184.592 136.193 183.272 135.46C182.099 134.58 180.852 133.407 179.532 131.94C178.212 130.62 177.039 129.667 176.012 129.08C174.985 128.347 173.739 127.98 172.272 127.98C170.659 127.98 168.899 128.64 166.992 129.96C165.232 131.133 162.445 133.7 158.632 137.66V185.18C158.632 189.287 159.219 192.44 160.392 194.64C161.565 196.693 163.545 198.16 166.332 199.04C169.119 199.92 173.225 200.36 178.652 200.36C179.239 200.36 179.532 200.8 179.532 201.68C179.532 202.56 179.239 203 178.652 203C173.812 203 169.925 202.927 166.992 202.78L149.612 202.56L136.852 202.78C134.799 202.927 131.939 203 128.272 203C127.832 203 127.612 202.56 127.612 201.68C127.612 200.8 127.832 200.36 128.272 200.36C133.259 200.36 136.559 199.333 138.172 197.28C139.785 195.227 140.592 191.193 140.592 185.18V143.16C140.592 138.467 140.005 135.02 138.832 132.82C137.805 130.62 136.045 129.52 133.552 129.52C131.352 129.52 127.685 130.62 122.552 132.82H122.332C121.745 132.82 121.305 132.453 121.012 131.72C120.719 130.987 120.792 130.547 121.232 130.4L150.052 116.32C150.932 116.027 151.445 115.88 151.592 115.88C153.059 115.88 154.525 117.493 155.992 120.72C157.459 123.8 158.339 127.907 158.632 133.04C164.352 126.587 169.119 122.113 172.932 119.62C176.745 117.127 180.192 115.88 183.272 115.88ZM250.659 205.86C241.859 205.86 234.086 203.807 227.339 199.7C220.592 195.447 215.386 189.8 211.719 182.76C208.052 175.573 206.219 167.8 206.219 159.44C206.219 149.907 208.566 141.84 213.259 135.24C218.099 128.493 224.186 123.507 231.519 120.28C238.999 116.907 246.626 115.22 254.399 115.22C263.346 115.22 271.119 117.347 277.719 121.6C284.466 125.853 289.599 131.5 293.119 138.54C296.639 145.433 298.399 152.84 298.399 160.76C298.399 169.56 296.199 177.407 291.799 184.3C287.546 191.193 281.752 196.547 274.419 200.36C267.086 204.027 259.166 205.86 250.659 205.86ZM257.259 201.46C263.712 201.46 268.626 198.6 271.999 192.88C275.519 187.16 277.279 178.8 277.279 167.8C277.279 157.973 275.886 149.393 273.099 142.06C270.459 134.727 266.792 129.153 262.099 125.34C257.552 121.527 252.566 119.62 247.139 119.62C240.539 119.62 235.552 122.333 232.179 127.76C228.806 133.187 227.119 141.18 227.119 151.74C227.119 161.273 228.366 169.853 230.859 177.48C233.499 184.96 237.092 190.827 241.639 195.08C246.332 199.333 251.539 201.46 257.259 201.46ZM375.471 115.22C381.925 115.22 387.865 116.76 393.291 119.84C398.865 122.92 403.265 127.54 406.491 133.7C409.865 139.86 411.551 147.34 411.551 156.14C411.551 166.7 409.278 175.72 404.731 183.2C400.331 190.68 394.465 196.327 387.131 200.14C379.798 203.953 372.025 205.86 363.811 205.86C352.371 205.86 342.105 202.487 333.011 195.74L314.311 204.32H313.871C313.285 204.32 312.918 204.027 312.771 203.44C312.625 203 312.771 202.633 313.211 202.34C317.171 199.847 320.031 196.987 321.791 193.76C323.698 190.387 324.651 185.913 324.651 180.34V72.76C324.651 67.6267 324.138 63.96 323.111 61.76C322.085 59.4133 320.325 58.24 317.831 58.24C316.071 58.24 313.211 59.12 309.251 60.88H309.031C308.445 60.88 308.005 60.5133 307.711 59.78C307.418 59.0467 307.418 58.5333 307.711 58.24L338.291 43.72L339.391 43.5C339.978 43.5 340.638 43.7933 341.371 44.38C342.105 44.9667 342.471 45.48 342.471 45.92V131.5C347.311 126.513 352.371 122.553 357.651 119.62C362.931 116.687 368.871 115.22 375.471 115.22ZM369.531 201.46C376.718 201.46 382.218 198.233 386.031 191.78C389.845 185.327 391.751 176.16 391.751 164.28C391.751 151.373 389.405 141.693 384.711 135.24C380.165 128.64 374.005 125.34 366.231 125.34C358.751 125.34 350.831 128.713 342.471 135.46V169.12C342.471 176.747 343.865 182.98 346.651 187.82C349.585 192.66 353.105 196.18 357.211 198.38C361.465 200.433 365.571 201.46 369.531 201.46ZM427.099 203C426.659 203 426.439 202.56 426.439 201.68C426.439 200.8 426.659 200.36 427.099 200.36C431.939 200.36 435.239 199.333 436.999 197.28C438.759 195.08 439.639 191.047 439.639 185.18V72.76C439.639 67.6267 439.126 63.96 438.099 61.76C437.219 59.4133 435.532 58.24 433.039 58.24C430.839 58.24 427.906 59.12 424.239 60.88H424.019C423.432 60.88 422.992 60.5133 422.699 59.78C422.406 59.0467 422.406 58.5333 422.699 58.24L453.719 43.72L454.599 43.5C455.186 43.5 455.846 43.7933 456.579 44.38C457.459 44.9667 457.899 45.48 457.899 45.92V185.18C457.899 191.193 458.706 195.227 460.319 197.28C461.932 199.333 465.232 200.36 470.219 200.36C470.659 200.36 470.879 200.8 470.879 201.68C470.879 202.56 470.659 203 470.219 203C466.699 203 463.839 202.927 461.639 202.78L448.659 202.56L435.899 202.78C433.699 202.927 430.766 203 427.099 203ZM560.562 189.14C560.855 189.14 561.148 189.433 561.442 190.02C561.882 190.607 561.955 191.047 561.662 191.34C556.235 196.327 550.808 199.993 545.382 202.34C539.955 204.54 534.088 205.64 527.782 205.64C518.835 205.64 511.062 203.66 504.462 199.7C498.008 195.74 493.022 190.533 489.502 184.08C486.128 177.627 484.442 170.66 484.442 163.18C484.442 154.527 486.568 146.607 490.822 139.42C495.075 132.233 500.868 126.587 508.202 122.48C515.682 118.227 523.968 116.1 533.062 116.1C541.862 116.1 548.682 118.227 553.522 122.48C558.362 126.733 560.782 133.04 560.782 141.4C560.782 145.653 559.902 147.78 558.142 147.78L504.462 148C504.315 149.32 504.242 151.3 504.242 153.94C504.242 166.847 507.175 177.113 513.042 184.74C519.055 192.22 527.562 195.96 538.562 195.96C542.668 195.96 546.115 195.52 548.902 194.64C551.688 193.613 555.428 191.853 560.122 189.36L560.562 189.14ZM525.142 120.5C519.715 120.5 515.242 122.627 511.722 126.88C508.348 130.987 506.075 136.707 504.902 144.04L540.102 143.38C539.808 128.127 534.822 120.5 525.142 120.5ZM734.15 200.36C734.737 200.36 735.03 200.8 735.03 201.68C735.03 202.56 734.737 203 734.15 203C730.484 203 727.55 202.927 725.35 202.78L712.81 202.56L700.27 202.78C698.07 202.927 695.137 203 691.47 203C691.03 203 690.81 202.56 690.81 201.68C690.81 200.8 691.03 200.36 691.47 200.36C696.31 200.36 699.61 199.333 701.37 197.28C703.13 195.08 704.01 191.047 704.01 185.18V152.4C704.01 144.187 702.544 138.1 699.61 134.14C696.824 130.18 692.497 128.2 686.63 128.2C682.67 128.2 678.71 129.153 674.75 131.06C670.79 132.967 667.344 135.533 664.41 138.76V140.96V185.18C664.41 191.193 665.217 195.227 666.83 197.28C668.59 199.333 671.964 200.36 676.95 200.36C677.39 200.36 677.61 200.8 677.61 201.68C677.61 202.56 677.39 203 676.95 203C673.284 203 670.35 202.927 668.15 202.78L655.39 202.56L642.85 202.78C640.65 202.927 637.717 203 634.05 203C633.61 203 633.39 202.56 633.39 201.68C633.39 200.8 633.61 200.36 634.05 200.36C639.037 200.36 642.337 199.333 643.95 197.28C645.71 195.227 646.59 191.193 646.59 185.18V152.4C646.59 144.187 645.124 138.1 642.19 134.14C639.404 130.18 635.077 128.2 629.21 128.2C625.544 128.2 621.804 129.08 617.99 130.84C614.177 132.6 610.804 134.947 607.87 137.88V185.18C607.87 191.193 608.677 195.227 610.29 197.28C611.904 199.333 615.204 200.36 620.19 200.36C620.63 200.36 620.85 200.8 620.85 201.68C620.85 202.56 620.63 203 620.19 203C616.524 203 613.664 202.927 611.61 202.78L598.85 202.56L586.09 202.78C584.037 202.927 581.177 203 577.51 203C577.07 203 576.85 202.56 576.85 201.68C576.85 200.8 577.07 200.36 577.51 200.36C582.497 200.36 585.797 199.333 587.41 197.28C589.024 195.227 589.83 191.193 589.83 185.18V143.16C589.83 138.467 589.244 135.02 588.07 132.82C587.044 130.62 585.284 129.52 582.79 129.52C580.59 129.52 576.924 130.62 571.79 132.82H571.57C570.984 132.82 570.544 132.453 570.25 131.72C569.957 130.987 570.03 130.547 570.47 130.4L599.29 116.32C600.17 116.027 600.684 115.88 600.83 115.88C602.297 115.88 603.764 117.567 605.23 120.94C606.844 124.167 607.724 128.42 607.87 133.7C617.697 121.673 628.404 115.66 639.99 115.66C646.737 115.66 652.164 117.347 656.27 120.72C660.377 123.947 662.944 128.713 663.97 135.02C674.384 122.113 685.53 115.66 697.41 115.66C705.184 115.66 711.124 117.933 715.23 122.48C719.484 126.88 721.61 133.627 721.61 142.72V185.18C721.61 191.193 722.417 195.227 724.03 197.28C725.79 199.333 729.164 200.36 734.15 200.36ZM826.074 88.82C826.074 94.2467 827.394 99.0867 830.034 103.34C832.821 107.447 836.194 111.04 840.154 114.12C844.261 117.2 849.761 120.867 856.654 125.12C864.134 129.813 870.001 133.847 874.254 137.22C878.654 140.593 882.321 144.773 885.254 149.76C888.334 154.6 889.874 160.32 889.874 166.92C889.874 174.4 887.894 181.073 883.934 186.94C880.121 192.807 874.621 197.427 867.434 200.8C860.394 204.027 852.327 205.64 843.234 205.64C837.074 205.64 830.694 204.833 824.094 203.22C817.641 201.607 812.727 199.627 809.354 197.28C808.034 196.4 807.301 195.007 807.154 193.1L805.834 159.66V159.44C805.834 158.853 806.201 158.56 806.934 158.56C807.667 158.413 808.107 158.633 808.254 159.22C813.094 171.393 818.594 181.367 824.754 189.14C831.061 196.913 839.054 200.8 848.734 200.8C855.041 200.8 860.321 199.113 864.574 195.74C868.827 192.22 870.954 186.427 870.954 178.36C870.954 171.907 869.487 166.26 866.554 161.42C863.767 156.58 860.247 152.547 855.994 149.32C851.887 146.093 846.241 142.133 839.054 137.44C832.014 132.893 826.514 129.08 822.554 126C818.594 122.773 815.221 118.887 812.434 114.34C809.647 109.647 808.254 104.22 808.254 98.06C808.254 90.4333 810.381 83.98 814.634 78.7C818.887 73.42 824.387 69.5333 831.134 67.04C838.027 64.4 845.214 63.08 852.694 63.08C857.681 63.08 862.667 63.5933 867.654 64.62C872.641 65.5 876.821 66.6733 880.194 68.14C882.394 69.02 883.494 70.4133 883.494 72.32L884.154 102.24C884.154 102.68 883.714 102.973 882.834 103.12C882.101 103.267 881.661 103.12 881.514 102.68C878.581 93.7333 874.621 85.6667 869.634 78.48C864.794 71.1467 857.461 67.48 847.634 67.48C841.034 67.48 835.754 69.3867 831.794 73.2C827.981 77.0133 826.074 82.22 826.074 88.82ZM953.198 205.86C944.398 205.86 936.625 203.807 929.878 199.7C923.131 195.447 917.925 189.8 914.258 182.76C910.591 175.573 908.758 167.8 908.758 159.44C908.758 149.907 911.105 141.84 915.798 135.24C920.638 128.493 926.725 123.507 934.058 120.28C941.538 116.907 949.165 115.22 956.938 115.22C965.885 115.22 973.658 117.347 980.258 121.6C987.005 125.853 992.138 131.5 995.658 138.54C999.178 145.433 1000.94 152.84 1000.94 160.76C1000.94 169.56 998.738 177.407 994.338 184.3C990.085 191.193 984.291 196.547 976.958 200.36C969.625 204.027 961.705 205.86 953.198 205.86ZM959.798 201.46C966.251 201.46 971.165 198.6 974.538 192.88C978.058 187.16 979.818 178.8 979.818 167.8C979.818 157.973 978.425 149.393 975.638 142.06C972.998 134.727 969.331 129.153 964.638 125.34C960.091 121.527 955.105 119.62 949.678 119.62C943.078 119.62 938.091 122.333 934.718 127.76C931.345 133.187 929.658 141.18 929.658 151.74C929.658 161.273 930.905 169.853 933.398 177.48C936.038 184.96 939.631 190.827 944.178 195.08C948.871 199.333 954.078 201.46 959.798 201.46ZM1016.63 203C1016.19 203 1015.97 202.56 1015.97 201.68C1015.97 200.8 1016.19 200.36 1016.63 200.36C1021.47 200.36 1024.77 199.333 1026.53 197.28C1028.29 195.08 1029.17 191.047 1029.17 185.18V72.76C1029.17 67.6267 1028.66 63.96 1027.63 61.76C1026.75 59.4133 1025.06 58.24 1022.57 58.24C1020.37 58.24 1017.44 59.12 1013.77 60.88H1013.55C1012.96 60.88 1012.52 60.5133 1012.23 59.78C1011.94 59.0467 1011.94 58.5333 1012.23 58.24L1043.25 43.72L1044.13 43.5C1044.72 43.5 1045.38 43.7933 1046.11 44.38C1046.99 44.9667 1047.43 45.48 1047.43 45.92V185.18C1047.43 191.193 1048.24 195.227 1049.85 197.28C1051.46 199.333 1054.76 200.36 1059.75 200.36C1060.19 200.36 1060.41 200.8 1060.41 201.68C1060.41 202.56 1060.19 203 1059.75 203C1056.23 203 1053.37 202.927 1051.17 202.78L1038.19 202.56L1025.43 202.78C1023.23 202.927 1020.3 203 1016.63 203ZM1164.83 118.08C1165.13 118.08 1165.27 118.52 1165.27 119.4C1165.27 120.28 1165.13 120.72 1164.83 120.72C1160.73 120.72 1157.13 122.187 1154.05 125.12C1151.12 128.053 1148.26 132.747 1145.47 139.2L1118.19 203C1117.9 203.733 1117.17 204.1 1115.99 204.1C1114.67 204.1 1113.79 203.733 1113.35 203L1080.79 136.34C1077.71 129.887 1075.07 125.707 1072.87 123.8C1070.67 121.747 1067.96 120.72 1064.73 120.72C1064.29 120.72 1064.07 120.28 1064.07 119.4C1064.07 118.52 1064.29 118.08 1064.73 118.08C1067.37 118.08 1069.5 118.153 1071.11 118.3L1083.87 118.52L1100.15 118.3C1102.5 118.153 1105.73 118.08 1109.83 118.08C1110.27 118.08 1110.49 118.52 1110.49 119.4C1110.49 120.28 1110.27 120.72 1109.83 120.72C1101.18 120.72 1096.85 122.407 1096.85 125.78C1096.85 126.66 1097.22 127.833 1097.95 129.3L1123.25 179.24L1139.97 138.76C1141 136.267 1141.51 133.847 1141.51 131.5C1141.51 127.98 1140.19 125.34 1137.55 123.58C1135.06 121.673 1131.32 120.72 1126.33 120.72C1126.04 120.72 1125.89 120.28 1125.89 119.4C1125.89 118.52 1126.04 118.08 1126.33 118.08C1130.29 118.08 1133.3 118.153 1135.35 118.3L1148.55 118.52L1157.13 118.3C1158.75 118.153 1161.31 118.08 1164.83 118.08ZM1246.56 189.14C1246.85 189.14 1247.14 189.433 1247.44 190.02C1247.88 190.607 1247.95 191.047 1247.66 191.34C1242.23 196.327 1236.8 199.993 1231.38 202.34C1225.95 204.54 1220.08 205.64 1213.78 205.64C1204.83 205.64 1197.06 203.66 1190.46 199.7C1184 195.74 1179.02 190.533 1175.5 184.08C1172.12 177.627 1170.44 170.66 1170.44 163.18C1170.44 154.527 1172.56 146.607 1176.82 139.42C1181.07 132.233 1186.86 126.587 1194.2 122.48C1201.68 118.227 1209.96 116.1 1219.06 116.1C1227.86 116.1 1234.68 118.227 1239.52 122.48C1244.36 126.733 1246.78 133.04 1246.78 141.4C1246.78 145.653 1245.9 147.78 1244.14 147.78L1190.46 148C1190.31 149.32 1190.24 151.3 1190.24 153.94C1190.24 166.847 1193.17 177.113 1199.04 184.74C1205.05 192.22 1213.56 195.96 1224.56 195.96C1228.66 195.96 1232.11 195.52 1234.9 194.64C1237.68 193.613 1241.42 191.853 1246.12 189.36L1246.56 189.14ZM1211.14 120.5C1205.71 120.5 1201.24 122.627 1197.72 126.88C1194.34 130.987 1192.07 136.707 1190.9 144.04L1226.1 143.38C1225.8 128.127 1220.82 120.5 1211.14 120.5ZM1318.51 115.88C1321.88 115.88 1325.11 116.98 1328.19 119.18C1331.27 121.38 1332.81 124.02 1332.81 127.1C1332.81 129.887 1331.93 132.16 1330.17 133.92C1328.55 135.68 1326.28 136.56 1323.35 136.56C1321.44 136.56 1319.83 136.193 1318.51 135.46C1317.33 134.58 1316.09 133.407 1314.77 131.94C1313.45 130.62 1312.27 129.667 1311.25 129.08C1310.22 128.347 1308.97 127.98 1307.51 127.98C1305.89 127.98 1304.13 128.64 1302.23 129.96C1300.47 131.133 1297.68 133.7 1293.87 137.66V185.18C1293.87 189.287 1294.45 192.44 1295.63 194.64C1296.8 196.693 1298.78 198.16 1301.57 199.04C1304.35 199.92 1308.46 200.36 1313.89 200.36C1314.47 200.36 1314.77 200.8 1314.77 201.68C1314.77 202.56 1314.47 203 1313.89 203C1309.05 203 1305.16 202.927 1302.23 202.78L1284.85 202.56L1272.09 202.78C1270.03 202.927 1267.17 203 1263.51 203C1263.07 203 1262.85 202.56 1262.85 201.68C1262.85 200.8 1263.07 200.36 1263.51 200.36C1268.49 200.36 1271.79 199.333 1273.41 197.28C1275.02 195.227 1275.83 191.193 1275.83 185.18V143.16C1275.83 138.467 1275.24 135.02 1274.07 132.82C1273.04 130.62 1271.28 129.52 1268.79 129.52C1266.59 129.52 1262.92 130.62 1257.79 132.82H1257.57C1256.98 132.82 1256.54 132.453 1256.25 131.72C1255.95 130.987 1256.03 130.547 1256.47 130.4L1285.29 116.32C1286.17 116.027 1286.68 115.88 1286.83 115.88C1288.29 115.88 1289.76 117.493 1291.23 120.72C1292.69 123.8 1293.57 127.907 1293.87 133.04C1299.59 126.587 1304.35 122.113 1308.17 119.62C1311.98 117.127 1315.43 115.88 1318.51 115.88Z" fill="#4971FF"/>
</svg>
