<svg xmlns="http://www.w3.org/2000/svg" width="373" height="393" fill="#4971ff" xmlns:v="https://vecta.io/nano"><path d="M21.027 83.5c0 2.133.233 3.7.7 4.7.533.933 1.5 1.6 2.9 2 1.467.4 3.733.6 6.8.6.2 0 .3.2.3.6s-.1.6-.3.6c-2.733 0-4.867-.033-6.4-.1l-8.7-.1-7.2.1-5.2.1c-.2 0-.3-.2-.3-.6s.1-.6.3-.6c2.267 0 3.9-.167 4.9-.5s1.667-.967 2-1.9c.4-.933.6-2.433.6-4.5V37.6c0-2-.2-3.467-.6-4.4-.333-.933-1.033-1.567-2.1-1.9-1-.4-2.6-.6-4.8-.6-.2 0-.3-.2-.3-.6s.1-.6.3-.6l5.2.1 7.1.2c1.533 0 3.4-.1 5.6-.3l3.2-.2 4.9-.1c6.6 0 11.8 1.4 15.6 4.2 3.867 2.8 5.8 7.1 5.8 12.9 0 4.2-1.1 7.767-3.3 10.7-2.133 2.933-4.9 5.133-8.3 6.6-3.333 1.467-6.767 2.2-10.3 2.2-1.867 0-3.433-.167-4.7-.5-.2 0-.3-.167-.3-.5 0-.2.033-.4.1-.6.133-.2.267-.267.4-.2 1.067.267 2.233.4 3.5.4 3.467 0 6.4-1.433 8.8-4.3s3.6-6.967 3.6-12.3c0-5.267-1.233-9.333-3.7-12.2-2.467-2.933-5.867-4.4-10.2-4.4-1.6 0-2.833.167-3.7.5-.8.333-1.367.967-1.7 1.9-.333.867-.5 2.267-.5 4.2v45.7zm68.402-31.1c1.533 0 3 .5 4.4 1.5s2.1 2.2 2.1 3.6c0 1.267-.4 2.3-1.2 3.1-.733.8-1.767 1.2-3.1 1.2-.867 0-1.6-.167-2.2-.5-.533-.4-1.1-.933-1.7-1.6-.6-.6-1.133-1.033-1.6-1.3-.467-.333-1.033-.5-1.7-.5-.733 0-1.533.3-2.4.9-.8.533-2.067 1.7-3.8 3.5v21.6c0 1.867.267 3.3.8 4.3.533.933 1.433 1.6 2.7 2s3.133.6 5.6.6c.267 0 .4.2.4.6s-.133.6-.4.6c-2.2 0-3.967-.033-5.3-.1l-7.9-.1-5.8.1c-.933.067-2.233.1-3.9.1-.2 0-.3-.2-.3-.6s.1-.6.3-.6c2.267 0 3.767-.467 4.5-1.4s1.1-2.767 1.1-5.5V64.8c0-2.133-.267-3.7-.8-4.7-.467-1-1.267-1.5-2.4-1.5-1 0-2.667.5-5 1.5h-.1c-.267 0-.467-.167-.6-.5s-.1-.533.1-.6l13.1-6.4c.4-.133.633-.2.7-.2.667 0 1.333.733 2 2.2.667 1.4 1.067 3.267 1.2 5.6 2.6-2.933 4.767-4.967 6.5-6.1s3.3-1.7 4.7-1.7zm36.631 40.9c-4 0-7.534-.933-10.6-2.8-3.067-1.933-5.434-4.5-7.1-7.7-1.667-3.267-2.5-6.8-2.5-10.6 0-4.333 1.066-8 3.2-11 2.2-3.067 4.966-5.333 8.3-6.8 3.4-1.533 6.866-2.3 10.4-2.3 4.066 0 7.6.967 10.6 2.9 3.066 1.933 5.4 4.5 7 7.7 1.6 3.133 2.4 6.5 2.4 10.1 0 4-1 7.567-3 10.7-1.934 3.133-4.567 5.567-7.9 7.3-3.334 1.667-6.934 2.5-10.8 2.5zm3-2c2.933 0 5.166-1.3 6.7-3.9 1.6-2.6 2.4-6.4 2.4-11.4 0-4.467-.634-8.367-1.9-11.7-1.2-3.333-2.867-5.867-5-7.6-2.067-1.733-4.334-2.6-6.8-2.6-3 0-5.267 1.233-6.8 3.7s-2.3 6.1-2.3 10.9c0 4.333.566 8.233 1.7 11.7 1.2 3.4 2.833 6.067 4.9 8 2.133 1.933 4.5 2.9 7.1 2.9zm59.732-39.2c2.934 0 5.634.7 8.1 2.1 2.534 1.4 4.534 3.5 6 6.3 1.534 2.8 2.3 6.2 2.3 10.2 0 4.8-1.033 8.9-3.1 12.3-2 3.4-4.666 5.967-8 7.7s-6.866 2.6-10.6 2.6c-5.2 0-9.866-1.533-14-4.6l-8.5 3.9h-.2a.47.47 0 0 1-.5-.4c-.066-.2 0-.367.2-.5 1.8-1.133 3.1-2.433 3.9-3.9.867-1.533 1.3-3.567 1.3-6.1V32.8c0-2.333-.233-4-.7-5-.466-1.067-1.266-1.6-2.4-1.6-.8 0-2.1.4-3.9 1.2h-.1c-.266 0-.466-.167-.6-.5s-.133-.567 0-.7l13.9-6.6.5-.1c.267 0 .567.133.9.4s.5.5.5.7v38.9c2.2-2.267 4.5-4.067 6.9-5.4s5.1-2 8.1-2zm-2.7 39.2c3.267 0 5.767-1.467 7.5-4.4s2.6-7.1 2.6-12.5c0-5.867-1.066-10.267-3.2-13.2-2.066-3-4.866-4.5-8.4-4.5-3.4 0-7 1.533-10.8 4.6v15.3c0 3.467.634 6.3 1.9 8.5 1.334 2.2 2.934 3.8 4.8 4.8 1.934.933 3.8 1.4 5.6 1.4zm32.168.7c-.2 0-.3-.2-.3-.6s.1-.6.3-.6c2.2 0 3.7-.467 4.5-1.4.8-1 1.2-2.833 1.2-5.5V32.8c0-2.333-.234-4-.7-5-.4-1.067-1.167-1.6-2.3-1.6-1 0-2.334.4-4 1.2h-.1c-.267 0-.467-.167-.6-.5s-.134-.567 0-.7l14.1-6.6.4-.1c.266 0 .566.133.9.4.4.267.6.5.6.7v63.3c0 2.733.366 4.567 1.1 5.5s2.233 1.4 4.5 1.4c.2 0 .3.2.3.6s-.1.6-.3.6c-1.6 0-2.9-.033-3.9-.1l-5.9-.1-5.8.1c-1 .067-2.334.1-4 .1zm66.664-6.3c.134 0 .267.133.4.4.2.267.234.467.1.6-2.466 2.267-4.933 3.933-7.4 5-2.466 1-5.133 1.5-8 1.5-4.066 0-7.6-.9-10.6-2.7-2.933-1.8-5.2-4.167-6.8-7.1-1.533-2.933-2.3-6.1-2.3-9.5 0-3.933.967-7.533 2.9-10.8s4.567-5.833 7.9-7.7c3.4-1.933 7.167-2.9 11.3-2.9 4 0 7.1.967 9.3 2.9s3.3 4.8 3.3 8.6c0 1.933-.4 2.9-1.2 2.9l-24.4.1c-.066.6-.1 1.5-.1 2.7 0 5.867 1.334 10.533 4 14 2.734 3.4 6.6 5.1 11.6 5.1 1.867 0 3.434-.2 4.7-.6 1.267-.467 2.967-1.267 5.1-2.4l.2-.1zm-16.1-31.2c-2.466 0-4.5.967-6.1 2.9-1.533 1.867-2.566 4.467-3.1 7.8l16-.3c-.133-6.933-2.4-10.4-6.8-10.4zm101.004 36.3c.267 0 .4.2.4.6s-.133.6-.4.6c-1.666 0-3-.033-4-.1l-5.7-.1-5.7.1c-1 .067-2.333.1-4 .1-.2 0-.3-.2-.3-.6s.1-.6.3-.6c2.2 0 3.7-.467 4.5-1.4.8-1 1.2-2.833 1.2-5.5V69c0-3.733-.666-6.5-2-8.3-1.266-1.8-3.233-2.7-5.9-2.7-1.8 0-3.6.433-5.4 1.3s-3.366 2.033-4.7 3.5v1 20.1c0 2.733.367 4.567 1.1 5.5.8.933 2.334 1.4 4.6 1.4.2 0 .3.2.3.6s-.1.6-.3.6c-1.666 0-3-.033-4-.1l-5.8-.1-5.7.1c-1 .067-2.333.1-4 .1-.2 0-.3-.2-.3-.6s.1-.6.3-.6c2.267 0 3.767-.467 4.5-1.4.8-.933 1.2-2.767 1.2-5.5V69c0-3.733-.666-6.5-2-8.3-1.266-1.8-3.233-2.7-5.9-2.7-1.666 0-3.366.4-5.1 1.2a15.85 15.85 0 0 0-4.6 3.2v21.5c0 2.733.367 4.567 1.1 5.5s2.234 1.4 4.5 1.4c.2 0 .3.2.3.6s-.1.6-.3.6c-1.666 0-2.966-.033-3.9-.1l-5.8-.1-5.8.1c-.933.067-2.233.1-3.9.1-.2 0-.3-.2-.3-.6s.1-.6.3-.6c2.267 0 3.767-.467 4.5-1.4s1.1-2.767 1.1-5.5V64.8c0-2.133-.266-3.7-.8-4.7-.466-1-1.266-1.5-2.4-1.5-1 0-2.666.5-5 1.5h-.1c-.266 0-.466-.167-.6-.5s-.1-.533.1-.6l13.1-6.4c.4-.133.634-.2.7-.2.667 0 1.334.767 2 2.3.734 1.467 1.134 3.4 1.2 5.8 4.467-5.467 9.334-8.2 14.6-8.2 3.067 0 5.534.767 7.4 2.3 1.867 1.467 3.034 3.633 3.5 6.5 4.734-5.867 9.8-8.8 15.2-8.8 3.534 0 6.234 1.033 8.1 3.1 1.934 2 2.9 5.067 2.9 9.2v19.3c0 2.733.367 4.567 1.1 5.5.8.933 2.334 1.4 4.6 1.4zM63.132 161.1c0 2.467.6 4.667 1.8 6.6 1.267 1.867 2.8 3.5 4.6 4.9 1.867 1.4 4.367 3.067 7.5 5 3.4 2.133 6.067 3.967 8 5.5 2 1.533 3.667 3.433 5 5.7 1.4 2.2 2.1 4.8 2.1 7.8 0 3.4-.9 6.433-2.7 9.1-1.733 2.667-4.233 4.767-7.5 6.3-3.2 1.467-6.867 2.2-11 2.2-2.8 0-5.7-.367-8.7-1.1-2.933-.733-5.167-1.633-6.7-2.7-.6-.4-.933-1.033-1-1.9l-.6-15.2v-.1c0-.267.167-.4.5-.4.333-.067.533.033.6.3 2.2 5.533 4.7 10.067 7.5 13.6 2.867 3.533 6.5 5.3 10.9 5.3 2.867 0 5.267-.767 7.2-2.3 1.933-1.6 2.9-4.233 2.9-7.9 0-2.933-.667-5.5-2-7.7-1.267-2.2-2.867-4.033-4.8-5.5-1.867-1.467-4.433-3.267-7.7-5.4-3.2-2.067-5.7-3.8-7.5-5.2-1.8-1.467-3.333-3.233-4.6-5.3-1.267-2.133-1.9-4.6-1.9-7.4 0-3.467.967-6.4 2.9-8.8s4.433-4.167 7.5-5.3a27.17 27.17 0 0 1 9.8-1.8c2.267 0 4.533.233 6.8.7 2.267.4 4.167.933 5.7 1.6 1 .4 1.5 1.033 1.5 1.9l.3 13.6c0 .2-.2.333-.6.4-.333.067-.533 0-.6-.2-1.333-4.067-3.133-7.733-5.4-11-2.2-3.333-5.533-5-10-5-3 0-5.4.867-7.2 2.6-1.733 1.733-2.6 4.1-2.6 7.1zm63.784 53.2c-4 0-7.533-.933-10.6-2.8a19.72 19.72 0 0 1-7.1-7.7c-1.667-3.267-2.5-6.8-2.5-10.6 0-4.333 1.067-8 3.2-11 2.2-3.067 4.967-5.333 8.3-6.8 3.4-1.533 6.867-2.3 10.4-2.3 4.067 0 7.6.967 10.6 2.9 3.067 1.933 5.4 4.5 7 7.7 1.6 3.133 2.4 6.5 2.4 10.1 0 4-1 7.567-3 10.7-1.933 3.133-4.567 5.567-7.9 7.3-3.333 1.667-6.933 2.5-10.8 2.5zm3-2c2.933 0 5.167-1.3 6.7-3.9 1.6-2.6 2.4-6.4 2.4-11.4 0-4.467-.633-8.367-1.9-11.7-1.2-3.333-2.867-5.867-5-7.6-2.067-1.733-4.333-2.6-6.8-2.6-3 0-5.267 1.233-6.8 3.7s-2.3 6.1-2.3 10.9c0 4.333.567 8.233 1.7 11.7 1.2 3.4 2.833 6.067 4.9 8 2.133 1.933 4.5 2.9 7.1 2.9zm31.833.7c-.2 0-.3-.2-.3-.6s.1-.6.3-.6c2.2 0 3.7-.467 4.5-1.4.8-1 1.2-2.833 1.2-5.5v-51.1c0-2.333-.234-4-.7-5-.4-1.067-1.167-1.6-2.3-1.6-1 0-2.334.4-4 1.2h-.1c-.267 0-.467-.167-.6-.5s-.134-.567 0-.7l14.1-6.6.4-.1c.266 0 .566.133.9.4.4.267.6.5.6.7v63.3c0 2.733.366 4.567 1.1 5.5s2.233 1.4 4.5 1.4c.2 0 .3.2.3.6s-.1.6-.3.6c-1.6 0-2.9-.033-3.9-.1l-5.9-.1-5.8.1c-1 .067-2.334.1-4 .1zm73.365-38.6c.133 0 .2.2.2.6s-.067.6-.2.6c-1.867 0-3.5.667-4.9 2-1.334 1.333-2.634 3.467-3.9 6.4l-12.4 29c-.134.333-.467.5-1 .5-.6 0-1-.167-1.2-.5l-14.8-30.3c-1.4-2.933-2.6-4.833-3.6-5.7-1-.933-2.234-1.4-3.7-1.4-.2 0-.3-.2-.3-.6s.1-.6.3-.6c1.2 0 2.166.033 2.9.1l5.8.1 7.4-.1c1.066-.067 2.533-.1 4.4-.1.2 0 .3.2.3.6s-.1.6-.3.6c-3.934 0-5.9.767-5.9 2.3 0 .4.166.933.5 1.6l11.5 22.7 7.6-18.4c.466-1.133.7-2.233.7-3.3 0-1.6-.6-2.8-1.8-3.6-1.134-.867-2.834-1.3-5.1-1.3-.134 0-.2-.2-.2-.6s.066-.6.2-.6c1.8 0 3.166.033 4.1.1l6 .1 3.9-.1c.733-.067 1.9-.1 3.5-.1zm43.147 32.3c.134 0 .267.133.4.4.2.267.234.467.1.6-2.466 2.267-4.933 3.933-7.4 5-2.466 1-5.133 1.5-8 1.5-4.066 0-7.6-.9-10.6-2.7-2.933-1.8-5.2-4.167-6.8-7.1-1.533-2.933-2.3-6.1-2.3-9.5 0-3.933.967-7.533 2.9-10.8s4.567-5.833 7.9-7.7c3.4-1.933 7.167-2.9 11.3-2.9 4 0 7.1.967 9.3 2.9s3.3 4.8 3.3 8.6c0 1.933-.4 2.9-1.2 2.9l-24.4.1c-.066.6-.1 1.5-.1 2.7 0 5.867 1.334 10.533 4 14 2.734 3.4 6.6 5.1 11.6 5.1 1.867 0 3.434-.2 4.7-.6 1.267-.467 2.967-1.267 5.1-2.4l.2-.1zm-16.1-31.2c-2.466 0-4.5.967-6.1 2.9-1.533 1.867-2.566 4.467-3.1 7.8l16-.3c-.133-6.933-2.4-10.4-6.8-10.4zm54.804-2.1c1.534 0 3 .5 4.4 1.5s2.1 2.2 2.1 3.6c0 1.267-.4 2.3-1.2 3.1-.733.8-1.766 1.2-3.1 1.2-.866 0-1.6-.167-2.2-.5-.533-.4-1.1-.933-1.7-1.6-.6-.6-1.133-1.033-1.6-1.3-.466-.333-1.033-.5-1.7-.5-.733 0-1.533.3-2.4.9-.8.533-2.066 1.7-3.8 3.5v21.6c0 1.867.267 3.3.8 4.3.534.933 1.434 1.6 2.7 2s3.134.6 5.6.6c.267 0 .4.2.4.6s-.133.6-.4.6c-2.2 0-3.966-.033-5.3-.1l-7.9-.1-5.8.1c-.933.067-2.233.1-3.9.1-.2 0-.3-.2-.3-.6s.1-.6.3-.6c2.267 0 3.767-.467 4.5-1.4s1.1-2.767 1.1-5.5v-19.1c0-2.133-.266-3.7-.8-4.7-.466-1-1.266-1.5-2.4-1.5-1 0-2.666.5-5 1.5h-.1c-.266 0-.466-.167-.6-.5s-.1-.533.1-.6l13.1-6.4c.4-.133.634-.2.7-.2.667 0 1.334.733 2 2.2.667 1.4 1.067 3.267 1.2 5.6 2.6-2.933 4.767-4.967 6.5-6.1s3.3-1.7 4.7-1.7z"/><path d="M24.538 304.265c0 .06-.09.105-.27.135-.15.03-.24 0-.27-.09-.48-1.74-1.29-3.03-2.43-3.87s-2.64-1.26-4.5-1.26h-1.35c-.9 0-1.56.195-1.98.585s-.63.99-.63 1.8v9.72h3.24c1.74 0 3.06-.3 3.96-.9.93-.63 1.395-1.485 1.395-2.565 0-.06.09-.09.27-.09s.27.03.27.09l-.045 4.095.045 2.16.045 2.385c0 .09-.09.135-.27.135s-.27-.045-.27-.135a3.3 3.3 0 0 0-1.44-2.835c-.93-.72-2.265-1.08-4.005-1.08h-3.195v9.63c0 .93.12 1.62.36 2.07s.69.765 1.35.945 1.695.27 3.105.27c.06 0 .09.09.09.27s-.03.27-.09.27c-1.23 0-2.19-.015-2.88-.045l-4.59-.045-3.375.045-2.475.045c-.09 0-.135-.09-.135-.27s.045-.27.135-.27c1.05 0 1.815-.075 2.295-.225s.795-.435.945-.855c.18-.45.27-1.125.27-2.025V301.52c0-.9-.075-1.56-.225-1.98a1.35 1.35 0 0 0-.9-.855c-.45-.18-1.14-.27-2.07-.27-.09 0-.135-.09-.135-.27s.045-.27.135-.27h19.08c.3 0 .45.135.45.405l.09 5.985zm40.341-.63c0-1.62-.375-2.895-1.125-3.825-.72-.93-1.74-1.395-3.06-1.395-.06 0-.09-.09-.09-.27s.03-.27.09-.27l2.16.045 2.745.09 2.475-.09 2.07-.045c.06 0 .09.09.09.27s-.03.27-.09.27c-1.17 0-2.085.465-2.745 1.395s-.99 2.205-.99 3.825v12.51c0 2.1-.465 3.945-1.395 5.535s-2.25 2.82-3.96 3.69c-1.68.84-3.63 1.26-5.85 1.26s-4.185-.42-5.895-1.26-3.06-2.055-4.05-3.645c-.96-1.62-1.44-3.51-1.44-5.67V301.52c0-.9-.09-1.56-.27-1.98a1.35 1.35 0 0 0-.9-.855c-.42-.18-1.095-.27-2.025-.27-.09 0-.135-.09-.135-.27s.045-.27.135-.27l2.385.045 3.285.09 3.42-.09 2.295-.045c.09 0 .135.09.135.27s-.045.27-.135.27c-.93 0-1.62.09-2.07.27-.42.18-.72.495-.9.945-.15.42-.225 1.08-.225 1.98v12.87c0 3.57.705 6.21 2.115 7.92s3.405 2.565 5.985 2.565c2.49 0 4.44-.75 5.85-2.25 1.41-1.53 2.115-3.705 2.115-6.525v-12.555zm28.131 18.54c0 .78.06 1.35.18 1.71.12.33.345.555.675.675.36.12.93.18 1.71.18h1.53c2.34 0 4.365-.615 6.075-1.845 1.71-1.26 2.85-2.955 3.42-5.085 0-.06.06-.09.18-.09.06 0 .12.03.18.09.09.03.135.06.135.09l-.405 7.425c0 .24-.06.42-.18.54-.09.09-.255.135-.495.135h-21.24c-.06 0-.09-.09-.09-.27s.03-.27.09-.27c.96 0 1.65-.075 2.07-.225a1.35 1.35 0 0 0 .9-.855c.18-.45.27-1.125.27-2.025V301.52c0-.9-.09-1.56-.27-1.98a1.35 1.35 0 0 0-.9-.855c-.45-.18-1.14-.27-2.07-.27-.06 0-.09-.09-.09-.27s.03-.27.09-.27l2.295.045 3.42.09 3.42-.09 2.295-.045c.09 0 .135.09.135.27s-.045.27-.135.27c-.93 0-1.62.09-2.07.27a1.35 1.35 0 0 0-.9.9c-.15.42-.225 1.08-.225 1.98v20.61zm37.122 0c0 .78.06 1.35.18 1.71.12.33.345.555.675.675.36.12.93.18 1.71.18h1.53c2.34 0 4.365-.615 6.075-1.845 1.71-1.26 2.85-2.955 3.42-5.085 0-.06.06-.09.18-.09.06 0 .12.03.18.09.09.03.135.06.135.09l-.405 7.425c0 .24-.06.42-.18.54-.09.09-.255.135-.495.135h-21.24c-.06 0-.09-.09-.09-.27s.03-.27.09-.27c.96 0 1.65-.075 2.07-.225a1.35 1.35 0 0 0 .9-.855c.18-.45.27-1.125.27-2.025V301.52c0-.9-.09-1.56-.27-1.98a1.35 1.35 0 0 0-.9-.855c-.45-.18-1.14-.27-2.07-.27-.06 0-.09-.09-.09-.27s.03-.27.09-.27l2.295.045 3.42.09 3.42-.09 2.295-.045c.09 0 .135.09.135.27s-.045.27-.135.27c-.93 0-1.62.09-2.07.27a1.35 1.35 0 0 0-.9.9c-.15.42-.225 1.08-.225 1.98v20.61zm58.513-19.755c0 1.08.27 2.04.81 2.88.57.84 1.26 1.575 2.07 2.205s1.905 1.395 3.285 2.295l3.6 2.52c.9.72 1.665 1.605 2.295 2.655.63 1.02.945 2.205.945 3.555 0 1.56-.42 2.955-1.26 4.185-.84 1.2-2.01 2.145-3.51 2.835-1.47.66-3.12.99-4.95.99-1.35 0-2.76-.18-4.23-.54-1.47-.39-2.46-.81-2.97-1.26l-.36-.315c-.06-.12-.09-.3-.09-.54l-.135-7.155v-.045c0-.12.075-.18.225-.18.15-.03.24.015.27.135l2.34 4.455a12.33 12.33 0 0 0 2.565 3.015c1.05.87 2.235 1.305 3.555 1.305 1.2 0 2.19-.315 2.97-.945.78-.66 1.17-1.77 1.17-3.33 0-1.32-.3-2.475-.9-3.465a9.1 9.1 0 0 0-2.115-2.52c-.84-.69-1.995-1.515-3.465-2.475l-3.375-2.385c-.78-.66-1.455-1.455-2.025-2.385s-.855-2.025-.855-3.285c0-1.59.45-2.925 1.35-4.005.93-1.11 2.115-1.92 3.555-2.43 1.44-.54 2.955-.81 4.545-.81a16.71 16.71 0 0 1 3.195.315c1.08.18 1.95.405 2.61.675.27.12.45.255.54.405.09.12.135.285.135.495v6.615c0 .09-.075.165-.225.225-.15.03-.24 0-.27-.09l-.36-.855c-.75-1.89-1.635-3.495-2.655-4.815-.99-1.32-2.385-1.98-4.185-1.98-1.2 0-2.19.345-2.97 1.035-.75.69-1.125 1.695-1.125 3.015zm37.919-3.51c-3.57 0-6.135 2.325-7.695 6.975-.03.09-.12.135-.27.135-.15-.03-.225-.09-.225-.18l.405-4.635c.15-1.92.225-3.36.225-4.32 0-.15.075-.225.225-.225.18 0 .27.075.27.225 0 .66.855.99 2.565.99 2.58.09 5.595.135 9.045.135 1.77 0 3.645-.03 5.625-.09l3.06-.045c1.14 0 1.965-.075 2.475-.225.54-.15.885-.45 1.035-.9.03-.12.12-.18.27-.18.18 0 .27.06.27.18-.09.9-.195 2.34-.315 4.32-.09 1.98-.135 3.57-.135 4.77 0 .09-.075.135-.225.135s-.24-.045-.27-.135c-.45-2.31-1.29-4.035-2.52-5.175-1.23-1.17-2.745-1.755-4.545-1.755-.87 0-1.455.195-1.755.585-.27.36-.405 1.065-.405 2.115v20.745c0 .93.09 1.605.27 2.025s.525.705 1.035.855 1.32.225 2.43.225c.09 0 .135.09.135.27s-.045.27-.135.27c-1.08 0-1.935-.015-2.565-.045l-3.735-.045-3.645.045c-.63.03-1.5.045-2.61.045-.09 0-.135-.09-.135-.27s.045-.27.135-.27c1.08 0 1.875-.075 2.385-.225.54-.15.9-.435 1.08-.855.21-.45.315-1.125.315-2.025V301.52c0-1.02-.135-1.71-.405-2.07s-.825-.54-1.665-.54zm60.627 26.55c.15 0 .225.09.225.27s-.075.27-.225.27c-.6 0-1.53-.03-2.79-.09l-2.835-.09c-.75 0-1.665.03-2.745.09-1.02.06-1.83.09-2.43.09-.12 0-.18-.09-.18-.27s.06-.27.18-.27c.78 0 1.335-.075 1.665-.225.36-.18.54-.48.54-.9 0-.51-.3-1.365-.9-2.565l-3.06-6.075h-11.07l-1.755 3.915c-.39.87-.585 1.68-.585 2.43 0 1.08.375 1.92 1.125 2.52.78.6 1.815.9 3.105.9.15 0 .225.09.225.27s-.075.27-.225.27c-.54 0-1.32-.03-2.34-.09a57.51 57.51 0 0 0-2.97-.09 56.89 56.89 0 0 0-2.925.09c-1.02.06-1.845.09-2.475.09-.12 0-.18-.09-.18-.27s.06-.27.18-.27c.84 0 1.545-.165 2.115-.495.57-.36 1.14-.975 1.71-1.845.57-.9 1.245-2.22 2.025-3.96l9.765-21.465c.06-.09.195-.135.405-.135.24 0 .375.045.405.135l11.25 22.14c1.05 2.13 1.92 3.6 2.61 4.41s1.41 1.215 2.16 1.215zm-23.04-11.025h9.81l-5.175-10.26-4.635 10.26zm54.275-17.055a25.97 25.97 0 0 1 4.275.36c1.47.21 2.64.495 3.51.855.27.09.435.21.495.36.09.12.15.345.18.675l.585 6.255c0 .09-.075.15-.225.18s-.255-.015-.315-.135c-.84-2.46-2.04-4.335-3.6-5.625-1.56-1.32-3.435-1.98-5.625-1.98-2.04 0-3.87.555-5.49 1.665-1.59 1.08-2.85 2.64-3.78 4.68-.9 2.04-1.35 4.425-1.35 7.155 0 2.76.465 5.19 1.395 7.29.96 2.07 2.265 3.675 3.915 4.815 1.68 1.11 3.6 1.665 5.76 1.665 2.07 0 3.81-.555 5.22-1.665 1.41-1.14 2.745-3 4.005-5.58.03-.09.12-.12.27-.09s.225.09.225.18l-.675 5.58c-.06.36-.12.6-.18.72-.06.09-.225.195-.495.315-2.76.99-5.55 1.485-8.37 1.485-3.21 0-6.09-.6-8.64-1.8-2.52-1.23-4.5-2.94-5.94-5.13s-2.16-4.68-2.16-7.47c0-2.85.735-5.385 2.205-7.605 1.5-2.25 3.54-4.005 6.12-5.265 2.61-1.26 5.505-1.89 8.685-1.89zm53.895 28.08c.09 0 .135.09.135.27s-.045.27-.135.27h-5.04c-.48 0-.885.015-1.215.045s-.6.045-.81.045c-.48 0-.9-.105-1.26-.315-.33-.24-.75-.66-1.26-1.26-.48-.6-1.35-1.755-2.61-3.465a8.84 8.84 0 0 0-.54-.675c-.18-.27-.39-.57-.63-.9l-5.895-7.92-.99.99v9.81c0 .93.075 1.605.225 2.025s.435.705.855.855c.45.15 1.155.225 2.115.225.12 0 .18.09.18.27s-.06.27-.18.27c-.99 0-1.77-.015-2.34-.045l-3.375-.045-3.33.045c-.6.03-1.41.045-2.43.045-.06 0-.09-.09-.09-.27s.03-.27.09-.27c.96 0 1.665-.075 2.115-.225a1.35 1.35 0 0 0 .9-.855c.18-.45.27-1.125.27-2.025V301.52c0-.9-.09-1.56-.27-1.98a1.35 1.35 0 0 0-.9-.855c-.42-.18-1.095-.27-2.025-.27-.09 0-.135-.09-.135-.27s.045-.27.135-.27l2.385.045c1.38.06 2.475.09 3.285.09.9 0 2.04-.03 3.42-.09l2.295-.045c.09 0 .135.09.135.27s-.045.27-.135.27c-.93 0-1.62.09-2.07.27-.42.18-.72.495-.9.945-.15.42-.225 1.08-.225 1.98v9.54l8.46-8.64c.87-.87 1.305-1.665 1.305-2.385 0-.54-.24-.96-.72-1.26s-1.155-.45-2.025-.45c-.09 0-.135-.09-.135-.27s.045-.27.135-.27l2.115.045a81.59 81.59 0 0 0 3.69.09 84.31 84.31 0 0 0 3.825-.09l2.025-.045c.09 0 .135.09.135.27s-.045.27-.135.27c-1.38 0-2.895.405-4.545 1.215-1.65.78-3.15 1.83-4.5 3.15l-5.085 5.175 6.66 9c1.95 2.79 3.405 4.77 4.365 5.94.99 1.14 1.785 1.86 2.385 2.16.6.27 1.365.405 2.295.405zM26.174 380.18a51.25 51.25 0 0 1-3.42-.135l-1.8-.09c-.69-.03-1.47-.045-2.34-.045l-3.33.045c-.6.03-1.41.045-2.43.045-.06 0-.09-.09-.09-.27s.03-.27.09-.27c.96 0 1.665-.075 2.115-.225a1.35 1.35 0 0 0 .9-.855c.18-.45.27-1.125.27-2.025V355.52c0-.9-.09-1.56-.27-1.98a1.35 1.35 0 0 0-.9-.855c-.42-.18-1.095-.27-2.025-.27-.09 0-.135-.09-.135-.27s.045-.27.135-.27l2.385.045c1.38.06 2.475.09 3.285.09 1.23 0 2.49-.045 3.78-.135l3.15-.09c3.03 0 5.715.6 8.055 1.8 2.37 1.2 4.2 2.835 5.49 4.905s1.935 4.395 1.935 6.975c0 2.91-.675 5.49-2.025 7.74a13.78 13.78 0 0 1-5.4 5.175c-2.25 1.2-4.725 1.8-7.425 1.8zm-.45-1.035c1.92 0 3.615-.48 5.085-1.44 1.47-.99 2.61-2.445 3.42-4.365.84-1.92 1.26-4.215 1.26-6.885 0-2.55-.39-4.86-1.17-6.93-.78-2.1-1.89-3.75-3.33-4.95a7.57 7.57 0 0 0-4.995-1.8c-1.86 0-3.135.18-3.825.54s-1.035 1.125-1.035 2.295v20.25c0 1.2.315 2.055.945 2.565.63.48 1.845.72 3.645.72zm52.429-6.3c0-.06.06-.09.18-.09.09 0 .165.03.225.09.09.03.135.06.135.09-.3 2.34-.45 4.47-.45 6.39 0 .24-.045.42-.135.54-.09.09-.27.135-.54.135h-19.89c-.09 0-.135-.09-.135-.27s.045-.27.135-.27c.96 0 1.65-.075 2.07-.225a1.35 1.35 0 0 0 .9-.855c.15-.45.225-1.125.225-2.025V355.52c0-.9-.075-1.56-.225-1.98a1.35 1.35 0 0 0-.9-.855c-.45-.18-1.14-.27-2.07-.27-.09 0-.135-.09-.135-.27s.045-.27.135-.27h19.08c.3 0 .45.135.45.405l.09 5.985c0 .06-.09.105-.27.135-.15.03-.24 0-.27-.09-.48-1.74-1.29-3.03-2.43-3.87s-2.64-1.26-4.5-1.26h-1.35c-.9 0-1.56.195-1.98.585s-.63.99-.63 1.8v9.18h3.735c1.74 0 3.075-.3 4.005-.9s1.395-1.44 1.395-2.52c0-.09.075-.135.225-.135.18 0 .27.045.27.135l-.045 4.05.045 2.16c.06 1.02.09 1.83.09 2.43 0 .06-.09.09-.27.09s-.27-.03-.27-.09c0-1.23-.48-2.19-1.44-2.88-.93-.72-2.28-1.08-4.05-1.08h-3.69v10.17c0 .87.165 1.515.495 1.935s.855.63 1.575.63h1.485c2.34 0 4.215-.48 5.625-1.44s2.445-2.445 3.105-4.455zm45.034-20.97c.09 0 .135.09.135.27s-.045.27-.135.27c-1.08 0-2.115.48-3.105 1.44s-1.785 2.25-2.385 3.87l-8.325 22.23c-.03.12-.195.18-.495.18s-.465-.06-.495-.18L96.907 355.61c-.54-1.08-1.08-1.875-1.62-2.385-.54-.54-1.14-.81-1.8-.81-.09 0-.135-.09-.135-.27s.045-.27.135-.27c.45 0 .765.015.945.045.6.06 1.38.09 2.34.09l6.57-.09c.48-.03 1.08-.045 1.8-.045.09 0 .135.09.135.27s-.045.27-.135.27c-.9 0-1.605.195-2.115.585-.48.36-.72.885-.72 1.575 0 .51.165 1.125.495 1.845l7.785 16.605 5.85-15.435c.3-.84.45-1.56.45-2.16 0-.93-.285-1.665-.855-2.205-.54-.54-1.335-.81-2.385-.81-.09 0-.135-.09-.135-.27s.045-.27.135-.27l2.205.045c1.26.06 2.385.09 3.375.09.57 0 1.275-.03 2.115-.09l1.845-.045zm34.702 20.97c0-.06.06-.09.18-.09.09 0 .165.03.225.09.09.03.135.06.135.09-.3 2.34-.45 4.47-.45 6.39 0 .24-.045.42-.135.54-.09.09-.27.135-.54.135h-19.89c-.09 0-.135-.09-.135-.27s.045-.27.135-.27c.96 0 1.65-.075 2.07-.225a1.35 1.35 0 0 0 .9-.855c.15-.45.225-1.125.225-2.025V355.52c0-.9-.075-1.56-.225-1.98a1.35 1.35 0 0 0-.9-.855c-.45-.18-1.14-.27-2.07-.27-.09 0-.135-.09-.135-.27s.045-.27.135-.27h19.08c.3 0 .45.135.45.405l.09 5.985c0 .06-.09.105-.27.135-.15.03-.24 0-.27-.09-.48-1.74-1.29-3.03-2.43-3.87s-2.64-1.26-4.5-1.26h-1.35c-.9 0-1.56.195-1.98.585s-.63.99-.63 1.8v9.18h3.735c1.74 0 3.075-.3 4.005-.9s1.395-1.44 1.395-2.52c0-.09.075-.135.225-.135.18 0 .27.045.27.135l-.045 4.05.045 2.16c.06 1.02.09 1.83.09 2.43 0 .06-.09.09-.27.09s-.27-.03-.27-.09c0-1.23-.48-2.19-1.44-2.88-.93-.72-2.28-1.08-4.05-1.08h-3.69v10.17c0 .87.165 1.515.495 1.935s.855.63 1.575.63h1.485c2.34 0 4.215-.48 5.625-1.44s2.445-2.445 3.105-4.455zm24.694 3.33c0 .78.06 1.35.18 1.71.12.33.345.555.675.675.36.12.93.18 1.71.18h1.53c2.34 0 4.365-.615 6.075-1.845 1.71-1.26 2.85-2.955 3.42-5.085 0-.06.06-.09.18-.09.06 0 .12.03.18.09.09.03.135.06.135.09-.27 2.97-.405 5.445-.405 7.425 0 .24-.06.42-.18.54-.09.09-.255.135-.495.135h-21.24c-.06 0-.09-.09-.09-.27s.03-.27.09-.27c.96 0 1.65-.075 2.07-.225a1.35 1.35 0 0 0 .9-.855c.18-.45.27-1.125.27-2.025V355.52c0-.9-.09-1.56-.27-1.98a1.35 1.35 0 0 0-.9-.855c-.45-.18-1.14-.27-2.07-.27-.06 0-.09-.09-.09-.27s.03-.27.09-.27l2.295.045c1.38.06 2.52.09 3.42.09s2.04-.03 3.42-.09l2.295-.045c.09 0 .135.09.135.27s-.045.27-.135.27c-.93 0-1.62.09-2.07.27a1.35 1.35 0 0 0-.9.9c-.15.42-.225 1.08-.225 1.98v20.61zm44.007 4.365c-2.79 0-5.28-.645-7.47-1.935-2.16-1.32-3.84-3.09-5.04-5.31-1.17-2.25-1.755-4.695-1.755-7.335 0-3.09.78-5.73 2.34-7.92 1.56-2.22 3.555-3.885 5.985-4.995 2.46-1.11 4.965-1.665 7.515-1.665 2.85 0 5.355.675 7.515 2.025 2.16 1.32 3.81 3.075 4.95 5.265 1.17 2.19 1.755 4.515 1.755 6.975 0 2.73-.72 5.235-2.16 7.515s-3.375 4.08-5.805 5.4c-2.4 1.32-5.01 1.98-7.83 1.98zm1.485-1.125c1.68 0 3.18-.48 4.5-1.44 1.35-.99 2.4-2.415 3.15-4.275.75-1.89 1.125-4.14 1.125-6.75 0-2.76-.42-5.22-1.26-7.38-.84-2.19-2.055-3.9-3.645-5.13s-3.45-1.845-5.58-1.845c-2.73 0-4.83 1.035-6.3 3.105-1.47 2.04-2.205 4.905-2.205 8.595 0 2.91.435 5.52 1.305 7.83.9 2.28 2.115 4.065 3.645 5.355 1.56 1.29 3.315 1.935 5.265 1.935zm38.818-3.24c0 .96.105 1.665.315 2.115.21.42.6.72 1.17.9.6.18 1.545.27 2.835.27.09 0 .135.09.135.27s-.045.27-.135.27c-1.23 0-2.19-.015-2.88-.045l-3.915-.045-3.285.045c-.6.03-1.41.045-2.43.045-.09 0-.135-.09-.135-.27s.045-.27.135-.27c.96 0 1.65-.075 2.07-.225a1.35 1.35 0 0 0 .9-.855c.15-.45.225-1.125.225-2.025V355.52c0-.9-.075-1.56-.225-1.98a1.35 1.35 0 0 0-.9-.855c-.45-.18-1.14-.27-2.07-.27-.09 0-.135-.09-.135-.27s.045-.27.135-.27l2.385.045c1.38.06 2.475.09 3.285.09.72 0 1.575-.045 2.565-.135a57.43 57.43 0 0 1 1.485-.09c.6-.03 1.29-.045 2.07-.045 3.06 0 5.475.645 7.245 1.935 1.77 1.26 2.655 3.225 2.655 5.895 0 1.86-.48 3.435-1.44 4.725s-2.205 2.265-3.735 2.925c-1.5.66-3.045.99-4.635.99-.81 0-1.515-.075-2.115-.225-.06 0-.09-.075-.09-.225a.85.85 0 0 1 .045-.27c.06-.09.12-.12.18-.09.45.12.96.18 1.53.18 1.38 0 2.52-.645 3.42-1.935.93-1.29 1.395-3.12 1.395-5.49s-.51-4.2-1.53-5.49c-.99-1.29-2.445-1.935-4.365-1.935-.84 0-1.41.195-1.71.585s-.45 1.155-.45 2.295v20.565zm50.073-3.33c0-.06.06-.09.18-.09.09 0 .165.03.225.09.09.03.135.06.135.09-.3 2.34-.45 4.47-.45 6.39 0 .24-.045.42-.135.54-.09.09-.27.135-.54.135h-19.89c-.09 0-.135-.09-.135-.27s.045-.27.135-.27c.96 0 1.65-.075 2.07-.225a1.35 1.35 0 0 0 .9-.855c.15-.45.225-1.125.225-2.025V355.52c0-.9-.075-1.56-.225-1.98a1.35 1.35 0 0 0-.9-.855c-.45-.18-1.14-.27-2.07-.27-.09 0-.135-.09-.135-.27s.045-.27.135-.27h19.08c.3 0 .45.135.45.405l.09 5.985c0 .06-.09.105-.27.135-.15.03-.24 0-.27-.09-.48-1.74-1.29-3.03-2.43-3.87s-2.64-1.26-4.5-1.26h-1.35c-.9 0-1.56.195-1.98.585s-.63.99-.63 1.8v9.18h3.735c1.74 0 3.075-.3 4.005-.9s1.395-1.44 1.395-2.52c0-.09.075-.135.225-.135.18 0 .27.045.27.135l-.045 4.05.045 2.16c.06 1.02.09 1.83.09 2.43 0 .06-.09.09-.27.09s-.27-.03-.27-.09c0-1.23-.48-2.19-1.44-2.88-.93-.72-2.28-1.08-4.05-1.08h-3.69v10.17c0 .87.165 1.515.495 1.935s.855.63 1.575.63h1.485c2.34 0 4.215-.48 5.625-1.44s2.445-2.445 3.105-4.455zm46.969 6.615c.06 0 .09.09.09.27s-.03.27-.09.27h-8.01c-.66 0-1.89-1.185-3.69-3.555-1.8-2.4-3.975-5.745-6.525-10.035a8.95 8.95 0 0 1-1.035.045c-1.17 0-1.995-.015-2.475-.045v9.945c0 .93.075 1.605.225 2.025s.435.705.855.855c.45.15 1.155.225 2.115.225.06 0 .09.09.09.27s-.03.27-.09.27c-.99 0-1.77-.015-2.34-.045l-3.42-.045-3.285.045c-.6.03-1.41.045-2.43.045-.09 0-.135-.09-.135-.27s.045-.27.135-.27c.96 0 1.65-.075 2.07-.225a1.35 1.35 0 0 0 .9-.855c.18-.45.27-1.125.27-2.025V355.52c0-.9-.075-1.56-.225-1.98a1.35 1.35 0 0 0-.9-.855c-.45-.18-1.14-.27-2.07-.27-.06 0-.09-.09-.09-.27s.03-.27.09-.27l2.385.045c1.38.06 2.475.09 3.285.09a39.58 39.58 0 0 0 3.195-.135c.39-.03.87-.06 1.44-.09.6-.03 1.26-.045 1.98-.045 2.73 0 4.845.51 6.345 1.53 1.5.99 2.25 2.385 2.25 4.185 0 1.65-.45 3.15-1.35 4.5-.9 1.32-2.1 2.385-3.6 3.195 2.4 3.6 4.41 6.42 6.03 8.46s3.06 3.525 4.32 4.455 2.49 1.395 3.69 1.395zM342.2 365.15c.72.12 1.59.18 2.61.18 1.74 0 2.985-.48 3.735-1.44.78-.99 1.17-2.565 1.17-4.725 0-2.46-.36-4.155-1.08-5.085s-1.755-1.395-3.105-1.395c-1.2 0-2.055.225-2.565.675s-.765 1.2-.765 2.25v9.54z"/></svg>