<svg xmlns="http://www.w3.org/2000/svg" width="1739" height="221" fill="none" xmlns:v="https://vecta.io/nano"><path d="M20.391 45.82c0 5.427 1.32 10.267 3.96 14.52a47.06 47.06 0 0 0 10.12 10.78c4.107 3.08 9.607 6.747 16.5 11 7.48 4.693 13.347 8.727 17.6 12.1 4.4 3.373 8.067 7.553 11 12.54 3.08 4.84 4.62 10.56 4.62 17.16 0 7.48-1.98 14.153-5.94 20.02-3.813 5.867-9.313 10.487-16.5 13.86-7.04 3.227-15.107 4.84-24.2 4.84-6.16 0-12.54-.807-19.14-2.42-6.453-1.613-11.367-3.593-14.74-5.94-1.32-.88-2.053-2.273-2.2-4.18l-1.32-33.44v-.22c0-.587.367-.88 1.1-.88.733-.147 1.173.073 1.32.66 4.84 12.173 10.34 22.147 16.5 29.92 6.307 7.773 14.3 11.66 23.98 11.66 6.307 0 11.587-1.687 15.84-5.06 4.253-3.52 6.38-9.313 6.38-17.38 0-6.453-1.467-12.1-4.4-16.94-2.787-4.84-6.307-8.873-10.56-12.1-4.107-3.227-9.753-7.187-16.94-11.88-7.04-4.547-12.54-8.36-16.5-11.44-3.96-3.227-7.333-7.113-10.12-11.66-2.787-4.693-4.18-10.12-4.18-16.28 0-7.627 2.127-14.08 6.38-19.36s9.753-9.167 16.5-11.66c6.893-2.64 14.08-3.96 21.56-3.96 4.987 0 9.973.513 14.96 1.54 4.987.88 9.167 2.053 12.54 3.52 2.2.88 3.3 2.273 3.3 4.18l.66 29.92c0 .44-.44.733-1.32.88-.733.147-1.173 0-1.32-.44-2.933-8.947-6.893-17.013-11.88-24.2-4.84-7.333-12.173-11-22-11-6.6 0-11.88 1.907-15.84 5.72-3.813 3.813-5.72 9.02-5.72 15.62zm126.684 116.82c-9.533 0-17.673-2.053-24.42-6.16-6.6-4.253-11.513-9.68-14.74-16.28-3.226-6.747-4.84-13.787-4.84-21.12 0-9.24 2.494-17.307 7.48-24.2a48.38 48.38 0 0 1 19.14-16.06c7.92-3.813 15.914-5.72 23.98-5.72 6.894 0 13.127 1.393 18.7 4.18s8.36 6.527 8.36 11.22c0 2.493-.953 4.693-2.86 6.6-1.906 1.76-4.546 2.64-7.92 2.64-5.573 0-9.606-3.3-12.1-9.9-1.466-3.667-3.006-6.233-4.62-7.7-1.613-1.613-4.18-2.42-7.7-2.42-6.893 0-12.393 3.153-16.5 9.46-3.96 6.16-5.94 14.447-5.94 24.86 0 12.173 2.787 22.073 8.36 29.7 5.72 7.48 14.594 11.22 26.62 11.22 4.107 0 7.774-.513 11-1.54s6.747-2.64 10.56-4.84h.22c.44 0 .807.22 1.1.66.44.44.514.807.22 1.1-5.426 4.84-10.78 8.433-16.06 10.78s-11.293 3.52-18.04 3.52zm105.143-89.76c3.374 0 6.6 1.1 9.68 3.3s4.62 4.84 4.62 7.92c0 2.787-.88 5.06-2.64 6.82-1.613 1.76-3.886 2.64-6.82 2.64-1.906 0-3.52-.367-4.84-1.1-1.173-.88-2.42-2.053-3.74-3.52-1.32-1.32-2.493-2.273-3.52-2.86-1.026-.733-2.273-1.1-3.74-1.1-1.613 0-3.373.66-5.28 1.98-1.76 1.173-4.546 3.74-8.36 7.7v47.52c0 4.107.587 7.26 1.76 9.46 1.174 2.053 3.154 3.52 5.94 4.4s6.894 1.32 12.32 1.32c.587 0 .88.44.88 1.32s-.293 1.32-.88 1.32c-4.84 0-8.726-.073-11.66-.22l-17.38-.22-12.76.22c-2.053.147-4.913.22-8.58.22-.44 0-.66-.44-.66-1.32s.22-1.32.66-1.32c4.987 0 8.287-1.027 9.9-3.08s2.42-6.087 2.42-12.1v-42.02c0-4.693-.586-8.14-1.76-10.34-1.026-2.2-2.786-3.3-5.28-3.3-2.2 0-5.866 1.1-11 3.3h-.22c-.586 0-1.026-.367-1.32-1.1s-.22-1.173.22-1.32l28.82-14.08c.88-.293 1.394-.44 1.54-.44 1.467 0 2.934 1.613 4.4 4.84 1.467 3.08 2.347 7.187 2.64 12.32 5.72-6.453 10.487-10.927 14.3-13.42s7.26-3.74 10.34-3.74zm67.387 89.98c-8.8 0-16.573-2.053-23.32-6.16-6.746-4.253-11.953-9.9-15.62-16.94-3.666-7.187-5.5-14.96-5.5-23.32 0-9.533 2.347-17.6 7.04-24.2 4.84-6.747 10.927-11.733 18.26-14.96 7.48-3.373 15.107-5.06 22.88-5.06 8.947 0 16.72 2.127 23.32 6.38 6.747 4.253 11.88 9.9 15.4 16.94 3.52 6.893 5.28 14.3 5.28 22.22 0 8.8-2.2 16.647-6.6 23.54-4.253 6.893-10.046 12.247-17.38 16.06-7.333 3.667-15.253 5.5-23.76 5.5zm6.6-4.4c6.454 0 11.367-2.86 14.74-8.58 3.52-5.72 5.28-14.08 5.28-25.08 0-9.827-1.393-18.407-4.18-25.74-2.64-7.333-6.306-12.907-11-16.72-4.546-3.813-9.533-5.72-14.96-5.72-6.6 0-11.586 2.713-14.96 8.14s-5.06 13.42-5.06 23.98c0 9.533 1.247 18.113 3.74 25.74 2.64 7.48 6.234 13.347 10.78 17.6 4.694 4.253 9.9 6.38 15.62 6.38zm56.832 1.54c-.44 0-.66-.44-.66-1.32s.22-1.32.66-1.32c4.84 0 8.14-1.027 9.9-3.08 1.76-2.2 2.64-6.233 2.64-12.1V29.76c0-5.133-.513-8.8-1.54-11-.88-2.347-2.566-3.52-5.06-3.52-2.2 0-5.133.88-8.8 2.64h-.22c-.586 0-1.026-.367-1.32-1.1s-.293-1.247 0-1.54L409.656.72l.88-.22c.587 0 1.247.293 1.98.88.88.587 1.32 1.1 1.32 1.54v139.26c0 6.013.807 10.047 2.42 12.1s4.914 3.08 9.9 3.08c.44 0 .66.44.66 1.32s-.22 1.32-.66 1.32c-3.52 0-6.38-.073-8.58-.22l-12.98-.22-12.76.22c-2.2.147-5.133.22-8.8.22zm58.223 0c-.44 0-.66-.44-.66-1.32s.22-1.32.66-1.32c4.84 0 8.14-1.027 9.9-3.08 1.76-2.2 2.64-6.233 2.64-12.1V29.76c0-5.133-.513-8.8-1.54-11-.88-2.347-2.567-3.52-5.06-3.52-2.2 0-5.133.88-8.8 2.64h-.22c-.587 0-1.027-.367-1.32-1.1s-.293-1.247 0-1.54L467.879.72l.88-.22c.587 0 1.247.293 1.98.88.88.587 1.32 1.1 1.32 1.54v139.26c0 6.013.807 10.047 2.42 12.1s4.913 3.08 9.9 3.08c.44 0 .66.44.66 1.32s-.22 1.32-.66 1.32c-3.52 0-6.38-.073-8.58-.22l-12.98-.22-12.76.22c-2.2.147-5.133.22-8.8.22zm258.065-2.64c.734 0 1.1.44 1.1 1.32s-.366 1.32-1.1 1.32c-2.786 0-7.26-.147-13.42-.44s-10.633-.44-13.42-.44c-3.666 0-7.993.147-12.98.44s-8.873.44-11.66.44c-.586 0-.88-.44-.88-1.32s.294-1.32.88-1.32c4.254 0 7.334-.44 9.24-1.32 2.054-1.027 3.08-2.64 3.08-4.84s-1.246-5.94-3.74-11.22l-16.72-33.88h-53.24l-10.56 23.76c-1.906 4.4-2.86 8.36-2.86 11.88 0 5.133 1.834 9.02 5.5 11.66s8.8 3.96 15.4 3.96c.734 0 1.1.44 1.1 1.32s-.366 1.32-1.1 1.32c-2.64 0-6.453-.147-11.44-.44-5.573-.293-10.413-.44-14.52-.44-3.96 0-8.58.147-13.86.44-4.693.293-8.58.44-11.66.44-.733 0-1.1-.44-1.1-1.32s.367-1.32 1.1-1.32c4.107 0 7.554-.807 10.34-2.42s5.5-4.473 8.14-8.58c2.64-4.253 5.794-10.487 9.46-18.7l47.3-106.48c.294-.44.954-.66 1.98-.66s1.614.22 1.76.66l53.9 108.68c5.134 10.56 9.387 17.82 12.76 21.78 3.52 3.813 7.26 5.72 11.22 5.72zm-110.44-56.76h48.18l-25.3-51.26-22.88 51.26zm221.307 56.76c.44 0 .66.44.66 1.32s-.22 1.32-.66 1.32c-3.667 0-6.527-.073-8.58-.22l-12.76-.22-12.54.22c-2.2.147-5.134.22-8.8.22-.44 0-.66-.44-.66-1.32s.22-1.32.66-1.32c4.986 0 8.286-1.027 9.9-3.08s2.42-6.087 2.42-12.1v-33c0-8.213-1.54-14.227-4.62-18.04-2.934-3.96-7.627-5.94-14.08-5.94-3.814 0-7.7.88-11.66 2.64s-7.554 4.107-10.78 7.04v47.3c0 6.013.806 10.047 2.42 12.1s4.913 3.08 9.9 3.08c.44 0 .66.44.66 1.32s-.22 1.32-.66 1.32c-3.667 0-6.527-.073-8.58-.22l-12.76-.22-12.76.22c-2.054.147-4.914.22-8.58.22-.44 0-.66-.44-.66-1.32s.22-1.32.66-1.32c4.986 0 8.286-1.027 9.9-3.08s2.42-6.087 2.42-12.1v-42.02c0-4.693-.587-8.14-1.76-10.34-1.027-2.2-2.787-3.3-5.28-3.3-2.2 0-5.867 1.1-11 3.3h-.22c-.587 0-1.027-.367-1.32-1.1s-.22-1.173.22-1.32l28.82-14.08c.88-.293 1.393-.44 1.54-.44 1.466 0 2.933 1.687 4.4 5.06 1.613 3.227 2.493 7.48 2.64 12.76 10.266-12.173 21.413-18.26 33.44-18.26 8.066 0 14.373 2.493 18.92 7.48 4.546 4.84 6.82 11.44 6.82 19.8v42.46c0 6.013.806 10.047 2.42 12.1s4.913 3.08 9.9 3.08zm115.156-11c.44 0 .806.367 1.1 1.1.44.733.44 1.173 0 1.32l-28.16 13.64-1.32.22c-1.467 0-2.86-1.467-4.18-4.4-1.174-2.933-1.834-6.893-1.98-11.88-5.28 4.987-10.707 9.02-16.28 12.1-5.574 2.933-11.66 4.4-18.26 4.4-6.307 0-12.1-1.687-17.38-5.06-5.28-3.52-9.46-8.507-12.54-14.96s-4.62-14.007-4.62-22.66c0-10.853 2.566-19.873 7.7-27.06s11.586-12.467 19.36-15.84 15.546-5.06 23.32-5.06c6.453 0 12.613 1.173 18.48 3.52V29.76c0-5.133-.514-8.8-1.54-11-.88-2.347-2.567-3.52-5.06-3.52-1.614 0-4.547.88-8.8 2.64h-.44c-.587 0-1.027-.367-1.32-1.1s-.294-1.173 0-1.32L904.447.72l.88-.22c.586 0 1.246.293 1.98.88s1.1 1.1 1.1 1.54v132c0 5.133.513 8.8 1.54 11 1.026 2.053 2.786 3.08 5.28 3.08 2.933 0 6.233-.88 9.9-2.64h.22zm-58.08 6.82c4.253 0 8.213-.953 11.88-2.86 3.813-1.907 7.626-4.62 11.44-8.14v-.22V89.6c-2.934-4.107-6.234-7.113-9.9-9.02-3.52-2.053-7.774-3.08-12.76-3.08-8.36 0-14.887 2.933-19.58 8.8-4.547 5.867-6.82 14.887-6.82 27.06 0 12.32 2.42 22.073 7.26 29.26 4.84 7.04 11 10.56 18.48 10.56zm218.703-27.5c0-.293.3-.44.88-.44.44 0 .81.147 1.1.44.44.147.66.293.66.44-1.46 11.147-2.2 21.34-2.2 30.58 0 1.173-.22 2.053-.66 2.64-.44.44-1.32.66-2.64.66h-95.477c-.44 0-.66-.44-.66-1.32s.22-1.32.66-1.32c4.986 0 8.58-.367 10.78-1.1 2.347-.733 3.887-2.127 4.617-4.18.88-2.2 1.32-5.5 1.32-9.9V40.32c0-4.4-.44-7.627-1.32-9.68-.73-2.053-2.27-3.447-4.617-4.18-2.347-.88-5.94-1.32-10.78-1.32-.44 0-.66-.44-.66-1.32s.22-1.32.66-1.32h91.517c1.47 0 2.2.66 2.2 1.98l.44 28.6c0 .293-.44.513-1.32.66-.73.147-1.17 0-1.32-.44-3.52-16.72-13.71-25.08-30.58-25.08h-8.8c-5.28 0-9.02.953-11.22 2.86s-3.3 5.133-3.3 9.68v44.88h21.12c16.14 0 24.2-5.427 24.2-16.28 0-.44.37-.66 1.1-.66.88 0 1.32.22 1.32.66l-.22 19.14.22 10.34c.3 4.693.44 8.507.44 11.44 0 .293-.44.44-1.32.44s-1.32-.147-1.32-.44c0-12.613-8.21-18.92-24.64-18.92h-20.9v49.94c0 4.84.88 8.213 2.64 10.12 1.91 1.907 5.21 2.86 9.9 2.86h10.78c19.66 0 32.12-9.533 37.4-28.6zm108 31.68c.44 0 .66.44.66 1.32s-.22 1.32-.66 1.32l-7.7-.22c-1.76-.147-4.33-.22-7.7-.22l-15.18.22c-2.2.147-5.28.22-9.24.22-.44 0-.66-.44-.66-1.32s.22-1.32.66-1.32c3.81 0 5.72-1.027 5.72-3.08 0-1.173-.81-3.007-2.42-5.5l-15.18-22.88-9.46 13.86c-3.23 4.547-4.84 8.36-4.84 11.44 0 4.107 3.52 6.16 10.56 6.16.44 0 .66.44.66 1.32s-.22 1.32-.66 1.32c-3.96 0-6.9-.073-8.8-.22l-13.2-.22-8.8.22c-1.47.147-3.96.22-7.48.22-.44 0-.66-.44-.66-1.32s.22-1.32.66-1.32c4.25 0 8.8-1.687 13.64-5.06 4.98-3.373 9.68-8.067 14.08-14.08l11.66-16.06-19.14-28.82c-3.23-4.987-6.46-8.8-9.68-11.44-3.23-2.787-6.16-4.18-8.8-4.18-.3 0-.44-.44-.44-1.32s.14-1.32.44-1.32c3.08 0 5.35.073 6.82.22l6.82.22 14.74-.22c2.34-.147 5.57-.22 9.68-.22.29 0 .44.44.44 1.32s-.15 1.32-.44 1.32c-3.82 0-5.72 1.027-5.72 3.08 0 1.467.8 3.3 2.42 5.5l13.64 20.68 7.7-11.66c3.37-4.987 5.06-8.8 5.06-11.44 0-4.107-3.6-6.16-10.78-6.16-.3 0-.44-.44-.44-1.32s.14-1.32.44-1.32c3.96 0 6.96.073 9.02.22l13.2.22 8.8-.22c1.46-.147 3.96-.22 7.48-.22.44 0 .66.44.66 1.32s-.22 1.32-.66 1.32c-4.26 0-8.88 1.687-13.86 5.06-4.84 3.373-9.46 8.067-13.86 14.08l-10.34 13.86 20.68 31.02c3.52 5.28 7.11 9.24 10.78 11.88 3.66 2.493 6.89 3.74 9.68 3.74zm58.83 5.5c-7.04 0-13.86-1.1-20.46-3.3v43.12c0 4.4.51 7.627 1.54 9.68s2.93 3.447 5.72 4.18c2.79.88 7.19 1.32 13.2 1.32.29 0 .44.44.44 1.32s-.15 1.32-.44 1.32c-5.28 0-9.39-.073-12.32-.22l-17.16-.22-12.54.22c-2.2.147-5.21.22-9.02.22-.44 0-.66-.44-.66-1.32s.22-1.32.66-1.32c3.67 0 6.38-.44 8.14-1.32 1.76-.733 2.93-2.127 3.52-4.18.73-2.053 1.1-5.28 1.1-9.68v-102.3c0-4.84-.59-8.36-1.76-10.56-1.03-2.2-2.86-3.3-5.5-3.3-2.49 0-6.01 1.027-10.56 3.08h-.44c-.59 0-1.03-.293-1.32-.88-.29-.733-.29-1.247 0-1.54l29.04-13.86c.29-.147.73-.22 1.32-.22 1.61 0 3.08 1.393 4.4 4.18 1.32 2.64 2.13 6.307 2.42 11 11.29-10.707 22.73-16.06 34.32-16.06 6.16 0 11.88 1.613 17.16 4.84s9.46 7.92 12.54 14.08c3.23 6.16 4.84 13.347 4.84 21.56 0 11.587-2.49 21.12-7.48 28.6-4.84 7.48-10.93 12.98-18.26 16.5-7.33 3.373-14.81 5.06-22.44 5.06zm.88-79.64c-7.48 0-14.59 3.153-21.34 9.46v.44 52.58c3.52 3.813 7.19 6.747 11 8.8 3.96 2.053 8.73 3.08 14.3 3.08 7.33 0 13.13-3.153 17.38-9.46 4.25-6.453 6.38-15.987 6.38-28.6 0-11.587-2.64-20.533-7.92-26.84s-11.88-9.46-19.8-9.46zm62.64 76.78c-.44 0-.66-.44-.66-1.32s.22-1.32.66-1.32c4.84 0 8.14-1.027 9.9-3.08 1.76-2.2 2.64-6.233 2.64-12.1V29.76c0-5.133-.52-8.8-1.54-11-.88-2.347-2.57-3.52-5.06-3.52-2.2 0-5.14.88-8.8 2.64h-.22c-.59 0-1.03-.367-1.32-1.1-.3-.733-.3-1.247 0-1.54L1342.94.72l.88-.22c.58 0 1.24.293 1.98.88.88.587 1.32 1.1 1.32 1.54v139.26c0 6.013.8 10.047 2.42 12.1 1.61 2.053 4.91 3.08 9.9 3.08.44 0 .66.44.66 1.32s-.22 1.32-.66 1.32c-3.52 0-6.38-.073-8.58-.22l-12.98-.22-12.76.22c-2.2.147-5.14.22-8.8.22zm101.78 2.86c-8.8 0-16.57-2.053-23.32-6.16-6.75-4.253-11.95-9.9-15.62-16.94-3.67-7.187-5.5-14.96-5.5-23.32 0-9.533 2.35-17.6 7.04-24.2 4.84-6.747 10.93-11.733 18.26-14.96 7.48-3.373 15.11-5.06 22.88-5.06 8.95 0 16.72 2.127 23.32 6.38 6.75 4.253 11.88 9.9 15.4 16.94 3.52 6.893 5.28 14.3 5.28 22.22 0 8.8-2.2 16.647-6.6 23.54-4.25 6.893-10.05 12.247-17.38 16.06-7.33 3.667-15.25 5.5-23.76 5.5zm6.6-4.4c6.45 0 11.37-2.86 14.74-8.58 3.52-5.72 5.28-14.08 5.28-25.08 0-9.827-1.39-18.407-4.18-25.74-2.64-7.333-6.31-12.907-11-16.72-4.55-3.813-9.53-5.72-14.96-5.72-6.6 0-11.59 2.713-14.96 8.14s-5.06 13.42-5.06 23.98c0 9.533 1.25 18.113 3.74 25.74 2.64 7.48 6.23 13.347 10.78 17.6 4.69 4.253 9.9 6.38 15.62 6.38zm112.71-85.58c3.38 0 6.6 1.1 9.68 3.3s4.62 4.84 4.62 7.92c0 2.787-.88 5.06-2.64 6.82-1.61 1.76-3.88 2.64-6.82 2.64-1.9 0-3.52-.367-4.84-1.1-1.17-.88-2.42-2.053-3.74-3.52-1.32-1.32-2.49-2.273-3.52-2.86-1.02-.733-2.27-1.1-3.74-1.1-1.61 0-3.37.66-5.28 1.98-1.76 1.173-4.54 3.74-8.36 7.7v47.52c0 4.107.59 7.26 1.76 9.46 1.18 2.053 3.16 3.52 5.94 4.4 2.79.88 6.9 1.32 12.32 1.32.59 0 .88.44.88 1.32s-.29 1.32-.88 1.32c-4.84 0-8.72-.073-11.66-.22l-17.38-.22-12.76.22c-2.05.147-4.91.22-8.58.22-.44 0-.66-.44-.66-1.32s.22-1.32.66-1.32c4.99 0 8.29-1.027 9.9-3.08 1.62-2.053 2.42-6.087 2.42-12.1v-42.02c0-4.693-.58-8.14-1.76-10.34-1.02-2.2-2.78-3.3-5.28-3.3-2.2 0-5.86 1.1-11 3.3h-.22c-.58 0-1.02-.367-1.32-1.1-.29-.733-.22-1.173.22-1.32l28.82-14.08c.88-.293 1.4-.44 1.54-.44 1.47 0 2.94 1.613 4.4 4.84 1.47 3.08 2.35 7.187 2.64 12.32 5.72-6.453 10.49-10.927 14.3-13.42 3.82-2.493 7.26-3.74 10.34-3.74zm99.07 73.26c.29 0 .59.293.88.88.44.587.51 1.027.22 1.32-5.43 4.987-10.85 8.653-16.28 11-5.43 2.2-11.29 3.3-17.6 3.3-8.95 0-16.72-1.98-23.32-5.94-6.45-3.96-11.44-9.167-14.96-15.62-3.37-6.453-5.06-13.42-5.06-20.9 0-8.653 2.13-16.573 6.38-23.76s10.05-12.833 17.38-16.94c7.48-4.253 15.77-6.38 24.86-6.38 8.8 0 15.62 2.127 20.46 6.38s7.26 10.56 7.26 18.92c0 4.253-.88 6.38-2.64 6.38l-53.68.22c-.15 1.32-.22 3.3-.22 5.94 0 12.907 2.93 23.173 8.8 30.8 6.01 7.48 14.52 11.22 25.52 11.22 4.11 0 7.55-.44 10.34-1.32 2.79-1.027 6.53-2.787 11.22-5.28l.44-.22zm-35.42-68.64c-5.43 0-9.9 2.127-13.42 6.38-3.37 4.107-5.65 9.827-6.82 17.16l35.2-.66c-.29-15.253-5.28-22.88-14.96-22.88zm109.65-53.24c-.29-.733 1.03-1.32 3.96-1.76 3.08-.587 6.31-.88 9.68-.88 3.23 0 6.38.293 9.46.88 3.08.44 4.47 1.027 4.18 1.76-2.93 11.88-5.21 24.86-6.82 38.94-1.47 13.933-2.86 30.873-4.18 50.82l-.22 4.4c0 .587-.95.88-2.86.88-2.05 0-3.08-.293-3.08-.88-1.03-20.533-2.27-38.207-3.74-53.02-1.32-14.96-3.45-28.673-6.38-41.14zm12.32 138.16c-3.67 0-6.6-1.1-8.8-3.3s-3.3-5.133-3.3-8.8c0-3.52 1.1-6.307 3.3-8.36s5.13-3.08 8.8-3.08c3.81 0 6.75 1.027 8.8 3.08s3.08 4.84 3.08 8.36c0 3.813-1.03 6.82-3.08 9.02-2.05 2.053-4.99 3.08-8.8 3.08z" fill="#4971ff"/></svg>