<svg width="1739" height="221" viewBox="0 0 1739 221" fill="none" xmlns="http://www.w3.org/2000/svg">
<path d="M20.3905 45.82C20.3905 51.2467 21.7105 56.0867 24.3505 60.34C27.1372 64.4467 30.5105 68.04 34.4706 71.12C38.5772 74.2 44.0772 77.8667 50.9705 82.12C58.4505 86.8133 64.3172 90.8467 68.5706 94.22C72.9706 97.5933 76.6372 101.773 79.5706 106.76C82.6506 111.6 84.1906 117.32 84.1906 123.92C84.1906 131.4 82.2106 138.073 78.2506 143.94C74.4372 149.807 68.9372 154.427 61.7506 157.8C54.7106 161.027 46.6439 162.64 37.5505 162.64C31.3905 162.64 25.0105 161.833 18.4105 160.22C11.9572 158.607 7.04388 156.627 3.67055 154.28C2.35055 153.4 1.61721 152.007 1.47055 150.1L0.150548 116.66V116.44C0.150548 115.853 0.517215 115.56 1.25055 115.56C1.98388 115.413 2.42388 115.633 2.57055 116.22C7.41055 128.393 12.9105 138.367 19.0705 146.14C25.3772 153.913 33.3705 157.8 43.0506 157.8C49.3572 157.8 54.6372 156.113 58.8906 152.74C63.1439 149.22 65.2706 143.427 65.2706 135.36C65.2706 128.907 63.8039 123.26 60.8706 118.42C58.0839 113.58 54.5639 109.547 50.3105 106.32C46.2039 103.093 40.5572 99.1333 33.3705 94.44C26.3305 89.8933 20.8305 86.08 16.8705 83C12.9105 79.7733 9.53721 75.8867 6.75055 71.34C3.96388 66.6467 2.57055 61.22 2.57055 55.06C2.57055 47.4333 4.69721 40.98 8.95055 35.7C13.2039 30.42 18.7039 26.5333 25.4505 24.04C32.3439 21.4 39.5306 20.08 47.0106 20.08C51.9972 20.08 56.9839 20.5933 61.9706 21.62C66.9572 22.5 71.1372 23.6733 74.5106 25.14C76.7106 26.02 77.8105 27.4133 77.8105 29.32L78.4706 59.24C78.4706 59.68 78.0306 59.9733 77.1506 60.12C76.4172 60.2667 75.9772 60.12 75.8305 59.68C72.8972 50.7333 68.9372 42.6667 63.9506 35.48C59.1106 28.1467 51.7772 24.48 41.9506 24.48C35.3505 24.48 30.0705 26.3867 26.1105 30.2C22.2972 34.0133 20.3905 39.22 20.3905 45.82ZM147.074 162.64C137.541 162.64 129.401 160.587 122.654 156.48C116.054 152.227 111.141 146.8 107.914 140.2C104.688 133.453 103.074 126.413 103.074 119.08C103.074 109.84 105.568 101.773 110.554 94.88C115.541 87.84 121.921 82.4867 129.694 78.82C137.614 75.0067 145.608 73.1 153.674 73.1C160.568 73.1 166.801 74.4933 172.374 77.28C177.948 80.0667 180.734 83.8067 180.734 88.5C180.734 90.9933 179.781 93.1933 177.874 95.1C175.968 96.86 173.328 97.74 169.954 97.74C164.381 97.74 160.348 94.44 157.854 87.84C156.388 84.1733 154.848 81.6067 153.234 80.14C151.621 78.5267 149.054 77.72 145.534 77.72C138.641 77.72 133.141 80.8733 129.034 87.18C125.074 93.34 123.094 101.627 123.094 112.04C123.094 124.213 125.881 134.113 131.454 141.74C137.174 149.22 146.048 152.96 158.074 152.96C162.181 152.96 165.848 152.447 169.074 151.42C172.301 150.393 175.821 148.78 179.634 146.58H179.854C180.294 146.58 180.661 146.8 180.954 147.24C181.394 147.68 181.468 148.047 181.174 148.34C175.748 153.18 170.394 156.773 165.114 159.12C159.834 161.467 153.821 162.64 147.074 162.64ZM252.217 72.88C255.591 72.88 258.817 73.98 261.897 76.18C264.977 78.38 266.517 81.02 266.517 84.1C266.517 86.8867 265.637 89.16 263.877 90.92C262.264 92.68 259.991 93.56 257.057 93.56C255.151 93.56 253.537 93.1933 252.217 92.46C251.044 91.58 249.797 90.4067 248.477 88.94C247.157 87.62 245.984 86.6667 244.957 86.08C243.931 85.3467 242.684 84.98 241.217 84.98C239.604 84.98 237.844 85.64 235.937 86.96C234.177 88.1333 231.391 90.7 227.577 94.66V142.18C227.577 146.287 228.164 149.44 229.337 151.64C230.511 153.693 232.491 155.16 235.277 156.04C238.064 156.92 242.171 157.36 247.597 157.36C248.184 157.36 248.477 157.8 248.477 158.68C248.477 159.56 248.184 160 247.597 160C242.757 160 238.871 159.927 235.937 159.78L218.557 159.56L205.797 159.78C203.744 159.927 200.884 160 197.217 160C196.777 160 196.557 159.56 196.557 158.68C196.557 157.8 196.777 157.36 197.217 157.36C202.204 157.36 205.504 156.333 207.117 154.28C208.731 152.227 209.537 148.193 209.537 142.18V100.16C209.537 95.4667 208.951 92.02 207.777 89.82C206.751 87.62 204.991 86.52 202.497 86.52C200.297 86.52 196.631 87.62 191.497 89.82H191.277C190.691 89.82 190.251 89.4533 189.957 88.72C189.664 87.9867 189.737 87.5467 190.177 87.4L218.997 73.32C219.877 73.0267 220.391 72.88 220.537 72.88C222.004 72.88 223.471 74.4933 224.937 77.72C226.404 80.8 227.284 84.9067 227.577 90.04C233.297 83.5867 238.064 79.1133 241.877 76.62C245.691 74.1267 249.137 72.88 252.217 72.88ZM319.604 162.86C310.804 162.86 303.031 160.807 296.284 156.7C289.538 152.447 284.331 146.8 280.664 139.76C276.998 132.573 275.164 124.8 275.164 116.44C275.164 106.907 277.511 98.84 282.204 92.24C287.044 85.4933 293.131 80.5067 300.464 77.28C307.944 73.9067 315.571 72.22 323.344 72.22C332.291 72.22 340.064 74.3467 346.664 78.6C353.411 82.8533 358.544 88.5 362.064 95.54C365.584 102.433 367.344 109.84 367.344 117.76C367.344 126.56 365.144 134.407 360.744 141.3C356.491 148.193 350.698 153.547 343.364 157.36C336.031 161.027 328.111 162.86 319.604 162.86ZM326.204 158.46C332.658 158.46 337.571 155.6 340.944 149.88C344.464 144.16 346.224 135.8 346.224 124.8C346.224 114.973 344.831 106.393 342.044 99.06C339.404 91.7267 335.738 86.1533 331.044 82.34C326.498 78.5267 321.511 76.62 316.084 76.62C309.484 76.62 304.498 79.3333 301.124 84.76C297.751 90.1867 296.064 98.18 296.064 108.74C296.064 118.273 297.311 126.853 299.804 134.48C302.444 141.96 306.038 147.827 310.584 152.08C315.278 156.333 320.484 158.46 326.204 158.46ZM383.036 160C382.596 160 382.376 159.56 382.376 158.68C382.376 157.8 382.596 157.36 383.036 157.36C387.876 157.36 391.176 156.333 392.936 154.28C394.696 152.08 395.576 148.047 395.576 142.18V29.76C395.576 24.6267 395.063 20.96 394.036 18.76C393.156 16.4133 391.47 15.24 388.976 15.24C386.776 15.24 383.843 16.12 380.176 17.88H379.956C379.37 17.88 378.93 17.5133 378.636 16.78C378.343 16.0467 378.343 15.5333 378.636 15.24L409.656 0.719992L410.536 0.499995C411.123 0.499995 411.783 0.793329 412.516 1.38C413.396 1.96666 413.836 2.48 413.836 2.91999V142.18C413.836 148.193 414.643 152.227 416.256 154.28C417.87 156.333 421.17 157.36 426.156 157.36C426.596 157.36 426.816 157.8 426.816 158.68C426.816 159.56 426.596 160 426.156 160C422.636 160 419.776 159.927 417.576 159.78L404.596 159.56L391.836 159.78C389.636 159.927 386.703 160 383.036 160ZM441.259 160C440.819 160 440.599 159.56 440.599 158.68C440.599 157.8 440.819 157.36 441.259 157.36C446.099 157.36 449.399 156.333 451.159 154.28C452.919 152.08 453.799 148.047 453.799 142.18V29.76C453.799 24.6267 453.286 20.96 452.259 18.76C451.379 16.4133 449.692 15.24 447.199 15.24C444.999 15.24 442.066 16.12 438.399 17.88H438.179C437.592 17.88 437.152 17.5133 436.859 16.78C436.566 16.0467 436.566 15.5333 436.859 15.24L467.879 0.719992L468.759 0.499995C469.346 0.499995 470.006 0.793329 470.739 1.38C471.619 1.96666 472.059 2.48 472.059 2.91999V142.18C472.059 148.193 472.866 152.227 474.479 154.28C476.092 156.333 479.392 157.36 484.379 157.36C484.819 157.36 485.039 157.8 485.039 158.68C485.039 159.56 484.819 160 484.379 160C480.859 160 477.999 159.927 475.799 159.78L462.819 159.56L450.059 159.78C447.859 159.927 444.926 160 441.259 160ZM699.324 157.36C700.058 157.36 700.424 157.8 700.424 158.68C700.424 159.56 700.058 160 699.324 160C696.538 160 692.064 159.853 685.904 159.56C679.744 159.267 675.271 159.12 672.484 159.12C668.818 159.12 664.491 159.267 659.504 159.56C654.518 159.853 650.631 160 647.844 160C647.258 160 646.964 159.56 646.964 158.68C646.964 157.8 647.258 157.36 647.844 157.36C652.098 157.36 655.178 156.92 657.084 156.04C659.138 155.013 660.164 153.4 660.164 151.2C660.164 149 658.918 145.26 656.424 139.98L639.704 106.1H586.464L575.904 129.86C573.998 134.26 573.044 138.22 573.044 141.74C573.044 146.873 574.878 150.76 578.544 153.4C582.211 156.04 587.344 157.36 593.944 157.36C594.678 157.36 595.044 157.8 595.044 158.68C595.044 159.56 594.678 160 593.944 160C591.304 160 587.491 159.853 582.504 159.56C576.931 159.267 572.091 159.12 567.984 159.12C564.024 159.12 559.404 159.267 554.124 159.56C549.431 159.853 545.544 160 542.464 160C541.731 160 541.364 159.56 541.364 158.68C541.364 157.8 541.731 157.36 542.464 157.36C546.571 157.36 550.018 156.553 552.804 154.94C555.591 153.327 558.304 150.467 560.944 146.36C563.584 142.107 566.738 135.873 570.404 127.66L617.704 21.18C617.998 20.74 618.658 20.52 619.684 20.52C620.711 20.52 621.298 20.74 621.444 21.18L675.344 129.86C680.478 140.42 684.731 147.68 688.104 151.64C691.624 155.453 695.364 157.36 699.324 157.36ZM588.884 100.6H637.064L611.764 49.34L588.884 100.6ZM810.191 157.36C810.631 157.36 810.851 157.8 810.851 158.68C810.851 159.56 810.631 160 810.191 160C806.524 160 803.664 159.927 801.611 159.78L788.851 159.56L776.311 159.78C774.111 159.927 771.177 160 767.511 160C767.071 160 766.851 159.56 766.851 158.68C766.851 157.8 767.071 157.36 767.511 157.36C772.497 157.36 775.797 156.333 777.411 154.28C779.024 152.227 779.831 148.193 779.831 142.18V109.18C779.831 100.967 778.291 94.9533 775.211 91.14C772.277 87.18 767.584 85.2 761.131 85.2C757.317 85.2 753.431 86.08 749.471 87.84C745.511 89.6 741.917 91.9467 738.691 94.88V142.18C738.691 148.193 739.497 152.227 741.111 154.28C742.724 156.333 746.024 157.36 751.011 157.36C751.451 157.36 751.671 157.8 751.671 158.68C751.671 159.56 751.451 160 751.011 160C747.344 160 744.484 159.927 742.431 159.78L729.671 159.56L716.911 159.78C714.857 159.927 711.997 160 708.331 160C707.891 160 707.671 159.56 707.671 158.68C707.671 157.8 707.891 157.36 708.331 157.36C713.317 157.36 716.617 156.333 718.231 154.28C719.844 152.227 720.651 148.193 720.651 142.18V100.16C720.651 95.4667 720.064 92.02 718.891 89.82C717.864 87.62 716.104 86.52 713.611 86.52C711.411 86.52 707.744 87.62 702.611 89.82H702.391C701.804 89.82 701.364 89.4533 701.071 88.72C700.777 87.9867 700.851 87.5467 701.291 87.4L730.111 73.32C730.991 73.0267 731.504 72.88 731.651 72.88C733.117 72.88 734.584 74.5667 736.051 77.94C737.664 81.1667 738.544 85.42 738.691 90.7C748.957 78.5267 760.104 72.44 772.131 72.44C780.197 72.44 786.504 74.9333 791.051 79.92C795.597 84.76 797.871 91.36 797.871 99.72V142.18C797.871 148.193 798.677 152.227 800.291 154.28C801.904 156.333 805.204 157.36 810.191 157.36ZM925.347 146.36C925.787 146.36 926.153 146.727 926.447 147.46C926.887 148.193 926.887 148.633 926.447 148.78L898.287 162.42L896.967 162.64C895.5 162.64 894.107 161.173 892.787 158.24C891.613 155.307 890.953 151.347 890.807 146.36C885.527 151.347 880.1 155.38 874.527 158.46C868.953 161.393 862.867 162.86 856.267 162.86C849.96 162.86 844.167 161.173 838.887 157.8C833.607 154.28 829.427 149.293 826.347 142.84C823.267 136.387 821.727 128.833 821.727 120.18C821.727 109.327 824.293 100.307 829.427 93.12C834.56 85.9333 841.013 80.6533 848.787 77.28C856.56 73.9067 864.333 72.22 872.107 72.22C878.56 72.22 884.72 73.3933 890.587 75.74V29.76C890.587 24.6267 890.073 20.96 889.047 18.76C888.167 16.4133 886.48 15.24 883.987 15.24C882.373 15.24 879.44 16.12 875.187 17.88H874.747C874.16 17.88 873.72 17.5133 873.427 16.78C873.133 16.0467 873.133 15.6067 873.427 15.46L904.447 0.719992L905.327 0.499995C905.913 0.499995 906.573 0.793329 907.307 1.38C908.04 1.96666 908.407 2.48 908.407 2.91999V134.92C908.407 140.053 908.92 143.72 909.947 145.92C910.973 147.973 912.733 149 915.227 149C918.16 149 921.46 148.12 925.127 146.36H925.347ZM867.267 153.18C871.52 153.18 875.48 152.227 879.147 150.32C882.96 148.413 886.773 145.7 890.587 142.18V141.96V89.6C887.653 85.4933 884.353 82.4867 880.687 80.58C877.167 78.5267 872.913 77.5 867.927 77.5C859.567 77.5 853.04 80.4333 848.347 86.3C843.8 92.1667 841.527 101.187 841.527 113.36C841.527 125.68 843.947 135.433 848.787 142.62C853.627 149.66 859.787 153.18 867.267 153.18ZM1085.97 125.68C1085.97 125.387 1086.27 125.24 1086.85 125.24C1087.29 125.24 1087.66 125.387 1087.95 125.68C1088.39 125.827 1088.61 125.973 1088.61 126.12C1087.15 137.267 1086.41 147.46 1086.41 156.7C1086.41 157.873 1086.19 158.753 1085.75 159.34C1085.31 159.78 1084.43 160 1083.11 160H987.633C987.193 160 986.973 159.56 986.973 158.68C986.973 157.8 987.193 157.36 987.633 157.36C992.619 157.36 996.213 156.993 998.413 156.26C1000.76 155.527 1002.3 154.133 1003.03 152.08C1003.91 149.88 1004.35 146.58 1004.35 142.18V40.32C1004.35 35.92 1003.91 32.6933 1003.03 30.64C1002.3 28.5867 1000.76 27.1933 998.413 26.46C996.066 25.58 992.473 25.14 987.633 25.14C987.193 25.14 986.973 24.7 986.973 23.82C986.973 22.94 987.193 22.5 987.633 22.5H1079.15C1080.62 22.5 1081.35 23.16 1081.35 24.48L1081.79 53.08C1081.79 53.3733 1081.35 53.5933 1080.47 53.74C1079.74 53.8867 1079.3 53.74 1079.15 53.3C1075.63 36.58 1065.44 28.22 1048.57 28.22H1039.77C1034.49 28.22 1030.75 29.1733 1028.55 31.08C1026.35 32.9867 1025.25 36.2133 1025.25 40.76V85.64H1046.37C1062.51 85.64 1070.57 80.2133 1070.57 69.36C1070.57 68.92 1070.94 68.7 1071.67 68.7C1072.55 68.7 1072.99 68.92 1072.99 69.36L1072.77 88.5L1072.99 98.84C1073.29 103.533 1073.43 107.347 1073.43 110.28C1073.43 110.573 1072.99 110.72 1072.11 110.72C1071.23 110.72 1070.79 110.573 1070.79 110.28C1070.79 97.6667 1062.58 91.36 1046.15 91.36H1025.25V141.3C1025.25 146.14 1026.13 149.513 1027.89 151.42C1029.8 153.327 1033.1 154.28 1037.79 154.28H1048.57C1068.23 154.28 1080.69 144.747 1085.97 125.68ZM1193.97 157.36C1194.41 157.36 1194.63 157.8 1194.63 158.68C1194.63 159.56 1194.41 160 1193.97 160L1186.27 159.78C1184.51 159.633 1181.94 159.56 1178.57 159.56L1163.39 159.78C1161.19 159.927 1158.11 160 1154.15 160C1153.71 160 1153.49 159.56 1153.49 158.68C1153.49 157.8 1153.71 157.36 1154.15 157.36C1157.96 157.36 1159.87 156.333 1159.87 154.28C1159.87 153.107 1159.06 151.273 1157.45 148.78L1142.27 125.9L1132.81 139.76C1129.58 144.307 1127.97 148.12 1127.97 151.2C1127.97 155.307 1131.49 157.36 1138.53 157.36C1138.97 157.36 1139.19 157.8 1139.19 158.68C1139.19 159.56 1138.97 160 1138.53 160C1134.57 160 1131.63 159.927 1129.73 159.78L1116.53 159.56L1107.73 159.78C1106.26 159.927 1103.77 160 1100.25 160C1099.81 160 1099.59 159.56 1099.59 158.68C1099.59 157.8 1099.81 157.36 1100.25 157.36C1104.5 157.36 1109.05 155.673 1113.89 152.3C1118.87 148.927 1123.57 144.233 1127.97 138.22L1139.63 122.16L1120.49 93.34C1117.26 88.3533 1114.03 84.54 1110.81 81.9C1107.58 79.1133 1104.65 77.72 1102.01 77.72C1101.71 77.72 1101.57 77.28 1101.57 76.4C1101.57 75.52 1101.71 75.08 1102.01 75.08C1105.09 75.08 1107.36 75.1533 1108.83 75.3L1115.65 75.52L1130.39 75.3C1132.73 75.1533 1135.96 75.08 1140.07 75.08C1140.36 75.08 1140.51 75.52 1140.51 76.4C1140.51 77.28 1140.36 77.72 1140.07 77.72C1136.25 77.72 1134.35 78.7467 1134.35 80.8C1134.35 82.2667 1135.15 84.1 1136.77 86.3L1150.41 106.98L1158.11 95.32C1161.48 90.3333 1163.17 86.52 1163.17 83.88C1163.17 79.7733 1159.57 77.72 1152.39 77.72C1152.09 77.72 1151.95 77.28 1151.95 76.4C1151.95 75.52 1152.09 75.08 1152.39 75.08C1156.35 75.08 1159.35 75.1533 1161.41 75.3L1174.61 75.52L1183.41 75.3C1184.87 75.1533 1187.37 75.08 1190.89 75.08C1191.33 75.08 1191.55 75.52 1191.55 76.4C1191.55 77.28 1191.33 77.72 1190.89 77.72C1186.63 77.72 1182.01 79.4067 1177.03 82.78C1172.19 86.1533 1167.57 90.8467 1163.17 96.86L1152.83 110.72L1173.51 141.74C1177.03 147.02 1180.62 150.98 1184.29 153.62C1187.95 156.113 1191.18 157.36 1193.97 157.36ZM1252.8 162.86C1245.76 162.86 1238.94 161.76 1232.34 159.56V202.68C1232.34 207.08 1232.85 210.307 1233.88 212.36C1234.91 214.413 1236.81 215.807 1239.6 216.54C1242.39 217.42 1246.79 217.86 1252.8 217.86C1253.09 217.86 1253.24 218.3 1253.24 219.18C1253.24 220.06 1253.09 220.5 1252.8 220.5C1247.52 220.5 1243.41 220.427 1240.48 220.28L1223.32 220.06L1210.78 220.28C1208.58 220.427 1205.57 220.5 1201.76 220.5C1201.32 220.5 1201.1 220.06 1201.1 219.18C1201.1 218.3 1201.32 217.86 1201.76 217.86C1205.43 217.86 1208.14 217.42 1209.9 216.54C1211.66 215.807 1212.83 214.413 1213.42 212.36C1214.15 210.307 1214.52 207.08 1214.52 202.68V100.38C1214.52 95.54 1213.93 92.02 1212.76 89.82C1211.73 87.62 1209.9 86.52 1207.26 86.52C1204.77 86.52 1201.25 87.5467 1196.7 89.6H1196.26C1195.67 89.6 1195.23 89.3067 1194.94 88.72C1194.65 87.9867 1194.65 87.4733 1194.94 87.18L1223.98 73.32C1224.27 73.1733 1224.71 73.1 1225.3 73.1C1226.91 73.1 1228.38 74.4933 1229.7 77.28C1231.02 79.92 1231.83 83.5867 1232.12 88.28C1243.41 77.5733 1254.85 72.22 1266.44 72.22C1272.6 72.22 1278.32 73.8333 1283.6 77.06C1288.88 80.2867 1293.06 84.98 1296.14 91.14C1299.37 97.3 1300.98 104.487 1300.98 112.7C1300.98 124.287 1298.49 133.82 1293.5 141.3C1288.66 148.78 1282.57 154.28 1275.24 157.8C1267.91 161.173 1260.43 162.86 1252.8 162.86ZM1253.68 83.22C1246.2 83.22 1239.09 86.3733 1232.34 92.68V93.12V145.7C1235.86 149.513 1239.53 152.447 1243.34 154.5C1247.3 156.553 1252.07 157.58 1257.64 157.58C1264.97 157.58 1270.77 154.427 1275.02 148.12C1279.27 141.667 1281.4 132.133 1281.4 119.52C1281.4 107.933 1278.76 98.9867 1273.48 92.68C1268.2 86.3733 1261.6 83.22 1253.68 83.22ZM1316.32 160C1315.88 160 1315.66 159.56 1315.66 158.68C1315.66 157.8 1315.88 157.36 1316.32 157.36C1321.16 157.36 1324.46 156.333 1326.22 154.28C1327.98 152.08 1328.86 148.047 1328.86 142.18V29.76C1328.86 24.6267 1328.34 20.96 1327.32 18.76C1326.44 16.4133 1324.75 15.24 1322.26 15.24C1320.06 15.24 1317.12 16.12 1313.46 17.88H1313.24C1312.65 17.88 1312.21 17.5133 1311.92 16.78C1311.62 16.0467 1311.62 15.5333 1311.92 15.24L1342.94 0.719992L1343.82 0.499995C1344.4 0.499995 1345.06 0.793329 1345.8 1.38C1346.68 1.96666 1347.12 2.48 1347.12 2.91999V142.18C1347.12 148.193 1347.92 152.227 1349.54 154.28C1351.15 156.333 1354.45 157.36 1359.44 157.36C1359.88 157.36 1360.1 157.8 1360.1 158.68C1360.1 159.56 1359.88 160 1359.44 160C1355.92 160 1353.06 159.927 1350.86 159.78L1337.88 159.56L1325.12 159.78C1322.92 159.927 1319.98 160 1316.32 160ZM1418.1 162.86C1409.3 162.86 1401.53 160.807 1394.78 156.7C1388.03 152.447 1382.83 146.8 1379.16 139.76C1375.49 132.573 1373.66 124.8 1373.66 116.44C1373.66 106.907 1376.01 98.84 1380.7 92.24C1385.54 85.4933 1391.63 80.5067 1398.96 77.28C1406.44 73.9067 1414.07 72.22 1421.84 72.22C1430.79 72.22 1438.56 74.3467 1445.16 78.6C1451.91 82.8533 1457.04 88.5 1460.56 95.54C1464.08 102.433 1465.84 109.84 1465.84 117.76C1465.84 126.56 1463.64 134.407 1459.24 141.3C1454.99 148.193 1449.19 153.547 1441.86 157.36C1434.53 161.027 1426.61 162.86 1418.1 162.86ZM1424.7 158.46C1431.15 158.46 1436.07 155.6 1439.44 149.88C1442.96 144.16 1444.72 135.8 1444.72 124.8C1444.72 114.973 1443.33 106.393 1440.54 99.06C1437.9 91.7267 1434.23 86.1533 1429.54 82.34C1424.99 78.5267 1420.01 76.62 1414.58 76.62C1407.98 76.62 1402.99 79.3333 1399.62 84.76C1396.25 90.1867 1394.56 98.18 1394.56 108.74C1394.56 118.273 1395.81 126.853 1398.3 134.48C1400.94 141.96 1404.53 147.827 1409.08 152.08C1413.77 156.333 1418.98 158.46 1424.7 158.46ZM1537.41 72.88C1540.79 72.88 1544.01 73.98 1547.09 76.18C1550.17 78.38 1551.71 81.02 1551.71 84.1C1551.71 86.8867 1550.83 89.16 1549.07 90.92C1547.46 92.68 1545.19 93.56 1542.25 93.56C1540.35 93.56 1538.73 93.1933 1537.41 92.46C1536.24 91.58 1534.99 90.4067 1533.67 88.94C1532.35 87.62 1531.18 86.6667 1530.15 86.08C1529.13 85.3467 1527.88 84.98 1526.41 84.98C1524.8 84.98 1523.04 85.64 1521.13 86.96C1519.37 88.1333 1516.59 90.7 1512.77 94.66V142.18C1512.77 146.287 1513.36 149.44 1514.53 151.64C1515.71 153.693 1517.69 155.16 1520.47 156.04C1523.26 156.92 1527.37 157.36 1532.79 157.36C1533.38 157.36 1533.67 157.8 1533.67 158.68C1533.67 159.56 1533.38 160 1532.79 160C1527.95 160 1524.07 159.927 1521.13 159.78L1503.75 159.56L1490.99 159.78C1488.94 159.927 1486.08 160 1482.41 160C1481.97 160 1481.75 159.56 1481.75 158.68C1481.75 157.8 1481.97 157.36 1482.41 157.36C1487.4 157.36 1490.7 156.333 1492.31 154.28C1493.93 152.227 1494.73 148.193 1494.73 142.18V100.16C1494.73 95.4667 1494.15 92.02 1492.97 89.82C1491.95 87.62 1490.19 86.52 1487.69 86.52C1485.49 86.52 1481.83 87.62 1476.69 89.82H1476.47C1475.89 89.82 1475.45 89.4533 1475.15 88.72C1474.86 87.9867 1474.93 87.5467 1475.37 87.4L1504.19 73.32C1505.07 73.0267 1505.59 72.88 1505.73 72.88C1507.2 72.88 1508.67 74.4933 1510.13 77.72C1511.6 80.8 1512.48 84.9067 1512.77 90.04C1518.49 83.5867 1523.26 79.1133 1527.07 76.62C1530.89 74.1267 1534.33 72.88 1537.41 72.88ZM1636.48 146.14C1636.77 146.14 1637.07 146.433 1637.36 147.02C1637.8 147.607 1637.87 148.047 1637.58 148.34C1632.15 153.327 1626.73 156.993 1621.3 159.34C1615.87 161.54 1610.01 162.64 1603.7 162.64C1594.75 162.64 1586.98 160.66 1580.38 156.7C1573.93 152.74 1568.94 147.533 1565.42 141.08C1562.05 134.627 1560.36 127.66 1560.36 120.18C1560.36 111.527 1562.49 103.607 1566.74 96.42C1570.99 89.2333 1576.79 83.5867 1584.12 79.48C1591.6 75.2267 1599.89 73.1 1608.98 73.1C1617.78 73.1 1624.6 75.2267 1629.44 79.48C1634.28 83.7333 1636.7 90.04 1636.7 98.4C1636.7 102.653 1635.82 104.78 1634.06 104.78L1580.38 105C1580.23 106.32 1580.16 108.3 1580.16 110.94C1580.16 123.847 1583.09 134.113 1588.96 141.74C1594.97 149.22 1603.48 152.96 1614.48 152.96C1618.59 152.96 1622.03 152.52 1624.82 151.64C1627.61 150.613 1631.35 148.853 1636.04 146.36L1636.48 146.14ZM1601.06 77.5C1595.63 77.5 1591.16 79.6267 1587.64 83.88C1584.27 87.9867 1581.99 93.7067 1580.82 101.04L1616.02 100.38C1615.73 85.1267 1610.74 77.5 1601.06 77.5ZM1710.71 24.26C1710.42 23.5267 1711.74 22.94 1714.67 22.5C1717.75 21.9133 1720.98 21.62 1724.35 21.62C1727.58 21.62 1730.73 21.9133 1733.81 22.5C1736.89 22.94 1738.28 23.5267 1737.99 24.26C1735.06 36.14 1732.78 49.12 1731.17 63.2C1729.7 77.1333 1728.31 94.0733 1726.99 114.02L1726.77 118.42C1726.77 119.007 1725.82 119.3 1723.91 119.3C1721.86 119.3 1720.83 119.007 1720.83 118.42C1719.8 97.8867 1718.56 80.2133 1717.09 65.4C1715.77 50.44 1713.64 36.7267 1710.71 24.26ZM1723.03 162.42C1719.36 162.42 1716.43 161.32 1714.23 159.12C1712.03 156.92 1710.93 153.987 1710.93 150.32C1710.93 146.8 1712.03 144.013 1714.23 141.96C1716.43 139.907 1719.36 138.88 1723.03 138.88C1726.84 138.88 1729.78 139.907 1731.83 141.96C1733.88 144.013 1734.91 146.8 1734.91 150.32C1734.91 154.133 1733.88 157.14 1731.83 159.34C1729.78 161.393 1726.84 162.42 1723.03 162.42Z" fill="#4971FF"/>
</svg>
