<svg xmlns="http://www.w3.org/2000/svg" width="343" height="343" fill="none" xmlns:v="https://vecta.io/nano"><path d="M62.447 21.1c0 2.467.6 4.667 1.8 6.6a21.39 21.39 0 0 0 4.6 4.9c1.867 1.4 4.367 3.067 7.5 5l8 5.5c2 1.533 3.667 3.433 5 5.7 1.4 2.2 2.1 4.8 2.1 7.8 0 3.4-.9 6.433-2.7 9.1-1.733 2.667-4.233 4.767-7.5 6.3-3.2 1.467-6.867 2.2-11 2.2-2.8 0-5.7-.367-8.7-1.1-2.933-.733-5.167-1.633-6.7-2.7-.6-.4-.933-1.033-1-1.9l-.6-15.2v-.1c0-.267.167-.4.5-.4.333-.067.533.033.6.3 2.2 5.533 4.7 10.067 7.5 13.6 2.867 3.533 6.5 5.3 10.9 5.3 2.867 0 5.267-.767 7.2-2.3 1.933-1.6 2.9-4.233 2.9-7.9 0-2.933-.667-5.5-2-7.7-1.267-2.2-2.867-4.033-4.8-5.5-1.867-1.467-4.433-3.267-7.7-5.4-3.2-2.067-5.7-3.8-7.5-5.2-1.8-1.467-3.333-3.233-4.6-5.3-1.267-2.133-1.9-4.6-1.9-7.4 0-3.467.967-6.4 2.9-8.8s4.433-4.167 7.5-5.3a27.17 27.17 0 0 1 9.8-1.8 33.64 33.64 0 0 1 6.8.7c2.267.4 4.167.933 5.7 1.6 1 .4 1.5 1.033 1.5 1.9l.3 13.6c0 .2-.2.333-.6.4-.333.067-.533 0-.6-.2-1.333-4.067-3.133-7.733-5.4-11-2.2-3.333-5.533-5-10-5-3 0-5.4.867-7.2 2.6-1.733 1.733-2.6 4.1-2.6 7.1zm57.583 53.1c-4.333 0-8.033-.933-11.1-2.8-3-1.933-5.233-4.4-6.7-7.4-1.466-3.067-2.2-6.267-2.2-9.6 0-4.2 1.134-7.867 3.4-11 2.267-3.2 5.167-5.633 8.7-7.3 3.6-1.733 7.234-2.6 10.9-2.6 3.134 0 5.967.633 8.5 1.9s3.8 2.967 3.8 5.1c0 1.133-.433 2.133-1.3 3-.866.8-2.066 1.2-3.6 1.2-2.533 0-4.366-1.5-5.5-4.5-.666-1.667-1.366-2.833-2.1-3.5-.733-.733-1.9-1.1-3.5-1.1-3.133 0-5.633 1.433-7.5 4.3-1.8 2.8-2.7 6.567-2.7 11.3 0 5.533 1.267 10.033 3.8 13.5 2.6 3.4 6.634 5.1 12.1 5.1 1.867 0 3.534-.233 5-.7s3.067-1.2 4.8-2.2h.1c.2 0 .367.1.5.3.2.2.234.367.1.5-2.466 2.2-4.9 3.833-7.3 4.9s-5.133 1.6-8.2 1.6zm47.793-40.8c1.533 0 3 .5 4.4 1.5s2.1 2.2 2.1 3.6c0 1.267-.4 2.3-1.2 3.1-.734.8-1.767 1.2-3.1 1.2-.867 0-1.6-.167-2.2-.5-.534-.4-1.1-.933-1.7-1.6-.6-.6-1.134-1.033-1.6-1.3-.467-.333-1.034-.5-1.7-.5-.734 0-1.534.3-2.4.9-.8.533-2.067 1.7-3.8 3.5v21.6c0 1.867.266 3.3.8 4.3.533.933 1.433 1.6 2.7 2s3.133.6 5.6.6c.266 0 .4.2.4.6s-.134.6-.4.6c-2.2 0-3.967-.033-5.3-.1l-7.9-.1-5.8.1c-.934.067-2.234.1-3.9.1-.2 0-.3-.2-.3-.6s.1-.6.3-.6c2.266 0 3.766-.467 4.5-1.4s1.1-2.767 1.1-5.5V45.8c0-2.133-.267-3.7-.8-4.7-.467-1-1.267-1.5-2.4-1.5-1 0-2.667.5-5 1.5h-.1c-.267 0-.467-.167-.6-.5s-.1-.533.1-.6l13.1-6.4c.4-.133.633-.2.7-.2.666 0 1.333.733 2 2.2.666 1.4 1.066 3.267 1.2 5.6 2.6-2.933 4.766-4.967 6.5-6.1s3.3-1.7 4.7-1.7zm30.63 40.9c-4 0-7.533-.933-10.6-2.8a19.72 19.72 0 0 1-7.1-7.7c-1.667-3.267-2.5-6.8-2.5-10.6 0-4.333 1.067-8 3.2-11 2.2-3.067 4.967-5.333 8.3-6.8 3.4-1.533 6.867-2.3 10.4-2.3 4.067 0 7.6.967 10.6 2.9a18.99 18.99 0 0 1 7 7.7c1.6 3.133 2.4 6.5 2.4 10.1 0 4-1 7.567-3 10.7-1.933 3.133-4.567 5.567-7.9 7.3-3.333 1.667-6.933 2.5-10.8 2.5zm3-2c2.933 0 5.167-1.3 6.7-3.9 1.6-2.6 2.4-6.4 2.4-11.4 0-4.467-.633-8.367-1.9-11.7-1.2-3.333-2.867-5.867-5-7.6-2.067-1.733-4.333-2.6-6.8-2.6-3 0-5.267 1.233-6.8 3.7s-2.3 6.1-2.3 10.9c0 4.333.567 8.233 1.7 11.7 1.2 3.4 2.833 6.067 4.9 8 2.133 1.933 4.5 2.9 7.1 2.9zm25.833.7c-.2 0-.3-.2-.3-.6s.1-.6.3-.6c2.2 0 3.7-.467 4.5-1.4.8-1 1.2-2.833 1.2-5.5V13.8c0-2.333-.233-4-.7-5-.4-1.067-1.167-1.6-2.3-1.6-1 0-2.333.4-4 1.2h-.1c-.267 0-.467-.167-.6-.5s-.133-.567 0-.7l14.1-6.6.4-.1c.267 0 .567.133.9.4.4.267.6.5.6.7v63.3c0 2.733.367 4.567 1.1 5.5s2.233 1.4 4.5 1.4c.2 0 .3.2.3.6s-.1.6-.3.6c-1.6 0-2.9-.033-3.9-.1l-5.9-.1-5.8.1c-1 .067-2.333.1-4 .1zm26.465 0c-.2 0-.3-.2-.3-.6s.1-.6.3-.6c2.2 0 3.7-.467 4.5-1.4.8-1 1.2-2.833 1.2-5.5V13.8c0-2.333-.234-4-.7-5-.4-1.067-1.167-1.6-2.3-1.6-1 0-2.334.4-4 1.2h-.1c-.267 0-.467-.167-.6-.5s-.134-.567 0-.7l14.1-6.6.4-.1c.266 0 .566.133.9.4.4.267.6.5.6.7v63.3c0 2.733.366 4.567 1.1 5.5s2.233 1.4 4.5 1.4c.2 0 .3.2.3.6s-.1.6-.3.6c-1.6 0-2.9-.033-3.9-.1l-5.9-.1-5.8.1c-1 .067-2.334.1-4 .1zm-96.907 119.8c.333 0 .5.2.5.6s-.167.6-.5.6c-1.267 0-3.3-.067-6.1-.2s-4.833-.2-6.1-.2c-1.667 0-3.633.067-5.9.2s-4.033.2-5.3.2c-.267 0-.4-.2-.4-.6s.133-.6.4-.6c1.933 0 3.333-.2 4.2-.6.933-.467 1.4-1.2 1.4-2.2s-.567-2.7-1.7-5.1l-7.6-15.4h-24.2l-4.8 10.8c-.867 2-1.3 3.8-1.3 5.4 0 2.333.833 4.1 2.5 5.3s4 1.8 7 1.8c.333 0 .5.2.5.6s-.167.6-.5.6c-1.2 0-2.933-.067-5.2-.2-2.533-.133-4.733-.2-6.6-.2-1.8 0-3.9.067-6.3.2-2.133.133-3.9.2-5.3.2-.333 0-.5-.2-.5-.6s.167-.6.5-.6c1.867 0 3.433-.367 4.7-1.1s2.5-2.033 3.7-3.9c1.2-1.933 2.633-4.767 4.3-8.5l21.5-48.4c.133-.2.433-.3.9-.3s.733.1.8.3l24.5 49.4c2.333 4.8 4.267 8.1 5.8 9.9 1.6 1.733 3.3 2.6 5.1 2.6zm-50.2-25.8h21.9l-11.5-23.3-10.4 23.3zm100.594 25.8c.2 0 .3.2.3.6s-.1.6-.3.6c-1.667 0-2.967-.033-3.9-.1l-5.8-.1-5.7.1c-1 .067-2.333.1-4 .1-.2 0-.3-.2-.3-.6s.1-.6.3-.6c2.267 0 3.767-.467 4.5-1.4s1.1-2.767 1.1-5.5v-15c0-3.733-.7-6.467-2.1-8.2-1.333-1.8-3.467-2.7-6.4-2.7-1.733 0-3.5.4-5.3 1.2s-3.433 1.867-4.9 3.2v21.5c0 2.733.367 4.567 1.1 5.5s2.233 1.4 4.5 1.4c.2 0 .3.2.3.6s-.1.6-.3.6c-1.667 0-2.967-.033-3.9-.1l-5.8-.1-5.8.1c-.933.067-2.233.1-3.9.1-.2 0-.3-.2-.3-.6s.1-.6.3-.6c2.267 0 3.767-.467 4.5-1.4s1.1-2.767 1.1-5.5v-19.1c0-2.133-.267-3.7-.8-4.7-.467-1-1.267-1.5-2.4-1.5-1 0-2.667.5-5 1.5h-.1c-.267 0-.467-.167-.6-.5s-.1-.533.1-.6l13.1-6.4c.4-.133.633-.2.7-.2.667 0 1.333.767 2 2.3.733 1.467 1.133 3.4 1.2 5.8 4.667-5.533 9.733-8.3 15.2-8.3 3.667 0 6.533 1.133 8.6 3.4 2.067 2.2 3.1 5.2 3.1 9v19.3c0 2.733.367 4.567 1.1 5.5s2.233 1.4 4.5 1.4zm52.344-5c.2 0 .366.167.5.5.2.333.2.533 0 .6l-12.8 6.2-.6.1c-.667 0-1.3-.667-1.9-2-.534-1.333-.834-3.133-.9-5.4-2.4 2.267-4.867 4.1-7.4 5.5-2.534 1.333-5.3 2-8.3 2a14.38 14.38 0 0 1-7.9-2.3c-2.4-1.6-4.3-3.867-5.7-6.8s-2.1-6.367-2.1-10.3c0-4.933 1.166-9.033 3.5-12.3s5.266-5.667 8.8-7.2 7.066-2.3 10.6-2.3c2.933 0 5.733.533 8.4 1.6v-20.9c0-2.333-.234-4-.7-5-.4-1.067-1.167-1.6-2.3-1.6-.734 0-2.067.4-4 1.2h-.2c-.267 0-.467-.167-.6-.5s-.134-.533 0-.6l14.1-6.7.4-.1c.266 0 .566.133.9.4s.5.5.5.7v60c0 2.333.233 4 .7 5 .466.933 1.266 1.4 2.4 1.4 1.333 0 2.833-.4 4.5-1.2h.1zm-26.4 3.1c1.933 0 3.733-.433 5.4-1.3 1.733-.867 3.466-2.1 5.2-3.7v-.1V162c-1.334-1.867-2.834-3.233-4.5-4.1-1.6-.933-3.534-1.4-5.8-1.4-3.8 0-6.767 1.333-8.9 4-2.067 2.667-3.1 6.767-3.1 12.3 0 5.6 1.1 10.033 3.3 13.3 2.2 3.2 5 4.8 8.4 4.8zM45.923 299.4c0-.133.133-.2.4-.2a.68.68 0 0 1 .5.2c.2.067.3.133.3.2-.667 5.067-1 9.7-1 13.9 0 .533-.1.933-.3 1.2-.2.2-.6.3-1.2.3h-43.4c-.2 0-.3-.2-.3-.6s.1-.6.3-.6c2.267 0 3.9-.167 4.9-.5 1.067-.333 1.767-.967 2.1-1.9.4-1 .6-2.5.6-4.5v-46.3c0-2-.2-3.467-.6-4.4-.333-.933-1.033-1.567-2.1-1.9-1.067-.4-2.7-.6-4.9-.6-.2 0-.3-.2-.3-.6s.1-.6.3-.6h41.6c.667 0 1 .3 1 .9l.2 13c0 .133-.2.233-.6.3-.333.067-.533 0-.6-.2-1.6-7.6-6.233-11.4-13.9-11.4h-4c-2.4 0-4.1.433-5.1 1.3s-1.5 2.333-1.5 4.4v20.4h9.6c7.333 0 11-2.467 11-7.4 0-.2.167-.3.5-.3.4 0 .6.1.6.3l-.1 8.7.1 4.7c.133 2.133.2 3.867.2 5.2 0 .133-.2.2-.6.2s-.6-.067-.6-.2c0-5.733-3.733-8.6-11.2-8.6h-9.5v22.7c0 2.2.4 3.733 1.2 4.6.867.867 2.367 1.3 4.5 1.3h4.9c8.933 0 14.6-4.333 17-13zm49.088 14.4c.2 0 .3.2.3.6s-.1.6-.3.6l-3.5-.1c-.8-.067-1.967-.1-3.5-.1l-6.9.1c-1 .067-2.4.1-4.2.1-.2 0-.3-.2-.3-.6s.1-.6.3-.6c1.733 0 2.6-.467 2.6-1.4 0-.533-.367-1.367-1.1-2.5l-6.9-10.4-4.3 6.3c-1.467 2.067-2.2 3.8-2.2 5.2 0 1.867 1.6 2.8 4.8 2.8.2 0 .3.2.3.6s-.1.6-.3.6c-1.8 0-3.133-.033-4-.1l-6-.1-4 .1c-.667.067-1.8.1-3.4.1-.2 0-.3-.2-.3-.6s.1-.6.3-.6c1.933 0 4-.767 6.2-2.3 2.267-1.533 4.4-3.667 6.4-6.4l5.3-7.3-8.7-13.1c-1.467-2.267-2.933-4-4.4-5.2-1.467-1.267-2.8-1.9-4-1.9-.133 0-.2-.2-.2-.6s.067-.6.2-.6c1.4 0 2.433.033 3.1.1l3.1.1 6.7-.1c1.067-.067 2.533-.1 4.4-.1.133 0 .2.2.2.6s-.067.6-.2.6c-1.733 0-2.6.467-2.6 1.4 0 .667.367 1.5 1.1 2.5l6.2 9.4 3.5-5.3c1.533-2.267 2.3-4 2.3-5.2 0-1.867-1.633-2.8-4.9-2.8-.133 0-.2-.2-.2-.6s.067-.6.2-.6c1.8 0 3.167.033 4.1.1l6 .1 4-.1c.667-.067 1.8-.1 3.4-.1.2 0 .3.2.3.6s-.1.6-.3.6c-1.933 0-4.033.767-6.3 2.3-2.2 1.533-4.3 3.667-6.3 6.4l-4.7 6.3 9.4 14.1c1.6 2.4 3.233 4.2 4.9 5.4 1.667 1.133 3.133 1.7 4.4 1.7zm26.743 2.5c-3.2 0-6.3-.5-9.3-1.5v19.6c0 2 .233 3.467.7 4.4s1.333 1.567 2.6 1.9c1.267.4 3.267.6 6 .6.133 0 .2.2.2.6s-.067.6-.2.6c-2.4 0-4.267-.033-5.6-.1l-7.8-.1-5.7.1c-1 .067-2.367.1-4.1.1-.2 0-.3-.2-.3-.6s.1-.6.3-.6c1.667 0 2.9-.2 3.7-.6.8-.333 1.333-.967 1.6-1.9.333-.933.5-2.4.5-4.4v-46.5c0-2.2-.267-3.8-.8-4.8-.467-1-1.3-1.5-2.5-1.5-1.133 0-2.733.467-4.8 1.4h-.2c-.267 0-.467-.133-.6-.4-.133-.333-.133-.567 0-.7l13.2-6.3c.133-.067.333-.1.6-.1.733 0 1.4.633 2 1.9.6 1.2.967 2.867 1.1 5 5.133-4.867 10.333-7.3 15.6-7.3a14.68 14.68 0 0 1 7.8 2.2c2.4 1.467 4.3 3.6 5.7 6.4 1.467 2.8 2.2 6.067 2.2 9.8 0 5.267-1.133 9.6-3.4 13-2.2 3.4-4.967 5.9-8.3 7.5-3.333 1.533-6.733 2.3-10.2 2.3zm.4-36.2c-3.4 0-6.633 1.433-9.7 4.3v.2 23.9c1.6 1.733 3.267 3.067 5 4 1.8.933 3.967 1.4 6.5 1.4 3.333 0 5.967-1.433 7.9-4.3 1.933-2.933 2.9-7.267 2.9-13 0-5.267-1.2-9.333-3.6-12.2s-5.4-4.3-9-4.3zm28.472 34.9c-.2 0-.3-.2-.3-.6s.1-.6.3-.6c2.2 0 3.7-.467 4.5-1.4.8-1 1.2-2.833 1.2-5.5v-51.1c0-2.333-.234-4-.7-5-.4-1.067-1.167-1.6-2.3-1.6-1 0-2.334.4-4 1.2h-.1c-.267 0-.467-.167-.6-.5s-.134-.567 0-.7l14.1-6.6.4-.1c.266 0 .566.133.9.4.4.267.6.5.6.7v63.3c0 2.733.366 4.567 1.1 5.5s2.233 1.4 4.5 1.4c.2 0 .3.2.3.6s-.1.6-.3.6c-1.6 0-2.9-.033-3.9-.1l-5.9-.1-5.8.1c-1 .067-2.334.1-4 .1zm46.265 1.3c-4 0-7.534-.933-10.6-2.8a19.71 19.71 0 0 1-7.1-7.7c-1.667-3.267-2.5-6.8-2.5-10.6 0-4.333 1.066-8 3.2-11 2.2-3.067 4.966-5.333 8.3-6.8 3.4-1.533 6.866-2.3 10.4-2.3 4.066 0 7.6.967 10.6 2.9 3.066 1.933 5.4 4.5 7 7.7 1.6 3.133 2.4 6.5 2.4 10.1 0 4-1 7.567-3 10.7-1.934 3.133-4.567 5.567-7.9 7.3-3.334 1.667-6.934 2.5-10.8 2.5zm3-2c2.933 0 5.166-1.3 6.7-3.9 1.6-2.6 2.4-6.4 2.4-11.4 0-4.467-.634-8.367-1.9-11.7-1.2-3.333-2.867-5.867-5-7.6-2.067-1.733-4.334-2.6-6.8-2.6-3 0-5.267 1.233-6.8 3.7s-2.3 6.1-2.3 10.9c0 4.333.566 8.233 1.7 11.7 1.2 3.4 2.833 6.067 4.9 8 2.133 1.933 4.5 2.9 7.1 2.9zm51.232-38.9c1.534 0 3 .5 4.4 1.5s2.1 2.2 2.1 3.6c0 1.267-.4 2.3-1.2 3.1-.733.8-1.766 1.2-3.1 1.2-.866 0-1.6-.167-2.2-.5-.533-.4-1.1-.933-1.7-1.6-.6-.6-1.133-1.033-1.6-1.3-.466-.333-1.033-.5-1.7-.5-.733 0-1.533.3-2.4.9-.8.533-2.066 1.7-3.8 3.5v21.6c0 1.867.267 3.3.8 4.3.534.933 1.434 1.6 2.7 2s3.134.6 5.6.6c.267 0 .4.2.4.6s-.133.6-.4.6c-2.2 0-3.966-.033-5.3-.1l-7.9-.1-5.8.1c-.933.067-2.233.1-3.9.1-.2 0-.3-.2-.3-.6s.1-.6.3-.6c2.267 0 3.767-.467 4.5-1.4s1.1-2.767 1.1-5.5v-19.1c0-2.133-.266-3.7-.8-4.7-.466-1-1.266-1.5-2.4-1.5-1 0-2.666.5-5 1.5h-.1c-.266 0-.466-.167-.6-.5s-.1-.533.1-.6l13.1-6.4c.4-.133.634-.2.7-.2.667 0 1.334.733 2 2.2.667 1.4 1.067 3.267 1.2 5.6 2.6-2.933 4.767-4.967 6.5-6.1s3.3-1.7 4.7-1.7zm45.031 33.3c.133 0 .267.133.4.4.2.267.233.467.1.6-2.467 2.267-4.933 3.933-7.4 5-2.467 1-5.133 1.5-8 1.5-4.067 0-7.6-.9-10.6-2.7-2.933-1.8-5.2-4.167-6.8-7.1-1.533-2.933-2.3-6.1-2.3-9.5 0-3.933.967-7.533 2.9-10.8a20.86 20.86 0 0 1 7.9-7.7c3.4-1.933 7.167-2.9 11.3-2.9 4 0 7.1.967 9.3 2.9s3.3 4.8 3.3 8.6c0 1.933-.4 2.9-1.2 2.9l-24.4.1c-.067.6-.1 1.5-.1 2.7 0 5.867 1.333 10.533 4 14 2.733 3.4 6.6 5.1 11.6 5.1 1.867 0 3.433-.2 4.7-.6 1.267-.467 2.967-1.267 5.1-2.4l.2-.1zm-16.1-31.2c-2.467 0-4.5.967-6.1 2.9-1.533 1.867-2.567 4.467-3.1 7.8l16-.3c-.133-6.933-2.4-10.4-6.8-10.4zm49.841-24.2c-.133-.333.467-.6 1.8-.8 1.4-.267 2.867-.4 4.4-.4a22.9 22.9 0 0 1 4.3.4c1.4.2 2.034.467 1.9.8-1.333 5.4-2.366 11.3-3.1 17.7-.666 6.333-1.3 14.033-1.9 23.1l-.1 2c0 .267-.433.4-1.3.4-.933 0-1.4-.133-1.4-.4-.466-9.333-1.033-17.367-1.7-24.1-.6-6.8-1.566-13.033-2.9-18.7zm5.6 62.8c-1.666 0-3-.5-4-1.5s-1.5-2.333-1.5-4c0-1.6.5-2.867 1.5-3.8s2.334-1.4 4-1.4c1.734 0 3.067.467 4 1.4s1.4 2.2 1.4 3.8c0 1.733-.466 3.1-1.4 4.1-.933.933-2.266 1.4-4 1.4z" fill="#4971ff"/></svg>