<svg width="343" height="343" viewBox="0 0 343 343" fill="none" xmlns="http://www.w3.org/2000/svg">
<path d="M62.4469 21.1C62.4469 23.5667 63.0469 25.7667 64.2469 27.7C65.5135 29.5667 67.0469 31.2 68.8469 32.6C70.7135 34 73.2135 35.6667 76.3469 37.6C79.7469 39.7333 82.4135 41.5667 84.3469 43.1C86.3469 44.6333 88.0135 46.5333 89.3469 48.8C90.7469 51 91.4469 53.6 91.4469 56.6C91.4469 60 90.5469 63.0333 88.7469 65.7C87.0135 68.3667 84.5135 70.4667 81.2469 72C78.0469 73.4667 74.3802 74.2 70.2469 74.2C67.4469 74.2 64.5469 73.8333 61.5469 73.1C58.6135 72.3667 56.3802 71.4667 54.8469 70.4C54.2469 70 53.9135 69.3667 53.8469 68.5L53.2469 53.3V53.2C53.2469 52.9333 53.4135 52.8 53.7469 52.8C54.0802 52.7333 54.2802 52.8333 54.3469 53.1C56.5469 58.6333 59.0469 63.1667 61.8469 66.7C64.7135 70.2333 68.3469 72 72.7469 72C75.6135 72 78.0135 71.2333 79.9469 69.7C81.8802 68.1 82.8469 65.4667 82.8469 61.8C82.8469 58.8667 82.1802 56.3 80.8469 54.1C79.5802 51.9 77.9802 50.0667 76.0469 48.6C74.1802 47.1333 71.6135 45.3333 68.3469 43.2C65.1469 41.1333 62.6469 39.4 60.8469 38C59.0469 36.5333 57.5135 34.7667 56.2469 32.7C54.9802 30.5667 54.3469 28.1 54.3469 25.3C54.3469 21.8333 55.3135 18.9 57.2469 16.5C59.1802 14.1 61.6802 12.3333 64.7469 11.2C67.8802 10 71.1469 9.4 74.5469 9.4C76.8135 9.4 79.0802 9.63333 81.3469 10.1C83.6135 10.5 85.5135 11.0333 87.0469 11.7C88.0469 12.1 88.5469 12.7333 88.5469 13.6L88.8469 27.2C88.8469 27.4 88.6469 27.5333 88.2469 27.6C87.9135 27.6667 87.7135 27.6 87.6469 27.4C86.3135 23.3333 84.5135 19.6667 82.2469 16.4C80.0469 13.0667 76.7135 11.4 72.2469 11.4C69.2469 11.4 66.8469 12.2667 65.0469 14C63.3135 15.7333 62.4469 18.1 62.4469 21.1ZM120.03 74.2C115.697 74.2 111.997 73.2667 108.93 71.4C105.93 69.4667 103.697 67 102.23 64C100.764 60.9333 100.03 57.7333 100.03 54.4C100.03 50.2 101.164 46.5333 103.43 43.4C105.697 40.2 108.597 37.7667 112.13 36.1C115.73 34.3667 119.364 33.5 123.03 33.5C126.164 33.5 128.997 34.1333 131.53 35.4C134.064 36.6667 135.33 38.3667 135.33 40.5C135.33 41.6333 134.897 42.6333 134.03 43.5C133.164 44.3 131.964 44.7 130.43 44.7C127.897 44.7 126.064 43.2 124.93 40.2C124.264 38.5333 123.564 37.3667 122.83 36.7C122.097 35.9667 120.93 35.6 119.33 35.6C116.197 35.6 113.697 37.0333 111.83 39.9C110.03 42.7 109.13 46.4667 109.13 51.2C109.13 56.7333 110.397 61.2333 112.93 64.7C115.53 68.1 119.564 69.8 125.03 69.8C126.897 69.8 128.564 69.5667 130.03 69.1C131.497 68.6333 133.097 67.9 134.83 66.9H134.93C135.13 66.9 135.297 67 135.43 67.2C135.63 67.4 135.664 67.5667 135.53 67.7C133.064 69.9 130.63 71.5333 128.23 72.6C125.83 73.6667 123.097 74.2 120.03 74.2ZM167.823 33.4C169.356 33.4 170.823 33.9 172.223 34.9C173.623 35.9 174.323 37.1 174.323 38.5C174.323 39.7667 173.923 40.8 173.123 41.6C172.389 42.4 171.356 42.8 170.023 42.8C169.156 42.8 168.423 42.6333 167.823 42.3C167.289 41.9 166.723 41.3667 166.123 40.7C165.523 40.1 164.989 39.6667 164.523 39.4C164.056 39.0667 163.489 38.9 162.823 38.9C162.089 38.9 161.289 39.2 160.423 39.8C159.623 40.3333 158.356 41.5 156.623 43.3V64.9C156.623 66.7667 156.889 68.2 157.423 69.2C157.956 70.1333 158.856 70.8 160.123 71.2C161.389 71.6 163.256 71.8 165.723 71.8C165.989 71.8 166.123 72 166.123 72.4C166.123 72.8 165.989 73 165.723 73C163.523 73 161.756 72.9667 160.423 72.9L152.523 72.8L146.723 72.9C145.789 72.9667 144.489 73 142.823 73C142.623 73 142.523 72.8 142.523 72.4C142.523 72 142.623 71.8 142.823 71.8C145.089 71.8 146.589 71.3333 147.323 70.4C148.056 69.4667 148.423 67.6333 148.423 64.9V45.8C148.423 43.6667 148.156 42.1 147.623 41.1C147.156 40.1 146.356 39.6 145.223 39.6C144.223 39.6 142.556 40.1 140.223 41.1H140.123C139.856 41.1 139.656 40.9333 139.523 40.6C139.389 40.2667 139.423 40.0667 139.623 40L152.723 33.6C153.123 33.4667 153.356 33.4 153.423 33.4C154.089 33.4 154.756 34.1333 155.423 35.6C156.089 37 156.489 38.8667 156.623 41.2C159.223 38.2667 161.389 36.2333 163.123 35.1C164.856 33.9667 166.423 33.4 167.823 33.4ZM198.453 74.3C194.453 74.3 190.92 73.3667 187.853 71.5C184.786 69.5667 182.42 67 180.753 63.8C179.086 60.5333 178.253 57 178.253 53.2C178.253 48.8667 179.32 45.2 181.453 42.2C183.653 39.1333 186.42 36.8667 189.753 35.4C193.153 33.8667 196.62 33.1 200.153 33.1C204.22 33.1 207.753 34.0667 210.753 36C213.82 37.9333 216.153 40.5 217.753 43.7C219.353 46.8333 220.153 50.2 220.153 53.8C220.153 57.8 219.153 61.3667 217.153 64.5C215.22 67.6333 212.586 70.0667 209.253 71.8C205.92 73.4667 202.32 74.3 198.453 74.3ZM201.453 72.3C204.386 72.3 206.62 71 208.153 68.4C209.753 65.8 210.553 62 210.553 57C210.553 52.5333 209.92 48.6333 208.653 45.3C207.453 41.9667 205.786 39.4333 203.653 37.7C201.586 35.9667 199.32 35.1 196.853 35.1C193.853 35.1 191.586 36.3333 190.053 38.8C188.52 41.2667 187.753 44.9 187.753 49.7C187.753 54.0333 188.32 57.9333 189.453 61.4C190.653 64.8 192.286 67.4667 194.353 69.4C196.486 71.3333 198.853 72.3 201.453 72.3ZM227.286 73C227.086 73 226.986 72.8 226.986 72.4C226.986 72 227.086 71.8 227.286 71.8C229.486 71.8 230.986 71.3333 231.786 70.4C232.586 69.4 232.986 67.5667 232.986 64.9V13.8C232.986 11.4667 232.753 9.8 232.286 8.8C231.886 7.73333 231.119 7.19999 229.986 7.19999C228.986 7.19999 227.653 7.6 225.986 8.4H225.886C225.619 8.4 225.419 8.23333 225.286 7.9C225.153 7.56666 225.153 7.33333 225.286 7.19999L239.386 0.599996L239.786 0.499998C240.053 0.499998 240.353 0.633331 240.686 0.899998C241.086 1.16667 241.286 1.4 241.286 1.6V64.9C241.286 67.6333 241.653 69.4667 242.386 70.4C243.119 71.3333 244.619 71.8 246.886 71.8C247.086 71.8 247.186 72 247.186 72.4C247.186 72.8 247.086 73 246.886 73C245.286 73 243.986 72.9667 242.986 72.9L237.086 72.8L231.286 72.9C230.286 72.9667 228.953 73 227.286 73ZM253.751 73C253.551 73 253.451 72.8 253.451 72.4C253.451 72 253.551 71.8 253.751 71.8C255.951 71.8 257.451 71.3333 258.251 70.4C259.051 69.4 259.451 67.5667 259.451 64.9V13.8C259.451 11.4667 259.217 9.8 258.751 8.8C258.351 7.73333 257.584 7.19999 256.451 7.19999C255.451 7.19999 254.117 7.6 252.451 8.4H252.351C252.084 8.4 251.884 8.23333 251.751 7.9C251.617 7.56666 251.617 7.33333 251.751 7.19999L265.851 0.599996L266.251 0.499998C266.517 0.499998 266.817 0.633331 267.151 0.899998C267.551 1.16667 267.751 1.4 267.751 1.6V64.9C267.751 67.6333 268.117 69.4667 268.851 70.4C269.584 71.3333 271.084 71.8 273.351 71.8C273.551 71.8 273.651 72 273.651 72.4C273.651 72.8 273.551 73 273.351 73C271.751 73 270.451 72.9667 269.451 72.9L263.551 72.8L257.751 72.9C256.751 72.9667 255.417 73 253.751 73ZM156.844 192.8C157.177 192.8 157.344 193 157.344 193.4C157.344 193.8 157.177 194 156.844 194C155.577 194 153.544 193.933 150.744 193.8C147.944 193.667 145.911 193.6 144.644 193.6C142.977 193.6 141.011 193.667 138.744 193.8C136.477 193.933 134.711 194 133.444 194C133.177 194 133.044 193.8 133.044 193.4C133.044 193 133.177 192.8 133.444 192.8C135.377 192.8 136.777 192.6 137.644 192.2C138.577 191.733 139.044 191 139.044 190C139.044 189 138.477 187.3 137.344 184.9L129.744 169.5H105.544L100.744 180.3C99.8775 182.3 99.4441 184.1 99.4441 185.7C99.4441 188.033 100.277 189.8 101.944 191C103.611 192.2 105.944 192.8 108.944 192.8C109.277 192.8 109.444 193 109.444 193.4C109.444 193.8 109.277 194 108.944 194C107.744 194 106.011 193.933 103.744 193.8C101.211 193.667 99.0108 193.6 97.1441 193.6C95.3441 193.6 93.2441 193.667 90.8441 193.8C88.7108 193.933 86.9441 194 85.5441 194C85.2108 194 85.0441 193.8 85.0441 193.4C85.0441 193 85.2108 192.8 85.5441 192.8C87.4108 192.8 88.9775 192.433 90.2441 191.7C91.5108 190.967 92.7441 189.667 93.9441 187.8C95.1441 185.867 96.5775 183.033 98.2441 179.3L119.744 130.9C119.877 130.7 120.177 130.6 120.644 130.6C121.111 130.6 121.377 130.7 121.444 130.9L145.944 180.3C148.277 185.1 150.211 188.4 151.744 190.2C153.344 191.933 155.044 192.8 156.844 192.8ZM106.644 167H128.544L117.044 143.7L106.644 167ZM207.238 192.8C207.438 192.8 207.538 193 207.538 193.4C207.538 193.8 207.438 194 207.238 194C205.571 194 204.271 193.967 203.338 193.9L197.538 193.8L191.838 193.9C190.838 193.967 189.505 194 187.838 194C187.638 194 187.538 193.8 187.538 193.4C187.538 193 187.638 192.8 187.838 192.8C190.105 192.8 191.605 192.333 192.338 191.4C193.071 190.467 193.438 188.633 193.438 185.9V170.9C193.438 167.167 192.738 164.433 191.338 162.7C190.005 160.9 187.871 160 184.938 160C183.205 160 181.438 160.4 179.638 161.2C177.838 162 176.205 163.067 174.738 164.4V185.9C174.738 188.633 175.105 190.467 175.838 191.4C176.571 192.333 178.071 192.8 180.338 192.8C180.538 192.8 180.638 193 180.638 193.4C180.638 193.8 180.538 194 180.338 194C178.671 194 177.371 193.967 176.438 193.9L170.638 193.8L164.838 193.9C163.905 193.967 162.605 194 160.938 194C160.738 194 160.638 193.8 160.638 193.4C160.638 193 160.738 192.8 160.938 192.8C163.205 192.8 164.705 192.333 165.438 191.4C166.171 190.467 166.538 188.633 166.538 185.9V166.8C166.538 164.667 166.271 163.1 165.738 162.1C165.271 161.1 164.471 160.6 163.338 160.6C162.338 160.6 160.671 161.1 158.338 162.1H158.238C157.971 162.1 157.771 161.933 157.638 161.6C157.505 161.267 157.538 161.067 157.738 161L170.838 154.6C171.238 154.467 171.471 154.4 171.538 154.4C172.205 154.4 172.871 155.167 173.538 156.7C174.271 158.167 174.671 160.1 174.738 162.5C179.405 156.967 184.471 154.2 189.938 154.2C193.605 154.2 196.471 155.333 198.538 157.6C200.605 159.8 201.638 162.8 201.638 166.6V185.9C201.638 188.633 202.005 190.467 202.738 191.4C203.471 192.333 204.971 192.8 207.238 192.8ZM259.582 187.8C259.782 187.8 259.948 187.967 260.082 188.3C260.282 188.633 260.282 188.833 260.082 188.9L247.282 195.1L246.682 195.2C246.015 195.2 245.382 194.533 244.782 193.2C244.248 191.867 243.948 190.067 243.882 187.8C241.482 190.067 239.015 191.9 236.482 193.3C233.948 194.633 231.182 195.3 228.182 195.3C225.315 195.3 222.682 194.533 220.282 193C217.882 191.4 215.982 189.133 214.582 186.2C213.182 183.267 212.482 179.833 212.482 175.9C212.482 170.967 213.648 166.867 215.982 163.6C218.315 160.333 221.248 157.933 224.782 156.4C228.315 154.867 231.848 154.1 235.382 154.1C238.315 154.1 241.115 154.633 243.782 155.7V134.8C243.782 132.467 243.548 130.8 243.082 129.8C242.682 128.733 241.915 128.2 240.782 128.2C240.048 128.2 238.715 128.6 236.782 129.4H236.582C236.315 129.4 236.115 129.233 235.982 128.9C235.848 128.567 235.848 128.367 235.982 128.3L250.082 121.6L250.482 121.5C250.748 121.5 251.048 121.633 251.382 121.9C251.715 122.167 251.882 122.4 251.882 122.6V182.6C251.882 184.933 252.115 186.6 252.582 187.6C253.048 188.533 253.848 189 254.982 189C256.315 189 257.815 188.6 259.482 187.8H259.582ZM233.182 190.9C235.115 190.9 236.915 190.467 238.582 189.6C240.315 188.733 242.048 187.5 243.782 185.9V185.8V162C242.448 160.133 240.948 158.767 239.282 157.9C237.682 156.967 235.748 156.5 233.482 156.5C229.682 156.5 226.715 157.833 224.582 160.5C222.515 163.167 221.482 167.267 221.482 172.8C221.482 178.4 222.582 182.833 224.782 186.1C226.982 189.3 229.782 190.9 233.182 190.9ZM45.9234 299.4C45.9234 299.267 46.0568 299.2 46.3234 299.2C46.5234 299.2 46.6901 299.267 46.8234 299.4C47.0234 299.467 47.1234 299.533 47.1234 299.6C46.4568 304.667 46.1234 309.3 46.1234 313.5C46.1234 314.033 46.0234 314.433 45.8234 314.7C45.6234 314.9 45.2234 315 44.6234 315H1.22344C1.02344 315 0.923438 314.8 0.923438 314.4C0.923438 314 1.02344 313.8 1.22344 313.8C3.4901 313.8 5.12344 313.633 6.12344 313.3C7.1901 312.967 7.8901 312.333 8.22344 311.4C8.62344 310.4 8.82344 308.9 8.82344 306.9V260.6C8.82344 258.6 8.62344 257.133 8.22344 256.2C7.8901 255.267 7.1901 254.633 6.12344 254.3C5.05677 253.9 3.42344 253.7 1.22344 253.7C1.02344 253.7 0.923438 253.5 0.923438 253.1C0.923438 252.7 1.02344 252.5 1.22344 252.5H42.8234C43.4901 252.5 43.8234 252.8 43.8234 253.4L44.0234 266.4C44.0234 266.533 43.8234 266.633 43.4234 266.7C43.0901 266.767 42.8901 266.7 42.8234 266.5C41.2234 258.9 36.5901 255.1 28.9234 255.1H24.9234C22.5234 255.1 20.8234 255.533 19.8234 256.4C18.8234 257.267 18.3234 258.733 18.3234 260.8V281.2H27.9234C35.2568 281.2 38.9234 278.733 38.9234 273.8C38.9234 273.6 39.0901 273.5 39.4234 273.5C39.8234 273.5 40.0234 273.6 40.0234 273.8L39.9234 282.5L40.0234 287.2C40.1568 289.333 40.2234 291.067 40.2234 292.4C40.2234 292.533 40.0234 292.6 39.6234 292.6C39.2234 292.6 39.0234 292.533 39.0234 292.4C39.0234 286.667 35.2901 283.8 27.8234 283.8H18.3234V306.5C18.3234 308.7 18.7234 310.233 19.5234 311.1C20.3901 311.967 21.8901 312.4 24.0234 312.4H28.9234C37.8568 312.4 43.5234 308.067 45.9234 299.4ZM95.0109 313.8C95.2109 313.8 95.3109 314 95.3109 314.4C95.3109 314.8 95.2109 315 95.0109 315L91.5109 314.9C90.7109 314.833 89.5443 314.8 88.0109 314.8L81.1109 314.9C80.1109 314.967 78.7109 315 76.9109 315C76.7109 315 76.6109 314.8 76.6109 314.4C76.6109 314 76.7109 313.8 76.9109 313.8C78.6443 313.8 79.5109 313.333 79.5109 312.4C79.5109 311.867 79.1443 311.033 78.4109 309.9L71.5109 299.5L67.2109 305.8C65.7443 307.867 65.0109 309.6 65.0109 311C65.0109 312.867 66.6109 313.8 69.8109 313.8C70.0109 313.8 70.1109 314 70.1109 314.4C70.1109 314.8 70.0109 315 69.8109 315C68.0109 315 66.6776 314.967 65.8109 314.9L59.8109 314.8L55.8109 314.9C55.1443 314.967 54.0109 315 52.4109 315C52.2109 315 52.1109 314.8 52.1109 314.4C52.1109 314 52.2109 313.8 52.4109 313.8C54.3443 313.8 56.4109 313.033 58.6109 311.5C60.8776 309.967 63.0109 307.833 65.0109 305.1L70.3109 297.8L61.6109 284.7C60.1443 282.433 58.6776 280.7 57.2109 279.5C55.7443 278.233 54.4109 277.6 53.2109 277.6C53.0776 277.6 53.0109 277.4 53.0109 277C53.0109 276.6 53.0776 276.4 53.2109 276.4C54.6109 276.4 55.6443 276.433 56.3109 276.5L59.4109 276.6L66.1109 276.5C67.1776 276.433 68.6443 276.4 70.5109 276.4C70.6443 276.4 70.7109 276.6 70.7109 277C70.7109 277.4 70.6443 277.6 70.5109 277.6C68.7776 277.6 67.9109 278.067 67.9109 279C67.9109 279.667 68.2776 280.5 69.0109 281.5L75.2109 290.9L78.7109 285.6C80.2443 283.333 81.0109 281.6 81.0109 280.4C81.0109 278.533 79.3776 277.6 76.1109 277.6C75.9776 277.6 75.9109 277.4 75.9109 277C75.9109 276.6 75.9776 276.4 76.1109 276.4C77.9109 276.4 79.2776 276.433 80.2109 276.5L86.2109 276.6L90.2109 276.5C90.8776 276.433 92.0109 276.4 93.6109 276.4C93.8109 276.4 93.9109 276.6 93.9109 277C93.9109 277.4 93.8109 277.6 93.6109 277.6C91.6776 277.6 89.5776 278.367 87.3109 279.9C85.1109 281.433 83.0109 283.567 81.0109 286.3L76.3109 292.6L85.7109 306.7C87.3109 309.1 88.9443 310.9 90.6109 312.1C92.2776 313.233 93.7443 313.8 95.0109 313.8ZM121.754 316.3C118.554 316.3 115.454 315.8 112.454 314.8V334.4C112.454 336.4 112.687 337.867 113.154 338.8C113.621 339.733 114.487 340.367 115.754 340.7C117.021 341.1 119.021 341.3 121.754 341.3C121.887 341.3 121.954 341.5 121.954 341.9C121.954 342.3 121.887 342.5 121.754 342.5C119.354 342.5 117.487 342.467 116.154 342.4L108.354 342.3L102.654 342.4C101.654 342.467 100.287 342.5 98.5539 342.5C98.3539 342.5 98.2539 342.3 98.2539 341.9C98.2539 341.5 98.3539 341.3 98.5539 341.3C100.221 341.3 101.454 341.1 102.254 340.7C103.054 340.367 103.587 339.733 103.854 338.8C104.187 337.867 104.354 336.4 104.354 334.4V287.9C104.354 285.7 104.087 284.1 103.554 283.1C103.087 282.1 102.254 281.6 101.054 281.6C99.9206 281.6 98.3206 282.067 96.2539 283H96.0539C95.7872 283 95.5872 282.867 95.4539 282.6C95.3206 282.267 95.3206 282.033 95.4539 281.9L108.654 275.6C108.787 275.533 108.987 275.5 109.254 275.5C109.987 275.5 110.654 276.133 111.254 277.4C111.854 278.6 112.221 280.267 112.354 282.4C117.487 277.533 122.687 275.1 127.954 275.1C130.754 275.1 133.354 275.833 135.754 277.3C138.154 278.767 140.054 280.9 141.454 283.7C142.921 286.5 143.654 289.767 143.654 293.5C143.654 298.767 142.521 303.1 140.254 306.5C138.054 309.9 135.287 312.4 131.954 314C128.621 315.533 125.221 316.3 121.754 316.3ZM122.154 280.1C118.754 280.1 115.521 281.533 112.454 284.4V284.6V308.5C114.054 310.233 115.721 311.567 117.454 312.5C119.254 313.433 121.421 313.9 123.954 313.9C127.287 313.9 129.921 312.467 131.854 309.6C133.787 306.667 134.754 302.333 134.754 296.6C134.754 291.333 133.554 287.267 131.154 284.4C128.754 281.533 125.754 280.1 122.154 280.1ZM150.626 315C150.426 315 150.326 314.8 150.326 314.4C150.326 314 150.426 313.8 150.626 313.8C152.826 313.8 154.326 313.333 155.126 312.4C155.926 311.4 156.326 309.567 156.326 306.9V255.8C156.326 253.467 156.092 251.8 155.626 250.8C155.226 249.733 154.459 249.2 153.326 249.2C152.326 249.2 150.992 249.6 149.326 250.4H149.226C148.959 250.4 148.759 250.233 148.626 249.9C148.492 249.567 148.492 249.333 148.626 249.2L162.726 242.6L163.126 242.5C163.392 242.5 163.692 242.633 164.026 242.9C164.426 243.167 164.626 243.4 164.626 243.6V306.9C164.626 309.633 164.992 311.467 165.726 312.4C166.459 313.333 167.959 313.8 170.226 313.8C170.426 313.8 170.526 314 170.526 314.4C170.526 314.8 170.426 315 170.226 315C168.626 315 167.326 314.967 166.326 314.9L160.426 314.8L154.626 314.9C153.626 314.967 152.292 315 150.626 315ZM196.891 316.3C192.891 316.3 189.357 315.367 186.291 313.5C183.224 311.567 180.857 309 179.191 305.8C177.524 302.533 176.691 299 176.691 295.2C176.691 290.867 177.757 287.2 179.891 284.2C182.091 281.133 184.857 278.867 188.191 277.4C191.591 275.867 195.057 275.1 198.591 275.1C202.657 275.1 206.191 276.067 209.191 278C212.257 279.933 214.591 282.5 216.191 285.7C217.791 288.833 218.591 292.2 218.591 295.8C218.591 299.8 217.591 303.367 215.591 306.5C213.657 309.633 211.024 312.067 207.691 313.8C204.357 315.467 200.757 316.3 196.891 316.3ZM199.891 314.3C202.824 314.3 205.057 313 206.591 310.4C208.191 307.8 208.991 304 208.991 299C208.991 294.533 208.357 290.633 207.091 287.3C205.891 283.967 204.224 281.433 202.091 279.7C200.024 277.967 197.757 277.1 195.291 277.1C192.291 277.1 190.024 278.333 188.491 280.8C186.957 283.267 186.191 286.9 186.191 291.7C186.191 296.033 186.757 299.933 187.891 303.4C189.091 306.8 190.724 309.467 192.791 311.4C194.924 313.333 197.291 314.3 199.891 314.3ZM251.123 275.4C252.657 275.4 254.123 275.9 255.523 276.9C256.923 277.9 257.623 279.1 257.623 280.5C257.623 281.767 257.223 282.8 256.423 283.6C255.69 284.4 254.657 284.8 253.323 284.8C252.457 284.8 251.723 284.633 251.123 284.3C250.59 283.9 250.023 283.367 249.423 282.7C248.823 282.1 248.29 281.667 247.823 281.4C247.357 281.067 246.79 280.9 246.123 280.9C245.39 280.9 244.59 281.2 243.723 281.8C242.923 282.333 241.657 283.5 239.923 285.3V306.9C239.923 308.767 240.19 310.2 240.723 311.2C241.257 312.133 242.157 312.8 243.423 313.2C244.69 313.6 246.557 313.8 249.023 313.8C249.29 313.8 249.423 314 249.423 314.4C249.423 314.8 249.29 315 249.023 315C246.823 315 245.057 314.967 243.723 314.9L235.823 314.8L230.023 314.9C229.09 314.967 227.79 315 226.123 315C225.923 315 225.823 314.8 225.823 314.4C225.823 314 225.923 313.8 226.123 313.8C228.39 313.8 229.89 313.333 230.623 312.4C231.357 311.467 231.723 309.633 231.723 306.9V287.8C231.723 285.667 231.457 284.1 230.923 283.1C230.457 282.1 229.657 281.6 228.523 281.6C227.523 281.6 225.857 282.1 223.523 283.1H223.423C223.157 283.1 222.957 282.933 222.823 282.6C222.69 282.267 222.723 282.067 222.923 282L236.023 275.6C236.423 275.467 236.657 275.4 236.723 275.4C237.39 275.4 238.057 276.133 238.723 277.6C239.39 279 239.79 280.867 239.923 283.2C242.523 280.267 244.69 278.233 246.423 277.1C248.157 275.967 249.723 275.4 251.123 275.4ZM296.154 308.7C296.287 308.7 296.421 308.833 296.554 309.1C296.754 309.367 296.787 309.567 296.654 309.7C294.187 311.967 291.721 313.633 289.254 314.7C286.787 315.7 284.121 316.2 281.254 316.2C277.187 316.2 273.654 315.3 270.654 313.5C267.721 311.7 265.454 309.333 263.854 306.4C262.321 303.467 261.554 300.3 261.554 296.9C261.554 292.967 262.521 289.367 264.454 286.1C266.387 282.833 269.021 280.267 272.354 278.4C275.754 276.467 279.521 275.5 283.654 275.5C287.654 275.5 290.754 276.467 292.954 278.4C295.154 280.333 296.254 283.2 296.254 287C296.254 288.933 295.854 289.9 295.054 289.9L270.654 290C270.587 290.6 270.554 291.5 270.554 292.7C270.554 298.567 271.887 303.233 274.554 306.7C277.287 310.1 281.154 311.8 286.154 311.8C288.021 311.8 289.587 311.6 290.854 311.2C292.121 310.733 293.821 309.933 295.954 308.8L296.154 308.7ZM280.054 277.5C277.587 277.5 275.554 278.467 273.954 280.4C272.421 282.267 271.387 284.867 270.854 288.2L286.854 287.9C286.721 280.967 284.454 277.5 280.054 277.5ZM329.895 253.3C329.762 252.967 330.362 252.7 331.695 252.5C333.095 252.233 334.562 252.1 336.095 252.1C337.562 252.1 338.995 252.233 340.395 252.5C341.795 252.7 342.429 252.967 342.295 253.3C340.962 258.7 339.929 264.6 339.195 271C338.529 277.333 337.895 285.033 337.295 294.1L337.195 296.1C337.195 296.367 336.762 296.5 335.895 296.5C334.962 296.5 334.495 296.367 334.495 296.1C334.029 286.767 333.462 278.733 332.795 272C332.195 265.2 331.229 258.967 329.895 253.3ZM335.495 316.1C333.829 316.1 332.495 315.6 331.495 314.6C330.495 313.6 329.995 312.267 329.995 310.6C329.995 309 330.495 307.733 331.495 306.8C332.495 305.867 333.829 305.4 335.495 305.4C337.229 305.4 338.562 305.867 339.495 306.8C340.429 307.733 340.895 309 340.895 310.6C340.895 312.333 340.429 313.7 339.495 314.7C338.562 315.633 337.229 316.1 335.495 316.1Z" fill="#4971FF"/>
</svg>
